<svg xmlns="http://www.w3.org/2000/svg" viewBox="0 0 256 256"><rect width="256" height="256" fill="none"/><path d="M56.2,104a71.9,71.9,0,0,1,72.3-72c39.6.3,71.3,33.2,71.3,72.9V112c0,35.8,7.5,56.6,14.1,68a8,8,0,0,1-6.9,12H49a8,8,0,0,1-6.9-12c6.6-11.4,14.1-32.2,14.1-68Z" fill="none" stroke="#000" stroke-linecap="round" stroke-linejoin="round" stroke-width="8"/><path d="M96,192v8a32,32,0,0,0,64,0v-8" fill="none" stroke="#000" stroke-linecap="round" stroke-linejoin="round" stroke-width="8"/><polyline points="108 96 148 96 108 144 148 144" fill="none" stroke="#000" stroke-linecap="round" stroke-linejoin="round" stroke-width="8"/></svg>