<svg xmlns="http://www.w3.org/2000/svg" viewBox="0 0 256 256"><rect width="256" height="256" fill="none"/><line x1="128" y1="48" x2="128" y2="24" fill="none" stroke="#000" stroke-linecap="round" stroke-linejoin="round" stroke-width="8"/><path d="M224,160c-14.6,51-82.2,68.8-94.2,71.6a7.3,7.3,0,0,1-3.6,0C114.2,228.8,46.6,211,32,160V125.8a8,8,0,0,1,5.5-7.6l88-29.4a8.5,8.5,0,0,1,5,0l88,29.4a8,8,0,0,1,5.5,7.6Z" fill="none" stroke="#000" stroke-linecap="round" stroke-linejoin="round" stroke-width="8"/><line x1="128" y1="168" x2="128" y2="88.4" fill="none" stroke="#000" stroke-linecap="round" stroke-linejoin="round" stroke-width="8"/><path d="M56,112V56a8,8,0,0,1,8-8H192a8,8,0,0,1,8,8v56" fill="none" stroke="#000" stroke-linecap="round" stroke-linejoin="round" stroke-width="8"/></svg>