<svg xmlns="http://www.w3.org/2000/svg" viewBox="0 0 256 256"><rect width="256" height="256" fill="none"/><line x1="42" y1="72" x2="214" y2="72" fill="none" stroke="#000" stroke-linecap="round" stroke-linejoin="round" stroke-width="8"/><line x1="42" y1="120" x2="214" y2="120" fill="none" stroke="#000" stroke-linecap="round" stroke-linejoin="round" stroke-width="8"/><path d="M214,192H42V64A23.9,23.9,0,0,1,66,40H190a23.9,23.9,0,0,1,24,24Z" fill="none" stroke="#000" stroke-linecap="round" stroke-linejoin="round" stroke-width="8"/><path d="M214,192v24a8,8,0,0,1-8,8H182a8,8,0,0,1-8-8V192" fill="none" stroke="#000" stroke-linecap="round" stroke-linejoin="round" stroke-width="8"/><path d="M82,192v24a8,8,0,0,1-8,8H50a8,8,0,0,1-8-8V192" fill="none" stroke="#000" stroke-linecap="round" stroke-linejoin="round" stroke-width="8"/><circle cx="84" cy="156" r="8"/><circle cx="172" cy="156" r="8"/></svg>