<svg xmlns="http://www.w3.org/2000/svg" viewBox="0 0 256 256"><rect width="256" height="256" fill="none"/><line x1="128" y1="88" x2="128" y2="64" fill="none" stroke="#000" stroke-linecap="round" stroke-linejoin="round" stroke-width="8"/><path d="M128,64c46.2-16,0-56,0-56S80,48,128,64Z" fill="none" stroke="#000" stroke-linecap="round" stroke-linejoin="round" stroke-width="8"/><path d="M162,126a34,34,0,0,1-68,0" fill="none" stroke="#000" stroke-linecap="round" stroke-linejoin="round" stroke-width="8"/><path d="M94,126a34,34,0,0,1-33.3,34c-19.1.4-34.7-15.6-34.7-34.7V112A23.9,23.9,0,0,1,50,88H206a23.9,23.9,0,0,1,24,24v13.3c0,19.1-15.6,35.1-34.7,34.7A34,34,0,0,1,162,126" fill="none" stroke="#000" stroke-linecap="round" stroke-linejoin="round" stroke-width="8"/><path d="M216,153.3V208a8,8,0,0,1-8,8H48a8,8,0,0,1-8-8V153.3" fill="none" stroke="#000" stroke-linecap="round" stroke-linejoin="round" stroke-width="8"/></svg>