<svg xmlns="http://www.w3.org/2000/svg" viewBox="0 0 256 256"><rect width="256" height="256" fill="none"/><path d="M54.5,201.5c-9.2-9.2-3.1-28.5-7.8-39.8S24,140.5,24,128s17.8-22,22.7-33.7-1.4-30.6,7.8-39.8S83,51.4,94.3,46.7,115.5,24,128,24s22,17.8,33.7,22.7,30.6-1.4,39.8,7.8,3.1,28.5,7.8,39.8S232,115.5,232,128s-17.8,22-22.7,33.7,1.4,30.6-7.8,39.8-28.5,3.1-39.8,7.8S140.5,232,128,232s-22-17.8-33.7-22.7S63.7,210.7,54.5,201.5Z" fill="none" stroke="#000" stroke-linecap="round" stroke-linejoin="round" stroke-width="8"/><polyline points="172 104 113.3 160 84 132" fill="none" stroke="#000" stroke-linecap="round" stroke-linejoin="round" stroke-width="8"/></svg>