<svg xmlns="http://www.w3.org/2000/svg" viewBox="0 0 256 256"><rect width="256" height="256" fill="none"/><path d="M37.9,207.9,91.7,59.8a8,8,0,0,1,13.2-2.9l94.2,94.2a8,8,0,0,1-2.9,13.2L48.1,218.1A7.9,7.9,0,0,1,37.9,207.9Z" fill="none" stroke="#000" stroke-linecap="round" stroke-linejoin="round" stroke-width="8"/><path d="M168,72s0-24,24-24,24-24,24-24" fill="none" stroke="#000" stroke-linecap="round" stroke-linejoin="round" stroke-width="8"/><line x1="102.4" y1="198.4" x2="57.6" y2="153.6" fill="none" stroke="#000" stroke-linecap="round" stroke-linejoin="round" stroke-width="8"/><line x1="144" y1="16" x2="144" y2="40" fill="none" stroke="#000" stroke-linecap="round" stroke-linejoin="round" stroke-width="8"/><line x1="216" y1="112" x2="232" y2="128" fill="none" stroke="#000" stroke-linecap="round" stroke-linejoin="round" stroke-width="8"/><line x1="216" y1="80" x2="240" y2="72" fill="none" stroke="#000" stroke-linecap="round" stroke-linejoin="round" stroke-width="8"/><line x1="76.8" y1="100.8" x2="155.2" y2="179.2" fill="none" stroke="#000" stroke-linecap="round" stroke-linejoin="round" stroke-width="8"/></svg>