<svg xmlns="http://www.w3.org/2000/svg" viewBox="0 0 256 256"><rect width="256" height="256" fill="none"/><path d="M58,216a24,24,0,0,0,0-48H44v48Z" fill="none" stroke="#000" stroke-linecap="round" stroke-linejoin="round" stroke-width="8"/><ellipse cx="130" cy="192" rx="22" ry="24" fill="none" stroke="#000" stroke-linecap="round" stroke-linejoin="round" stroke-width="8"/><path d="M212,210.5a21,21,0,0,1-14,5.5c-12.2,0-22-10.7-22-24s9.8-24,22-24a21,21,0,0,1,14,5.5" fill="none" stroke="#000" stroke-linecap="round" stroke-linejoin="round" stroke-width="8"/><path d="M48,128V40a8,8,0,0,1,8-8h96l56,56v40" fill="none" stroke="#000" stroke-linecap="round" stroke-linejoin="round" stroke-width="8"/><polyline points="152 32 152 88 208 88" fill="none" stroke="#000" stroke-linecap="round" stroke-linejoin="round" stroke-width="8"/></svg>