<svg xmlns="http://www.w3.org/2000/svg" viewBox="0 0 256 256"><rect width="256" height="256" fill="none"/><path d="M168,224H56a8,8,0,0,1-8-8V72a8,8,0,0,1,8-8h80l40,40V216A8,8,0,0,1,168,224Z" fill="none" stroke="#000" stroke-linecap="round" stroke-linejoin="round" stroke-width="8"/><path d="M80,64V40a8,8,0,0,1,8-8h80l40,40V184a8,8,0,0,1-8,8H176" fill="none" stroke="#000" stroke-linecap="round" stroke-linejoin="round" stroke-width="8"/><line x1="88" y1="152" x2="136" y2="152" fill="none" stroke="#000" stroke-linecap="round" stroke-linejoin="round" stroke-width="8"/><line x1="88" y1="184" x2="136" y2="184" fill="none" stroke="#000" stroke-linecap="round" stroke-linejoin="round" stroke-width="8"/></svg>