<svg xmlns="http://www.w3.org/2000/svg" viewBox="0 0 256 256"><rect width="256" height="256" fill="none"/><path d="M224,88V200.9a7.1,7.1,0,0,1-7.1,7.1H40a8,8,0,0,1-8-8V64a8,8,0,0,1,8-8H93.3a8.1,8.1,0,0,1,4.8,1.6l27.8,20.8a8.1,8.1,0,0,0,4.8,1.6H216A8,8,0,0,1,224,88Z" fill="none" stroke="#000" stroke-linecap="round" stroke-linejoin="round" stroke-width="8"/><line x1="104" y1="144" x2="152" y2="144" fill="none" stroke="#000" stroke-linecap="round" stroke-linejoin="round" stroke-width="8"/><line x1="128" y1="120" x2="128" y2="168" fill="none" stroke="#000" stroke-linecap="round" stroke-linejoin="round" stroke-width="8"/></svg>