<svg xmlns="http://www.w3.org/2000/svg" viewBox="0 0 256 256"><rect width="256" height="256" fill="none"/><circle cx="128" cy="128" r="96" fill="none" stroke="#000" stroke-linecap="round" stroke-linejoin="round" stroke-width="8"/><path d="M49.6,183.4l11.7-7.1a8,8,0,0,0,3.8-6.8l.2-36.1a7.7,7.7,0,0,1,1.3-4.2L86.4,98.1a8.1,8.1,0,0,1,11.5-2.2l19.6,14.2a8.6,8.6,0,0,0,5.8,1.5l31.5-4.3a7.8,7.8,0,0,0,4.9-2.7L181.9,79a8.1,8.1,0,0,0,1.9-5.6l-1.1-24.3" fill="none" stroke="#000" stroke-linecap="round" stroke-linejoin="round" stroke-width="8"/><path d="M187.1,203.7l-10.8-10.8a8.2,8.2,0,0,0-3.6-2.1l-21.5-5.6a8,8,0,0,1-5.8-8.9l2.3-16.2a8.2,8.2,0,0,1,4.9-6.2L183,141.2a8,8,0,0,1,8.5,1.5l24.9,22.8" fill="none" stroke="#000" stroke-linecap="round" stroke-linejoin="round" stroke-width="8"/></svg>