<svg xmlns="http://www.w3.org/2000/svg" viewBox="0 0 256 256"><rect width="256" height="256" fill="none"/><path d="M48.8,96A8,8,0,0,1,41,86.3C47.4,55.5,83.9,32,128,32s80.6,23.5,87,54.3a8,8,0,0,1-7.8,9.7Z" fill="none" stroke="#000" stroke-linecap="round" stroke-linejoin="round" stroke-width="8"/><path d="M208,168v16a32,32,0,0,1-32,32H80a32,32,0,0,1-32-32V168" fill="none" stroke="#000" stroke-linecap="round" stroke-linejoin="round" stroke-width="8"/><polyline points="28 176 68 160 108 176 148 160 188 176 228 160" fill="none" stroke="#000" stroke-linecap="round" stroke-linejoin="round" stroke-width="8"/><line x1="24" y1="128" x2="232" y2="128" fill="none" stroke="#000" stroke-linecap="round" stroke-linejoin="round" stroke-width="8"/></svg>