<svg xmlns="http://www.w3.org/2000/svg" viewBox="0 0 256 256"><rect width="256" height="256" fill="none"/><line x1="48" y1="40" x2="208" y2="216" fill="none" stroke="#000" stroke-linecap="round" stroke-linejoin="round" stroke-width="8"/><path d="M115,113.7a83.3,83.3,0,0,0-14.7,3.7,8,8,0,0,0-5.2,5.9l-5.8,29.5a8.2,8.2,0,0,1-4.9,5.9L37.1,177.6a7.9,7.9,0,0,1-9.3-2.5,48,48,0,0,1,4-63.3,136.1,136.1,0,0,1,52-32.4" fill="none" stroke="#000" stroke-linecap="round" stroke-linejoin="round" stroke-width="8"/><path d="M120.5,72.2a136.1,136.1,0,0,1,103.7,39.6,48,48,0,0,1,4,63.3,7.9,7.9,0,0,1-9.3,2.5l-4-1.6" fill="none" stroke="#000" stroke-linecap="round" stroke-linejoin="round" stroke-width="8"/></svg>