<svg xmlns="http://www.w3.org/2000/svg" viewBox="0 0 256 256"><rect width="256" height="256" fill="none"/><line x1="88" y1="168" x2="48" y2="208" fill="none" stroke="#000" stroke-linecap="round" stroke-linejoin="round" stroke-width="8"/><line x1="48" y1="40" x2="208" y2="216" fill="none" stroke="#000" stroke-linecap="round" stroke-linejoin="round" stroke-width="8"/><path d="M93.7,90.3,92,92S64.3,78.1,34.6,102.1A8,8,0,0,0,34,114L141.8,221.8a8,8,0,0,0,12.1-.8c7.6-10.1,19.1-29.9,12.7-50.5" fill="none" stroke="#000" stroke-linecap="round" stroke-linejoin="round" stroke-width="8"/><path d="M184.9,143.1l41.4-41.4a8,8,0,0,0,0-11.4L165.7,29.7a8,8,0,0,0-11.4,0L116.4,67.6" fill="none" stroke="#000" stroke-linecap="round" stroke-linejoin="round" stroke-width="8"/></svg>