<svg xmlns="http://www.w3.org/2000/svg" viewBox="0 0 256 256"><rect width="256" height="256" fill="none"/><path d="M152,200c-13.3,0-24-11.1-24-24.9s10.7-24.9,24-24.9a21.6,21.6,0,0,1,8.8,1.8h0A40,40,0,1,1,200,200Z" fill="none" stroke="#000" stroke-linecap="round" stroke-linejoin="round" stroke-width="8"/><path d="M16,176V160A96,96,0,0,1,178.9,91.2" fill="none" stroke="#000" stroke-linecap="round" stroke-linejoin="round" stroke-width="8"/><path d="M48,176V160a64,64,0,0,1,101.9-51.6" fill="none" stroke="#000" stroke-linecap="round" stroke-linejoin="round" stroke-width="8"/><path d="M80,176V160a32,32,0,0,1,32-32,30,30,0,0,1,7.4.9" fill="none" stroke="#000" stroke-linecap="round" stroke-linejoin="round" stroke-width="8"/></svg>