<svg xmlns="http://www.w3.org/2000/svg" viewBox="0 0 256 256"><rect width="256" height="256" fill="none"/><path d="M40,114.7V56a8,8,0,0,1,8-8H208a8,8,0,0,1,8,8v58.7c0,84-71.3,111.8-85.5,116.5a7.2,7.2,0,0,1-5,0C111.3,226.5,40,198.7,40,114.7Z" fill="none" stroke="#000" stroke-linecap="round" stroke-linejoin="round" stroke-width="8"/><line x1="128" y1="96" x2="128" y2="136" fill="none" stroke="#000" stroke-linecap="round" stroke-linejoin="round" stroke-width="8"/><line x1="90" y1="123.6" x2="128" y2="136" fill="none" stroke="#000" stroke-linecap="round" stroke-linejoin="round" stroke-width="8"/><line x1="104.5" y1="168.4" x2="128" y2="136" fill="none" stroke="#000" stroke-linecap="round" stroke-linejoin="round" stroke-width="8"/><line x1="151.5" y1="168.4" x2="128" y2="136" fill="none" stroke="#000" stroke-linecap="round" stroke-linejoin="round" stroke-width="8"/><line x1="166" y1="123.6" x2="128" y2="136" fill="none" stroke="#000" stroke-linecap="round" stroke-linejoin="round" stroke-width="8"/></svg>