<svg xmlns="http://www.w3.org/2000/svg" viewBox="0 0 256 256"><rect width="256" height="256" fill="none"/><path d="M138.7,175.5l-19.2,52.1a8,8,0,0,1-15,0L85.3,175.5a8.1,8.1,0,0,0-4.8-4.8L28.4,151.5a8,8,0,0,1,0-15l52.1-19.2a8.1,8.1,0,0,0,4.8-4.8l19.2-52.1a8,8,0,0,1,15,0l19.2,52.1a8.1,8.1,0,0,0,4.8,4.8l52.1,19.2a8,8,0,0,1,0,15l-52.1,19.2A8.1,8.1,0,0,0,138.7,175.5Z" fill="none" stroke="#000" stroke-linecap="round" stroke-linejoin="round" stroke-width="8"/><line x1="176" y1="16" x2="176" y2="64" fill="none" stroke="#000" stroke-linecap="round" stroke-linejoin="round" stroke-width="8"/><line x1="200" y1="40" x2="152" y2="40" fill="none" stroke="#000" stroke-linecap="round" stroke-linejoin="round" stroke-width="8"/><line x1="224" y1="72" x2="224" y2="104" fill="none" stroke="#000" stroke-linecap="round" stroke-linejoin="round" stroke-width="8"/><line x1="240" y1="88" x2="208" y2="88" fill="none" stroke="#000" stroke-linecap="round" stroke-linejoin="round" stroke-width="8"/></svg>