<svg xmlns="http://www.w3.org/2000/svg" viewBox="0 0 256 256"><rect width="256" height="256" fill="none"/><path d="M192,120h27.1a7.9,7.9,0,0,0,7.1-4.4l18.4-36.8a8.1,8.1,0,0,0-3.2-10.6L192,40" fill="none" stroke="#000" stroke-linecap="round" stroke-linejoin="round" stroke-width="8"/><path d="M64,120H36.9a7.9,7.9,0,0,1-7.1-4.4L11.4,78.8a8.1,8.1,0,0,1,3.2-10.6L64,40" fill="none" stroke="#000" stroke-linecap="round" stroke-linejoin="round" stroke-width="8"/><path d="M160,40a32,32,0,0,1-64,0H64V208a8,8,0,0,0,8,8H184a8,8,0,0,0,8-8V40Z" fill="none" stroke="#000" stroke-linecap="round" stroke-linejoin="round" stroke-width="8"/></svg>