<svg xmlns="http://www.w3.org/2000/svg" viewBox="0 0 256 256"><rect width="256" height="256" fill="none"/><path d="M70.1,32H185.9a7.9,7.9,0,0,1,7.7,5.9L216,120l-22.4,82.1a7.9,7.9,0,0,1-7.7,5.9H70.1a7.9,7.9,0,0,1-7.7-5.9L40,120,62.4,37.9A7.9,7.9,0,0,1,70.1,32Z" fill="none" stroke="#000" stroke-linecap="round" stroke-linejoin="round" stroke-width="8"/><line x1="128" y1="208" x2="128" y2="136" fill="none" stroke="#000" stroke-linecap="round" stroke-linejoin="round" stroke-width="8"/><polyline points="40 120 128 136 216 120" fill="none" stroke="#000" stroke-linecap="round" stroke-linejoin="round" stroke-width="8"/><line x1="96" y1="88" x2="160" y2="88" fill="none" stroke="#000" stroke-linecap="round" stroke-linejoin="round" stroke-width="8"/><line x1="96" y1="208" x2="72" y2="240" fill="none" stroke="#000" stroke-linecap="round" stroke-linejoin="round" stroke-width="8"/><line x1="160" y1="208" x2="184" y2="240" fill="none" stroke="#000" stroke-linecap="round" stroke-linejoin="round" stroke-width="8"/></svg>