<?xml version="1.0" encoding="UTF-8"?>
<svg width="503px" height="503px" viewBox="0 0 503 503" version="1.1" xmlns="http://www.w3.org/2000/svg" xmlns:xlink="http://www.w3.org/1999/xlink">
    <!-- Generator: Sketch 61 (89581) - https://sketch.com -->
    <title>bentoicon</title>
    <desc>Created with Sketch.</desc>
    <g id="bentoicon" stroke="none" stroke-width="1" fill="none" fill-rule="evenodd">
        <g id="IMG_0814" transform="translate(35.000000, 35.000000)" fill-rule="nonzero">
            <path d="M1.22469933,139.438195 C1.47137217,137.866287 1.56408937,136.566529 1.60244621,134.992072 C1.40781321,134.583143 1.26753222,134.448931 1.40043764,134.214139 C2.95432545,126.461339 6.97841383,120.768014 13.7405529,116.952317 C41.4302573,101.327802 68.5040544,84.6511659 95.9873236,68.6737283 C96.3546683,68.4601745 96.762171,68.3158244 97.3975996,68.1652772 C99.3372652,67.5618154 100.519342,68.7514823 101.747493,69.4755468 C116.484055,78.163474 131.308926,86.6995604 146.088546,95.3131258 C156.064087,101.126838 166.212761,106.64126 176.156802,112.51194 C177.521218,113.317426 179.045016,113.956774 179.976189,115.641617 C179.582202,117.511715 178.046906,117.959767 176.841498,118.726582 C174.274396,120.359614 171.427693,121.526768 168.807327,123.538315 C167.534883,124.082809 166.795787,124.96095 165.692089,125.759788 C140.220242,140.488767 115.358769,155.757162 90.256519,170.619824 C81.0504188,176.070612 82.7489757,174.829546 82.7072694,183.961662 C82.5944134,208.664639 82.8248074,233.369068 82.6183715,258.070829 C82.5515709,266.063441 85.5232374,272.778924 90.4488892,278.543513 C93.7669779,282.426747 98.3879524,284.948412 103.830888,285.984806 C104.694731,286.047441 105.290745,285.89256 106.102127,285.703048 C107.590527,285.410112 108.817816,285.067916 109.870816,283.863697 C110.139429,283.585352 110.253402,283.476359 110.529694,283.187306 C113.180129,279.683174 112.908186,275.740012 112.772097,271.995265 C112.594713,267.114033 112.553105,262.242489 112.657439,257.096599 C112.691349,255.124684 112.860152,253.472532 114.329805,251.972241 C114.884915,251.62122 115.236568,251.500736 115.882046,251.411156 C116.69576,251.362563 117.233122,251.387311 118.016413,251.532112 C121.85251,253.618628 121.971478,253.637297 122.601068,249.616125 C123.321614,245.013945 123.286431,240.376193 122.521163,235.502962 C122.35516,234.143746 122.363368,233.039658 122.531662,231.652634 C123.380676,228.437399 122.945277,225.44517 122.978952,222.48271 C123.055097,215.785229 122.984143,209.086414 123.021873,202.105684 C123.043853,201.639807 123.057604,201.456393 123.11794,201.005871 C124.317765,197.99615 127.287394,197.334152 129.42278,195.346941 C130.120013,195.07138 130.605992,195.028689 131.3312,195.126837 C135.79105,199.077451 139.936369,198.219234 144.213683,194.813624 C144.51023,194.588441 144.631725,194.50102 145.147285,194.191513 C145.683609,193.91754 145.825869,193.865652 146.189726,193.76362 C146.710673,193.678336 147.010786,193.66655 147.533221,193.706339 C148.189062,193.810097 148.602775,193.954427 149.206292,194.208025 C149.537455,194.338609 149.666628,194.397478 149.982961,194.555281 C151.141609,195.177412 151.959514,195.983584 153.277307,196.317053 C153.605257,196.465227 153.733824,196.53249 154.045397,196.720473 C161.236117,201.465963 168.512268,205.635269 176.099032,209.712761 C176.441439,209.861465 176.573472,209.931943 176.889277,210.130456 C179.819844,212.493632 183.135131,213.798293 186.238636,215.856962 C186.55683,216.009451 186.68812,216.060515 187.010721,216.197237 C187.695457,216.543513 188.218127,216.724161 188.962631,216.921281 C189.569164,217.15727 189.933864,217.3911 190.452617,217.791657 C194.980462,221.572879 200.25238,223.734424 204.977493,226.78564 C206.398778,227.703432 207.799573,228.690487 209.549396,229.500698 C209.884632,229.65154 210.015883,229.718057 210.332882,229.90247 C211.886671,231.088372 213.441832,231.858697 215.097409,232.869402 C216.041276,233.360557 216.774163,233.794059 217.783733,234.146296 C219.082995,234.844493 220.02839,234.293607 220.985969,233.831945 C223.951092,232.402328 226.812234,230.796496 229.61014,228.672681 C229.868997,228.424025 229.976897,228.329897 230.262396,228.117323 C231.296767,227.570122 232.277814,227.36955 233.117974,226.481526 C233.389134,226.257029 233.503772,226.173921 233.80365,225.985546 C236.046034,225.249814 237.677966,223.833219 239.7165,222.738191 C239.989815,222.528048 240.09885,222.444509 240.378708,222.248487 C240.889487,221.920527 241.269369,221.77251 241.739559,221.386896 C241.996144,221.166243 242.100518,221.078704 242.36721,220.862365 C242.642405,220.650694 242.755241,220.567861 243.04697,220.368504 C243.352724,220.183306 243.479665,220.114632 243.809633,219.966928 C251.991275,215.290563 259.954845,210.668185 267.847578,205.494939 C273.182692,202.32369 278.182706,199.027739 283.399068,196.090282 C286.658192,194.254952 286.643187,193.671865 283.338223,191.756369 C263.458839,180.234564 243.337327,169.133299 223.629587,157.314107 C222.01415,156.345309 220.082888,155.696449 219.192148,153.518844 C219.302712,151.710262 220.479813,150.965764 221.643162,150.23364 C224.317771,148.550367 227.099261,147.059097 230.176045,145.614635 C232.152519,145.250887 233.503223,146.189878 234.876965,147.00258 C261.197217,162.573931 287.793411,177.66507 314.348739,192.827905 C317.093048,194.394851 320.39237,195.155802 322.389531,198.274515 C322.783713,206.127091 322.582097,213.725147 322.600198,221.321478 C322.642276,238.980149 322.599297,256.638938 322.620101,274.297688 C322.623862,277.469192 323.188082,280.457656 325.485356,283.155458 C330.314823,287.135253 332.968276,286.962057 339.787225,282.269082 C342.313658,281.168366 343.884941,279.392317 345.315806,277.082403 C350.742129,270.465755 352.705987,262.870365 352.75504,254.827944 C352.898593,231.308633 352.806325,207.78791 352.808441,184.267737 C352.808637,182.430701 352.803779,180.608941 351.16401,179.031876 C344.278849,175.075948 337.787242,170.96602 331.100954,167.17166 C315.121823,158.103767 299.241659,148.86007 283.306174,139.71405 C278.676286,137.056762 274.01862,134.44189 269.576127,131.470253 C268.774912,130.934289 267.969935,130.399168 267.523096,129.230562 C268.041633,127.023326 269.810105,126.25459 271.320269,125.345347 C283.656515,117.91788 296.156726,110.765012 308.472285,103.30411 C322.705551,94.681445 337.288609,86.6473774 351.336008,77.7141868 C351.967851,77.3123558 352.613877,76.9350966 353.624779,76.8813649 C355.984192,77.1209615 357.518294,78.5614611 359.253777,79.5768533 C379.727862,91.5555145 400.15121,103.621872 420.676699,115.511444 C429.79304,120.792154 434.115958,128.506851 434,138.990241 C433.847776,152.267425 433.88817,165.546766 433.812632,179.107689 C433.498925,180.560288 432.544479,181.056091 431.616598,181.603193 C410.976196,193.773327 390.628543,206.427596 370.157591,218.877783 C365.705538,221.585468 364.910239,223.589897 365.73888,228.46654 C366.064067,230.380408 366.944189,230.879564 368.590344,229.893686 C371.802257,227.97009 374.996108,226.014413 378.169626,224.029399 C391.68407,215.576283 405.464267,207.559237 418.968328,199.088139 C420.897161,197.878175 422.821879,196.285128 425.580802,196.891042 C425.766394,219.317245 425.785749,241.58045 425.872453,264.134826 C426.805232,265.65661 426.593076,267.071087 426.594918,268.437323 C426.607807,277.997842 426.602165,287.55836 426.600794,297.413423 C426.599149,298.086716 426.599267,298.465505 426.607533,299.11307 C426.065645,302.529427 424.946765,305.490554 423.562915,308.618171 C423.39088,308.983546 423.329799,309.132191 423.150123,309.488075 C420.214815,313.324245 417.097559,316.634903 412.967951,319.209515 C412.669522,319.45119 412.5427,319.538415 412.211753,319.732555 C405.759717,322.865311 400.058238,326.820749 394.166466,330.443364 C386.185696,335.350403 377.994495,339.922265 370.12613,345.435766 C369.834088,345.675676 369.711692,345.764157 369.393008,345.96367 C367.491758,346.585311 366.119937,347.723404 364.405493,348.66563 C364.122227,348.88091 364.007588,348.964214 363.713196,349.157884 C362.798361,349.637547 362.046041,349.980018 361.307043,350.733321 C361.030359,350.956954 360.912978,351.03963 360.60452,351.225299 C355.179568,353.645422 350.617656,357.080369 345.652864,360.267326 C345.36666,360.498177 345.246145,360.582382 344.933808,360.77362 C342.484362,361.789738 340.479051,363.149307 338.262839,364.549194 C337.991993,364.756121 337.885543,364.83966 337.611523,365.032702 C337.218595,365.275867 336.992648,365.408274 336.608261,365.650577 C336.347875,365.839971 336.245226,365.918333 335.990366,366.120514 C335.735465,366.32889 335.632816,366.413528 335.370942,366.62316 C334.987182,366.910134 334.754809,367.059995 334.323446,367.295591 C329.425964,369.760896 324.970972,372.542473 320.498036,375.720841 C320.201136,375.945455 320.077487,376.02923 319.756805,376.219958 C316.571886,377.321849 314.258979,379.489198 311.36481,381.084207 C310.824372,381.452759 310.436301,381.647841 309.871768,381.963759 C308.297546,382.733691 307.026611,383.585398 305.653144,384.667759 C305.384571,384.903355 305.270715,384.991051 304.971778,385.191349 C303.152804,385.904098 301.780434,386.977085 300.105679,387.946334 C299.819004,388.170556 299.700135,388.255272 299.393126,388.452118 C298.426105,388.948293 297.627553,389.296726 296.763103,389.971118 C296.478897,390.205302 296.359871,390.293116 296.049218,390.492826 C292.800751,392.400105 289.642122,394.02896 286.622813,396.305577 C286.335551,396.537564 286.216525,396.62479 285.908028,396.824303 C283.326822,397.955258 281.14019,399.310395 278.976987,401.108485 C278.717307,401.358671 278.612306,401.458291 278.335779,401.692004 C277.923457,401.989921 277.6751,402.14135 277.229319,402.391065 C276.906208,402.564694 276.774017,402.629407 276.434412,402.770247 C271.861726,405.01835 267.80597,407.69866 263.598199,410.553422 C263.288057,410.749916 263.166052,410.831415 262.851639,411.017711 C260.505744,412.278014 258.380271,413.479329 256.251702,415.097713 C255.956722,415.326719 255.832367,415.411827 255.506357,415.602242 C247.743697,420.068602 240.556934,425.052983 232.923057,429.282845 C230.098313,430.848006 227.467663,433.12274 223.656073,432.818901 C216.008737,433.748342 209.778673,430.981904 203.541065,427.228646 C177.822272,411.753326 151.942785,396.545487 126.11472,381.252265 C92.5668987,361.388045 59.0171965,341.52704 25.4557793,321.685801 C17.8118822,317.166808 11.836844,311.349664 10.0677351,302.223431 C9.74539813,300.56065 9.67982163,298.827194 9.67746132,297.126095 C9.63232717,264.5888 9.61442166,232.051465 9.63773336,199.214997 C10.8357757,198.321795 11.7585442,198.996246 12.6629674,199.516777 C26.9290846,207.727355 40.9719389,216.319173 55.2519349,224.507101 C58.867453,226.580164 62.4130168,228.780537 66.0407583,230.831754 C68.4384683,232.187441 69.2660514,231.67946 69.5893192,228.954518 C70.0611351,224.977234 68.8550419,221.970493 65.1712538,219.834325 C45.4758652,208.413257 25.8496574,196.872667 6.1824783,185.402614 C4.02461374,184.144134 1.3855106,183.20026 1.33873059,179.731721 C0.728906027,174.540924 1.12257876,169.593175 1.24934299,164.42795 C1.47438852,161.200027 1.5208065,158.197366 1.48876736,154.905573 C0.595206569,149.663751 1.19411027,144.678782 1.22469933,139.438195 Z" id="Path" fill="#140E04"></path>
            <path d="M131,49.8641085 C132.82474,46.8676822 135.944586,45.7651674 138.625019,44.1166237 C160.289735,30.7922032 181.963055,17.4804785 203.74218,4.34969987 C213.425294,-1.48831321 223.353515,-1.45241497 233.085317,4.47412325 C256.636211,18.8163188 280.16278,33.1995069 303.901625,47.6473349 C304.438025,49.7827983 302.659099,50.1805486 301.509454,50.9029154 C287.306131,59.8273764 272.918259,68.442296 258.581813,77.1439961 C250.730772,81.909267 242.578016,86.1672111 234.858376,91.6104572 C229.611782,94.3337547 224.902057,97.5080647 219.922724,100.69292 C219.563052,100.856651 219.412488,100.907395 219.026105,100.996218 C217.334194,101.058221 216.128253,100.347084 214.925793,99.6541831 C188.452566,84.3991597 162.150082,68.8435746 135.768054,53.428012 C134.116131,52.4627553 132.38873,51.5758756 131,49.8641085 Z" id="Path" fill="#150E05"></path>
            <path d="M112.883039,59.7883248 C116.225624,58.4194884 118.748844,55.9224636 122.325721,55 C123.694739,54.966929 124.64331,55.4350925 125.576893,55.9909331 C144.534546,67.2781156 163.724317,78.1620539 182.762647,89.3097141 C191.908501,94.6649429 200.987175,100.13946 210.428818,105.4488 C218.090025,109.900082 225.377979,114.529558 233.142785,118.796139 C235.559996,120.248689 237.638278,121.824787 240.231418,122.98788 C265.818014,138.768921 291.625522,153.711409 317.325434,168.83779 C324.878928,173.283609 332.487905,177.635876 339.950182,182.23794 C341.585701,183.246622 343.287674,184.187722 344.364371,186.232339 C345.034314,187.583427 344.973464,188.779729 344.974247,189.95779 C344.990234,213.825225 345.034275,237.692759 344.949562,261.559957 C344.932988,266.227277 343.449771,270.426276 339.795333,273.589831 C336.854643,276.135585 333.803929,275.148616 332.824366,271.322097 C332.393553,269.639547 332.498327,267.90391 332.49774,266.185628 C332.490334,244.790941 332.487827,223.396215 332.503931,202.001528 C332.505811,199.521936 332.426702,197.062382 331.805737,194.376218 C328.523141,189.945426 323.619445,188.259129 319.318141,185.753763 C299.621348,174.280913 279.880749,162.883907 260.252172,151.292694 C227.443527,131.91829 194.6704,112.482457 161.671621,93.4366142 C145.636477,84.1816454 129.693763,74.7654613 113.625392,65.5686872 C112.696883,65.0372601 111.748822,64.5171525 110.957668,63.7888366 C109.612962,62.5509242 109.563866,61.4266215 111.587429,60.5006472 C111.815844,60.4415652 111.753524,60.4111757 111.761909,60.4449965 C111.843134,59.9220094 112.295321,59.9370955 112.883039,59.7883248 Z" id="Path" fill="#170E05"></path>
            <path d="M109.662748,60.0809399 C107.562485,61.4233787 108.91346,62.2982652 110.308638,63.1002834 C118.650081,67.8953832 127.006987,72.6642083 135.34839,77.459386 C171.037138,97.9756261 206.71786,118.505568 242.410229,139.015638 C270.498363,155.156023 298.602747,171.268675 326.684351,187.420194 C328.157038,188.267229 329.483796,189.362686 331,190.534846 C330.970412,192.939402 328.871035,193.217174 327.5261,194.220748 C326.526852,194.966402 325.332019,195.419533 324.066601,196.179337 C323.355792,196.592315 322.836948,196.890308 322.014988,197 C311.462192,192.07993 301.712311,186.131238 291.782505,180.511018 C271.44241,168.998626 251.171012,157.367432 230.648277,145.704729 C229.330215,145.58554 228.345722,145.233732 227.413399,144.667232 C212.383047,135.534756 197.001344,126.992389 181.825278,118.104558 C181.001746,117.622253 180.111424,117.215678 179.539169,116.121252 C155.669383,102.296984 131.856727,88.6992035 108.045466,75.0989712 C104.438836,73.0389821 100.838816,70.9676073 97.0511384,68.7545638 C96.8611406,67.5760787 97.1851874,66.8432497 98.2824048,66.4177567 C101.80169,65.0530138 105.188243,63.4647415 107.593627,60.3825532 C108.019439,59.8369361 108.769417,60.0151168 109.662748,60.0809399 Z" id="Path" fill="#F9EFDB"></path>
            <path d="M342.293239,185.580851 C326.135729,175.31449 309.613178,166.16176 293.367277,156.538434 C276.002395,146.252312 258.686664,135.882586 241.358087,125.534823 C240.543485,125.048359 239.812498,124.420581 239.001851,123.640913 C238.939111,121.651465 240.484622,121.221686 241.580223,120.549257 C250.332374,115.177602 259.20374,110.00552 268.029246,104.756597 C288.900439,92.3435868 309.834805,80.0379336 330.716651,67.6428557 C332.561175,66.5479815 334.480072,64.8016571 336.868891,67.211603 C339.840934,69.2082283 342.669639,71.018455 345.647048,73.0085916 C345.502064,74.4911074 344.426477,75.0471565 343.421188,75.6407607 C320.883115,88.9488365 298.502245,102.524791 275.77372,115.509324 C271.143648,118.154411 266.672464,121.095848 262.088214,123.837477 C259.275292,125.519761 259.394388,126.178153 262.265899,127.937395 C263.861226,128.914826 265.618494,129.281508 267.588225,129.772396 C273.02855,134.362633 279.255711,137.250196 285.133102,140.687908 C300.824799,149.866041 316.55942,158.970775 332.316873,168.034749 C338.324013,171.490177 344.418213,174.791434 350.306257,178.876723 C350.719315,179.248084 350.884506,179.528508 351,180.096217 C349.819571,183.38833 347.023059,184.513405 344.184799,185.94248 C343.430548,186.071425 342.945116,185.997121 342.293239,185.580851 Z" id="Path" fill="#D54021"></path>
            <path d="M337,68.470421 C335.391055,67.8726752 334.022328,67.9596764 332.315534,68.9488126 C303.378206,85.7186237 274.383274,102.3939 245.404996,119.096424 C243.290577,120.31513 241.205666,121.582574 239.003782,122.998131 C236.047115,123.067063 234.13306,121.216825 231.880585,119.532654 C230.16223,117.203011 231.212719,115.495723 232.861399,113.985669 C234.174088,112.783332 235.812698,112.01929 237.560011,111.002715 C245.58796,107.436087 252.614326,102.635878 260.007601,98.4676997 C267.869945,94.0350376 275.667396,89.4885286 283.674968,84.851863 C292.418278,80.2878385 300.533105,75.1190318 308.950574,70.4584836 C314.027694,67.6474282 318.864481,64.4155541 324.430578,62 C327.834566,62.3126686 330.283447,64.2762758 332.685382,66.0039851 C334.071664,67.0011526 336.647943,65.6561527 337,68.470421 Z" id="Path" fill="#FDEDD3"></path>
            <path d="M210.629234,106 C203.942607,102.424427 197.470082,98.7144458 190.977182,95.038863 C168.014993,82.0400587 145.045855,69.0530031 122,55.8540049 C124.291358,52.7968288 127.758976,51.6061607 131.149226,50 C135.205407,52.1415063 139.057913,54.2102817 142.867854,56.351393 C167.606297,70.2538762 192.334277,84.1741472 217.072937,98.0762834 C217.907386,98.5452159 218.818985,98.8830392 219.911579,99.3465895 C220.361614,100.924295 218.990187,100.995984 218.132324,101.399883 C215.521957,102.628923 213.003942,103.977766 210.629234,106 Z" id="Path" fill="#DFA36A"></path>
            <path d="M268.723814,128.81386 C266.297363,129.647344 260.238072,127.519914 259.23807,125.643697 C258.464281,124.191941 259.755189,123.737363 260.56594,123.234045 C265.510292,120.164507 270.421227,117.029549 275.484332,114.164115 C292.626059,104.462882 309.578379,94.4430372 326.483064,84.3399663 C332.844868,80.5378214 339.263809,76.8307475 345.897512,73 C349.021101,73.7718703 351.594582,75.1929654 354,77.3121419 C346.501719,83.3033301 337.971343,87.604132 329.809303,92.4898854 C309.541416,104.62213 289.204475,116.639614 268.723814,128.81386 Z" id="Path" fill="#F27D55"></path>
            <path d="M1.63302957,181.010294 C2.80684429,183.360631 5.02667154,184.196283 6.95471523,185.288521 C26.6117522,196.42462 46.1766845,207.721188 66.0457507,218.4934 C71.3059903,221.345281 72.5424071,224.907766 71.8051907,230.010768 C71.3189792,233.37613 70.6100101,233.727639 67.4549822,231.92424 C60.3576077,227.867448 53.2739192,223.788249 46.17282,219.737618 C34.3085894,212.969991 22.4350856,206.217572 10.3398216,199.427789 C3.83516672,195.031732 1.65826963,188.70199 1,181.380438 C1.13546245,181.044213 1.2782366,180.968964 1.63302957,181.010294 Z" id="Path" fill="#F8EEDB"></path>
            <path d="M233,89.3767995 C235.645781,86.672821 238.872051,85.1574857 241.914256,83.4218137 C262.684234,71.5717837 283.406335,59.6455622 303.869746,47 C306.613574,49.3425084 311.019226,49.5494322 313,53.3030525 C312.846954,55.2895533 311.269251,55.8363898 310.05794,56.6005321 C302.371178,61.4497068 294.365544,65.7802216 286.466424,70.2839635 C282.471164,72.5619176 278.466922,74.8250499 274.438664,77.5039586 C266.393541,81.6299817 259.084646,86.5174836 251.338256,90.6768165 C249.073231,91.8930187 246.927185,93.3426607 244.544367,94.3294361 C239.952672,96.2309053 234.415834,93.9354669 233,89.3767995 Z" id="Path" fill="#F9EFDB"></path>
            <path d="M425.297747,198.334411 C422.031884,198.843671 419.674942,200.76921 417.167934,202.282655 C401.215991,211.912504 385.321061,221.63529 369.405978,231.325175 C368.9514,231.601949 368.48387,231.858314 368.017474,232.115379 C365.22728,233.653149 364.52035,233.2944 364.223507,230.180374 C364.183437,229.759783 364.250546,229.325303 364.17972,228.912122 C363.332194,223.965474 365.523888,221.121975 369.874252,218.571816 C388.708933,207.530964 407.306679,196.092915 426.002917,184.81942 C428.189642,183.500869 430.452593,182.30666 432.9011,181 C433.521043,187.987936 431.254923,193.876073 425.297747,198.334411 Z" id="Path" fill="#CF8D4E"></path>
            <path d="M274,77.6791209 C277.174973,74.2868455 281.277456,72.6687269 284.971749,70.4808239 C294.126961,65.0586724 303.451811,59.9187326 312.57125,54 C317.134229,54.4596574 320.062992,57.8306052 324,59.7442312 C321.887107,62.5037719 318.627747,63.7509949 315.718618,65.4789882 C305.241135,71.7024885 294.700706,77.8214162 283.957535,84 C279.840366,82.9326201 276.335503,81.2343766 274,77.6791209 Z" id="Path" fill="#E2A361"></path>
            <path d="M1,180.745311 C0.930495922,181.007483 0.626586265,180.99896 0.626586265,180.99896 C0.626586265,180.99896 0.322537688,181 0.170758079,181 C0.215059912,175.732265 -0.451931831,170.448091 0.584297707,165 C0.886162675,170.032598 0.977822556,175.257879 1,180.745311 Z" id="Path" fill="#F9F1DE"></path>
            <path d="M0.672850685,140 C0.948342973,144.452531 1.0119548,149.0876 0.998265962,154 C-0.68101917,149.610732 0.151946866,144.890891 0.672850685,140 Z" id="Path" fill="#F9F1DE"></path>
            <path d="M112,59.1491843 C111.874255,59.4567217 111.582557,59.7061348 111.108453,60 C110.854362,59.2443745 111.006293,58.7323739 112,59.1491843 Z" id="Path" fill="#F9EFDB"></path>
            <path d="M431,267.891786 C430.769653,267.919984 430.421701,267.691163 430,267.113404 C430.244965,267.054566 430.56368,267.344727 431,267.891786 Z" id="Path" fill="#C2905E"></path>
            <path d="M0.646917037,135.165891 C0.867575037,135.277738 0.896688037,135.447172 0.784338037,135.832273 C0.479101037,135.855039 0.315344037,135.662168 0.151586037,135.469297 C0.252859037,135.387388 0.354132037,135.305448 0.646917037,135.165891 Z" id="Path" fill="#F9F1DE"></path>
            <path d="M138.416483,297.307436 C138.928594,297.261923 139.218568,297.313469 139.710351,297.455613 C140.035419,297.554749 140.158639,297.563288 140.384438,297.726113 C154.144004,305.840194 167.803577,313.795523 181.456531,321.762212 C186.438713,324.669447 191.37554,327.655923 196.39454,330.497668 C198.167462,331.50149 199.006638,332.737466 199,334.831515 C198.93931,353.860021 198.970272,372.888801 198.927716,391.917385 C198.917885,396.310534 197.565697,397.023135 193.6471,394.702884 C171.681382,381.69672 149.764937,368.607049 127.773957,355.643854 C104.311016,341.813066 80.7804916,328.096965 57.2866865,314.318507 C49.3624715,309.671152 41.4813207,304.950002 33.5356416,300.339857 C31.0808583,298.915557 30.0427616,297.141086 30.0664479,294.14337 C30.2134424,275.543451 30.1255416,256.94173 30.1561507,238.340675 C30.1585007,236.916218 29.4635477,235.050248 30.9871018,234.20933 C32.3003183,233.484549 33.5773351,234.821815 34.7327373,235.488079 C45.1881607,241.51704 55.5989144,247.623556 66.0577652,253.646525 C68.8822277,255.273093 70.5346125,257.172121 71.0106509,260.785847 C73.1610264,277.110169 81.0127533,289.861656 95.7438028,297.899789 C96.8519991,298.504518 97.588636,299.737282 99.2211045,299.886046 C104.167742,302.094743 108.488059,305.140794 113.662708,306.266117 C123.130943,308.325111 131.438047,306.952827 137.299493,298.305383 C137.539236,297.951688 137.855276,297.664383 138.416483,297.307436 Z" id="Path" fill="#D84021"></path>
            <path d="M190.184115,220.493067 C189.697395,220.188758 189.399972,220.017146 188.961704,219.740975 C188.355814,219.212149 187.752573,219.418091 187.049955,219.168099 C186.876606,219.049433 186.8953,219.031797 186.888454,219.042143 C183.981647,216.301719 180.587747,214.384496 176.594078,213.059744 C176.37051,213.017263 176.262522,213.013696 176.222074,212.977936 C176.437441,211.897924 175.483009,211.649264 174.934928,211.370253 C167.698542,207.686237 160.982264,203.087884 153.526724,199.346043 C153.297016,199.30219 153.36587,199.279421 153.360514,199.31526 C152.510284,198.219396 151.32942,197.687395 149.792421,197.335392 C149.608243,197.208495 149.614599,197.201911 149.611382,197.20536 C149.276276,196.823867 149.027443,196.399873 149,195.635202 C149.542392,193.752583 151.058381,193.297786 152.374146,192.648763 C160.606219,188.588193 168.684969,184.220335 176.569852,179.54807 C187.310205,173.183746 198.129044,166.956607 208.929031,160.697352 C212.063799,158.880572 214.865796,156.545704 218.39754,155 C218.792024,155.061057 218.944325,155.115688 219.257912,155.351454 C230.219008,162.638324 241.675966,168.632167 252.809215,175.172961 C263.575639,181.498212 274.515078,187.529069 285.35526,193.729775 C288.911857,195.764136 288.869368,196.354687 285.300059,198.458727 C279.875594,201.656262 274.454582,204.859537 268.813317,208.100199 C260.076242,212.590584 251.983132,217.764556 243.705746,222.936158 C243.65698,223.16436 243.611078,223.088097 243.655529,223.084844 C243.438808,223.014146 243.221458,223.078691 242.953499,223.454286 C242.852514,223.613475 242.849493,223.560686 242.873072,223.572718 C242.319931,223.900423 241.67781,224.098566 241.03871,224.688294 C240.904809,224.834041 240.894961,224.80896 240.904691,224.818953 C238.58251,225.934529 236.302386,227.135618 234.134859,228.731151 C234.156869,228.958256 234.105827,228.987452 234.078208,228.997446 C232.85046,229.235053 231.819858,229.829876 230.860894,230.714115 C230.89997,230.933147 230.86568,230.752796 230.865524,230.844578 C227.71926,231.915517 225.399315,234.386041 222.370318,235.611114 C221.006002,236.162906 219.687588,236.775795 217.986146,237 C216.991951,236.66771 216.234094,236.331893 215.334606,235.841433 C213.930705,234.140831 211.985569,233.725341 210.174923,232.663611 C209.986724,232.551567 210.027879,232.517943 210.016423,232.541888 C205.901054,228.705247 200.560606,226.806266 195.940822,223.757223 C194.175686,222.592267 192.274628,221.590145 190.184115,220.493067 Z" id="Path" fill="#E4A664"></path>
            <path d="M180.463523,118 C186.760165,121.372771 192.883886,124.758874 198.909948,128.312094 C209.611582,134.622283 220.254013,141.033771 231,147.586669 C229.044886,150.207742 225.834899,150.760148 223.418574,152.589957 C222.336992,153.409018 221.199672,154.153719 219.968777,155.131998 C219.849942,155.331817 219.583274,155.315339 219.45642,155.273388 C218.717798,154.750851 217.841541,155.060491 217.25044,154.551637 C214.005811,151.758523 210.880252,152.735258 207.597011,154.622303 C197.278817,160.552656 186.999197,166.550215 176.679953,172.478144 C167.282896,177.876303 157.777047,183.082246 148.383085,188.487148 C147.553108,188.964686 146.659217,189.314888 145.508098,189.547021 C145.038188,189.596282 144.775275,189.601735 144.335201,189.612624 C144.048544,189.671033 143.938857,189.708292 143.685987,189.838149 C143.378506,190.106719 143.255137,190.309158 143.074744,190.711495 C142.205823,192.118149 140.986957,192.808584 139.72138,193.334992 C137.247098,194.364174 135.122099,195.910479 132.840275,197.615767 C132.243356,197.667335 131.856627,197.663269 131.275997,197.659164 C129.305974,198.164069 127.959787,199.496187 126.124694,200.299374 C125.819394,200.615426 125.680805,200.821326 125.494379,201.204466 C125.394636,201.481383 125.362874,201.594527 125.183843,201.80369 C125.004344,202.028766 124.972076,202.157822 124.828816,202.452488 C124.717864,202.618079 124.544964,202.882407 124.491112,203.035448 C124.420504,203.690736 124.442924,204.192768 124.444948,204.937429 C124.411824,214.31812 124.521084,223.456611 124.332905,232.882848 C123.991833,234.331159 124.176489,235.510528 124.161737,236.969943 C124.665258,242.569504 124.541363,247.875963 124.128749,253.183712 C123.963769,255.305842 122.867085,255.362688 121.110055,254.403859 C119.91898,253.811398 119.03772,252.921534 117.626744,253.68547 C117.116684,253.874421 116.795775,253.930172 116.2363,253.929937 C115.891862,253.754045 115.785988,253.634059 115.594404,253.290092 C115.419908,252.589453 115.470742,252.1264 115.760143,251.48073 C116.009507,251.319136 116.18355,251.177668 116.298075,251.051796 C115.475376,250.732653 114.874001,250.347537 114.87619,249.780952 C114.903344,242.775618 113.713748,231.998941 113.571429,224.990476 C113.554381,224.150977 113.523443,223.31114 113.475578,222.47089 C113.467993,222.337776 113.497582,222.250229 113.552318,222.198896 L113.576,222.181 L113.56253,222.109195 C112.710324,217.107808 114.417129,200.416964 114.87619,197.590476 C115.045862,197.574529 115.19937,197.591762 115.339364,197.6365 L115.34206,197.733466 C115.31094,197.155178 115.33552,196.828687 115.457197,196.278568 C115.587924,195.915014 115.654016,195.77763 115.852295,195.460504 C116.350639,194.869744 116.910912,194.645587 117.185209,193.895061 C117.299393,193.579225 117.351901,193.455173 117.500922,193.15298 C117.675068,192.864041 117.752683,192.753204 117.966609,192.491339 C118.205096,192.250606 118.307272,192.16092 118.575945,191.95334 C118.975384,191.692785 119.213501,191.559584 119.641101,191.338809 C119.953622,191.182894 120.081799,191.123859 120.410901,190.991598 C123.043566,189.901895 125.419352,188.783066 127.646487,186.967624 C127.893013,186.713266 127.991647,186.612867 128.244906,186.372622 C128.506845,186.147019 128.614139,186.061262 128.887463,185.857533 C129.167249,185.667898 129.280985,185.596215 129.568906,185.426421 C130.229681,185.126242 130.679583,184.864651 131.232188,184.383868 C131.51608,184.194116 131.635928,184.124134 131.949694,183.969334 C133.230313,183.46781 134.341302,183.091336 135.210126,181.918808 C135.538664,181.521084 135.759071,181.327481 136.193093,181.053652 C137.387127,180.443579 138.720975,180.913924 139.683235,179.706288 C139.938557,179.454803 140.049043,179.363201 140.343231,179.16082 C142.090452,178.751544 143.294138,177.830834 144.5682,176.626111 C144.818014,176.376561 144.921007,176.278821 145.193164,176.049914 C145.601185,175.759744 145.847671,175.613661 146.293935,175.381158 C146.618989,175.225184 146.751759,175.168378 147.089523,175.041707 C149.689842,174.337412 151.674792,172.969776 153.719529,171.276665 C153.990518,171.031631 154.106239,170.941457 154.411365,170.738881 C156.405714,169.767443 158.519912,169.676838 160.271551,168.212166 C160.465237,167.933392 160.534015,167.817355 160.716005,167.537604 C160.913097,167.273823 160.996997,167.173777 161.217366,166.937852 C161.451183,166.721475 161.548532,166.640957 161.800253,166.45484 C162.165711,166.224154 162.380474,166.105733 162.757161,165.905601 C163.021864,165.758697 163.128516,165.700523 163.396605,165.556141 C163.778469,165.354875 164.000024,165.242024 164.39415,165.039097 C164.685087,164.888948 164.804584,164.831204 165.112882,164.7025 C166.44566,164.152556 167.526541,163.543245 168.760919,162.83897 C168.964628,162.57169 169.047147,162.466131 169.269539,162.217989 C169.611078,161.907039 169.82191,161.7513 170.206791,161.508983 C170.480621,161.344526 170.591711,161.282265 170.871574,161.132645 C171.267159,160.932982 171.495467,160.823924 171.895392,160.629636 C172.181912,160.485313 172.298139,160.428976 172.593417,160.295366 C173.589347,160.049667 174.156372,159.474799 174.946219,158.859566 C175.248016,158.675286 175.37522,158.60984 175.706073,158.469622 C177.523611,158.266988 178.879919,157.770332 180.140084,156.575363 C182.617111,154.226496 186.064748,153.332292 188.871482,151.037827 C189.131728,150.778816 189.23546,150.67443 189.503432,150.421714 C189.784678,150.183189 189.901683,150.093014 190.202644,149.880665 C190.514445,149.68712 190.642272,149.61575 190.969253,149.455339 C192.975708,148.6241 194.919788,148.121502 196.283238,146.278595 C196.427529,145.980078 196.494089,145.868595 196.673374,145.616739 C196.938271,145.370962 196.986244,145.259421 196.939088,145.138204 C196.892029,145.017319 196.85221,144.955117 196.711947,144.785715 C196.397168,144.097508 196.378699,143.553507 196.426965,142.800029 C196.537898,141.860143 196.801181,141.056564 195.531537,140.716605 C192.468003,139.380186 189.823991,139.794995 187.138351,141.36724 C161.072744,156.626891 134.87824,171.664067 108.920316,187.109719 C107.639365,187.871895 106.420538,188.728605 104.941406,189.622046 C100.478202,189.793169 97.6078671,186.979079 94.3020696,184.581166 C93.1869935,181.492407 95.3762168,180.395452 97.3290351,178.916686 C97.6310658,178.680037 97.7540657,178.589609 98.0682216,178.377767 C98.3881382,178.180372 98.5168987,178.104408 98.8394038,177.918839 C99.1631346,177.73933 99.2931412,177.669465 99.6233526,177.508976 C103.352975,175.37631 106.883033,173.335323 110.447423,170.92443 C110.745288,170.703948 110.869378,170.62212 111.192448,170.440676 C115.294417,167.87555 119.399286,165.748415 123.441604,163.072471 C139.074055,153.650534 154.632745,144.549027 170.147548,134.942049 C172.561499,132.089567 172.497138,130.932951 169.874185,128.565064 C168.962818,127.742309 167.616125,127.170979 168.81697,125.415022 C172.176365,121.998307 176.568942,120.612139 180.463523,118 Z M113.878938,223.198007 C115.785332,223.502151 114.064011,221.89693 113.588082,222.172367 L113.576,222.181 L113.60506,222.338418 C113.664387,222.631996 113.734274,222.876816 113.815695,223.066337 Z" id="Path-2" fill="#D7421F"></path>
            <path d="M82.7766973,98.1883876 C88.8959483,93.5715402 95.4986569,90.1447943 101.871015,86.3344616 C103.257434,85.5054648 104.331861,86.3988382 105.434547,87.0558912 C118.218428,94.6732253 130.998641,102.296784 143.785026,109.909829 C147.120535,111.895791 150.48736,113.828188 153.81504,115.827356 C156.703732,117.562753 156.736231,118.246219 153.864202,119.951034 C143.476525,126.117071 133.052425,132.220286 122.654928,138.369405 C112.996616,144.081394 103.318388,149.760645 93.7290777,155.589238 C91.065963,157.207931 88.7263954,157.581862 85.9304467,155.926502 C70.4286692,146.748527 54.8606911,137.685042 39.3416488,128.536712 C36.3117508,126.750623 36.2507966,126.02676 38.9925645,124.350333 C50.6773672,117.205719 62.4083057,110.13831 74.3488581,103.056556 C74.8748509,103.38217 75.2082781,103.738087 75.1792501,104.166142 C74.898732,108.302108 77.538498,110.319091 80.6681104,111.996635 C81.8768512,112.644571 83.2251509,113.153599 83.4799533,115.018628 C82.7066119,117.447386 80.6223991,118.10404 78.888198,119.045192 C75.8673421,120.684593 72.8904811,122.385517 70.019379,124.275582 C67.7670336,125.75836 67.7217366,126.181327 70.011018,127.565316 C73.3175188,129.564284 76.5153233,131.742678 79.8820888,133.640723 C81.1863729,134.375997 82.5582383,135.039833 83.3964195,136.673189 C83.6394891,139.821721 80.5788177,139.641957 78.9733098,141.313915 C82.8213236,143.79901 86.4256765,143.472679 89.7947095,141.366502 C96.0195422,137.474995 102.641359,134.306234 108.852822,130.40164 C111.410178,128.794059 114.071655,127.364964 116.66991,125.830019 C119.665131,124.060528 119.745253,122.445785 116.821578,120.520908 C110.694379,116.486863 104.339354,112.821941 98.0276154,109.092683 C93.6640209,106.514503 89.425353,103.728691 85.0282937,101.206809 C83.9417578,100.583651 82.6657128,99.9997121 82.7766973,98.1883876 Z" id="Path" fill="#D63F20"></path>
            <path d="M335.688579,141.649649 C328.526457,137.584095 321.541725,133.685223 314.615723,129.688712 C311.121664,127.672507 311.14055,126.743442 314.597634,124.719937 C327.566241,117.129186 340.57262,109.600276 353.515407,101.967596 C355.500907,100.796656 357.125056,100.620447 359.204151,101.815202 C371.857984,109.086543 384.590391,116.226376 397.267335,123.459282 C400.961176,125.566822 400.893997,126.279915 397.164217,128.447479 C384.362161,135.88726 371.536438,143.288801 358.795225,150.827471 C356.374143,152.259982 354.424304,152.470372 351.938155,150.952889 C346.68328,147.745444 341.250258,144.818172 335.688579,141.649649 Z" id="Path" fill="#E4A666"></path>
            <path d="M393.857052,302.571289 C393.169585,302.877151 392.756227,303.127924 392.243062,303.534424 C391.619377,304.949334 390.166996,304.8641 389.104137,305.703061 C388.240465,306.038129 387.598495,306.33406 386.787812,306.763471 C385.11536,306.626316 385.419982,305.41061 385.361208,304.410253 C385.252007,302.551544 385.568663,300.670354 385.202744,299.303886 C385.246028,301.741125 385.775924,304.654106 384.815473,307.700763 C384.516092,308.001582 384.387286,308.16024 384.175056,308.448509 C383.973463,308.666009 383.861816,308.759297 383.596673,309.00792 C383.443218,309.163294 383.443761,309.164115 383.44345,309.163764 C383.172369,309.438621 382.801441,309.472128 382.331407,309.704681 C382.202834,309.83257 382.179619,309.801683 382.184976,309.82002 C382.027211,309.954399 381.876977,310.085415 381.618977,310.319768 C381.498363,310.408246 381.522277,310.436123 381.507758,310.42064 C380.399984,311.616837 379.175788,312.6256 377.318939,313 C375.028159,312.70274 375.125053,311.097032 375.122181,309.596303 C375.112476,304.58983 375.044036,299.580854 375.17847,294.577822 C375.237788,292.368914 374.621789,291.440888 372.315169,291.805436 C370.302806,292.123536 368.295141,291.85728 366.445241,290.905952 C362.69416,288.976945 361.961117,285.950463 364.467467,282.546335 C366.984609,279.127506 369.455787,275.664224 372.155889,272.395335 C374.469186,269.594643 375.458015,266.538993 375.080798,262.952592 C374.969967,261.898789 375.221172,260.792282 375.02614,259.763893 C373.868832,253.661743 376.658801,249.839542 382.047864,247.214203 C382.325311,246.8954 382.468131,246.744795 382.756099,246.534449 C382.898182,246.471737 382.824695,246.450037 382.851985,246.477132 C384.63659,245.3908 385.19595,246.32598 385.102899,247.944472 C384.920793,251.113192 385.701894,254.248366 385.372077,256.750078 C385.873363,253.445024 384.250988,249.41365 385.834077,245.295362 C385.979497,245.121338 386.092465,244.917169 386.115524,244.802612 C386.147201,244.432552 386.251006,244.222323 386.609705,243.990121 C388.290815,242.941323 389.764702,241.893892 391.315686,240.979043 C394.332638,239.199468 395.609202,239.763493 395.753769,243.350794 C395.937932,247.921796 395.691657,252.510078 395.646198,257.09105 C395.632417,258.477536 395.665958,259.864569 395.683893,261.25129 C395.70272,262.708269 396.423922,263.661826 397.777273,264.124314 C399.113076,264.580741 399.66906,263.571079 400.308157,262.722188 C401.407351,261.262315 402.701385,260.018888 404.2915,259.104977 C406.240546,257.984825 407.67903,258.871798 409.080284,260.236194 C410.470708,261.590112 410.104983,262.962679 409.167979,264.250365 C405.979287,268.632289 402.724017,272.965068 399.393126,277.504362 C399.197161,277.876299 399.077246,278.042073 398.822391,278.296913 C398.71253,278.404393 398.70166,278.410805 398.699758,278.416747 C398.598088,278.523094 398.498359,278.623419 398.291175,278.90719 C397.953478,279.381408 397.723235,279.672139 397.435267,280.142524 C395.259549,285.692613 396.443876,291.310614 396.181723,296.818165 C396.079703,298.961467 395.977257,301.039319 393.857052,302.571289 Z" id="Path" fill="#CA3B1F"></path>
            <path d="M266.060551,382.468792 C265.86901,382.512117 265.673085,382.559391 265.595325,382.624538 C265.144117,383.060059 264.755555,383.412682 264.148044,383.778589 C263.145159,383.897153 262.331622,383.967725 261.274156,384 C259.993709,382.959367 260.040576,381.66086 260.04414,380.353896 C260.058313,375.179855 260.08251,370.005296 260.022135,364.831933 C260.010232,363.811886 260.67894,362.280997 258.464833,362.133589 C257.933398,362.162712 257.690253,362.175079 257.270015,362.237672 C256.550486,362.974433 255.872577,363.084779 254.863584,362.616784 C253.591242,362.256502 252.496698,362.201768 251.521103,361.826286 C247.950395,360.451662 246.979028,357.867015 249.143841,354.660742 C251.974739,350.467972 255.008296,346.401545 258.182142,342.471477 C259.802012,340.46561 260.343745,338.347084 260.321779,335.88934 C260.287793,332.09148 260.492294,328.28225 260.265829,324.498352 C260.094374,321.632733 261.024981,319.761669 263.508859,318.447922 C265.008606,317.654672 266.330673,316.512788 267.910646,315.393245 C270.333952,314.772496 270.223852,316.526951 270.270836,317.836189 C270.379018,320.850613 270.328119,323.871579 270.302042,326.161091 C270.851252,322.56637 269.414699,318.126138 271.14976,313.657022 C271.298115,313.452646 271.327441,313.436011 271.326775,313.418896 C271.648071,313.006831 272.020071,312.66538 272.590659,312.283316 C272.768104,312.220084 272.99085,312.15761 273.086542,312.091665 C273.347737,311.896026 273.515198,311.769004 273.825296,311.5746 C273.966015,311.504507 274.23183,311.421807 274.348117,311.344253 C274.587542,311.205901 274.71072,311.145143 274.970544,310.928439 C275.107191,310.772453 275.121991,310.783345 275.117137,310.775765 C275.267448,310.633862 275.416585,310.492877 275.681264,310.25124 C275.802876,310.157249 275.768068,310.129643 275.776956,310.150188 C275.923234,309.973977 276.089717,309.80742 276.459407,309.641382 C280.809432,308.464751 280.909627,308.540868 280.918515,313.047923 C280.928382,318.051736 280.984098,323.056467 280.901757,328.058804 C280.870982,329.928472 281.51655,331.135462 283.16191,331.951293 C284.791686,332.759384 285.760586,331.830095 286.791975,330.81655 C287.249644,330.366747 287.761423,329.939802 288.318621,329.635491 C290.28281,328.562744 292.164384,328.488381 293.870903,330.227437 C295.612581,332.002237 295.130441,333.730402 293.83449,335.464311 C290.150901,340.392605 286.51089,345.355766 282.755532,350.226613 C281.425556,351.951666 280.823958,353.764964 280.870943,355.935671 C280.948663,359.52361 280.584729,363.149927 280.975249,366.695099 C281.461343,371.108323 279.965081,374.036656 275.890267,375.940313 C275.598845,376.288427 275.437532,376.459253 275.073362,376.629121 C274.899793,376.657326 274.6774,376.704161 274.582452,376.767593 C274.338093,376.971451 274.185589,377.108247 273.891662,377.306639 C273.753331,377.371866 273.819266,377.409446 273.799219,377.376813 C273.575847,377.749422 273.173072,377.764821 272.636156,377.940434 C272.202528,378.042762 271.943252,378.063467 271.491417,378.053015 C269.545747,376.335422 270.53485,374.160327 270.335557,372.206403 C270.205175,370.927763 270.310851,369.624149 270.311047,368.742853 C270.411908,371.343736 270.11199,374.364224 270.465079,377.369153 C270.577449,378.325769 270.141159,379.021719 269.456985,379.86723 C269.288898,380.019067 269.343283,380.062471 269.322923,380.034027 C268.934439,380.612328 268.291808,380.817064 267.559318,381.239262 C267.397848,381.351882 267.425334,381.372906 267.414998,381.358704 C267.064885,381.754052 266.67229,382.105079 266.060551,382.468792 Z" id="Path" fill="#CD3C20"></path>
            <path d="M220.926047,321.704202 C218.841308,322.515081 217.354988,321.490958 215.90543,320.647201 C192.474828,307.008332 169.053945,293.353102 145.659074,279.654762 C141.657824,277.311897 140.148145,273.094473 141.463781,268.683407 C142.202616,266.206254 143.836497,266.970041 145.275147,267.791464 C151.536155,271.366307 157.752681,275.016865 163.988965,278.633841 C182.695299,289.483365 201.403317,300.330037 220.325509,311.258947 C222.782021,314.599226 222.133973,318.022093 220.926047,321.704202 Z" id="Path" fill="#F8EEDB"></path>
            <path d="M219.447059,322 C219.132,318.662983 219.047655,315.35458 219,311.76574 C228.908877,306.440908 238.155801,300.358061 247.649767,294.687838 C262.447593,285.849933 277.178578,276.903321 291.949228,268.021161 C295.263817,266.027979 296.850629,266.954788 296.988227,270.782668 C297.104995,274.031059 296.389552,276.537578 293.199757,278.440435 C271.181203,291.575263 249.27511,304.893367 227.307931,318.112187 C224.863574,319.583073 222.535045,321.320533 219.447059,322 Z" id="Path" fill="#CF8E4F"></path>
            <path d="M82.2754483,100 C82.7749686,100.937384 83.6527259,101.336185 84.4928718,101.818153 C94.8087798,107.736332 105.114403,113.671327 115.421899,119.603287 C115.69806,119.762232 115.966832,119.933507 116.236058,120.103427 C121.433919,123.383879 121.237373,125.012528 115.71394,127.980455 C107.472754,132.408677 99.3017668,136.965112 91.1984159,141.626071 C87.3759615,143.824664 83.566353,144.897648 79.3216284,143.072871 C78.3831707,142.669431 76.9771482,142.453376 76.95849,141.246414 C76.9383947,139.945808 78.40106,139.971119 79.3396752,139.5597 C80.4680791,139.065058 81.9591943,139.152805 82.5898501,137.53662 C86.541214,134.821931 90.7481103,132.821928 94.7603327,130.494684 C101.236233,126.738449 101.400191,127.579115 94.9322121,123.73395 C90.9275153,121.353221 86.7566339,119.245028 82.7372396,116.538108 C82.4543213,114.705353 80.9076473,114.729136 79.8297395,114.21972 C74.6943928,111.79278 73.4438381,109.821123 74.2045461,105.01334 C74.2807329,104.710989 74.3624956,104.641566 74.5939332,104.509517 C74.8597504,104.413982 74.9758734,104.381113 75.2064246,104.211766 C77.5631007,102.744332 79.8053679,101.413358 82.2754483,100 Z" id="Path" fill="#F67C57"></path>
            <path d="M220.950414,267.983802 C218.696066,268.13664 217.013023,267.182006 215.343735,266.212028 C192.086275,252.697394 168.83097,239.179147 145.580367,225.653168 C144.841112,225.223094 144.113003,224.752926 143.455925,224.211972 C141.063707,222.242488 140.285319,219.420507 141.718038,217.498012 C143.725124,214.804802 145.91362,216.338754 147.932012,217.498634 C157.318469,222.892806 166.687534,228.3166 176.035492,233.77501 C190.749745,242.366787 205.442082,250.994772 220.325333,259.725362 C222.715615,262.316376 222.191762,265.01625 220.950414,267.983802 Z" id="Path" fill="#F5EDDC"></path>
            <path d="M218.365673,267.953194 C218.132044,265.281909 218.07601,262.733686 218,259.902056 C224.68472,257.112438 230.509746,253.087327 236.610534,249.56037 C255.162015,238.835394 273.626962,227.972526 292.138016,217.182969 C294.179356,215.993167 296.351111,215.127221 298.148299,217.514564 C299.731397,219.617433 299.090915,222.250328 296.365805,223.902125 C288.767301,228.507813 281.099022,233.009043 273.413031,237.479737 C256.835975,247.121979 240.231278,256.720495 223.635477,266.333039 C222.063857,267.243342 220.512569,268.227757 218.365673,267.953194 Z" id="Path" fill="#CF8D4E"></path>
            <path d="M132,195.955621 C132.991057,192.94814 135.845631,192.241872 138.176859,190.906078 C139.539008,190.125568 140.897474,189.339104 142.403502,188.389826 C142.574644,188.06914 142.599907,187.913899 142.851493,187.669363 C143.077814,187.580066 143.043958,187.511547 143.065025,187.544175 C143.186194,187.47871 143.286278,187.380635 143.539269,187.426982 C152.301694,183.728498 160.341023,178.878652 168.59111,174.406584 C181.628765,167.339403 194.668736,160.266288 207.504599,152.868308 C212.258131,150.128641 216.093547,150.272414 220,154.163994 C214.783964,158.023232 209.11071,161.149071 203.461414,164.302309 C196.494536,168.190951 189.281379,171.698076 182.511838,175.877334 C177.618584,178.898248 172.516808,181.490574 167.463401,184.200875 C161.868156,187.201774 156.33696,190.318702 150.32366,192.991166 C149.97892,193.331964 149.774041,193.499702 149.368874,193.71785 C148.657082,193.807452 148.127143,193.764178 147.434635,193.985169 C146.993613,194.060404 146.750224,194.12606 146.443024,194.407308 C146.36462,194.574492 146.319914,194.471132 146.375826,194.455926 C146.197715,194.508664 146.005744,194.635626 145.769305,194.972933 C144.163391,196.616038 142.209096,197.439804 140.308,198.330352 C136.927505,199.913869 134.369935,198.514976 132,195.955621 Z" id="Path" fill="#F67C57"></path>
            <path d="M71.1052236,178.544986 C68.6208309,179.842705 67.0397486,178.04639 65.4448215,177.114766 C55.1777996,171.117886 45.0047173,164.959844 34.797508,158.860234 C27.689982,154.612916 20.5724467,150.382364 13.4685425,146.129001 C9.28412443,143.623659 8.09297759,141.240173 9.66651295,138.621106 C11.0494826,136.319214 13.0047065,136.463063 17.4666485,139.089033 C34.1173135,148.888408 50.7797394,158.66776 67.4321375,168.464211 C68.5288968,169.109405 69.6439032,169.751986 70.6379016,170.538338 C73.6086414,172.888445 73.7916329,175.400689 71.1052236,178.544986 Z" id="Path" fill="#F5EDDC"></path>
            <path d="M405.298478,145.866677 C410.065235,142.912653 414.644901,140.09424 419.193075,137.225463 C421.367241,135.854098 423.510494,135.203084 425.326781,137.616311 C426.733219,139.485094 425.863405,142.593374 423.393996,144.117365 C411.555908,151.423125 399.658392,158.631783 387.795883,165.897713 C381.505764,169.750479 375.255213,173.668432 368.962506,177.516931 C366.969173,178.736038 364.894389,180.171406 362.9157,177.433546 C361.310308,175.212212 361.780511,172.455048 364.606099,170.685152 C374.253021,164.642559 384.008443,158.774476 393.728895,152.85048 C397.509883,150.546208 401.308104,148.270378 405.298478,145.866677 Z" id="Path" fill="#CF8E4F"></path>
            <path d="M138,295.876596 C135.241334,303.205718 129.416487,306.241665 122.265948,306.879695 C113.515018,307.660545 105.855793,304.59442 99,299.016061 C102.535346,298.55173 105.946062,299.973535 109.650058,299.523475 C116.339724,298.710536 121.743455,295.659383 126.381302,291.120883 C127.788521,289.7438 128.786026,289.70251 130.205037,290.632106 C132.773836,292.314987 135.343552,293.996543 138,295.876596 Z" id="Path" fill="#A0250F"></path>
            <path d="M336.844836,335.78659 C337.119747,337.362952 337.13505,338.640908 335.993869,339.817809 C334.528119,340.588973 333.105624,340.990423 332.04334,342.344715 C331.908851,342.51232 331.891752,342.46152 331.915214,342.474542 C328.416676,343.767663 328.157693,342.687216 328.108309,339.087349 C327.980925,329.796973 327.895938,320.501881 328.270125,310.92078 C330.931437,309.065348 333.294806,310.467166 335.629754,311.199966 C337.035462,311.641104 336.654405,313.124599 336.661002,314.250233 C336.702618,321.338114 336.616264,328.426267 336.844836,335.78659 Z" id="Path" fill="#E39D5C"></path>
            <path d="M350.823914,180.312857 C350.73231,179.756617 350.728035,179.481459 350.723964,179 C353.479784,179.399703 353.902099,181.454582 353.921642,183.664791 C353.979861,190.25764 354.009338,196.850995 353.997368,203.444076 C353.965652,220.883872 353.93581,238.323863 353.844816,255.763425 C353.801457,264.076081 351.582722,271.71446 345.393007,278 C344.460843,276.221584 345.373791,274.945007 346.197048,273.701475 C350.072475,267.847358 351.458344,261.391056 351.453133,254.558512 C351.436237,232.442156 351.435097,210.32576 351.463067,188.209443 C351.466324,185.651262 351.244479,183.122483 350.823914,180.312857 Z" id="Path" fill="#CA3B1F"></path>
            <path d="M322,197.548906 C322.277873,196.841141 322.588366,196.442592 323.086925,196 C324.963141,197.47436 324.584707,199.520043 324.587525,201.414341 C324.620265,223.420632 324.601414,245.426903 324.613201,267.433215 C324.614193,269.26368 324.499465,271.104109 324.932941,273.210659 C324.853412,274.621997 324.97453,275.726215 325.163985,277.084179 C325.230497,277.6694 325.268674,277.998779 325.358083,278.560673 C325.615161,280.659158 326.811656,282.222316 327,284.314594 C326.884557,284.683865 326.807251,284.820899 326.497075,285 C322.603803,282.647098 322.261007,278.840513 322.246482,275.064649 C322.171161,255.465998 322.211996,235.866913 322.185606,216.267986 C322.177352,210.131311 322.085918,203.994736 322,197.548906 Z" id="Path" fill="#CA3B1F"></path>
            <path d="M335.99448,336 C334.948543,334.866386 335.425921,333.22833 335.406932,331.694132 C335.33788,326.110757 335.324697,320.525284 335.392216,314.941986 C335.415002,313.057229 335.076971,311.886107 332.977828,312.042555 C331.463166,312.15543 330.104794,311.363396 328.503041,310.735235 C327.173481,310.123709 327.790607,308.912279 327.320751,307.899353 C327.175489,306.869792 327.125936,306.026878 327.052027,305.186414 C326.842533,302.804562 327.155587,301.192432 330.067,302.197778 C330.902165,302.486147 332.126559,302.189071 332.94416,301.714675 C335.447429,300.262141 336.022489,301.042086 335.999337,303.887141 C335.913086,314.493322 336.023986,325.10133 335.99448,336 Z" id="Path" fill="#B5784B"></path>
            <path d="M327.131229,307 C328.48477,307.133422 327.99773,308.372432 328.238961,309.515115 C328.217799,319.854545 328.21641,329.970529 328.102868,340.085117 C328.078816,342.226331 329.033346,342.728628 331,342.594328 C330.39214,343.617111 329.30617,344.468539 328.076602,343.708332 C326.907334,342.98538 327.000426,341.470033 327.002527,340.169637 C327.020426,329.211918 327.052019,318.254159 327.131229,307 Z" id="Path" fill="#DFA36A"></path>
            <path d="M123.190315,233.984457 C123.006041,223.964562 123.003253,214.132941 123,204.001785 C123.032217,203.459654 123.157987,203.261137 123.557048,203.05267 C123.749797,203.004585 123.896742,202.997685 123.969473,203.000558 C124.026318,213.112968 124.010431,223.222486 123.864901,233.564278 C123.614092,233.921907 123.492968,234.04732 123.190315,233.984457 Z" id="Path" fill="#CA3B1F"></path>
            <path d="M153,198.187947 C153.855558,197.742181 154.60858,198.171602 155.465157,198.622493 C160.886595,201.47628 166.281687,204.371052 171.343524,207.845259 C172.649422,208.741556 175.102557,208.169963 174.996681,211 C167.638127,206.940362 160.379012,202.650333 153,198.187947 Z" id="Path" fill="#DFA36A"></path>
            <path d="M244,221 C244.199598,218.459666 246.996569,218.208089 248.771705,217.152518 C254.17102,213.942007 259.82833,211.092973 265.4056,208.135305 C266.43497,207.589413 267.476164,206.986327 269,207.000236 C261.163029,212.031369 252.567026,216.298605 244,221 Z" id="Path" fill="#DFA36A"></path>
            <path d="M189,220.004121 C191.427474,219.907911 193.300491,221.51727 195.340215,222.646658 C199.34001,224.861285 203.237296,227.266694 207.172992,229.600185 C208.02277,230.104009 208.773208,230.707958 209,232 C202.212267,228.491533 195.521411,224.556234 189,220.004121 Z" id="Path" fill="#DFA36A"></path>
            <path d="M271.783483,314 C271.993788,318.765067 272.010772,323.600892 271.992521,328.436563 C271.990304,329.021084 272.129029,329.8874 271.302183,329.987869 C270.219979,330.119445 270.224927,329.15235 270.206874,328.460758 C270.124605,325.308125 270.148795,322.152308 270.027015,319.001617 C269.985524,317.929626 270.544659,316.646987 269,315.764827 C269.268265,314.439974 270.655553,314.646465 271.783483,314 Z" id="Path" fill="#450E03"></path>
            <path d="M393,301.749413 C394.429871,299.903965 394.982376,297.951162 394.869555,295.638413 C394.70856,292.3383 394.871029,289.023453 394.781936,285.718047 C394.727263,283.689449 395.031985,281.812441 396.390862,280 C398.091147,281.765197 395.671392,283.076266 395.868281,284.958451 C396.250496,288.613333 395.949855,292.337691 395.997121,296.032431 C396.020207,297.834441 395.525321,299.476637 394.74589,301.049356 C394.433687,301.679251 394.05763,302.387416 393,301.749413 Z" id="Path" fill="#450E03"></path>
            <path d="M119.382958,253.239414 C123.063397,254.912357 123.065889,254.912357 123.069146,250.691539 C123.072475,246.397855 123.070161,242.104132 123.070446,237.508281 C123.167337,237.0792 123.264104,236.952326 123.506734,237.015113 C124.413043,243.348074 123.824413,249.494993 123.661764,255.638331 C123.616282,257.356309 122.880971,257.301512 121.853506,256.289432 C121.068156,255.515866 120.163396,254.890471 119.157489,254.064588 C118.893641,253.62106 118.956408,253.363533 119.382958,253.239414 Z" id="Path" fill="#CA3B1F"></path>
            <path d="M271.062602,380 C271.400696,376.2138 270.889808,372.389848 271.022567,368.580746 C271.052977,367.707959 270.994947,366.823884 271.008299,365.94689 C271.021411,365.084179 270.996501,363.950488 271.590567,364.001673 C272.115863,364.046952 271.984479,365.154342 271.987528,365.851559 C272.004327,369.694205 271.993427,373.537296 271.98434,377.683698 C271.772209,378.759891 271.660414,379.686453 271.062602,380 Z" id="Path" fill="#450E03"></path>
            <path d="M385.754247,245.001309 C386,250.621331 386,256.23898 386,262 C384.26355,261.650907 384.616203,260.736319 384.597962,260.095181 C384.478887,255.909312 384.385375,251.722216 384.352977,247.535001 C384.346344,246.675997 384.054279,246.35792 383,246.407729 C383.197622,245.029635 384.33971,244.989401 385.754247,245.001309 Z" id="Path" fill="#450E03"></path>
            <path d="M169.289128,135 C168.95181,134.873564 168.750759,134.671745 168.772251,134.491195 C169.138401,131.414315 169.898034,128.149875 164.496532,128.176556 C164.345033,128.177326 164.189037,127.447802 164,126.78598 C164.78712,126.035462 165.609376,125.557783 166.614785,125 C165.596062,126.05614 166.20737,126.500975 167.534491,127.149329 C171.529717,129.101224 172.009409,131.260487 169.289128,135 Z" id="Path" fill="#F6E4CC"></path>
            <path d="M384.633896,307 C385.041457,302.683265 382.559349,298.258035 385.332213,294 C387.336129,297.793181 385.873036,301.746735 387,305.810981 C386.958683,306.909426 385.983041,306.994218 384.633896,307 Z" id="Path" fill="#450E03"></path>
            <path d="M218,236.525254 C222.153862,234.193425 226.451763,232.056625 231,230 C228.048776,232.597062 224.443426,234.450543 220.917327,236.429698 C220.072444,236.903968 219.145223,237.385868 218,236.525254 Z" id="Path" fill="#DFA36A"></path>
            <path d="M340,284.350282 C334.930254,288.418394 330.494525,289.063337 326.03629,286.396865 C325.92934,286.223949 326.085297,286.102203 326.163047,286.041107 C326.400405,285.85806 326.608221,285.663478 326.758665,285.705167 C331.145348,286.920439 334.97238,284.947307 339.211204,284 C339.594823,284.062328 339.74272,284.11182 340,284.350282 Z" id="Path" fill="#CA3B1F"></path>
            <path d="M177,212.049226 C181.37666,211.620169 184.269681,214.056341 187,217 C183.729381,215.520432 180.436376,213.845473 177,212.049226 Z" id="Path" fill="#DFA36A"></path>
            <path d="M259,362.370555 C261.404565,361.272568 261.307913,362.826731 261.308652,364.269673 C261.311147,369.09056 261.2953,373.911446 261.306342,378.732333 C261.309484,380.088605 261.181646,381.466736 262,383 C260.00981,382.935958 260.55655,381.563972 260.545693,380.511895 C260.494133,375.512826 260.540611,370.513064 260.495888,365.513918 C260.486186,364.431336 260.963533,363.152054 259,362.370555 Z" id="Path" fill="#450E03"></path>
            <path d="M124.258509,199.982178 C124.096175,200.06841 124.079023,199.820292 124.072409,199.696065 C124.019551,199.464468 123.973307,199.357078 124.018018,199.102963 C125.083029,196.797043 127.058798,196.637727 129,196 C127.619721,197.31736 126.02029,198.606653 124.258509,199.982178 Z" id="Path" fill="#CA3B1F"></path>
            <path d="M345,279.175496 C344.108699,281.344313 342.411446,282.70495 340.367161,283.985201 C340.159606,284.0447 340.054671,283.909897 340,283.844356 C340.026929,280.889807 341.606575,279.198904 344.762464,279 C344.975003,279.149968 344.991616,279.167134 345,279.175496 Z" id="Path" fill="#CA3B1F"></path>
            <path d="M234,228 C234.689853,224.827721 238.150307,225.005743 241,224 C238.922779,225.311095 236.574849,226.620877 234,228 Z" id="Path" fill="#DFA36A"></path>
            <path d="M378,312.961747 C379.172453,311.87182 380.480356,310.956049 382,310 C381.657226,312.281101 380.21372,313.206771 378,312.961747 Z" id="Path" fill="#450E03"></path>
            <path d="M209,231 C210.750423,231.411397 212.916516,231.406332 214,234 C212.400685,233.226093 210.764104,232.207666 209,231 Z" id="Path" fill="#DFA36A"></path>
            <path d="M332,343 C331.990202,340.626441 333.829351,340.281207 336,340 C335.2928,341.466047 333.669115,342.07145 332,343 Z" id="Path" fill="#DFA36A"></path>
            <path d="M107,286 C107.205609,285.01049 109.135059,285.136509 111,285 C110.344301,285.651195 108.756912,285.787304 107,286 Z" id="Path" fill="#F9F1DE"></path>
            <path d="M149,196.082269 C150.534522,195.970835 152.331113,195.782 153,197 C151.730169,196.81954 150.408189,196.507228 149,196.082269 Z" id="Path" fill="#DFA36A"></path>
            <path d="M231.005606,230 C230.911829,227.587116 231.99812,226.7084 234,227.083093 C233.250611,228.120702 232.239038,229.014111 231.005606,230 Z" id="Path" fill="#DFA36A"></path>
            <path d="M389,306 C389.431536,304.327304 390.603672,303.708618 392,303 C391.998631,305.335487 390.623841,305.695618 389,306 Z" id="Path" fill="#450E03"></path>
            <path d="M255,363.285008 C255.84776,363.084131 256.753576,363.033328 258,363 C257.799561,364.279887 256.638167,364.282662 255,363.285008 Z" id="Path" fill="#450E03"></path>
            <path d="M148.196881,194.078481 C148.449029,194.003814 148.607245,194.000163 148.884143,194 C149.002363,194.28816 149.00189,194.572809 148.999381,194.999887 C148.721008,195.004514 148.444669,194.866736 148.07443,194.658546 C147.94272,194.416346 147.987194,194.271336 148.196881,194.078481 Z" id="Path" fill="#DFA36A"></path>
            <path d="M119,253.356093 C118.948407,253.55279 118.730856,253.652033 118.445783,253.890978 C117.669535,254.005564 117.000252,254.012953 116,253.988763 C116.13653,252.788701 117.347232,252.816866 119,253.356093 Z" id="Path" fill="#D04524"></path>
            <path d="M123.994267,236.716021 C123.925125,236.998533 123.463038,237.000119 123.231981,237 C123.00033,235.857015 122.999708,234.714115 123.000019,233.285611 C123.155574,232.999926 123.310253,232.999845 123.696922,233 C123.973772,234.144738 124.018604,235.289103 123.994267,236.716021 Z" id="Path" fill="#D04524"></path>
            <path d="M268,381 C268.180243,380.668268 268.511657,380.345186 268.975054,380 C269.104113,380.716229 268.725471,380.984744 268,381 Z" id="Path" fill="#450E03"></path>
            <path d="M242.010992,224 C241.931418,223.259886 242.286191,222.96575 243,223.003143 C242.811252,223.336247 242.475637,223.659555 242.010992,224 Z" id="Path" fill="#DFA36A"></path>
            <path d="M267,382 C267.131378,381.659125 267.462201,381.341148 267.967534,381 C268.097271,381.567909 267.850761,381.977478 267,382 Z" id="Path" fill="#450E03"></path>
            <path d="M147.988727,194 C148.033358,194.229285 147.94052,194.472409 147.797451,194.834847 C147.546752,195.010135 147.346285,195.06611 147,194.902916 C147.186542,194.460451 147.518901,194.237154 147.988727,194 Z" id="Path" fill="#E4A664"></path>
            <path d="M264,383 C264.138234,382.657257 264.471815,382.338481 264.98019,382 C265.077083,382.564356 264.829204,382.982496 264,383 Z" id="Path" fill="#450E03"></path>
            <path d="M273,311 C272.877015,311.32765 272.549151,311.641625 272.049901,312 C271.878766,311.444847 272.136404,311.053414 273,311 Z" id="Path" fill="#450E03"></path>
            <path d="M187,217.173833 C187.252229,217.04395 187.581696,217.191472 188,217.574773 C187.735276,218.000798 187.389044,218.051945 187,217.173833 Z" id="Path" fill="#DFA36A"></path>
            <path d="M273,378 C273.116379,377.658281 273.452972,377.338201 274,377 C273.880389,377.328524 273.550344,377.67517 273,378 Z" id="Path" fill="#450E03"></path>
            <path d="M382,310 C382.115162,309.676555 382.44869,309.340863 383,309 C382.884614,309.325823 382.55149,309.656819 382,310 Z" id="Path" fill="#450E03"></path>
            <path d="M336,366 C335.88283,366.30209 335.552054,366.640138 335,367 C335.114628,366.693138 335.450489,366.36452 336,366 Z" id="Path" fill="#C2905E"></path>
            <path d="M335.927244,366.099792 C335.938353,366.318847 335.650755,366.578796 335.07263,366.900207 C335.064207,366.687988 335.346312,366.414306 335.927244,366.099792 Z" id="Path" fill="#C2905E"></path>
            <path d="M275.121954,374.887177 C275.099066,374.669403 275.356207,374.420624 275.878546,374.112823 C275.896429,374.321319 275.649175,374.588775 275.121954,374.887177 Z" id="Path" fill="#450E03"></path>
            <path d="M273.175161,376.867981 C273.144643,376.668946 273.360342,376.422608 273.824697,376.13202 C273.85613,376.332093 273.638784,376.576417 273.175161,376.867981 Z" id="Path" fill="#450E03"></path>
            <path d="M398.311151,277.911377 C398.106073,277.690429 398.231623,277.408935 398.708124,277.088623 C398.886347,277.309387 398.747248,277.576416 398.311151,277.911377 Z" id="Path" fill="#450E03"></path>
            <path d="M276.884543,310.113098 C276.906272,310.334717 276.645102,310.583618 276.115012,310.886902 C276.097983,310.674316 276.349875,310.407349 276.884543,310.113098 Z" id="Path" fill="#450E03"></path>
            <path d="M398.270558,276.939942 C398.197255,276.762146 398.350636,276.469787 398.729543,276.060058 C398.80248,276.236817 398.649831,276.531067 398.270558,276.939942 Z" id="Path" fill="#450E03"></path>
            <path d="M75.7530426,103.197479 C75.8980626,103.490326 75.7335726,103.691498 75.2644256,103.802521 C75.0889496,103.486664 75.2502356,103.284485 75.7530426,103.197479 Z" id="Path" fill="#D63F20"></path>
            <path d="M139.853745,297.627314 C139.676253,297.818598 139.451767,297.73913 139.146255,297.433527 C139.317306,297.16839 139.564499,297.218134 139.853745,297.627314 Z" id="Path" fill="#A0250F"></path>
            <path d="M382.812581,246.111999 C382.85317,246.311462 382.640828,246.563476 382.186727,246.888 C382.149923,246.69519 382.354818,246.42987 382.812581,246.111999 Z" id="Path" fill="#450E03"></path>
            <path d="M386.756927,243.026916 C386.838714,243.23114 386.651214,243.529724 386.239105,243.973084 C386.172149,243.785644 386.329864,243.453491 386.756927,243.026916 Z" id="Path" fill="#450E03"></path>
            <path d="M383.229357,309.884582 C383.06444,309.621094 383.24663,309.36316 383.779406,309.115418 C383.928392,309.370117 383.743883,309.624938 383.229357,309.884582 Z" id="Path" fill="#450E03"></path>
            <path d="M381.182263,310.884887 C381.14436,310.693909 381.338635,310.425964 381.785412,310.115113 C381.913891,310.388428 381.706067,310.633668 381.182263,310.884887 Z" id="Path" fill="#450E03"></path>
            <path d="M275.795615,310.103149 C275.840904,310.296264 275.645042,310.562743 275.204612,310.89685 C275.158225,310.701781 275.356345,310.439147 275.795615,310.103149 Z" id="Path" fill="#450E03"></path>
            <path d="M242.117153,221.87793 C242.097316,221.666626 242.349453,221.405884 242.882534,221.12207 C242.905422,221.342163 242.647243,221.585266 242.117153,221.87793 Z" id="Path" fill="#DFA36A"></path>
            <path d="M275.768437,311.164703 C275.927983,311.437896 275.747563,311.675201 275.20612,311.835297 C275.094975,311.577972 275.289433,311.368194 275.768437,311.164703 Z" id="Path" fill="#450E03"></path>
            <path d="M273.854837,311.138916 C273.874063,311.34076 273.638346,311.583985 273.145243,311.861084 C273.125223,311.656678 273.362589,311.418457 273.854837,311.138916 Z" id="Path" fill="#450E03"></path>
            <path d="M144.192386,195.954208 C144.126224,195.740555 144.337131,195.444168 144.808902,195.045792 C144.869663,195.253006 144.669559,195.562241 144.192386,195.954208 Z" id="Path" fill="#DFA36A"></path>
            <path d="M145.612028,194.02053 C145.851744,193.915018 145.833036,194.242442 145.825651,194.406228 C145.703337,194.699013 145.588469,194.828071 145.212858,195 C145.092161,194.737281 145.232237,194.431662 145.612028,194.02053 Z" id="Path" fill="#DFA36A"></path>
            <path d="M275.327233,404.450707 C275.277672,404.33828 275.677025,404.579186 275.677025,404.579186 C275.677025,404.579186 275.376732,404.563134 275.327233,404.450707 Z" id="Path" fill="#C2905E"></path>
            <path d="M205.654004,26.6285621 C208.765217,23.9791192 212.337189,22.4366035 215.666,20.5027768 C217.43536,19.4748826 218.990273,20.2019547 220.521684,21.0881503 C233.910129,28.8356886 247.296909,36.5859639 260.687732,44.3295214 C263.663483,46.050325 266.658852,47.7386066 269.635119,49.4585265 C272.75624,51.2621493 272.796743,51.8464647 269.704475,53.6400491 C260.596856,58.922703 251.444413,64.1311299 242.334813,69.4104633 C235.178742,73.5576292 228.025088,77.7110663 220.946022,81.9821458 C218.745547,83.3097551 216.884914,83.34284 214.649425,82.0567418 C202.920937,75.3091293 191.131258,68.6637039 179.258392,61.7953042 C178.74522,60.9204569 179.073034,60.307318 179.575308,59.9439086 C182.833079,57.5868807 185.890789,54.8415129 190.427041,54.3845181 C196.015676,56.4870791 200.47215,60.095295 205.507406,62.7193513 C208.738881,64.4034008 211.804617,66.3842814 214.982352,68.1723421 C217.095399,69.3613213 218.919808,69.2785511 221.013554,68.0579433 C226.753423,64.711766 232.466938,61.3182135 238.491047,58.0109655 C238.934288,57.7483245 239.190428,57.6082381 239.635295,57.3729935 C239.944819,57.2116464 240.069104,57.1514761 240.381402,57.012477 C241.068855,56.7817172 241.564332,56.621535 242.116323,56.1565797 C242.570781,55.8212068 242.891243,55.6242699 243.359215,55.3111279 C243.61916,55.1369857 243.724105,55.0682919 243.985952,54.8951982 C244.244867,54.7177164 244.346799,54.6445951 244.593824,54.454338 C244.921063,54.1772903 245.076143,53.9957316 245.253733,53.6196817 C245.349563,53.2262157 245.359788,52.9987185 245.26689,52.608573 C245.133965,52.3484177 245.067622,52.249745 244.722905,51.903499 C244.329678,51.5882409 244.214905,51.5205766 243.913466,51.3630932 C240.059157,49.8685349 237.100407,47.3199386 233.807522,45.3153796 C228.667004,42.1860798 223.483327,39.1299775 218.09087,35.9662528 C215.116525,33.4765938 212.04112,31.53372 208.906424,29.6621993 C207.649265,28.911634 206.127445,28.4000702 205.654004,26.6285621 Z" id="Path" fill="#D44121"></path>
            <path d="M274.413097,78 C277.295391,80.7112226 280.919697,81.9578287 284,84.3733559 C269.966569,92.981972 255.803367,101.440259 241.623734,109.870613 C240.819297,110.348891 239.880245,110.59857 238.766085,111 C235.748439,110.257346 233.61982,108.30396 231.196009,106.882518 C228.3117,105.190998 225.55197,103.288201 222.520607,101.846282 C221.485844,101.354067 220.465186,100.77383 220,99.3369136 C224.301412,95.6050752 229.167325,92.9219996 234.288673,90.3233056 C238.133307,95.5842863 242.100235,96.6545582 247.400257,93.5719996 C254.878225,89.2228049 262.274084,84.731242 269.707064,80.3039338 C271.148154,79.4455988 272.468305,78.3476864 274.413097,78 Z" id="Path" fill="#D64522"></path>
            <path d="M206.7051,26 C210.773741,28.9506996 215.333473,30.9003909 219,34.452997 C219.030917,36.1526604 217.679373,36.3460488 216.743293,36.8432195 C209.336542,40.7771417 202.585274,45.8208712 195.148999,49.7028385 C193.323561,50.6557785 192.283953,52.1239168 192.503297,54.5127106 C187.839516,55.2052525 184.746584,58.4115492 181.106681,61 C176.085807,58.3303803 171.174818,55.476866 166.269587,52.6133419 C163.682064,51.1028304 165.659993,50.3400625 166.842797,49.6748876 C178.695666,43.0091664 190.193666,35.7458913 201.833953,28.722421 C203.365541,27.7982772 204.932546,26.9335033 206.7051,26 Z" id="Path" fill="#E3A464"></path>
            <path d="M219.980632,99 C225.739095,102.368955 231.338452,105.764069 236.942267,109.151627 C237.6749,109.594523 238.497899,109.911592 239,110.966776 C238.106367,112.469362 236.579227,112.884764 235.312252,113.667399 C233.364852,114.870381 232.296209,116.393742 232.583485,119 C224.824942,115.438346 217.683134,110.567762 210,106.249373 C210.598229,102.200063 214.485313,102.22363 216.910488,100.419725 C217.562067,99.9350785 218.473616,99.8073377 219.405093,99.3482922 C219.544351,99.1808152 219.822906,99.0237854 219.980632,99 Z" id="Path" fill="#F27D55"></path>
            <path d="M323.817923,275.759402 C323.106241,273.783333 323.004892,271.982045 323.006348,270.139154 C323.025543,246.032642 323.013294,221.92609 323,197.510416 C325.446075,195.633757 327.901151,194.06624 330.48603,192.314863 C332.380213,193.777347 331.983407,196.029993 331.988822,198.090433 C332.048421,220.715219 332.054097,243.340124 332.081656,265.965028 C332.083225,267.256777 332.133824,268.549039 332.186068,269.839959 C332.244285,271.278976 332.432792,272.739901 333.870832,273.358816 C335.52322,274.069976 336.83351,273.236572 337.936135,271.960059 C340.355958,269.158639 341.884555,265.870099 341.895944,262.07573 C341.969734,237.511584 341.96361,212.947161 341.950353,188.382838 C341.94983,187.443097 341.608478,186.503593 341.371873,185.300971 C341.789181,185.025439 342.260598,185.012927 342.967612,185 C344.615743,186.335937 344.336493,188.151731 344.345381,189.833381 C344.391499,198.557323 344.516187,207.285508 344.315767,216.004457 C344.169383,222.37429 345.397742,228.708896 344.865381,235.027713 C344.166956,243.317585 344.521901,251.597906 344.366479,259.88087 C344.348293,260.8499 344.35494,261.819441 344.304901,262.787799 C344.204075,264.738171 343.818285,266.631428 343.218146,268.471083 C340.976673,275.341674 336.017716,277.383067 330.203157,273.847277 C329.812736,273.922116 329.798733,274.270768 329.736632,274.575213 C329.410403,276.174644 329.984477,278.473037 327.961123,278.933632 C326.029858,279.373267 324.94217,277.551138 323.817923,275.759402 Z" id="Path" fill="#CA3C1E"></path>
            <path d="M323,274.698024 C324.942962,274.643249 325.79393,276.660516 327.817597,277.35677 C328.441805,275.201877 328.000506,273.072024 328.159288,271.001954 C328.199289,270.480474 328.124671,269.851259 328.765147,269.653573 C329.357645,269.470716 329.833562,269.882609 330.092582,270.324669 C331.495891,272.719678 333.316884,274.688007 336.28264,273.621858 C339.406667,272.498766 341.706053,270.290833 342.577964,266.843359 C343.158204,264.549223 343.635652,262.285018 343.625711,259.882516 C343.583471,249.691521 344.363397,239.46188 344.014004,229.328539 C343.499306,214.398533 343.949957,199.48515 343.589955,184.267136 C345.654682,182.353975 348.066879,181.198369 349.936399,179 C351.741439,179.84506 351.969574,181.50586 351.969064,183.290858 C351.961913,208.019782 352.090951,232.749868 351.869456,257.47682 C351.815782,263.473295 350.19255,269.313215 346.621486,274.399386 C345.902935,275.422749 344.912674,276.371422 344.853774,278.011026 C342.118079,278.351305 341.588645,281.129223 339.763133,282.59295 C337.756244,283.648806 335.768098,284.431067 333.843096,285.347049 C331.132784,286.636712 328.616776,285.785835 325.84336,284.773672 C325.066617,282.921714 323.709987,281.419264 323.646686,279.190075 C323.482913,278.814266 323.343463,278.666978 323.110534,278.398548 C322.999374,277.187439 322.998903,276.081027 323,274.698024 Z" id="Path" fill="#C63419"></path>
            <path d="M176.877773,338.010093 C180.225911,343.563183 183.574108,348.845823 186.628812,354.297364 C189.066611,358.647923 188.276157,361.227686 184.078572,363.749428 C181.142775,365.513114 178.139482,367.168421 175.112207,368.766779 C171.441481,370.704888 169.330659,370.503857 167.040841,367.120368 C161.852922,359.454627 156.865902,351.641152 152.04148,343.734667 C150.076171,340.513845 150.95046,338.073119 154.173227,336.080801 C157.361119,334.110008 160.601872,332.221581 163.874207,330.397967 C168.029158,328.082498 170.454046,328.579475 173.274484,332.367847 C174.555922,334.088999 175.599626,335.992001 176.877773,338.010093 Z" id="Path" fill="#FDEDD5"></path>
            <path d="M38.5122522,270.34971 C42.7713626,266.023219 47.9898772,263.679486 53.1566814,261.374737 C55.5782149,260.294542 57.8773881,261.685347 59.2885059,263.813018 C64.5347189,271.723223 69.5768072,279.768784 74.2363045,288.044845 C75.8501082,290.911206 74.7688851,293.518236 72.2808598,295.09421 C68.5688544,297.445399 64.6138624,299.424705 60.6850404,301.407343 C57.6868411,302.920377 55.2769739,301.320014 53.6950364,299.043502 C48.3424153,291.340833 43.1403359,283.525334 38.6388692,275.271919 C37.8276711,273.784624 37.7928783,272.169903 38.5122522,270.34971 Z" id="Path" fill="#FDEDD5"></path>
            <path d="M127.638729,330.843487 C130.064496,330.526766 131.778976,329.166088 133.645678,328.152066 C135.713397,327.028858 137.697372,327.016851 139.539055,328.666369 C141.480993,330.405815 141.517539,332.421289 139.465085,334.218913 C136.944729,336.426248 134.009101,337.961866 131.025087,339.390675 C129.133967,340.296115 127.184728,340.187533 125.523851,339.097846 C119.262341,334.989905 112.555008,331.650015 106.49389,327.201219 C104.599676,325.810927 103.104398,324.161651 104.627402,321.754276 C106.045634,319.512533 108.313337,319.667167 110.303426,320.836628 C115.18331,323.704277 119.973024,326.736915 124.782988,329.730674 C125.605492,330.242599 126.370324,330.837362 127.638729,330.843487 Z" id="Path" fill="#F8815C"></path>
            <path d="M242.996292,196.209043 C244.969794,195.102849 246.671543,193.978185 248.506012,193.12105 C250.905956,191.999697 254.330358,193.185875 255.484775,195.35809 C256.654535,197.559264 255.830165,199.732417 253.034898,201.328272 C242.743905,207.203464 232.401679,212.994483 222.134825,218.908757 C219.62192,220.356302 217.380412,220.363575 214.889654,218.93138 C204.804725,213.13242 194.653317,207.442227 184.574658,201.633103 C181.190961,199.682789 180.324744,197.65452 181.491013,195.320922 C182.719127,192.863588 185.23359,192.20311 188.72589,193.428504 C191.489762,194.398311 193.878782,196.030416 196.206686,197.690138 C197.868007,198.874593 199.231248,198.860985 200.901206,197.81328 C203.156913,196.398082 205.497142,195.1017 207.856225,193.852344 C209.660325,192.896909 209.862068,192.096178 207.899236,191.122026 C205.501264,189.931906 203.131255,188.676023 201.219362,186.787299 C199.218744,184.810936 199.118306,182.691755 201.503697,181.23311 C206.683645,178.065612 212.095609,175.256135 217.400685,172.280107 C218.406171,171.716071 219.257637,172.111317 220.139275,172.525128 C225.482197,175.032971 230.457127,178.1553 235.408472,181.296443 C237.88801,182.869483 238.018916,185.445499 235.695568,187.32741 C233.728337,188.920929 231.456027,190.164544 229.291825,191.522612 C227.881629,192.407518 227.812921,193.12461 229.339194,193.993879 C231.654576,195.312558 233.915843,196.722092 236.181489,198.121385 C239.095082,199.920843 240.642337,197.113586 242.996292,196.209043 Z" id="Path" fill="#FDF1D8"></path>
            <path d="M93.5080383,215.333916 C92.8483487,204.573105 92.8587629,193.891527 93.3795107,183 C96.7061222,184.288517 99.3231917,186.916591 103,187.869457 C102.063746,196.325426 103.424178,204.839571 102.693587,213.304853 C102.595715,214.438782 102.932435,215.620685 102.118146,216.81601 C101.240692,217.184191 100.649997,216.948905 100.196483,216.557354 C98.2269291,214.857097 96.0238252,214.807503 93.5080383,215.333916 Z" id="Path" fill="#E1A568"></path>
            <path d="M114.812002,197.848356 C114.813331,200.856903 114.810032,203.62877 114.81219,206.69641 C114.813503,220.760078 114.809376,234.527974 114.808063,248.592825 C114.998024,249.14181 115.070104,249.437138 114.917394,249.975541 C114.796823,250.696785 114.786115,251.218133 114.763074,252 C113.94131,251.773747 114.148388,250.812954 114.140041,250.025505 C113.95205,232.253306 113.907732,214.481089 114.297519,196.450057 C114.432173,196.072787 114.505207,195.95561 114.687633,196.014334 C114.800497,196.664042 114.803936,197.137849 114.812002,197.848356 Z" id="Path" fill="#CA3B1F"></path>
            <path d="M111.097678,170 C110.992932,169.457056 110.90155,168.48735 111.220666,168.341818 C115.069839,166.586287 117.999059,163.389469 122.077774,162.03081 C122.519393,161.883698 122.819607,162.27858 123,162.892013 C119.126913,165.380317 115.214333,167.668232 111.097678,170 Z" id="Path" fill="#FCEFD7"></path>
            <path d="M100,177 C101.25157,174.908813 101.902997,172.015797 105.333031,172.190225 C106.569632,172.253117 107.970466,170.058816 110,170 C107.051997,172.626856 103.64827,174.837007 100,177 Z" id="Path" fill="#FCEFD7"></path>
            <path d="M115.239121,250.833311 C114.999252,250.648207 114.99741,250.463628 115.000564,250.140578 C115.2279,250.003985 115.460614,249.981269 115.670759,250.012199 C116.518601,250.136921 118.146028,249.719077 117.989468,250.563356 C117.824968,251.450385 116.334009,250.68665 115.239121,250.833311 Z" id="Path" fill="#D04524"></path>
            <path d="M195.85507,141 C195.537145,140.276794 195.294436,139.314191 195,138.097109 C195.823471,137.7004 196.240607,138.49034 195.85507,141 Z" id="Path" fill="#D04524"></path>
            <path d="M130,183.990178 C130.187061,183.650732 130.522494,183.334393 130.987236,183 C131.070599,183.722555 130.746099,184.0638 130,183.990178 Z" id="Path" fill="#D04524"></path>
            <path d="M124,200.251986 C123.981363,200.552733 123.840929,200.732976 123.545032,201 C123.250259,200.812731 122.941857,200.493952 123.009407,200.274561 C123.124445,199.900844 123.532874,199.92364 124,200.251986 Z" id="Path" fill="#D04524"></path>
            <path d="M141.926052,189.043426 C142.100947,189.371917 141.961192,189.628203 141.553619,189.956573 C140.65481,189.443664 140.901245,189.139312 141.926052,189.043426 Z" id="Path" fill="#D04524"></path>
            <path d="M161,166 C161.104144,165.675775 161.441803,165.352193 162,165 C161.89153,165.314464 161.562522,165.657541 161,166 Z" id="Path" fill="#D04524"></path>
            <path d="M144,175 C144.106431,174.67652 144.440806,174.344474 145,174 C144.892528,174.322174 144.560258,174.656804 144,175 Z" id="Path" fill="#D04524"></path>
            <path d="M141.800011,189.410801 C141.889367,189.568637 141.422417,189.617252 141.188775,189.597293 C141.206963,189.469242 141.458794,189.361118 141.800011,189.410801 Z" id="Path" fill="#D04524"></path>
            <path d="M127.140878,185.902237 C127.098672,185.6436 127.340981,185.384385 127.859597,185.097763 C127.899056,185.347488 127.66221,185.624557 127.140878,185.902237 Z" id="Path" fill="#D04524"></path>
            <path d="M161.118068,166.879989 C161.092921,166.633194 161.349971,166.388107 161.882197,166.12001 C161.904994,166.358566 161.652644,166.620101 161.118068,166.879989 Z" id="Path" fill="#D04524"></path>
            <path d="M97.214637,178.815674 C97.130439,178.585114 97.320594,178.396637 97.750342,178.184326 C97.903571,178.435883 97.736609,178.668305 97.214637,178.815674 Z" id="Path" fill="#FCEFD7"></path>
            <path d="M196.360018,143.831996 C196.208254,143.71902 196.219729,143.552119 196.35953,143.169581 C196.579561,143.148738 196.692415,143.337733 196.748659,143.542292 C196.76343,143.596186 196.603121,143.698176 196.360018,143.831996 Z" id="Path" fill="#D04524"></path>
            <path d="M116.188473,191.927567 C116.138577,191.723252 116.338071,191.426987 116.809842,191.072434 C116.867398,191.287979 116.652615,191.561814 116.188473,191.927567 Z" id="Path" fill="#D04524"></path>
            <path d="M123.554873,200.168362 C123.690158,200.240902 123.688815,200.410152 123.649539,200.829922 C123.272341,200.855923 123.207919,200.584103 123.554873,200.168362 Z" id="Path" fill="#D04524"></path>
            <path d="M82.3084816,116 C88.0033156,117.438715 92.4855862,121.130981 97.4617345,123.913369 C102.21698,126.572224 102.140267,126.694505 97.4661081,129.376314 C93.8749846,131.436731 90.3028397,133.529575 86.7029691,135.574849 C85.5163931,136.248982 84.3749003,137.09794 82.6386835,136.990783 C78.0941298,133.535478 73.1016196,131.166264 68.441479,128.279034 C65.202074,126.272012 65.1660509,125.995295 68.4542088,124.108103 C73.0401164,121.476023 77.6272933,118.846085 82.3084816,116 Z" id="Path" fill="#1B0C04"></path>
            <path d="M358.266134,136.017178 C356.389556,137.370207 354.863052,137.245381 353.061992,136.136049 C348.242545,133.167596 343.324724,130.350563 338.399125,127.553064 C336.639791,126.553816 336.476794,125.690819 338.26921,124.653998 C343.450139,121.657126 348.642912,118.68006 353.815711,115.669727 C355.35986,114.771076 356.826873,114.779302 358.368219,115.679271 C363.537386,118.697519 368.727593,121.680831 373.905364,124.684918 C375.967678,125.881444 374.699822,126.608693 373.49268,127.303315 C368.492986,130.180327 363.486975,133.04661 358.266134,136.017178 Z" id="Path" fill="#D7421F"></path>
            <path d="M93.271172,217.463089 C96.5674315,215.192096 97.965475,215.468581 101.507265,218.971082 C102.369755,220.474729 102.755768,222.017452 102.985742,223.860835 C103.016928,238.57868 102.991431,253.062222 102.962064,267.545724 C102.956986,270.050612 103.478315,273.040328 100.428775,273.849796 C97.5839448,274.604899 95.9552976,272.387748 94.6493548,269.999313 C93.7429124,268.341533 93.0003069,266.595899 93,264.650809 C92.9981822,249.214687 93.0335818,233.778527 93.0581964,218.045005 C93.0588802,217.747606 93.2526075,217.591785 93.271172,217.463089 Z" id="Path" fill="#151007"></path>
            <path d="M386.016927,282.379848 C382.821485,286.870622 382.821485,286.870622 378.158267,284.091372 C374.184467,281.722962 374.162653,281.706383 376.964699,277.830815 C378.903418,275.149391 380.961251,272.55762 382.87527,269.858466 C384.434836,267.65919 386.245072,267.635281 388.500914,268.633234 C394.052646,271.089185 394.084505,271.041404 390.675985,275.898078 C389.189994,278.015415 387.659063,280.099709 386.016927,282.379848 Z" id="Path" fill="#1B0C04"></path>
            <path d="M273.668376,350.415929 C273.474629,350.700072 273.411247,350.788611 273.349628,350.878582 C269.082436,357.10679 268.362819,357.257858 262.102896,353.46233 C260.938841,352.756634 260.670829,351.935858 261.420373,350.757735 C264.171194,346.433875 266.780268,341.995508 269.728975,337.83106 C271.71205,335.030442 278.503207,335.608789 280.665965,338.436766 C281.451799,339.46427 280.665352,340.04687 280.201906,340.735021 C278.070763,343.899284 275.934177,347.059334 273.668376,350.415929 Z" id="Path" fill="#1B0C04"></path>
            <path d="M323.121277,277.20692 C323.307617,277.124278 323.560119,277.319652 323.878723,277.793223 C323.692566,277.875499 323.440124,277.680064 323.121277,277.20692 Z" id="Path" fill="#CA3C1E"></path>
            <path d="M192.299382,54.9415214 C189.581717,52.1555979 191.654279,50.5620755 193.719553,49.4728465 C199.797992,46.2671306 205.486963,42.4370277 211.422539,39.0091781 C213.795445,37.6388045 216.258356,36.4210604 218.884687,35 C226.724051,39.2253551 234.382389,43.55189 241.514413,48.7023279 C242.588301,49.4778457 243.862365,49.5761149 245.09684,50.3713195 C245.363143,50.6163591 245.483202,50.6829616 245.751302,50.8920413 C245.899305,51.034528 245.900946,51.0412287 245.904503,51.0413256 C246.039725,51.1911035 246.181826,51.3303413 246.439336,51.5653446 C247.17673,52.1692317 247.121664,52.7782055 246.650299,53.4986659 C246.278398,53.9628514 246.016354,54.2920721 245.445449,54.5940061 C245.238746,54.6512098 245.273684,54.7764855 245.215609,54.8068854 C245.086327,54.9429909 245.01512,55.0487345 244.787156,55.2652885 C244.309851,55.5957468 243.989303,55.8154148 243.473658,56.0686734 C242.847413,56.5090525 242.264157,56.6528737 241.589372,57.0721352 C241.406196,57.189076 241.183156,57.3779176 241.038163,57.4004668 C240.703428,57.5076222 240.533345,57.6211202 240.249533,57.840401 C233.749109,61.7160946 227.368509,65.4927744 221.024373,69.3285526 C219.348743,70.3416648 217.916984,70.1442367 216.287179,69.1650059 C208.381786,64.4153035 200.42713,59.7458945 192.299382,54.9415214 Z" id="Path" fill="#FBEFD8"></path>
            <path d="M242.001998,57 C241.968746,56.2489598 242.352526,56.0106849 243,56 C242.802098,56.3296095 242.465282,56.6577961 242.001998,57 Z" id="Path" fill="#F6E4CC"></path>
            <path d="M246,55 C246.162892,54.750229 246.497164,54.4105969 247,54 C246.999446,54.4140304 246.797996,54.8677892 246,55 Z" id="Path" fill="#F6E4CC"></path>
            <path d="M246.917724,51.7380365 C246.647094,51.8953235 246.38745,51.7091205 246.082276,51.2189625 C246.272277,51.1609335 246.569519,51.3207695 246.917724,51.7380365 Z" id="Path" fill="#F6E4CC"></path>
            <path d="M245.902039,51.7085337 C245.696411,51.8668437 245.440613,51.7304767 245.097961,51.3375627 C245.311401,51.1140517 245.591675,51.2249987 245.902039,51.7085337 Z" id="Path" fill="#F6E4CC"></path>
            <path d="M239.150692,58.845886 C239.065609,58.575714 239.308346,58.354614 239.865658,58.154114 C239.874508,58.335846 239.640499,58.575958 239.150692,58.845886 Z" id="Path" fill="#F6E4CC"></path>
            <path d="M245.250934,55.856613 C245.11391,55.630813 245.26955,55.412399 245.669269,55.143387 C245.92641,55.399917 245.80318,55.656967 245.250934,55.856613 Z" id="Path" fill="#F6E4CC"></path>
            <path d="M168.177711,353.509643 C166.253445,350.703598 164.491423,348.066105 162.652874,345.478953 C161.672372,344.099296 161.70309,343.298506 163.387568,342.300541 C168.944997,339.007982 168.897534,338.920808 172.516125,344.204311 C174.487834,347.083218 176.407794,349.995238 178.405478,352.857186 C179.435975,354.333493 179.126716,355.17975 177.478638,356.037133 C171.865932,358.956826 171.895474,359.00943 168.177711,353.509643 Z" id="Path" fill="#E8734E"></path>
            <path d="M60.5816905,280.043056 C61.2170632,281.010027 61.7418148,281.780308 62.240813,282.566009 C64.8570794,286.685587 64.7864957,286.578326 60.4512939,289.15146 C58.2787146,290.44093 56.9724154,290.384226 55.6345986,288.119982 C53.4293768,284.387712 51.0137423,280.76949 48.5986604,277.158884 C47.5271111,275.556868 47.9118686,274.787491 49.6098245,273.884086 C54.7825641,271.131793 54.7380632,271.053449 57.9219134,275.954205 C58.7667091,277.254571 59.6133872,278.553767 60.5816905,280.043056 Z" id="Path" fill="#E16B48"></path>
            <path d="M224.956428,208.794488 C221.061499,212.353239 217.568773,211.115228 214.0778,208.530786 C212.344239,207.247417 208.972036,206.715325 209,204.942363 C209.02691,203.258152 212.435377,202.658786 214.097851,201.294784 C218.445705,197.727534 222.225897,198.665195 226.453734,201.740507 C231.076445,205.103115 231.274156,204.842291 226.490096,207.830661 C226.043503,208.109629 225.603654,208.398773 224.956428,208.794488 Z" id="Path" fill="#E1A568"></path>
            <path d="M223.820561,182.095765 C224.356641,182.579415 225.021979,182.973247 224.999443,183.311946 C224.908042,184.686135 220.244839,187.633439 219.159985,186.878124 C217.609729,185.798832 215.047721,185.218948 215.000152,183.203284 C214.976765,182.212692 217.664273,180.88393 219.294052,180.179078 C221.009088,179.437347 222.240923,181.181386 223.820561,182.095765 Z" id="Path" fill="#DFA36A"></path>
            <path d="M206.086304,53.0177289 C205.415633,52.5283196 204.309524,52.2607894 205.58821,51.4815228 C209.535772,49.0757248 213.482659,46.6687137 217.422846,44.2505394 C218.311564,43.705137 219.022067,44.1558218 219.746588,44.6007532 C223.762811,47.0672994 227.778029,49.5354595 232,52.1298808 C227.668551,54.7013197 223.519064,57.1000536 219.442522,59.6199115 C218.013445,60.5032789 216.986944,59.6492045 215.971255,59.0535426 C212.704847,57.1379169 209.511888,55.093614 206.086304,53.0177289 Z" id="Path" fill="#151007"></path>
        </g>
    </g>
</svg>