<?xml version="1.0" encoding="UTF-8"?>
<svg width="128px" height="128px" viewBox="0 0 128 128" version="1.1" xmlns="http://www.w3.org/2000/svg" xmlns:xlink="http://www.w3.org/1999/xlink">
    <!-- Generator: Sketch 61 (89581) - https://sketch.com -->
    <title>bento-box copy</title>
    <desc>Created with Sketch.</desc>
    <g id="bento-box-copy" stroke="none" stroke-width="1" fill="none" fill-rule="evenodd">
        <path d="M75.4630876,7.55573445 L117.176176,39.8371529 C122.012403,43.5798698 124.465745,49.6317334 123.600909,55.6855822 L123,59.8919466 L123,59.8919466 C123.666667,70.5586133 123,77.2252799 121,79.8919466 C119.226933,82.2560364 105.140774,95.3613333 78.7415249,119.207837 L78.7415262,119.207839 C72.5538086,124.797218 63.2255761,125.073648 56.7177399,119.860483 C30.3510383,98.7391851 15.1117917,86.4163395 11,82.8919466 C4,76.8919466 5,73.8919466 5,65.8919466 C5,62.6942119 4.88016984,59.0171566 4.64050952,54.8607806 C4.31409485,49.1998374 6.83165377,43.7488229 11.3530314,40.3268398 L54.7993917,7.44466928 C60.9219567,2.81083515 69.3906876,2.85635368 75.4630876,7.55573445 Z M72.3447387,9.40927518 L112.42794,40.3008561 C117.677294,44.3464626 118.653125,51.8815174 114.607518,57.130872 C114.008084,57.9086645 113.315446,58.6099383 112.54514,59.2189631 L72.1758083,91.1360555 C67.8812945,94.5314149 61.8332018,94.5897666 57.4739771,91.2778978 L15.7413885,59.5720638 C10.4642237,55.5628011 9.43638598,48.0346642 13.4456487,42.7574994 C14.1337467,41.851795 14.9471201,41.0485224 15.8613519,40.3717954 L57.880071,9.26895616 C62.1911512,6.07783477 68.0963769,6.13512025 72.3447387,9.40927518 Z M69.3373099,55.1204171 C66.5061673,52.9365385 62.569616,52.8965174 59.6946582,55.0223847 L59.6946582,55.0223847 L46.4148238,64.8420648 C45.8050198,65.29298 45.2624333,65.8283174 44.8033573,66.4320016 C42.1289122,69.9488928 42.8118497,74.9679626 46.3287409,77.6424077 L46.3287409,77.6424077 L59.5624516,87.7060778 C62.4677423,89.9154269 66.5000599,89.8782359 69.3641052,87.615675 L69.3641052,87.615675 L82.1214871,77.5374984 C82.635101,77.1317497 83.0969779,76.6645009 83.4967605,76.1462296 C86.195347,72.6478284 85.5469692,67.6241772 82.048568,64.9255906 L82.048568,64.9255906 Z M42.0444167,32.8275239 C39.2132741,30.6436453 35.2767228,30.6036242 32.401765,32.7294915 L32.401765,32.7294915 L19.1219305,42.5491715 C18.5121266,43.0000868 17.9695401,43.5354242 17.5104641,44.1391084 C14.836019,47.6559996 15.5189565,52.6750694 19.0358477,55.3495145 L19.0358477,55.3495145 L32.2695584,65.4131845 C35.1748491,67.6225337 39.2071667,67.5853427 42.071212,65.3227818 L42.071212,65.3227818 L54.8285939,55.2446052 C55.3422078,54.8388565 55.8040846,54.3716076 56.2038672,53.8533364 C58.9024538,50.3549352 58.254076,45.331284 54.7556748,42.6326974 L54.7556748,42.6326974 Z M97.3223638,33.7756544 C94.4912212,31.5917758 90.5546699,31.5517547 87.6797121,33.677622 L87.6797121,33.677622 L75.1219305,42.9633851 C74.5121266,43.4143003 73.9695401,43.9496377 73.5104641,44.553322 C70.836019,48.0702132 71.5189565,53.0892829 75.0358477,55.7637281 L75.0358477,55.7637281 L87.5489836,65.2794319 C90.4542743,67.488781 94.4865919,67.4515901 97.3506373,65.1890291 L97.3506373,65.1890291 L109.41438,55.6588187 C109.927994,55.25307 110.389871,54.7858212 110.789654,54.2675499 C113.48824,50.7691487 112.839862,45.7454976 109.341461,43.046911 L109.341461,43.046911 Z M70.3373099,11.5346307 C67.5061673,9.3507521 63.569616,9.310731 60.6946582,11.4365983 L60.6946582,11.4365983 L47.4148238,21.2562783 C46.8050198,21.7071936 46.2624333,22.242531 45.8033573,22.8462152 C43.1289122,26.3631064 43.8118497,31.3821762 47.3287409,34.0566213 L47.3287409,34.0566213 L60.5624516,44.1202913 C63.4677423,46.3296405 67.5000599,46.2924495 70.3641052,44.0298885 L70.3641052,44.0298885 L83.1214871,33.951712 C83.635101,33.5459632 84.0969779,33.0787144 84.4967605,32.5604431 C87.195347,29.062042 86.5469692,24.0383908 83.048568,21.3398042 L83.048568,21.3398042 Z" id="Rectangle-2" fill="#000000"></path>
    </g>
</svg>