<?xml version="1.0" encoding="UTF-8"?>
<svg width="700pt" height="700pt" version="1.1" viewBox="0 0 700 700" xmlns="http://www.w3.org/2000/svg" xmlns:xlink="http://www.w3.org/1999/xlink">
 <defs>
  <symbol id="t" overflow="visible">
   <path d="m20.844-1.25c-1.0742 0.5625-2.1953 0.98438-3.3594 1.2656-1.168 0.28125-2.3828 0.42188-3.6406 0.42188-3.7812 0-6.7773-1.0508-8.9844-3.1562-2.2109-2.1133-3.3125-4.9766-3.3125-8.5938 0-3.625 1.1016-6.4922 3.3125-8.6094 2.207-2.1133 5.2031-3.1719 8.9844-3.1719 1.2578 0 2.4727 0.14844 3.6406 0.4375 1.1641 0.28125 2.2852 0.69922 3.3594 1.25v4.7031c-1.0859-0.73828-2.1523-1.2812-3.2031-1.625-1.0547-0.34375-2.1641-0.51562-3.3281-0.51562-2.0859 0-3.7266 0.66797-4.9219 2-1.1992 1.3359-1.7969 3.1797-1.7969 5.5312 0 2.3359 0.59766 4.1719 1.7969 5.5156 1.1953 1.3359 2.8359 2 4.9219 2 1.1641 0 2.2734-0.17188 3.3281-0.51562 1.0508-0.34375 2.1172-0.88281 3.2031-1.625z"/>
  </symbol>
  <symbol id="c" overflow="visible">
   <path d="m15.25-12.375c-0.48047-0.22656-0.95312-0.39453-1.4219-0.5-0.46875-0.10156-0.94531-0.15625-1.4219-0.15625-1.3984 0-2.4766 0.44922-3.2344 1.3438-0.75 0.89844-1.125 2.1797-1.125 3.8438v7.8438h-5.4375v-17.016h5.4375v2.7969c0.69531-1.1133 1.5-1.9258 2.4062-2.4375 0.90625-0.50781 1.9922-0.76562 3.2656-0.76562 0.17578 0 0.36719 0.011719 0.57812 0.03125 0.21875 0.011719 0.53125 0.042969 0.9375 0.09375z"/>
  </symbol>
  <symbol id="a" overflow="visible">
   <path d="m19.594-8.5469v1.5469h-12.719c0.13281 1.2734 0.59766 2.2305 1.3906 2.875 0.78906 0.63672 1.8945 0.95312 3.3125 0.95312 1.1445 0 2.3164-0.16406 3.5156-0.5 1.1953-0.34375 2.4297-0.85938 3.7031-1.5469v4.1875c-1.293 0.49219-2.5859 0.85547-3.875 1.0938-1.2812 0.25-2.5625 0.375-3.8438 0.375-3.0859 0-5.4805-0.78125-7.1875-2.3438-1.6992-1.5625-2.5469-3.7539-2.5469-6.5781 0-2.7812 0.83203-4.9609 2.5-6.5469 1.6758-1.5938 3.9844-2.3906 6.9219-2.3906 2.6758 0 4.8164 0.80859 6.4219 2.4219 1.6016 1.6055 2.4062 3.7578 2.4062 6.4531zm-5.5938-1.8125c0-1.0312-0.30469-1.8633-0.90625-2.5-0.59375-0.63281-1.3828-0.95312-2.3594-0.95312-1.0547 0-1.9062 0.29688-2.5625 0.89062s-1.0703 1.4492-1.2344 2.5625z"/>
  </symbol>
  <symbol id="i" overflow="visible">
   <path d="m10.234-7.6562c-1.1367 0-1.9922 0.19531-2.5625 0.57812-0.5625 0.38672-0.84375 0.95312-0.84375 1.7031 0 0.6875 0.22656 1.2305 0.6875 1.625 0.45703 0.38672 1.0977 0.57812 1.9219 0.57812 1.0195 0 1.8789-0.36328 2.5781-1.0938 0.69531-0.73828 1.0469-1.6602 1.0469-2.7656v-0.625zm8.3125-2.0469v9.7031h-5.4844v-2.5156c-0.73047 1.0312-1.5547 1.7812-2.4688 2.25-0.90625 0.46875-2.0117 0.70312-3.3125 0.70312-1.7617 0-3.1953-0.50781-4.2969-1.5312-1.0938-1.0312-1.6406-2.3672-1.6406-4.0156 0-1.9883 0.67969-3.4453 2.0469-4.375 1.375-0.9375 3.5312-1.4062 6.4688-1.4062h3.2031v-0.42188c0-0.86328-0.33984-1.4922-1.0156-1.8906-0.67969-0.40625-1.7344-0.60938-3.1719-0.60938-1.168 0-2.2578 0.12109-3.2656 0.35938-1 0.23047-1.9297 0.57812-2.7812 1.0469v-4.1562c1.1641-0.28125 2.332-0.49219 3.5-0.64062 1.1758-0.14453 2.3516-0.21875 3.5312-0.21875 3.0703 0 5.2852 0.60547 6.6406 1.8125 1.3633 1.2109 2.0469 3.1797 2.0469 5.9062z"/>
  </symbol>
  <symbol id="b" overflow="visible">
   <path d="m8.5469-21.844v4.8281h5.6094v3.8906h-5.6094v7.2188c0 0.79297 0.15625 1.3281 0.46875 1.6094 0.32031 0.27344 0.94531 0.40625 1.875 0.40625h2.7969v3.8906h-4.6719c-2.1484 0-3.668-0.44531-4.5625-1.3438-0.89844-0.89453-1.3438-2.4141-1.3438-4.5625v-7.2188h-2.7031v-3.8906h2.7031v-4.8281z"/>
  </symbol>
  <symbol id="h" overflow="visible">
   <path d="m14.188-14.516v-9.125h5.4688v23.641h-5.4688v-2.4531c-0.75 1-1.5781 1.7344-2.4844 2.2031-0.89844 0.45703-1.9375 0.6875-3.125 0.6875-2.0938 0-3.8203-0.83203-5.1719-2.5-1.3438-1.6641-2.0156-3.8047-2.0156-6.4219 0-2.625 0.67188-4.7695 2.0156-6.4375 1.3516-1.6641 3.0781-2.5 5.1719-2.5 1.1758 0 2.2188 0.23438 3.125 0.70312s1.7344 1.2031 2.4844 2.2031zm-3.5781 11c1.1562 0 2.0391-0.42188 2.6562-1.2656 0.61328-0.85156 0.92188-2.0859 0.92188-3.7031 0-1.625-0.30859-2.8594-0.92188-3.7031-0.61719-0.85156-1.5-1.2812-2.6562-1.2812s-2.043 0.42969-2.6562 1.2812c-0.61719 0.84375-0.92188 2.0781-0.92188 3.7031 0 1.6172 0.30469 2.8516 0.92188 3.7031 0.61328 0.84375 1.5 1.2656 2.6562 1.2656z"/>
  </symbol>
  <symbol id="g" overflow="visible">
   <path d="m11.672-3.5156c1.1562 0 2.0391-0.42188 2.6562-1.2656 0.61328-0.85156 0.92188-2.0859 0.92188-3.7031 0-1.625-0.30859-2.8594-0.92188-3.7031-0.61719-0.85156-1.5-1.2812-2.6562-1.2812-1.168 0-2.0625 0.42969-2.6875 1.2812-0.625 0.85547-0.9375 2.0898-0.9375 3.7031 0 1.6055 0.3125 2.8359 0.9375 3.6875 0.625 0.85547 1.5195 1.2812 2.6875 1.2812zm-3.625-11c0.75-1 1.5781-1.7344 2.4844-2.2031 0.91406-0.46875 1.9688-0.70312 3.1562-0.70312 2.0938 0 3.8125 0.83594 5.1562 2.5 1.3516 1.668 2.0312 3.8125 2.0312 6.4375 0 2.6172-0.67969 4.7578-2.0312 6.4219-1.3438 1.668-3.0625 2.5-5.1562 2.5-1.1875 0-2.2422-0.23438-3.1562-0.70312-0.90625-0.46875-1.7344-1.1953-2.4844-2.1875v2.4531h-5.4375v-23.641h5.4375z"/>
  </symbol>
  <symbol id="f" overflow="visible">
   <path d="m0.375-17.016h5.4375l4.5781 11.547 3.8906-11.547h5.4375l-7.1562 18.625c-0.71875 1.8945-1.5586 3.2188-2.5156 3.9688-0.96094 0.75781-2.2188 1.1406-3.7812 1.1406h-3.1562v-3.5781h1.7031c0.92578 0 1.5977-0.14844 2.0156-0.4375 0.41406-0.29297 0.74219-0.82031 0.98438-1.5781l0.14062-0.46875z"/>
  </symbol>
  <symbol id="e" overflow="visible">
   <path d="m2.8594-22.672h7.4375l5.1719 12.125 5.1875-12.125h7.4375v22.672h-5.5312v-16.594l-5.2344 12.234h-3.7031l-5.2188-12.234v16.594h-5.5469z"/>
  </symbol>
  <symbol id="s" overflow="visible">
   <path d="m2.8594-22.672h15.781v4.4062h-9.9375v4.2344h9.3438v4.4219h-9.3438v5.1875h10.266v4.4219h-16.109z"/>
  </symbol>
  <symbol id="r" overflow="visible">
   <path d="m13.812-23.641v3.5781h-3.0156c-0.77344 0-1.3086 0.14062-1.6094 0.42188-0.30469 0.27344-0.45312 0.75-0.45312 1.4375v1.1875h4.6406v3.8906h-4.6406v13.125h-5.4375v-13.125h-2.7031v-3.8906h2.7031v-1.1875c0-1.8516 0.51562-3.2227 1.5469-4.1094 1.0312-0.88281 2.6289-1.3281 4.7969-1.3281z"/>
  </symbol>
  <symbol id="d" overflow="visible">
   <path d="m10.703-13.531c-1.1992 0-2.1172 0.43359-2.75 1.2969-0.63672 0.86719-0.95312 2.1172-0.95312 3.75 0 1.625 0.31641 2.8711 0.95312 3.7344 0.63281 0.86719 1.5508 1.2969 2.75 1.2969 1.1875 0 2.0938-0.42969 2.7188-1.2969 0.63281-0.86328 0.95312-2.1094 0.95312-3.7344 0-1.6328-0.32031-2.8828-0.95312-3.75-0.625-0.86328-1.5312-1.2969-2.7188-1.2969zm0-3.8906c2.9258 0 5.2109 0.79297 6.8594 2.375 1.6445 1.5742 2.4688 3.7617 2.4688 6.5625 0 2.793-0.82422 4.9805-2.4688 6.5625-1.6484 1.5742-3.9336 2.3594-6.8594 2.3594-2.9375 0-5.2344-0.78516-6.8906-2.3594-1.6484-1.582-2.4688-3.7695-2.4688-6.5625 0-2.8008 0.82031-4.9883 2.4688-6.5625 1.6562-1.582 3.9531-2.375 6.8906-2.375z"/>
  </symbol>
  <symbol id="q" overflow="visible">
   <path d="m18.375-14.188c0.6875-1.0508 1.5039-1.8516 2.4531-2.4062 0.94531-0.55078 1.9883-0.82812 3.125-0.82812 1.957 0 3.4453 0.60547 4.4688 1.8125 1.0195 1.1992 1.5312 2.9492 1.5312 5.25v10.359h-5.4688v-8.875c0.007813-0.125 0.015625-0.25781 0.015625-0.40625 0.007812-0.14453 0.015625-0.34766 0.015625-0.60938 0-1.207-0.17969-2.082-0.53125-2.625-0.35547-0.53906-0.92969-0.8125-1.7188-0.8125-1.0312 0-1.8281 0.42969-2.3906 1.2812-0.5625 0.85547-0.85547 2.0859-0.875 3.6875v8.3594h-5.4688v-8.875c0-1.8828-0.16406-3.0977-0.48438-3.6406-0.32422-0.53906-0.90234-0.8125-1.7344-0.8125-1.043 0-1.8516 0.43359-2.4219 1.2969-0.5625 0.85547-0.84375 2.0742-0.84375 3.6562v8.375h-5.4688v-17.016h5.4688v2.5c0.66406-0.96875 1.4297-1.6914 2.2969-2.1719 0.875-0.48828 1.832-0.73438 2.875-0.73438 1.1758 0 2.2109 0.28906 3.1094 0.85938 0.90625 0.5625 1.5859 1.3555 2.0469 2.375z"/>
  </symbol>
  <symbol id="p" overflow="visible">
   <path d="m19.719-10.359v10.359h-5.4688v-7.9062c0-1.4766-0.039062-2.4922-0.10938-3.0469-0.0625-0.5625-0.17188-0.97656-0.32812-1.25-0.21875-0.35156-0.51172-0.62891-0.875-0.82812-0.36719-0.19531-0.77734-0.29688-1.2344-0.29688-1.1367 0-2.0312 0.44531-2.6875 1.3281-0.64844 0.875-0.96875 2.0859-0.96875 3.625v8.375h-5.4375v-23.641h5.4375v9.125c0.82031-1 1.6914-1.7344 2.6094-2.2031 0.92578-0.46875 1.9453-0.70312 3.0625-0.70312 1.957 0 3.4453 0.60547 4.4688 1.8125 1.0195 1.1992 1.5312 2.9492 1.5312 5.25z"/>
  </symbol>
  <symbol id="o" overflow="visible">
   <path d="m2.8594-22.672h6.5312l8.25 15.547v-15.547h5.5469v22.672h-6.5469l-8.2344-15.562v15.562h-5.5469z"/>
  </symbol>
  <symbol id="n" overflow="visible">
   <path d="m2.4375-6.625v-10.391h5.4688v1.7031c0 0.92969-0.007812 2.0898-0.015625 3.4844-0.011719 1.3867-0.015625 2.3125-0.015625 2.7812 0 1.3672 0.03125 2.3516 0.09375 2.9531 0.070312 0.60547 0.19531 1.043 0.375 1.3125 0.21875 0.35547 0.50391 0.63281 0.85938 0.82812 0.36328 0.1875 0.78125 0.28125 1.25 0.28125 1.1328 0 2.0234-0.42969 2.6719-1.2969 0.64453-0.875 0.96875-2.0859 0.96875-3.6406v-8.4062h5.4375v17.016h-5.4375v-2.4531c-0.82422 0.99219-1.6953 1.7188-2.6094 2.1875-0.91797 0.46875-1.9297 0.70312-3.0312 0.70312-1.9609 0-3.4531-0.59766-4.4844-1.7969-1.0234-1.207-1.5312-2.9609-1.5312-5.2656z"/>
  </symbol>
  <symbol id="m" overflow="visible">
   <path d="m19.719-10.359v10.359h-5.4688v-7.9219c0-1.4688-0.039062-2.4766-0.10938-3.0312-0.0625-0.5625-0.17188-0.97656-0.32812-1.25-0.21875-0.35156-0.51172-0.62891-0.875-0.82812-0.36719-0.19531-0.77734-0.29688-1.2344-0.29688-1.1367 0-2.0312 0.44531-2.6875 1.3281-0.64844 0.875-0.96875 2.0859-0.96875 3.625v8.375h-5.4375v-17.016h5.4375v2.5c0.82031-1 1.6914-1.7344 2.6094-2.2031 0.92578-0.46875 1.9453-0.70312 3.0625-0.70312 1.957 0 3.4453 0.60547 4.4688 1.8125 1.0195 1.1992 1.5312 2.9492 1.5312 5.25z"/>
  </symbol>
  <symbol id="l" overflow="visible">
   <path d="m2.8594-22.672h9.7031c2.8828 0 5.0977 0.64062 6.6406 1.9219 1.5508 1.2812 2.3281 3.1055 2.3281 5.4688 0 2.375-0.77734 4.2031-2.3281 5.4844-1.543 1.2812-3.7578 1.9219-6.6406 1.9219h-3.8594v7.875h-5.8438zm5.8438 4.2344v6.3281h3.2344c1.1328 0 2.0078-0.27344 2.625-0.82812 0.625-0.55078 0.9375-1.332 0.9375-2.3438 0-1.0078-0.3125-1.7852-0.9375-2.3281-0.61719-0.55078-1.4922-0.82812-2.625-0.82812z"/>
  </symbol>
  <symbol id="k" overflow="visible">
   <path d="m2.6094-17.016h5.4375v16.719c0 2.2695-0.54688 4.0039-1.6406 5.2031-1.0938 1.207-2.6797 1.8125-4.75 1.8125h-2.6875v-3.5781h0.9375c1.0312 0 1.7383-0.23438 2.125-0.70312 0.38281-0.46094 0.57812-1.3711 0.57812-2.7344zm0-6.625h5.4375v4.4375h-5.4375z"/>
  </symbol>
  <symbol id="j" overflow="visible">
   <path d="m16.359-16.484v4.4375c-0.74219-0.50781-1.4844-0.88281-2.2344-1.125-0.74219-0.23828-1.5117-0.35938-2.3125-0.35938-1.5117 0-2.6953 0.44531-3.5469 1.3281-0.84375 0.88672-1.2656 2.125-1.2656 3.7188 0 1.5859 0.42188 2.8203 1.2656 3.7031 0.85156 0.88672 2.0352 1.3281 3.5469 1.3281 0.85156 0 1.6602-0.125 2.4219-0.375 0.76953-0.25 1.4766-0.625 2.125-1.125v4.4531c-0.85547 0.3125-1.7188 0.54688-2.5938 0.70312s-1.75 0.23438-2.625 0.23438c-3.0742 0-5.4766-0.78516-7.2031-2.3594-1.7305-1.5703-2.5938-3.7578-2.5938-6.5625 0-2.8125 0.86328-5.0039 2.5938-6.5781 1.7266-1.5703 4.1289-2.3594 7.2031-2.3594 0.88281 0 1.7578 0.078125 2.625 0.23438 0.86328 0.15625 1.7266 0.39062 2.5938 0.70312z"/>
  </symbol>
 </defs>
 <path transform="matrix(6.2222 0 0 6.2222 70 0)" d="m17.667 5.5001h54.333c6.6276 0 12 6.6276 12 12v54.333c0 6.6276-5.3726 12-12 12h-54.333c-6.6276 0-12-6.6276-12-12v-54.333c0-6.6276 5.3726-12 12-12z" fill="none" stroke="#fff" stroke-miterlimit="10" stroke-width=".5"/>
 <path transform="matrix(6.2222 0 0 6.2222 70 0)" d="m8.1167 67.5c-0.42313-0.32708-0.22098-37.109 0.31201-37.149 0.14628-0.0113 0.27309-10.54 0.36726-10.634 0.068429-2.7868 1.1777-5.4467 3.1088-7.4575 1.9311-2.0102 4.5446-3.225 7.3263-3.4058-0.1513-0.5129 14.391-0.94231 14.846-0.66106 0.31578 0.19524 11.059 0.048967 11.184-0.30008 0.18018-0.49972 14.923-0.51981 15.126-0.025111 0.11175 0.27309 8.624 0.38107 8.9002 0.3478l-6.28e-4 6.28e-4c0.79039-0.056501 1.5839-0.008789 2.3611 0.14188 2.5444 0.37918 4.8635 1.6718 6.524 3.6368s2.5482 4.4674 2.4974 7.0394c-0.087891 0.36098 0.17892 11.67 0.54994 11.681 0.53488 0.015067 0.76904 15.559 0.36098 15.9-0.28313 0.23982-0.27309 11.646 0.020717 11.872 0.28 0.21596 0.28627 10.356 0.099819 10.593h6.28e-4c-0.084124 1.8388-0.66671 3.6205-1.685 5.1542-2.1395 3.3229-5.6194 5.5497-9.533 6.0996 0.1513 0.5129-10.8 0.94231-11.255 0.66106-0.31578-0.19524-8.4092-0.048968-8.5342 0.30008-0.18018 0.49972-11.287 0.51981-11.491 0.025112-0.14125-0.34277-8.2768-0.47022-8.5838-0.2599-0.44196 0.30008-11.413-0.099819-11.286-0.62026h-6.27e-4c-1.7735-0.47963-3.5081-1.0924-5.1887-1.8338-2.4013-1.0032-4.2081-3.0542-4.8999-5.5635-0.4225-1.6316-0.83433-3.6487-1.1275-5.5428z" fill="none" stroke="#fff" stroke-miterlimit="10" stroke-width=".5"/>
 <path transform="matrix(6.2222 0 0 6.2222 70 0)" d="m10.567 63.169c-0.84689-0.65416-0.44196-32.095 0.62528-32.176 0.2913-0.021973 0.54492-8.8688 0.73389-9.0571 0.2913-4.9997 4.2822-9.3001 8.87-9.7289-0.30008-1.0271 12.472-1.884 13.383-1.3221 0.63218 0.38986 10.069 0.099819 10.319-0.60017 0.35972-1.007 13.47-1.0402 13.876-0.050851 0.22412 0.54618 7.6503 0.76779 8.1952 0.69999l-6.28e-4 6.28e-4c0.732-0.064663 1.469-0.059013 2.1998 0.01695 2.4007 0.16762 4.6406 1.2681 6.2409 3.0655 1.5996 1.7974 2.4333 4.1497 2.3222 6.5535-0.17515 0.7207 0.35784 10.554 1.0999 10.575 1.0691 0.030761 1.5368 13.761 0.72196 14.454-0.56627 0.48089-0.54492 10.5 0.042062 10.952 0.55999 0.43192 0.57317 9.3133 0.2078 9.7872l6.27e-4 -6.28e-4c-0.1695 1.6706-0.8268 3.2545-1.8903 4.554-2.1998 2.7089-5.5277 5.2408-8.5461 5.9527 0.30008 1.0271-9.479 1.884-10.39 1.3221-0.63218-0.38986-7.8599-0.099819-8.1098 0.60017-0.35972 1.007-10.44 1.0402-10.847 0.050851-0.28188-0.6868-7.5542-0.93917-8.1669-0.51981-0.8833 0.60017-10.7-0.20026-10.451-1.2399h-6.28e-4c-1.5645-0.96742-3.2294-1.7616-4.9658-2.3699-1.248-0.41058-2.3442-1.1859-3.1465-2.2261-0.80232-1.0402-1.2738-2.2977-1.3535-3.6092-0.064662-1.9298-0.39111-3.8421-0.96994-5.684z" fill="none" stroke="#fff" stroke-miterlimit="10" stroke-width=".5"/>
 <path transform="matrix(6.2222 0 0 6.2222 70 0)" d="m13.016 58.837c-1.27-0.97998-0.66295-27.081 0.93729-27.2 0.43694-0.033273 0.81801-7.2001 1.0999-7.4801 0.43569-4.1999 3.7228-7.9453 7.2999-8.5938-0.45201-1.54 10.553-2.8251 11.919-1.9832 0.94796 0.5851 9.0791 0.14816 9.4533-0.90025 0.5399-1.5111 12.017-1.5607 12.626-0.075962 0.33587 0.81927 6.6772 1.1633 7.4933 1.0428l-0.001256 6.28e-4c0.67801-0.071568 1.3585-0.10798 2.0403-0.10861 2.2469-0.052106 4.4115 0.84877 5.9577 2.4798 1.5462 1.6316 2.3304 3.8408 2.1583 6.082-0.26304 1.0823 0.53676 9.4382 1.6511 9.4702 1.6002 0.045829 2.3059 11.964 1.0829 13-0.84877 0.7207-0.81801 9.3509 0.062779 10.031 0.83998 0.64914 0.85882 8.2699 0.31201 8.9812v-6.28e-4c-0.25739 1.508-0.99128 2.8935-2.0949 3.9532-2.2337 2.282-4.7787 4.237-7.5598 5.8071 0.45201 1.54-8.1588 2.8251-9.5248 1.9832-0.94796-0.5851-7.3119-0.14816-7.6873 0.90025-0.5399 1.5111-9.5933 1.5607-10.2 0.075962-0.42313-1.0302-6.831-1.4088-7.7507-0.77972-1.3253 0.90527-9.995-0.30008-9.6159-1.8589l-6.28e-4 -0.001255c-1.2506-1.4263-2.9042-2.4396-4.743-2.906-1.3221-0.32394-2.4754-1.13-3.2344-2.2594-0.75963-1.1294-1.0704-2.5017-0.872-3.8484 0.34466-1.9738 0.060896-4.0066-0.80985-5.8108z" fill="none" stroke="#fff" stroke-miterlimit="10" stroke-width=".5"/>
 <path transform="matrix(6.2222 0 0 6.2222 70 0)" d="m15.466 54.5c-1.6938-1.3071-0.8833-22.067 1.2499-22.229 0.58196-0.043945 1.0898-5.5277 1.4671-5.9 0.58071-3.407 3.1647-6.5943 5.7399-7.4581-0.60017-2.0529 8.6353-3.7667 10.456-2.6443 1.2637 0.77972 8.0891 0.20026 8.5882-1.1997 0.72008-2.0152 10.563-2.0811 11.376-0.099819 0.44824 1.0917 5.706 1.5657 6.7908 1.3912 0.64223-0.099819 1.2788-0.13874 1.8802-0.23479l-6.28e-4 -6.28e-4c2.0748-0.27183 4.1591 0.42501 5.6526 1.8909s2.2293 3.537 1.9957 5.6162c-0.35094 1.4433 0.71694 8.322 2.1998 8.3653 2.1389 0.062151 3.0743 10.167 1.4433 11.551-1.1319 0.96115-1.0911 8.2002 0.084751 9.1111 1.12 0.8651 1.1451 7.2271 0.41622 8.1751-0.34968 1.3529-1.1639 2.54-2.3002 3.353-2.2996 1.7572-4.4944 3.6475-6.573 5.6608 0.60017 2.0529-6.8391 3.7667-8.6597 2.6443-1.2637-0.77972-6.7632-0.20026-7.2629 1.1997-0.72008 2.0152-8.7457 2.0811-9.5587 0.099818-0.56376-1.3742-6.1078-1.8777-7.3338-1.0409-1.7672 1.2072-9.2863-0.3999-8.7803-2.4791h-6.28e-4c-0.84563-1.8231-2.5369-3.1113-4.5201-3.4415-3.112-0.55811-4.8459-4.0223-3.7109-6.3809 0.76151-1.97 0.52295-4.1867-0.63972-5.9496z" fill="none" stroke="#fff" stroke-miterlimit="10" stroke-width=".5"/>
 <path transform="matrix(6.2222 0 0 6.2222 70 0)" d="m17.916 50.172c-2.1169-1.6341-1.0999-17.053 1.5619-17.255 0.72824-0.055245 1.3629-3.8571 1.8338-4.3248h6.28e-4c0.71003-2.486 2.1671-4.694 4.1748-6.3231-0.75272-2.5658 6.7161-4.7091 8.9918-3.3003 1.5801 0.97496 7.1003 0.24609 7.7231-1.4998 0.90025-2.5187 9.1099-2.6003 10.126-0.12681 0.56124 1.3648 4.7373 1.9819 6.0889 1.7377 0.57945-0.087891 1.1532-0.20843 1.7189-0.36098 1.8815-0.49972 3.8885-0.016951 5.3381 1.2832 1.4489 1.3002 2.1452 3.2432 1.852 5.168-0.43882 1.7999 0.90025 7.2058 2.751 7.2598 2.6731 0.077218 3.8427 8.3697 1.7999 10.1-1.415 1.1997-1.3642 7.0557 0.1061 8.1902 1.4 1.0811 1.2537 6.067 0.51981 7.369-0.52672 1.1545-1.4019 2.115-2.503 2.746-2.3781 1.2298-4.3261 3.1528-5.5861 5.5151 0.75272 2.5658-5.5189 4.7091-7.8003 3.3003-1.5801-0.97496-6.2151-0.24609-6.8391 1.4998-0.90025 2.5187-7.9001 2.6003-8.914 0.12681-0.70501-1.717-5.3852-2.3479-6.917-1.3002-2.2079 1.5092-8.5769-0.49972-7.9453-3.1-0.11677-1.7999-1.9769-3.687-4.2997-3.977-3.3229-0.40806-5.0242-4.2727-3.316-6.6527h6.28e-4c0.57192-0.9329 0.83496-2.0221 0.75084-3.1132-0.083496-1.0905-0.50977-2.1276-1.2179-2.9619z" fill="none" stroke="#fff" stroke-miterlimit="10" stroke-width=".5"/>
 <path transform="matrix(6.2222 0 0 6.2222 70 0)" d="m20.366 45.84c-2.5413-1.96-1.3253-12.04 1.8746-12.281 0.87326-0.065918 1.739-2.1 2.1998-2.7478l6.28e-4 -6.28e-4c1.0409-1.6373 1.9148-3.3756 2.6091-5.1874-0.90025-3.0799 4.8001-5.6507 7.5291-3.9658 1.8997 1.1689 6.1078 0.30008 6.858-1.7999 1.0798-3.0222 7.6572-3.1207 8.8757-0.15318 0.67299 1.6379 3.7711 2.412 5.3871 2.0861v-6.28e-4c0.53802-0.099818 1.0616-0.2643 1.5601-0.48968 1.0911-0.48026 2.3209-0.54367 3.4554-0.17704 1.135 0.36663 2.0956 1.1369 2.6995 2.1652 0.60393 1.0277 0.80985 2.2418 0.5782 3.4114-0.52609 2.164 1.0748 6.0902 3.3003 6.1542 3.208 0.092913 4.6117 6.5717 2.1652 8.6491-1.7001 1.442-1.636 5.9088 0.12681 7.2692 1.6812 1.3002 1.6002 5.0612 0.62402 6.5629h-6.27e-4c-0.60017 1.0321-1.5682 1.8005-2.7102 2.1508-2.513 0.69999-4.893 3.252-4.5998 5.3689 0.44196 3.1791-4.1999 5.6507-6.9302 3.9658-1.8997-1.1689-5.6671-0.30008-6.416 1.7999-1.0798 3.0222-7.0507 3.1207-8.2699 0.15318-0.84626-2.0598-4.6607-2.8169-6.5001-1.5607-2.6499 1.8112-7.8681-0.60017-7.1097-3.719 0.05399-1.1376-0.3434-2.2506-1.1068-3.0956-0.76276-0.84563-1.8294-1.3554-2.9663-1.4176-3.5332-0.25802-5.2-4.5239-2.9211-6.9258 0.76088-0.87577 1.1532-2.0121 1.0949-3.1703-0.058385-1.1589-0.5625-2.25-1.4075-3.0448z" fill="none" stroke="#fff" stroke-miterlimit="10" stroke-width=".5"/>
 <path transform="matrix(6.2222 0 0 6.2222 70 0)" d="m65 54.133c-1.2292 0.092912-2.3511 0.73577-3.0523 1.7497-0.70124 1.0139-0.90653 2.2902-0.55999 3.4736 0.31264 1.0635 0.17892 2.2079-0.36914 3.1716-0.54869 0.96303-1.4653 1.6624-2.5388 1.9367-1.0741 0.27434-2.2136 0.10045-3.1572-0.48152-1.0484-0.64725-2.3335-0.78662-3.4968-0.37918-1.1627 0.40744-2.0799 1.3184-2.4948 2.4791-0.37291 1.044-1.1539 1.8915-2.1634 2.3479-1.0101 0.45703-2.1621 0.48403-3.1923 0.074707-1.0302-0.40932-1.8495-1.2192-2.2707-2.245-0.4677-1.1401-1.4263-2.0083-2.6072-2.3617-1.1809-0.35345-2.4584-0.15444-3.4767 0.54116-0.91532 0.62779-2.0466 0.8563-3.1333 0.63281-1.0873-0.22349-2.0372-0.87953-2.6304-1.8175-0.59326-0.93855-0.77909-2.0774-0.51479-3.1553 0.2913-1.1978 0.02574-2.4634-0.72196-3.4434-0.7477-0.98061-1.8978-1.5707-3.1302-1.6059-1.1087-0.03139-2.1571-0.51165-2.9042-1.3315-0.74707-0.81927-1.1288-1.9079-1.0578-3.0146 0.071568-1.1068 0.5895-2.137 1.4358-2.8539 0.9398-0.79729 1.4697-1.9769 1.4408-3.2099-0.028878-1.2324-0.61272-2.3856-1.5889-3.139-0.87451-0.67738-1.437-1.6806-1.5582-2.7805-0.12179-1.0993 0.2078-2.201 0.91344-3.0536 0.70501-0.85191 1.7258-1.3818 2.8288-1.4678 1.2292-0.092913 2.3511-0.7364 3.0523-1.7503 0.70124-1.0139 0.90653-2.2902 0.55999-3.4729-0.31264-1.0635-0.17892-2.2086 0.36914-3.1716 0.54869-0.96366 1.4653-1.6624 2.5388-1.9367 1.0741-0.27434 2.2136-0.10108 3.1572 0.48152 1.0484 0.64725 2.3335 0.78662 3.4968 0.37918 1.1627-0.40806 2.0799-1.319 2.4948-2.4791 0.37291-1.044 1.1539-1.8915 2.1634-2.3486 1.0101-0.4564 2.1621-0.4834 3.1923-0.074079 1.0302 0.40869 1.8495 1.2192 2.2707 2.2444 0.4677 1.1407 1.4263 2.0083 2.6072 2.3624 1.1809 0.35344 2.4584 0.15444 3.4767-0.54116 0.91469-0.62591 2.0453-0.85317 3.1308-0.62904 1.0861 0.22412 2.034 0.87953 2.6273 1.8162 0.59263 0.93729 0.77909 2.0748 0.51667 3.1515-0.2913 1.1985-0.026367 2.4634 0.72133 3.4434 0.7477 0.98061 1.8984 1.5707 3.1308 1.6059 1.1087 0.031389 2.1571 0.51165 2.9042 1.3315 0.74707 0.81927 1.1288 1.9079 1.0572 3.0146-0.070941 1.1068-0.5895 2.137-1.4351 2.8539-0.94043 0.79729-1.4697 1.9769-1.4408 3.2099 0.02825 1.2324 0.6121 2.3856 1.5883 3.139 0.87514 0.67676 1.4376 1.68 1.5601 2.7792 0.12242 1.0999-0.20654 2.2017-0.91155 3.0542-0.70501 0.85254-1.7258 1.383-2.8282 1.4697z" fill="none" stroke="#fff" stroke-miterlimit="10" stroke-width=".5"/>
 <g>
  <use x="70" y="653.332031" xlink:href="#t"/>
  <use x="92.832031" y="653.332031" xlink:href="#c"/>
  <use x="108.175781" y="653.332031" xlink:href="#a"/>
  <use x="129.273437" y="653.332031" xlink:href="#i"/>
  <use x="150.269531" y="653.332031" xlink:href="#b"/>
  <use x="165.140625" y="653.332031" xlink:href="#a"/>
  <use x="186.242188" y="653.332031" xlink:href="#h"/>
  <use x="219.34375" y="653.332031" xlink:href="#g"/>
  <use x="241.613281" y="653.332031" xlink:href="#f"/>
  <use x="272.722656" y="653.332031" xlink:href="#e"/>
  <use x="303.683594" y="653.332031" xlink:href="#s"/>
  <use x="70" y="684.445312" xlink:href="#r"/>
  <use x="83.535156" y="684.445312" xlink:href="#c"/>
  <use x="98.878906" y="684.445312" xlink:href="#d"/>
  <use x="120.25" y="684.445312" xlink:href="#q"/>
  <use x="163.5" y="684.445312" xlink:href="#b"/>
  <use x="178.371094" y="684.445312" xlink:href="#p"/>
  <use x="200.519531" y="684.445312" xlink:href="#a"/>
  <use x="232.453125" y="684.445312" xlink:href="#o"/>
  <use x="258.488281" y="684.445312" xlink:href="#d"/>
  <use x="279.863281" y="684.445312" xlink:href="#n"/>
  <use x="302.011719" y="684.445312" xlink:href="#m"/>
  <use x="334.992188" y="684.445312" xlink:href="#l"/>
  <use x="357.792969" y="684.445312" xlink:href="#c"/>
  <use x="373.136719" y="684.445312" xlink:href="#d"/>
  <use x="394.507812" y="684.445312" xlink:href="#k"/>
  <use x="405.171875" y="684.445312" xlink:href="#a"/>
  <use x="426.273437" y="684.445312" xlink:href="#j"/>
  <use x="444.714844" y="684.445312" xlink:href="#b"/>
 </g>
</svg>
