<?xml version="1.0" encoding="UTF-8"?>
<svg width="700pt" height="700pt" version="1.1" viewBox="0 0 700 700" xmlns="http://www.w3.org/2000/svg" xmlns:xlink="http://www.w3.org/1999/xlink">
 <defs>
  <symbol id="t" overflow="visible">
   <path  d="m0.34375-0.03125c-0.011719 0.011719-0.027344 0.023438-0.046875 0.03125-0.023437 0.0078125-0.042969 0.015625-0.0625 0.015625-0.0625 0-0.11719-0.015625-0.15625-0.046875-0.03125-0.039062-0.046875-0.09375-0.046875-0.15625s0.015625-0.10938 0.046875-0.14062c0.039063-0.039063 0.09375-0.0625 0.15625-0.0625 0.019531 0 0.039063 0.007813 0.0625 0.015625 0.019531 0 0.035156 0.007812 0.046875 0.015625v0.078125c-0.011719-0.007812-0.027344-0.015625-0.046875-0.015625-0.023437-0.007813-0.042969-0.015625-0.0625-0.015625-0.03125 0-0.058594 0.011719-0.078125 0.03125-0.023438 0.023438-0.03125 0.054688-0.03125 0.09375 0 0.042969 0.007812 0.074219 0.03125 0.09375 0.019531 0.023438 0.046875 0.03125 0.078125 0.03125h0.0625c0.019531-0.0078125 0.035156-0.019531 0.046875-0.03125z"/>
  </symbol>
  <symbol id="a" overflow="visible">
   <path  d="m0.25-0.20312c0-0.007813-0.007812-0.015625-0.015625-0.015625h-0.015625c-0.03125 0-0.054688 0.011719-0.0625 0.03125-0.011719 0.011719-0.015625 0.03125-0.015625 0.0625v0.125h-0.09375v-0.28125h0.09375v0.046875c0.007813-0.019531 0.019531-0.035156 0.03125-0.046875 0.019531-0.007812 0.039063-0.015625 0.0625-0.015625h0.015625z"/>
  </symbol>
  <symbol id="d" overflow="visible">
   <path  d="m0.32812-0.14062v0.03125h-0.21875c0.007813 0.023438 0.019531 0.039062 0.03125 0.046875h0.0625 0.046875c0.019531-0.0078125 0.039062-0.019531 0.0625-0.03125v0.078125c-0.023438 0-0.042969 0.0078125-0.0625 0.015625-0.023438 0.0078125-0.042969 0.015625-0.0625 0.015625-0.054688 0-0.09375-0.015625-0.125-0.046875-0.023438-0.03125-0.03125-0.066406-0.03125-0.10938 0-0.050781 0.0078125-0.085937 0.03125-0.10938 0.03125-0.03125 0.066406-0.046875 0.10938-0.046875 0.050781 0 0.085937 0.015625 0.10938 0.046875 0.03125 0.023438 0.046875 0.058594 0.046875 0.10938zm-0.09375-0.03125c0-0.019531-0.007813-0.035156-0.015625-0.046875-0.011719-0.007812-0.027344-0.015625-0.046875-0.015625-0.011719 0-0.023437 0.007813-0.03125 0.015625-0.011719 0.011719-0.023437 0.027344-0.03125 0.046875z"/>
  </symbol>
  <symbol id="h" overflow="visible">
   <path  d="m0.17188-0.125c-0.023437 0-0.039063 0.007812-0.046875 0.015625-0.011719 0-0.015625 0.007813-0.015625 0.015625 0 0.011719 0.003906 0.023438 0.015625 0.03125h0.03125c0.019531 0 0.035156-0.0039062 0.046875-0.015625 0.007813-0.0078125 0.015625-0.019531 0.015625-0.03125v-0.015625zm0.14062-0.03125v0.15625h-0.09375v-0.046875c-0.011719 0.023438-0.027344 0.039062-0.046875 0.046875-0.011719 0.0078125-0.027344 0.015625-0.046875 0.015625-0.03125 0-0.058594-0.011719-0.078125-0.03125-0.011719-0.019531-0.015625-0.046875-0.015625-0.078125s0.0078125-0.050781 0.03125-0.0625c0.019531-0.007812 0.050781-0.015625 0.09375-0.015625h0.0625v-0.015625c0-0.019531-0.007812-0.03125-0.015625-0.03125-0.011719-0.007812-0.03125-0.015625-0.0625-0.015625-0.011719 0-0.027344 0.007813-0.046875 0.015625h-0.046875v-0.0625h0.0625c0.019531-0.007812 0.035156-0.015625 0.046875-0.015625 0.0625 0 0.10156 0.011719 0.125 0.03125 0.019531 0.023437 0.03125 0.058594 0.03125 0.10938z"/>
  </symbol>
  <symbol id="c" overflow="visible">
   <path  d="m0.14062-0.35938v0.078125h0.09375v0.0625h-0.09375v0.125 0.03125h0.03125 0.0625v0.0625h-0.078125c-0.042969 0-0.074219-0.0039062-0.09375-0.015625-0.011719-0.019531-0.015625-0.046875-0.015625-0.078125v-0.125h-0.03125v-0.0625h0.03125v-0.078125z"/>
  </symbol>
  <symbol id="m" overflow="visible">
   <path  d="m0.23438-0.25v-0.15625h0.09375v0.40625h-0.09375v-0.046875c-0.011719 0.023438-0.027344 0.039062-0.046875 0.046875-0.011719 0.0078125-0.027344 0.015625-0.046875 0.015625-0.03125 0-0.058594-0.015625-0.078125-0.046875-0.023438-0.03125-0.03125-0.066406-0.03125-0.10938 0-0.050781 0.0078125-0.085937 0.03125-0.10938 0.019531-0.03125 0.046875-0.046875 0.078125-0.046875 0.019531 0 0.035156 0.007813 0.046875 0.015625 0.019531 0.011719 0.035156 0.023438 0.046875 0.03125zm-0.0625 0.1875c0.019531 0 0.035156-0.0039062 0.046875-0.015625 0.007812-0.0078125 0.015625-0.03125 0.015625-0.0625 0-0.019531-0.007813-0.039063-0.015625-0.0625-0.011719-0.019531-0.027344-0.03125-0.046875-0.03125-0.023437 0-0.039063 0.011719-0.046875 0.03125-0.011719 0.023437-0.015625 0.042969-0.015625 0.0625 0 0.03125 0.003906 0.054688 0.015625 0.0625 0.007812 0.011719 0.023438 0.015625 0.046875 0.015625z"/>
  </symbol>
  <symbol id="g" overflow="visible">
   <path  d="m0.20312-0.0625c0.019531 0 0.03125-0.0039062 0.03125-0.015625 0.007813-0.0078125 0.015625-0.03125 0.015625-0.0625 0-0.019531-0.007812-0.039063-0.015625-0.0625 0-0.019531-0.011719-0.03125-0.03125-0.03125-0.03125 0-0.054687 0.011719-0.0625 0.03125v0.0625 0.0625c0.007813 0.011719 0.03125 0.015625 0.0625 0.015625zm-0.0625-0.1875c0.007813-0.007812 0.019531-0.019531 0.03125-0.03125 0.019531-0.007812 0.039063-0.015625 0.0625-0.015625 0.03125 0 0.054687 0.015625 0.078125 0.046875 0.019531 0.023438 0.03125 0.058594 0.03125 0.10938 0 0.042969-0.011719 0.078125-0.03125 0.10938-0.023438 0.03125-0.046875 0.046875-0.078125 0.046875-0.023437 0-0.042969-0.0078125-0.0625-0.015625-0.011719-0.0078125-0.023437-0.023438-0.03125-0.046875v0.046875h-0.09375v-0.40625h0.09375z"/>
  </symbol>
  <symbol id="l" overflow="visible">
   <path  d="m0.015625-0.28125h0.078125l0.078125 0.1875 0.0625-0.1875h0.09375l-0.10938 0.3125c-0.011719 0.03125-0.027344 0.050781-0.046875 0.0625-0.023437 0.007812-0.042969 0.015625-0.0625 0.015625h-0.0625v-0.0625h0.03125 0.03125c0.007813 0 0.015625-0.011719 0.015625-0.03125z"/>
  </symbol>
  <symbol id="f" overflow="visible">
   <path  d="m0.046875-0.28125h0.09375v0.28125h-0.09375zm0-0.125h0.09375v0.078125h-0.09375z"/>
  </symbol>
  <symbol id="e" overflow="visible">
   <path  d="m0.32812-0.17188v0.17188h-0.09375v-0.125-0.0625-0.015625c0-0.007813-0.007813-0.015625-0.015625-0.015625h-0.015625c-0.023437 0-0.039063 0.011719-0.046875 0.03125-0.011719 0.011719-0.015625 0.027344-0.015625 0.046875v0.14062h-0.09375v-0.28125h0.09375v0.03125c0.007813-0.007812 0.019531-0.019531 0.03125-0.03125 0.019531-0.007812 0.039063-0.015625 0.0625-0.015625 0.03125 0 0.050781 0.011719 0.0625 0.03125 0.019531 0.023437 0.03125 0.054687 0.03125 0.09375z"/>
  </symbol>
  <symbol id="k" overflow="visible">
   <path  d="m0.26562-0.28125v0.078125c-0.023437-0.007813-0.042969-0.015625-0.0625-0.015625-0.023437-0.007812-0.039063-0.015625-0.046875-0.015625-0.023438 0-0.039062 0.007813-0.046875 0.015625v0.015625 0.015625c0.007813 0.011719 0.023437 0.015625 0.046875 0.015625h0.015625c0.039063 0 0.066406 0.011719 0.078125 0.03125 0.019531 0.011719 0.03125 0.03125 0.03125 0.0625 0 0.023438-0.011719 0.042969-0.03125 0.0625-0.023438 0.019531-0.054688 0.03125-0.09375 0.03125-0.023438 0-0.042969-0.0078125-0.0625-0.015625-0.023438 0-0.042969-0.0039062-0.0625-0.015625v-0.0625c0.019531 0.011719 0.035156 0.015625 0.046875 0.015625h0.0625 0.046875c0.007812 0 0.015625-0.0039062 0.015625-0.015625 0-0.0078125-0.007813-0.015625-0.015625-0.015625-0.011719-0.007812-0.023438-0.015625-0.03125-0.015625h-0.015625c-0.042969-0.007813-0.074219-0.019531-0.09375-0.03125-0.011719-0.007813-0.015625-0.03125-0.015625-0.0625s0.0078125-0.050781 0.03125-0.0625c0.019531-0.019531 0.050781-0.03125 0.09375-0.03125 0.007812 0 0.023438 0.007813 0.046875 0.015625h0.0625z"/>
  </symbol>
  <symbol id="b" overflow="visible">
   <path  d="m0.17188-0.23438c-0.023437 0-0.039063 0.011719-0.046875 0.03125-0.011719 0.011719-0.015625 0.03125-0.015625 0.0625s0.003906 0.054688 0.015625 0.0625c0.007812 0.011719 0.023438 0.015625 0.046875 0.015625 0.03125 0 0.050781-0.0039062 0.0625-0.015625 0.007813-0.0078125 0.015625-0.03125 0.015625-0.0625s-0.007812-0.050781-0.015625-0.0625c-0.011719-0.019531-0.03125-0.03125-0.0625-0.03125zm0-0.0625c0.050781 0 0.085937 0.015625 0.10938 0.046875 0.03125 0.023438 0.046875 0.058594 0.046875 0.10938 0 0.042969-0.015625 0.078125-0.046875 0.10938-0.023438 0.03125-0.058594 0.046875-0.10938 0.046875-0.042969 0-0.078125-0.015625-0.10938-0.046875-0.023438-0.03125-0.03125-0.066406-0.03125-0.10938 0-0.050781 0.0078125-0.085937 0.03125-0.10938 0.03125-0.03125 0.066406-0.046875 0.10938-0.046875z"/>
  </symbol>
  <symbol id="j" overflow="visible">
   <path  d="m0.3125-0.23438c0.007812-0.019531 0.019531-0.035156 0.03125-0.046875 0.019531-0.007812 0.039062-0.015625 0.0625-0.015625 0.03125 0 0.050781 0.011719 0.0625 0.03125 0.019531 0.023437 0.03125 0.054687 0.03125 0.09375v0.17188h-0.09375v-0.14062-0.015625c0-0.03125-0.007812-0.046875-0.015625-0.046875 0-0.007813-0.007813-0.015625-0.015625-0.015625-0.023438 0-0.039062 0.011719-0.046875 0.03125-0.011719 0.011719-0.015625 0.027344-0.015625 0.046875v0.14062h-0.078125v-0.14062c0-0.039063-0.007813-0.0625-0.015625-0.0625 0-0.007813-0.011719-0.015625-0.03125-0.015625-0.023438 0-0.039062 0.011719-0.046875 0.03125v0.046875 0.14062h-0.09375v-0.28125h0.09375v0.03125c0.007813-0.007812 0.019531-0.019531 0.03125-0.03125 0.019531-0.007812 0.035156-0.015625 0.046875-0.015625 0.019531 0 0.035156 0.007813 0.046875 0.015625 0.019531 0.011719 0.035156 0.027344 0.046875 0.046875z"/>
  </symbol>
  <symbol id="i" overflow="visible">
   <path  d="m0.28125-0.28125v0.078125c-0.023438-0.007813-0.039062-0.015625-0.046875-0.015625-0.011719-0.007812-0.023437-0.015625-0.03125-0.015625-0.03125 0-0.058594 0.011719-0.078125 0.03125-0.011719 0.023437-0.015625 0.042969-0.015625 0.0625 0 0.023437 0.003906 0.042969 0.015625 0.0625 0.019531 0.011719 0.046875 0.015625 0.078125 0.015625h0.03125c0.019531-0.0078125 0.035156-0.015625 0.046875-0.015625v0.0625c-0.023438 0.011719-0.039062 0.015625-0.046875 0.015625-0.011719 0.0078125-0.027344 0.015625-0.046875 0.015625-0.054688 0-0.09375-0.015625-0.125-0.046875-0.023438-0.03125-0.03125-0.066406-0.03125-0.10938 0-0.050781 0.0078125-0.085937 0.03125-0.10938 0.03125-0.03125 0.070312-0.046875 0.125-0.046875 0.019531 0 0.035156 0.007813 0.046875 0.015625h0.046875z"/>
  </symbol>
  <symbol id="s" overflow="visible">
   <path  d="m0.23438-0.40625v0.078125h-0.0625-0.03125v0.03125 0.015625h0.09375v0.0625h-0.09375v0.21875h-0.078125v-0.21875h-0.046875v-0.0625h0.046875v-0.015625c0-0.03125 0.0039062-0.054687 0.015625-0.078125 0.019531-0.019531 0.046875-0.03125 0.078125-0.03125z"/>
  </symbol>
  <symbol id="r" overflow="visible">
   <path  d="m0.32812-0.17188v0.17188h-0.09375v-0.125-0.0625-0.015625c0-0.007813-0.007813-0.015625-0.015625-0.015625h-0.015625c-0.023437 0-0.039063 0.011719-0.046875 0.03125-0.011719 0.011719-0.015625 0.027344-0.015625 0.046875v0.14062h-0.09375v-0.40625h0.09375v0.15625c0.007813-0.007812 0.019531-0.019531 0.03125-0.03125 0.019531-0.007812 0.039063-0.015625 0.0625-0.015625 0.03125 0 0.050781 0.011719 0.0625 0.03125 0.019531 0.023437 0.03125 0.054687 0.03125 0.09375z"/>
  </symbol>
  <symbol id="q" overflow="visible">
   <path  d="m0.046875-0.39062h0.10938l0.14062 0.26562v-0.26562h0.09375v0.39062h-0.10938l-0.14062-0.26562v0.26562h-0.09375z"/>
  </symbol>
  <symbol id="p" overflow="visible">
   <path  d="m0.046875-0.10938v-0.17188h0.078125v0.015625 0.078125 0.03125 0.0625c0.007812 0 0.015625 0.0078125 0.015625 0.015625v0.015625h0.03125c0.019531 0 0.035156-0.0039062 0.046875-0.015625 0.007812-0.019531 0.015625-0.039063 0.015625-0.0625v-0.14062h0.09375v0.28125h-0.09375v-0.046875c-0.011719 0.023438-0.027344 0.039062-0.046875 0.046875-0.011719 0.0078125-0.027344 0.015625-0.046875 0.015625-0.03125 0-0.058594-0.011719-0.078125-0.03125-0.011719-0.03125-0.015625-0.0625-0.015625-0.09375z"/>
  </symbol>
  <symbol id="o" overflow="visible">
   <path  d="m0.046875-0.39062h0.17188c0.039062 0 0.070312 0.015625 0.09375 0.046875 0.03125 0.023438 0.046875 0.054688 0.046875 0.09375 0 0.03125-0.015625 0.0625-0.046875 0.09375-0.023438 0.023438-0.054688 0.03125-0.09375 0.03125h-0.078125v0.125h-0.09375zm0.09375 0.078125v0.10938h0.0625c0.019531 0 0.035156-0.003906 0.046875-0.015625 0.007812-0.007812 0.015625-0.019531 0.015625-0.03125 0-0.019531-0.007813-0.035156-0.015625-0.046875-0.011719-0.007813-0.027344-0.015625-0.046875-0.015625z"/>
  </symbol>
  <symbol id="n" overflow="visible">
   <path  d="m0.046875-0.28125h0.09375v0.26562c0 0.039062-0.011719 0.070312-0.03125 0.09375-0.023438 0.019531-0.046875 0.03125-0.078125 0.03125h-0.046875v-0.0625h0.015625c0.019531 0 0.03125-0.0078125 0.03125-0.015625 0.0078125 0 0.015625-0.015625 0.015625-0.046875zm0-0.125h0.09375v0.078125h-0.09375z"/>
  </symbol>
 </defs>
 <g>
  <path  d="m315.01 155.51v31.957h13.785c4.0742 0 7.4141 3.3438 7.4141 7.5195v21.199c0 9.9219-14.934 9.9219-14.934 0v-13.785h-13.785c-4.0742 0-7.4141-3.3438-7.4141-7.4141v-42.508c-0.10547-1.9844 0.73047-3.8633 2.0898-5.3281l42.609-42.508c2.8203-2.9258 7.625-2.9258 10.547 0 2.9258 2.9258 2.9258 7.625 0 10.547l-40.312 40.312zm159.48 89.504h-31.957v13.785c0 4.0742-3.3438 7.4141-7.5195 7.4141h-21.199c-9.8164 0-9.8164-14.934 0-14.934h13.785v-13.785c0-4.0742 3.3438-7.5195 7.4141-7.5195h42.508c1.9844 0 3.9688 0.83594 5.3281 2.1914l42.508 42.609c2.9258 2.8203 2.9258 7.625 0 10.547-2.9258 2.9258-7.625 2.9258-10.547 0l-40.312-40.312zm-89.398 159.48v-31.957h-13.785c-4.1758 0-7.5195-3.3438-7.5195-7.5195v-21.199c0-9.8164 14.934-9.8164 14.934 0v13.785h13.785c4.1758 0 7.5195 3.3438 7.5195 7.4141v42.508c0 1.9844-0.83594 3.9688-2.1914 5.3281l-42.508 42.508c-2.9258 2.9258-7.7266 2.9258-10.547 0-2.9258-2.9258-2.9258-7.625 0-10.547l40.312-40.312zm-159.58-89.398h31.957v-13.785c0-4.1758 3.3438-7.5195 7.5195-7.5195h21.199c9.9219 0 9.9219 14.934 0 14.934h-13.785v13.785c0 4.1758-3.3438 7.5195-7.4141 7.5195h-42.508c-1.9844 0-3.8633-0.83594-5.3281-2.1914l-42.508-42.508c-2.9258-2.9258-2.9258-7.7266 0-10.547 2.9258-2.9258 7.625-2.9258 10.547 0l40.312 40.312zm1.9844-40.625v-3.2383c0-4.1758 3.3438-7.5195 7.4141-7.5195h81.359c4.1758 0 7.5195 3.3438 7.5195 7.5195v60.156c0 4.0742-3.3438 7.4141-7.5195 7.4141h-13.785v13.785c0 4.1758-3.3438 7.5195-7.4141 7.5195h-85.012c-1.9844 0-3.9688-0.83594-5.3281-2.1914l-72.586-72.586c-6.9961-6.9961 3.6562-17.547 10.547-10.547l70.391 70.391h74.465v-13.785c0-4.1758 3.3438-7.5195 7.5195-7.5195h13.785v-45.223h-66.422v13.785c0 1.9844-0.83594 3.9688-2.1914 5.3281-2.9258 2.9258-7.7266 2.9258-10.652 0l-54.934-54.934c-6.8945-6.9961 3.6562-17.547 10.547-10.652zm118.85-5.5352h7.3125c4.1758 0 7.5195 3.3438 7.5195 7.4141v7.3125c0 4.1758-3.3438 7.5195-7.5195 7.5195h-7.3125c-4.0742 0-7.4141-3.3438-7.4141-7.5195v-7.3125c0-4.0742 3.3438-7.4141 7.4141-7.4141zm-42.715 131.91v-10.758h-63.602c-9.8164 0-9.8164-14.934 0-14.934h71.121c4.0742 0 7.5195 3.3438 7.5195 7.5195v21.305c0 1.9844-0.83594 3.8633-2.1914 5.2227l-24.961 24.961c-6.8945 6.8945-17.547-3.6562-10.547-10.652l22.664-22.664zm40.836 1.7773h-3.2383c-4.1758 0-7.5195-3.3438-7.5195-7.5195v-81.359c0-4.1758 3.3438-7.5195 7.5195-7.5195h60.156c4.0742 0 7.4141 3.3438 7.4141 7.5195v13.785h13.785c4.1758 0 7.5195 3.3438 7.5195 7.4141v85.117c0 1.9844-0.83594 3.8633-2.1914 5.2227l-72.586 72.586c-6.9961 6.9961-17.547-3.5508-10.547-10.547l70.391-70.391v-74.465h-13.785c-4.1758 0-7.5195-3.3438-7.5195-7.5195v-13.785h-45.223v66.527h13.785c1.9844 0 3.9688 0.73047 5.3281 2.1914 2.9258 2.9258 2.9258 7.625 0 10.547l-54.934 54.934c-6.9961 6.9961-17.547-3.6562-10.652-10.547zm126.37-76.238h-10.652v63.602c0 9.8164-15.039 9.8164-15.039 0v-71.121c0-4.0742 3.4453-7.4141 7.5195-7.4141h21.305c1.9844 0 3.8633 0.73047 5.2227 2.1914l24.961 24.855c6.8945 6.9961-3.6562 17.547-10.652 10.547l-22.664-22.664zm1.7773-40.73v3.1328c0 4.1758-3.3438 7.5195-7.5195 7.5195h-81.359c-4.1758 0-7.5195-3.3438-7.5195-7.5195v-60.051c0-4.1758 3.3438-7.5195 7.5195-7.5195h13.785v-13.785c0-4.0742 3.3438-7.4141 7.5195-7.4141h85.012c1.9844 0 3.8633 0.73047 5.2227 2.1914l72.586 72.586c6.9961 6.8945-3.5508 17.441-10.547 10.547l-70.391-70.391h-74.465v13.785c0 4.0742-3.3438 7.4141-7.4141 7.4141h-13.891v45.223h66.527v-13.785c0-1.9844 0.73047-3.8633 2.1914-5.3281 2.9258-2.9258 7.625-2.9258 10.547 0l54.934 55.039c6.9961 6.8945-3.5508 17.441-10.547 10.547zm-76.238-126.48v10.758h63.602c9.8164 0 9.8164 14.934 0 14.934h-71.121c-4.0742 0-7.4141-3.3438-7.4141-7.5195v-21.199c0-1.9844 0.73047-3.8633 2.1914-5.3281l24.855-24.855c6.9961-6.9961 17.547 3.5508 10.547 10.547l-22.664 22.664zm-40.73-1.7773h3.1328c4.1758 0 7.5195 3.4453 7.5195 7.5195v81.359c0 4.1758-3.3438 7.5195-7.5195 7.5195h-60.051c-4.1758 0-7.5195-3.3438-7.5195-7.5195v-13.785h-13.785c-4.0742 0-7.4141-3.3438-7.4141-7.4141v-85.012c0-1.9844 0.73047-3.9688 2.1914-5.3281l72.586-72.586c6.8945-6.9961 17.441 3.6562 10.547 10.547l-70.391 70.391v74.465h13.785c4.0742 0 7.4141 3.3438 7.4141 7.5195v13.785h45.223v-66.422h-13.785c-1.9844 0-3.8633-0.83594-5.3281-2.1914-2.9258-2.9258-2.9258-7.7266 0-10.652l55.039-54.934c6.8945-6.8945 17.441 3.6562 10.547 10.547zm-126.48 76.238h10.758v-63.602c0-9.8164 14.934-9.8164 14.934 0v71.121c0 4.0742-3.3438 7.4141-7.5195 7.4141h-21.199c-1.9844 0-3.8633-0.73047-5.3281-2.0898l-24.855-24.961c-6.9961-6.8945 3.5508-17.547 10.547-10.547zm94.309 243.03c-2.9258-2.9258-2.9258-7.7266 0-10.652 2.9258-2.8203 7.625-2.8203 10.547 0 2.9258 2.9258 2.9258 7.7266 0 10.652-2.9258 2.9258-7.625 2.9258-10.547 0zm223.18-170.13c-2.9258 2.9258-7.7266 2.9258-10.652 0-2.8203-2.9258-2.8203-7.625 0-10.547 2.9258-2.9258 7.7266-2.9258 10.652 0 2.9258 2.9258 2.9258 7.625 0 10.547zm-170.13-223.08c2.9258 2.9258 2.9258 7.625 0 10.547-2.9258 2.9258-7.625 2.9258-10.547 0-2.9258-2.9258-2.9258-7.625 0-10.547 2.9258-2.9258 7.625-2.9258 10.547 0zm-223.08 170.03c2.9258-2.9258 7.625-2.9258 10.547 0 2.9258 2.9258 2.9258 7.625 0 10.547-2.9258 2.9258-7.625 2.9258-10.547 0-2.9258-2.9258-2.9258-7.625 0-10.547z" fill-rule="evenodd"/>
  <use x="70" y="561.566406" xlink:href="#t"/>
  <use x="70.382812" y="561.566406" xlink:href="#a"/>
  <use x="70.640625" y="561.566406" xlink:href="#d"/>
  <use x="70.996094" y="561.566406" xlink:href="#h"/>
  <use x="71.347656" y="561.566406" xlink:href="#c"/>
  <use x="71.597656" y="561.566406" xlink:href="#d"/>
  <use x="71.949219" y="561.566406" xlink:href="#m"/>
  <use x="72.507813" y="561.566406" xlink:href="#g"/>
  <use x="72.878906" y="561.566406" xlink:href="#l"/>
  <use x="73.402344" y="561.566406" xlink:href="#g"/>
  <use x="73.777344" y="561.566406" xlink:href="#a"/>
  <use x="74.035156" y="561.566406" xlink:href="#h"/>
  <use x="74.386719" y="561.566406" xlink:href="#f"/>
  <use x="74.566406" y="561.566406" xlink:href="#e"/>
  <use x="74.9375" y="561.566406" xlink:href="#k"/>
  <use x="75.246094" y="561.566406" xlink:href="#c"/>
  <use x="75.496094" y="561.566406" xlink:href="#b"/>
  <use x="75.855469" y="561.566406" xlink:href="#a"/>
  <use x="76.113281" y="561.566406" xlink:href="#j"/>
  <use x="76.65625" y="561.566406" xlink:href="#f"/>
  <use x="76.835938" y="561.566406" xlink:href="#i"/>
  <use x="77.148438" y="561.566406" xlink:href="#b"/>
  <use x="77.503906" y="561.566406" xlink:href="#e"/>
  <use x="77.878906" y="561.566406" xlink:href="#k"/>
  <use x="70" y="562.089844" xlink:href="#s"/>
  <use x="70.226562" y="562.089844" xlink:href="#a"/>
  <use x="70.484375" y="562.089844" xlink:href="#b"/>
  <use x="70.84375" y="562.089844" xlink:href="#j"/>
  <use x="71.570313" y="562.089844" xlink:href="#c"/>
  <use x="71.820312" y="562.089844" xlink:href="#r"/>
  <use x="72.191406" y="562.089844" xlink:href="#d"/>
  <use x="72.726562" y="562.089844" xlink:href="#q"/>
  <use x="73.164063" y="562.089844" xlink:href="#b"/>
  <use x="73.523438" y="562.089844" xlink:href="#p"/>
  <use x="73.894531" y="562.089844" xlink:href="#e"/>
  <use x="74.449219" y="562.089844" xlink:href="#o"/>
  <use x="74.832031" y="562.089844" xlink:href="#a"/>
  <use x="75.089844" y="562.089844" xlink:href="#b"/>
  <use x="75.445312" y="562.089844" xlink:href="#n"/>
  <use x="75.625" y="562.089844" xlink:href="#d"/>
  <use x="75.980469" y="562.089844" xlink:href="#i"/>
  <use x="76.289063" y="562.089844" xlink:href="#c"/>
 </g>
</svg>
