<?xml version="1.0" encoding="UTF-8"?>
<svg fill="#fff" width="700pt" height="700pt" version="1.1" viewBox="0 0 700 700" xmlns="http://www.w3.org/2000/svg" xmlns:xlink="http://www.w3.org/1999/xlink">
 <defs>
 
 </defs>
 <g>
  <path d="m627.62 308.29c-0.64062 1.3477-1.8438 1.8438-3.2656 2.0586-4.8281 0.64062-9.7266 1.2773-14.551 1.9883-8.5898 1.207-17.25 2.4844-25.84 3.6914-0.78125 0.14062-1.5625 0.42578-2.6992 0.78125 0.78125 1.207 1.2773 2.1289 1.9883 2.9805 6.957 8.9453 13.914 17.887 20.871 26.832 1.2773 1.6328 2.4844 3.1953 3.6211 4.8984 1.7734 2.6992 1.1367 4.2578-2.0586 4.8281-4.543 0.85156-9.1562 1.5625-13.77 2.1992-12.422 1.8438-24.914 3.6211-37.41 5.3945-12.352 1.7734-24.773 3.4062-37.125 5.1094-0.49609 0-0.99219 0.070313-1.4922 0.21484-1.3477 0.42578-1.6328 1.2773-0.92188 2.5547 0.21484 0.35547 0.49609 0.71094 0.78125 0.99219 8.0938 10.223 16.184 20.371 24.277 30.594 0 0 0.070312 0.14062 0.14062 0.21484 2.9102 2.9805 1.7734 5.9609-2.6992 6.5312-11.641 1.4922-23.281 3.125-34.926 4.7578-1.7734 0.21484-3.4766 0.56641-5.2539 0.92188-0.28516 0-0.56641 0.35547-0.85156 0.49609-0.14062 1.418 0.78125 2.1992 1.4922 3.125 7.5938 9.6523 15.191 19.238 22.785 28.891 0.71094 0.92188 1.418 1.918 1.9883 2.9102 0.99219 1.7734 0.78125 3.4062-0.56641 4.8984-0.85156 0.85156-1.7031 1.6328-2.625 2.3438-23.281 18.457-46.496 36.84-69.777 55.297-0.49609 0.42578-1.0664 0.85156-1.6328 1.207-2.9102 1.9883-4.4727 1.4922-5.2539-1.918-0.35547-1.6328-0.78125-3.2656-0.99219-4.9688-1.207-8.5898-2.4141-17.25-3.6211-25.84-0.42578-3.125-0.99219-6.1758-1.5625-9.2266-0.14062-0.78125-0.49609-1.5625-0.85156-2.6992-1.3477 0.92188-2.4844 1.6328-3.5508 2.4844-14.055 11.215-28.109 22.504-42.234 33.719-21.223 16.895-42.52 33.719-63.816 50.613-1.2773 0.99219-2.4844 1.9883-3.7617 2.9805h-0.99219c-1.2773-1.5625-1.918-3.2656-2.1992-5.3242-1.5625-11.57-3.2656-23.07-4.9688-34.641-0.35547-2.1992-0.35547-4.543-1.4922-6.8867-0.99219 0.71094-1.918 1.3477-2.7695 1.9883-10.152 8.0195-20.301 16.043-30.453 24.062-0.71094 0.56641-1.4922 1.1367-2.2734 1.5625-1.5625 0.78125-2.625 0.35547-3.1953-1.2773-0.42578-1.2773-0.56641-2.625-0.78125-3.9766-2.9102-19.805-5.75-39.68-8.5898-59.484-1.2773-8.875-2.4844-17.746-3.7617-26.621-0.14062-1.207-0.56641-2.4141-0.92188-3.9766-1.2773 0.85156-2.2734 1.4922-3.1953 2.1992-9.7969 7.8086-19.594 15.617-29.387 23.355-0.71094 0.56641-1.4922 1.1367-2.2734 1.6328-1.8438 0.99219-3.125 0.56641-3.7617-1.418-0.42578-1.418-0.64062-2.9805-0.92188-4.4727-1.7734-12.066-3.4766-24.062-5.2539-36.133-0.14062-1.0664-0.56641-2.0586-0.99219-3.4766-1.1367 0.71094-1.9883 1.207-2.6992 1.7734-9.582 7.5938-19.238 15.262-28.82 22.855-0.92188 0.71094-1.8438 1.4922-2.9102 2.0586-1.8438 1.0664-3.3359 0.85156-4.8984-0.56641-0.92187-0.85156-1.7031-1.8438-2.4844-2.8398-18.172-23.281-36.273-46.566-54.375-69.848-0.56641-0.71094-1.207-1.418-1.7734-2.1992-2.0586-2.6992-1.418-4.6133 1.918-5.2539 3.125-0.56641 6.3164-0.99219 9.5117-1.418 10.223-1.418 20.445-2.7695 30.664-4.1875 0.78125-0.14062 1.5625-0.42578 2.6992-0.78125-0.78125-1.207-1.2773-2.1289-1.918-2.9805-9.8672-12.707-19.734-25.34-29.672-38.047-18.242-23.426-36.559-46.777-54.801-70.203-0.78125-0.99219-1.4922-2.0586-2.1289-3.125-0.71094-1.3477-0.49609-2.2734 0.78125-2.9102 0.78125-0.42578 1.7734-0.64063 2.625-0.78125 7.168-0.99219 14.41-1.9883 21.578-2.9805 6.0352-0.85156 12.066-1.7031 18.031-2.625 0.71094-0.14062 1.418-0.42578 2.5547-0.78125-0.71094-1.1367-1.1367-2.0586-1.7734-2.8398-6.5312-8.4453-13.062-16.824-19.664-25.199-1.418-1.7734-2.8398-3.5508-4.2578-5.3242-0.35547-0.49609-0.71094-0.92188-0.99219-1.418-1.0664-2.1289-0.42578-3.9023 1.8438-4.543 1.3477-0.42578 2.8398-0.56641 4.2578-0.71094 20.941-3.0508 41.809-6.1055 62.75-9.0859 7.3125-1.0664 14.551-2.0586 21.863-3.125 0.92188-0.14062 1.7734-0.35547 3.125-0.71094-0.56641-0.99219-0.92188-1.8438-1.418-2.4844-8.0938-10.434-16.184-20.797-24.348-31.234-0.14062-0.21484-0.35547-0.35547-0.49609-0.56641-2.1289-2.8398-1.2773-5.1094 2.1289-5.6797 3.5508-0.56641 7.168-0.99219 10.789-1.4922 9.7266-1.3477 19.449-2.6992 29.105-4.1172 0.71094-0.070313 1.418-0.42578 2.4844-0.71094-0.78125-1.207-1.3477-2.1992-2.0586-3.125-7.5234-9.7266-15.047-19.379-22.504-29.105-0.64063-0.85156-1.2773-1.7734-1.8438-2.6992-1.1367-2.0586-0.99219-3.3359 0.64062-5.0391 0.56641-0.64062 1.207-1.207 1.8438-1.7031 23.566-18.738 47.133-37.41 70.773-56.148 0.64062-0.49609 1.3477-1.0664 2.0586-1.4922 2.2734-1.3477 3.4062-0.92188 4.1172 1.5625 0.35547 1.2773 0.64062 2.625 0.78125 3.9766 1.7031 11.785 3.4766 23.566 5.1836 35.352 0.21484 1.3477 0.49609 2.625 0.78125 4.0469 1.6328 0 2.4844-1.0664 3.4062-1.8438 11.004-8.7305 22.004-17.461 33.008-26.195 24.562-19.52 49.191-38.973 73.754-58.492 0.64062-0.49609 1.3477-1.0664 2.0586-1.4922 2.1992-1.2773 3.7617-0.71094 4.2578 1.8438 0.56641 2.8398 0.99219 5.6797 1.418 8.5195 1.5625 10.719 3.125 21.438 4.6836 32.086 0.14063 0.85156 0.42578 1.7031 0.78125 2.9102 1.1367-0.78125 1.9883-1.2773 2.7695-1.8438 10.008-7.9492 19.945-15.902 29.957-23.922 0.85156-0.71094 1.7031-1.418 2.6992-1.918 1.918-0.99219 3.6211-0.14062 3.9023 2.0586 1.207 8.7305 2.3438 17.391 3.5508 26.121 1.7031 12.281 3.5508 24.562 5.3242 36.914 1.3477 9.3008 2.625 18.598 3.9023 27.898 0.070313 0.64063 0.35547 1.2773 0.49609 1.8438 1.418 0.56641 2.0586-0.35547 2.8398-0.99219 7.668-6.1055 15.402-12.211 23.07-18.242 2.625-2.1289 5.2539-4.2578 8.0195-6.2461 3.4766-2.5547 5.0391-1.7734 5.6797 2.4844 1.7031 11.711 3.3359 23.426 4.9688 35.137 0.21484 1.418 0.21484 2.9102 0.49609 4.2578 0.56641 2.4141 1.6328 2.7695 3.4766 1.207 9.7969-7.8086 19.52-15.688 29.316-23.496 0.85156-0.71094 1.7734-1.3477 2.6992-1.8438 1.8438-0.99219 3.6211-0.71094 5.1094 0.78125 0.64062 0.56641 1.1367 1.2773 1.6328 1.918 18.738 23.992 37.41 48.059 56.078 72.051 2.8398 3.6211 1.9883 5.5352-2.5547 6.1758-12.777 1.7734-25.625 3.4766-38.402 5.2539h-0.49609c-2.7695 0.42578-3.0508 1.0664-1.2773 3.3359 15.121 19.379 30.312 38.758 45.43 58.207 13.418 17.18 26.902 34.355 40.32 51.605 0.71094 0.92188 1.207 1.9883 1.8438 2.9805v0.49609zm-163.9-65.73c-0.85156-1.207-1.3477-1.8438-1.8438-2.4844-8.1641-10.434-16.398-20.941-24.488-31.375-2.7695-3.5508-2.1289-5.2539 2.2734-5.8906 12.707-1.918 25.414-3.7617 38.117-5.6094 10.008-1.4922 20.09-2.9102 30.098-4.332 6.6016-0.92188 13.203-1.8438 19.875-2.6992 0.92188-0.14062 2.1289 0 2.3438-1.0664 0.14062-0.64062-0.56641-1.4922-0.92188-2.1992 0-0.14062-0.21484-0.28516-0.28516-0.42578-8.0195-10.152-16.043-20.301-23.992-30.523-0.64062-0.85156-1.2773-1.8438-1.6328-2.8398-0.56641-1.4922-0.21484-2.4844 1.2773-3.125 1.0664-0.49609 2.2734-0.78125 3.4062-0.92188 2.8398-0.42578 5.6797-0.78125 8.5195-1.207 9.7266-1.3477 19.449-2.6992 29.105-4.1172 0.99219-0.14063 1.918-0.42578 3.2656-0.71094-0.64063-0.99219-0.99219-1.7031-1.4922-2.3438-7.4531-9.582-14.977-19.238-22.43-28.82-0.35547-0.49609-0.71094-0.92188-1.1367-1.3477-1.3477-1.418-2.1289-1.5625-3.7617-0.56641-0.64062 0.42578-1.207 0.85156-1.8438 1.3477-3.125 2.4844-6.2461 4.9688-9.3711 7.3828-19.664 15.617-39.324 31.234-58.988 46.852-0.99219 0.78125-2.0586 1.5625-3.1953 2.0586-1.418 0.64062-2.4844 0.21484-3.125-1.207-0.35547-0.64062-0.56641-1.418-0.71094-2.1289-0.85156-4.9688-1.7031-10.008-2.4844-14.977-1.207-8.0195-2.3438-16.043-3.5508-24.062-0.14062-0.92188-0.56641-1.8438-0.99219-2.9805-1.418 1.0664-2.5547 1.8438-3.5508 2.625-23.922 18.953-47.844 37.906-71.766 56.93-11.711 9.3008-23.426 18.598-35.207 27.824-3.5508 2.7695-5.1094 2.1289-5.75-2.4141-1.8438-12.777-3.6914-25.625-5.6094-38.402-0.14062-1.1367-0.56641-2.1992-1.0664-3.6914-1.6328 1.1367-2.9102 1.918-4.0469 2.8398-9.8672 7.8086-19.734 15.688-29.602 23.566-0.71094 0.56641-1.4922 1.1367-2.2734 1.5625-1.3477 0.71094-2.3438 0.35547-2.8398-1.0664-0.42578-1.207-0.56641-2.4844-0.78125-3.6914-0.92188-7.0273-1.8438-14.055-2.8398-21.082-1.7031-12.211-3.5508-24.418-5.3242-36.629-1.4922-10.363-3.0508-20.727-4.543-31.09-0.070313-0.56641-0.35547-1.1367-0.64063-1.9883-1.0664 0.78125-1.7734 1.2773-2.4844 1.8438-9.6523 7.668-19.309 15.402-28.961 23.07-1.0664 0.85156-2.1289 1.7031-3.2656 2.3438-1.6328 0.92188-2.9805 0.42578-3.6914-1.2773-0.42578-0.92188-0.64062-1.918-0.78125-2.9102-1.0664-7.3828-2.1289-14.695-3.2656-22.078-0.85156-5.6797-1.6328-11.359-2.4844-17.035-0.070313-0.71094-0.42578-1.3477-0.71094-2.1992-0.78125 0.49609-1.3477 0.71094-1.7734 1.0664-3.125 2.4141-6.2461 4.8984-9.3711 7.3828-6.6016 5.2539-13.273 10.504-19.875 15.758-2.5547 1.9883-2.625 2.9805-0.78125 5.5352 0.35547 0.49609 0.71094 0.92188 1.0664 1.418 17.961 23 35.918 46 53.879 68.996 0.49609 0.64063 0.99219 1.3477 1.418 2.1289 1.1367 2.2734 0.49609 3.7617-1.918 4.4727-0.92187 0.28516-1.8438 0.42578-2.7695 0.49609-12.211 1.7031-24.418 3.4062-36.629 5.1094-1.1367 0.14062-2.1992 0.56641-3.6914 0.92188 1.0664 1.6328 1.8438 2.9102 2.7695 4.0469 9.1562 11.855 18.312 23.637 27.543 35.492 18.598 23.781 37.195 47.559 55.793 71.34 0.71094 0.85156 1.418 1.7031 1.918 2.6992 0.92188 1.7734 0.28516 3.4062-1.5625 4.1172-0.85156 0.35547-1.7734 0.42578-2.6992 0.56641-12.637 1.7031-25.27 3.4766-37.906 5.1836-0.99219 0.14062-1.918 0.42578-3.2656 0.71094 0.71094 1.0664 1.0664 1.918 1.6328 2.625 2.0586 2.6992 4.1875 5.3242 6.2461 8.0195 6.0352 7.7383 12.137 15.402 18.102 23.211 2.8398 3.6914 2.1992 5.1836-2.4141 6.0352-3.0508 0.56641-6.1758 1.1367-9.2266 1.5625-9.8672 1.418-19.734 2.8398-29.602 4.1875-13.984 1.9883-27.969 3.9766-41.883 5.9609-2.4844 0.35547-5.0391 0.71094-7.5234 1.2773-1.7031 0.35547-1.918 0.99219-0.99219 2.5547 0.64062 1.0664 1.418 2.0586 2.1992 3.0508 6.957 8.875 13.914 17.676 20.797 26.547 0.99219 1.2773 1.918 2.5547 2.6992 3.9766 0.85156 1.7031 0.35547 2.9805-1.418 3.6211-1.3477 0.49609-2.7695 0.71094-4.1875 0.92188-11.285 1.6328-22.574 3.125-33.859 4.7578-1.7734 0.28516-3.6914 0.14063-5.5352 1.5625 0.78125 1.1367 1.418 2.2734 2.2734 3.3359 7.0977 9.0859 14.125 18.102 21.223 27.188 0.49609 0.56641 0.92188 1.207 1.4922 1.7734 1.207 1.207 1.918 1.3477 3.3359 0.42578 1.5625-0.99219 2.9805-2.1992 4.4727-3.3359 22.219-17.605 44.367-35.207 66.582-52.812 0.78125-0.64062 1.5625-1.2773 2.4844-1.7734 1.5625-0.85156 2.7695-0.42578 3.4062 1.2773 0.28516 0.71094 0.42578 1.4922 0.56641 2.1992 1.8438 12.637 3.7617 25.27 5.6094 37.906 0.21484 1.418 0.56641 2.7695 0.92188 4.6836 1.918-1.418 3.4062-2.4844 4.8281-3.6211 29.031-23.07 57.996-46.141 86.957-69.141 6.3867-5.0391 12.707-10.078 19.164-14.977 3.3359-2.5547 5.0391-1.8438 5.75 2.4141 0.78125 4.7578 1.418 9.5117 2.0586 14.27 1.1367 8.0195 2.3438 16.043 3.4766 24.062 0.14062 1.1367 0.56641 2.1992 0.99219 3.6914 1.5625-1.0664 2.6992-1.8438 3.832-2.6992 10.223-8.1641 20.516-16.328 30.738-24.562 0.35547-0.28516 0.64062-0.56641 0.99219-0.78125 1.4922-0.85156 2.625-0.42578 3.2656 1.1367 0.21484 0.56641 0.28516 1.1367 0.35547 1.7031 1.7031 12.707 3.4062 25.484 5.1836 38.191 2.4141 17.18 4.9688 34.285 7.5234 51.465 0.14062 0.85156 0.42578 1.7031 0.71094 3.0508 1.2773-0.85156 2.2734-1.4922 3.1953-2.1992 10.008-7.8789 20.02-15.828 30.098-23.637 3.832-2.9805 5.3945-2.3438 6.1055 2.4141 1.918 12.707 3.6914 25.414 5.5352 38.117 0.14062 1.1367 0.14062 2.3438 1.4922 3.4062 1.0664-0.78125 2.2734-1.5625 3.4062-2.4844 8.7305-6.8867 17.535-13.844 26.266-20.797 0.64062-0.49609 1.3477-1.0664 1.918-1.6328 1.1367-1.207 1.2773-1.9883 0.49609-3.4062-0.64062-1.0664-1.418-2.1289-2.1992-3.125-17.887-22.93-35.848-45.855-53.734-68.785-0.99219-1.2773-2.4141-2.625-1.5625-4.543 0.85156-1.918 2.6992-2.0586 4.4727-2.2734 4.6836-0.64062 9.3711-1.2773 14.055-1.918 8.0195-1.0664 16.043-2.1992 24.137-3.3359 0.85156-0.14062 1.7734-0.42578 3.0508-0.71094-0.85156-1.207-1.3477-2.1289-1.9883-2.9102-13.273-17.035-26.547-34-39.824-51.039-14.695-18.883-29.457-37.691-44.223-56.574-0.85156-1.1367-1.7031-2.3438-2.3438-3.5508-0.71094-1.4922-0.28516-2.625 1.207-3.3359 0.99219-0.42578 2.0586-0.71094 3.125-0.85156 11.285-1.5625 22.574-3.125 33.93-4.6836 2.3438-0.35547 4.6133-0.78125 7.5938-1.207zm-126.14-206.5c-1.1367 0.71094-1.7734 1.0664-2.3438 1.4922-9.8672 7.8086-19.734 15.617-29.602 23.496-2.0586 1.6328-2.9102 3.6211-2.4844 6.2461 0.78125 5.0391 1.4922 10.008 2.1992 15.047 1.418 9.8672 2.8398 19.734 4.2578 29.602 1.8438 12.707 3.6211 25.414 5.4648 38.117 0.28516 2.1289 0.64063 4.2578 0.92188 6.3164 1.7734 0.35547 2.4844-0.71094 3.4062-1.418 9.9375-7.8789 19.805-15.828 29.742-23.781 0.71094-0.56641 1.4922-1.1367 2.2734-1.6328 1.8438-0.99219 3.125-0.56641 3.7617 1.418 0.42578 1.207 0.64062 2.4844 0.85156 3.6914 1.918 12.422 3.7617 24.914 5.6094 37.34 0.14062 0.92187 0.49609 1.8438 0.85156 3.0508 1.0664-0.71094 1.7734-1.1367 2.4141-1.6328 9.8672-7.8086 19.734-15.688 29.672-23.426 1.7734-1.418 2.5547-2.9805 2.1992-5.2539-0.64063-4.332-1.1367-8.7305-1.7734-13.062-1.5625-11.074-3.1953-22.078-4.8281-33.078-2.0586-14.125-4.1172-28.254-6.1758-42.379-0.070313-0.49609-0.35547-0.99219-0.64062-1.7734-0.92188 0.71094-1.7031 1.207-2.4141 1.7734l-29.812 23.637c-0.78125 0.64062-1.6328 1.2773-2.4844 1.7031-1.7031 0.92188-2.8398 0.49609-3.6914-1.2773-0.28516-0.64063-0.49609-1.2773-0.56641-1.918-0.64062-3.5508-1.418-7.0977-1.918-10.719-1.207-8.5195-2.3438-17.105-3.5508-25.625-0.28516-1.8438-0.71094-3.6211-1.207-5.8906zm-90.789 231.41c-1.207-1.7031-1.918-2.9805-2.7695-4.0469-7.168-9.0859-14.34-18.242-21.508-27.328-0.49609-0.56641-0.92188-1.207-1.418-1.7734-1.207-1.3477-2.625-2.0586-4.4727-1.7734-0.78125 0.070313-1.4922 0.14062-2.2734 0.21484-4.543 0.64062-9.0156 1.3477-13.559 1.9883-22.43 3.1953-44.793 6.3867-67.223 9.6523-2.1289 0.28516-4.332 0.28516-6.6016 1.6328 0.92188 1.2773 1.6328 2.4844 2.4844 3.5508 7.3828 9.5117 14.766 18.953 22.148 28.395 0.64062 0.85156 1.3477 1.7734 1.918 2.6992 1.3477 2.2734 0.71094 3.9023-1.8438 4.6133-1.1367 0.28516-2.3438 0.42578-3.4766 0.56641-3.1953 0.42578-6.3867 0.85156-9.5117 1.2773-9.0156 1.2773-18.031 2.625-27.047 3.9766-0.85156 0.14062-1.7031 0.42578-2.9805 0.71094 0.71094 1.1367 1.1367 2.0586 1.7031 2.8398 2.5547 3.3359 5.1836 6.6719 7.7383 10.008 5.1836 6.6719 10.434 13.344 15.617 20.02 1.2773 1.7031 2.7695 2.3438 5.0391 2.0586 12.137-1.7734 24.277-3.4062 36.414-5.1836 16.539-2.4141 33.078-4.8281 49.688-7.2422 1.0664-0.14062 2.0586-0.56641 3.4766-0.99219-0.78125-1.2773-1.3477-2.2734-2.0586-3.1953-3.9766-5.0391-7.9492-10.078-11.926-15.121-4.1172-5.1836-8.2344-10.293-12.211-15.547-2.2734-2.9102-1.2773-5.1094 2.3438-5.75 1.6328-0.28516 3.3359-0.42578 5.0391-0.64062 10.363-1.4922 20.727-2.9102 31.09-4.4023 1.918-0.28516 3.7617-0.71094 6.3164-1.207zm344.63 0c-0.92188-1.418-1.5625-2.4141-2.2734-3.3359-5.1094-6.6016-10.223-13.273-15.332-19.875-2.3438-2.9805-4.8281-5.8906-7.0273-9.0156-1.6328-2.2734-3.6211-3.1953-6.3164-2.5547-0.21484 0-0.49609 0-0.78125 0.070312-11.641 1.6328-23.281 3.1953-34.855 4.8984-16.539 2.4141-33.078 4.8281-49.617 7.3125-1.0664 0.14062-2.0586 0.56641-3.4766 0.92188 0.92187 1.418 1.5625 2.4844 2.3438 3.4062 7.668 9.8672 15.402 19.734 23.141 29.602 0.56641 0.71094 1.1367 1.4922 1.5625 2.2734 0.85156 1.6328 0.070313 3.4766-1.6328 4.1172-0.64062 0.21484-1.3477 0.28516-1.9883 0.35547-12.918 1.7734-25.766 3.5508-38.688 5.3242-0.85156 0.14062-1.7031 0.42578-2.9102 0.78125 0.56641 1.0664 0.92188 1.7734 1.3477 2.4141 1.2773 1.7031 2.5547 3.3359 3.9023 5.0391 6.3867 8.2344 12.777 16.398 19.094 24.633 1.5625 2.0586 3.4766 3.125 6.1055 2.6992 0.64062-0.14062 1.3477-0.14062 1.9883-0.21484 15.902-2.2734 31.801-4.6133 47.633-6.8867 11.926-1.7031 23.922-3.4062 35.848-5.1094 0.99219-0.14062 1.9883-0.64062 3.3359-1.1367-1.2773-1.8438-2.1992-3.3359-3.2656-4.6836-7.2422-9.3008-14.48-18.527-21.723-27.754-0.56641-0.71094-1.1367-1.4922-1.6328-2.2734-1.1367-2.0586-0.64062-3.6211 1.5625-4.4023 0.92188-0.35547 1.9883-0.56641 2.9805-0.71094 12.492-1.7031 24.914-3.4062 37.41-5.1836 0.92188-0.14063 1.7734-0.42578 3.125-0.71094zm-254.05 116.77c-0.85156 0.56641-1.418 0.85156-1.9883 1.2773-9.8672 7.8086-19.805 15.617-29.672 23.426-2.0586 1.6328-2.9102 3.6211-2.5547 6.2461 0.42578 2.5547 0.78125 5.1836 1.1367 7.8086 1.7734 12.281 3.4766 24.562 5.2539 36.914 1.9883 13.914 3.9766 27.754 5.9609 41.668 0.14062 1.0664 0.42578 2.0586 0.78125 3.4766 1.1367-0.85156 1.9883-1.418 2.7695-1.9883 10.293-8.0938 20.516-16.254 30.879-24.348 3.7617-2.9102 5.1094-2.4141 5.8203 2.3438 2.0586 12.992 3.9766 26.051 5.9609 39.113 0.14062 0.85156 0.42578 1.7031 0.71094 2.9805 1.1367-0.78125 2.0586-1.207 2.7695-1.8438 9.5117-7.5234 18.883-15.121 28.465-22.504 2.5547-1.9883 3.5508-4.4023 3.0508-7.5234-0.92188-5.8203-1.7734-11.711-2.625-17.535-1.9883-13.629-3.9023-27.258-5.8906-40.887-1.3477-9.4414-2.6992-18.883-4.0469-28.324-0.070313-0.64062-0.35547-1.207-0.64063-2.1289-1.0664 0.71094-1.8438 1.207-2.5547 1.7734-5.8203 4.6133-11.641 9.3008-17.461 13.914-4.6836 3.7617-9.3711 7.5234-14.125 11.215-2.4844 1.918-4.0469 1.3477-4.7578-1.7031-0.64062-2.7695-1.207-5.6094-1.5625-8.4453-1.207-8.7305-2.3438-17.391-3.6211-26.121-0.42578-2.7695-0.71094-5.6797-1.9883-8.6602zm-112.37-264.06c4.0469-3.2656 7.668-6.1055 11.359-9.0156 6.8164-5.3945 13.629-10.789 20.516-16.184 2.0586-1.5625 3.0508-3.4766 2.6992-6.1055-1.8438-12.777-3.6914-25.555-5.5352-38.332-0.14062-0.78125-0.56641-1.418-0.99219-2.4141-0.92188 0.64062-1.5625 1.0664-2.1289 1.4922-9.4414 7.5234-18.883 15.047-28.324 22.574-0.64062 0.49609-1.3477 1.0664-1.918 1.6328-1.6328 1.5625-2.1992 3.5508-1.918 5.75 1.4922 10.078 2.9102 20.23 4.4727 30.312 0.49609 3.2656 1.1367 6.4609 1.7734 10.223zm209.9-6.1055c0-1.418 0.070312-2.2734 0-3.1953-1.7031-12.211-3.4766-24.418-5.1094-36.629-0.35547-2.8398-1.7031-4.543-4.332-5.6094-11.5-4.6133-23-9.3711-34.5-14.055-0.85156-0.35547-1.7031-0.49609-3.0508-0.85156 0.070312 1.6328 0.070312 2.8398 0.21484 4.0469 1.6328 11.711 3.3359 23.426 4.8984 35.137 0.49609 3.4766 2.1992 5.8203 5.3945 7.0273 11.004 4.4023 21.934 8.7305 32.938 13.062 0.99219 0.35547 2.0586 0.56641 3.5508 0.99219zm-170.36 330.79c0.14062 1.7031 0.14062 3.0508 0.35547 4.332 0.78125 5.4648 1.6328 10.859 2.4141 16.254 0.99219 6.5312 1.918 13.062 2.8398 19.52 0.42578 2.9102 1.9883 4.6836 4.6836 5.75 11.074 4.4023 22.078 8.875 33.078 13.344 0.99219 0.42578 2.0586 0.71094 2.9805 0.99219 1.418-1.1367 0.99219-2.4141 0.78125-3.6211-0.42578-3.1953-0.92188-6.3164-1.3477-9.5117-1.207-8.7305-2.4141-17.391-3.6211-26.121-0.42578-3.3359-2.1289-5.5352-5.3242-6.7422-11.215-4.4023-22.43-8.9453-33.648-13.344-0.92187-0.35547-1.8438-0.56641-3.2656-0.92188zm111.8-439.54c-1.0664 0.71094-1.8438 1.1367-2.5547 1.7031-6.3164 4.9688-12.562 9.9375-18.883 14.906-3.5508 2.8398-7.168 5.6797-10.789 8.4453-1.918 1.4922-2.8398 3.3359-2.3438 5.75 0.14062 0.64062 0.14062 1.3477 0.28516 1.9883 0.78125 5.3242 1.6328 10.719 2.4141 16.043 0.92188 6.2461 1.7734 12.562 2.7695 18.812 0.14062 1.1367 0.070313 2.4141 1.418 3.3359 0.92188-0.64062 1.918-1.207 2.8398-1.918 3.9023-3.0508 7.8086-6.1758 11.711-9.2266 5.6797-4.4727 11.359-9.0156 17.105-13.488 1.9883-1.5625 2.9102-3.4062 2.2734-5.9609-0.49609-2.0586-0.85156-4.1172-1.1367-6.2461-1.3477-9.582-2.6992-19.238-4.0469-28.82-0.21484-1.6328-0.64063-3.2656-1.0664-5.3242zm46.211 247.31c0.78125 1.207 1.207 1.918 1.7031 2.5547 7.5938 9.7266 15.262 19.379 22.715 29.176 1.9883 2.625 4.2578 3.6914 7.3828 3.0508 0.35547 0 0.64062-0.14062 0.99219-0.14062 6.6016-0.92188 13.203-1.918 19.805-2.8398 5.1094-0.71094 10.223-1.418 15.262-2.1992 0.99219-0.14062 1.9883-0.49609 3.2656-0.85156-0.49609-0.92188-0.78125-1.5625-1.1367-2.0586-7.668-9.9375-15.402-19.875-23.141-29.812-1.5625-2.0586-3.6211-2.9102-6.1758-2.6992-0.78125 0.070313-1.4922 0.14062-2.2734 0.28516-10.434 1.4922-20.871 2.9805-31.305 4.4727-2.1289 0.28516-4.332 0.71094-7.0273 1.1367zm-34.781 149.21c0.28516 2.6992 0.49609 4.7578 0.78125 6.8164 1.5625 11.145 3.125 22.219 4.6836 33.363 0.35547 2.625 1.6328 4.332 4.1172 5.2539 2.7695 1.0664 5.4648 2.1992 8.2344 3.3359 8.7305 3.5508 17.461 7.168 26.266 10.719 0.92188 0.35547 1.918 1.1367 3.3359 0.49609 0-0.78125 0-1.6328-0.14062-2.4141-1.7031-12.352-3.5508-24.773-5.1836-37.125-0.42578-3.0508-1.8438-4.8281-4.6836-5.9609-11.359-4.4727-22.715-9.0859-34.074-13.629-0.85156-0.35547-1.7031-0.49609-3.2656-0.92188zm-35.988 80.711c-1.207 0.78125-2.1992 1.207-2.9805 1.8438-2.9102 2.2734-5.8203 4.6133-8.7305 6.8867-6.8164 5.3945-13.629 10.789-20.516 16.184-1.7734 1.418-2.7695 2.9805-2.4141 5.3945 1.918 12.422 3.6914 24.914 5.6094 37.34 0.14062 1.1367 0.56641 2.1992 0.92188 3.6211 1.1367-0.71094 1.918-1.207 2.625-1.7734 2.9102-2.2734 5.8203-4.6133 8.7305-6.957 6.8867-5.4648 13.77-10.934 20.656-16.328 1.7031-1.3477 2.6992-2.8398 2.3438-5.1836-1.8438-12.777-3.6914-25.555-5.5352-38.332-0.14062-0.78125-0.42578-1.5625-0.71094-2.6992zm-75.031-176.33c-0.42578-0.78125-0.78125-1.4922-1.2773-2.1289-7.7383-9.9375-15.477-19.875-23.141-29.812-1.6328-2.1289-3.5508-2.8398-6.1758-2.4141-12.137 1.7734-24.277 3.3359-36.414 5.0391-1.1367 0.14063-2.1992 0.49609-3.832 0.85156 0.78125 1.207 1.2773 1.9883 1.8438 2.7695 7.0977 9.2266 14.41 18.387 21.297 27.754 2.5547 3.4062 5.3945 4.8984 9.5117 4.0469 0.28516 0 0.49609 0 0.78125-0.070313 10.504-1.4922 21.082-2.9805 31.59-4.543 1.8438-0.28516 3.9023-0.14062 5.8203-1.418zm169.8 204.79c1.418-0.92188 2.3438-1.4922 3.1953-2.1289 5.6094-4.4727 11.215-8.9453 16.824-13.488 4.2578-3.4062 8.4453-6.8164 12.707-10.078 1.7031-1.3477 2.4141-2.9102 1.8438-5.1094-0.35547-1.4922-0.56641-2.9805-0.78125-4.4727-1.6328-11.215-3.3359-22.43-4.9688-33.574-0.35547-2.625-0.99219-2.9102-2.9102-1.3477-9.8672 7.8789-19.664 15.758-29.602 23.496-2.1992 1.7031-2.9805 3.6211-2.5547 6.3867 1.7734 11.43 3.4062 22.93 5.1094 34.355 0.28516 1.8438 0.64062 3.6211 1.0664 6.0352zm-135.3-353.86c0.85156-1.418 0.64062-2.625 0.49609-3.7617-0.42578-3.125-0.92188-6.1758-1.3477-9.3008-1.207-8.5898-2.5547-17.25-3.6211-25.84-0.42578-3.4766-2.1289-5.6094-5.3945-6.8867-5.2539-1.918-10.363-4.1172-15.547-6.2461-6.0352-2.4844-11.996-4.9688-18.031-7.3828-0.85156-0.35547-1.8438-0.42578-3.125-0.71094 0.14062 1.7031 0.14062 2.9102 0.35547 4.1875 1.1367 7.9492 2.2734 15.902 3.4062 23.852 0.56641 3.9023 1.1367 7.8789 1.7734 11.785 0.49609 3.3359 2.3438 5.4648 5.6094 6.4609 2.3438 0.71094 4.6133 1.6328 6.8867 2.5547 8.5898 3.4062 17.105 6.8164 25.625 10.223 0.92188 0.35547 1.918 0.64062 2.9805 1.0664zm-190.59 219.98c0.92187 1.3477 1.4922 2.2734 2.1289 3.125 2.7695 3.6211 5.6094 7.2422 8.375 10.789 4.7578 6.0352 9.5117 12.137 14.195 18.172 1.6328 2.1289 3.6211 3.125 6.3867 2.625 4.1875-0.71094 8.375-1.2773 12.562-1.8438 8.1641-1.1367 16.398-2.1992 24.562-3.4062 0.78125-0.14062 1.7734-0.42578 2.1992-0.92188 0.64062-0.92188-0.21484-1.7031-0.78125-2.4141-1.2773-1.7031-2.625-3.2656-3.9766-4.9688-5.9609-7.668-11.996-15.332-17.887-23-2.1992-2.8398-4.9688-4.1875-8.5195-3.9766-0.56641 0-1.207 0-1.7734 0.14062-11.43 1.6328-22.93 3.2656-34.355 4.8984-0.85156 0.14062-1.7734 0.42578-3.125 0.78125zm354.07-285.64c-1.3477 0.92188-2.4141 1.5625-3.4062 2.3438-8.3047 6.5312-16.539 13.133-24.844 19.664-1.418 1.1367-2.7695 2.1992-4.1875 3.2656-1.6328 1.2773-2.3438 2.8398-1.9883 4.8984 0.14062 1.1367 0.35547 2.3438 0.49609 3.4766 1.7031 11.5 3.3359 23.07 5.0391 34.57 0.14062 0.92188 0.56641 1.8438 0.92188 2.9102 1.0664-0.64062 1.8438-0.99219 2.4844-1.5625 10.078-8.0195 20.16-16.113 30.312-24.207 1.4922-1.207 1.9883-2.5547 1.7031-4.4023-0.56641-2.9102-0.92188-5.8203-1.3477-8.7305-1.4922-9.7969-2.9805-19.52-4.4727-29.316-0.14063-0.85156-0.42578-1.7031-0.78125-3.0508zm-325.75 189.88c-0.78125-1.3477-1.1367-2.2734-1.7734-2.9805-7.0977-9.1562-14.27-18.242-21.367-27.398-2.4141-3.125-5.6797-4.4727-9.582-3.9766-3.7617 0.49609-7.5234 1.1367-11.285 1.6328-8.0938 1.1367-16.254 2.2734-24.348 3.4062-0.35547 0-0.71094 0-0.99219 0.14062-1.0664 0.28516-1.418 0.92188-0.92188 1.918 0.14062 0.35547 0.49609 0.71094 0.71094 0.99219 7.668 9.7969 15.262 19.594 22.93 29.387 0.28516 0.42578 0.64062 0.78125 0.99219 1.207 1.4922 1.7031 3.3359 2.4844 5.6797 2.0586 1.4922-0.28516 2.9805-0.49609 4.4727-0.71094 10.719-1.5625 21.438-3.125 32.086-4.6836 0.99219-0.14062 1.918-0.49609 3.4062-0.85156zm402.55-3.9023-0.35547 0.71094c0.78125 1.1367 1.5625 2.3438 2.4141 3.4062 6.7422 8.6602 13.559 17.25 20.09 26.051 2.9102 3.9023 6.3867 5.1836 11.004 4.4727 11.359-1.7031 22.715-3.2656 34.074-4.8984 0.92188-0.14062 1.8438-0.49609 3.125-0.78125-0.92188-1.2773-1.4922-2.2734-2.1992-3.1953-6.0352-7.8086-12.137-15.617-18.242-23.426-1.6328-2.0586-3.2656-4.1172-4.8281-6.1758-1.1367-1.418-2.4844-2.2734-4.332-1.9883-3.832 0.49609-7.7383 0.85156-11.57 1.418-7.4531 1.0664-14.836 2.1992-22.289 3.3359-2.2734 0.35547-4.6133 0.71094-6.8867 1.0664zm-175.12 75.953c-1.207 0.78125-1.8438 1.1367-2.4141 1.5625-10.008 7.9492-20.02 15.902-30.027 23.781-1.7734 1.418-2.5547 2.9102-2.1992 5.2539 0.78125 4.8281 1.418 9.7266 2.1289 14.551 1.1367 7.8086 2.2734 15.547 3.4766 23.281 0.14062 0.85156 0.49609 1.7031 0.85156 2.9805 1.3477-0.92188 2.4141-1.5625 3.4062-2.3438 7.9492-6.3164 15.828-12.637 23.781-19.023 1.8438-1.4922 3.6914-2.9102 5.5352-4.4023 1.5625-1.2773 2.2734-2.8398 1.7031-4.9688-0.35547-1.207-0.49609-2.4844-0.71094-3.7617-1.207-8.5898-2.3438-17.25-3.5508-25.84-0.49609-3.4766-1.2773-6.957-1.9883-11.074zm-250.01-112.23c1.8438 0 3.1953 0.14062 4.4727 0 11.43-1.7734 22.855-3.6211 34.285-5.3242 3.4766-0.49609 5.6094-2.2734 6.8164-5.5352 4.332-11.145 8.875-22.289 13.273-33.434 0.35547-0.85156 0.56641-1.7031 0.92188-2.9805-2.0586 0.14062-3.7617 0.070312-5.3945 0.35547-11.57 1.6328-23.07 3.3359-34.57 4.8984-2.625 0.35547-4.332 1.5625-5.3242 4.0469-4.543 11.641-9.1562 23.281-13.699 34.926-0.35547 0.85156-0.49609 1.7031-0.85156 3.125zm404.47-47.133c-1.0664-0.070313-1.7031-0.28516-2.2734-0.21484-2.4141 0.28516-4.8281 0.64062-7.3125 0.99219-9.9375 1.418-19.875 2.9805-29.883 4.1875-2.9805 0.35547-4.6836 1.5625-5.8203 4.4023-4.4023 11.43-9.0156 22.785-13.488 34.215-1.3477 3.4766-0.85156 4.1172 2.7695 3.5508 12.066-1.7734 24.062-3.6211 36.133-5.3945 2.6992-0.42578 4.4023-1.918 5.3945-4.4023 4.332-11.145 8.7305-22.359 13.133-33.504 0.42578-1.0664 0.78125-2.1992 1.2773-3.832zm-22.785-40.746c0.99219 1.4922 1.5625 2.4844 2.2734 3.4062 7.0977 9.1562 14.27 18.242 21.223 27.473 2.4141 3.2656 5.3242 4.332 9.2266 3.7617 10.789-1.6328 21.578-3.0508 32.367-4.543 1.918-0.28516 3.7617-0.71094 6.0352-1.0664-0.64063-0.99219-1.0664-1.7734-1.5625-2.4141-7.5938-9.7969-15.262-19.594-22.855-29.457-1.9883-2.625-4.4023-3.4062-7.5234-2.8398-3.2656 0.56641-6.5312 0.92187-9.7969 1.418-8.7305 1.207-17.391 2.4141-26.121 3.6211-0.92187 0.14062-1.7734 0.35547-3.2656 0.71094zm-344.84-0.070313c0.99219 1.418 1.4922 2.2734 2.1992 3.125 3.6914 4.7578 7.4531 9.3711 11.145 14.125 3.125 4.1172 6.2461 8.2344 9.2266 12.422 2.6992 3.7617 6.1055 5.6797 10.859 4.9688 11.5-1.7031 23.07-3.3359 34.57-5.0391 0.92187-0.14062 1.8438-0.49609 3.0508-0.85156-0.49609-0.92187-0.71094-1.5625-1.1367-2.0586-7.8789-10.152-15.828-20.23-23.707-30.383-1.5625-1.9883-3.4766-2.6992-6.0352-2.3438-11.074 1.6328-22.219 3.1953-33.363 4.7578-2.0586 0.28516-4.1172 0.71094-6.8164 1.1367zm302.18 223.82c0.92188 1.418 1.418 2.2734 1.9883 3.0508 4.332 5.6094 8.7305 11.215 13.062 16.824 3.4766 4.4727 7.0273 8.875 10.504 13.344 1.2773 1.6328 2.7695 2.1289 4.8984 1.7734 11.285-1.7031 22.574-3.2656 33.859-4.8984 2.1289-0.28516 4.2578-0.71094 6.8164-1.1367-0.64063-1.0664-0.92188-1.7031-1.418-2.2734-7.3125-9.5117-14.621-19.023-21.934-28.535-2.1992-2.8398-5.0391-4.1172-8.6602-3.9023-0.85156 0-1.7031 0.14063-2.5547 0.28516-10.152 1.418-20.23 2.9102-30.383 4.332-1.918 0.28516-3.7617 0.64062-6.2461 1.0664zm48.059-11.43c1.2773-0.070312 1.9883-0.070312 2.6992-0.21484 4.2578-0.56641 8.5195-1.207 12.777-1.7734 8.375-1.207 16.754-2.3438 25.059-3.4766 2.4141-0.35547 4.0469-1.4922 4.8984-3.832 4.4727-11.641 9.0156-23.281 13.559-34.926 0.28516-0.78125 0.49609-1.5625 0.71094-2.4141-1.0664-0.92187-2.1289-0.85156-3.2656-0.64062-12.211 1.7734-24.418 3.5508-36.629 5.3242-2.4141 0.35547-4.0469 1.4922-4.8281 3.832-0.21484 0.56641-0.49609 1.0664-0.71094 1.6328-4.4727 11.145-8.9453 22.289-13.344 33.434-0.35547 0.85156-0.56641 1.7031-0.99219 3.125zm-288.7 102.36c1.3477-0.85156 2.1992-1.2773 2.9102-1.7734 9.8672-7.8086 19.734-15.688 29.602-23.496 1.918-1.5625 2.625-3.3359 2.1992-5.75-0.56641-2.9805-0.92188-6.0352-1.3477-9.0156-1.3477-9.582-2.6992-19.238-4.1172-28.82-0.14062-0.78125-0.49609-1.4922-0.85156-2.625-1.418 0.99219-2.4844 1.7031-3.5508 2.5547-8.2344 6.4609-16.469 12.918-24.703 19.379-0.71094 0.56641-1.418 1.1367-2.1289 1.7734-3.2656 3.0508-4.4727 6.7422-3.5508 11.074 2.0586 9.7969 3.3359 19.664 4.4727 29.531 0.28516 2.1992 0.71094 4.4727 1.1367 7.2422zm3.9766-149.14c-1.5625-0.92188-2.8398-0.64062-4.0469-0.42578-12.066 1.7734-24.062 3.4766-36.133 5.2539-2.625 0.35547-4.2578 1.7734-5.1836 4.1875-4.4727 11.57-9.0859 23.141-13.559 34.711-0.35547 0.85156-0.49609 1.7031-0.78125 2.8398 0.99219 0 1.6328 0.070312 2.1992 0 12.352-1.7031 24.773-3.4766 37.125-5.1094 2.9102-0.42578 4.6836-1.8438 5.75-4.543 4.4727-11.285 9.0156-22.574 13.559-33.859 0.35547-0.92188 0.64063-1.918 0.99219-2.9805zm94.621-112.87c1.2773-0.78125 1.9883-1.1367 2.625-1.7031 10.078-8.0195 20.23-16.113 30.312-24.137 1.418-1.1367 1.918-2.4141 1.6328-4.1875-0.35547-2.0586-0.64062-4.1875-0.92188-6.2461-1.5625-10.859-3.0508-21.723-4.6133-32.582-0.14062-0.78125-0.42578-1.4922-0.78125-2.625-1.3477 0.92188-2.4141 1.6328-3.4062 2.3438-6.957 5.5352-13.844 11.074-20.797 16.609-1.7031 1.3477-3.5508 2.5547-5.2539 3.9766-4.1875 3.3359-5.6094 7.668-4.4023 12.848 2.0586 9.1562 3.2656 18.457 4.332 27.754 0.28516 2.4844 0.78125 4.9688 1.2773 8.0195zm-148.71 28.18c1.7031 0 2.8398 0.14062 3.832 0 11.57-1.6328 23.07-3.3359 34.641-5.0391 0.85156-0.14062 1.7031-0.49609 2.9102-0.78125-0.85156-1.2773-1.3477-2.1992-1.9883-3.0508-7.3125-9.5117-14.695-18.953-22.078-28.465-0.35547-0.49609-0.92188-0.85156-1.5625-1.3477-0.49609 0.71094-0.92188 1.1367-1.1367 1.6328-4.6836 12.211-9.7266 24.207-14.551 37.055zm334.84 129.62c0.56641-1.1367 1.1367-2.0586 1.5625-3.0508 4.4023-10.934 8.7305-21.793 13.062-32.723 0.35547-0.78125 0.42578-1.7031 0.64063-2.5547-2.5547-0.49609-38.543 4.6836-40.676 5.8203 0.64062 1.918 23 30.738 25.414 32.582zm-67.789-157.3-0.35547 0.71094c0.64062 0.92188 1.207 1.9883 1.918 2.8398 6.8164 8.8008 13.699 17.535 20.586 26.336 0.64062 0.78125 1.1367 1.6328 1.8438 2.4141 0.78125 0.85156 1.4922 0.71094 1.9883-0.28516 0.49609-0.99219 0.78125-2.0586 1.207-3.0508 4.1172-10.363 8.1641-20.727 12.281-31.09 0.42578-1.0664 0.64062-2.1992 1.1367-3.6211-1.0664 0-1.8438-0.070313-2.5547 0-12.637 1.918-25.27 3.832-37.906 5.75zm-142.9-139.34c-2.5547 1.0664-30.809 23.496-32.156 25.555 0.64063 0.35547 1.2773 0.78125 1.918 1.0664 11.145 4.6133 22.359 9.1562 33.504 13.699 0.71094 0.28516 1.4922 0.42578 2.4844 0.71094 0-1.4922 0.070313-2.5547 0-3.6211-0.42578-3.2656-0.85156-6.5312-1.3477-9.7969-1.1367-8.0938-2.3438-16.254-3.5508-24.348-0.14062-1.1367-0.56641-2.1992-0.92188-3.3359zm304.1 285.36c-0.71094-2.4844-22.855-31.02-25.199-32.582-0.21484 0.21484-0.56641 0.35547-0.64062 0.64062-4.6133 11.785-9.2266 23.566-13.844 35.422-0.21484 0.56641-0.28516 1.2773-0.49609 2.2734 1.207 0 2.1289 0.14062 3.0508 0 11.285-1.6328 22.574-3.3359 33.859-4.9688 1.1367-0.14062 2.1992-0.56641 3.3359-0.85156zm-369.69-33.148c-0.64062 1.1367-1.0664 1.6328-1.2773 2.2734-4.543 11.43-9.1562 22.855-13.699 34.355-0.28516 0.64062-0.28516 1.418-0.49609 2.1992 0.78125 0.14062 1.2773 0.35547 1.7031 0.28516 12.352-1.7734 24.703-3.6211 37.055-5.3945 0.56641-0.070312 1.0664-0.35547 1.7031-0.64062-0.21484-0.64062-0.28516-1.1367-0.56641-1.4922-8.0195-10.363-16.113-20.797-24.488-31.59zm327.24-91.359c-0.64062-1.0664-1.1367-2.0586-1.7734-2.8398-7.0273-9.0859-14.055-18.172-21.152-27.258-0.42578-0.49609-0.85156-1.0664-1.3477-1.4922-0.71094-0.56641-1.418-0.49609-1.918 0.35547-0.21484 0.35547-0.35547 0.78125-0.56641 1.1367-4.4727 11.359-9.0156 22.785-13.488 34.145-0.21484 0.56641-0.28516 1.207-0.42578 1.8438 2.8398 0.35547 38.117-4.6836 40.602-5.8906zm-250.5 281.67c-1.7031-1.418-34.855-14.977-37.836-15.477 0 0.64063-0.21484 1.2773-0.14062 1.918 1.7734 12.992 3.4766 26.051 5.5352 39.043 2.3438-0.78125 30.949-23.281 32.512-25.484zm90.719-17.105c1.3477-0.92188 2.1289-1.3477 2.8398-1.918 9.3008-7.3125 18.527-14.695 27.824-22.078 0.71094-0.56641 1.2773-1.207 1.9883-1.9883-0.85156-0.49609-1.2773-0.85156-1.8438-1.0664-11.215-4.6133-22.504-9.2266-33.789-13.844-0.71094-0.28516-1.5625-0.35547-2.4844-0.64062-0.21484 0.71094-0.49609 1.207-0.42578 1.6328 1.8438 13.062 3.7617 26.051 5.8203 39.75zm-128.7-345.98c0 1.1367-0.14062 2.3438 0 3.4062 1.6328 11.641 3.2656 23.281 4.9688 34.855 0.14062 0.78125 0.42578 1.5625 0.71094 2.625 0.92188-0.56641 1.6328-0.92188 2.1992-1.3477 9.582-7.5938 19.164-15.262 28.75-22.93 0.56641-0.42578 0.99219-0.99219 1.4922-1.5625-2.2734-1.7031-35.918-15.047-38.117-15.121zm155.88-81.492c0-1.2773 0.14062-2.3438 0-3.4062-0.71094-5.3242-1.4922-10.719-2.2734-16.043-0.92188-6.4609-1.918-12.848-2.9102-19.309-0.14062-0.78125-0.42578-1.4922-0.71094-2.2734-2.625 1.2773-31.02 24.207-31.941 25.625 1.4922 1.2773 34.426 14.836 37.836 15.402zm-5.8906 306.8c-0.92188 0.56641-1.6328 0.92188-2.1992 1.3477-9.5117 7.5234-19.094 15.121-28.605 22.715-0.64062 0.49609-1.1367 1.1367-1.9883 1.9883l37.836 15.047c1.2773-1.0664 0.99219-2.0586 0.85156-3.0508-0.56641-4.1875-1.207-8.375-1.7734-12.562-1.1367-7.668-2.2734-15.402-3.4766-23.07-0.14062-0.71094-0.35547-1.418-0.64062-2.4141zm-325.18-164.89c1.1367 2.6992 23.211 30.949 25.199 32.227 1.4922-1.7031 14.906-36.059 14.977-38.402-1.918-0.35547-38.332 5.1836-40.176 6.1055zm207.84 248.95c0-1.3477 0.14062-2.4844 0-3.6211-0.56641-4.543-1.207-9.0156-1.8438-13.559-0.99219-6.6719-1.9883-13.344-3.0508-20.02-0.21484-1.1367-0.64062-2.1992-0.99219-3.6211-0.92188 0.56641-1.5625 0.85156-2.1289 1.2773-9.1562 7.2422-18.242 14.48-27.328 21.723-0.78125 0.56641-1.3477 1.418-1.9883 2.1289 2.3438 2.2734 31.445 14.41 37.41 15.617zm96.539-312.05c2.2734-0.78125 30.027-22.715 31.941-25.199-1.918-1.4922-35.492-14.906-37.977-15.191-0.070312 0.56641-0.28516 1.1367-0.21484 1.6328 0.42578 6.6016 5.3242 36.914 6.2461 38.758zm-221.19 180.94c-1.8438 0.21484-3.4062 0.42578-4.9688 0.64062-10.934 1.5625-21.863 3.125-32.797 4.6836-0.92187 0.14062-1.8438 0.49609-3.1953 0.85156 0.78125 1.1367 1.2773 1.9883 1.8438 2.8398 1.5625 2.0586 3.1953 4.1172 4.8281 6.1758 5.0391 6.4609 10.078 12.918 15.191 19.309 1.0664 1.3477 2.0586 2.8398 3.6914 3.6211 1.6328-1.7734 14.836-34.426 15.477-38.117z"/>
  <use x="72.378906" y="666.476563" xlink:href="#w"/>
  <use x="98.425781" y="666.476563" xlink:href="#e"/>
  <use x="115.929688" y="666.476563" xlink:href="#a"/>
  <use x="140" y="666.476563" xlink:href="#d"/>
  <use x="163.953125" y="666.476563" xlink:href="#c"/>
  <use x="180.917969" y="666.476563" xlink:href="#a"/>
  <use x="204.988281" y="666.476563" xlink:href="#j"/>
  <use x="242.753906" y="666.476563" xlink:href="#i"/>
  <use x="268.160156" y="666.476563" xlink:href="#f"/>
  <use x="303.652344" y="666.476563" xlink:href="#h"/>
  <use x="331.152344" y="666.476563" xlink:href="#d"/>
  <use x="355.105469" y="666.476563" xlink:href="#f"/>
  <use x="378.242188" y="666.476563" xlink:href="#v"/>
  <use x="390.40625" y="666.476563" xlink:href="#u"/>
  <use x="402.570312" y="666.476563" xlink:href="#a"/>
  <use x="439" y="666.476563" xlink:href="#t"/>
  <use x="474.320313" y="666.476563" xlink:href="#d"/>
  <use x="498.269531" y="666.476563" xlink:href="#s"/>
  <use x="519.394531" y="666.476563" xlink:href="#b"/>
  <use x="543.78125" y="666.476563" xlink:href="#g"/>
  <use x="72.378906" y="701.96875" xlink:href="#r"/>
  <use x="87.820312" y="701.96875" xlink:href="#e"/>
  <use x="105.324219" y="701.96875" xlink:href="#b"/>
  <use x="129.707031" y="701.96875" xlink:href="#q"/>
  <use x="179.046875" y="701.96875" xlink:href="#c"/>
  <use x="196.011719" y="701.96875" xlink:href="#p"/>
  <use x="221.28125" y="701.96875" xlink:href="#a"/>
  <use x="257.707031" y="701.96875" xlink:href="#o"/>
  <use x="287.414062" y="701.96875" xlink:href="#b"/>
  <use x="311.796875" y="701.96875" xlink:href="#n"/>
  <use x="337.0625" y="701.96875" xlink:href="#g"/>
  <use x="374.6875" y="701.96875" xlink:href="#m"/>
  <use x="400.699219" y="701.96875" xlink:href="#e"/>
  <use x="418.203125" y="701.96875" xlink:href="#b"/>
  <use x="442.589844" y="701.96875" xlink:href="#l"/>
  <use x="454.753906" y="701.96875" xlink:href="#a"/>
  <use x="478.824219" y="701.96875" xlink:href="#k"/>
  <use x="499.863281" y="701.96875" xlink:href="#c"/>
 </g>
</svg>
