<svg width="700pt" height="700pt" viewBox="0 0 700 700" xmlns="http://www.w3.org/2000/svg" xmlns:xlink="http://www.w3.org/1999/xlink"><defs><symbol id="a" overflow="visible"><path d="M20.844-1.25a14.621 14.621 0 0 1-3.36 1.266 15.506 15.506 0 0 1-3.64.421c-3.781 0-6.777-1.05-8.984-3.156-2.211-2.113-3.313-4.976-3.313-8.594 0-3.625 1.102-6.492 3.313-8.609 2.207-2.113 5.203-3.172 8.984-3.172 1.258 0 2.473.149 3.64.438 1.165.28 2.286.699 3.36 1.25v4.703c-1.086-.739-2.152-1.281-3.203-1.625a10.672 10.672 0 0 0-3.328-.516c-2.086 0-3.727.668-4.922 2-1.2 1.336-1.797 3.18-1.797 5.531 0 2.336.598 4.172 1.797 5.516 1.195 1.336 2.836 2 4.922 2 1.164 0 2.273-.172 3.328-.516 1.05-.343 2.117-.882 3.203-1.625z"/></symbol><symbol id="b" overflow="visible"><path d="M15.25-12.375a6.878 6.878 0 0 0-1.422-.5 6.719 6.719 0 0 0-1.422-.156c-1.398 0-2.476.449-3.234 1.344-.75.898-1.125 2.18-1.125 3.843V0H2.609v-17.016h5.438v2.797c.695-1.113 1.5-1.926 2.406-2.437.906-.508 1.992-.766 3.266-.766.175 0 .367.012.578.031.218.012.531.043.937.094z"/></symbol><symbol id="c" overflow="visible"><path d="M19.594-8.547V-7H6.875c.133 1.273.598 2.23 1.39 2.875.79.637 1.895.953 3.313.953 1.145 0 2.317-.164 3.516-.5 1.195-.344 2.43-.86 3.703-1.547v4.188A22.257 22.257 0 0 1 14.922.063c-1.281.25-2.563.375-3.844.375-3.086 0-5.48-.782-7.187-2.344C2.19-3.47 1.344-5.66 1.344-8.484c0-2.782.832-4.961 2.5-6.547 1.675-1.594 3.984-2.39 6.922-2.39 2.675 0 4.816.808 6.421 2.421 1.602 1.606 2.407 3.758 2.407 6.453zM14-10.359c0-1.032-.304-1.864-.906-2.5-.594-.633-1.383-.954-2.36-.954-1.054 0-1.906.297-2.562.891s-1.07 1.45-1.234 2.563z"/></symbol><symbol id="d" overflow="visible"><path d="M10.234-7.656c-1.137 0-1.992.195-2.563.578-.562.387-.843.953-.843 1.703 0 .688.226 1.23.687 1.625.457.387 1.098.578 1.922.578 1.02 0 1.879-.363 2.578-1.094.696-.738 1.047-1.66 1.047-2.765v-.625zm8.313-2.047V0h-5.485v-2.516c-.73 1.032-1.555 1.782-2.469 2.25-.906.47-2.011.704-3.312.704-1.762 0-3.195-.508-4.297-1.532-1.094-1.03-1.64-2.367-1.64-4.015 0-1.989.679-3.446 2.046-4.375 1.375-.938 3.531-1.406 6.469-1.406h3.203v-.422c0-.864-.34-1.493-1.015-1.891-.68-.406-1.735-.61-3.172-.61-1.168 0-2.258.122-3.266.36-1 .23-1.93.578-2.781 1.047v-4.156a32.153 32.153 0 0 1 3.5-.64 28.904 28.904 0 0 1 3.531-.22c3.07 0 5.285.606 6.64 1.813 1.364 1.21 2.048 3.18 2.048 5.906z"/></symbol><symbol id="e" overflow="visible"><path d="M8.547-21.844v4.828h5.61v3.89h-5.61v7.22c0 .792.156 1.328.469 1.609.32.273.945.406 1.875.406h2.797V0H9.016C6.867 0 5.348-.445 4.453-1.343 3.555-2.24 3.11-3.758 3.11-5.907v-7.218H.406v-3.891H3.11v-4.828z"/></symbol><symbol id="f" overflow="visible"><path d="M14.188-14.516v-9.125h5.469V0h-5.469v-2.453c-.75 1-1.578 1.734-2.484 2.203-.899.457-1.938.688-3.125.688-2.094 0-3.82-.833-5.172-2.5C2.063-3.728 1.39-5.867 1.39-8.485c0-2.625.672-4.77 2.016-6.438 1.351-1.664 3.078-2.5 5.172-2.5 1.175 0 2.218.234 3.125.703s1.734 1.203 2.484 2.203zm-3.578 11c1.156 0 2.039-.422 2.656-1.266.613-.851.922-2.086.922-3.703 0-1.625-.309-2.86-.922-3.703-.617-.851-1.5-1.281-2.656-1.281s-2.043.43-2.656 1.281c-.617.844-.922 2.078-.922 3.703 0 1.617.305 2.852.922 3.703.613.844 1.5 1.266 2.656 1.266z"/></symbol><symbol id="g" overflow="visible"><path d="M11.672-3.516c1.156 0 2.04-.421 2.656-1.265.613-.852.922-2.086.922-3.703 0-1.625-.309-2.86-.922-3.703-.617-.852-1.5-1.282-2.656-1.282-1.168 0-2.063.43-2.688 1.282-.624.855-.937 2.09-.937 3.703 0 1.605.313 2.836.938 3.687.625.856 1.519 1.281 2.687 1.281zm-3.625-11c.75-1 1.578-1.734 2.484-2.203.914-.468 1.97-.703 3.157-.703 2.093 0 3.812.836 5.156 2.5 1.351 1.668 2.031 3.813 2.031 6.438 0 2.617-.68 4.757-2.031 6.422C17.5-.394 15.78.438 13.688.438c-1.188 0-2.243-.235-3.157-.704-.906-.468-1.734-1.195-2.484-2.187V0H2.609v-23.64h5.438z"/></symbol><symbol id="h" overflow="visible"><path d="M.375-17.016h5.438L10.39-5.469l3.89-11.547h5.438L12.562 1.609c-.718 1.895-1.558 3.219-2.515 3.969-.961.758-2.219 1.14-3.781 1.14H3.109V3.14h1.704c.925 0 1.597-.148 2.015-.437.414-.293.742-.82.985-1.578l.14-.469z"/></symbol><symbol id="i" overflow="visible"><path d="M2.86-22.672h7.437l5.172 12.125 5.187-12.125h7.438V0h-5.531v-16.594L17.328-4.36h-3.703L8.406-16.594V0H2.86z"/></symbol><symbol id="j" overflow="visible"><path d="M2.86-22.672h15.78v4.406H8.703v4.235h9.344v4.422H8.703v5.187h10.266V0H2.859z"/></symbol><symbol id="k" overflow="visible"><path d="M13.812-23.641v3.578h-3.016c-.773 0-1.308.14-1.609.422-.305.273-.453.75-.453 1.437v1.188h4.64v3.89h-4.64V0H3.296v-13.125H.593v-3.891h2.703v-1.188c0-1.851.516-3.222 1.547-4.109 1.031-.883 2.63-1.328 4.797-1.328z"/></symbol><symbol id="l" overflow="visible"><path d="M10.703-13.531c-1.2 0-2.117.434-2.75 1.297-.637.867-.953 2.117-.953 3.75 0 1.625.316 2.871.953 3.734.633.867 1.55 1.297 2.75 1.297 1.188 0 2.094-.43 2.719-1.297.633-.863.953-2.11.953-3.734 0-1.633-.32-2.883-.953-3.75-.625-.863-1.531-1.297-2.719-1.297zm0-3.89c2.926 0 5.21.792 6.86 2.374 1.644 1.575 2.468 3.762 2.468 6.563 0 2.793-.824 4.98-2.469 6.562C15.914-.347 13.63.438 10.703.438c-2.938 0-5.234-.785-6.89-2.36-1.649-1.582-2.47-3.77-2.47-6.562 0-2.8.82-4.988 2.47-6.563 1.656-1.582 3.952-2.375 6.89-2.375z"/></symbol><symbol id="m" overflow="visible"><path d="M18.375-14.188c.688-1.05 1.504-1.852 2.453-2.406a6.1 6.1 0 0 1 3.125-.828c1.957 0 3.445.605 4.469 1.812 1.02 1.2 1.531 2.95 1.531 5.25V0h-5.469v-8.876c.008-.125.016-.258.016-.406.008-.145.016-.348.016-.61 0-1.206-.18-2.081-.532-2.624-.355-.54-.93-.813-1.719-.813-1.03 0-1.828.43-2.39 1.281-.563.856-.856 2.086-.875 3.688V0H13.53v-8.876c0-1.883-.164-3.098-.484-3.64-.325-.54-.903-.813-1.735-.813-1.043 0-1.851.434-2.422 1.297-.562.855-.843 2.074-.843 3.656V0h-5.47v-17.016h5.47v2.5c.664-.969 1.43-1.691 2.297-2.172a5.799 5.799 0 0 1 2.875-.734c1.175 0 2.21.289 3.109.86.906.562 1.586 1.355 2.047 2.374z"/></symbol><symbol id="n" overflow="visible"><path d="M19.719-10.359V0H14.25v-7.906c0-1.477-.039-2.492-.11-3.047-.062-.563-.171-.977-.327-1.25a2.343 2.343 0 0 0-.875-.828 2.586 2.586 0 0 0-1.235-.297c-1.136 0-2.03.445-2.687 1.328-.649.875-.969 2.086-.969 3.625V0H2.61v-23.641h5.437v9.125c.82-1 1.691-1.734 2.61-2.203.925-.469 1.945-.703 3.062-.703 1.957 0 3.445.605 4.469 1.812 1.02 1.2 1.531 2.95 1.531 5.25z"/></symbol><symbol id="o" overflow="visible"><path d="M2.86-22.672h6.53l8.25 15.547v-15.547h5.547V0h-6.546L8.406-15.562V0H2.86z"/></symbol><symbol id="p" overflow="visible"><path d="M2.438-6.625v-10.391h5.468v1.703c0 .93-.008 2.09-.015 3.485a368.882 368.882 0 0 0-.016 2.78c0 1.368.031 2.352.094 2.954.07.605.195 1.043.375 1.312.219.356.504.633.86.828a2.69 2.69 0 0 0 1.25.282c1.132 0 2.023-.43 2.671-1.297.645-.875.969-2.086.969-3.64v-8.407h5.437V0h-5.437v-2.453c-.824.992-1.695 1.719-2.61 2.187-.918.47-1.93.703-3.03.703C6.491.437 5-.16 3.968-1.359 2.945-2.566 2.438-4.32 2.438-6.625z"/></symbol><symbol id="q" overflow="visible"><path d="M19.719-10.359V0H14.25v-7.922c0-1.469-.039-2.477-.11-3.031-.062-.563-.171-.977-.327-1.25a2.343 2.343 0 0 0-.875-.828 2.586 2.586 0 0 0-1.235-.297c-1.136 0-2.03.445-2.687 1.328-.649.875-.969 2.086-.969 3.625V0H2.61v-17.016h5.437v2.5c.82-1 1.691-1.734 2.61-2.203.925-.469 1.945-.703 3.062-.703 1.957 0 3.445.605 4.469 1.812 1.02 1.2 1.531 2.95 1.531 5.25z"/></symbol><symbol id="r" overflow="visible"><path d="M2.86-22.672h9.702c2.883 0 5.098.64 6.641 1.922 1.55 1.281 2.328 3.105 2.328 5.469 0 2.375-.777 4.203-2.328 5.484-1.543 1.281-3.758 1.922-6.64 1.922h-3.86V0H2.86zm5.843 4.234v6.328h3.235c1.132 0 2.007-.273 2.625-.828.625-.55.937-1.332.937-2.343 0-1.008-.312-1.786-.937-2.329-.618-.55-1.493-.828-2.625-.828z"/></symbol><symbol id="s" overflow="visible"><path d="M2.61-17.016h5.437V-.297c0 2.27-.547 4.004-1.64 5.203-1.094 1.207-2.68 1.813-4.75 1.813h-2.688V3.14h.937c1.032 0 1.739-.235 2.125-.704.383-.46.578-1.37.578-2.734zm0-6.625h5.437v4.438H2.609z"/></symbol><symbol id="t" overflow="visible"><path d="M16.359-16.484v4.438c-.742-.508-1.484-.883-2.234-1.126a7.514 7.514 0 0 0-2.313-.359c-1.512 0-2.695.445-3.547 1.328C7.421-11.316 7-10.078 7-8.484c0 1.586.421 2.82 1.265 3.703.852.887 2.035 1.328 3.547 1.328.852 0 1.66-.125 2.422-.375a6.993 6.993 0 0 0 2.125-1.125V-.5c-.855.313-1.719.547-2.594.703s-1.75.235-2.625.235c-3.074 0-5.476-.785-7.203-2.36-1.73-1.57-2.594-3.757-2.594-6.562 0-2.813.864-5.004 2.594-6.578 1.727-1.57 4.129-2.36 7.203-2.36.883 0 1.758.079 2.625.235.863.156 1.727.39 2.594.703z"/></symbol></defs><path d="M444.937 81.355h-196.36l-98.18 39.316L248.577 160h196.36l98.18-39.329z" fill="none" stroke="#000" stroke-miterlimit="10" stroke-width="3.1111"/><path d="M515.062 146.016l-83.166-34.991-168.31-2.582-85.133 32.417 83.172 34.992 168.304 2.582z" fill="none" stroke="#000" stroke-miterlimit="10" stroke-width="3.1111"/><path d="M487.012 171.36l-68.164-30.669-140.255-5.164-72.09 25.512 68.164 30.66 140.254 5.164z" fill="none" stroke="#000" stroke-miterlimit="10" stroke-width="3.1111"/><path d="M458.962 196.702l-53.156-26.343-112.205-7.742-59.047 18.597 53.156 26.34 112.205 7.746z" fill="none" stroke="#000" stroke-miterlimit="10" stroke-width="3.1111"/><path d="M430.912 222.04l-38.148-22.012-84.155-10.324-46.008 11.691 38.149 22.016 84.155 10.32z" fill="none" stroke="#000" stroke-miterlimit="10" stroke-width="3.1111"/><path d="M402.863 247.382L379.718 229.7l-56.101-12.91-32.957 4.785 23.14 17.687 56.098 12.906z" fill="none" stroke="#000" stroke-miterlimit="10" stroke-width="3.1111"/><path d="M374.807 272.725l-8.133-13.359-28.051-15.488-19.918-2.125 8.133 13.355 28.051 15.489z" fill="none" stroke="#000" stroke-miterlimit="10" stroke-width="3.1111"/><path d="M339.882 270.964v18.07l6.875 9.036 6.875-9.035v-18.07l-6.875-9.036zm-91.305 207.679h196.36l98.18-39.316-98.18-39.329h-196.36l-98.18 39.329z" fill="none" stroke="#000" stroke-miterlimit="10" stroke-width="3.1111"/><path d="M178.453 413.982l83.253 34.991 168.31 2.582 85.046-32.417-83.254-34.992-168.31-2.582z" fill="none" stroke="#000" stroke-miterlimit="10" stroke-width="3.1111"/><path d="M206.503 388.639l68.338 30.668 140.255 5.164 71.916-25.512-68.339-30.66-140.254-5.164z" fill="none" stroke="#000" stroke-miterlimit="10" stroke-width="3.1111"/><path d="M234.552 363.296l53.414 26.343 112.205 7.742 58.789-18.597-53.418-26.34-112.205-7.746z" fill="none" stroke="#000" stroke-miterlimit="10" stroke-width="3.1111"/><path d="M262.602 337.959l38.496 22.011 84.155 10.324 45.66-11.691-38.496-22.016-84.155-10.32z" fill="none" stroke="#000" stroke-miterlimit="10" stroke-width="3.1111"/><path d="M290.658 312.616l23.574 17.683 56.101 12.91 32.527-4.785-23.574-17.687-56.105-12.906z" fill="none" stroke="#000" stroke-miterlimit="10" stroke-width="3.1111"/><path d="M318.708 287.273l8.656 13.359 28.05 15.488 19.395 2.125-8.656-13.355-28.05-15.489z" fill="none" stroke="#000" stroke-miterlimit="10" stroke-width="3.1111"/><path d="M353.023 289.034v-18.07l-6.266-9.036-6.266 9.035v18.07l6.266 9.036z" fill="none" stroke="#000" stroke-miterlimit="10" stroke-width="3.1111"/><use x="70" y="653.332" xlink:href="#a"/><use x="92.832" y="653.332" xlink:href="#b"/><use x="108.176" y="653.332" xlink:href="#c"/><use x="129.273" y="653.332" xlink:href="#d"/><use x="150.27" y="653.332" xlink:href="#e"/><use x="165.141" y="653.332" xlink:href="#c"/><use x="186.242" y="653.332" xlink:href="#f"/><use x="219.344" y="653.332" xlink:href="#g"/><use x="241.613" y="653.332" xlink:href="#h"/><use x="272.723" y="653.332" xlink:href="#i"/><use x="303.684" y="653.332" xlink:href="#j"/><use x="70" y="684.445" xlink:href="#k"/><use x="83.535" y="684.445" xlink:href="#b"/><use x="98.879" y="684.445" xlink:href="#l"/><use x="120.25" y="684.445" xlink:href="#m"/><use x="163.5" y="684.445" xlink:href="#e"/><use x="178.371" y="684.445" xlink:href="#n"/><use x="200.52" y="684.445" xlink:href="#c"/><use x="232.453" y="684.445" xlink:href="#o"/><use x="258.488" y="684.445" xlink:href="#l"/><use x="279.863" y="684.445" xlink:href="#p"/><use x="302.012" y="684.445" xlink:href="#q"/><use x="334.992" y="684.445" xlink:href="#r"/><use x="357.793" y="684.445" xlink:href="#b"/><use x="373.137" y="684.445" xlink:href="#l"/><use x="394.508" y="684.445" xlink:href="#s"/><use x="405.172" y="684.445" xlink:href="#c"/><use x="426.273" y="684.445" xlink:href="#t"/><use x="444.715" y="684.445" xlink:href="#e"/></svg>