<svg xmlns="http://www.w3.org/2000/svg" viewBox="0 0 256 256"><rect width="256" height="256" fill="none"/><circle cx="128" cy="108" r="28" fill="none" stroke="#000" stroke-linecap="round" stroke-linejoin="round" stroke-width="24"/><path d="M134.6,224H121.4a16,16,0,0,1-15.8-13.1l-10.2-56A16,16,0,0,1,111.2,136h33.6a16,16,0,0,1,15.8,18.9l-10.2,56A16,16,0,0,1,134.6,224Z" fill="none" stroke="#000" stroke-linecap="round" stroke-linejoin="round" stroke-width="24"/><path d="M134.6,224H121.4a16,16,0,0,1-15.8-13.1l-10.2-56A16,16,0,0,1,111.2,136h33.6a16,16,0,0,1,15.8,18.9l-10.2,56A16,16,0,0,1,134.6,224Z" fill="none" stroke="#000" stroke-linecap="round" stroke-linejoin="round" stroke-width="24"/><path d="M62.7,198.4a96,96,0,1,1,130.6,0" fill="none" stroke="#000" stroke-linecap="round" stroke-linejoin="round" stroke-width="24"/></svg>