<svg xmlns="http://www.w3.org/2000/svg" viewBox="0 0 256 256"><rect width="256" height="256" fill="none"/><path d="M92,60h72a48,48,0,0,1,48,48V220a8,8,0,0,1-8,8H52a8,8,0,0,1-8-8V108A48,48,0,0,1,92,60Z" fill="none" stroke="#000" stroke-linecap="round" stroke-linejoin="round" stroke-width="24"/><path d="M84,228V152a16,16,0,0,1,16-16h56a16,16,0,0,1,16,16v76" fill="none" stroke="#000" stroke-linecap="round" stroke-linejoin="round" stroke-width="24"/><path d="M96,60V36a16,16,0,0,1,16-16h32a16,16,0,0,1,16,16V60" fill="none" stroke="#000" stroke-linecap="round" stroke-linejoin="round" stroke-width="24"/><line x1="108" y1="100" x2="148" y2="100" fill="none" stroke="#000" stroke-linecap="round" stroke-linejoin="round" stroke-width="24"/><line x1="84" y1="172" x2="172" y2="172" fill="none" stroke="#000" stroke-linecap="round" stroke-linejoin="round" stroke-width="24"/><line x1="140" y1="172" x2="140" y2="188" fill="none" stroke="#000" stroke-linecap="round" stroke-linejoin="round" stroke-width="24"/></svg>