<svg xmlns="http://www.w3.org/2000/svg" viewBox="0 0 256 256"><rect width="256" height="256" fill="none"/><circle cx="128" cy="128" r="96" fill="none" stroke="#000" stroke-linecap="round" stroke-linejoin="round" stroke-width="24"/><path d="M181.2,79.4A98.3,98.3,0,0,1,196,60.2" fill="none" stroke="#000" stroke-linecap="round" stroke-linejoin="round" stroke-width="24"/><path d="M196,195.8a98.3,98.3,0,0,1-14.8-19.2" fill="none" stroke="#000" stroke-linecap="round" stroke-linejoin="round" stroke-width="24"/><path d="M168.7,140a117.3,117.3,0,0,1-.7-12,117.3,117.3,0,0,1,.7-12" fill="none" stroke="#000" stroke-linecap="round" stroke-linejoin="round" stroke-width="24"/><path d="M74.8,79.4A98.3,98.3,0,0,0,60,60.2" fill="none" stroke="#000" stroke-linecap="round" stroke-linejoin="round" stroke-width="24"/><path d="M60,195.8a98.3,98.3,0,0,0,14.8-19.2" fill="none" stroke="#000" stroke-linecap="round" stroke-linejoin="round" stroke-width="24"/><path d="M87.3,140a117.3,117.3,0,0,0,.7-12,117.3,117.3,0,0,0-.7-12" fill="none" stroke="#000" stroke-linecap="round" stroke-linejoin="round" stroke-width="24"/></svg>