<svg xmlns="http://www.w3.org/2000/svg" viewBox="0 0 256 256"><rect width="256" height="256" fill="none"/><line x1="48" y1="40" x2="208" y2="216" fill="none" stroke="#000" stroke-linecap="round" stroke-linejoin="round" stroke-width="24"/><path d="M96,192v8a32,32,0,0,0,64,0v-8" fill="none" stroke="#000" stroke-linecap="round" stroke-linejoin="round" stroke-width="24"/><path d="M186.2,192H49a8,8,0,0,1-6.9-12c6.6-11.4,14.1-32.2,14.1-68v-8A72.4,72.4,0,0,1,68.9,63" fill="none" stroke="#000" stroke-linecap="round" stroke-linejoin="round" stroke-width="24"/><path d="M100,37.7A71.1,71.1,0,0,1,128.5,32c39.6.3,71.3,33.2,71.3,72.9V112a187.1,187.1,0,0,0,3.8,39.7" fill="none" stroke="#000" stroke-linecap="round" stroke-linejoin="round" stroke-width="24"/></svg>