<svg xmlns="http://www.w3.org/2000/svg" viewBox="0 0 256 256"><rect width="256" height="256" fill="none"/><line x1="16" y1="120" x2="240" y2="120" fill="none" stroke="#000" stroke-linecap="round" stroke-linejoin="round" stroke-width="24"/><path d="M224,176v32a8,8,0,0,1-8,8H192a8,8,0,0,1-8-8V176" fill="none" stroke="#000" stroke-linecap="round" stroke-linejoin="round" stroke-width="24"/><path d="M72,176v32a8,8,0,0,1-8,8H40a8,8,0,0,1-8-8V176" fill="none" stroke="#000" stroke-linecap="round" stroke-linejoin="round" stroke-width="24"/><path d="M224,120,194.1,52.8a8,8,0,0,0-7.3-4.8H69.2a8,8,0,0,0-7.3,4.8L32,120v56H224Z" fill="none" stroke="#000" stroke-linecap="round" stroke-linejoin="round" stroke-width="24"/></svg>