<svg xmlns="http://www.w3.org/2000/svg" viewBox="0 0 256 256"><rect width="256" height="256" fill="none"/><path d="M184.5,168.6,48.1,218.1a7.9,7.9,0,0,1-10.2-10.2L87.4,71.5a8,8,0,0,1,13.2-2.9l86.8,86.8A8,8,0,0,1,184.5,168.6Z" fill="none" stroke="#000" stroke-linecap="round" stroke-linejoin="round" stroke-width="24"/><path d="M164,76s0-24,24-24,24-24,24-24" fill="none" stroke="#000" stroke-linecap="round" stroke-linejoin="round" stroke-width="24"/><line x1="102.4" y1="198.4" x2="57.6" y2="153.6" fill="none" stroke="#000" stroke-linecap="round" stroke-linejoin="round" stroke-width="24"/><line x1="136" y1="16" x2="136" y2="40" fill="none" stroke="#000" stroke-linecap="round" stroke-linejoin="round" stroke-width="24"/><line x1="216" y1="120" x2="232" y2="136" fill="none" stroke="#000" stroke-linecap="round" stroke-linejoin="round" stroke-width="24"/><line x1="216" y1="84" x2="240" y2="76" fill="none" stroke="#000" stroke-linecap="round" stroke-linejoin="round" stroke-width="24"/><line x1="74.7" y1="106.7" x2="149.3" y2="181.3" fill="none" stroke="#000" stroke-linecap="round" stroke-linejoin="round" stroke-width="24"/></svg>