<svg xmlns="http://www.w3.org/2000/svg" viewBox="0 0 256 256"><rect width="256" height="256" fill="none"/><line x1="48" y1="40" x2="208" y2="216" fill="none" stroke="#000" stroke-linecap="round" stroke-linejoin="round" stroke-width="24"/><path d="M91.4,87.8A39.5,39.5,0,0,0,88,104" fill="none" stroke="#000" stroke-linecap="round" stroke-linejoin="round" stroke-width="24"/><path d="M161.9,216A44,44,0,0,1,84,188c0-41.5-36-28-36-84A79.9,79.9,0,0,1,63.3,56.9" fill="none" stroke="#000" stroke-linecap="round" stroke-linejoin="round" stroke-width="24"/><path d="M166.9,170.8A20.1,20.1,0,0,1,140,152a25.5,25.5,0,0,1,1.6-9.1" fill="none" stroke="#000" stroke-linecap="round" stroke-linejoin="round" stroke-width="24"/><path d="M94.3,31.4A80.1,80.1,0,0,1,208,104" fill="none" stroke="#000" stroke-linecap="round" stroke-linejoin="round" stroke-width="24"/><path d="M167,111.4a27.6,27.6,0,0,0,1-7.4,40,40,0,0,0-40-40l-3.9.2" fill="none" stroke="#000" stroke-linecap="round" stroke-linejoin="round" stroke-width="24"/></svg>