<svg xmlns="http://www.w3.org/2000/svg" viewBox="0 0 256 256"><rect width="256" height="256" fill="none"/><line x1="44" y1="164" x2="84" y2="220" fill="none" stroke="#000" stroke-linecap="round" stroke-linejoin="round" stroke-width="24"/><line x1="84" y1="164" x2="44" y2="220" fill="none" stroke="#000" stroke-linecap="round" stroke-linejoin="round" stroke-width="24"/><polyline points="120 164 120 220 148 220" fill="none" stroke="#000" stroke-linecap="round" stroke-linejoin="round" stroke-width="24"/><polyline points="148 36 148 100 212 100" fill="none" stroke="#000" stroke-linecap="round" stroke-linejoin="round" stroke-width="24"/><path d="M44,124V44a8,8,0,0,1,8-8H156l56,56v32" fill="none" stroke="#000" stroke-linecap="round" stroke-linejoin="round" stroke-width="24"/><path d="M180,214.4a23.7,23.7,0,0,0,15,5.6c9,0,17-3.4,17-14.6,0-17.9-32-10-32-26.8,0-9,6-14.6,15-14.6a23.7,23.7,0,0,1,15,5.6" fill="none" stroke="#000" stroke-linecap="round" stroke-linejoin="round" stroke-width="24"/></svg>