<svg xmlns="http://www.w3.org/2000/svg" viewBox="0 0 256 256"><rect width="256" height="256" fill="none"/><path d="M152,224l-44.7-67a3.9,3.9,0,0,0-6.6,0L79.8,188.4a4,4,0,0,1-6.7-.1l-9.7-15.1a4.1,4.1,0,0,0-6.8,0L24,224Z" fill="none" stroke="#000" stroke-linecap="round" stroke-linejoin="round" stroke-width="24"/><polyline points="148 32 148 92 208 92" fill="none" stroke="#000" stroke-linecap="round" stroke-linejoin="round" stroke-width="24"/><path d="M196,224h4a8,8,0,0,0,8-8V88L152,32H56a8,8,0,0,0-8,8v88" fill="none" stroke="#000" stroke-linecap="round" stroke-linejoin="round" stroke-width="24"/></svg>