<svg xmlns="http://www.w3.org/2000/svg" viewBox="0 0 256 256"><rect width="256" height="256" fill="none"/><polyline points="148 36 148 100 212 100" fill="none" stroke="#000" stroke-linecap="round" stroke-linejoin="round" stroke-width="24"/><path d="M44,124V44a8,8,0,0,1,8-8H156l56,56v32" fill="none" stroke="#000" stroke-linecap="round" stroke-linejoin="round" stroke-width="24"/><path d="M28,220V164H44a28,28,0,0,1,0,56Z" fill="none" stroke="#000" stroke-linecap="round" stroke-linejoin="round" stroke-width="24"/><path d="M228,215.6a24.2,24.2,0,0,1-14,4.4c-14.4,0-26-12.5-26-28s11.6-28,26-28a24.2,24.2,0,0,1,14,4.4" fill="none" stroke="#000" stroke-linecap="round" stroke-linejoin="round" stroke-width="24"/><ellipse cx="130" cy="192" rx="26" ry="28" fill="none" stroke="#000" stroke-linecap="round" stroke-linejoin="round" stroke-width="24"/></svg>