<svg xmlns="http://www.w3.org/2000/svg" viewBox="0 0 256 256"><rect width="256" height="256" fill="none"/><polyline points="148 36 148 100 212 100" fill="none" stroke="#000" stroke-linecap="round" stroke-linejoin="round" stroke-width="24"/><path d="M180,220h24a8,8,0,0,0,8-8V92L156,36H52a8,8,0,0,0-8,8v80" fill="none" stroke="#000" stroke-linecap="round" stroke-linejoin="round" stroke-width="24"/><line x1="56" y1="220" x2="56" y2="164" fill="none" stroke="#000" stroke-linecap="round" stroke-linejoin="round" stroke-width="24"/><line x1="76" y1="164" x2="36" y2="164" fill="none" stroke="#000" stroke-linecap="round" stroke-linejoin="round" stroke-width="24"/><path d="M108,214.4a23.7,23.7,0,0,0,15,5.6c9,0,17-3.4,17-14.6,0-17.9-32-10-32-26.8,0-9,6-14.6,15-14.6a23.7,23.7,0,0,1,15,5.6" fill="none" stroke="#000" stroke-linecap="round" stroke-linejoin="round" stroke-width="24"/></svg>