<svg xmlns="http://www.w3.org/2000/svg" viewBox="0 0 256 256"><rect width="256" height="256" fill="none"/><path d="M164,224H56a8,8,0,0,1-8-8V76a8,8,0,0,1,8-8h76l40,40V216A8,8,0,0,1,164,224Z" fill="none" stroke="#000" stroke-linecap="round" stroke-linejoin="round" stroke-width="24"/><path d="M84,68V36a8,8,0,0,1,8-8h80l40,40V176a8,8,0,0,1-8,8H172" fill="none" stroke="#000" stroke-linecap="round" stroke-linejoin="round" stroke-width="24"/><line x1="88" y1="144" x2="132" y2="144" fill="none" stroke="#000" stroke-linecap="round" stroke-linejoin="round" stroke-width="24"/><line x1="88" y1="184" x2="132" y2="184" fill="none" stroke="#000" stroke-linecap="round" stroke-linejoin="round" stroke-width="24"/></svg>