<svg xmlns="http://www.w3.org/2000/svg" viewBox="0 0 256 256"><rect width="256" height="256" fill="none"/><polyline points="108 220 108 164 148 220 148 164" fill="none" stroke="#000" stroke-linecap="round" stroke-linejoin="round" stroke-width="24"/><polyline points="148 36 148 100 212 100" fill="none" stroke="#000" stroke-linecap="round" stroke-linejoin="round" stroke-width="24"/><path d="M44,124V44a8,8,0,0,1,8-8H156l56,56v32" fill="none" stroke="#000" stroke-linecap="round" stroke-linejoin="round" stroke-width="24"/><path d="M36,204H52a20,20,0,0,0,0-40H36v56" fill="none" stroke="#000" stroke-linecap="round" stroke-linejoin="round" stroke-width="24"/><path d="M220,198.9h8v8c-4.6,7.9-12.7,13.1-22,13.1-14.4,0-26-12.5-26-28s11.6-28,26-28a24.2,24.2,0,0,1,14,4.4" fill="none" stroke="#000" stroke-linecap="round" stroke-linejoin="round" stroke-width="24"/></svg>