<svg xmlns="http://www.w3.org/2000/svg" viewBox="0 0 256 256"><rect width="256" height="256" fill="none"/><polyline points="148 36 148 100 212 100" fill="none" stroke="#000" stroke-linecap="round" stroke-linejoin="round" stroke-width="24"/><path d="M44,124V44a8,8,0,0,1,8-8H156l56,56v32" fill="none" stroke="#000" stroke-linecap="round" stroke-linejoin="round" stroke-width="24"/><path d="M180,214.4a23.7,23.7,0,0,0,15,5.6c9,0,17-3.4,17-14.6,0-17.9-32-10-32-26.8,0-9,6-14.6,15-14.6a23.7,23.7,0,0,1,15,5.6" fill="none" stroke="#000" stroke-linecap="round" stroke-linejoin="round" stroke-width="24"/><path d="M116,214.4a23.7,23.7,0,0,0,15,5.6c9,0,17-3.4,17-14.6,0-17.9-32-10-32-26.8,0-9,6-14.6,15-14.6a23.7,23.7,0,0,1,15,5.6" fill="none" stroke="#000" stroke-linecap="round" stroke-linejoin="round" stroke-width="24"/><path d="M84,215.6A24.2,24.2,0,0,1,70,220c-14.4,0-26-12.5-26-28s11.6-28,26-28a24.2,24.2,0,0,1,14,4.4" fill="none" stroke="#000" stroke-linecap="round" stroke-linejoin="round" stroke-width="24"/></svg>