<svg xmlns="http://www.w3.org/2000/svg" viewBox="0 0 256 256"><rect width="256" height="256" fill="none"/><path d="M176,128a240.3,240.3,0,0,1-17.9,91.2" fill="none" stroke="#000" stroke-linecap="round" stroke-linejoin="round" stroke-width="24"/><path d="M163.8,96A48,48,0,0,0,80,128a142.6,142.6,0,0,1-18,69.7" fill="none" stroke="#000" stroke-linecap="round" stroke-linejoin="round" stroke-width="24"/><path d="M96,37.5A94.4,94.4,0,0,1,128,32a96,96,0,0,1,96,96,293.3,293.3,0,0,1-7.1,64" fill="none" stroke="#000" stroke-linecap="round" stroke-linejoin="round" stroke-width="24"/><path d="M23.3,168A95.5,95.5,0,0,0,32,128,95.4,95.4,0,0,1,64,56.5" fill="none" stroke="#000" stroke-linecap="round" stroke-linejoin="round" stroke-width="24"/><path d="M110.6,208c-2.1,4.4-4.3,8.8-6.6,13" fill="none" stroke="#000" stroke-linecap="round" stroke-linejoin="round" stroke-width="24"/><path d="M128,128a189.6,189.6,0,0,1-6.1,48" fill="none" stroke="#000" stroke-linecap="round" stroke-linejoin="round" stroke-width="24"/></svg>