<svg xmlns="http://www.w3.org/2000/svg" viewBox="0 0 256 256"><rect width="256" height="256" fill="none"/><path d="M196,116v88.9a7.1,7.1,0,0,1-7.1,7.1H36a8,8,0,0,1-8-8V92a8,8,0,0,1,8-8H81.3a8.1,8.1,0,0,1,4.8,1.6l27.8,20.8a8.1,8.1,0,0,0,4.8,1.6H188A8,8,0,0,1,196,116Z" fill="none" stroke="#000" stroke-linecap="round" stroke-linejoin="round" stroke-width="24"/><path d="M68,84V52a8,8,0,0,1,8-8h45.3a8.1,8.1,0,0,1,4.8,1.6l27.8,20.8a8.1,8.1,0,0,0,4.8,1.6H228a8,8,0,0,1,8,8v88.9a7.1,7.1,0,0,1-7.1,7.1H196" fill="none" stroke="#000" stroke-linecap="round" stroke-linejoin="round" stroke-width="24"/></svg>