<svg xmlns="http://www.w3.org/2000/svg" viewBox="0 0 256 256"><rect width="256" height="256" fill="none"/><path d="M104,208H40a8,8,0,0,1-8-8V64a8,8,0,0,1,8-8H93.3a8.1,8.1,0,0,1,4.8,1.6l27.8,20.8a8.1,8.1,0,0,0,4.8,1.6H216a8,8,0,0,1,8,8v4" fill="none" stroke="#000" stroke-linecap="round" stroke-linejoin="round" stroke-width="24"/><rect x="152" y="164" width="72" height="44" fill="none" stroke="#000" stroke-linecap="round" stroke-linejoin="round" stroke-width="24"/><path d="M168,164V148a20,20,0,0,1,40,0v16" fill="none" stroke="#000" stroke-linecap="round" stroke-linejoin="round" stroke-width="24"/></svg>