<svg xmlns="http://www.w3.org/2000/svg" viewBox="0 0 256 256"><rect width="256" height="256" fill="none"/><path d="M32,208V64a8,8,0,0,1,8-8H93.3a8.1,8.1,0,0,1,4.8,1.6l27.8,20.8a8.1,8.1,0,0,0,4.8,1.6H200a8,8,0,0,1,8,8v24" fill="none" stroke="#000" stroke-linecap="round" stroke-linejoin="round" stroke-width="24"/><path d="M32,208l29.9-71.1a8.1,8.1,0,0,1,7.4-4.9h48.3a8.4,8.4,0,0,0,4.4-1.3l20-13.4a8.4,8.4,0,0,1,4.4-1.3h82.3a8,8,0,0,1,7.6,10.6L208,208Z" fill="none" stroke="#000" stroke-linecap="round" stroke-linejoin="round" stroke-width="24"/></svg>