<svg xmlns="http://www.w3.org/2000/svg" viewBox="0 0 256 256"><rect width="256" height="256" fill="none"/><path d="M98.4,46.7,128,80H32V52a8,8,0,0,1,8-8H92.4A8,8,0,0,1,98.4,46.7Z" fill="none" stroke="#000" stroke-linecap="round" stroke-linejoin="round" stroke-width="24"/><path d="M112.6,208H39.4a7.4,7.4,0,0,1-7.4-7.4V80H216a8,8,0,0,1,8,8v24" fill="none" stroke="#000" stroke-linecap="round" stroke-linejoin="round" stroke-width="24"/><polygon points="188 198.5 217.7 216 209.6 183.4 236 161.6 201.3 158.9 188 128 174.7 158.9 140 161.6 166.4 183.4 158.3 216 188 198.5" fill="none" stroke="#000" stroke-linecap="round" stroke-linejoin="round" stroke-width="24"/></svg>