<svg xmlns="http://www.w3.org/2000/svg" viewBox="0 0 256 256"><rect width="256" height="256" fill="none"/><path d="M80,108h96a32,32,0,0,1,32,32v76a8,8,0,0,1-8,8H56a8,8,0,0,1-8-8V140A32,32,0,0,1,80,108Z" fill="none" stroke="#000" stroke-linecap="round" stroke-linejoin="round" stroke-width="24"/><path d="M80,108V92a23.9,23.9,0,0,1,24-24h48a23.9,23.9,0,0,1,24,24v16" fill="none" stroke="#000" stroke-linecap="round" stroke-linejoin="round" stroke-width="24"/><path d="M184,40a16,16,0,0,0-16-16H104" fill="none" stroke="#000" stroke-linecap="round" stroke-linejoin="round" stroke-width="24"/><line x1="128" y1="24" x2="128" y2="68" fill="none" stroke="#000" stroke-linecap="round" stroke-linejoin="round" stroke-width="24"/></svg>