<svg xmlns="http://www.w3.org/2000/svg" viewBox="0 0 256 256"><rect width="256" height="256" fill="none"/><path d="M112,114.4l-26-45a20,20,0,0,1,34.6-20l40,69.3" fill="none" stroke="#000" stroke-linecap="round" stroke-linejoin="round" stroke-width="24"/><path d="M85.4,148.3l-42-72.8A20,20,0,0,1,78,55.5l42,72.8" fill="none" stroke="#000" stroke-linecap="round" stroke-linejoin="round" stroke-width="24"/><path d="M168.6,132.5l-18-31.2a20,20,0,0,1,34.7-20l20,34.7A80,80,0,0,1,66.7,196l-42-72.8a20,20,0,0,1,34.7-20l22,38.1" fill="none" stroke="#000" stroke-linecap="round" stroke-linejoin="round" stroke-width="24"/><line x1="156" y1="12" x2="156" y2="28" fill="none" stroke="#000" stroke-linecap="round" stroke-linejoin="round" stroke-width="24"/><line x1="204" y1="24.9" x2="196" y2="38.7" fill="none" stroke="#000" stroke-linecap="round" stroke-linejoin="round" stroke-width="24"/><line x1="239.1" y1="60" x2="225.3" y2="68" fill="none" stroke="#000" stroke-linecap="round" stroke-linejoin="round" stroke-width="24"/></svg>