<svg xmlns="http://www.w3.org/2000/svg" viewBox="0 0 256 256"><rect width="256" height="256" fill="none"/><path d="M236.7,121.8,212,134.1,180,72.9l25-12.5a7.9,7.9,0,0,1,10.6,3.4l24.6,47.1A8,8,0,0,1,236.7,121.8Z" fill="none" stroke="#000" stroke-linecap="round" stroke-linejoin="round" stroke-width="24"/><path d="M44,133.1,19.3,120.7a7.9,7.9,0,0,1-3.5-10.8L40.4,62.8A8,8,0,0,1,51,59.3L76,71.8Z" fill="none" stroke="#000" stroke-linecap="round" stroke-linejoin="round" stroke-width="24"/><path d="M212,134.1l-12,18.8-36.8,36.8a8.5,8.5,0,0,1-7.6,2.1l-58-14.5a8,8,0,0,1-2.9-1.5L44,133.1" fill="none" stroke="#000" stroke-linecap="round" stroke-linejoin="round" stroke-width="24"/><path d="M200,152.9l-44-32-12.8,9.6a32.1,32.1,0,0,1-38.4,0l-5.4-4.1a8.1,8.1,0,0,1-.9-12.1l39.2-39.1a7.9,7.9,0,0,1,5.6-2.3H180" fill="none" stroke="#000" stroke-linecap="round" stroke-linejoin="round" stroke-width="24"/><path d="M76.6,71.8l47.3-15a8,8,0,0,1,5.5.4L164,72.9" fill="none" stroke="#000" stroke-linecap="round" stroke-linejoin="round" stroke-width="24"/><path d="M108,220.9l-30.1-7.6a7.4,7.4,0,0,1-3.3-1.7L52,192" fill="none" stroke="#000" stroke-linecap="round" stroke-linejoin="round" stroke-width="24"/></svg>