<svg xmlns="http://www.w3.org/2000/svg" viewBox="0 0 256 256"><rect width="256" height="256" fill="none"/><line x1="69.3" y1="84" x2="186.2" y2="84" fill="none" stroke="#000" stroke-linecap="round" stroke-linejoin="round" stroke-width="24"/><path d="M128,128,67.2,82.4A8.1,8.1,0,0,1,64,76V40a8,8,0,0,1,8-8H184a8,8,0,0,1,8,8V75.6a8.1,8.1,0,0,1-3.2,6.4L128,128h0" fill="none" stroke="#000" stroke-linecap="round" stroke-linejoin="round" stroke-width="24"/><path d="M128,128,67.2,173.6A8.1,8.1,0,0,0,64,180v36a8,8,0,0,0,8,8H184a8,8,0,0,0,8-8V180.4a8.1,8.1,0,0,0-3.2-6.4L128,128h0" fill="none" stroke="#000" stroke-linecap="round" stroke-linejoin="round" stroke-width="24"/><line x1="128" y1="168" x2="128" y2="128" fill="none" stroke="#000" stroke-linecap="round" stroke-linejoin="round" stroke-width="24"/></svg>