<svg xmlns="http://www.w3.org/2000/svg" viewBox="0 0 256 256"><rect width="256" height="256" fill="none"/><path d="M220,176v32a8,8,0,0,1-8,8H188a8,8,0,0,1-8-8V176" fill="none" stroke="#000" stroke-linecap="round" stroke-linejoin="round" stroke-width="24"/><path d="M76,176v32a8,8,0,0,1-8,8H44a8,8,0,0,1-8-8V176" fill="none" stroke="#000" stroke-linecap="round" stroke-linejoin="round" stroke-width="24"/><line x1="16" y1="96" x2="240" y2="96" fill="none" stroke="#000" stroke-linecap="round" stroke-linejoin="round" stroke-width="24"/><line x1="128" y1="136" x2="128" y2="176" fill="none" stroke="#000" stroke-linecap="round" stroke-linejoin="round" stroke-width="24"/><line x1="168" y1="136" x2="168" y2="176" fill="none" stroke="#000" stroke-linecap="round" stroke-linejoin="round" stroke-width="24"/><line x1="88" y1="136" x2="88" y2="176" fill="none" stroke="#000" stroke-linecap="round" stroke-linejoin="round" stroke-width="24"/><path d="M220,176H36V96l7-49.1A8,8,0,0,1,50.9,40H205.1a8,8,0,0,1,7.9,6.9L220,96Z" fill="none" stroke="#000" stroke-linecap="round" stroke-linejoin="round" stroke-width="24"/></svg>