<svg xmlns="http://www.w3.org/2000/svg" viewBox="0 0 256 256"><rect width="256" height="256" fill="none"/><line x1="128" y1="192" x2="128" y2="144" fill="none" stroke="#000" stroke-linecap="round" stroke-linejoin="round" stroke-width="24"/><polyline points="96 112 128 144 160 112" fill="none" stroke="#000" stroke-linecap="round" stroke-linejoin="round" stroke-width="24"/><line x1="88" y1="232" x2="168" y2="232" fill="none" stroke="#000" stroke-linecap="round" stroke-linejoin="round" stroke-width="24"/><path d="M80,168a79.8,79.8,0,0,1-32-63.5C47.8,61.1,82.7,25,126.1,24a80,80,0,0,1,49.7,144.1A20,20,0,0,0,168,184h0a8,8,0,0,1-8,8H96a8,8,0,0,1-8-8v-.2A19.6,19.6,0,0,0,80,168Z" fill="none" stroke="#000" stroke-linecap="round" stroke-linejoin="round" stroke-width="24"/></svg>