<svg xmlns="http://www.w3.org/2000/svg" viewBox="0 0 256 256"><rect width="256" height="256" fill="none"/><line x1="128" y1="200" x2="128" y2="232" fill="none" stroke="#000" stroke-linecap="round" stroke-linejoin="round" stroke-width="24"/><line x1="48" y1="40" x2="208" y2="216" fill="none" stroke="#000" stroke-linecap="round" stroke-linejoin="round" stroke-width="24"/><path d="M150.7,153a40.4,40.4,0,0,1-22.7,7h0a40,40,0,0,1-40-40V84" fill="none" stroke="#000" stroke-linecap="round" stroke-linejoin="round" stroke-width="24"/><path d="M98.9,36.5A39.9,39.9,0,0,1,128,24h0a40,40,0,0,1,40,40v48.5" fill="none" stroke="#000" stroke-linecap="round" stroke-linejoin="round" stroke-width="24"/><path d="M177.7,182.7A80,80,0,0,1,48,120" fill="none" stroke="#000" stroke-linecap="round" stroke-linejoin="round" stroke-width="24"/><path d="M208,120a79.5,79.5,0,0,1-5.9,30.1" fill="none" stroke="#000" stroke-linecap="round" stroke-linejoin="round" stroke-width="24"/></svg>