<svg xmlns="http://www.w3.org/2000/svg" viewBox="0 0 256 256"><rect width="256" height="256" fill="none"/><path d="M178.8,71.7a46.3,46.3,0,0,1-14.9,33.7,53.3,53.3,0,0,1-71.8,0,45.6,45.6,0,0,1,0-67.4,53,53,0,0,1,71.8,0A46,46,0,0,1,178.8,71.7Z" fill="none" stroke="#000" stroke-linecap="round" stroke-linejoin="round" stroke-width="24"/><path d="M188,175.7a54.4,54.4,0,0,1-17.6,39.8,62.7,62.7,0,0,1-84.8,0,53.9,53.9,0,0,1,0-79.7,62.7,62.7,0,0,1,84.8,0A54.4,54.4,0,0,1,188,175.7Z" fill="none" stroke="#000" stroke-linecap="round" stroke-linejoin="round" stroke-width="24"/></svg>