<svg xmlns="http://www.w3.org/2000/svg" viewBox="0 0 256 256"><rect width="256" height="256" fill="none"/><line x1="40" y1="112" x2="216" y2="112" fill="none" stroke="#000" stroke-linecap="round" stroke-linejoin="round" stroke-width="24"/><line x1="176" y1="32" x2="176" y2="72" fill="none" stroke="#000" stroke-linecap="round" stroke-linejoin="round" stroke-width="24"/><path d="M156.6,152H200a16,16,0,0,0,16-16V32H72A32,32,0,0,0,40,64v72a16,16,0,0,0,16,16H99.4a8,8,0,0,1,8,8.6L104,208a24,24,0,0,0,48,0l-3.4-47.4A8,8,0,0,1,156.6,152Z" fill="none" stroke="#000" stroke-linecap="round" stroke-linejoin="round" stroke-width="24"/></svg>