<svg xmlns="http://www.w3.org/2000/svg" viewBox="0 0 256 256"><rect width="256" height="256" fill="none"/><path d="M23.4,75.7a7.9,7.9,0,0,1,2.2-10.8,175.8,175.8,0,0,1,204.8,0,7.9,7.9,0,0,1,2.2,10.8L134.7,229.4a7.9,7.9,0,0,1-13.4,0Z" fill="none" stroke="#000" stroke-linecap="round" stroke-linejoin="round" stroke-width="24"/><path d="M41.1,103.4a135.9,135.9,0,0,1,173.8,0" fill="none" stroke="#000" stroke-linecap="round" stroke-linejoin="round" stroke-width="24"/><path d="M159.4,190.7a28,28,0,1,1,29.1-45.8" fill="none" stroke="#000" stroke-linecap="round" stroke-linejoin="round" stroke-width="24"/><path d="M59.7,132.7A28,28,0,0,1,108,152a28.1,28.1,0,0,1-19.1,26.6" fill="none" stroke="#000" stroke-linecap="round" stroke-linejoin="round" stroke-width="24"/></svg>