<svg xmlns="http://www.w3.org/2000/svg" viewBox="0 0 256 256"><rect width="256" height="256" fill="none"/><line x1="128" y1="24" x2="128" y2="189.4" fill="none" stroke="#000" stroke-linecap="round" stroke-linejoin="round" stroke-width="24"/><path d="M220.2,116.6l8.7-7.3c5.9-4.9,2.9-14.8-4.8-15.3l-11.5-.7" fill="none" stroke="#000" stroke-linecap="round" stroke-linejoin="round" stroke-width="24"/><path d="M173,216.5l9.8,6.2c6.5,4.1,14.5-2,12.6-9.5l-2.8-10.9" fill="none" stroke="#000" stroke-linecap="round" stroke-linejoin="round" stroke-width="24"/><path d="M182,160.5l-1.2-4.7a8.7,8.7,0,0,1,2.9-8.8l3.4-2.9" fill="none" stroke="#000" stroke-linecap="round" stroke-linejoin="round" stroke-width="24"/><path d="M169.6,90.5l-4.5-.3a8.3,8.3,0,0,1-7.3-5.4L152.7,72,135.8,29.4a8.3,8.3,0,0,0-15.6,0l-22,55.4a8.3,8.3,0,0,1-7.3,5.4L31.9,94c-7.7.5-10.7,10.4-4.8,15.3L72.3,147a8.7,8.7,0,0,1,2.9,8.8L61.7,209c-2.3,9,7.3,16.3,15,11.4l46.9-29.7a8.2,8.2,0,0,1,8.8,0l4.3,2.7" fill="none" stroke="#000" stroke-linecap="round" stroke-linejoin="round" stroke-width="24"/></svg>