<svg xmlns="http://www.w3.org/2000/svg" viewBox="0 0 256 256"><rect width="256" height="256" fill="none"/><polyline points="72.2 128.2 152.2 40.2 216 40 215.8 103.8 127.8 183.8" fill="none" stroke="#000" stroke-linecap="round" stroke-linejoin="round" stroke-width="24"/><line x1="100" y1="156" x2="160" y2="96" fill="none" stroke="#000" stroke-linecap="round" stroke-linejoin="round" stroke-width="24"/><path d="M82.1,205.5,60.2,227.4a8,8,0,0,1-11.3,0L28.6,207.1a8,8,0,0,1,0-11.3l21.9-21.9a8,8,0,0,0,0-11.4L33.7,145.7a8,8,0,0,1,0-11.4l16.6-16.6a8,8,0,0,1,11.4,0l76.6,76.6a8,8,0,0,1,0,11.4l-16.6,16.6a8,8,0,0,1-11.4,0L93.5,205.5A8,8,0,0,0,82.1,205.5Z" fill="none" stroke="#000" stroke-linecap="round" stroke-linejoin="round" stroke-width="24"/></svg>