<svg xmlns="http://www.w3.org/2000/svg" viewBox="0 0 256 256"><rect width="256" height="256" fill="none"/><path d="M192,120h26.7a8.1,8.1,0,0,0,7.4-4.9l15.3-36.8a8.1,8.1,0,0,0-3.2-9.9L192,40" fill="none" stroke="#000" stroke-linecap="round" stroke-linejoin="round" stroke-width="24"/><path d="M64,120H37.3a8.1,8.1,0,0,1-7.4-4.9L14.6,78.3a8.1,8.1,0,0,1,3.2-9.9L64,40" fill="none" stroke="#000" stroke-linecap="round" stroke-linejoin="round" stroke-width="24"/><path d="M160,40a32,32,0,0,1-64,0H64V208a8,8,0,0,0,8,8H184a8,8,0,0,0,8-8V40Z" fill="none" stroke="#000" stroke-linecap="round" stroke-linejoin="round" stroke-width="24"/></svg>