<svg xmlns="http://www.w3.org/2000/svg" viewBox="0 0 256 256"><rect width="256" height="256" fill="none"/><path d="M160,68,146,33a7.9,7.9,0,0,0-7.4-5H117.4a7.9,7.9,0,0,0-7.4,5L96,68" fill="none" stroke="#000" stroke-linecap="round" stroke-linejoin="round" stroke-width="24"/><line x1="12" y1="124" x2="244" y2="124" fill="none" stroke="#000" stroke-linecap="round" stroke-linejoin="round" stroke-width="24"/><path d="M228,172v32a8,8,0,0,1-8,8H196a8,8,0,0,1-8-8V172" fill="none" stroke="#000" stroke-linecap="round" stroke-linejoin="round" stroke-width="24"/><path d="M68,172v32a8,8,0,0,1-8,8H36a8,8,0,0,1-8-8V172" fill="none" stroke="#000" stroke-linecap="round" stroke-linejoin="round" stroke-width="24"/><path d="M228,124,194.4,71.7a8.1,8.1,0,0,0-6.8-3.7H68.4a8.1,8.1,0,0,0-6.8,3.7L28,124v48H228Z" fill="none" stroke="#000" stroke-linecap="round" stroke-linejoin="round" stroke-width="24"/></svg>