<svg xmlns="http://www.w3.org/2000/svg" viewBox="0 0 256 256"><rect width="256" height="256" fill="none"/><line x1="96" y1="56" x2="96" y2="200" fill="none" stroke="#000" stroke-linecap="round" stroke-linejoin="round" stroke-width="24"/><path d="M24,167.2a7.9,7.9,0,0,1,6.4-7.8,32.1,32.1,0,0,0,0-62.8A7.9,7.9,0,0,1,24,88.8V64a8,8,0,0,1,8-8H224a8,8,0,0,1,8,8V88.8a7.9,7.9,0,0,1-6.4,7.8,32.1,32.1,0,0,0,0,62.8,7.9,7.9,0,0,1,6.4,7.8V192a8,8,0,0,1-8,8H32a8,8,0,0,1-8-8Z" fill="none" stroke="#000" stroke-linecap="round" stroke-linejoin="round" stroke-width="24"/></svg>