<?xml version="1.0" encoding="UTF-8"?>
<svg width="126px" height="126px" viewBox="0 0 126 126" version="1.1" xmlns="http://www.w3.org/2000/svg" xmlns:xlink="http://www.w3.org/1999/xlink">
    <title>Artboard</title>
    <defs>
        <linearGradient x1="50%" y1="0%" x2="50%" y2="100%" id="linearGradient-1">
            <stop stop-color="#F78DB4" offset="0%"></stop>
            <stop stop-color="#DE6057" offset="100%"></stop>
        </linearGradient>
        <path d="M74.6826986,38.2025155 C63.3937319,40.3970432 53.9412275,46.1696938 49.6894493,60.3542758 C46.8549305,69.8106638 47.5871791,82.4141835 51.886195,98.1648349 C59.1669339,106.054945 69.6657772,110 83.3827249,110 C103.958146,110 114.952766,100.718965 116.761728,86.616764 C118.57069,72.5145632 109.763493,64.5452867 101.049671,58.4433402 C101.818226,52.2372518 85.9716652,36.0079878 74.6826986,38.2025155 Z" id="path-2"></path>
        <filter x="-10.9%" y="-4.9%" width="114.5%" height="108.3%" filterUnits="objectBoundingBox" id="filter-3">
            <feOffset dx="-5" dy="-1" in="SourceAlpha" result="shadowOffsetOuter1"></feOffset>
            <feColorMatrix values="0 0 0 0 0   0 0 0 0 0   0 0 0 0 0  0 0 0 0.0920290647 0" type="matrix" in="shadowOffsetOuter1"></feColorMatrix>
        </filter>
        <linearGradient x1="50%" y1="0%" x2="78.0813712%" y2="174.815538%" id="linearGradient-4">
            <stop stop-color="#F78DB4" offset="0%"></stop>
            <stop stop-color="#5794DE" offset="100%"></stop>
        </linearGradient>
    </defs>
    <g id="Artboard" stroke="none" stroke-width="1" fill="none" fill-rule="evenodd">
        <g id="Group" transform="translate(-18.000000, -8.000000)">
            <g id="Path" opacity="0.905040923">
                <use fill="black" fill-opacity="1" filter="url(#filter-3)" xlink:href="#path-2"></use>
                <use fill="url(#linearGradient-1)" fill-rule="evenodd" xlink:href="#path-2"></use>
            </g>
            <text id="🍑" fill="#B55454" fill-rule="nonzero" transform="translate(79.000000, 79.000000) rotate(-310.000000) translate(-79.000000, -79.000000) " font-family="AppleColorEmoji, Apple Color Emoji" font-size="80" font-weight="normal" letter-spacing="2.5">
                <tspan x="37.75" y="103">🍑</tspan>
            </text>
            <path d="M74.6826986,38.2025155 C63.3937319,40.3970432 53.9412275,46.1696938 49.6894493,60.3542758 C46.8549305,69.8106638 47.5871791,82.4141835 51.886195,98.1648349 C59.1669339,106.054945 69.6657772,110 83.3827249,110 C103.958146,110 114.952766,100.718965 116.761728,86.616764 C118.57069,72.5145632 109.763493,64.5452867 101.049671,58.4433402 C101.818226,52.2372518 85.9716652,36.0079878 74.6826986,38.2025155 Z" id="Path" fill="url(#linearGradient-4)" opacity="0.905040923"></path>
        </g>
    </g>
</svg>