<?xml version="1.0" encoding="UTF-8"?>
<svg width="612px" height="192px" viewBox="0 0 612 192" version="1.1" xmlns="http://www.w3.org/2000/svg" xmlns:xlink="http://www.w3.org/1999/xlink">
    <title>snackui</title>
    <defs>
        <linearGradient x1="0%" y1="50%" x2="76.091937%" y2="48.7810244%" id="linearGradient-1">
            <stop stop-color="#41B1E8" offset="0%"></stop>
            <stop stop-color="#FF94BB" offset="100%"></stop>
        </linearGradient>
        <path d="M24.295,95.17 C28.2816667,95.17 32.0083333,94.65 35.475,93.61 C38.9416667,92.57 41.975,90.9883333 44.575,88.865 C47.175,86.7416667 49.2333333,84.055 50.75,80.805 C52.2666667,77.555 53.025,73.72 53.025,69.3 C53.025,64.36 51.92,60.4166667 49.71,57.47 C47.5,54.5233333 44.7266667,52.1616667 41.39,50.385 C38.0533333,48.6083333 34.4133333,47.1566667 30.47,46.03 C26.5266667,44.9033333 22.8866667,43.625 19.55,42.195 C16.2133333,40.765 13.4183333,38.945 11.165,36.735 C8.91166667,34.525 7.785,31.4266667 7.785,27.44 C7.785,25.0133333 8.26166667,22.7816667 9.215,20.745 C10.1683333,18.7083333 11.49,16.9316667 13.18,15.415 C14.87,13.8983333 16.8416667,12.7066667 19.095,11.84 C21.3483333,10.9733333 23.8183333,10.54 26.505,10.54 C29.1916667,10.54 31.7916667,10.9083333 34.305,11.645 C36.8183333,12.3816667 39.9383333,13.7466667 43.665,15.74 L46.395,9.76 C39.5483333,6.03333333 32.7016667,4.17 25.855,4.17 C22.3016667,4.17 18.9866667,4.77666667 15.91,5.99 C12.8333333,7.20333333 10.1466667,8.87166667 7.85,10.995 C5.55333333,13.1183333 3.73333333,15.61 2.39,18.47 C1.04666667,21.33 0.375,24.4066667 0.375,27.7 C0.375,31.34 1.025,34.4166667 2.325,36.93 C3.625,39.4433333 5.33666667,41.545 7.46,43.235 C9.58333333,44.925 11.9883333,46.3333333 14.675,47.46 C17.3616667,48.5866667 20.135,49.6483333 22.995,50.645 C25.855,51.6416667 28.6283333,52.6166667 31.315,53.57 C34.0016667,54.5233333 36.4066667,55.6933333 38.53,57.08 C40.6533333,58.4666667 42.365,60.1566667 43.665,62.15 C44.965,64.1433333 45.615,66.6566667 45.615,69.69 C45.615,73.33 44.9866667,76.3633333 43.73,78.79 C42.4733333,81.2166667 40.805,83.1666667 38.725,84.64 C36.645,86.1133333 34.305,87.175 31.705,87.825 C29.105,88.475 26.505,88.8 23.905,88.8 C20.785,88.8 17.7516667,88.2366667 14.805,87.11 C11.8583333,85.9833333 8.305,83.99 4.145,81.13 L1.545,87.37 C9.345,92.57 16.9283333,95.17 24.295,95.17 Z M65.415,94 L65.415,44.99 C67.6683333,43.5166667 70.355,42.3683333 73.475,41.545 C76.595,40.7216667 80.2783333,40.31 84.525,40.31 C89.725,40.31 93.885,42.065 97.005,45.575 C100.125,49.085 101.685,54.1333333 101.685,60.72 L101.685,94 L107.925,94 L107.925,58.38 C107.925,50.4933333 105.866667,44.5566667 101.75,40.57 C97.6333333,36.5833333 92.195,34.59 85.435,34.59 C81.795,34.59 78.22,34.9366667 74.71,35.63 C71.2,36.3233333 68.1016667,37.32 65.415,38.62 L65.415,38.88 L59.175,35.63 L59.175,94 L65.415,94 Z M156.765,95.3 L156.765,49.67 C156.765,46.6366667 156.158333,44.1233333 154.945,42.13 C153.731667,40.1366667 152.215,38.5766667 150.395,37.45 C148.575,36.3233333 146.603333,35.5433333 144.48,35.11 C142.356667,34.6766667 140.385,34.46 138.565,34.46 C135.358333,34.46 131.935,34.7633333 128.295,35.37 C124.655,35.9766667 121.015,37.4066667 117.375,39.66 L119.845,44.6 C122.618333,42.78 125.565,41.5016667 128.685,40.765 C131.805,40.0283333 134.751667,39.66 137.525,39.66 C146.191667,39.66 150.525,43.6466667 150.525,51.62 L150.525,58.25 C145.671667,58.1633333 141.1,58.3583333 136.81,58.835 C132.52,59.3116667 128.75,60.2866667 125.5,61.76 C122.25,63.2333333 119.671667,65.2916667 117.765,67.935 C115.858333,70.5783333 114.905,73.98 114.905,78.14 C114.905,80.22 115.316667,82.2566667 116.14,84.25 C116.963333,86.2433333 118.111667,88.0633333 119.585,89.71 C121.058333,91.3566667 122.748333,92.6783333 124.655,93.675 C126.561667,94.6716667 128.641667,95.17 130.895,95.17 C132.455,95.17 134.188333,95.105 136.095,94.975 C138.001667,94.845 139.865,94.6716667 141.685,94.455 C143.505,94.2383333 145.195,94.0216667 146.755,93.805 C148.315,93.5883333 149.571667,93.35 150.525,93.09 L156.765,95.3 Z M132.975,89.97 C129.681667,89.97 126.93,88.8433333 124.72,86.59 C122.51,84.3366667 121.405,81.52 121.405,78.14 C121.405,74.9333333 122.206667,72.3333333 123.81,70.34 C125.413333,68.3466667 127.558333,66.8083333 130.245,65.725 C132.931667,64.6416667 136.03,63.9266667 139.54,63.58 C143.05,63.2333333 146.711667,63.1466667 150.525,63.32 L150.525,86.98 C149.745,87.4133333 148.661667,87.825 147.275,88.215 C145.888333,88.605 144.371667,88.93 142.725,89.19 C141.078333,89.45 139.388333,89.645 137.655,89.775 C135.921667,89.905 134.361667,89.97 132.975,89.97 Z M193.905,95.17 C196.851667,95.17 200.21,94.8233333 203.98,94.13 C207.75,93.4366667 211.065,92.44 213.925,91.14 L211.195,85.68 C209.461667,86.3733333 207.858333,86.9366667 206.385,87.37 C204.911667,87.8033333 203.525,88.15 202.225,88.41 C200.925,88.67 199.625,88.865 198.325,88.995 C197.025,89.125 195.681667,89.19 194.295,89.19 C186.755,89.19 180.818333,87.045 176.485,82.755 C172.151667,78.465 169.985,72.6366667 169.985,65.27 C169.985,61.63 170.548333,58.2933333 171.675,55.26 C172.801667,52.2266667 174.405,49.6266667 176.485,47.46 C178.565,45.2933333 181.056667,43.6033333 183.96,42.39 C186.863333,41.1766667 190.091667,40.57 193.645,40.57 C194.945,40.57 196.201667,40.635 197.415,40.765 C198.628333,40.895 199.863333,41.09 201.12,41.35 C202.376667,41.61 203.72,41.9783333 205.15,42.455 C206.58,42.9316667 208.205,43.5166667 210.025,44.21 L212.625,38.88 C209.591667,37.4933333 206.341667,36.41 202.875,35.63 C199.408333,34.85 196.288333,34.46 193.515,34.46 C189.095,34.46 185.043333,35.2183333 181.36,36.735 C177.676667,38.2516667 174.47,40.375 171.74,43.105 C169.01,45.835 166.886667,49.1066667 165.37,52.92 C163.853333,56.7333333 163.095,60.9366667 163.095,65.53 C163.095,69.95 163.853333,73.98 165.37,77.62 C166.886667,81.26 168.988333,84.38 171.675,86.98 C174.361667,89.58 177.59,91.595 181.36,93.025 C185.13,94.455 189.311667,95.17 193.905,95.17 Z M223.505,94 L223.505,63.45 L260.555,94 L264.715,89.84 L232.215,63.32 L259.645,40.44 L256.005,35.63 L223.505,63.19 L223.505,4.04 L217.265,5.73 L217.265,94 L223.505,94 Z" id="path-2"></path>
        <linearGradient x1="50%" y1="0%" x2="50%" y2="100%" id="linearGradient-3">
            <stop stop-color="#F78DB4" offset="0%"></stop>
            <stop stop-color="#DE6057" offset="100%"></stop>
        </linearGradient>
        <path d="M74.6826986,38.2025155 C63.3937319,40.3970432 53.9412275,46.1696938 49.6894493,60.3542758 C46.8549305,69.8106638 47.5871791,82.4141835 51.886195,98.1648349 C59.1669339,106.054945 69.6657772,110 83.3827249,110 C103.958146,110 114.952766,100.718965 116.761728,86.616764 C118.57069,72.5145632 109.763493,64.5452867 101.049671,58.4433402 C101.818226,52.2372518 85.9716652,36.0079878 74.6826986,38.2025155 Z" id="path-4"></path>
        <filter x="-10.9%" y="-4.9%" width="114.5%" height="108.3%" filterUnits="objectBoundingBox" id="filter-5">
            <feOffset dx="-5" dy="-1" in="SourceAlpha" result="shadowOffsetOuter1"></feOffset>
            <feColorMatrix values="0 0 0 0 0   0 0 0 0 0   0 0 0 0 0  0 0 0 0.0920290647 0" type="matrix" in="shadowOffsetOuter1"></feColorMatrix>
        </filter>
        <linearGradient x1="50%" y1="0%" x2="78.0813712%" y2="174.815538%" id="linearGradient-6">
            <stop stop-color="#F78DB4" offset="0%"></stop>
            <stop stop-color="#5794DE" offset="100%"></stop>
        </linearGradient>
    </defs>
    <g id="snackui" stroke="none" stroke-width="1" fill="none" fill-rule="evenodd">
        <g id="Group-2" transform="translate(100.000000, 47.000000)" fill-rule="nonzero">
            <g id="Snack">
                <use fill="#F07BA4" xlink:href="#path-2"></use>
                <use fill="#FF9FC1" xlink:href="#path-2"></use>
                <use fill="url(#linearGradient-1)" xlink:href="#path-2"></use>
            </g>
            <path d="M346.145,101.72 L346.145,2.92 L328.725,7.34 L328.725,56.09 C328.725,61.1166667 328.031667,65.385 326.645,68.895 C325.258333,72.405 323.46,75.265 321.25,77.475 C319.04,79.685 316.526667,81.2883333 313.71,82.285 C310.893333,83.2816667 308.055,83.78 305.195,83.78 C302.248333,83.78 299.453333,83.26 296.81,82.22 C294.166667,81.18 291.848333,79.555 289.855,77.345 C287.861667,75.135 286.28,72.34 285.11,68.96 C283.94,65.58 283.355,61.5933333 283.355,57 L283.355,7.34 L265.805,2.92 L265.805,57.13 C265.805,64.15 266.845,70.3033333 268.925,75.59 C271.005,80.8766667 273.821667,85.275 277.375,88.785 C280.928333,92.295 285.088333,94.9383333 289.855,96.715 C294.621667,98.4916667 299.735,99.38 305.195,99.38 C309.268333,99.38 313.406667,98.6866667 317.61,97.3 C321.813333,95.9133333 325.605,93.92 328.985,91.32 L328.985,96.39 L346.145,101.72 Z M369.155,97.43 L369.155,0.84 L351.475,7.47 L351.475,97.43 L369.155,97.43 Z" id="UI" fill="#F07BA4"></path>
        </g>
        <g id="Group" transform="translate(418.000000, 36.000000)">
            <g id="Path" opacity="0.905040923">
                <use fill="black" fill-opacity="1" filter="url(#filter-5)" xlink:href="#path-4"></use>
                <use fill="url(#linearGradient-3)" fill-rule="evenodd" xlink:href="#path-4"></use>
            </g>
            <text id="🍑" fill="#B55454" fill-rule="nonzero" transform="translate(79.000000, 79.000000) rotate(-310.000000) translate(-79.000000, -79.000000) " font-family="AppleColorEmoji, Apple Color Emoji" font-size="80" font-weight="normal" letter-spacing="2.5">
                <tspan x="37.75" y="103">🍑</tspan>
            </text>
            <path d="M74.6826986,38.2025155 C63.3937319,40.3970432 53.9412275,46.1696938 49.6894493,60.3542758 C46.8549305,69.8106638 47.5871791,82.4141835 51.886195,98.1648349 C59.1669339,106.054945 69.6657772,110 83.3827249,110 C103.958146,110 114.952766,100.718965 116.761728,86.616764 C118.57069,72.5145632 109.763493,64.5452867 101.049671,58.4433402 C101.818226,52.2372518 85.9716652,36.0079878 74.6826986,38.2025155 Z" id="Path" fill="url(#linearGradient-6)" opacity="0.905040923"></path>
        </g>
    </g>
</svg>