<svg xmlns="http://www.w3.org/2000/svg" viewBox="0 0 256 256"><rect width="256" height="256" fill="none"/><path d="M248,216a8,8,0,0,1-8,8H96a8,8,0,0,1,0-16H240A8,8,0,0,1,248,216Zm-24-28a4.1,4.1,0,0,0,2.4-.8A4,4,0,0,0,228,184V148.3a36.1,36.1,0,0,0-26.4-34.7l-46.9-13L123.5,46a4.3,4.3,0,0,0-2.2-1.8l-13.5-4.5A11.9,11.9,0,0,0,97,41.4a11.6,11.6,0,0,0-5,9.7V82.6L66.8,74.7,51.5,46.1a4.1,4.1,0,0,0-2.2-1.9L35.8,39.7A11.9,11.9,0,0,0,25,41.4a11.6,11.6,0,0,0-5,9.7v52.6a36.1,36.1,0,0,0,26.3,34.7l176.6,49.5Z"/></svg>