<svg xmlns="http://www.w3.org/2000/svg" viewBox="0 0 256 256"><rect width="256" height="256" fill="none"/><path d="M136,40V216a8,8,0,0,1-16,0V40a8,8,0,0,1,16,0ZM69.7,90.3a8.4,8.4,0,0,0-8.8-1.7A8,8,0,0,0,56,96v24H16a8,8,0,0,0,0,16H56v24a8,8,0,0,0,4.9,7.4,8.5,8.5,0,0,0,3.1.6,8.3,8.3,0,0,0,5.7-2.3l32-32a8.1,8.1,0,0,0,0-11.4ZM240,120H200V96a8,8,0,0,0-4.9-7.4,8.4,8.4,0,0,0-8.8,1.7l-32,32a8.1,8.1,0,0,0,0,11.4l32,32A8.3,8.3,0,0,0,192,168a8.5,8.5,0,0,0,3.1-.6A8,8,0,0,0,200,160V136h40a8,8,0,0,0,0-16Z"/></svg>