<svg xmlns="http://www.w3.org/2000/svg" viewBox="0 0 256 256"><rect width="256" height="256" fill="none"/><path d="M216,48V88a8,8,0,0,1-4.9,7.4,8.5,8.5,0,0,1-3.1.6,8.3,8.3,0,0,1-5.7-2.3L188,79.3l-30.3,30.4a8.2,8.2,0,0,1-11.4,0,8.1,8.1,0,0,1,0-11.4L176.7,68,162.3,53.7a8.4,8.4,0,0,1-1.7-8.8A8,8,0,0,1,168,40h40A8,8,0,0,1,216,48ZM98.3,146.3,68,176.7,53.7,162.3a8.4,8.4,0,0,0-8.8-1.7A8,8,0,0,0,40,168v40a8,8,0,0,0,8,8H88a8,8,0,0,0,7.4-4.9,8.4,8.4,0,0,0-1.7-8.8L79.3,188l30.4-30.3a8.1,8.1,0,0,0-11.4-11.4Zm112.8,14.3a8.4,8.4,0,0,0-8.8,1.7L188,176.7l-30.3-30.4a8.1,8.1,0,0,0-11.4,11.4L176.7,188l-14.4,14.3a8.4,8.4,0,0,0-1.7,8.8A8,8,0,0,0,168,216h40a8,8,0,0,0,8-8V168A8,8,0,0,0,211.1,160.6ZM79.3,68,93.7,53.7a8.4,8.4,0,0,0,1.7-8.8A8,8,0,0,0,88,40H48a8,8,0,0,0-8,8V88a8,8,0,0,0,4.9,7.4A8.5,8.5,0,0,0,48,96a8.3,8.3,0,0,0,5.7-2.3L68,79.3l30.3,30.4a8.2,8.2,0,0,0,11.4,0,8.1,8.1,0,0,0,0-11.4Z"/></svg>