<svg xmlns="http://www.w3.org/2000/svg" viewBox="0 0 256 256"><rect width="256" height="256" fill="none"/><path d="M56,136a8,8,0,0,1-8,8H24a8,8,0,0,1,0-16h8V64H24a8,8,0,0,1,0-16H40a8,8,0,0,1,6.8,3.8L80,104.9l33.2-53.1A8,8,0,0,1,120,48h16a8,8,0,0,1,0,16h-8v64h8a8,8,0,0,1,0,16H112a8,8,0,0,1,0-16V83.9L86.8,124.2a8,8,0,0,1-13.6,0L48,83.9V128A8,8,0,0,1,56,136Zm112-24h72a8,8,0,0,0,0-16H168a8,8,0,0,0,0,16Zm72,16H168a8,8,0,0,0,0,16h72a8,8,0,0,0,0-16Zm0,32H72a8,8,0,0,0,0,16H240a8,8,0,0,0,0-16Zm0,32H72a8,8,0,0,0,0,16H240a8,8,0,0,0,0-16Z"/></svg>