<svg xmlns="http://www.w3.org/2000/svg" viewBox="0 0 256 256"><rect width="256" height="256" fill="none"/><path d="M216,40H68.5a16.2,16.2,0,0,0-13.7,7.8L9.1,123.9a8,8,0,0,0,0,8.2l45.7,76.1h0A16.1,16.1,0,0,0,68.5,216H216a16,16,0,0,0,16-16V56A16,16,0,0,0,216,40ZM165.7,146.3a8.1,8.1,0,0,1,0,11.4A8.5,8.5,0,0,1,160,160a8.3,8.3,0,0,1-5.7-2.3L136,139.3l-18.3,18.4A8.5,8.5,0,0,1,112,160a8.3,8.3,0,0,1-5.7-2.3,8.1,8.1,0,0,1,0-11.4L124.7,128l-18.4-18.3a8.1,8.1,0,0,1,11.4-11.4L136,116.7l18.3-18.4a8.1,8.1,0,0,1,11.4,11.4L147.3,128Z"/></svg>