<svg xmlns="http://www.w3.org/2000/svg" viewBox="0 0 256 256"><rect width="256" height="256" fill="none"/><path d="M248,88a8,8,0,0,0-8,8v64a8,8,0,0,0,16,0V96A8,8,0,0,0,248,88Z"/><path d="M200,48H48A24.1,24.1,0,0,0,24,72V184a24.1,24.1,0,0,0,24,24H200a24.1,24.1,0,0,0,24-24V72A24.1,24.1,0,0,0,200,48Zm-52.6,83-16,40a7.9,7.9,0,0,1-7.4,5,8,8,0,0,1-3-.6,7.9,7.9,0,0,1-4.4-10.4l11.6-29H108a7.9,7.9,0,0,1-6.6-3.5,8,8,0,0,1-.8-7.5l16-40a8,8,0,1,1,14.8,6l-11.6,29H140a7.9,7.9,0,0,1,6.6,3.5A8,8,0,0,1,147.4,131Z"/></svg>