<svg xmlns="http://www.w3.org/2000/svg" viewBox="0 0 256 256"><rect width="256" height="256" fill="none"/><path d="M207.8,112a79.7,79.7,0,0,0-79.2-80H128a79.9,79.9,0,0,0-79.8,80c0,34.3-7.1,53.7-13,63.9a16.2,16.2,0,0,0-.1,16.1A15.9,15.9,0,0,0,49,200H88a40,40,0,0,0,80,0h39a15.9,15.9,0,0,0,13.9-8,16.2,16.2,0,0,0-.1-16.1C214.9,165.7,207.8,146.3,207.8,112ZM128,224a24.1,24.1,0,0,1-24-24h48A24.1,24.1,0,0,1,128,224ZM224.9,73.3a9.3,9.3,0,0,1-3.5.8,7.9,7.9,0,0,1-7.2-4.5,97,97,0,0,0-35-38.8,8,8,0,0,1,8.5-13.6,111.7,111.7,0,0,1,40.8,45.4A8,8,0,0,1,224.9,73.3Zm-190.3.8a9.3,9.3,0,0,1-3.5-.8,8,8,0,0,1-3.6-10.7A111.7,111.7,0,0,1,68.3,17.2a8,8,0,0,1,8.5,13.6,97,97,0,0,0-35,38.8A7.9,7.9,0,0,1,34.6,74.1Z"/></svg>