<svg xmlns="http://www.w3.org/2000/svg" viewBox="0 0 256 256"><rect width="256" height="256" fill="none"/><path d="M220.8,175.9c-5.9-10.2-13-29.6-13-63.9v-7.1c0-44.3-35.5-80.6-79.2-80.9H128a79.9,79.9,0,0,0-79.8,80v8c0,34.3-7.1,53.7-13,63.9a16.2,16.2,0,0,0-.1,16.1A15.9,15.9,0,0,0,49,200H88a40,40,0,0,0,80,0h39a15.9,15.9,0,0,0,13.9-8A16.2,16.2,0,0,0,220.8,175.9ZM128,224a24.1,24.1,0,0,1-24-24h48A24.1,24.1,0,0,1,128,224Zm20-72H108a7.9,7.9,0,0,1-7.2-4.6,7.8,7.8,0,0,1,1.1-8.5l29-34.9H108a8,8,0,0,1,0-16h40a7.9,7.9,0,0,1,7.2,4.6,7.8,7.8,0,0,1-1.1,8.5l-29,34.9H148a8,8,0,0,1,0,16Z"/></svg>