<svg xmlns="http://www.w3.org/2000/svg" viewBox="0 0 256 256"><rect width="256" height="256" fill="none"/><path d="M188.8,169.6,133.3,128l23.5-17.6a8,8,0,0,0,1.6-11.2,8.1,8.1,0,0,0-11.2-1.6L128,112V48l19.2,14.4a8,8,0,0,0,11.2-1.6,8.1,8.1,0,0,0-1.6-11.2l-32-24A8,8,0,0,0,112,32v80L60.8,73.6a8.1,8.1,0,0,0-11.2,1.6,8,8,0,0,0,1.6,11.2L106.7,128,51.2,169.6A8,8,0,0,0,56,184a7.7,7.7,0,0,0,4.8-1.6L112,144v80a8.2,8.2,0,0,0,4.4,7.2,9.4,9.4,0,0,0,3.6.8,7.7,7.7,0,0,0,4.8-1.6l64-48a8,8,0,0,0,0-12.8ZM128,208V144l42.7,32Z"/><path d="M219.3,80l18.4-18.3a8.1,8.1,0,0,0-11.4-11.4L208,68.7,189.7,50.3a8.1,8.1,0,0,0-11.4,11.4L196.7,80,178.3,98.3a8.1,8.1,0,0,0,0,11.4,8.2,8.2,0,0,0,11.4,0L208,91.3l18.3,18.4a8.2,8.2,0,0,0,11.4,0,8.1,8.1,0,0,0,0-11.4Z"/></svg>