<svg xmlns="http://www.w3.org/2000/svg" viewBox="0 0 256 256"><rect width="256" height="256" fill="none"/><path d="M188.8,169.6,133.3,128l55.5-41.6a8,8,0,0,0,0-12.8l-64-48A8,8,0,0,0,112,32v80L60.8,73.6a8,8,0,0,0-9.6,12.8L106.7,128,51.2,169.6A8,8,0,0,0,56,184a7.7,7.7,0,0,0,4.8-1.6L112,144v80a8.2,8.2,0,0,0,4.4,7.2,9.4,9.4,0,0,0,3.6.8,7.7,7.7,0,0,0,4.8-1.6l64-48a8,8,0,0,0,0-12.8ZM128,48l42.7,32L128,112Zm0,160V144l42.7,32Zm80-80a12,12,0,1,1-12-12A12,12,0,0,1,208,128ZM52,140a12,12,0,1,1,12-12A12,12,0,0,1,52,140Z"/></svg>