<svg xmlns="http://www.w3.org/2000/svg" viewBox="0 0 256 256"><rect width="256" height="256" fill="none"/><path d="M240,208h-8V104a16,16,0,0,0-16-16H152V40a16,16,0,0,0-16-16H40A16,16,0,0,0,24,40V208H16a8,8,0,0,0,0,16H240a8,8,0,0,0,0-16ZM120,136a8,8,0,0,1-8,8H80a8,8,0,0,1,0-16h32A8,8,0,0,1,120,136ZM64,64H96a8,8,0,0,1,0,16H64a8,8,0,0,1,0-16Zm0,104H96a8,8,0,0,1,0,16H64a8,8,0,0,1,0-16Zm88-64h64V208H152Z"/><path d="M192,168H176a8,8,0,0,0,0,16h16a8,8,0,0,0,0-16Z"/><path d="M176,144h16a8,8,0,0,0,0-16H176a8,8,0,0,0,0,16Z"/></svg>