<svg xmlns="http://www.w3.org/2000/svg" viewBox="0 0 256 256"><rect width="256" height="256" fill="none"/><path d="M136,87.5V56a8,8,0,0,0-16,0V87.5a98.7,98.7,0,0,1,8,12.7A98.7,98.7,0,0,1,136,87.5Z"/><path d="M231.4,50.4C227.7,45.6,220.7,40,208,40c-16.7,0-38.1,11.3-57.2,30.3A144.2,144.2,0,0,0,136,87.5V172a8,8,0,0,1-16,0V87.5a144.2,144.2,0,0,0-14.8-17.2C86.1,51.3,64.7,40,48,40c-12.7,0-19.7,5.6-23.4,10.4-6.8,8.7-12.2,24.1-.4,71.5,6.6,26.3,22,34.9,33.5,37.5a40,40,0,1,0,70.3,38,40,40,0,1,0,70.3-38c11.5-2.6,26.9-11.2,33.5-37.5S243.6,66,231.4,50.4Z"/></svg>