<svg xmlns="http://www.w3.org/2000/svg" viewBox="0 0 256 256"><rect width="256" height="256" fill="none"/><path d="M208,32H184V24a8,8,0,0,0-16,0v8H88V24a8,8,0,0,0-16,0v8H48A16,16,0,0,0,32,48V208a16,16,0,0,0,16,16H208a16,16,0,0,0,16-16V48A16,16,0,0,0,208,32ZM104,188a24.2,24.2,0,0,1-17-7,8,8,0,0,1,0-11.3,7.9,7.9,0,0,1,11.3,0A8.3,8.3,0,0,0,104,172a8,8,0,0,0,0-16h-2.5l-.4-.2h-.3l-.5-.2h-.1l-.6-.4h-.2l-.4-.3h0l-.4-.3-.2-.2-.3-.3a8.6,8.6,0,0,1-1.3-2,5.8,5.8,0,0,1-.6-1.7h0c-.1-.1-.1-.2-.1-.4a.4.4,0,0,0-.1-.3V148h0v-.7c0-.2.1-.3.1-.4v-.4a.6.6,0,0,0,.1-.4c.1-.1.1-.2.1-.4l.2-.3c0-.2,0-.3.1-.4l.2-.4v-.3l.2-.4.2-.3.3-.4.2-.2,5.6-7H92a8,8,0,0,1,0-16h28a8,8,0,0,1,6.2,13l-8.8,11.1A24,24,0,0,1,104,188Zm64-8a8,8,0,0,1-16,0V144l-3.2,2.4a8.1,8.1,0,0,1-11.2-1.6,8,8,0,0,1,1.6-11.2l16-12A8,8,0,0,1,168,128ZM208,80H48V48H72v8a8,8,0,0,0,16,0V48h80v8a8,8,0,0,0,16,0V48h24Z"/></svg>