<svg xmlns="http://www.w3.org/2000/svg" viewBox="0 0 256 256"><rect width="256" height="256" fill="none"/><path d="M230.5,189.8A80,80,0,0,0,169.6,72.6,80,80,0,1,0,25.5,141.8l-6.2,21.6a13.9,13.9,0,0,0,17.3,17.3l21.6-6.2a80.8,80.8,0,0,0,28.2,8.9,80,80,0,0,0,111.4,39.1l21.6,6.2a13.9,13.9,0,0,0,17.3-17.3Zm-15.4-5.1a7.6,7.6,0,0,0-.9,6.2l6.2,21.5-21.5-6.2a7.6,7.6,0,0,0-6.2.9,64.2,64.2,0,0,1-88.4-23.5A80.2,80.2,0,0,0,176,104a83.6,83.6,0,0,0-1.3-14.3A64,64,0,0,1,224,152,64.8,64.8,0,0,1,215.1,184.7Z"/></svg>