<svg xmlns="http://www.w3.org/2000/svg" viewBox="0 0 256 256"><rect width="256" height="256" fill="none"/><path d="M136,80v43.4l37.6,21.7a8,8,0,0,1-4,14.9,7.1,7.1,0,0,1-4-1.1l-41.6-24h-.2l-.4-.2-.3-.3-.3-.2-.3-.3-.2-.2c-.2-.1-.3-.3-.4-.4l-.2-.2-.2-.4-.2-.3-.2-.3a.5.5,0,0,1-.2-.4l-.2-.3c0-.1-.1-.2-.1-.4a.4.4,0,0,1-.1-.3l-.2-.4a.4.4,0,0,0-.1-.3c0-.2,0-.3-.1-.4v-.4c0-.2-.1-.3-.1-.4V80a8,8,0,0,1,16,0Zm59.9-19.9a96.2,96.2,0,0,0-135.8,0l-8.3,8.3L37.5,54.1a8,8,0,0,0-8.7-1.8,8.2,8.2,0,0,0-5,7.4v40a8,8,0,0,0,8,8h40a8,8,0,0,0,5.7-13.6L63.1,79.7l8.3-8.3a80,80,0,1,1,0,113.2,7.9,7.9,0,0,0-11.3,0,8,8,0,0,0,0,11.3A96,96,0,0,0,195.9,60.1Z"/></svg>