<svg xmlns="http://www.w3.org/2000/svg" viewBox="0 0 256 256"><rect width="256" height="256" fill="none"/><path d="M216,40H40A16,16,0,0,0,24,56V200a16,16,0,0,0,16,16H216a16,16,0,0,0,16-16V56A16,16,0,0,0,216,40ZM96,148a19.8,19.8,0,0,0,14.3-6,8,8,0,0,1,11.4,11.2A35.4,35.4,0,0,1,96,164a36,36,0,0,1,0-72,35.4,35.4,0,0,1,25.7,10.8A8,8,0,0,1,110.3,114,19.8,19.8,0,0,0,96,108a20,20,0,0,0,0,40Zm72,0a19.8,19.8,0,0,0,14.3-6,8,8,0,0,1,11.4,11.2A35.4,35.4,0,0,1,168,164a36,36,0,0,1,0-72,35.4,35.4,0,0,1,25.7,10.8A8,8,0,0,1,182.3,114a19.8,19.8,0,0,0-14.3-6,20,20,0,0,0,0,40Z"/></svg>