<svg xmlns="http://www.w3.org/2000/svg" viewBox="0 0 256 256"><rect width="256" height="256" fill="none"/><path d="M168,224a8,8,0,0,1-8,8H104a8,8,0,0,1,0-16h56A8,8,0,0,1,168,224Zm-40-32a8,8,0,0,0-8-8H72a8,8,0,0,0,0,16h48A8,8,0,0,0,128,192Zm56-8H160a8,8,0,0,0,0,16h24a8,8,0,0,0,0-16ZM159.3,16.1A76.1,76.1,0,0,0,85,64.8h0a76.4,76.4,0,0,0-5,26.9,8.3,8.3,0,0,1-7.4,8.3A8,8,0,0,1,64,92a88.2,88.2,0,0,1,2.5-21.1,4,4,0,0,0-5-4.8A52,52,0,0,0,24,116.3C24.2,145,48.1,168,76.8,168H156a76,76,0,0,0,3.3-151.9Z"/></svg>