<svg xmlns="http://www.w3.org/2000/svg" viewBox="0 0 256 256"><rect width="256" height="256" fill="none"/><path d="M176,196a12,12,0,1,1-12-12A12,12,0,0,1,176,196ZM76,184a12,12,0,1,0,12,12A12,12,0,0,0,76,184Zm40,16a12,12,0,1,0,12,12A12,12,0,0,0,116,200ZM68,224a12,12,0,1,0,12,12A12,12,0,0,0,68,224Zm88,0a12,12,0,1,0,12,12A12,12,0,0,0,156,224Zm3.3-207.9A76.1,76.1,0,0,0,85,64.8h0a74.8,74.8,0,0,0-5,26.9,8.3,8.3,0,0,1-7.4,8.3A8,8,0,0,1,64,92a91.6,91.6,0,0,1,2.4-21.1,4,4,0,0,0-5-4.8A52.1,52.1,0,0,0,24,116.3C24.2,145,48.1,168,76.8,168H156a76,76,0,0,0,3.3-151.9Z"/></svg>