<svg xmlns="http://www.w3.org/2000/svg" viewBox="0 0 256 256"><rect width="256" height="256" fill="none"/><path d="M80,56V24a8,8,0,0,1,16,0V56a8,8,0,0,1-16,0Zm40,8a8,8,0,0,0,8-8V24a8,8,0,0,0-16,0V56A8,8,0,0,0,120,64Zm32,0a8,8,0,0,0,8-8V24a8,8,0,0,0-16,0V56A8,8,0,0,0,152,64Zm96,56v8a40,40,0,0,1-37.5,39.9,98,98,0,0,1-27,40.1H208a8,8,0,0,1,0,16H32a8,8,0,0,1,0-16H56.5A96.4,96.4,0,0,1,24,136V88a8,8,0,0,1,8-8H208A40,40,0,0,1,248,120Zm-16,0a24,24,0,0,0-16-22.6V136a92.9,92.9,0,0,1-1.2,15A24,24,0,0,0,232,128Z"/></svg>