<svg xmlns="http://www.w3.org/2000/svg" viewBox="0 0 256 256"><rect width="256" height="256" fill="none"/><path d="M104,140a12,12,0,1,1-12-12A12,12,0,0,1,104,140Zm60-12a12,12,0,1,0,12,12A12,12,0,0,0,164,128Zm68.7,16a16.1,16.1,0,0,1-6.7,1.4,15.6,15.6,0,0,1-10-3.6V184a40,40,0,0,1-40,40H80a40,40,0,0,1-40-40V141.8a15.6,15.6,0,0,1-10,3.6,16.1,16.1,0,0,1-6.7-1.4,15.8,15.8,0,0,1-9.1-17.6L30.6,38.9A16.1,16.1,0,0,1,50.2,26.3L105,40h46l54.8-13.7a16.1,16.1,0,0,1,19.6,12.6l16.4,87.5A15.8,15.8,0,0,1,232.7,144ZM200,184V122L148.1,56H107.9L56,122v62a24.1,24.1,0,0,0,24,24h40V195.3l-13.7-13.6a8.1,8.1,0,0,1,11.4-11.4L128,180.7l10.3-10.4a8.1,8.1,0,0,1,11.4,11.4L136,195.3V208h40A24.1,24.1,0,0,0,200,184Z"/></svg>