<svg xmlns="http://www.w3.org/2000/svg" viewBox="0 0 256 256"><rect width="256" height="256" fill="none"/><path d="M84,96a8,8,0,0,1-8,8H36a8,8,0,0,1,0-16H76A8,8,0,0,1,84,96Zm-8,24H36a8,8,0,0,0,0,16H76a8,8,0,0,0,0-16Zm0,32H36a8,8,0,0,0,0,16H76a8,8,0,0,0,0-16Zm0,32H36a8,8,0,0,0,0,16H76a8,8,0,0,0,0-16Zm72-64H108a8,8,0,0,0,0,16h40a8,8,0,0,0,0-16Zm0,32H108a8,8,0,0,0,0,16h40a8,8,0,0,0,0-16Zm0,32H108a8,8,0,0,0,0,16h40a8,8,0,0,0,0-16Zm72-96H180a8,8,0,0,0,0,16h40a8,8,0,0,0,0-16ZM180,72h40a8,8,0,0,0,0-16H180a8,8,0,0,0,0,16Zm40,48H180a8,8,0,0,0,0,16h40a8,8,0,0,0,0-16Zm0,32H180a8,8,0,0,0,0,16h40a8,8,0,0,0,0-16Zm0,32H180a8,8,0,0,0,0,16h40a8,8,0,0,0,0-16Z"/></svg>