<svg xmlns="http://www.w3.org/2000/svg" viewBox="0 0 256 256"><rect width="256" height="256" fill="none"/><path d="M247.3,124.8c-.3-.8-8.8-19.6-27.6-38.5C194.6,61.3,162.9,48,128,48a132.4,132.4,0,0,0-22,1.8,8.1,8.1,0,0,0-4.6,13.3L202.7,174.5a8,8,0,0,0,5.9,2.6,8.6,8.6,0,0,0,5.4-2c22.8-20.5,32.9-42.9,33.3-43.8A8.2,8.2,0,0,0,247.3,124.8Z"/><path d="M53.9,34.6A8,8,0,0,0,42.1,45.4L61.3,66.5C25,88.8,9.4,123.2,8.7,124.8a8.2,8.2,0,0,0,0,6.5c.3.7,8.8,19.5,27.6,38.4C61.4,194.7,93.1,208,128,208a126.9,126.9,0,0,0,52.1-10.8l22,24.2A8,8,0,0,0,208,224a8.2,8.2,0,0,0,5.4-2.1,7.9,7.9,0,0,0,.5-11.3ZM128,164a36,36,0,0,1-29.5-56.6l47.2,51.9A35.4,35.4,0,0,1,128,164Z"/></svg>