<svg xmlns="http://www.w3.org/2000/svg" viewBox="0 0 256 256"><rect width="256" height="256" fill="none"/><path d="M224,67.5a35.5,35.5,0,0,0-11.3-25.7c-14-13.2-36.7-12.7-50.6,1.2L140.2,64.9a24.1,24.1,0,0,0-33.2.8l-7,7a16.1,16.1,0,0,0,0,22.6l2.1,2.1L51.7,147.7a40.3,40.3,0,0,0-11,35.8l-9.8,22.4a13.6,13.6,0,0,0,2.9,15.2,15.8,15.8,0,0,0,11.3,4.7,16.3,16.3,0,0,0,6.4-1.3l21-9.2a40.3,40.3,0,0,0,35.8-11l50.3-50.4,2.1,2.1a15.9,15.9,0,0,0,22.6,0l7-7a24.1,24.1,0,0,0,.8-33.2l22.4-22.3A36.2,36.2,0,0,0,224,67.5ZM97,193a24.3,24.3,0,0,1-23.2,6.2,8,8,0,0,0-5.3.4L47,209l9.4-21.5a8,8,0,0,0,.4-5.3A24.3,24.3,0,0,1,63,159l50.4-50.3,33.9,33.9Z"/></svg>