<svg xmlns="http://www.w3.org/2000/svg" viewBox="0 0 256 256"><rect width="256" height="256" fill="none"/><path d="M129.7,183.8c-3.1-.8-8.6-2.3-9.7-3.6V180c0-3.3,2.4-5,7-5a18.4,18.4,0,0,1,10,3.2h-.1A8.3,8.3,0,0,0,142,180a8,8,0,0,0,8-8,7.6,7.6,0,0,0-2.9-6.1h0A33.4,33.4,0,0,0,127,159c-13.5,0-23,8.6-23,21s13,17,21.6,19.3c3.4.9,7,1.8,9.2,3.1s1.2,1,1.2,1.6,0,5-9,5a18.4,18.4,0,0,1-10-3.2h.1A8.3,8.3,0,0,0,112,204a8,8,0,0,0-8,8,7.6,7.6,0,0,0,2.9,6.1h0A33.4,33.4,0,0,0,127,225c15.7,0,25-7.9,25-21S138,186,129.7,183.8Zm7.2-5.7h0Zm-19.8,27.8h0ZM52,192c0,8.8,6.3,16,14,16a12.9,12.9,0,0,0,8.6-3.4,7.9,7.9,0,0,1,11.3.6,8,8,0,0,1-.5,11.3A29.3,29.3,0,0,1,66,224c-16.5,0-30-14.4-30-32s13.5-32,30-32a29.3,29.3,0,0,1,19.4,7.5,8,8,0,0,1,.5,11.3,7.9,7.9,0,0,1-11.3.6A12.9,12.9,0,0,0,66,176C58.3,176,52,183.2,52,192Zm141.7-8.2c-3.1-.8-8.6-2.3-9.7-3.6V180c0-3.3,2.4-5,7-5a18.4,18.4,0,0,1,10,3.2h-.1A8.3,8.3,0,0,0,206,180a8,8,0,0,0,8-8,7.6,7.6,0,0,0-2.9-6.1h0A33.4,33.4,0,0,0,191,159c-13.5,0-23,8.6-23,21s13,17,21.6,19.3c3.4.9,7,1.8,9.2,3.1s1.2,1,1.2,1.6,0,5-9,5a18.4,18.4,0,0,1-10-3.2h.1A8.3,8.3,0,0,0,176,204a8,8,0,0,0-8,8,7.6,7.6,0,0,0,2.9,6.1h0A33.4,33.4,0,0,0,191,225c15.7,0,25-7.9,25-21S202,186,193.7,183.8Zm7.2-5.7h0Zm-19.8,27.8h0Zm20.5-27.2Zm-64,0Zm76.1-96.4-56-56A8.1,8.1,0,0,0,152,24H56A16,16,0,0,0,40,40v88a8,8,0,0,0,8,8H208a8,8,0,0,0,8-8V88A8.1,8.1,0,0,0,213.7,82.3ZM152,88V44l44,44Z"/></svg>