<svg xmlns="http://www.w3.org/2000/svg" viewBox="0 0 256 256"><rect width="256" height="256" fill="none"/><path d="M152,164v49.2a8.1,8.1,0,0,1-4.5,7.2,8.5,8.5,0,0,1-3.5.8,7.9,7.9,0,0,1-4.9-1.7l-19.1-15V208a16,16,0,0,1-16,16H48a16,16,0,0,1-16-16V168a16,16,0,0,1,16-16h56a16,16,0,0,1,16,16v4l19.2-14.4A8,8,0,0,1,152,164Zm64-76V216a16,16,0,0,1-16,16H168a8,8,0,0,1,0-16h32V96H152a8,8,0,0,1-8-8V40H56v80a8,8,0,0,1-16,0V40A16,16,0,0,1,56,24h96a8.1,8.1,0,0,1,5.7,2.3l56,56A8.1,8.1,0,0,1,216,88Zm-27.3-8L160,51.3V80Z"/></svg>