<svg xmlns="http://www.w3.org/2000/svg" viewBox="0 0 256 256"><rect width="256" height="256" fill="none"/><path d="M120,168H88a8,8,0,0,0,0,16h8v32a8,8,0,0,0,16,0V184h8a8,8,0,0,0,0-16Z"/><path d="M64,168a8,8,0,0,0-8,8v12H44V176a8,8,0,0,0-16,0v40a8,8,0,0,0,16,0V204H56v12a8,8,0,0,0,16,0V176A8,8,0,0,0,64,168Z"/><path d="M236,208H220V176a8,8,0,0,0-16,0v40a8,8,0,0,0,8,8h24a8,8,0,0,0,0-16Z"/><path d="M186.4,168.4a7.8,7.8,0,0,0-8.9,3L164,190.2l-13.5-18.8A8,8,0,0,0,136,176v40a8,8,0,0,0,16,0V201l5.5,7.6a7.9,7.9,0,0,0,13,0L176,201v15a8,8,0,0,0,16,0V176A7.8,7.8,0,0,0,186.4,168.4Z"/><path d="M48,136H208a8,8,0,0,0,8-8V88a8.1,8.1,0,0,0-2.3-5.7l-56-56A8.1,8.1,0,0,0,152,24H56A16,16,0,0,0,40,40v88A8,8,0,0,0,48,136ZM152,44l44,44H152Z"/></svg>