<svg xmlns="http://www.w3.org/2000/svg" viewBox="0 0 256 256"><rect width="256" height="256" fill="none"/><path d="M213.6,82.3l-55.9-56-.3-.2-.3-.3-.3-.2-.3-.2c-.1-.1-.2-.1-.2-.2l-.5-.3h-.2l-.5-.3H155l-.7-.3H56A16,16,0,0,0,40,40V216a16,16,0,0,0,16,16H200a16,16,0,0,0,16-16V88A7.8,7.8,0,0,0,213.6,82.3Zm-51.9,71.4a8.1,8.1,0,0,1-11.4,0L136,139.3V184a8,8,0,0,1-16,0V139.3l-14.3,14.4a8.1,8.1,0,0,1-11.4-11.4l28-28h.1l.5-.5.3-.2.4-.3.3-.2.3-.2h.4l.3-.2h.4l.4-.2h4.6l.4.2h.4l.3.2h.4l.3.2.3.2.4.3.3.2.5.5h.1l28,28A8.1,8.1,0,0,1,161.7,153.7ZM152,88V43.3L196.7,88Z"/></svg>