<svg xmlns="http://www.w3.org/2000/svg" viewBox="0 0 256 256"><rect width="256" height="256" fill="none"/><path d="M213.7,82.3l-56-56A8.1,8.1,0,0,0,152,24H56A16,16,0,0,0,40,40v88a8,8,0,0,0,8,8H208a8,8,0,0,0,8-8V88A8.1,8.1,0,0,0,213.7,82.3ZM152,88V44l44,44ZM92,168a8,8,0,0,1-8,8H74v40a8,8,0,0,1-16,0V176H48a8,8,0,0,1,0-16H84A8,8,0,0,1,92,168Zm122.4,4.8L200,192l14.4,19.2a8,8,0,0,1-1.6,11.2A7.7,7.7,0,0,1,208,224a8,8,0,0,1-6.4-3.2L190,205.3l-11.6,15.5A8,8,0,0,1,172,224a7.7,7.7,0,0,1-4.8-1.6,8.1,8.1,0,0,1-1.6-11.2L180,192l-14.4-19.2a8.1,8.1,0,0,1,1.6-11.2,8,8,0,0,1,11.2,1.6L190,178.7l11.6-15.5a8,8,0,1,1,12.8,9.6ZM152,204c0,13.1-9.3,21-25,21a33.4,33.4,0,0,1-20.1-6.8h0A7.6,7.6,0,0,1,104,212a8,8,0,0,1,8-8,8.3,8.3,0,0,1,5.1,1.8H117a18.4,18.4,0,0,0,10,3.2c9,0,9-3,9-5s0-.9-1.2-1.6-5.8-2.2-9.2-3.1C117,197,104,193.5,104,180s9.5-21,23-21a33.4,33.4,0,0,1,20.1,6.8h0A7.6,7.6,0,0,1,150,172a8,8,0,0,1-8,8,8.3,8.3,0,0,1-5.1-1.8h.1a18.4,18.4,0,0,0-10-3.2c-4.6,0-7,1.7-7,5v.2c1.1,1.3,6.6,2.8,9.7,3.6C138,186,152,189.7,152,204Z"/></svg>