<svg xmlns="http://www.w3.org/2000/svg" viewBox="0 0 256 256"><rect width="256" height="256" fill="none"/><path d="M80,224a8,8,0,0,1-8,8H56a16,16,0,0,1-16-16V184a8,8,0,0,1,16,0v32H72A8,8,0,0,1,80,224ZM80,24H56A16,16,0,0,0,40,40V64a8,8,0,0,0,16,0V40H80a8,8,0,0,0,0-16ZM216,88a7.8,7.8,0,0,0-2.4-5.7l-55.9-56h-.2l-.4-.4h-.2l-.4-.3c-.1-.1-.2-.1-.2-.2l-.5-.3h-.2l-.5-.3H155l-.7-.3H120a8,8,0,0,0,0,16h24V88a8,8,0,0,0,8,8h48v40a8,8,0,0,0,16,0V88Zm-8,80a8,8,0,0,0-8,8v40h-8a8,8,0,0,0,0,16h8a16,16,0,0,0,16-16V176A8,8,0,0,0,208,168ZM48,152a8,8,0,0,0,8-8V104a8,8,0,0,0-16,0v40A8,8,0,0,0,48,152Zm104,64H112a8,8,0,0,0,0,16h40a8,8,0,0,0,0-16Z"/></svg>