<svg xmlns="http://www.w3.org/2000/svg" viewBox="0 0 256 256"><rect width="256" height="256" fill="none"/><path d="M213.7,82.3l-56-56A8.1,8.1,0,0,0,152,24H56A16,16,0,0,0,40,40V216a16,16,0,0,0,16,16H200a16,16,0,0,0,16-16V88A8.1,8.1,0,0,0,213.7,82.3Zm-104,88a8.1,8.1,0,0,1,0,11.4,8.2,8.2,0,0,1-11.4,0l-24-24a8.1,8.1,0,0,1,0-11.4l24-24a8.1,8.1,0,0,1,11.4,11.4L91.3,152Zm72-12.6-24,24a8.2,8.2,0,0,1-11.4,0,8.1,8.1,0,0,1,0-11.4L164.7,152l-18.4-18.3a8.1,8.1,0,0,1,11.4-11.4l24,24A8.1,8.1,0,0,1,181.7,157.7ZM152,88V44l44,44Z"/></svg>