<svg xmlns="http://www.w3.org/2000/svg" viewBox="0 0 256 256"><rect width="256" height="256" fill="none"/><path d="M213.7,82.3l-56-56A8.1,8.1,0,0,0,152,24H56A16,16,0,0,0,40,40v88a8,8,0,0,0,8,8H208a8,8,0,0,0,8-8V88A8.1,8.1,0,0,0,213.7,82.3ZM152,88V44l44,44ZM64,160H48a8,8,0,0,0-8,8v48a8,8,0,0,0,16,0v-8h8a24,24,0,0,0,0-48Zm0,32H56V176h8a8,8,0,0,1,0,16Zm64-32H112a8,8,0,0,0-8,8v48a8,8,0,0,0,16,0v-8h8a24,24,0,0,0,0-48Zm0,32h-8V176h8a8,8,0,0,1,0,16Zm88-24a8,8,0,0,1-8,8H198v40a8,8,0,0,1-16,0V176H172a8,8,0,0,1,0-16h36A8,8,0,0,1,216,168Z"/></svg>