<svg xmlns="http://www.w3.org/2000/svg" viewBox="0 0 256 256"><rect width="256" height="256" fill="none"/><path d="M219.4,171.1l-20,48a8,8,0,0,1-14.8,0l-20-48a8,8,0,1,1,14.8-6.2L192,195.2l12.6-30.3a8,8,0,1,1,14.8,6.2ZM66,176a12.9,12.9,0,0,1,8.6,3.4,7.9,7.9,0,0,0,11.3-.6,8,8,0,0,0-.5-11.3A29.3,29.3,0,0,0,66,160c-16.5,0-30,14.4-30,32s13.5,32,30,32a29.3,29.3,0,0,0,19.4-7.5,8,8,0,0,0,.5-11.3,7.9,7.9,0,0,0-11.3-.6A12.9,12.9,0,0,1,66,208c-7.7,0-14-7.2-14-16S58.3,176,66,176Zm63.7,7.8c-3.1-.8-8.6-2.3-9.7-3.6V180c0-3.3,2.4-5,7-5a18.4,18.4,0,0,1,10,3.2h-.1A8.3,8.3,0,0,0,142,180a8,8,0,0,0,8-8,7.6,7.6,0,0,0-2.9-6.1h0A33.4,33.4,0,0,0,127,159c-13.5,0-23,8.6-23,21s13,17,21.6,19.3c3.4.9,7,1.8,9.2,3.1s1.2,1,1.2,1.6,0,5-9,5a18.4,18.4,0,0,1-10-3.2h.1A8.3,8.3,0,0,0,112,204a8,8,0,0,0-8,8,7.6,7.6,0,0,0,2.9,6.1h0A33.4,33.4,0,0,0,127,225c15.7,0,25-7.9,25-21S138,186,129.7,183.8ZM40,128V40A16,16,0,0,1,56,24h96a8.1,8.1,0,0,1,5.7,2.3l56,56A8.1,8.1,0,0,1,216,88v40a8,8,0,0,1-8,8H48A8,8,0,0,1,40,128ZM152,88h44L152,44Z"/></svg>