<svg xmlns="http://www.w3.org/2000/svg" viewBox="0 0 256 256"><rect width="256" height="256" fill="none"/><path d="M120,160H104a8,8,0,0,0-8,8v48a8,8,0,0,0,16,0v-8h8a24,24,0,0,0,0-48Zm0,32h-8V176h8a8,8,0,0,1,0,16ZM80,168v32a24,24,0,0,1-48,0,8,8,0,0,1,16,0,8,8,0,0,0,16,0V168a8,8,0,0,1,16,0Zm128,26v11.8a7.5,7.5,0,0,1-1.3,4.3A29.4,29.4,0,0,1,182,224c-16.5,0-30-14.4-30-32s13.5-32,30-32a28.4,28.4,0,0,1,16.6,5.4,8,8,0,0,1-9.2,13A12.6,12.6,0,0,0,182,176c-7.7,0-14,7.2-14,16s6.3,16,14,16a13.3,13.3,0,0,0,10-4.8V202h-4a8,8,0,0,1,0-16h12A8,8,0,0,1,208,194Zm5.7-111.7-56-56A8.1,8.1,0,0,0,152,24H56A16,16,0,0,0,40,40v88a8,8,0,0,0,8,8H208a8,8,0,0,0,8-8V88A8.1,8.1,0,0,0,213.7,82.3ZM152,88V44l44,44Z"/></svg>