<svg xmlns="http://www.w3.org/2000/svg" viewBox="0 0 256 256"><rect width="256" height="256" fill="none"/><path d="M128,24A104.2,104.2,0,0,0,24,128a88,88,0,0,1-5,29.3,8.1,8.1,0,0,0,4.9,10.3,8.2,8.2,0,0,0,2.6.4,8.1,8.1,0,0,0,7.6-5.3A104.5,104.5,0,0,0,40,128a88,88,0,0,1,176,0,283.6,283.6,0,0,1-5.3,54.5,8.1,8.1,0,0,0,6.3,9.4h1.6a7.9,7.9,0,0,0,7.8-6.4A299.9,299.9,0,0,0,232,128,104.1,104.1,0,0,0,128,24Z"/><path d="M93,84.3A8,8,0,0,0,83,71.8,71.6,71.6,0,0,0,56,128a118.7,118.7,0,0,1-12.5,53.4,8.1,8.1,0,0,0,3.6,10.7,7.8,7.8,0,0,0,3.6.8,8.1,8.1,0,0,0,7.2-4.4A136.1,136.1,0,0,0,72,128,55.9,55.9,0,0,1,93,84.3Z"/><path d="M128,120a8,8,0,0,0-8,8,183.3,183.3,0,0,1-23,89.1,8.1,8.1,0,0,0,3.2,10.9,7.5,7.5,0,0,0,3.8,1,8,8,0,0,0,7-4.1A199.8,199.8,0,0,0,136,128,8,8,0,0,0,128,120Z"/><path d="M128,88a40.1,40.1,0,0,0-40,40,8,8,0,0,0,16,0,24,24,0,0,1,48,0,214.3,214.3,0,0,1-20.5,92,8,8,0,0,0,3.8,10.7,8.3,8.3,0,0,0,3.4.7,8.1,8.1,0,0,0,7.3-4.6A230,230,0,0,0,168,128,40.1,40.1,0,0,0,128,88Z"/><path d="M94.4,152.2a7.9,7.9,0,0,0-9.4,6.2,154.8,154.8,0,0,1-17.2,45.5,8,8,0,0,0,2.9,10.9,8.3,8.3,0,0,0,4,1.1,8.2,8.2,0,0,0,6.9-4,163.2,163.2,0,0,0,19-50.3A7.9,7.9,0,0,0,94.4,152.2Z"/><path d="M128,56a68,68,0,0,0-9,.6,8,8,0,1,0,2,15.8c2.3-.2,4.7-.4,7-.4a56,56,0,0,1,56,56,245.7,245.7,0,0,1-1.9,31,7.9,7.9,0,0,0,6.9,8.9h1a8.1,8.1,0,0,0,8-7,279.7,279.7,0,0,0,2-33A72.1,72.1,0,0,0,128,56Z"/><path d="M185.9,184.3a7.9,7.9,0,0,0-9.7,5.7c-1.5,5.7-3.2,11.4-5,17a7.9,7.9,0,0,0,5,10.1,7.8,7.8,0,0,0,2.6.4,7.9,7.9,0,0,0,7.5-5.4c2-6,3.8-12,5.4-18.1A8,8,0,0,0,185.9,184.3Z"/></svg>