<svg xmlns="http://www.w3.org/2000/svg" viewBox="0 0 256 256"><rect width="256" height="256" fill="none"/><path d="M208.4,132.8a56.9,56.9,0,0,0-11.5-4.8,56.9,56.9,0,0,0,11.5-4.8,36,36,0,0,0-36-62.4,58.7,58.7,0,0,0-9.9,7.5A58.6,58.6,0,0,0,164,56a36,36,0,0,0-72,0,58.6,58.6,0,0,0,1.5,12.3,58.7,58.7,0,0,0-9.9-7.5,36,36,0,0,0-36,62.4A56.9,56.9,0,0,0,59.1,128a56.9,56.9,0,0,0-11.5,4.8,36,36,0,0,0,36,62.4,58.7,58.7,0,0,0,9.9-7.5A58.6,58.6,0,0,0,92,200a36,36,0,0,0,72,0,58.6,58.6,0,0,0-1.5-12.3,58.7,58.7,0,0,0,9.9,7.5,36,36,0,0,0,36-62.4ZM128,152a24,24,0,1,1,24-24A24.1,24.1,0,0,1,128,152Z"/></svg>