<svg xmlns="http://www.w3.org/2000/svg" viewBox="0 0 256 256"><rect width="256" height="256" fill="none"/><path d="M24,80V64A16,16,0,0,1,40,48H93.3a15.6,15.6,0,0,1,9.6,3.2l29.9,22.4A8,8,0,0,1,128,88a7.7,7.7,0,0,1-4.8-1.6L93.3,64H40V80a8,8,0,0,1-16,0ZM88,200H40v-8a8,8,0,0,0-16,0v8.6A15.4,15.4,0,0,0,39.4,216H88a8,8,0,0,0,0-16Zm72,0H128a8,8,0,0,0,0,16h32a8,8,0,0,0,0-16Zm64-56a8,8,0,0,0-8,8v48H200a8,8,0,0,0,0,16h16.9A15.2,15.2,0,0,0,232,200.9V152A8,8,0,0,0,224,144Zm-8-72H168a8,8,0,0,0,0,16h48v24a8,8,0,0,0,16,0V88A16,16,0,0,0,216,72ZM32,160a8,8,0,0,0,8-8V120a8,8,0,0,0-16,0v32A8,8,0,0,0,32,160Z"/></svg>