<svg xmlns="http://www.w3.org/2000/svg" viewBox="0 0 256 256"><rect width="256" height="256" fill="none"/><path d="M96,208a8,8,0,0,1-8,8H39.4A15.4,15.4,0,0,1,24,200.6V192a8,8,0,0,1,16,0v8H88A8,8,0,0,1,96,208Zm64-8H128a8,8,0,0,0,0,16h32a8,8,0,0,0,0-16Zm64-56a8,8,0,0,0-8,8v48H200a8,8,0,0,0,0,16h16.9A15.2,15.2,0,0,0,232,200.9V152A8,8,0,0,0,224,144Zm-8-72H168a8,8,0,0,0,0,16h48v24a8,8,0,0,0,16,0V88A16,16,0,0,0,216,72ZM32,88h96a8,8,0,0,0,7.4-4.9,8.4,8.4,0,0,0-1.7-8.8L104,44.7A15.9,15.9,0,0,0,92.7,40H40A16,16,0,0,0,24,56V80A8,8,0,0,0,32,88Zm0,72a8,8,0,0,0,8-8V120a8,8,0,0,0-16,0v32A8,8,0,0,0,32,160Z"/></svg>