<svg xmlns="http://www.w3.org/2000/svg" viewBox="0 0 256 256"><rect width="256" height="256" fill="none"/><path d="M212,32V224a8,8,0,0,1-16,0V168H148a8.2,8.2,0,0,1-6-2.7,8.1,8.1,0,0,1-2-6.2,412.8,412.8,0,0,1,11.8-59.3c12-42.4,28.7-67.8,49.5-75.3A7.9,7.9,0,0,1,212,32ZM127.9,78.7l-8-48a8,8,0,1,0-15.8,2.6L110.6,72H92V32a8,8,0,0,0-16,0V72H57.4l6.5-38.7a8,8,0,1,0-15.8-2.6l-8,48h0A4.9,4.9,0,0,0,40,80a44.1,44.1,0,0,0,36,43.3V224a8,8,0,0,0,16,0V123.3A44.1,44.1,0,0,0,128,80a4.9,4.9,0,0,0-.1-1.2Z"/></svg>