<svg xmlns="http://www.w3.org/2000/svg" viewBox="0 0 256 256"><rect width="256" height="256" fill="none"/><path d="M224,224a8,8,0,0,1-8,8,32.1,32.1,0,0,1-32-32v-8a16,16,0,0,0-16-16H156v40a16,16,0,0,0,16,16,8,8,0,0,1,0,16,32.1,32.1,0,0,1-32-32V176H116v40a32.1,32.1,0,0,1-32,32,8,8,0,0,1,0-16,16,16,0,0,0,16-16V176H88a16,16,0,0,0-16,16v8a32.1,32.1,0,0,1-32,32,8,8,0,0,1,0-16,16,16,0,0,0,16-16v-8a32.1,32.1,0,0,1,14.8-27A55.8,55.8,0,0,1,48,120v-8a58,58,0,0,1,7.7-28.3A59.9,59.9,0,0,1,61.1,36,7.8,7.8,0,0,1,68,32a59.7,59.7,0,0,1,48,24h24a59.7,59.7,0,0,1,48-24,7.8,7.8,0,0,1,6.9,4,59.9,59.9,0,0,1,5.4,47.7A58,58,0,0,1,208,112v8a55.8,55.8,0,0,1-22.8,45A32.1,32.1,0,0,1,200,192v8a16,16,0,0,0,16,16A8,8,0,0,1,224,224Z"/></svg>