<svg xmlns="http://www.w3.org/2000/svg" viewBox="0 0 256 256"><rect width="256" height="256" fill="none"/><path d="M136,24V48a8,8,0,0,1-16,0V24a8,8,0,0,1,16,0Zm40,36a8,8,0,0,0-8,8V92a8,8,0,0,0,16,0V68A8,8,0,0,0,176,60ZM128,200a8,8,0,0,0-8,8v24a8,8,0,0,0,16,0V208A8,8,0,0,0,128,200Zm0-128a8,8,0,0,0-8,8v96a8,8,0,0,0,16,0V80A8,8,0,0,0,128,72ZM80,60a8,8,0,0,0-8,8v64a8,8,0,0,0,16,0V68A8,8,0,0,0,80,60Zm96,56a8,8,0,0,0-8,8v64a8,8,0,0,0,16,0V124A8,8,0,0,0,176,116ZM32,108a8,8,0,0,0-8,8v24a8,8,0,0,0,16,0V116A8,8,0,0,0,32,108Zm48,48a8,8,0,0,0-8,8v24a8,8,0,0,0,16,0V164A8,8,0,0,0,80,156Zm144-48a8,8,0,0,0-8,8v24a8,8,0,0,0,16,0V116A8,8,0,0,0,224,108Z"/></svg>