<svg xmlns="http://www.w3.org/2000/svg" viewBox="0 0 256 256"><rect width="256" height="256" fill="none"/><path d="M36.4,98.1a16.3,16.3,0,0,1-3.2-13.5C40.5,49.5,80.4,24,128,24s87.5,25.5,94.8,60.6A16,16,0,0,1,207.2,104H48.8A16.2,16.2,0,0,1,36.4,98.1ZM225,152.6l-20.1,8h0L188,167.4l-37-14.8a7.8,7.8,0,0,0-6,0l-37,14.8L71,152.6a7.8,7.8,0,0,0-6,0l-20.1,8h0l-19.9,8A8,8,0,0,0,28,184a8,8,0,0,0,3-.6l9-3.6V184a40,40,0,0,0,40,40h96a40,40,0,0,0,40-40V173.4l15-6a8,8,0,0,0-6-14.8Zm7-32.6H24a8,8,0,0,0,0,16H232a8,8,0,0,0,0-16Z"/></svg>