<svg xmlns="http://www.w3.org/2000/svg" viewBox="0 0 256 256"><rect width="256" height="256" fill="none"/><path d="M216,40H40A16,16,0,0,0,24,56V200a16,16,0,0,0,16,16H216a16,16,0,0,0,16-16V56A16,16,0,0,0,216,40ZM125.1,175.7a8,8,0,0,1-9.8-5.7,24,24,0,0,0-46.4,0,8.1,8.1,0,0,1-7.8,6l-2-.3a7.9,7.9,0,0,1-5.7-9.7,40.2,40.2,0,0,1,16.3-23.2,32,32,0,1,1,44.8,0A40.2,40.2,0,0,1,130.8,166,7.9,7.9,0,0,1,125.1,175.7ZM192,152H152a8,8,0,0,1,0-16h40a8,8,0,0,1,0,16Zm0-32H152a8,8,0,0,1,0-16h40a8,8,0,0,1,0,16Z"/><circle cx="92.1" cy="120" r="16"/></svg>