<svg xmlns="http://www.w3.org/2000/svg" viewBox="0 0 256 256"><rect width="256" height="256" fill="none"/><path d="M239.7,88H226.9l-6-42.3A16,16,0,0,0,205.1,32H50.9A16,16,0,0,0,35.1,45.7L29.1,88H16.3A8.2,8.2,0,0,0,8,95.5a8,8,0,0,0,8,8.5H28V208a16,16,0,0,0,16,16H68a16,16,0,0,0,16-16V184h16a4,4,0,0,0,4-4V128.3a8.2,8.2,0,0,1,7.5-8.3,8,8,0,0,1,8.5,8v52a4,4,0,0,0,4,4h8a4,4,0,0,0,4-4V128.3a8.2,8.2,0,0,1,7.5-8.3,8,8,0,0,1,8.5,8v52a4,4,0,0,0,4,4h16v24a16,16,0,0,0,16,16h24a16,16,0,0,0,16-16V104h12a8,8,0,0,0,8-8.5A8.2,8.2,0,0,0,239.7,88ZM72,144a12,12,0,1,1,12-12A12,12,0,0,1,72,144Zm112,0a12,12,0,1,1,12-12A12,12,0,0,1,184,144Z"/></svg>