<svg xmlns="http://www.w3.org/2000/svg" viewBox="0 0 256 256"><rect width="256" height="256" fill="none"/><path d="M53.9,34.6A8,8,0,0,0,42.1,45.4L81.3,88.5l-39.1,42a7.9,7.9,0,0,0-2,7.3,8.2,8.2,0,0,0,5,5.7l57.6,21.6L88.2,238.4a8.1,8.1,0,0,0,4.1,8.7,8.4,8.4,0,0,0,3.7.9,7.7,7.7,0,0,0,5.8-2.6l61.9-66.2,38.4,42.2A8,8,0,0,0,208,224a8.2,8.2,0,0,0,5.4-2.1,7.9,7.9,0,0,0,.5-11.3Z"/><path d="M179.8,149.3a8,8,0,0,0,5.8,2.6h.1a7.7,7.7,0,0,0,5.8-2.6l22.3-23.9a7.9,7.9,0,0,0-3-12.9L153.2,90.9l14.6-73.4a8,8,0,0,0-13.6-7L108.3,59.7a7.9,7.9,0,0,0-.1,10.8Z"/></svg>