<svg xmlns="http://www.w3.org/2000/svg" viewBox="0 0 256 256"><rect width="256" height="256" fill="none"/><path d="M176,232a8,8,0,0,1-8,8H88a8,8,0,0,1,0-16h80A8,8,0,0,1,176,232Zm40-128a87.7,87.7,0,0,1-33.6,69.2A16.1,16.1,0,0,0,176,186v6a16,16,0,0,1-16,16H96a16,16,0,0,1-16-16v-6a16.2,16.2,0,0,0-6.2-12.7A87.8,87.8,0,0,1,40,104.5C39.7,56.8,78.3,17.1,125.9,16A87.9,87.9,0,0,1,216,104Zm-50.3,2.3a8.1,8.1,0,0,0-11.4,0L128,132.7l-26.3-26.4a8.1,8.1,0,0,0-11.4,11.4L120,147.3V184a8,8,0,0,0,16,0V147.3l29.7-29.6A8.1,8.1,0,0,0,165.7,106.3Z"/></svg>