<svg xmlns="http://www.w3.org/2000/svg" viewBox="0 0 256 256"><rect width="256" height="256" fill="none"/><path d="M139.3,173.3,111,201.5a39.7,39.7,0,0,1-56.5,0,40,40,0,0,1,0-56.5l28.2-28.3a8,8,0,0,0-11.3-11.3L43.1,133.7a56,56,0,0,0,79.2,79.2l28.3-28.3a8,8,0,0,0,0-11.3A7.9,7.9,0,0,0,139.3,173.3Z"/><path d="M212.9,43.1a56,56,0,0,0-79.2,0L105.4,71.4a8,8,0,0,0,11.3,11.3L145,54.5a39.7,39.7,0,0,1,56.5,0,40,40,0,0,1,0,56.5l-28.2,28.3a7.9,7.9,0,0,0,0,11.3,7.7,7.7,0,0,0,5.6,2.4,8,8,0,0,0,5.7-2.4l28.3-28.3A56.1,56.1,0,0,0,212.9,43.1Z"/></svg>