<svg xmlns="http://www.w3.org/2000/svg" viewBox="0 0 256 256"><rect width="256" height="256" fill="none"/><path d="M224,128a8,8,0,0,1-8,8H128a8,8,0,0,1,0-16h88A8,8,0,0,1,224,128ZM128,72h88a8,8,0,0,0,0-16H128a8,8,0,0,0,0,16Zm88,112H128a8,8,0,0,0,0,16h88a8,8,0,0,0,0-16ZM86.6,42.1l-29.3,27-11.9-11A8,8,0,0,0,34.6,69.9l17.3,16A8,8,0,0,0,57.3,88a8.2,8.2,0,0,0,5.5-2.1l34.6-32A8,8,0,1,0,86.6,42.1Zm0,64-29.3,27-11.9-11a8,8,0,1,0-10.8,11.8l17.3,16a8,8,0,0,0,5.4,2.1,8.2,8.2,0,0,0,5.5-2.1l34.6-32a8,8,0,1,0-10.8-11.8Zm0,64-29.3,27-11.9-11a8,8,0,1,0-10.8,11.8l17.3,16a8,8,0,0,0,5.4,2.1,8.2,8.2,0,0,0,5.5-2.1l34.6-32a8,8,0,0,0-10.8-11.8Z"/></svg>