<svg xmlns="http://www.w3.org/2000/svg" viewBox="0 0 256 256"><rect width="256" height="256" fill="none"/><path d="M104,176H80V152a8,8,0,0,0-16,0v24H40a8,8,0,0,0,0,16H64v24a8,8,0,0,0,16,0V192h24a8,8,0,0,0,0-16Z"/><path d="M104,64H40a8,8,0,0,0,0,16h64a8,8,0,0,0,0-16Z"/><path d="M152,176.1h64a8,8,0,0,0,0-16H152a8,8,0,0,0,0,16Z"/><path d="M216,191.9H152a8,8,0,0,0,0,16h64a8,8,0,0,0,0-16Z"/><path d="M154.3,101.7a8.2,8.2,0,0,0,11.4,0L184,83.3l18.3,18.4a8.2,8.2,0,0,0,11.4,0,8.1,8.1,0,0,0,0-11.4L195.3,72l18.4-18.3a8.1,8.1,0,0,0-11.4-11.4L184,60.7,165.7,42.3a8.1,8.1,0,0,0-11.4,11.4L172.7,72,154.3,90.3A8.1,8.1,0,0,0,154.3,101.7Z"/></svg>