<svg xmlns="http://www.w3.org/2000/svg" viewBox="0 0 256 256"><rect width="256" height="256" fill="none"/><path d="M137.9,111.9a14,14,0,1,0-19.8,0A14.3,14.3,0,0,0,137.9,111.9Z"/><path d="M128,132a18,18,0,0,0-12.7,30.7,18.4,18.4,0,0,0,25.4,0A18,18,0,0,0,128,132Z"/><path d="M208,32H48A16,16,0,0,0,32,48V208a16,16,0,0,0,16,16H208a16,16,0,0,0,16-16V48A16,16,0,0,0,208,32ZM152,174a33.9,33.9,0,1,1-48-48,26.6,26.6,0,0,1,3.1-2.6l-.3-.2a29.9,29.9,0,0,1,0-42.4c11.3-11.3,31.1-11.3,42.4,0a29.9,29.9,0,0,1,0,42.4l-.3.2A26.6,26.6,0,0,1,152,126a33.8,33.8,0,0,1,0,48Z"/></svg>