<svg xmlns="http://www.w3.org/2000/svg" viewBox="0 0 256 256"><rect width="256" height="256" fill="none"/><path d="M240,108a28,28,0,1,1-28-28A28.1,28.1,0,0,1,240,108ZM72,108a28,28,0,1,0-28,28A28.1,28.1,0,0,0,72,108ZM92,88A28,28,0,1,0,64,60,28.1,28.1,0,0,0,92,88Zm72,0a28,28,0,1,0-28-28A28.1,28.1,0,0,0,164,88Zm23.1,60.8a35.3,35.3,0,0,1-16.9-21.1,43.9,43.9,0,0,0-84.4,0A35.5,35.5,0,0,1,69,148.8,40,40,0,0,0,88,224a40.5,40.5,0,0,0,15.5-3.1,64.2,64.2,0,0,1,48.9-.1A39.6,39.6,0,0,0,168,224a40,40,0,0,0,19.1-75.2Z"/></svg>