<svg xmlns="http://www.w3.org/2000/svg" viewBox="0 0 256 256"><rect width="256" height="256" fill="none"/><path d="M205.7,61.7l-144,144a8.2,8.2,0,0,1-11.4,0,8.1,8.1,0,0,1,0-11.4l144-144a8.1,8.1,0,0,1,11.4,11.4ZM50.5,101.5a36.2,36.2,0,0,1,0-51,36.2,36.2,0,0,1,51,0,36.1,36.1,0,0,1-51,51ZM56,76a19.7,19.7,0,0,0,5.9,14.1,19.9,19.9,0,0,0,28.2,0,19.8,19.8,0,0,0,0-28.2h0a19.8,19.8,0,0,0-28.2,0A19.7,19.7,0,0,0,56,76ZM216,180a36,36,0,1,1-61.5-25.5,36.2,36.2,0,0,1,51,0A35.9,35.9,0,0,1,216,180Zm-16,0a19.7,19.7,0,0,0-5.9-14.1,19.8,19.8,0,0,0-28.2,0A19.9,19.9,0,1,0,200,180Z"/></svg>