<svg xmlns="http://www.w3.org/2000/svg" viewBox="0 0 256 256"><rect width="256" height="256" fill="none"/><path d="M120,56a32,32,0,1,1,32,32A32.1,32.1,0,0,1,120,56Zm104,77.6a8,8,0,0,0-8-8,7.8,7.8,0,0,0-3.7.9h.1c-.1,0-6.5,3.1-18.2,1.9s-29.5-6.4-53.3-25.1c-15-11.7-38.3-24.6-64.4-19.6C60.7,86.7,51.6,94.8,50.6,95.7a7.9,7.9,0,0,0-.5,11.3,8,8,0,0,0,11.3.5c1.1-1,25.8-22.4,64.6,4.6a147.9,147.9,0,0,1-21.9,44.4h0l-2.4,3.1c-18.9,24.2-42.1,35-68.9,32.3a8,8,0,1,0-1.6,16c3.3.3,6.4.4,9.5.4,32.6,0,56.6-17.4,73.2-38.3,19.4,5.2,54.1,20.2,54.1,61.9a8,8,0,0,0,16,0c0-24.7-10.1-45.4-29.2-59.9-10.4-7.9-22-12.8-31.2-15.8a164.5,164.5,0,0,0,16-34.1c25.8,17.9,46.2,22.3,60,22.3s19.5-3.5,20.1-3.9h0A7.8,7.8,0,0,0,224,133.6Z"/></svg>