<svg xmlns="http://www.w3.org/2000/svg" viewBox="0 0 256 256"><rect width="256" height="256" fill="none"/><path d="M213.4,221.9A8.2,8.2,0,0,1,208,224a8,8,0,0,1-5.9-2.6l-34-37.4H136v56a8,8,0,0,1-16,0V184H40a8,8,0,0,1,0-16h9.3L66.2,72,42.1,45.4A8,8,0,0,1,53.9,34.6l75.2,82.8,48.5,53.2h0l36.3,40A7.9,7.9,0,0,1,213.4,221.9Zm-22.9-60.8a7.9,7.9,0,0,0,5.9,2.6,8.5,8.5,0,0,0,3.5-.8,8.1,8.1,0,0,0,4.4-8.6L185.5,48H192a8,8,0,0,0,0-16H91.2A8,8,0,0,0,86,34a9.4,9.4,0,0,0-1,1,8.3,8.3,0,0,0-1.7,4.5,1.1,1.1,0,0,0,0,.8,7.9,7.9,0,0,0,2,5.1Z"/></svg>