<svg xmlns="http://www.w3.org/2000/svg" viewBox="0 0 256 256"><rect width="256" height="256" fill="none"/><path d="M24,128A72.1,72.1,0,0,1,96,56h96V40a8,8,0,0,1,4.9-7.4,8.4,8.4,0,0,1,8.8,1.7l24,24a8.1,8.1,0,0,1,0,11.4l-24,24A8.3,8.3,0,0,1,200,96a8.5,8.5,0,0,1-3.1-.6A8,8,0,0,1,192,88V72H96a56,56,0,0,0-56,56,8,8,0,0,1-16,0Zm200-8a8,8,0,0,0-8,8,56,56,0,0,1-56,56H64V168a8,8,0,0,0-4.9-7.4,8.4,8.4,0,0,0-8.8,1.7l-24,24a8.1,8.1,0,0,0,0,11.4l24,24A8.3,8.3,0,0,0,56,224a8.5,8.5,0,0,0,3.1-.6A8,8,0,0,0,64,216V200h96a72.1,72.1,0,0,0,72-72A8,8,0,0,0,224,120Zm-92,40a8,8,0,0,0,8-8V104a7.9,7.9,0,0,0-3.8-6.8,8,8,0,0,0-7.8-.4l-16,8a8.2,8.2,0,0,0-3.6,10.8,8.1,8.1,0,0,0,10.8,3.5l4.4-2.2V152A8,8,0,0,0,132,160Z"/></svg>