<svg xmlns="http://www.w3.org/2000/svg" viewBox="0 0 256 256"><rect width="256" height="256" fill="none"/><path d="M98.9,157.1A71.6,71.6,0,0,1,120,208a8,8,0,0,1-16,0,56,56,0,0,0-56-56,8,8,0,0,1,0-16A71.6,71.6,0,0,1,98.9,157.1ZM48,88a8,8,0,0,0,0,16,102.9,102.9,0,0,1,73.5,30.5A102.9,102.9,0,0,1,152,208a8,8,0,0,0,16,0,119.2,119.2,0,0,0-35.2-84.9A119.3,119.3,0,0,0,48,88Zm118.8,1.2A166.9,166.9,0,0,0,48,40a8,8,0,0,0,0,16,151.1,151.1,0,0,1,107.5,44.5A151.1,151.1,0,0,1,200,208a8,8,0,0,0,16,0A166.9,166.9,0,0,0,166.8,89.2ZM52,192a12,12,0,1,0,12,12A12,12,0,0,0,52,192Z"/></svg>