<svg xmlns="http://www.w3.org/2000/svg" viewBox="0 0 256 256"><rect width="256" height="256" fill="none"/><path d="M223.8,170.7a7.8,7.8,0,0,0-5.9-2.7H208V64a32.1,32.1,0,0,0-32-32H40A32.1,32.1,0,0,0,8,64a31.5,31.5,0,0,0,8.2,21.3,7.9,7.9,0,0,0,11.2.7,8,8,0,0,0,.7-11.3A16,16,0,1,1,56,64V192a32.1,32.1,0,0,0,32,32H200a32.1,32.1,0,0,0,32-32A31.5,31.5,0,0,0,223.8,170.7ZM104,96h64a8,8,0,0,1,0,16H104a8,8,0,0,1,0-16Zm-8,40a8,8,0,0,1,8-8h64a8,8,0,0,1,0,16H104A8,8,0,0,1,96,136Zm104,72H115.7a32.2,32.2,0,0,0,4.3-16,30.8,30.8,0,0,0-1-8h94.9A16.1,16.1,0,0,1,200,208Z"/></svg>