<svg xmlns="http://www.w3.org/2000/svg" viewBox="0 0 256 256"><rect width="256" height="256" fill="none"/><path d="M80,56V48A16,16,0,0,1,96,32h8a8,8,0,0,1,0,16H96v8a8,8,0,0,1-16,0Zm64-8h16a8,8,0,0,0,0-16H144a8,8,0,0,0,0,16Zm64-16h-8a8,8,0,0,0,0,16h8v8a8,8,0,0,0,16,0V48A16,16,0,0,0,208,32Zm8,56a8,8,0,0,0-8,8v16a8,8,0,0,0,16,0V96A8,8,0,0,0,216,88Zm-40,8V208a16,16,0,0,1-16,16H48a16,16,0,0,1-16-16V96A16,16,0,0,1,48,80H160A16,16,0,0,1,176,96Zm-16,0H48V208H160Zm56,48a8,8,0,0,0-8,8v8h-8a8,8,0,0,0,0,16h8a16,16,0,0,0,16-16v-8A8,8,0,0,0,216,144Z"/></svg>