<svg xmlns="http://www.w3.org/2000/svg" viewBox="0 0 256 256"><rect width="256" height="256" fill="none"/><path d="M152,216a8,8,0,0,1-8,8H112a8,8,0,0,1,0-16h32A8,8,0,0,1,152,216ZM40,152a8,8,0,0,0,8-8V112a8,8,0,0,0-16,0v32A8,8,0,0,0,40,152Zm32,56H48V184a8,8,0,0,0-16,0v24a16,16,0,0,0,16,16H72a8,8,0,0,0,0-16ZM224,48a16,16,0,0,0-16-16H48a16.4,16.4,0,0,0-10.7,4.1l-.6.6-.6.6A16.4,16.4,0,0,0,32,48V72a8,8,0,0,0,16,0V59.3L196.7,208H184a8,8,0,0,0,0,16h24a16.4,16.4,0,0,0,10.7-4.1l.6-.6.6-.6A16.4,16.4,0,0,0,224,208Z"/></svg>