<svg xmlns="http://www.w3.org/2000/svg" viewBox="0 0 256 256"><rect width="256" height="256" fill="none"/><path d="M104,40a8,8,0,0,1,8-8h32a8,8,0,0,1,0,16H112A8,8,0,0,1,104,40Zm40,168H112a8,8,0,0,0,0,16h32a8,8,0,0,0,0-16ZM208,32H184a8,8,0,0,0,0,16h24V72a8,8,0,0,0,16,0V48A16,16,0,0,0,208,32Zm8,72a8,8,0,0,0-8,8v32a8,8,0,0,0,16,0V112A8,8,0,0,0,216,104ZM40,152a8,8,0,0,0,8-8V112a8,8,0,0,0-16,0v32A8,8,0,0,0,40,152Zm32,56H48V184a8,8,0,0,0-16,0v24a16,16,0,0,0,16,16H72a8,8,0,0,0,0-16ZM53.9,34.6A8,8,0,0,0,42.1,45.4l160,176A8,8,0,0,0,208,224a8.2,8.2,0,0,0,5.4-2.1,7.9,7.9,0,0,0,.5-11.3Z"/></svg>