<svg xmlns="http://www.w3.org/2000/svg" viewBox="0 0 256 256"><rect width="256" height="256" fill="none"/><path d="M227.9,237.9a8.2,8.2,0,0,1-5.4,2.1,8,8,0,0,1-5.9-2.6l-29.2-32.1A146.4,146.4,0,0,1,133,238.8a14.3,14.3,0,0,1-10,0c-15.2-5-91-34.7-91-124.1V56a15.9,15.9,0,0,1,7.5-13.5L27.6,29.4a7.9,7.9,0,0,1,.5-11.3,8,8,0,0,1,11.3.5l21.8,24h0L193.5,188.1h0l34.9,38.4A8,8,0,0,1,227.9,237.9Zm-28.3-66.8a7.9,7.9,0,0,0,5.9,2.6h1.3a7.9,7.9,0,0,0,6-4.6c7.4-16.3,11.2-34.6,11.2-54.3V56a16,16,0,0,0-16-16H98.5a8.1,8.1,0,0,0-7.3,4.8,8,8,0,0,0,1.4,8.6Z"/></svg>