<svg xmlns="http://www.w3.org/2000/svg" viewBox="0 0 256 256"><rect width="256" height="256" fill="none"/><path d="M72,228a12,12,0,1,1-12-12A12,12,0,0,1,72,228Zm16-40a12,12,0,1,0,12,12A12,12,0,0,0,88,188Zm-60-4a12,12,0,1,0,12,12A12,12,0,0,0,28,184Zm40-16a12,12,0,1,0-12,12A12,12,0,0,0,68,168ZM248,32H219.3A15.9,15.9,0,0,0,208,36.7L180.2,64.5,54,85.6A15.7,15.7,0,0,0,41.4,96.5a16,16,0,0,0,3.9,16.1l98.1,98.1a16,16,0,0,0,11.2,4.7,16.2,16.2,0,0,0,4.9-.8A15.7,15.7,0,0,0,170.4,202L191.5,75.8h0L219.3,48H248a8,8,0,0,0,0-16Z"/></svg>