<svg xmlns="http://www.w3.org/2000/svg" viewBox="0 0 256 256"><rect width="256" height="256" fill="none"/><path d="M128,24A104,104,0,1,0,232,128,104.2,104.2,0,0,0,128,24Zm-18.3,98.3a8.1,8.1,0,0,1,0,11.4,8.2,8.2,0,0,1-11.4,0L88,123.3,77.7,133.7a8.2,8.2,0,0,1-11.4,0,8.1,8.1,0,0,1,0-11.4L76.7,112,66.3,101.7A8.1,8.1,0,0,1,77.7,90.3L88,100.7,98.3,90.3a8.1,8.1,0,0,1,11.4,11.4L99.3,112ZM128,192a12,12,0,1,1,12-12A12,12,0,0,1,128,192Zm61.7-69.7a8.1,8.1,0,0,1,0,11.4,8.2,8.2,0,0,1-11.4,0L168,123.3l-10.3,10.4a8.2,8.2,0,0,1-11.4,0,8.1,8.1,0,0,1,0-11.4L156.7,112l-10.4-10.3a8.1,8.1,0,0,1,11.4-11.4L168,100.7l10.3-10.4a8.1,8.1,0,0,1,11.4,11.4L179.3,112Z"/></svg>