<svg xmlns="http://www.w3.org/2000/svg" viewBox="0 0 256 256"><rect width="256" height="256" fill="none"/><path d="M128,24A104,104,0,1,0,232,128,104.2,104.2,0,0,0,128,24Zm36,72a12,12,0,1,1-12,12A12,12,0,0,1,164,96ZM92,96a12,12,0,1,1-12,12A12,12,0,0,1,92,96Zm89,82.2a7.9,7.9,0,0,1-5,1.8,7.8,7.8,0,0,1-6.2-3L160,164.8,150.2,177a7.9,7.9,0,0,1-12.4,0L128,164.8,118.2,177a7.9,7.9,0,0,1-12.4,0L96,164.8,86.2,177a8,8,0,0,1-12.4-10l16-20a7.9,7.9,0,0,1,12.4,0l9.8,12.2,9.8-12.2a7.9,7.9,0,0,1,12.4,0l9.8,12.2,9.8-12.2a7.9,7.9,0,0,1,12.4,0l16,20A7.9,7.9,0,0,1,181,178.2Z"/></svg>