<svg xmlns="http://www.w3.org/2000/svg" viewBox="0 0 256 256"><rect width="256" height="256" fill="none"/><path d="M192,160a8,8,0,0,0,8-8V104a8,8,0,0,0-16,0v48A8,8,0,0,0,192,160Z"/><path d="M224,80a8,8,0,0,0-8,8v80a8,8,0,0,0,16,0V88A8,8,0,0,0,224,80Z"/><path d="M53.9,34.6A8,8,0,0,0,42.1,45.4L73.6,80H32A16,16,0,0,0,16,96v64a16,16,0,0,0,16,16H77.3l69.8,54.3A8.1,8.1,0,0,0,152,232a8.5,8.5,0,0,0,3.5-.8A8,8,0,0,0,160,224V175.1l42.1,46.3A8,8,0,0,0,208,224a8.2,8.2,0,0,0,5.4-2.1,7.9,7.9,0,0,0,.5-11.3Z"/><path d="M146.1,112.2a7.9,7.9,0,0,0,5.9,2.6,7.4,7.4,0,0,0,2.9-.5,8,8,0,0,0,5.1-7.5V32a8,8,0,0,0-12.9-6.3l-39.9,31a8.1,8.1,0,0,0-1,11.7Z"/></svg>