<svg xmlns="http://www.w3.org/2000/svg" viewBox="0 0 256 256"><rect width="256" height="256" fill="none"/><path d="M155.5,24.8a8,8,0,0,0-8.4.9L77.2,80H32A16,16,0,0,0,16,96v64a16,16,0,0,0,16,16H77.2l69.9,54.3A7.9,7.9,0,0,0,152,232a8.5,8.5,0,0,0,3.5-.8A8,8,0,0,0,160,224V32A8,8,0,0,0,155.5,24.8Z"/><path d="M227.3,128l18.4-18.3a8.1,8.1,0,0,0-11.4-11.4L216,116.7,197.7,98.3a8.1,8.1,0,0,0-11.4,11.4L204.7,128l-18.4,18.3a8.1,8.1,0,0,0,0,11.4A8.3,8.3,0,0,0,192,160a8.5,8.5,0,0,0,5.7-2.3L216,139.3l18.3,18.4A8.3,8.3,0,0,0,240,160a8.5,8.5,0,0,0,5.7-2.3,8.1,8.1,0,0,0,0-11.4Z"/></svg>