<svg xmlns="http://www.w3.org/2000/svg" viewBox="0 0 256 256"><rect width="256" height="256" fill="none"/><path d="M224.6,71.4a8,8,0,1,0-11.3,11.4,64.1,64.1,0,0,1,0,90.5,7.9,7.9,0,0,0,0,11.3,8,8,0,0,0,5.6,2.3,8.3,8.3,0,0,0,5.7-2.3,80.2,80.2,0,0,0,0-113.2Z"/><path d="M155.5,24.8a8,8,0,0,0-8.4.9L77.3,80H32A16,16,0,0,0,16,96v64a16,16,0,0,0,16,16H77.3l69.8,54.3A8.1,8.1,0,0,0,152,232a8.5,8.5,0,0,0,3.5-.8A7.8,7.8,0,0,0,160,224V32A8.1,8.1,0,0,0,155.5,24.8ZM32,96H72v64H32Z"/><path d="M185,99.7a7.9,7.9,0,0,0,0,11.3,24.1,24.1,0,0,1,0,34,7.9,7.9,0,0,0,0,11.3,7.6,7.6,0,0,0,5.6,2.3,7.8,7.8,0,0,0,5.7-2.3,40.1,40.1,0,0,0,0-56.6A8,8,0,0,0,185,99.7Z"/></svg>