<svg xmlns="http://www.w3.org/2000/svg" viewBox="0 0 256 256"><rect width="256" height="256" fill="none"/><path d="M248,144a8,8,0,0,1-16,0,96.2,96.2,0,0,0-96-96,88.1,88.1,0,0,0-88,88,80.1,80.1,0,0,0,80,80,72.1,72.1,0,0,0,72-72,64.1,64.1,0,0,0-64-64,56,56,0,0,0-56,56,48,48,0,0,0,48,48,40,40,0,0,0,40-40,32.1,32.1,0,0,0-32-32,24.1,24.1,0,0,0-24,24,16,16,0,0,0,16,16,8,8,0,0,0,8-8,8,8,0,0,1,0-16,16,16,0,0,1,16,16,24.1,24.1,0,0,1-24,24,32.1,32.1,0,0,1-32-32,40,40,0,0,1,40-40,48,48,0,0,1,48,48,56,56,0,0,1-56,56,64.1,64.1,0,0,1-64-64,72.1,72.1,0,0,1,72-72,80.1,80.1,0,0,1,80,80,88.1,88.1,0,0,1-88,88,96.2,96.2,0,0,1-96-96A104.2,104.2,0,0,1,136,32,112.1,112.1,0,0,1,248,144Z"/></svg>