<svg xmlns="http://www.w3.org/2000/svg" viewBox="0 0 256 256"><rect width="256" height="256" fill="none"/><path d="M224,48V152a16,16,0,0,1-16,16H112v16a8,8,0,0,1-4.9,7.4,8.5,8.5,0,0,1-3.1.6,8.3,8.3,0,0,1-5.7-2.3l-24-24a8.1,8.1,0,0,1,0-11.4l24-24a8.4,8.4,0,0,1,8.8-1.7A8,8,0,0,1,112,136v16h96V48H96v8a8,8,0,0,1-16,0V48A16,16,0,0,1,96,32H208A16,16,0,0,1,224,48ZM168,192a8,8,0,0,0-8,8v8H48V104h96v16a8.1,8.1,0,0,0,4.9,7.4,8.5,8.5,0,0,0,3.1.6,8.3,8.3,0,0,0,5.7-2.3l24-24a8.1,8.1,0,0,0,0-11.4l-24-24a8.2,8.2,0,0,0-8.8-1.7A8,8,0,0,0,144,72V88H48a16,16,0,0,0-16,16V208a16,16,0,0,0,16,16H160a16,16,0,0,0,16-16v-8A8,8,0,0,0,168,192Z"/></svg>