<svg xmlns="http://www.w3.org/2000/svg" viewBox="0 0 256 256"><rect width="256" height="256" fill="none"/><path d="M237.7,77.7a8.2,8.2,0,0,1-11.4,0L208,59.3,179.3,88l34.4,34.3a8.1,8.1,0,0,1,0,11.4,8.2,8.2,0,0,1-11.4,0l-6.3-6.4-84,84a16.1,16.1,0,0,1-11.3,4.7H51.3L29.7,237.7a8.2,8.2,0,0,1-11.4,0,8.1,8.1,0,0,1,0-11.4L40,204.7V155.3A16.1,16.1,0,0,1,44.7,144l11.2-11.2a4,4,0,0,1,5.6,0l28.8,28.9a8.2,8.2,0,0,0,11.4,0,8.1,8.1,0,0,0,0-11.4L72.8,121.5a4,4,0,0,1,0-5.6L91.9,96.8a4,4,0,0,1,5.6,0l28.8,28.9a8.2,8.2,0,0,0,11.4,0,8.1,8.1,0,0,0,0-11.4L108.8,85.5a4,4,0,0,1,0-5.6L128.7,60l-6.1-6.1a8.3,8.3,0,0,1-.4-11.4,8.1,8.1,0,0,1,11.5-.2L168,76.7,196.7,48,178.6,29.9a8.3,8.3,0,0,1-.4-11.4,8.1,8.1,0,0,1,11.5-.2l48,48A8.1,8.1,0,0,1,237.7,77.7Z"/></svg>