<svg xmlns="http://www.w3.org/2000/svg" viewBox="0 0 256 256"><rect width="256" height="256" fill="none"/><path d="M156,92V80H144a16,16,0,0,0-16,16v64a16,16,0,0,0,16,16h12V164a16,16,0,0,1,16-16h40a16,16,0,0,1,16,16v40a16,16,0,0,1-16,16H172a16,16,0,0,1-16-16V192H144a32.1,32.1,0,0,1-32-32V136H84v8a16,16,0,0,1-16,16H36a16,16,0,0,1-16-16V112A16,16,0,0,1,36,96H68a16,16,0,0,1,16,16v8h28V96a32.1,32.1,0,0,1,32-32h12V52a16,16,0,0,1,16-16h40a16,16,0,0,1,16,16V92a16,16,0,0,1-16,16H172A16,16,0,0,1,156,92Z"/></svg>