<svg xmlns="http://www.w3.org/2000/svg" viewBox="0 0 256 256"><rect width="256" height="256" fill="none"/><path d="M224,48V76a8,8,0,0,1-16,0V48H180a8,8,0,0,1,0-16h28A16,16,0,0,1,224,48Zm-8,124a8,8,0,0,0-8,8v28H180a8,8,0,0,0,0,16h28a16,16,0,0,0,16-16V180A8,8,0,0,0,216,172ZM76,208H48V180a8,8,0,0,0-16,0v28a16,16,0,0,0,16,16H76a8,8,0,0,0,0-16ZM40,84a8,8,0,0,0,8-8V48H76a8,8,0,0,0,0-16H48A16,16,0,0,0,32,48V76A8,8,0,0,0,40,84Zm61.1,57.5a69.1,69.1,0,0,0-33.3,30.8,7.8,7.8,0,0,0,.3,7.8,7.9,7.9,0,0,0,6.8,3.9H181.1a7.9,7.9,0,0,0,6.8-3.9,7.8,7.8,0,0,0,.3-7.8,69.1,69.1,0,0,0-33.3-30.8A39.5,39.5,0,0,0,168,112a40,40,0,0,0-80,0A39.5,39.5,0,0,0,101.1,141.5Z"/></svg>