<svg xmlns="http://www.w3.org/2000/svg" viewBox="0 0 256 256"><rect width="256" height="256" fill="none"/><path d="M253.7,133.7l-24,24a8.2,8.2,0,0,1-11.4,0l-24-24a8.4,8.4,0,0,1-1.7-8.8A8,8,0,0,1,200,120h15.6A87.9,87.9,0,0,0,54.1,80.3,8,8,0,0,1,43,82.6a7.9,7.9,0,0,1-2.4-11A104,104,0,0,1,231.7,120H248a8,8,0,0,1,7.4,4.9A8.4,8.4,0,0,1,253.7,133.7ZM213,173.4a8,8,0,0,0-11.1,2.3,86.9,86.9,0,0,1-8.1,10.8h0a81.3,81.3,0,0,0-24.5-23,59.7,59.7,0,0,1-82.6,0,81.3,81.3,0,0,0-24.5,23h0A87.6,87.6,0,0,1,40.4,136H56a8,8,0,0,0,7.4-4.9,8.4,8.4,0,0,0-1.7-8.8l-24-24a8.1,8.1,0,0,0-11.4,0l-24,24a8.4,8.4,0,0,0-1.7,8.8A8,8,0,0,0,8,136H24.3a103.7,103.7,0,0,0,34.5,69.6h0l.4.3a103.9,103.9,0,0,0,156.2-21.5A7.9,7.9,0,0,0,213,173.4ZM128,164a44,44,0,1,0-44-44A44,44,0,0,0,128,164Z"/></svg>