<svg xmlns="http://www.w3.org/2000/svg" viewBox="0 0 256 256"><rect width="256" height="256" fill="none"/><path d="M128,76a44,44,0,1,1-44,44A44,44,0,0,1,128,76Zm48-12h16V80a8,8,0,0,0,16,0V64h16a8,8,0,0,0,0-16H208V32a8,8,0,0,0-16,0V48H176a8,8,0,0,0,0,16Zm45.6,41a7.9,7.9,0,0,0-6.7,9.1A92,92,0,0,1,216,128a87.6,87.6,0,0,1-22.2,58.4,81.3,81.3,0,0,0-24.5-23,59.7,59.7,0,0,1-82.6,0,81.3,81.3,0,0,0-24.5,23A88,88,0,0,1,128,40a92,92,0,0,1,13.9,1.1,8,8,0,0,0,2.5-15.8A99.8,99.8,0,0,0,128,24,104,104,0,0,0,57.8,204.7l1.3,1.2a104,104,0,0,0,137.8,0l1.3-1.2A103.7,103.7,0,0,0,232,128a99.8,99.8,0,0,0-1.3-16.4A7.9,7.9,0,0,0,221.6,105Z"/></svg>