<svg xmlns="http://www.w3.org/2000/svg" viewBox="0 0 256 256"><rect width="256" height="256" fill="none"/><path d="M195.9,60.1a96,96,0,1,0,0,135.8A96,96,0,0,0,195.9,60.1Zm-31.2,74.6-24.2,28.4h0l-36.6-6.7h0L91.3,121.3h0l24.2-28.4h0l36.6,6.7h0l12.6,35.1Z" opacity="0.2"/><circle cx="128" cy="128" r="96" fill="none" stroke="#000" stroke-linecap="round" stroke-linejoin="round" stroke-width="16"/><line x1="128" y1="32" x2="164.7" y2="134.7" fill="none" stroke="#000" stroke-linecap="round" stroke-linejoin="round" stroke-width="16"/><line x1="44.9" y1="80" x2="152.1" y2="99.6" fill="none" stroke="#000" stroke-linecap="round" stroke-linejoin="round" stroke-width="16"/><line x1="44.9" y1="176" x2="115.5" y2="92.9" fill="none" stroke="#000" stroke-linecap="round" stroke-linejoin="round" stroke-width="16"/><line x1="128" y1="224" x2="91.3" y2="121.3" fill="none" stroke="#000" stroke-linecap="round" stroke-linejoin="round" stroke-width="16"/><line x1="211.1" y1="176" x2="103.9" y2="156.4" fill="none" stroke="#000" stroke-linecap="round" stroke-linejoin="round" stroke-width="16"/><line x1="211.1" y1="80" x2="140.5" y2="163.1" fill="none" stroke="#000" stroke-linecap="round" stroke-linejoin="round" stroke-width="16"/></svg>