<svg xmlns="http://www.w3.org/2000/svg" viewBox="0 0 256 256"><rect width="256" height="256" fill="none"/><path d="M208,104a80,80,0,0,0-160,0c0,40.5,30.1,87.5,69.2,95h0L104,232h48l-13.2-33h0C177.9,191.5,208,144.5,208,104Z" opacity="0.2"/><path d="M208,104c0,44.2-35.8,96-80,96s-80-51.8-80-96a80,80,0,0,1,160,0Z" fill="none" stroke="#000" stroke-linecap="round" stroke-linejoin="round" stroke-width="16"/><polyline points="138.8 199 152 232 104 232 117.2 199" fill="none" stroke="#000" stroke-linecap="round" stroke-linejoin="round" stroke-width="16"/><path d="M136,56.7A47.8,47.8,0,0,1,175.3,96" fill="none" stroke="#000" stroke-linecap="round" stroke-linejoin="round" stroke-width="16"/></svg>