<svg xmlns="http://www.w3.org/2000/svg" viewBox="0 0 256 256"><rect width="256" height="256" fill="none"/><path d="M60.1,195.9a95.8,95.8,0,0,1-.2-135.6h0a95.5,95.5,0,0,1,28,67.7,95.8,95.8,0,0,1-28,67.8Z" opacity="0.2"/><path d="M196.1,195.9a95.8,95.8,0,0,1-.2-135.6h0a96,96,0,0,1,0,135.5Z" opacity="0.2"/><circle cx="128" cy="128" r="96" fill="none" stroke="#000" stroke-linecap="round" stroke-linejoin="round" stroke-width="16"/><path d="M60,60.2A95.9,95.9,0,0,1,88,128a95.9,95.9,0,0,1-28,67.8" fill="none" stroke="#000" stroke-linecap="round" stroke-linejoin="round" stroke-width="16"/><path d="M196,60.2a96.1,96.1,0,0,0,0,135.6" fill="none" stroke="#000" stroke-linecap="round" stroke-linejoin="round" stroke-width="16"/><line x1="32" y1="128" x2="224" y2="128" fill="none" stroke="#000" stroke-linecap="round" stroke-linejoin="round" stroke-width="16"/><line x1="128" y1="32" x2="128" y2="224" fill="none" stroke="#000" stroke-linecap="round" stroke-linejoin="round" stroke-width="16"/></svg>