<svg xmlns="http://www.w3.org/2000/svg" viewBox="0 0 256 256"><rect width="256" height="256" fill="none"/><path d="M192,32H96a8,8,0,0,0-8,8V64h72a8,8,0,0,1,8,8v97.1L200,192V40A8,8,0,0,0,192,32Z" opacity="0.2"/><path d="M168,224l-56-40L56,224V72a8,8,0,0,1,8-8h96a8,8,0,0,1,8,8Z" fill="none" stroke="#000" stroke-linecap="round" stroke-linejoin="round" stroke-width="16"/><path d="M88,64V40a8,8,0,0,1,8-8h96a8,8,0,0,1,8,8V192l-32-22.9" fill="none" stroke="#000" stroke-linecap="round" stroke-linejoin="round" stroke-width="16"/></svg>