<svg xmlns="http://www.w3.org/2000/svg" viewBox="0 0 256 256"><rect width="256" height="256" fill="none"/><path d="M224,56H160a32,32,0,0,0-32,32A32,32,0,0,0,96,56H32a8,8,0,0,0-8,8V192a8,8,0,0,0,8,8H96a32,32,0,0,1,32,32,32,32,0,0,1,32-32h64a8,8,0,0,0,8-8V64A8,8,0,0,0,224,56Z" opacity="0.2"/><path d="M128,88a32,32,0,0,1,32-32h64a8,8,0,0,1,8,8V192a8,8,0,0,1-8,8H160a32,32,0,0,0-32,32" fill="none" stroke="#000" stroke-linecap="round" stroke-linejoin="round" stroke-width="16"/><path d="M24,192a8,8,0,0,0,8,8H96a32,32,0,0,1,32,32V88A32,32,0,0,0,96,56H32a8,8,0,0,0-8,8Z" fill="none" stroke="#000" stroke-linecap="round" stroke-linejoin="round" stroke-width="16"/></svg>