<svg xmlns="http://www.w3.org/2000/svg" viewBox="0 0 256 256"><rect width="256" height="256" fill="none"/><path d="M208,86.7V72a40,40,0,0,0-80,0,40,40,0,0,0-80,0V86.7a48.1,48.1,0,0,0,0,90.6h0V184a40,40,0,0,0,80,0,40,40,0,0,0,80,0v-6.7h0a48.1,48.1,0,0,0,0-90.6Z" opacity="0.2"/><line x1="128" y1="176" x2="128" y2="80" fill="none" stroke="#000" stroke-linecap="round" stroke-linejoin="round" stroke-width="16"/><path d="M88,144a40,40,0,1,1-40,40v-6.7" fill="none" stroke="#000" stroke-linecap="round" stroke-linejoin="round" stroke-width="16"/><path d="M168,144a40,40,0,1,0,40,40v-6.7" fill="none" stroke="#000" stroke-linecap="round" stroke-linejoin="round" stroke-width="16"/><path d="M72,180H64A48,48,0,0,1,48,86.7V72a40,40,0,0,1,80,0V184" fill="none" stroke="#000" stroke-linecap="round" stroke-linejoin="round" stroke-width="16"/><path d="M184,180h8a48,48,0,0,0,16-93.3V72a40,40,0,0,0-80,0" fill="none" stroke="#000" stroke-linecap="round" stroke-linejoin="round" stroke-width="16"/><path d="M88,84v8a28,28,0,0,1-28,28" fill="none" stroke="#000" stroke-linecap="round" stroke-linejoin="round" stroke-width="16"/><path d="M168,84v8a28,28,0,0,0,28,28" fill="none" stroke="#000" stroke-linecap="round" stroke-linejoin="round" stroke-width="16"/></svg>