<svg xmlns="http://www.w3.org/2000/svg" viewBox="0 0 256 256"><rect width="256" height="256" fill="none"/><path d="M128,152a190.3,190.3,0,0,1-96-25.7V208a8,8,0,0,0,8,8H216a8,8,0,0,0,8-8V126.3A191.3,191.3,0,0,1,128,152Z" opacity="0.2"/><rect x="32" y="72" width="192" height="144" rx="8" fill="none" stroke="#000" stroke-linecap="round" stroke-linejoin="round" stroke-width="16"/><path d="M168,72V56a16,16,0,0,0-16-16H104A16,16,0,0,0,88,56V72" fill="none" stroke="#000" stroke-linecap="round" stroke-linejoin="round" stroke-width="16"/><path d="M224,126.3A191.3,191.3,0,0,1,128,152a190.3,190.3,0,0,1-96-25.7" fill="none" stroke="#000" stroke-linecap="round" stroke-linejoin="round" stroke-width="16"/><line x1="116" y1="120" x2="140" y2="120" fill="none" stroke="#000" stroke-linecap="round" stroke-linejoin="round" stroke-width="16"/></svg>