<svg xmlns="http://www.w3.org/2000/svg" viewBox="0 0 256 256"><rect width="256" height="256" fill="none"/><path d="M216,48H72a8,8,0,0,0-8,8V80H184a8,8,0,0,1,8,8v88h24a8,8,0,0,0,8-8V56A8,8,0,0,0,216,48Z" opacity="0.2"/><rect x="32" y="80" width="160" height="128" rx="8" fill="none" stroke="#000" stroke-linecap="round" stroke-linejoin="round" stroke-width="16"/><path d="M64,80V56a8,8,0,0,1,8-8H216a8,8,0,0,1,8,8V168a8,8,0,0,1-8,8H192" fill="none" stroke="#000" stroke-linecap="round" stroke-linejoin="round" stroke-width="16"/><line x1="32" y1="112" x2="192" y2="112" fill="none" stroke="#000" stroke-linecap="round" stroke-linejoin="round" stroke-width="16"/></svg>