<svg xmlns="http://www.w3.org/2000/svg" viewBox="0 0 256 256"><rect width="256" height="256" fill="none"/><path d="M128,32S76,64,76,108a52,52,0,0,0,52,52,23.9,23.9,0,0,1-24-24c0-24,24-40,24-40s24,16,24,40a23.9,23.9,0,0,1-24,24,52,52,0,0,0,52-52C180,64,128,32,128,32Z" opacity="0.2"/><path d="M180,108a52,52,0,0,1-104,0c0-44,52-76,52-76S180,64,180,108Z" fill="none" stroke="#000" stroke-linecap="round" stroke-linejoin="round" stroke-width="16"/><line x1="40" y1="168" x2="216" y2="224" fill="none" stroke="#000" stroke-linecap="round" stroke-linejoin="round" stroke-width="16"/><line x1="216" y1="168" x2="40" y2="224" fill="none" stroke="#000" stroke-linecap="round" stroke-linejoin="round" stroke-width="16"/><path d="M152,136a24,24,0,0,1-48,0c0-24,24-40,24-40S152,112,152,136Z" fill="none" stroke="#000" stroke-linecap="round" stroke-linejoin="round" stroke-width="16"/></svg>