<svg xmlns="http://www.w3.org/2000/svg" viewBox="0 0 256 256"><rect width="256" height="256" fill="none"/><path d="M32,120H88.8a7.9,7.9,0,0,1,7.8,6.4,32.1,32.1,0,0,0,62.8,0,7.9,7.9,0,0,1,7.8-6.4H224V72a16,16,0,0,0-16-16H48A16,16,0,0,0,32,72Z" opacity="0.2"/><rect x="32" y="56" width="192" height="144" rx="16" fill="none" stroke="#000" stroke-linecap="round" stroke-linejoin="round" stroke-width="16"/><path d="M32,120H88.8a7.9,7.9,0,0,1,7.8,6.4,32.1,32.1,0,0,0,62.8,0,7.9,7.9,0,0,1,7.8-6.4H224" fill="none" stroke="#000" stroke-linecap="round" stroke-linejoin="round" stroke-width="16"/><line x1="32" y1="88" x2="224" y2="88" fill="none" stroke="#000" stroke-linecap="round" stroke-linejoin="round" stroke-width="16"/></svg>