<svg xmlns="http://www.w3.org/2000/svg" viewBox="0 0 256 256"><rect width="256" height="256" fill="none"/><path d="M200,43.3V208a8,8,0,0,1-8,8H27.3a8,8,0,0,1-5.6-13.7L186.3,37.7A8,8,0,0,1,200,43.3Z" opacity="0.2"/><line x1="224" y1="104" x2="176" y2="152" fill="none" stroke="#000" stroke-linecap="round" stroke-linejoin="round" stroke-width="16"/><line x1="224" y1="152" x2="176" y2="104" fill="none" stroke="#000" stroke-linecap="round" stroke-linejoin="round" stroke-width="16"/><path d="M200,173.3V208a8,8,0,0,1-8,8H27.3a8,8,0,0,1-5.6-13.7L186.3,37.7A8,8,0,0,1,200,43.3V82.7" fill="none" stroke="#000" stroke-linecap="round" stroke-linejoin="round" stroke-width="16"/></svg>