<svg xmlns="http://www.w3.org/2000/svg" viewBox="0 0 256 256"><rect width="256" height="256" fill="none"/><circle cx="104" cy="144" r="32" fill="none" stroke="#000" stroke-linecap="round" stroke-linejoin="round" stroke-width="16"/><path d="M72,144a32,32,0,1,1,32,32h88V80H64v64Z" opacity="0.2"/><path d="M53.4,208a56,56,0,0,1,101.2,0H216a8,8,0,0,0,8-8V56a8,8,0,0,0-8-8H40a8,8,0,0,0-8,8V200a8,8,0,0,0,8,8Z" fill="none" stroke="#000" stroke-linecap="round" stroke-linejoin="round" stroke-width="16"/><polyline points="176 176 192 176 192 80 64 80 64 96" fill="none" stroke="#000" stroke-linecap="round" stroke-linejoin="round" stroke-width="16"/></svg>