<svg xmlns="http://www.w3.org/2000/svg" viewBox="0 0 256 256"><rect width="256" height="256" fill="none"/><path d="M132,216H47.7a7.6,7.6,0,0,1-7.7-7.7V124a92,92,0,0,1,92-92h0a92,92,0,0,1,92,92h0A92,92,0,0,1,132,216Z" opacity="0.2"/><path d="M132,216H47.7a7.6,7.6,0,0,1-7.7-7.7V124a92,92,0,0,1,92-92h0a92,92,0,0,1,92,92h0A92,92,0,0,1,132,216Z" fill="none" stroke="#000" stroke-linecap="round" stroke-linejoin="round" stroke-width="16"/><circle cx="132" cy="128" r="12"/><circle cx="84" cy="128" r="12"/><circle cx="180" cy="128" r="12"/></svg>