<svg xmlns="http://www.w3.org/2000/svg" viewBox="0 0 256 256"><rect width="256" height="256" fill="none"/><path d="M78,201.3,45.1,228.9A8,8,0,0,1,32,222.8V64a8,8,0,0,1,8-8H216a8,8,0,0,1,8,8V192a8,8,0,0,1-8,8H81.7Z" opacity="0.2"/><path d="M77.4,201.9l-32.3,27A8,8,0,0,1,32,222.8V64a8,8,0,0,1,8-8H216a8,8,0,0,1,8,8V192a8,8,0,0,1-8,8H82.5A7.8,7.8,0,0,0,77.4,201.9Z" fill="none" stroke="#000" stroke-linecap="round" stroke-linejoin="round" stroke-width="16"/><circle cx="128" cy="128" r="12"/><circle cx="80" cy="128" r="12"/><circle cx="176" cy="128" r="12"/></svg>