<svg xmlns="http://www.w3.org/2000/svg" viewBox="0 0 256 256"><rect width="256" height="256" fill="none"/><path d="M160,40a40,40,0,0,1,8,24v8H88V64a40,40,0,0,1,8-24H56a8,8,0,0,0-8,8V216a8,8,0,0,0,8,8H200a8,8,0,0,0,8-8V48a8,8,0,0,0-8-8Z" opacity="0.2"/><path d="M160,40h40a8,8,0,0,1,8,8V216a8,8,0,0,1-8,8H56a8,8,0,0,1-8-8V48a8,8,0,0,1,8-8H96" fill="none" stroke="#000" stroke-linecap="round" stroke-linejoin="round" stroke-width="16"/><path d="M88,72V64a40,40,0,0,1,80,0v8Z" fill="none" stroke="#000" stroke-linecap="round" stroke-linejoin="round" stroke-width="16"/></svg>