<svg xmlns="http://www.w3.org/2000/svg" viewBox="0 0 256 256"><rect width="256" height="256" fill="none"/><path d="M80,128a80,80,0,1,1,80,80H72A56,56,0,0,1,72,96a57.5,57.5,0,0,1,13.9,1.7" opacity="0.2"/><path d="M96,208H72A56,56,0,0,1,72,96a57.5,57.5,0,0,1,13.9,1.7" fill="none" stroke="#000" stroke-linecap="round" stroke-linejoin="round" stroke-width="16"/><path d="M80,128a80,80,0,1,1,144,48" fill="none" stroke="#000" stroke-linecap="round" stroke-linejoin="round" stroke-width="16"/><polyline points="118.1 161.9 152 128 185.9 161.9" fill="none" stroke="#000" stroke-linecap="round" stroke-linejoin="round" stroke-width="16"/><line x1="152" y1="208" x2="152" y2="128" fill="none" stroke="#000" stroke-linecap="round" stroke-linejoin="round" stroke-width="16"/></svg>