<svg xmlns="http://www.w3.org/2000/svg" viewBox="0 0 256 256"><rect width="256" height="256" fill="none"/><path d="M90.3,130.4a67.9,67.9,0,0,1,45.5-47.3h.1c.1-1,.1-2,.1-3A64,64,0,0,0,86.4,17.6h0A68.3,68.3,0,0,1,88,32,64.1,64.1,0,0,1,24,96,68.3,68.3,0,0,1,9.6,94.4h0A64.1,64.1,0,0,0,47,138.9h0A43.7,43.7,0,0,1,76,128a42.5,42.5,0,0,1,14.3,2.4Z" opacity="0.2"/><path d="M88,148a68,68,0,1,1,68,68H76a44,44,0,0,1,0-88,42.5,42.5,0,0,1,14.3,2.4" fill="none" stroke="#000" stroke-linecap="round" stroke-linejoin="round" stroke-width="16"/><path d="M47,138.9A64.1,64.1,0,0,1,9.6,94.4h0A68.3,68.3,0,0,0,24,96,64.1,64.1,0,0,0,88,32a68.3,68.3,0,0,0-1.6-14.4h0A64,64,0,0,1,136,80c0,1,0,2-.1,3" fill="none" stroke="#000" stroke-linecap="round" stroke-linejoin="round" stroke-width="16"/></svg>