<svg xmlns="http://www.w3.org/2000/svg" viewBox="0 0 256 256"><rect width="256" height="256" fill="none"/><ellipse cx="96" cy="84" rx="80" ry="36" opacity="0.2"/><path d="M176,96.7c36.5,3.4,64,17.9,64,35.3,0,19.9-35.8,36-80,36-19.6,0-37.6-3.2-51.5-8.4h0C146.8,156.9,176,142,176,124Z" opacity="0.2"/><ellipse cx="96" cy="84" rx="80" ry="36" fill="none" stroke="#000" stroke-linecap="round" stroke-linejoin="round" stroke-width="16"/><path d="M16,84v40c0,19.9,35.8,36,80,36s80-16.1,80-36V84" fill="none" stroke="#000" stroke-linecap="round" stroke-linejoin="round" stroke-width="16"/><line x1="64" y1="117" x2="64" y2="157" fill="none" stroke="#000" stroke-linecap="round" stroke-linejoin="round" stroke-width="16"/><path d="M176,96.7c36.5,3.4,64,17.9,64,35.3,0,19.9-35.8,36-80,36-19.6,0-37.6-3.2-51.5-8.4" fill="none" stroke="#000" stroke-linecap="round" stroke-linejoin="round" stroke-width="16"/><path d="M80,159.3V172c0,19.9,35.8,36,80,36s80-16.1,80-36V132" fill="none" stroke="#000" stroke-linecap="round" stroke-linejoin="round" stroke-width="16"/><line x1="192" y1="165" x2="192" y2="205" fill="none" stroke="#000" stroke-linecap="round" stroke-linejoin="round" stroke-width="16"/><line x1="128" y1="117" x2="128" y2="205" fill="none" stroke="#000" stroke-linecap="round" stroke-linejoin="round" stroke-width="16"/></svg>