<svg xmlns="http://www.w3.org/2000/svg" viewBox="0 0 256 256"><rect width="256" height="256" fill="none"/><path d="M224,127.4a95.6,95.6,0,0,1-28.2,68.5c-36.9,36.9-97.3,37.3-134.7.9A96,96,0,0,1,128.6,32a8.1,8.1,0,0,1,7.8,9.8,32,32,0,0,0,30.8,39,8,8,0,0,1,8,8,32,32,0,0,0,39,30.8A8.1,8.1,0,0,1,224,127.4Z" opacity="0.2"/><path d="M224,127.4a95.6,95.6,0,0,1-28.2,68.5c-36.9,36.9-97.3,37.3-134.7.9A96,96,0,0,1,128.6,32a8.1,8.1,0,0,1,7.8,9.8,32,32,0,0,0,30.8,39,8,8,0,0,1,8,8,32,32,0,0,0,39,30.8A8.1,8.1,0,0,1,224,127.4Z" fill="none" stroke="#000" stroke-linecap="round" stroke-linejoin="round" stroke-width="16"/><circle cx="156" cy="172" r="12"/><circle cx="92" cy="164" r="12"/><circle cx="84" cy="108" r="12"/><circle cx="136" cy="124" r="12"/></svg>