<svg xmlns="http://www.w3.org/2000/svg" viewBox="0 0 256 256"><rect width="256" height="256" fill="none"/><path d="M45.1,196a8.1,8.1,0,0,0,10,5.9,273,273,0,0,1,145.7,0,8.1,8.1,0,0,0,10-5.9L236.3,87.7a8,8,0,0,0-11-9.2L174.7,101a8.1,8.1,0,0,1-10.3-3.4L135,44.6a8,8,0,0,0-14,0l-29.4,53A8.1,8.1,0,0,1,81.3,101L30.7,78.5a8,8,0,0,0-11,9.2Z" opacity="0.2"/><path d="M45.1,196a8.1,8.1,0,0,0,10,5.9,273,273,0,0,1,145.7,0,8.1,8.1,0,0,0,10-5.9L236.3,87.7a8,8,0,0,0-11-9.2L174.7,101a8.1,8.1,0,0,1-10.3-3.4L135,44.6a8,8,0,0,0-14,0l-29.4,53A8.1,8.1,0,0,1,81.3,101L30.7,78.5a8,8,0,0,0-11,9.2Z" fill="none" stroke="#000" stroke-linecap="round" stroke-linejoin="round" stroke-width="16"/></svg>