<svg xmlns="http://www.w3.org/2000/svg" viewBox="0 0 256 256"><rect width="256" height="256" fill="none"/><rect x="99.7" y="35.7" width="56.6" height="56.57" rx="8" transform="translate(-7.8 109.3) rotate(-45)" opacity="0.2"/><rect x="163.7" y="99.7" width="56.6" height="56.57" rx="8" transform="translate(-34.3 173.3) rotate(-45)" opacity="0.2"/><rect x="35.7" y="99.7" width="56.6" height="56.57" rx="8" transform="translate(-71.8 82.7) rotate(-45)" opacity="0.2"/><rect x="99.7" y="163.7" width="56.6" height="56.57" rx="8" transform="translate(-98.3 146.7) rotate(-45)" opacity="0.2"/><rect x="99.7" y="35.7" width="56.6" height="56.57" rx="8" transform="translate(-7.8 109.3) rotate(-45)" fill="none" stroke="#000" stroke-linecap="round" stroke-linejoin="round" stroke-width="16"/><rect x="163.7" y="99.7" width="56.6" height="56.57" rx="8" transform="translate(-34.3 173.3) rotate(-45)" fill="none" stroke="#000" stroke-linecap="round" stroke-linejoin="round" stroke-width="16"/><rect x="35.7" y="99.7" width="56.6" height="56.57" rx="8" transform="translate(-71.8 82.7) rotate(-45)" fill="none" stroke="#000" stroke-linecap="round" stroke-linejoin="round" stroke-width="16"/><rect x="99.7" y="163.7" width="56.6" height="56.57" rx="8" transform="translate(-98.3 146.7) rotate(-45)" fill="none" stroke="#000" stroke-linecap="round" stroke-linejoin="round" stroke-width="16"/></svg>