<svg xmlns="http://www.w3.org/2000/svg" viewBox="0 0 256 256"><rect width="256" height="256" fill="none"/><path d="M161.9,216A44,44,0,0,1,84,188c0-41.5-36-28-36-84a80,80,0,0,1,160,0C208,144,209,169,161.9,216Z" opacity="0.2"/><line x1="48" y1="40" x2="208" y2="216" fill="none" stroke="#000" stroke-linecap="round" stroke-linejoin="round" stroke-width="16"/><path d="M91.4,87.8A39.5,39.5,0,0,0,88,104" fill="none" stroke="#000" stroke-linecap="round" stroke-linejoin="round" stroke-width="16"/><path d="M87,35.3A80,80,0,0,1,208,104" fill="none" stroke="#000" stroke-linecap="round" stroke-linejoin="round" stroke-width="16"/><path d="M161.9,216A44,44,0,0,1,84,188c0-41.5-36-28-36-84A79.9,79.9,0,0,1,63.3,56.9" fill="none" stroke="#000" stroke-linecap="round" stroke-linejoin="round" stroke-width="16"/><path d="M163.1,119a24,24,0,0,0,4.9-15,39.9,39.9,0,0,0-53-37.8" fill="none" stroke="#000" stroke-linecap="round" stroke-linejoin="round" stroke-width="16"/><path d="M166.9,170.8A20.1,20.1,0,0,1,140,152a25.5,25.5,0,0,1,1.6-9.1" fill="none" stroke="#000" stroke-linecap="round" stroke-linejoin="round" stroke-width="16"/></svg>