<svg xmlns="http://www.w3.org/2000/svg" viewBox="0 0 256 256"><rect width="256" height="256" fill="none"/><path d="M122.1,38.4,44.4,122.6A8,8,0,0,0,50.3,136H205.7a8,8,0,0,0,5.9-13.4L133.9,38.4A7.9,7.9,0,0,0,122.1,38.4Z" opacity="0.2"/><rect x="108" y="100" width="40" height="176" rx="8" transform="translate(-60 316) rotate(-90)" opacity="0.2"/><path d="M122.1,38.4,44.4,122.6A8,8,0,0,0,50.3,136H205.7a8,8,0,0,0,5.9-13.4L133.9,38.4A7.9,7.9,0,0,0,122.1,38.4Z" fill="none" stroke="#000" stroke-linecap="round" stroke-linejoin="round" stroke-width="16"/><rect x="108" y="100" width="40" height="176" rx="8" transform="translate(-60 316) rotate(-90)" fill="none" stroke="#000" stroke-linecap="round" stroke-linejoin="round" stroke-width="16"/></svg>