<svg xmlns="http://www.w3.org/2000/svg" viewBox="0 0 256 256"><rect width="256" height="256" fill="none"/><path d="M152,224l-44.7-67a3.9,3.9,0,0,0-6.6,0L79.8,188.4a4,4,0,0,1-6.7-.1l-9.7-15.1a4.1,4.1,0,0,0-6.8,0L24,224Z" opacity="0.2"/><polygon points="152 32 152 88 208 88 152 32" opacity="0.2"/><path d="M152,224l-44.7-67a3.9,3.9,0,0,0-6.6,0L79.8,188.4a4,4,0,0,1-6.7-.1l-9.7-15.1a4.1,4.1,0,0,0-6.8,0L24,224Z" fill="none" stroke="#000" stroke-linecap="round" stroke-linejoin="round" stroke-width="16"/><polyline points="152 32 152 88 208 88" fill="none" stroke="#000" stroke-linecap="round" stroke-linejoin="round" stroke-width="16"/><path d="M192,224h8a8,8,0,0,0,8-8V88L152,32H56a8,8,0,0,0-8,8v96" fill="none" stroke="#000" stroke-linecap="round" stroke-linejoin="round" stroke-width="16"/></svg>