<svg xmlns="http://www.w3.org/2000/svg" viewBox="0 0 256 256"><rect width="256" height="256" fill="none"/><path d="M32,176H224v24a8,8,0,0,1-8,8H40a8,8,0,0,1-8-8Z" opacity="0.2"/><path d="M224,80H32V56a8,8,0,0,1,8-8H216a8,8,0,0,1,8,8Z" opacity="0.2"/><rect x="32" y="48" width="192" height="160" rx="8" fill="none" stroke="#000" stroke-linecap="round" stroke-linejoin="round" stroke-width="16"/><line x1="128" y1="48" x2="128" y2="208" fill="none" stroke="#000" stroke-linecap="round" stroke-linejoin="round" stroke-width="16"/><line x1="32" y1="80" x2="224" y2="80" fill="none" stroke="#000" stroke-linecap="round" stroke-linejoin="round" stroke-width="16"/><line x1="32" y1="176" x2="224" y2="176" fill="none" stroke="#000" stroke-linecap="round" stroke-linejoin="round" stroke-width="16"/><line x1="80" y1="48" x2="80" y2="80" fill="none" stroke="#000" stroke-linecap="round" stroke-linejoin="round" stroke-width="16"/><line x1="176" y1="48" x2="176" y2="80" fill="none" stroke="#000" stroke-linecap="round" stroke-linejoin="round" stroke-width="16"/><line x1="80" y1="176" x2="80" y2="208" fill="none" stroke="#000" stroke-linecap="round" stroke-linejoin="round" stroke-width="16"/><line x1="176" y1="176" x2="176" y2="208" fill="none" stroke="#000" stroke-linecap="round" stroke-linejoin="round" stroke-width="16"/></svg>