<svg xmlns="http://www.w3.org/2000/svg" viewBox="0 0 256 256"><rect width="256" height="256" fill="none"/><path d="M88.1,69.7c-14.8,17.9-25,44.4-25.9,83.5h0L8,176l56,16,16,56,22.8-54.2h0c39-.9,65.6-11.1,83.5-25.9H184a48,48,0,0,1-48-48A48,48,0,0,1,88,72,17.7,17.7,0,0,1,88.1,69.7Z" opacity="0.2"/><circle cx="156" cy="76" r="12"/><path d="M186.3,167.9H184a48,48,0,0,1-48-48A48,48,0,0,1,88,72a17.7,17.7,0,0,1,.1-2.3" fill="none" stroke="#000" stroke-linecap="round" stroke-linejoin="round" stroke-width="16"/><path d="M62.2,153.2,8,176l56,16,16,56,22.8-54.2h0c138.4-3.3,120-122.9,114.4-148.9a8.2,8.2,0,0,0-6.1-6.1c-26-5.6-145.6-24-148.9,114.4Z" fill="none" stroke="#000" stroke-linecap="round" stroke-linejoin="round" stroke-width="16"/></svg>