<svg xmlns="http://www.w3.org/2000/svg" viewBox="0 0 256 256"><rect width="256" height="256" fill="none"/><g opacity="0.2"><path d="M40,106.1c21.4-16,41-16,60-10.6V37.4C81,32,61.4,32,40,48Z"/></g><g opacity="0.2"><path d="M156,58.6C175,64,194.6,64,216,48v58.1c-21.4,16.1-41,16-60,10.7Z"/></g><g opacity="0.2"><path d="M156,116.8c-18.9-5.4-37.1-15.9-56-21.3v61.9c18.9,5.3,37.1,15.9,56,21.2Z"/></g><line x1="40" y1="216" x2="40" y2="48" fill="none" stroke="#000" stroke-linecap="round" stroke-linejoin="round" stroke-width="16"/><path d="M40,168c64-48,112,48,176,0V48C152,96,104,0,40,48" fill="none" stroke="#000" stroke-linecap="round" stroke-linejoin="round" stroke-width="16"/><path d="M216,106.1c-64,48-112-48-176,0" fill="none" stroke="#000" stroke-linecap="round" stroke-linejoin="round" stroke-width="16"/><line x1="100" y1="37.4" x2="100" y2="157.4" fill="none" stroke="#000" stroke-linecap="round" stroke-linejoin="round" stroke-width="16"/><line x1="156" y1="58.6" x2="156" y2="178.6" fill="none" stroke="#000" stroke-linecap="round" stroke-linejoin="round" stroke-width="16"/></svg>