<svg xmlns="http://www.w3.org/2000/svg" viewBox="0 0 256 256"><rect width="256" height="256" fill="none"/><path d="M104,32V93.8a8.4,8.4,0,0,1-1.1,4.1l-63.6,106A8,8,0,0,0,46.1,216H209.9a8,8,0,0,0,6.8-12.1l-63.6-106a8.4,8.4,0,0,1-1.1-4.1V32" fill="none" stroke="#000" stroke-linecap="round" stroke-linejoin="round" stroke-width="16"/><line x1="88" y1="32" x2="168" y2="32" fill="none" stroke="#000" stroke-linecap="round" stroke-linejoin="round" stroke-width="16"/><path d="M62.6,165c11.8-8.7,32.1-13.6,65.4,3,35.7,17.9,56.5,10.8,67.9,1.1" fill="none" stroke="#000" stroke-linecap="round" stroke-linejoin="round" stroke-width="16"/><path d="M62.6,165,39.3,203.9A8,8,0,0,0,46.1,216H209.9a8,8,0,0,0,6.8-12.1l-20.8-34.8h0c-11.4,9.7-32.2,16.8-67.9-1.1-33.3-16.6-53.6-11.7-65.4-3Z" opacity="0.2"/></svg>