<svg xmlns="http://www.w3.org/2000/svg" viewBox="0 0 256 256"><rect width="256" height="256" fill="none"/><path d="M192,77.3a8.1,8.1,0,0,1-1.6,4.8l-20.8,27.8a8.1,8.1,0,0,0-1.6,4.8V224a8,8,0,0,1-8,8H96a8,8,0,0,1-8-8V114.7a8.1,8.1,0,0,0-1.6-4.8L65.6,82.1A8.1,8.1,0,0,1,64,77.3V64H192Z" opacity="0.2"/><path d="M72,24H184a8,8,0,0,1,8,8V77.3a8.1,8.1,0,0,1-1.6,4.8l-20.8,27.8a8.1,8.1,0,0,0-1.6,4.8V224a8,8,0,0,1-8,8H96a8,8,0,0,1-8-8V114.7a8.1,8.1,0,0,0-1.6-4.8L65.6,82.1A8.1,8.1,0,0,1,64,77.3V32A8,8,0,0,1,72,24Z" fill="none" stroke="#000" stroke-linecap="round" stroke-linejoin="round" stroke-width="16"/><line x1="128" y1="120" x2="128" y2="152" fill="none" stroke="#000" stroke-linecap="round" stroke-linejoin="round" stroke-width="16"/><line x1="64" y1="64" x2="192" y2="64" fill="none" stroke="#000" stroke-linecap="round" stroke-linejoin="round" stroke-width="16"/></svg>