<svg xmlns="http://www.w3.org/2000/svg" viewBox="0 0 256 256"><rect width="256" height="256" fill="none"/><path d="M208,40H91.3a7.9,7.9,0,0,0-5.6,2.3L42.3,85.7A7.9,7.9,0,0,0,40,91.3V208a8,8,0,0,0,8,8H208a8,8,0,0,0,8-8V48A8,8,0,0,0,208,40ZM128,176a28,28,0,1,1,28-28A28,28,0,0,1,128,176Z" opacity="0.2"/><path d="M40,91.3V208a8,8,0,0,0,8,8H208a8,8,0,0,0,8-8V48a8,8,0,0,0-8-8H91.3a7.9,7.9,0,0,0-5.6,2.3L42.3,85.7A7.9,7.9,0,0,0,40,91.3Z" fill="none" stroke="#000" stroke-linecap="round" stroke-linejoin="round" stroke-width="16"/><circle cx="128" cy="148" r="28" fill="none" stroke="#000" stroke-linecap="round" stroke-linejoin="round" stroke-width="16"/><polyline points="96 80 160 80 160 40" fill="none" stroke="#000" stroke-linecap="round" stroke-linejoin="round" stroke-width="16"/></svg>