<svg xmlns="http://www.w3.org/2000/svg" viewBox="0 0 256 256"><rect width="256" height="256" fill="none"/><path d="M224,72H154.7a8.1,8.1,0,0,1-4.8-1.6L122.1,49.6a8.1,8.1,0,0,0-4.8-1.6H72a8,8,0,0,0-8,8V80H85.3a8.1,8.1,0,0,1,4.8,1.6l27.8,20.8a8.1,8.1,0,0,0,4.8,1.6H192a8,8,0,0,1,8,8v64h24.9a7.1,7.1,0,0,0,7.1-7.1V80A8,8,0,0,0,224,72Z" opacity="0.2"/><path d="M200,112v88.9a7.1,7.1,0,0,1-7.1,7.1H40a8,8,0,0,1-8-8V88a8,8,0,0,1,8-8H85.3a8.1,8.1,0,0,1,4.8,1.6l27.8,20.8a8.1,8.1,0,0,0,4.8,1.6H192A8,8,0,0,1,200,112Z" fill="none" stroke="#000" stroke-linecap="round" stroke-linejoin="round" stroke-width="16"/><path d="M64,80V56a8,8,0,0,1,8-8h45.3a8.1,8.1,0,0,1,4.8,1.6l27.8,20.8a8.1,8.1,0,0,0,4.8,1.6H224a8,8,0,0,1,8,8v88.9a7.1,7.1,0,0,1-7.1,7.1H200" fill="none" stroke="#000" stroke-linecap="round" stroke-linejoin="round" stroke-width="16"/></svg>