<svg xmlns="http://www.w3.org/2000/svg" viewBox="0 0 256 256"><rect width="256" height="256" fill="none"/><path d="M93.3,104H32V64a8,8,0,0,1,8-8H93.3a8.1,8.1,0,0,1,4.8,1.6L128,80,98.1,102.4A8.1,8.1,0,0,1,93.3,104Z" opacity="0.2"/><path d="M128,80h88a8,8,0,0,1,8,8V200a8,8,0,0,1-8,8H40a8,8,0,0,1-8-8V104" fill="none" stroke="#000" stroke-linecap="round" stroke-linejoin="round" stroke-width="16"/><path d="M93.3,104H32V64a8,8,0,0,1,8-8H93.3a8.1,8.1,0,0,1,4.8,1.6L128,80,98.1,102.4A8.1,8.1,0,0,1,93.3,104Z" fill="none" stroke="#000" stroke-linecap="round" stroke-linejoin="round" stroke-width="16"/></svg>