<svg xmlns="http://www.w3.org/2000/svg" viewBox="0 0 256 256"><rect width="256" height="256" fill="none"/><path d="M98.3,50.3,128,80H32V56a8,8,0,0,1,8-8H92.7A7.9,7.9,0,0,1,98.3,50.3Z" opacity="0.2"/><path d="M216.9,208H39.4a7.4,7.4,0,0,1-7.4-7.4V80H216a8,8,0,0,1,8,8V200.9A7.1,7.1,0,0,1,216.9,208Z" fill="none" stroke="#000" stroke-linecap="round" stroke-linejoin="round" stroke-width="16"/><path d="M32,80V56a8,8,0,0,1,8-8H92.7a7.9,7.9,0,0,1,5.6,2.3L128,80" fill="none" stroke="#000" stroke-linecap="round" stroke-linejoin="round" stroke-width="16"/><line x1="104" y1="144" x2="152" y2="144" fill="none" stroke="#000" stroke-linecap="round" stroke-linejoin="round" stroke-width="16"/><line x1="128" y1="120" x2="128" y2="168" fill="none" stroke="#000" stroke-linecap="round" stroke-linejoin="round" stroke-width="16"/></svg>