<svg xmlns="http://www.w3.org/2000/svg" viewBox="0 0 256 256"><rect width="256" height="256" fill="none"/><polygon points="188 198.5 217.7 216 209.6 183.4 236 161.6 201.3 158.9 188 128 174.7 158.9 140 161.6 166.4 183.4 158.3 216 188 198.5" opacity="0.2"/><path d="M120,208H40a8,8,0,0,1-8-8V64a8,8,0,0,1,8-8H93.3a8.1,8.1,0,0,1,4.8,1.6l27.8,20.8a8.1,8.1,0,0,0,4.8,1.6H216a8,8,0,0,1,8,8v32" fill="none" stroke="#000" stroke-linecap="round" stroke-linejoin="round" stroke-width="16"/><polygon points="188 198.5 217.7 216 209.6 183.4 236 161.6 201.3 158.9 188 128 174.7 158.9 140 161.6 166.4 183.4 158.3 216 188 198.5" fill="none" stroke="#000" stroke-linecap="round" stroke-linejoin="round" stroke-width="16"/></svg>