<svg xmlns="http://www.w3.org/2000/svg" viewBox="0 0 256 256"><rect width="256" height="256" fill="none"/><path d="M32,80V56a8,8,0,0,1,8-8H92.7a7.9,7.9,0,0,1,5.6,2.3L128,80Z" opacity="0.2"/><rect x="152" y="164" width="72" height="44" opacity="0.2"/><path d="M32,80V56a8,8,0,0,1,8-8H92.7a7.9,7.9,0,0,1,5.6,2.3L128,80" fill="none" stroke="#000" stroke-linecap="round" stroke-linejoin="round" stroke-width="16"/><rect x="152" y="164" width="72" height="44" fill="none" stroke="#000" stroke-linecap="round" stroke-linejoin="round" stroke-width="16"/><path d="M112.6,208H39.4a7.4,7.4,0,0,1-7.4-7.4V80H216a8,8,0,0,1,8,8v16" fill="none" stroke="#000" stroke-linecap="round" stroke-linejoin="round" stroke-width="16"/><path d="M168,164V152a20,20,0,0,1,40,0v12" fill="none" stroke="#000" stroke-linecap="round" stroke-linejoin="round" stroke-width="16"/></svg>