<svg xmlns="http://www.w3.org/2000/svg" viewBox="0 0 256 256"><rect width="256" height="256" fill="none"/><path d="M69.4,128h48.2a8.4,8.4,0,0,0,4.4-1.3l20-13.4a8.4,8.4,0,0,1,4.4-1.3H208V88a8,8,0,0,0-8-8H130.7a8.1,8.1,0,0,1-4.8-1.6L98.1,57.6A8.1,8.1,0,0,0,93.3,56H40a8,8,0,0,0-8,8V208l30-75A7.9,7.9,0,0,1,69.4,128Z" opacity="0.2"/><path d="M32,208V64a8,8,0,0,1,8-8H93.3a8.1,8.1,0,0,1,4.8,1.6l27.8,20.8a8.1,8.1,0,0,0,4.8,1.6H200a8,8,0,0,1,8,8v24" fill="none" stroke="#000" stroke-linecap="round" stroke-linejoin="round" stroke-width="16"/><path d="M32,208l30-75a7.9,7.9,0,0,1,7.4-5h48.2a8.4,8.4,0,0,0,4.4-1.3l20-13.4a8.4,8.4,0,0,1,4.4-1.3h82.5a8,8,0,0,1,7.6,10.5L208,208Z" fill="none" stroke="#000" stroke-linecap="round" stroke-linejoin="round" stroke-width="16"/></svg>