<svg xmlns="http://www.w3.org/2000/svg" viewBox="0 0 256 256"><rect width="256" height="256" fill="none"/><path d="M229.6,106,203.7,91.6a73.6,73.6,0,0,0-6.3-10.9l.5-29.7a102.6,102.6,0,0,0-38.2-22L134.3,44.2a88.3,88.3,0,0,0-12.6,0L96.2,28.9A104,104,0,0,0,58.1,51l.5,29.7a73.6,73.6,0,0,0-6.3,10.9L26.3,106a103.6,103.6,0,0,0,.1,44l25.9,14.4a80.1,80.1,0,0,0,6.3,11L58.1,205a102.6,102.6,0,0,0,38.2,22l25.4-15.2a88.3,88.3,0,0,0,12.6,0l25.5,15.3A104,104,0,0,0,197.9,205l-.5-29.7a73.6,73.6,0,0,0,6.3-10.9l26-14.4A102,102,0,0,0,229.6,106ZM128,176a48,48,0,1,1,48-48A48,48,0,0,1,128,176Z" opacity="0.2"/><circle cx="128" cy="128" r="48" fill="none" stroke="#000" stroke-linecap="round" stroke-linejoin="round" stroke-width="16"/><path d="M197.4,80.7a73.6,73.6,0,0,1,6.3,10.9L229.6,106a102,102,0,0,1,.1,44l-26,14.4a73.6,73.6,0,0,1-6.3,10.9l.5,29.7a104,104,0,0,1-38.1,22.1l-25.5-15.3a88.3,88.3,0,0,1-12.6,0L96.3,227a102.6,102.6,0,0,1-38.2-22l.5-29.6a80.1,80.1,0,0,1-6.3-11L26.4,150a103.6,103.6,0,0,1-.1-44l26-14.4a73.6,73.6,0,0,1,6.3-10.9L58.1,51A104,104,0,0,1,96.2,28.9l25.5,15.3a88.3,88.3,0,0,1,12.6,0L159.7,29a102.6,102.6,0,0,1,38.2,22Z" fill="none" stroke="#000" stroke-linecap="round" stroke-linejoin="round" stroke-width="16"/></svg>