<svg xmlns="http://www.w3.org/2000/svg" viewBox="0 0 256 256"><rect width="256" height="256" fill="none"/><path d="M111.8,64A52,52,0,0,0,68,40a52,52,0,0,0-3.5,44.7A49.3,49.3,0,0,0,56,112v8a48,48,0,0,0,48,48h48a48,48,0,0,0,48-48v-8a49.3,49.3,0,0,0-8.5-27.3A52,52,0,0,0,188,40a52,52,0,0,0-43.8,24Z" opacity="0.2"/><path d="M84,240a23.9,23.9,0,0,0,24-24V168" fill="none" stroke="#000" stroke-linecap="round" stroke-linejoin="round" stroke-width="16"/><path d="M172,240a23.9,23.9,0,0,1-24-24V168" fill="none" stroke="#000" stroke-linecap="round" stroke-linejoin="round" stroke-width="16"/><path d="M152,168h16a23.9,23.9,0,0,1,24,24v8a23.9,23.9,0,0,0,24,24" fill="none" stroke="#000" stroke-linecap="round" stroke-linejoin="round" stroke-width="16"/><path d="M104,168H88a23.9,23.9,0,0,0-24,24v8a23.9,23.9,0,0,1-24,24" fill="none" stroke="#000" stroke-linecap="round" stroke-linejoin="round" stroke-width="16"/><path d="M111.8,64A52,52,0,0,0,68,40a52,52,0,0,0-3.5,44.7A49.3,49.3,0,0,0,56,112v8a48,48,0,0,0,48,48h48a48,48,0,0,0,48-48v-8a49.3,49.3,0,0,0-8.5-27.3A52,52,0,0,0,188,40a52,52,0,0,0-43.8,24Z" fill="none" stroke="#000" stroke-linecap="round" stroke-linejoin="round" stroke-width="16"/></svg>