<svg xmlns="http://www.w3.org/2000/svg" viewBox="0 0 256 256"><rect width="256" height="256" fill="none"/><path d="M168,112V100a20,20,0,0,0-40,0V36a20,20,0,0,0-40,0V157.3l-21.9-38a20,20,0,0,0-34.7,20C64,208,83.8,232,128,232a80,80,0,0,0,80-80V112a20,20,0,0,0-40,0Z" opacity="0.2"/><path d="M168,112V100a20,20,0,0,0-40,0V36a20,20,0,0,0-40,0V157.3l-21.9-38a20,20,0,0,0-34.7,20C64,208,83.8,232,128,232a80,80,0,0,0,80-80V112a20,20,0,0,0-40,0Z" fill="none" stroke="#000" stroke-linecap="round" stroke-linejoin="round" stroke-width="16"/></svg>