<svg xmlns="http://www.w3.org/2000/svg" viewBox="0 0 256 256"><rect width="256" height="256" fill="none"/><path d="M88,200a72,72,0,0,1-72-72.5C16.3,87.8,49.2,56,88.9,56H128a8,8,0,0,1,8,8V192a8,8,0,0,1-8,8Z" opacity="0.2"/><line x1="168" y1="80" x2="240" y2="80" fill="none" stroke="#000" stroke-linecap="round" stroke-linejoin="round" stroke-width="16"/><line x1="168" y1="176" x2="240" y2="176" fill="none" stroke="#000" stroke-linecap="round" stroke-linejoin="round" stroke-width="16"/><line x1="168" y1="112" x2="240" y2="112" fill="none" stroke="#000" stroke-linecap="round" stroke-linejoin="round" stroke-width="16"/><line x1="168" y1="144" x2="240" y2="144" fill="none" stroke="#000" stroke-linecap="round" stroke-linejoin="round" stroke-width="16"/><path d="M88,200a72,72,0,0,1-72-72.5C16.3,87.8,49.2,56,88.9,56H128a8,8,0,0,1,8,8V192a8,8,0,0,1-8,8Z" fill="none" stroke="#000" stroke-linecap="round" stroke-linejoin="round" stroke-width="16"/></svg>