<svg xmlns="http://www.w3.org/2000/svg" viewBox="0 0 256 256"><rect width="256" height="256" fill="none"/><path d="M152,216V152H104v64H40V115.5a7.9,7.9,0,0,1,2.6-5.9l80-72.7a7.9,7.9,0,0,1,10.7,0l80.1,72.7a8.3,8.3,0,0,1,2.6,5.9V216Z" opacity="0.2"/><path d="M216,216V115.5a8.3,8.3,0,0,0-2.6-5.9L133.3,36.9a7.9,7.9,0,0,0-10.7,0l-80,72.7a7.9,7.9,0,0,0-2.6,5.9V216" fill="none" stroke="#000" stroke-linecap="round" stroke-linejoin="round" stroke-width="16"/><line x1="16" y1="216" x2="240" y2="216" fill="none" stroke="#000" stroke-linecap="round" stroke-linejoin="round" stroke-width="16"/><path d="M152,216V160a8,8,0,0,0-8-8H112a8,8,0,0,0-8,8v56" fill="none" stroke="#000" stroke-linecap="round" stroke-linejoin="round" stroke-width="16"/></svg>