<svg xmlns="http://www.w3.org/2000/svg" viewBox="0 0 256 256"><rect width="256" height="256" fill="none"/><path d="M40,176V48a8,8,0,0,1,8-8H208a8,8,0,0,1,8,8V160h0l-42.3-42.3a8,8,0,0,0-11.4,0l-44.6,44.6a8,8,0,0,1-11.4,0L85.7,141.7a8,8,0,0,0-11.4,0Z" opacity="0.2"/><rect x="40" y="40" width="176" height="176" rx="8" fill="none" stroke="#000" stroke-linecap="round" stroke-linejoin="round" stroke-width="16"/><path d="M216,160l-42.3-42.3a8,8,0,0,0-11.4,0l-44.6,44.6a8,8,0,0,1-11.4,0L85.7,141.7a8,8,0,0,0-11.4,0L40,176" fill="none" stroke="#000" stroke-linecap="round" stroke-linejoin="round" stroke-width="16"/><circle cx="100" cy="92" r="12"/></svg>