<svg xmlns="http://www.w3.org/2000/svg" viewBox="0 0 256 256"><rect width="256" height="256" fill="none"/><path d="M172,36H84A48,48,0,0,0,36,84v88a48,48,0,0,0,48,48h88a48,48,0,0,0,48-48V84A48,48,0,0,0,172,36ZM128,168a40,40,0,1,1,40-40A40,40,0,0,1,128,168Z" opacity="0.2"/><circle cx="128" cy="128" r="40" fill="none" stroke="#000" stroke-miterlimit="10" stroke-width="16"/><rect x="36" y="36" width="184" height="184" rx="48" fill="none" stroke="#000" stroke-linecap="round" stroke-linejoin="round" stroke-width="16"/><circle cx="180" cy="76" r="12"/></svg>