<svg xmlns="http://www.w3.org/2000/svg" viewBox="0 0 256 256"><rect width="256" height="256" fill="none"/><path d="M195.9,60.1a96,96,0,0,1,0,135.8l-39.6-39.6a40.1,40.1,0,0,0,0-56.6Z" opacity="0.2"/><path d="M60.1,195.9a96,96,0,0,1,0-135.8L99.7,99.7a40.1,40.1,0,0,0,0,56.6Z" opacity="0.2"/><circle cx="128" cy="128" r="96" fill="none" stroke="#000" stroke-linecap="round" stroke-linejoin="round" stroke-width="16"/><circle cx="128" cy="128" r="40" fill="none" stroke="#000" stroke-linecap="round" stroke-linejoin="round" stroke-width="16"/><line x1="99.7" y1="99.7" x2="60.1" y2="60.1" fill="none" stroke="#000" stroke-linecap="round" stroke-linejoin="round" stroke-width="16"/><line x1="156.3" y1="99.7" x2="195.9" y2="60.1" fill="none" stroke="#000" stroke-linecap="round" stroke-linejoin="round" stroke-width="16"/><line x1="156.3" y1="156.3" x2="195.9" y2="195.9" fill="none" stroke="#000" stroke-linecap="round" stroke-linejoin="round" stroke-width="16"/><line x1="99.7" y1="156.3" x2="60.1" y2="195.9" fill="none" stroke="#000" stroke-linecap="round" stroke-linejoin="round" stroke-width="16"/></svg>