<svg xmlns="http://www.w3.org/2000/svg" viewBox="0 0 256 256"><rect width="256" height="256" fill="none"/><path d="M48,56a8,8,0,0,1,8-8H96a8,8,0,0,1,8,8V96H48Z" opacity="0.2"/><path d="M152,56a8,8,0,0,1,8-8h40a8,8,0,0,1,8,8V96H152Z" opacity="0.2"/><line x1="48" y1="96" x2="104" y2="96" fill="none" stroke="#000" stroke-linecap="round" stroke-linejoin="round" stroke-width="16"/><line x1="152" y1="96" x2="208" y2="96" fill="none" stroke="#000" stroke-linecap="round" stroke-linejoin="round" stroke-width="16"/><path d="M104,144a24,24,0,0,0,48,0V56a8,8,0,0,1,8-8h40a8,8,0,0,1,8,8v87c0,44.1-35.3,80.7-79.4,81A80,80,0,0,1,48,144V56a8,8,0,0,1,8-8H96a8,8,0,0,1,8,8Z" fill="none" stroke="#000" stroke-linecap="round" stroke-linejoin="round" stroke-width="16"/></svg>