<svg xmlns="http://www.w3.org/2000/svg" viewBox="0 0 256 256"><rect width="256" height="256" fill="none"/><path d="M216,48.3a7.9,7.9,0,0,0-10.9-7.4C190,46.7,160.9,56,128,56S66,46.7,50.9,40.9A7.9,7.9,0,0,0,40,48.3V104c0,70.7,39.4,128,88,128s88-57.3,88-128Z" opacity="0.2"/><path d="M146.1,128a24,24,0,0,1,35.8,0" fill="none" stroke="#000" stroke-linecap="round" stroke-linejoin="round" stroke-width="16"/><path d="M74.1,128a24,24,0,0,1,35.8,0" fill="none" stroke="#000" stroke-linecap="round" stroke-linejoin="round" stroke-width="16"/><path d="M154.5,176a47.9,47.9,0,0,1-53,0" fill="none" stroke="#000" stroke-linecap="round" stroke-linejoin="round" stroke-width="16"/><path d="M216,48.3a7.9,7.9,0,0,0-10.9-7.4C190,46.7,160.9,56,128,56S66,46.7,50.9,40.9A7.9,7.9,0,0,0,40,48.3V104c0,70.7,39.4,128,88,128s88-57.3,88-128Z" fill="none" stroke="#000" stroke-linecap="round" stroke-linejoin="round" stroke-width="16"/></svg>