<svg xmlns="http://www.w3.org/2000/svg" viewBox="0 0 256 256"><rect width="256" height="256" fill="none"/><path d="M158.1,151.2a63.9,63.9,0,0,1-53.3-53.3h0L28.1,202.5a7.9,7.9,0,0,0,.8,10.4l14.2,14.2a7.9,7.9,0,0,0,10.4.8l104.6-76.7Z" opacity="0.2"/><circle cx="168" cy="88" r="64" fill="none" stroke="#000" stroke-linecap="round" stroke-linejoin="round" stroke-width="16"/><line x1="213.3" y1="133.3" x2="122.7" y2="42.7" fill="none" stroke="#000" stroke-linecap="round" stroke-linejoin="round" stroke-width="16"/><line x1="100" y1="156" x2="88" y2="168" fill="none" stroke="#000" stroke-linecap="round" stroke-linejoin="round" stroke-width="16"/><path d="M104.8,97.9,28.1,202.5a7.9,7.9,0,0,0,.8,10.4l14.2,14.2a7.9,7.9,0,0,0,10.4.8l104.6-76.7" fill="none" stroke="#000" stroke-linecap="round" stroke-linejoin="round" stroke-width="16"/></svg>