<svg xmlns="http://www.w3.org/2000/svg" viewBox="0 0 256 256"><rect width="256" height="256" fill="none"/><path d="M208,48H48A16,16,0,0,0,32,64V176a16,16,0,0,0,16,16H208a16,16,0,0,0,16-16V64A16,16,0,0,0,208,48ZM112,152V88l48,32Z" opacity="0.2"/><rect x="32" y="48" width="192" height="144" rx="16" transform="translate(256 240) rotate(180)" fill="none" stroke="#000" stroke-linecap="round" stroke-linejoin="round" stroke-width="16"/><line x1="160" y1="224" x2="96" y2="224" fill="none" stroke="#000" stroke-linecap="round" stroke-linejoin="round" stroke-width="16"/><polygon points="160 120 112 88 112 152 160 120" fill="none" stroke="#000" stroke-linecap="round" stroke-linejoin="round" stroke-width="16"/></svg>