<svg xmlns="http://www.w3.org/2000/svg" viewBox="0 0 256 256"><rect width="256" height="256" fill="none"/><circle cx="164" cy="52" r="20" opacity="0.2"/><path d="M144.1,159.4l33-55.8a8.1,8.1,0,0,1,13.8,0L248,200H168Z" opacity="0.2"/><path d="M50.4,128h75.2L94.9,75.7a8.1,8.1,0,0,0-13.8,0Z" opacity="0.2"/><circle cx="164" cy="52" r="20" fill="none" stroke="#000" stroke-linecap="round" stroke-linejoin="round" stroke-width="16"/><path d="M8,200,81.1,75.7a8.1,8.1,0,0,1,13.8,0L168,200Z" fill="none" stroke="#000" stroke-linecap="round" stroke-linejoin="round" stroke-width="16"/><line x1="50.4" y1="128" x2="125.6" y2="128" fill="none" stroke="#000" stroke-linecap="round" stroke-linejoin="round" stroke-width="16"/><path d="M144.1,159.4l33-55.8a8.1,8.1,0,0,1,13.8,0L248,200H168" fill="none" stroke="#000" stroke-linecap="round" stroke-linejoin="round" stroke-width="16"/></svg>