<svg xmlns="http://www.w3.org/2000/svg" viewBox="0 0 256 256"><rect width="256" height="256" fill="none"/><path d="M211.4,127.4,184,72H72L44.6,127.4a8.2,8.2,0,0,0,.7,8.3L128,248l82.7-112.3A8.2,8.2,0,0,0,211.4,127.4ZM128,152a20,20,0,1,1,20-20A20.1,20.1,0,0,1,128,152Z" opacity="0.2"/><line x1="128" y1="152" x2="128" y2="248" fill="none" stroke="#000" stroke-linecap="round" stroke-linejoin="round" stroke-width="16"/><circle cx="128" cy="132" r="20" fill="none" stroke="#000" stroke-linecap="round" stroke-linejoin="round" stroke-width="16"/><path d="M72,72V32a8,8,0,0,1,8-8h96a8,8,0,0,1,8,8V72" fill="none" stroke="#000" stroke-linecap="round" stroke-linejoin="round" stroke-width="16"/><path d="M72,72,44.6,127.4a8.2,8.2,0,0,0,.7,8.3L128,248l82.7-112.3a8.2,8.2,0,0,0,.7-8.3L184,72Z" fill="none" stroke="#000" stroke-linecap="round" stroke-linejoin="round" stroke-width="16"/></svg>