<svg xmlns="http://www.w3.org/2000/svg" viewBox="0 0 256 256"><rect width="256" height="256" fill="none"/><path d="M154.3,29.7,92,92S64.3,78.1,34.6,102.1A8,8,0,0,0,34,114L141.8,221.8a8,8,0,0,0,12.1-.8c8.4-11.1,21.6-34.1,10.1-57l62.3-62.3a8,8,0,0,0,0-11.4L165.7,29.7A8,8,0,0,0,154.3,29.7Z" opacity="0.2"/><line x1="88" y1="168" x2="48" y2="208" fill="none" stroke="#000" stroke-linecap="round" stroke-linejoin="round" stroke-width="16"/><path d="M154.3,29.7,92,92S64.3,78.1,34.6,102.1A8,8,0,0,0,34,114L141.8,221.8a8,8,0,0,0,12.1-.8c8.4-11.1,21.6-34.1,10.1-57l62.3-62.3a8,8,0,0,0,0-11.4L165.7,29.7A8,8,0,0,0,154.3,29.7Z" fill="none" stroke="#000" stroke-linecap="round" stroke-linejoin="round" stroke-width="16"/></svg>