<svg xmlns="http://www.w3.org/2000/svg" viewBox="0 0 256 256"><rect width="256" height="256" fill="none"/><path d="M108,144H40a8,8,0,0,1-8-8V72a8,8,0,0,1,8-8h60a8,8,0,0,1,8,8Z" opacity="0.2"/><path d="M224,144H156a8,8,0,0,1-8-8V72a8,8,0,0,1,8-8h60a8,8,0,0,1,8,8Z" opacity="0.2"/><path d="M108,144H40a8,8,0,0,1-8-8V72a8,8,0,0,1,8-8h60a8,8,0,0,1,8,8v88a40,40,0,0,1-40,40" fill="none" stroke="#000" stroke-linecap="round" stroke-linejoin="round" stroke-width="16"/><path d="M224,144H156a8,8,0,0,1-8-8V72a8,8,0,0,1,8-8h60a8,8,0,0,1,8,8v88a40,40,0,0,1-40,40" fill="none" stroke="#000" stroke-linecap="round" stroke-linejoin="round" stroke-width="16"/></svg>