<svg xmlns="http://www.w3.org/2000/svg" viewBox="0 0 256 256"><rect width="256" height="256" fill="none"/><path d="M216,80H32V200a8,8,0,0,0,8,8H216a8,8,0,0,0,8-8V88A8,8,0,0,0,216,80Zm-56,96a32,32,0,1,1,32-32A32,32,0,0,1,160,176Z" opacity="0.2"/><path d="M32,80H216a8,8,0,0,1,8,8V200a8,8,0,0,1-8,8H40a8,8,0,0,1-8-8V80A0,0,0,0,1,32,80Z" fill="none" stroke="#000" stroke-linecap="round" stroke-linejoin="round" stroke-width="16"/><line x1="32" y1="80" x2="192" y2="32" fill="none" stroke="#000" stroke-linecap="round" stroke-linejoin="round" stroke-width="16"/><circle cx="160" cy="144" r="32" fill="none" stroke="#000" stroke-linecap="round" stroke-linejoin="round" stroke-width="16"/><line x1="64" y1="112" x2="96" y2="112" fill="none" stroke="#000" stroke-linecap="round" stroke-linejoin="round" stroke-width="16"/><line x1="64" y1="144" x2="96" y2="144" fill="none" stroke="#000" stroke-linecap="round" stroke-linejoin="round" stroke-width="16"/><line x1="64" y1="176" x2="96" y2="176" fill="none" stroke="#000" stroke-linecap="round" stroke-linejoin="round" stroke-width="16"/></svg>