<svg xmlns="http://www.w3.org/2000/svg" viewBox="0 0 256 256"><rect width="256" height="256" fill="none"/><path d="M32,208V56a8,8,0,0,1,8-8H216a8,8,0,0,1,8,8V208l-32-16-32,16-32-16L96,208,64,192Z" opacity="0.2"/><line x1="76" y1="104" x2="180" y2="104" fill="none" stroke="#000" stroke-linecap="round" stroke-linejoin="round" stroke-width="16"/><line x1="76" y1="136" x2="180" y2="136" fill="none" stroke="#000" stroke-linecap="round" stroke-linejoin="round" stroke-width="16"/><path d="M32,208V56a8,8,0,0,1,8-8H216a8,8,0,0,1,8,8V208l-32-16-32,16-32-16L96,208,64,192Z" fill="none" stroke="#000" stroke-linecap="round" stroke-linejoin="round" stroke-width="16"/></svg>