<svg xmlns="http://www.w3.org/2000/svg" viewBox="0 0 256 256"><rect width="256" height="256" fill="none"/><path d="M200,56H56A23.9,23.9,0,0,0,32,80V192a23.9,23.9,0,0,0,24,24H200a23.9,23.9,0,0,0,24-24V80A23.9,23.9,0,0,0,200,56ZM164,184H92a20,20,0,0,1,0-40h72a20,20,0,0,1,0,40Z" opacity="0.2"/><rect x="32" y="56" width="192" height="160" rx="24" fill="none" stroke="#000" stroke-linecap="round" stroke-linejoin="round" stroke-width="16"/><rect x="72" y="144" width="112" height="40" rx="20" fill="none" stroke="#000" stroke-linecap="round" stroke-linejoin="round" stroke-width="16"/><line x1="148" y1="144" x2="148" y2="184" fill="none" stroke="#000" stroke-linecap="round" stroke-linejoin="round" stroke-width="16"/><line x1="108" y1="144" x2="108" y2="184" fill="none" stroke="#000" stroke-linecap="round" stroke-linejoin="round" stroke-width="16"/><line x1="128" y1="56" x2="128" y2="16" fill="none" stroke="#000" stroke-linecap="round" stroke-linejoin="round" stroke-width="16"/><circle cx="84" cy="108" r="12"/><circle cx="172" cy="108" r="12"/></svg>