<svg xmlns="http://www.w3.org/2000/svg" viewBox="0 0 256 256"><rect width="256" height="256" fill="none"/><path d="M24,168c0,17.7,20,24,32,24s32-6.3,32-24L56,88Z" opacity="0.2"/><path d="M168,136c0,17.7,20,24,32,24s32-6.3,32-24L200,56Z" opacity="0.2"/><line x1="128" y1="40" x2="128" y2="216" fill="none" stroke="#000" stroke-linecap="round" stroke-linejoin="round" stroke-width="16"/><line x1="104" y1="216" x2="152" y2="216" fill="none" stroke="#000" stroke-linecap="round" stroke-linejoin="round" stroke-width="16"/><line x1="56" y1="88" x2="200" y2="56" fill="none" stroke="#000" stroke-linecap="round" stroke-linejoin="round" stroke-width="16"/><path d="M24,168c0,17.7,20,24,32,24s32-6.3,32-24L56,88Z" fill="none" stroke="#000" stroke-linecap="round" stroke-linejoin="round" stroke-width="16"/><path d="M168,136c0,17.7,20,24,32,24s32-6.3,32-24L200,56Z" fill="none" stroke="#000" stroke-linecap="round" stroke-linejoin="round" stroke-width="16"/></svg>