<svg xmlns="http://www.w3.org/2000/svg" viewBox="0 0 256 256"><rect width="256" height="256" fill="none"/><path d="M42.3,42.3,213.7,213.7h0A8.4,8.4,0,0,0,216,208V48a8,8,0,0,0-8-8H48a8.4,8.4,0,0,0-5.7,2.3Z" opacity="0.2"/><line x1="112" y1="216" x2="144" y2="216" fill="none" stroke="#000" stroke-linecap="round" stroke-linejoin="round" stroke-width="16"/><line x1="40" y1="112" x2="40" y2="144" fill="none" stroke="#000" stroke-linecap="round" stroke-linejoin="round" stroke-width="16"/><path d="M72,216H48a8,8,0,0,1-8-8V184" fill="none" stroke="#000" stroke-linecap="round" stroke-linejoin="round" stroke-width="16"/><path d="M184,216h24a8,8,0,0,0,8-8V48a8,8,0,0,0-8-8H48a8,8,0,0,0-8,8V72" fill="none" stroke="#000" stroke-linecap="round" stroke-linejoin="round" stroke-width="16"/><line x1="42.3" y1="42.3" x2="213.7" y2="213.7" fill="none" stroke="#000" stroke-linecap="round" stroke-linejoin="round" stroke-width="16"/></svg>