<svg xmlns="http://www.w3.org/2000/svg" viewBox="0 0 256 256"><rect width="256" height="256" fill="none"/><path d="M184,72,55.3,93.4A8,8,0,0,0,51,107l98,98a8,8,0,0,0,13.6-4.3Z" opacity="0.2"/><circle cx="60" cy="228" r="12"/><circle cx="88" cy="200" r="12"/><circle cx="28" cy="196" r="12"/><circle cx="56" cy="168" r="12"/><path d="M248,40H219.3a7.9,7.9,0,0,0-5.6,2.3L184,72,55.3,93.4A8,8,0,0,0,51,107l98,98a8,8,0,0,0,13.6-4.3L184,72" fill="none" stroke="#000" stroke-linecap="round" stroke-linejoin="round" stroke-width="16"/></svg>