<svg xmlns="http://www.w3.org/2000/svg" viewBox="0 0 256 256"><rect width="256" height="256" fill="none"/><path d="M128,24A92,92,0,0,0,80,194.5V216a8,8,0,0,0,8,8h80a8,8,0,0,0,8-8V194.5A92,92,0,0,0,128,24ZM92,152a20,20,0,1,1,20-20A20.1,20.1,0,0,1,92,152Zm72,0a20,20,0,1,1,20-20A20.1,20.1,0,0,1,164,152Z" opacity="0.2"/><circle cx="92" cy="132" r="20" fill="none" stroke="#000" stroke-linecap="round" stroke-linejoin="round" stroke-width="16"/><circle cx="164" cy="132" r="20" fill="none" stroke="#000" stroke-linecap="round" stroke-linejoin="round" stroke-width="16"/><path d="M80,194.5a92,92,0,1,1,96,0V216a8,8,0,0,1-8,8H88a8,8,0,0,1-8-8Z" fill="none" stroke="#000" stroke-linecap="round" stroke-linejoin="round" stroke-width="16"/><line x1="112" y1="224" x2="112" y2="192" fill="none" stroke="#000" stroke-linecap="round" stroke-linejoin="round" stroke-width="16"/><line x1="144" y1="224" x2="144" y2="192" fill="none" stroke="#000" stroke-linecap="round" stroke-linejoin="round" stroke-width="16"/></svg>