<svg xmlns="http://www.w3.org/2000/svg" viewBox="0 0 256 256"><rect width="256" height="256" fill="none"/><path d="M156.2,219.8A97.2,97.2,0,0,1,128,224a96,96,0,1,1,96-96,97.2,97.2,0,0,1-4.2,28.2Z" opacity="0.2"/><path d="M156.2,219.8A97.2,97.2,0,0,1,128,224a96,96,0,1,1,96-96,97.2,97.2,0,0,1-4.2,28.2Z" fill="none" stroke="#000" stroke-linecap="round" stroke-linejoin="round" stroke-width="16"/><circle cx="92" cy="108" r="12"/><circle cx="164" cy="108" r="12"/><path d="M169.6,152a48.1,48.1,0,0,1-83.2,0" fill="none" stroke="#000" stroke-linecap="round" stroke-linejoin="round" stroke-width="16"/></svg>