<svg xmlns="http://www.w3.org/2000/svg" viewBox="0 0 256 256"><rect width="256" height="256" fill="none"/><path d="M80,168H32a8,8,0,0,1-8-8V96a8,8,0,0,1,8-8H80l72-56V224Z" opacity="0.2"/><line x1="192" y1="104" x2="192" y2="152" fill="none" stroke="#000" stroke-linecap="round" stroke-linejoin="round" stroke-width="16"/><line x1="224" y1="88" x2="224" y2="168" fill="none" stroke="#000" stroke-linecap="round" stroke-linejoin="round" stroke-width="16"/><line x1="48" y1="40" x2="208" y2="216" fill="none" stroke="#000" stroke-linecap="round" stroke-linejoin="round" stroke-width="16"/><polyline points="112.2 63 152 32 152 106.8" fill="none" stroke="#000" stroke-linecap="round" stroke-linejoin="round" stroke-width="16"/><path d="M152,154.4V224L80,168H32a8,8,0,0,1-8-8V96a8,8,0,0,1,8-8H91.6" fill="none" stroke="#000" stroke-linecap="round" stroke-linejoin="round" stroke-width="16"/></svg>