<svg xmlns="http://www.w3.org/2000/svg" viewBox="0 0 256 256"><rect width="256" height="256" fill="none"/><path d="M88,72V216H40a8,8,0,0,1-8-8V80a8,8,0,0,1,8-8Z" opacity="0.2"/><path d="M168,72V216h48a8,8,0,0,0,8-8V80a8,8,0,0,0-8-8Z" opacity="0.2"/><rect x="32" y="72" width="192" height="144" rx="8" fill="none" stroke="#000" stroke-linecap="round" stroke-linejoin="round" stroke-width="16"/><path d="M168,216V56a16,16,0,0,0-16-16H104A16,16,0,0,0,88,56V216" fill="none" stroke="#000" stroke-linecap="round" stroke-linejoin="round" stroke-width="16"/></svg>