<svg xmlns="http://www.w3.org/2000/svg" viewBox="0 0 256 256"><rect width="256" height="256" fill="none"/><path d="M104,140v24a36,36,0,0,1-72,0V140Z" opacity="0.2"/><path d="M224,140v24a36,36,0,0,1-72,0V140Z" opacity="0.2"/><path d="M104,140v24a36,36,0,0,1-72,0V140" fill="none" stroke="#000" stroke-linecap="round" stroke-linejoin="round" stroke-width="16"/><path d="M224,140v24a36,36,0,0,1-72,0V140" fill="none" stroke="#000" stroke-linecap="round" stroke-linejoin="round" stroke-width="16"/><path d="M200,48a23.9,23.9,0,0,1,24,24v68H32V72A23.9,23.9,0,0,1,56,48" fill="none" stroke="#000" stroke-linecap="round" stroke-linejoin="round" stroke-width="16"/><line x1="168" y1="140" x2="215.4" y2="187.4" fill="none" stroke="#000" stroke-linecap="round" stroke-linejoin="round" stroke-width="16"/><line x1="48" y1="140" x2="95.4" y2="187.4" fill="none" stroke="#000" stroke-linecap="round" stroke-linejoin="round" stroke-width="16"/></svg>