<svg xmlns="http://www.w3.org/2000/svg" viewBox="0 0 256 256"><rect width="256" height="256" fill="none"/><path d="M208,40H96a8,8,0,0,0-8,8V96H48a8,8,0,0,0-8,8V208a8,8,0,0,0,8,8H160a8,8,0,0,0,8-8V160h40a8,8,0,0,0,8-8V48A8,8,0,0,0,208,40Z" opacity="0.2"/><path d="M80,160H208a8,8,0,0,0,8-8V48a8,8,0,0,0-8-8H96a8,8,0,0,0-8,8v8" fill="none" stroke="#000" stroke-linecap="round" stroke-linejoin="round" stroke-width="16"/><polyline points="104 136 80 160 104 184" fill="none" stroke="#000" stroke-linecap="round" stroke-linejoin="round" stroke-width="16"/><path d="M176,96H48a8,8,0,0,0-8,8V208a8,8,0,0,0,8,8H160a8,8,0,0,0,8-8v-8" fill="none" stroke="#000" stroke-linecap="round" stroke-linejoin="round" stroke-width="16"/><polyline points="152 120 176 96 152 72" fill="none" stroke="#000" stroke-linecap="round" stroke-linejoin="round" stroke-width="16"/></svg>