<svg xmlns="http://www.w3.org/2000/svg" viewBox="0 0 256 256"><rect width="256" height="256" fill="none"/><path d="M36.7,173,60.9,35.9a7.9,7.9,0,0,1,9.2-6.5l55.2,9.7a8.1,8.1,0,0,1,6.5,9.3L107.5,186.3a36.1,36.1,0,0,1-41.1,29.3C46.5,212.4,33.2,192.9,36.7,173Z" opacity="0.2"/><path d="M36.7,173,60.9,35.9a7.9,7.9,0,0,1,9.2-6.5l55.2,9.7a8.1,8.1,0,0,1,6.5,9.3L107.5,186.3a36.1,36.1,0,0,1-41.1,29.3C46.5,212.4,33.2,192.9,36.7,173Z" fill="none" stroke="#000" stroke-linecap="round" stroke-linejoin="round" stroke-width="16"/><path d="M118.3,124.8l72.9-26.5a8,8,0,0,1,10.3,4.8l19.2,52.6a8,8,0,0,1-4.8,10.2L84.3,213.8" fill="none" stroke="#000" stroke-linecap="round" stroke-linejoin="round" stroke-width="16"/><path d="M220,162.5V208a8,8,0,0,1-8,8H72" fill="none" stroke="#000" stroke-linecap="round" stroke-linejoin="round" stroke-width="16"/><circle cx="72" cy="180" r="12"/></svg>