<svg xmlns="http://www.w3.org/2000/svg" viewBox="0 0 256 256"><rect width="256" height="256" fill="none"/><path d="M88,134.9,224.1,36.6h0a7.8,7.8,0,0,0-6.2-.2L33.3,108.9c-7.4,2.9-6.4,13.7,1.4,15.3Z" opacity="0.2"/><path d="M132.9,174.4l-31.2,31.2A8,8,0,0,1,88,200V134.9Z" opacity="0.2"/><path d="M88,134.9,177.9,214a8,8,0,0,0,13.1-4.2L228.6,45.6a8,8,0,0,0-10.7-9.2L33.3,108.9c-7.4,2.9-6.4,13.7,1.4,15.3Z" fill="none" stroke="#000" stroke-linecap="round" stroke-linejoin="round" stroke-width="16"/><line x1="88" y1="134.9" x2="224.1" y2="36.6" fill="none" stroke="#000" stroke-linecap="round" stroke-linejoin="round" stroke-width="16"/><path d="M132.9,174.4l-31.2,31.2A8,8,0,0,1,88,200V134.9" fill="none" stroke="#000" stroke-linecap="round" stroke-linejoin="round" stroke-width="16"/></svg>