<svg xmlns="http://www.w3.org/2000/svg" viewBox="0 0 256 256"><rect width="256" height="256" fill="none"/><circle cx="212" cy="80" r="20" fill="none" stroke="#000" stroke-linecap="round" stroke-linejoin="round" stroke-width="16"/><path d="M88,147V48a32,32,0,0,1,64,0v99h0a52,52,0,1,1-64,0Z" fill="none" stroke="#000" stroke-linecap="round" stroke-linejoin="round" stroke-width="16"/><circle cx="120" cy="188" r="20" fill="none" stroke="#000" stroke-linecap="round" stroke-linejoin="round" stroke-width="16"/><path d="M152,147h0V48a32,32,0,0,0-64,0v99h0a52,52,0,1,0,64,0Zm-32,61a20,20,0,1,1,20-20A20.1,20.1,0,0,1,120,208Z" opacity="0.2"/><line x1="120" y1="168" x2="120" y2="88" fill="none" stroke="#000" stroke-linecap="round" stroke-linejoin="round" stroke-width="16"/></svg>