<svg xmlns="http://www.w3.org/2000/svg" viewBox="0 0 256 256"><rect width="256" height="256" fill="none"/><path d="M208.8,216H47.2a8.1,8.1,0,0,1-8-7.1L25,80.9A8,8,0,0,1,32.9,72H223.1a8,8,0,0,1,7.9,8.9l-14.2,128A8.1,8.1,0,0,1,208.8,216Z" opacity="0.2"/><path d="M208.8,216H47.2a8.1,8.1,0,0,1-8-7.1L25,80.9A8,8,0,0,1,32.9,72H223.1a8,8,0,0,1,7.9,8.9l-14.2,128A8.1,8.1,0,0,1,208.8,216Z" fill="none" stroke="#000" stroke-linecap="round" stroke-linejoin="round" stroke-width="16"/><path d="M88,104V72a40,40,0,0,1,80,0v32" fill="none" stroke="#000" stroke-linecap="round" stroke-linejoin="round" stroke-width="16"/></svg>