<svg xmlns="http://www.w3.org/2000/svg" viewBox="0 0 256 256"><rect width="256" height="256" fill="none"/><path d="M184,32H72a8,8,0,0,0-8,8V216a8,8,0,0,0,8,8H184a8,8,0,0,0,8-8V40A8,8,0,0,0,184,32ZM128,192a24,24,0,1,1,24-24A23.9,23.9,0,0,1,128,192Zm0-80a24,24,0,1,1,24-24A23.9,23.9,0,0,1,128,112Z" opacity="0.2"/><rect x="64" y="32" width="128" height="192" rx="8" fill="none" stroke="#000" stroke-linecap="round" stroke-linejoin="round" stroke-width="16"/><circle cx="128" cy="88" r="24" fill="none" stroke="#000" stroke-linecap="round" stroke-linejoin="round" stroke-width="16"/><circle cx="128" cy="168" r="24" fill="none" stroke="#000" stroke-linecap="round" stroke-linejoin="round" stroke-width="16"/><line x1="192" y1="72" x2="216" y2="72" fill="none" stroke="#000" stroke-linecap="round" stroke-linejoin="round" stroke-width="16"/><line x1="192" y1="152" x2="216" y2="152" fill="none" stroke="#000" stroke-linecap="round" stroke-linejoin="round" stroke-width="16"/><line x1="40" y1="72" x2="64" y2="72" fill="none" stroke="#000" stroke-linecap="round" stroke-linejoin="round" stroke-width="16"/><line x1="40" y1="152" x2="64" y2="152" fill="none" stroke="#000" stroke-linecap="round" stroke-linejoin="round" stroke-width="16"/></svg>