<svg xmlns="http://www.w3.org/2000/svg" viewBox="0 0 256 256"><rect width="256" height="256" fill="none"/><path d="M76.7,160a7.9,7.9,0,0,1,5.6,2.3l19.4,19.4a7.9,7.9,0,0,0,5.6,2.3h41.4a7.9,7.9,0,0,0,5.6-2.3l19.4-19.4a7.9,7.9,0,0,1,5.6-2.3H216V48a8,8,0,0,0-8-8H48a8,8,0,0,0-8,8V160Z" opacity="0.2"/><rect x="40" y="40" width="176" height="176" rx="8" fill="none" stroke="#000" stroke-linecap="round" stroke-linejoin="round" stroke-width="16"/><path d="M40,160H76.7a7.9,7.9,0,0,1,5.6,2.3l19.4,19.4a7.9,7.9,0,0,0,5.6,2.3h41.4a7.9,7.9,0,0,0,5.6-2.3l19.4-19.4a7.9,7.9,0,0,1,5.6-2.3H216" fill="none" stroke="#000" stroke-linecap="round" stroke-linejoin="round" stroke-width="16"/></svg>