<svg xmlns="http://www.w3.org/2000/svg" viewBox="0 0 256 256"><rect width="256" height="256" fill="none"/><path d="M128,32a103.9,103.9,0,0,1,103.6,95.3,7.9,7.9,0,0,1-7.9,8.7H168c0-72-40-104-40-104" opacity="0.2"/><path d="M128,32A103.9,103.9,0,0,0,24.4,127.3a7.9,7.9,0,0,0,7.9,8.7H88c0-72,40-104,40-104" opacity="0.2"/><path d="M176,200a24,24,0,0,1-48,0V136" fill="none" stroke="#000" stroke-linecap="round" stroke-linejoin="round" stroke-width="16"/><path d="M32.3,136a7.9,7.9,0,0,1-7.9-8.7,104,104,0,0,1,207.2,0,7.9,7.9,0,0,1-7.9,8.7Z" fill="none" stroke="#000" stroke-linecap="round" stroke-linejoin="round" stroke-width="16"/><path d="M88,136c0-72,40-104,40-104s40,32,40,104" fill="none" stroke="#000" stroke-linecap="round" stroke-linejoin="round" stroke-width="16"/></svg>