<svg xmlns="http://www.w3.org/2000/svg" viewBox="0 0 256 256"><rect width="256" height="256" fill="none"/><path d="M205.3,71.1a15.5,15.5,0,0,1-5.3.9,16,16,0,0,1-16-16,15.5,15.5,0,0,1,.9-5.3A96,96,0,0,0,63.8,199.4h0A72,72,0,0,1,128,160a40,40,0,1,1,40-40,40,40,0,0,1-40,40,72,72,0,0,1,64.2,39.4A96,96,0,0,0,205.3,71.1Z" opacity="0.2"/><circle cx="128" cy="120" r="40" fill="none" stroke="#000" stroke-miterlimit="10" stroke-width="16"/><path d="M63.8,199.4a72,72,0,0,1,128.4,0" fill="none" stroke="#000" stroke-linecap="round" stroke-linejoin="round" stroke-width="16"/><circle cx="200" cy="56" r="16" fill="none" stroke="#000" stroke-linecap="round" stroke-linejoin="round" stroke-width="16"/><line x1="200" y1="40" x2="200" y2="28" fill="none" stroke="#000" stroke-linecap="round" stroke-linejoin="round" stroke-width="16"/><line x1="186.1" y1="48" x2="175.8" y2="42" fill="none" stroke="#000" stroke-linecap="round" stroke-linejoin="round" stroke-width="16"/><line x1="186.1" y1="64" x2="175.8" y2="70" fill="none" stroke="#000" stroke-linecap="round" stroke-linejoin="round" stroke-width="16"/><line x1="200" y1="72" x2="200" y2="84" fill="none" stroke="#000" stroke-linecap="round" stroke-linejoin="round" stroke-width="16"/><line x1="213.9" y1="64" x2="224.2" y2="70" fill="none" stroke="#000" stroke-linecap="round" stroke-linejoin="round" stroke-width="16"/><line x1="213.9" y1="48" x2="224.2" y2="42" fill="none" stroke="#000" stroke-linecap="round" stroke-linejoin="round" stroke-width="16"/><path d="M223.3,116.5A87.7,87.7,0,0,1,224,128a96,96,0,1,1-96-96,87,87,0,0,1,8.9.4" fill="none" stroke="#000" stroke-linecap="round" stroke-linejoin="round" stroke-width="16"/></svg>