<svg xmlns="http://www.w3.org/2000/svg" viewBox="0 0 256 256"><rect width="256" height="256" fill="none"/><path d="M216,48H40a8,8,0,0,0-8,8V200a8,8,0,0,0,8,8H60.1A72,72,0,0,1,128,160a40,40,0,1,1,40-40,40,40,0,0,1-40,40,72,72,0,0,1,67.9,48H216a8,8,0,0,0,8-8V56A8,8,0,0,0,216,48Z" opacity="0.2"/><circle cx="128" cy="120" r="40" fill="none" stroke="#000" stroke-linecap="round" stroke-linejoin="round" stroke-width="16"/><rect x="32" y="48" width="192" height="160" rx="8" fill="none" stroke="#000" stroke-linecap="round" stroke-linejoin="round" stroke-width="16"/><path d="M60.1,208a72,72,0,0,1,135.8,0" fill="none" stroke="#000" stroke-linecap="round" stroke-linejoin="round" stroke-width="16"/></svg>