<svg xmlns="http://www.w3.org/2000/svg" viewBox="0 0 256 256"><rect width="256" height="256" fill="none"/><path d="M208,40H48a8,8,0,0,0-8,8V208a8,8,0,0,0,8,8H208a8,8,0,0,0,8-8V48A8,8,0,0,0,208,40ZM57.8,216A72,72,0,0,1,128,160a40,40,0,1,1,40-40,40,40,0,0,1-40,40,72,72,0,0,1,70.2,56Z" opacity="0.2"/><circle cx="128" cy="120" r="40" fill="none" stroke="#000" stroke-linecap="round" stroke-linejoin="round" stroke-width="16"/><rect x="40" y="40" width="176" height="176" rx="8" fill="none" stroke="#000" stroke-linecap="round" stroke-linejoin="round" stroke-width="16"/><path d="M57.8,216a72,72,0,0,1,140.4,0" fill="none" stroke="#000" stroke-linecap="round" stroke-linejoin="round" stroke-width="16"/></svg>