<svg xmlns="http://www.w3.org/2000/svg" viewBox="0 0 256 256"><rect width="256" height="256" fill="none"/><path d="M216,48H40a8,8,0,0,0-8,8V192a8,8,0,0,0,8,8H216a8,8,0,0,0,8-8V56A8,8,0,0,0,216,48ZM152,168a40,40,0,1,1,40-40A40,40,0,0,1,152,168Z" opacity="0.2"/><line x1="192" y1="200" x2="192" y2="224" fill="none" stroke="#000" stroke-linecap="round" stroke-linejoin="round" stroke-width="16"/><line x1="64" y1="200" x2="64" y2="224" fill="none" stroke="#000" stroke-linecap="round" stroke-linejoin="round" stroke-width="16"/><rect x="32" y="48" width="192" height="152" rx="8" fill="none" stroke="#000" stroke-linecap="round" stroke-linejoin="round" stroke-width="16"/><circle cx="152" cy="128" r="16"/><line x1="152" y1="128" x2="224" y2="128" fill="none" stroke="#000" stroke-linecap="round" stroke-linejoin="round" stroke-width="16"/><circle cx="152" cy="128" r="40" fill="none" stroke="#000" stroke-linecap="round" stroke-linejoin="round" stroke-width="16"/></svg>