<svg xmlns="http://www.w3.org/2000/svg" viewBox="0 0 256 256"><rect width="256" height="256" fill="none"/><path d="M216,48H40a8,8,0,0,0-8,8V200a8,8,0,0,0,8,8H216a8,8,0,0,0,8-8V56A8,8,0,0,0,216,48ZM128,176c-35.3,0-64-21.5-64-48s28.7-48,64-48,64,21.5,64,48S163.3,176,128,176Z" opacity="0.2"/><rect x="32" y="48" width="192" height="160" rx="8" fill="none" stroke="#000" stroke-linecap="round" stroke-linejoin="round" stroke-width="16"/><ellipse cx="128" cy="128" rx="64" ry="48" fill="none" stroke="#000" stroke-linecap="round" stroke-linejoin="round" stroke-width="16"/></svg>