<svg xmlns="http://www.w3.org/2000/svg" viewBox="0 0 256 256"><rect width="256" height="256" fill="none"/><path d="M80,211.2a96.2,96.2,0,0,0,136.3-45.4h0A96,96,0,0,1,105.5,167L80,211.1Z" opacity="0.2"/><path d="M80,211.1a96.3,96.3,0,0,1-28.9-25.5h0A96,96,0,0,1,105.5,89L128,128Z" opacity="0.2"/><path d="M80,44.9a96,96,0,0,1,36.6-12.2h0A96.1,96.1,0,0,1,173.1,128H128Z" opacity="0.2"/><circle cx="128" cy="128" r="96" fill="none" stroke="#000" stroke-linecap="round" stroke-linejoin="round" stroke-width="16"/><line x1="80" y1="44.9" x2="128" y2="128" fill="none" stroke="#000" stroke-linecap="round" stroke-linejoin="round" stroke-width="16"/><line x1="80" y1="211.1" x2="128" y2="128" fill="none" stroke="#000" stroke-linecap="round" stroke-linejoin="round" stroke-width="16"/><line x1="224" y1="128" x2="128" y2="128" fill="none" stroke="#000" stroke-linecap="round" stroke-linejoin="round" stroke-width="16"/><path d="M116.6,32.7A96.1,96.1,0,0,1,173.1,128" fill="none" stroke="#000" stroke-linecap="round" stroke-linejoin="round" stroke-width="16"/><path d="M51.1,185.6A96,96,0,0,1,105.5,89" fill="none" stroke="#000" stroke-linecap="round" stroke-linejoin="round" stroke-width="16"/><path d="M216.3,165.8A96,96,0,0,1,105.5,167" fill="none" stroke="#000" stroke-linecap="round" stroke-linejoin="round" stroke-width="16"/></svg>