<svg xmlns="http://www.w3.org/2000/svg" viewBox="0 0 256 256"><rect width="256" height="256" fill="none"/><path d="M71.1,148.9a87.9,87.9,0,0,1,113.8,0l-50.9,60a7.9,7.9,0,0,1-12.1-.1Z" opacity="0.2"/><path d="M20.2,75.9C83.7,28,172.3,28,235.8,75.9A8,8,0,0,1,237,87.5L134,208.9a7.9,7.9,0,0,1-12.1-.1L19,87.6A8.1,8.1,0,0,1,20.2,75.9Z" fill="none" stroke="#000" stroke-linecap="round" stroke-linejoin="round" stroke-width="16"/><path d="M71.1,148.9a87.9,87.9,0,0,1,113.8,0" fill="none" stroke="#000" stroke-linecap="round" stroke-linejoin="round" stroke-width="16"/></svg>