<svg xmlns="http://www.w3.org/2000/svg" viewBox="0 0 256 256"><rect width="256" height="256" fill="none"/><path d="M20.2,75.9C83.7,28,172.3,28,235.8,75.9A8,8,0,0,1,237,87.5L134,208.9a7.9,7.9,0,0,1-12.1-.1L19,87.6A8.1,8.1,0,0,1,20.2,75.9Z" opacity="0.2"/><line x1="48" y1="40" x2="208" y2="216" fill="none" stroke="#000" stroke-linecap="round" stroke-linejoin="round" stroke-width="16"/><path d="M166.6,170.5,134,208.9a7.9,7.9,0,0,1-12.1-.1L19,87.6a8.1,8.1,0,0,1,1.2-11.7A177.8,177.8,0,0,1,60.1,53.3" fill="none" stroke="#000" stroke-linecap="round" stroke-linejoin="round" stroke-width="16"/><path d="M94.2,43.2A179.3,179.3,0,0,1,235.8,75.9,8,8,0,0,1,237,87.5l-49.5,58.4" fill="none" stroke="#000" stroke-linecap="round" stroke-linejoin="round" stroke-width="16"/></svg>