<svg xmlns="http://www.w3.org/2000/svg" viewBox="0 0 256 256"><rect width="256" height="256" fill="none"/><path d="M20.2,75.9C83.7,28,172.3,28,235.8,75.9A8,8,0,0,1,237,87.5L134,208.9a7.9,7.9,0,0,1-12.1-.1L19,87.6A8.1,8.1,0,0,1,20.2,75.9Z" opacity="0.2"/><line x1="224" y1="56" x2="176" y2="104" fill="none" stroke="#000" stroke-linecap="round" stroke-linejoin="round" stroke-width="16"/><line x1="224" y1="104" x2="176" y2="56" fill="none" stroke="#000" stroke-linecap="round" stroke-linejoin="round" stroke-width="16"/><path d="M202.7,127.9l-68.7,81a7.9,7.9,0,0,1-12.1-.1L19,87.6a8.1,8.1,0,0,1,1.2-11.7A178.9,178.9,0,0,1,147.7,41.1" fill="none" stroke="#000" stroke-linecap="round" stroke-linejoin="round" stroke-width="16"/></svg>