<svg xmlns="http://www.w3.org/2000/svg" viewBox="0 0 256 256"><rect width="256" height="256" fill="none"/><path d="M226.6,71.8A16.1,16.1,0,0,0,217,60.9c-33.5-12.8-89-12.5-89-12.5s-55.5-.3-89,12.5a16.1,16.1,0,0,0-9.6,10.9C27.1,80.8,24,98.2,24,128s3.1,47.2,5.4,56.2A16.1,16.1,0,0,0,39,195.1c33.5,12.8,89,12.5,89,12.5s55.5.3,89-12.5a16.1,16.1,0,0,0,9.6-10.9c2.3-9,5.4-26.4,5.4-56.2S228.9,80.8,226.6,71.8ZM112,160V96l48,32Z" opacity="0.2"/><polygon points="160 128 112 96 112 160 160 128" fill="none" stroke="#000" stroke-linecap="round" stroke-linejoin="round" stroke-width="16"/><path d="M24,128c0,29.8,3.1,47.2,5.4,56.2A16.1,16.1,0,0,0,39,195.1c33.5,12.8,89,12.5,89,12.5s55.5.3,89-12.5a16.1,16.1,0,0,0,9.6-10.9c2.3-9,5.4-26.4,5.4-56.2s-3.1-47.2-5.4-56.2A16.1,16.1,0,0,0,217,60.9c-33.5-12.8-89-12.5-89-12.5s-55.5-.3-89,12.5a16.1,16.1,0,0,0-9.6,10.9C27.1,80.8,24,98.2,24,128Z" fill="none" stroke="#000" stroke-linecap="round" stroke-linejoin="round" stroke-width="16"/></svg>