<?xml version="1.0" encoding="UTF-8"?>
<svg width="1132px" height="1131px" viewBox="0 0 1132 1131" version="1.1" xmlns="http://www.w3.org/2000/svg" xmlns:xlink="http://www.w3.org/1999/xlink">
    <title>ball-3</title>
    <defs>
        <filter x="-76.4%" y="-66.4%" width="252.7%" height="232.9%" filterUnits="objectBoundingBox" id="filter-1">
            <feGaussianBlur stdDeviation="20" in="SourceGraphic"></feGaussianBlur>
        </filter>
        <filter x="-8.7%" y="-30.5%" width="117.5%" height="160.9%" filterUnits="objectBoundingBox" id="filter-2">
            <feGaussianBlur stdDeviation="20" in="SourceGraphic"></feGaussianBlur>
        </filter>
        <filter x="-18.6%" y="-17.6%" width="137.3%" height="135.2%" filterUnits="objectBoundingBox" id="filter-3">
            <feGaussianBlur stdDeviation="45" in="SourceGraphic"></feGaussianBlur>
        </filter>
    </defs>
    <g id="ball-3" stroke="none" stroke-width="1" fill="none" fill-rule="evenodd">
        <g id="Group-Copy" transform="translate(271, 271)">
            <circle id="Oval" fill="#F5CA05" cx="295" cy="295" r="295"></circle>
            <g id="Group" transform="translate(305, 379) rotate(11) translate(-305, -379)translate(178.7921, 266.723)">
                <path d="M124.595571,184.889777 C167.258244,184.889777 202.178406,157.579147 202.591935,123.889777 C203.005465,90.2004077 168.085303,62.8897775 124.595571,62.8897775 C81.1058379,62.8897775 46.1856759,90.2004077 46.5992058,123.889777 C47.0127357,157.579147 81.9328977,184.889777 124.595571,184.889777 Z" id="Oval-2" fill="#000000" transform="translate(124.5956, 123.8898) rotate(7) translate(-124.5956, -123.8898)"></path>
                <path d="M110.590438,16.2007679 C174.09803,2.88905466 232.146779,36.2614582 240.245948,91.3312577 C248.345116,146.640572 204.406786,199.911288 142.10694,209.737694 C79.8070945,219.166235 21.7583453,184.284446 12.4514302,132.43537 C3.14451498,80.8603717 47.0828453,29.0990402 110.590438,16.2007679 Z M119.408879,61.7308159 C113.903058,62.7944761 111.928016,64.6006061 110.503557,66.2992038 C109.079097,67.9964646 109.912482,73.0603509 109.513425,74.0856888 C109.114367,75.1107995 99.1836424,80.2990841 95.5568543,82.3965663 C91.9300662,84.4898271 93.3695493,93.202819 97.5266733,94.3323227 C99.2668647,94.8059177 101.439893,94.2875423 103.648554,93.6480215 L104.385549,93.4314057 C107.211579,92.5922809 110.023729,91.7133266 111.993333,92.6200657 L127.065447,146.603472 C119.017378,149.182955 114.422445,151.068604 113.280647,152.26887 C111.567951,154.06782 110.98231,155.504642 112.290515,160.037698 C113.162651,163.061559 116.218611,164.459565 121.458394,164.2299 L163.171358,152.91539 C165.804747,150.536865 166.8689,147.781778 166.363818,144.653396 C165.858737,141.525877 163.69516,139.813368 159.873088,139.515615 L149.962609,141.235941 L129.127341,65.5743448 C127.268554,61.1613176 124.914701,60.6640532 119.408879,61.7308159 Z" id="Oval-2" fill="#FFFFFF" transform="translate(126.2079, 112.277) rotate(7) translate(-126.2079, -112.277)"></path>
            </g>
            <ellipse id="Oval" fill="#FFFFFF" opacity="0.453031994" filter="url(#filter-1)" transform="translate(200.0089, 137.737) rotate(46) translate(-200.0089, -137.737)" cx="200.008945" cy="137.73703" rx="35.3577818" ry="40.6350626"></ellipse>
            <path d="M521,138 C482.503431,98.2196247 448.723549,71.1799277 419.660355,56.880909 C376.065564,35.432381 347.543959,28.4841486 295.097041,26.8563104 C242.650124,25.2284722 225.598176,37.942459 183.728994,56.880909 C155.816206,69.5065424 119.573208,92.6834255 75,126.411558 C102.798028,89.5392443 133.411045,63.0262947 166.839053,46.8727095 C216.981065,22.6423316 259.733728,10 295.097041,10 C330.460355,10 373.740828,20.0085949 428.633136,46.8727095 C465.228008,64.7821192 496.016963,95.1578827 521,138 Z" id="Path-8" fill="#FFFFFF" opacity="0.773065476" filter="url(#filter-2)"></path>
            <path d="M361.057245,44 C431.694309,123.939704 467.935264,174.984191 469.780109,197.133462 C472.547375,230.357369 482.654123,254.819372 459.752272,321.224371 C436.85042,387.629371 415.418677,407.823985 383.224042,440.562863 C361.760952,462.388781 259.019605,478.230174 75,488.087041 C207.883501,556.029014 286.171,590 309.862498,590 C333.553996,590 368.739389,581.727273 415.418677,565.181818 C481.196175,535.021945 525.881624,499.994866 549.475024,460.10058 C584.865123,400.259152 591.955643,340.867492 589.586372,292.181818 C587.2171,243.496144 582.366118,196.314838 555.280613,172.31528 C537.223611,156.315576 472.482488,113.543815 361.057245,44 Z" id="Path-9" fill="#000000" opacity="0.0963076637" filter="url(#filter-3)"></path>
        </g>
    </g>
</svg>
