<?xml version="1.0" encoding="UTF-8"?>
<svg width="1132px" height="1131px" viewBox="0 0 1132 1131" version="1.1" xmlns="http://www.w3.org/2000/svg" xmlns:xlink="http://www.w3.org/1999/xlink">
    <title>ball-16</title>
    <defs>
        <filter x="-76.4%" y="-66.4%" width="252.7%" height="232.9%" filterUnits="objectBoundingBox" id="filter-1">
            <feGaussianBlur stdDeviation="20" in="SourceGraphic"></feGaussianBlur>
        </filter>
        <filter x="-8.7%" y="-30.5%" width="117.5%" height="160.9%" filterUnits="objectBoundingBox" id="filter-2">
            <feGaussianBlur stdDeviation="20" in="SourceGraphic"></feGaussianBlur>
        </filter>
        <filter x="-18.6%" y="-17.6%" width="137.3%" height="135.2%" filterUnits="objectBoundingBox" id="filter-3">
            <feGaussianBlur stdDeviation="45" in="SourceGraphic"></feGaussianBlur>
        </filter>
    </defs>
    <g id="ball-16" stroke="none" stroke-width="1" fill="none" fill-rule="evenodd">
        <g id="Group-Copy" transform="translate(271, 271)">
            <circle id="Oval" fill="#F5CA05" cx="295" cy="295" r="295"></circle>
            <g id="Group" transform="translate(202, 97)">
                <circle id="Oval-2" fill="#000000" cx="108.5" cy="113.5" r="94.5"></circle>
                <path d="M108.5,0 C165.970388,0 214.50914,50.5918233 216.914337,113 C219.319535,175.408177 170.780782,226 108.5,226 C46.2192177,226 -2.31953456,175.408177 0.0856625581,113 C2.49085967,50.5918233 51.0296119,0 108.5,0 Z M110.418677,53.4181818 C105.348042,53.4181818 103.316728,55.044697 101.790681,56.6712121 C100.262836,58.2977273 100.245026,64.2616162 99.7325279,65.3459596 C99.2196304,66.430303 89.5138858,70.2255051 85.9295316,71.8520202 C82.340984,73.4785354 82.2438258,83.779798 85.8147499,85.9484848 C87.3112154,86.8563073 89.3556058,86.7190783 91.450782,86.4514941 L92.1502932,86.3587261 C94.8333442,85.9942278 97.5090524,85.5828342 99.1505177,87.0328283 L104.710572,151.551263 C96.8448767,152.931491 92.2843159,154.196558 91.0338445,155.346465 C89.1562588,157.071324 88.3817808,158.599495 88.871056,164.021212 C89.1983489,167.63569 91.8262345,169.804377 96.7559108,170.527273 L137.411163,165.647727 C140.201719,163.47904 141.574504,160.587458 141.532714,156.97298 C141.490924,153.358502 139.713642,151.009091 136.202867,149.924747 L126.755827,149.924747 L118.555395,59.9242424 C117.521116,54.5025253 115.489311,53.4181818 110.418677,53.4181818 Z" id="Oval-2" fill="#FFFFFF"></path>
            </g>
            <ellipse id="Oval" fill="#FFFFFF" opacity="0.453031994" filter="url(#filter-1)" transform="translate(200.0089, 137.737) rotate(46) translate(-200.0089, -137.737)" cx="200.008945" cy="137.73703" rx="35.3577818" ry="40.6350626"></ellipse>
            <path d="M521,138 C482.503431,98.2196247 448.723549,71.1799277 419.660355,56.880909 C376.065564,35.432381 347.543959,28.4841486 295.097041,26.8563104 C242.650124,25.2284722 225.598176,37.942459 183.728994,56.880909 C155.816206,69.5065424 119.573208,92.6834255 75,126.411558 C102.798028,89.5392443 133.411045,63.0262947 166.839053,46.8727095 C216.981065,22.6423316 259.733728,10 295.097041,10 C330.460355,10 373.740828,20.0085949 428.633136,46.8727095 C465.228008,64.7821192 496.016963,95.1578827 521,138 Z" id="Path-8" fill="#FFFFFF" opacity="0.773065476" filter="url(#filter-2)"></path>
            <path d="M361.057245,44 C431.694309,123.939704 467.935264,174.984191 469.780109,197.133462 C472.547375,230.357369 482.654123,254.819372 459.752272,321.224371 C436.85042,387.629371 415.418677,407.823985 383.224042,440.562863 C361.760952,462.388781 259.019605,478.230174 75,488.087041 C207.883501,556.029014 286.171,590 309.862498,590 C333.553996,590 368.739389,581.727273 415.418677,565.181818 C481.196175,535.021945 525.881624,499.994866 549.475024,460.10058 C584.865123,400.259152 591.955643,340.867492 589.586372,292.181818 C587.2171,243.496144 582.366118,196.314838 555.280613,172.31528 C537.223611,156.315576 472.482488,113.543815 361.057245,44 Z" id="Path-9" fill="#000000" opacity="0.0963076637" filter="url(#filter-3)"></path>
        </g>
    </g>
</svg>
