<?xml version="1.0" encoding="UTF-8"?>
<svg width="180px" height="180px" viewBox="0 0 180 180" version="1.1" xmlns="http://www.w3.org/2000/svg" xmlns:xlink="http://www.w3.org/1999/xlink">
    <title>Artboard</title>
    <g id="Artboard" stroke="none" stroke-width="1" fill="none" fill-rule="evenodd">
        <g id="Group-6" transform="translate(1, 1)">
            <ellipse id="Oval-Copy-2" fill="#FFFFFF" cx="89.5" cy="89" rx="89.5" ry="89"></ellipse>
            <path d="M79.4097996,134 L111.650334,130.166667 C113.883445,128.462963 115,126.191358 115,123.351852 C115,120.512346 113.604306,118.666667 110.812918,117.814815 L103.276169,117.814815 L96.9955457,47.1111111 C96.1581292,42.8518519 94.4832962,42 90.2962138,42 C86.1091314,42 84.4342984,43.2777778 83.1781737,44.5555556 C81.922049,45.8333333 81.922049,50.5185185 81.5033408,51.3703704 C81.0846325,52.2222222 73.1291759,55.2037037 70.1982183,56.4814815 C67.2672606,57.7592593 67.2672606,65.8518519 70.1982183,67.5555556 C73.1291759,69.2592593 78.5723831,66.2777778 81.0846325,68.4074074 L85.6904232,119.092593 C79.4233303,120.176889 75.7945255,121.170717 74.8040089,122.074074 C73.318234,123.42911 72.7104677,124.62963 73.1291759,128.888889 C73.4083148,131.728395 75.501856,133.432099 79.4097996,134 Z" id="Path-7-Copy" fill="#000000"></path>
        </g>
    </g>
</svg>