<?xml version="1.0" encoding="UTF-8"?>
<svg width="2999px" height="1451px" viewBox="0 0 2999 1451" version="1.1" xmlns="http://www.w3.org/2000/svg" xmlns:xlink="http://www.w3.org/1999/xlink">
    <title>three</title>
    <defs>
        <filter x="-73.8%" y="-64.3%" width="247.7%" height="228.5%" filterUnits="objectBoundingBox" id="filter-1">
            <feGaussianBlur stdDeviation="9.5" in="SourceGraphic"></feGaussianBlur>
        </filter>
        <filter x="-10.5%" y="-36.4%" width="121.0%" height="172.9%" filterUnits="objectBoundingBox" id="filter-2">
            <feGaussianBlur stdDeviation="8.5" in="SourceGraphic"></feGaussianBlur>
        </filter>
        <path d="M156.08172,0 C194.623497,43.6300946 214.397688,71.4895401 215.404292,83.5783366 C216.914199,101.711531 222.428755,115.062588 209.932793,151.305609 C197.436831,187.548631 185.743006,198.5706 168.176613,216.439072 C156.465685,228.351386 100.406814,236.997421 0,242.377176 C72.5053664,279.459059 115.221458,298 128.148275,298 C141.075093,298 160.273336,293.484848 185.743006,284.454545 C221.633253,267.993662 246.015022,248.876319 258.888314,227.102515 C278.198251,194.441808 282.06706,162.02658 280.774311,135.454545 C279.481563,108.882511 276.834717,83.1315415 262.056024,70.032882 C252.203562,61.3004424 216.878794,37.9561484 156.08172,0 Z" id="path-3"></path>
        <filter x="-26.7%" y="-25.2%" width="153.4%" height="150.3%" filterUnits="objectBoundingBox" id="filter-4">
            <feGaussianBlur stdDeviation="25" in="SourceGraphic"></feGaussianBlur>
        </filter>
    </defs>
    <g id="three" stroke="none" stroke-width="1" fill="none" fill-rule="evenodd">
        <g id="Group" transform="translate(686, 511)" fill="#000000">
            <path d="M1153.88676,0 C1289.53097,-0.00598487498 1339.37168,84.9945999 1356.97345,141.995028 C1374.57522,198.995456 1366.29204,281.995998 1238.93805,281.995998 L1052,282 C1073.33333,322 1103.33333,342 1142,342 C1180.66667,342 1224,330.333333 1272,307 L1334,410 C1269,446 1226.77907,462 1145.24503,462 C985.75637,462 921,352.035259 921,232.01763 C921,112 996.510066,0.00694375263 1153.88676,0 Z M1152.25624,112 C1087.51247,112 1059.72682,164.642495 1060.0034,176.93048 C1061.37521,176.971528 1065.79693,176.994398 1073.26855,176.999091 L1079.44411,176.999203 C1105.68409,176.986381 1157.86939,176.818925 1236,176.496832 C1236,150.497005 1217,112 1152.25624,112 Z" id="Oval-2"></path>
            <path d="M618,453.002692 L478,453.002692 L478,452.999429 L476,452.999429 L476,8.99942948 L584,8.99942948 C611.084277,8.99942948 612.779589,30.0927846 615.960519,66.0132312 L634,67.0026924 C670,23 714,9.00000001 765,8.99942934 C839,8.99942948 893,67 893,180.999429 L892.777605,453.810647 L750.792347,453.810647 L751,236.002692 C751,160.002692 719.91488,148.133654 688.870971,148.614649 C665.47564,148.977136 620.72958,149.001026 617.999275,232.238226 L618,453.002692 Z" id="Rectangle-Copy-4"></path>
            <path d="M225.5,3.99942952 C356.533784,3.99942952 451,108.755636 451,232.979649 C451,357.203662 356.533784,464.99943 225.5,464.99943 C94.4662162,464.99943 0,357.203662 0,232.979649 C0,108.755636 94.4662162,3.99942952 225.5,3.99942952 Z M225,127.49943 C172.532949,127.49943 130,174.509531 130,232.49943 C130,290.489328 172.532949,337.49943 225,337.49943 C277.467051,337.49943 320,290.489328 320,232.49943 C320,174.509531 277.467051,127.49943 225,127.49943 Z" id="Oval-3"></path>
        </g>
        <g id="Group-Copy" transform="translate(1991, 744)">
            <circle id="Oval" fill="#F5CA05" cx="161" cy="161" r="161"></circle>
            <circle id="Oval" fill="#FFFFFF" cx="170" cy="126" r="60"></circle>
            <path d="M163.768374,156 L185.719376,153.416667 C187.239792,152.268519 188,150.737654 188,148.824074 C188,146.910494 187.04974,145.666667 185.14922,145.092593 L180.017817,145.092593 L175.741648,97.4444444 C175.171492,94.5740741 174.03118,94 171.180401,94 C168.329621,94 167.18931,94.8611111 166.334076,95.7222222 C165.478842,96.5833333 165.478842,99.7407407 165.193764,100.314815 C164.908686,100.888889 159.492205,102.898148 157.496659,103.759259 C155.501114,104.62037 155.501114,110.074074 157.496659,111.222222 C159.492205,112.37037 163.198218,110.361111 164.908686,111.796296 L168.044543,145.953704 C163.777587,146.684425 161.306911,147.354179 160.632517,147.962963 C159.620925,148.87614 159.207127,149.685185 159.492205,152.555556 C159.682257,154.469136 161.107647,155.617284 163.768374,156 Z" id="Path-7" fill="#000000"></path>
            <ellipse id="Oval" fill="#FFFFFF" opacity="0.453031994" filter="url(#filter-1)" transform="translate(109.1574, 75.1717) rotate(46) translate(-109.1574, -75.1717)" cx="109.157424" cy="75.1717352" rx="19.2969589" ry="22.177102"></ellipse>
            <path d="M284,75 C263.025412,53.2451073 244.620678,38.457773 228.785799,30.6379971 C205.03348,18.9083333 189.493681,15.1085188 160.918343,14.2182947 C132.343005,13.3280707 123.05237,20.2810322 100.240237,30.6379971 C85.0321481,37.5426404 65.2854025,50.2174983 41,68.662571 C56.1455621,48.4980242 72.8248521,33.9987549 91.0378698,25.164763 C118.357396,11.9137751 141.650888,5 160.918343,5 C180.185799,5 203.766864,10.4734503 233.674556,25.164763 C253.613018,34.9589714 270.388166,51.5707171 284,75 Z" id="Path-8" fill="#FFFFFF" opacity="0.773065476" filter="url(#filter-2)"></path>
            <g id="Oval" transform="translate(41, 24)">
                <mask id="mask-5" fill="white">
                    <use xlink:href="#path-3"></use>
                </mask>
                <use id="Mask" fill="#000000" opacity="0.0963076637" filter="url(#filter-4)" xlink:href="#path-3"></use>
                <circle fill="#000000" mask="url(#mask-5)" cx="120" cy="137" r="161"></circle>
            </g>
        </g>
    </g>
</svg>