<?xml version="1.0" encoding="UTF-8"?>
<svg width="1539px" height="858px" viewBox="0 0 1539 858" version="1.1" xmlns="http://www.w3.org/2000/svg" xmlns:xlink="http://www.w3.org/1999/xlink">
    <!-- Generator: Sketch 61 (89581) - https://sketch.com -->
    <title>sharing-code</title>
    <desc>Created with Sketch.</desc>
    <g id="sharing-code" stroke="none" stroke-width="1" fill="none" fill-rule="evenodd">
        <rect fill="#000000" x="0" y="0" width="1539" height="858"></rect>
        <line x1="230" y1="173" x2="230.5" y2="730.5" id="Line-3" stroke="#5B0050" stroke-width="10" stroke-linecap="round"></line>
        <line x1="1407" y1="731" x2="230.5" y2="730.5" id="Line-3" stroke="#5B0050" stroke-width="10" stroke-linecap="round"></line>
        <path d="M233.070312,724.6875 C246.018229,724.6875 317.523252,712.985179 343.367188,709.460938 C360.596478,707.111443 381.140748,706.137485 405,706.539063 C471.472151,707.048381 532.386214,704.993694 587.742188,700.375 C670.776148,693.446959 632.915446,642.572419 688,625 C743.084554,607.427581 775.173705,619.105371 809.875,610.09375 C844.576295,601.082129 880.885507,602.480869 915.773438,596.203125 C950.661368,589.925381 952.165365,582.505726 979.4375,578.1875 C994.040468,575.875289 1008.55005,577.129712 1044,568 C1078.35806,559.151493 1070,507 1110,496 C1150,485 1211.85851,475.696264 1217.16406,473.65625 C1217.71826,473.443159 1336.05569,452.73052 1379,452" id="Path-2" stroke="#979797"></path>
        <g id="Group-2-Copy" transform="translate(594.000000, 616.000000) scale(-1, 1) rotate(-135.000000) translate(-594.000000, -616.000000) translate(571.000000, 576.000000)" stroke="#FFC800" stroke-linecap="round" stroke-linejoin="round" stroke-width="12">
            <path d="M0,0 C0.467147754,10.359331 5.13381442,23.0259977 14,38 C22.8661856,52.9740023 33.1995189,65.640669 45,76" id="Line"></path>
            <line x1="45.4522793" y1="54" x2="45.5477207" y2="78" id="Line"></line>
            <line x1="20" y1="80" x2="45" y2="78" id="Line"></line>
        </g>
        <g id="Group-2-Copy-2" transform="translate(1007.000000, 496.000000) scale(-1, 1) rotate(-120.000000) translate(-1007.000000, -496.000000) translate(984.000000, 456.000000)" stroke="#FFC800" stroke-linecap="round" stroke-linejoin="round" stroke-width="12">
            <path d="M0,0 C0.467147754,10.359331 5.13381442,23.0259977 14,38 C22.8661856,52.9740023 33.1995189,65.640669 45,76" id="Line"></path>
            <line x1="45.4522793" y1="54" x2="45.5477207" y2="78" id="Line"></line>
            <line x1="20" y1="80" x2="45" y2="78" id="Line"></line>
        </g>
        <g id="Group" transform="translate(75.000000, 52.000000)" fill-rule="nonzero">
            <polygon id="*" fill="#FFC800" points="562.732105 644.818378 562.118476 638.068456 567.717843 641.980343 570.78599 636.611086 564.649697 633.77305 570.78599 630.935015 567.717843 625.565758 562.118476 629.477645 562.732105 622.727722 556.595811 622.727722 557.209441 629.477645 551.610073 625.565758 548.541926 630.935015 554.67822 633.77305 548.541926 636.611086 551.610073 641.980343 557.209441 638.068456 556.595811 644.818378"></polygon>
            <polygon id="*" fill="#FFC800" points="984.732105 523.818378 984.118476 517.068456 989.717843 520.980343 992.78599 515.611086 986.649697 512.77305 992.78599 509.935015 989.717843 504.565758 984.118476 508.477645 984.732105 501.727722 978.595811 501.727722 979.209441 508.477645 973.610073 504.565758 970.541926 509.935015 976.67822 512.77305 970.541926 515.611086 973.610073 520.980343 979.209441 517.068456 978.595811 523.818378"></polygon>
            <path d="M689.813724,757 L689.813724,734.841163 L698.344876,734.841163 L698.344876,728.636688 L673.69317,728.636688 L673.69317,734.841163 L682.224322,734.841163 L682.224322,757 L689.813724,757 Z M707.926027,757 L707.926027,728.636688 L700.225831,728.636688 L700.225831,757 L707.926027,757 Z M718.11637,757 L718.11637,740.491666 L718.337959,740.491666 L724.653227,756.778412 L729.195789,756.778412 L735.511057,740.60246 L735.732646,740.60246 L735.732646,757 L743.26665,757 L743.26665,728.636688 L733.682953,728.636688 L727.090699,744.701845 L726.758317,744.701845 L720.166063,728.636688 L710.582365,728.636688 L710.582365,757 L718.11637,757 Z M766.309405,757 L766.309405,750.795526 L753.623471,750.795526 L753.623471,745.920581 L765.312257,745.920581 L765.312257,739.716107 L753.623471,739.716107 L753.623471,734.841163 L766.364802,734.841163 L766.364802,728.636688 L745.923275,728.636688 L745.923275,757 L766.309405,757 Z" id="TIME" fill="#00B8FF"></path>
            <path d="M54.1042893,374.098182 C58.4529611,374.098182 60.8627347,371.106739 60.8627347,367.450531 L60.8627347,365.954809 C60.8627347,362.298601 58.5083582,359.251761 54.1042893,359.251761 C49.8664117,359.251761 47.401241,362.298601 47.401241,365.954809 L47.401241,367.450531 C47.401241,371.051342 49.7556175,374.098182 54.1042893,374.098182 Z M53.6888111,389 L73.1885879,360.636688 L69.2553943,360.636688 L49.7556175,389 L53.6888111,389 Z M54.1042893,369.777209 C52.6916634,369.777209 52.2761852,368.558473 52.2761852,367.450531 L52.2761852,365.954809 C52.2761852,364.902264 52.6362663,363.572734 54.1042893,363.572734 C55.6831065,363.572734 55.9877905,364.846867 55.9877905,365.954809 L55.9877905,367.450531 C55.9877905,368.558473 55.6277094,369.777209 54.1042893,369.777209 Z M68.9507103,390.384927 C73.2993821,390.384927 75.7091557,387.28269 75.7091557,383.681879 L75.7091557,382.186158 C75.7091557,378.529949 73.3547792,375.483109 68.9507103,375.483109 C64.6574356,375.483109 62.247662,378.585346 62.247662,382.186158 L62.247662,383.681879 C62.247662,387.28269 64.6020385,390.384927 68.9507103,390.384927 Z M68.9507103,386.008557 C67.4826873,386.008557 67.0672091,384.734424 67.0672091,383.681879 L67.0672091,382.186158 C67.0672091,381.078216 67.4826873,379.804083 68.9507103,379.804083 C70.5295275,379.804083 70.8342115,381.078216 70.8342115,382.186158 L70.8342115,383.681879 C70.8342115,384.789821 70.4741304,386.008557 68.9507103,386.008557 Z" id="%" fill="#00B8FF" transform="translate(61.555198, 374.818344) rotate(-360.000000) translate(-61.555198, -374.818344) "></path>
            <path d="M402.640056,488 L402.640056,479.838162 L404.958211,479.838162 L409.304752,488 L416.597283,488 L411.574613,478.775674 C414.206685,477.507933 415.776269,475.105261 415.776269,471.676323 C415.776269,466.412179 412.093783,463.27301 406.600238,463.27301 L395.927065,463.27301 L395.927065,488 L402.640056,488 Z M405.006506,474.622312 L402.640056,474.622312 L402.640056,468.633744 L405.006506,468.633744 C407.360883,468.633744 408.773509,469.551347 408.773509,471.676323 C408.773509,473.789225 407.360883,474.622312 405.006506,474.622312 Z M426.386084,488.338064 C431.529491,488.338064 434.837692,485.875024 435.465526,482.011432 L429.380368,482.011432 C428.994009,483.061846 427.8953,483.653459 426.530969,483.653459 C424.550878,483.653459 423.3918,482.349496 423.3918,480.562585 L423.3918,480.272816 L435.465526,480.272816 L435.465526,478.727379 C435.465526,472.823327 431.843408,469.213283 426.2412,469.213283 C420.494106,469.213283 416.823694,473.02858 416.823694,478.775674 C416.823694,484.776315 420.445811,488.338064 426.386084,488.338064 Z M429.332073,476.602403 L423.3918,476.602403 C423.428022,474.996598 424.756131,473.897889 426.386084,473.897889 C428.040185,473.897889 429.295852,475.008671 429.332073,476.602403 Z M442.5015,488.289769 C444.916245,488.289769 446.739377,487.468756 447.862234,485.392075 L448.007118,485.392075 L448.007118,488 L454.237161,488 L454.237161,475.298441 C454.237161,471.869503 450.989329,469.213283 445.688963,469.213283 C440.147123,469.213283 437.418461,472.110977 437.18906,475.49162 L443.322513,475.49162 C443.479471,474.344617 444.324632,473.801299 445.592373,473.801299 C446.751451,473.801299 447.572464,474.332543 447.572464,475.298441 L447.572464,475.346736 C447.572464,476.421297 446.389239,476.759362 443.274218,476.988762 C439.446847,477.266458 436.464637,478.811895 436.464637,482.88074 C436.464637,486.5753 438.951824,488.289769 442.5015,488.289769 Z M444.67477,484.088113 C443.53984,484.088113 442.742974,483.532722 442.742974,482.494381 C442.742974,481.540557 443.419103,480.80406 444.96454,480.562585 C446.027027,480.393553 446.920483,480.176226 447.620759,479.886456 L447.620759,481.431893 C447.620759,483.122215 446.183986,484.088113 444.67477,484.088113 Z M465.523079,488.338064 C471.016624,488.338064 474.385193,485.186822 474.457636,480.272816 L468.275888,480.272816 C468.131004,482.216686 467.08059,483.2671 465.619669,483.2671 C463.868979,483.2671 462.721975,481.769958 462.721975,478.727379 C462.721975,475.6848 463.868979,474.187658 465.619669,474.187658 C467.092663,474.187658 468.094782,475.238072 468.275888,477.181942 L474.457636,477.181942 C474.421415,472.352452 470.980403,469.213283 465.523079,469.213283 C459.486216,469.213283 455.912393,473.076875 455.912393,478.775674 C455.912393,484.474472 459.486216,488.338064 465.523079,488.338064 Z M484.536188,488.265622 C486.045403,488.181106 487.16826,487.867189 487.771946,487.686083 L486.806048,483.001478 C486.5525,483.061846 485.900519,483.194657 485.502086,483.194657 C484.632777,483.194657 484.246418,482.808298 484.246418,482.03558 L484.246418,474.284248 L487.433882,474.284248 L487.433882,469.454758 L484.246418,469.454758 L484.246418,465.011627 L477.581722,465.011627 L477.581722,469.454758 L475.215272,469.454758 L475.215272,474.284248 L477.581722,474.284248 L477.581722,482.663413 C477.533427,486.551153 479.936098,488.51917 484.536188,488.265622 Z M501.843655,488 L501.843655,475.008671 L501.98854,475.008671 L510.923096,488 L516.525305,488 L516.525305,463.27301 L509.812314,463.27301 L509.812314,476.216044 L509.619134,476.216044 L500.829462,463.27301 L495.130664,463.27301 L495.130664,488 L501.843655,488 Z M524.140862,488.289769 C526.555607,488.289769 528.37874,487.468756 529.501596,485.392075 L529.646481,485.392075 L529.646481,488 L535.876523,488 L535.876523,475.298441 C535.876523,471.869503 532.628691,469.213283 527.328326,469.213283 C521.786486,469.213283 519.057824,472.110977 518.828423,475.49162 L524.961876,475.49162 C525.118834,474.344617 525.963995,473.801299 527.231736,473.801299 C528.390814,473.801299 529.211827,474.332543 529.211827,475.298441 L529.211827,475.346736 C529.211827,476.421297 528.028602,476.759362 524.913581,476.988762 C521.08621,477.266458 518.104,478.811895 518.104,482.88074 C518.104,486.5753 520.591187,488.289769 524.140862,488.289769 Z M526.314133,484.088113 C525.179203,484.088113 524.382337,483.532722 524.382337,482.494381 C524.382337,481.540557 525.058465,480.80406 526.603902,480.562585 C527.66639,480.393553 528.559846,480.176226 529.260122,479.886456 L529.260122,481.431893 C529.260122,483.122215 527.823349,484.088113 526.314133,484.088113 Z M546.389723,488.265622 C547.898939,488.181106 549.021795,487.867189 549.625482,487.686083 L548.659584,483.001478 C548.406035,483.061846 547.754054,483.194657 547.355621,483.194657 C546.486313,483.194657 546.099954,482.808298 546.099954,482.03558 L546.099954,474.284248 L549.287417,474.284248 L549.287417,469.454758 L546.099954,469.454758 L546.099954,465.011627 L539.435257,465.011627 L539.435257,469.454758 L537.068807,469.454758 L537.068807,474.284248 L539.435257,474.284248 L539.435257,482.663413 C539.386962,486.551153 541.789634,488.51917 546.389723,488.265622 Z M554.488106,467.522962 C556.299164,467.522962 557.772159,466.158631 557.772159,464.480383 C557.772159,462.802135 556.299164,461.437804 554.488106,461.437804 C552.677047,461.437804 551.204052,462.802135 551.204052,464.480383 C551.204052,466.158631 552.677047,467.522962 554.488106,467.522962 Z M557.820454,488 L557.820454,469.454758 L551.155757,469.454758 L551.155757,488 L557.820454,488 Z M572.824965,488 L579.055007,469.454758 L572.052246,469.454758 L569.057962,481.721663 L568.864783,481.721663 L565.870499,469.454758 L558.867738,469.454758 L565.09778,488 L572.824965,488 Z M588.409128,488.338064 C593.552535,488.338064 596.860736,485.875024 597.48857,482.011432 L591.403412,482.011432 C591.017053,483.061846 589.918344,483.653459 588.554013,483.653459 C586.573922,483.653459 585.414844,482.349496 585.414844,480.562585 L585.414844,480.272816 L597.48857,480.272816 L597.48857,478.727379 C597.48857,472.823327 593.866452,469.213283 588.264243,469.213283 C582.51715,469.213283 578.846737,473.02858 578.846737,478.775674 C578.846737,484.776315 582.468855,488.338064 588.409128,488.338064 Z M591.355117,476.602403 L585.414844,476.602403 C585.451065,474.996598 586.779175,473.897889 588.409128,473.897889 C590.063228,473.897889 591.318896,475.008671 591.355117,476.602403 Z" id="ReactNative" fill="#FFC800"></path>
            <path d="M702.12664,383 L702.12664,374.838162 L704.444796,374.838162 L708.791337,383 L716.083867,383 L711.061197,373.775674 C713.693269,372.507933 715.262854,370.105261 715.262854,366.676323 C715.262854,361.412179 711.580368,358.27301 706.086822,358.27301 L695.413649,358.27301 L695.413649,383 L702.12664,383 Z M704.493091,369.622312 L702.12664,369.622312 L702.12664,363.633744 L704.493091,363.633744 C706.847467,363.633744 708.260093,364.551347 708.260093,366.676323 C708.260093,368.789225 706.847467,369.622312 704.493091,369.622312 Z M725.872669,383.338064 C731.016076,383.338064 734.324277,380.875024 734.95211,377.011432 L728.866953,377.011432 C728.480594,378.061846 727.381885,378.653459 726.017554,378.653459 C724.037463,378.653459 722.878385,377.349496 722.878385,375.562585 L722.878385,375.272816 L734.95211,375.272816 L734.95211,373.727379 C734.95211,367.823327 731.329993,364.213283 725.727784,364.213283 C719.980691,364.213283 716.310278,368.02858 716.310278,373.775674 C716.310278,379.776315 719.932396,383.338064 725.872669,383.338064 Z M728.818658,371.602403 L722.878385,371.602403 C722.914606,369.996598 724.242716,368.897889 725.872669,368.897889 C727.526769,368.897889 728.782437,370.008671 728.818658,371.602403 Z M741.988084,383.289769 C744.402829,383.289769 746.225962,382.468756 747.348818,380.392075 L747.493703,380.392075 L747.493703,383 L753.723745,383 L753.723745,370.298441 C753.723745,366.869503 750.475913,364.213283 745.175547,364.213283 C739.633708,364.213283 736.905046,367.110977 736.675645,370.49162 L742.809097,370.49162 C742.966056,369.344617 743.811217,368.801299 745.078958,368.801299 C746.238035,368.801299 747.059049,369.332543 747.059049,370.298441 L747.059049,370.346736 C747.059049,371.421297 745.875824,371.759362 742.760802,371.988762 C738.933431,372.266458 735.951221,373.811895 735.951221,377.88074 C735.951221,381.5753 738.438409,383.289769 741.988084,383.289769 Z M744.161355,379.088113 C743.026424,379.088113 742.229558,378.532722 742.229558,377.494381 C742.229558,376.540557 742.905687,375.80406 744.451124,375.562585 C745.513612,375.393553 746.407067,375.176226 747.107344,374.886456 L747.107344,376.431893 C747.107344,378.122215 745.67057,379.088113 744.161355,379.088113 Z M765.009663,383.338064 C770.503208,383.338064 773.871778,380.186822 773.94422,375.272816 L767.762473,375.272816 C767.617588,377.216686 766.567174,378.2671 765.106253,378.2671 C763.355563,378.2671 762.208559,376.769958 762.208559,373.727379 C762.208559,370.6848 763.355563,369.187658 765.106253,369.187658 C766.579248,369.187658 767.581367,370.238072 767.762473,372.181942 L773.94422,372.181942 C773.907999,367.352452 770.466987,364.213283 765.009663,364.213283 C758.972801,364.213283 755.398978,368.076875 755.398978,373.775674 C755.398978,379.474472 758.972801,383.338064 765.009663,383.338064 Z M784.022772,383.265622 C785.531988,383.181106 786.654844,382.867189 787.25853,382.686083 L786.292632,378.001478 C786.039084,378.061846 785.387103,378.194657 784.98867,378.194657 C784.119362,378.194657 783.733003,377.808298 783.733003,377.03558 L783.733003,369.284248 L786.920466,369.284248 L786.920466,364.454758 L783.733003,364.454758 L783.733003,360.011627 L777.068306,360.011627 L777.068306,364.454758 L774.701856,364.454758 L774.701856,369.284248 L777.068306,369.284248 L777.068306,377.663413 C777.020011,381.551153 779.422683,383.51917 784.022772,383.265622 Z M801.330239,383 L801.330239,370.008671 L801.475124,370.008671 L810.409681,383 L816.01189,383 L816.01189,358.27301 L809.298898,358.27301 L809.298898,371.216044 L809.105719,371.216044 L800.316046,358.27301 L794.617248,358.27301 L794.617248,383 L801.330239,383 Z M823.627447,383.289769 C826.042192,383.289769 827.865324,382.468756 828.988181,380.392075 L829.133066,380.392075 L829.133066,383 L835.363108,383 L835.363108,370.298441 C835.363108,366.869503 832.115276,364.213283 826.81491,364.213283 C821.27307,364.213283 818.544408,367.110977 818.315007,370.49162 L824.44846,370.49162 C824.605418,369.344617 825.450579,368.801299 826.71832,368.801299 C827.877398,368.801299 828.698411,369.332543 828.698411,370.298441 L828.698411,370.346736 C828.698411,371.421297 827.515186,371.759362 824.400165,371.988762 C820.572794,372.266458 817.590584,373.811895 817.590584,377.88074 C817.590584,381.5753 820.077771,383.289769 823.627447,383.289769 Z M825.800717,379.088113 C824.665787,379.088113 823.868921,378.532722 823.868921,377.494381 C823.868921,376.540557 824.54505,375.80406 826.090487,375.562585 C827.152975,375.393553 828.04643,375.176226 828.746706,374.886456 L828.746706,376.431893 C828.746706,378.122215 827.309933,379.088113 825.800717,379.088113 Z M845.876308,383.265622 C847.385523,383.181106 848.50838,382.867189 849.112066,382.686083 L848.146168,378.001478 C847.89262,378.061846 847.240639,378.194657 846.842206,378.194657 C845.972898,378.194657 845.586538,377.808298 845.586538,377.03558 L845.586538,369.284248 L848.774002,369.284248 L848.774002,364.454758 L845.586538,364.454758 L845.586538,360.011627 L838.921842,360.011627 L838.921842,364.454758 L836.555392,364.454758 L836.555392,369.284248 L838.921842,369.284248 L838.921842,377.663413 C838.873547,381.551153 841.276218,383.51917 845.876308,383.265622 Z M853.97469,362.522962 C855.785749,362.522962 857.258743,361.158631 857.258743,359.480383 C857.258743,357.802135 855.785749,356.437804 853.97469,356.437804 C852.163631,356.437804 850.690637,357.802135 850.690637,359.480383 C850.690637,361.158631 852.163631,362.522962 853.97469,362.522962 Z M857.307038,383 L857.307038,364.454758 L850.642342,364.454758 L850.642342,383 L857.307038,383 Z M872.311549,383 L878.541591,364.454758 L871.538831,364.454758 L868.544547,376.721663 L868.351367,376.721663 L865.357083,364.454758 L858.354322,364.454758 L864.584365,383 L872.311549,383 Z M887.895713,383.338064 C893.03912,383.338064 896.34732,380.875024 896.975154,377.011432 L890.889996,377.011432 C890.503637,378.061846 889.404928,378.653459 888.040597,378.653459 C886.060506,378.653459 884.901429,377.349496 884.901429,375.562585 L884.901429,375.272816 L896.975154,375.272816 L896.975154,373.727379 C896.975154,367.823327 893.353036,364.213283 887.750828,364.213283 C882.003734,364.213283 878.333322,368.02858 878.333322,373.775674 C878.333322,379.776315 881.95544,383.338064 887.895713,383.338064 Z M890.841702,371.602403 L884.901429,371.602403 C884.93765,369.996598 886.26576,368.897889 887.895713,368.897889 C889.549813,368.897889 890.80548,370.008671 890.841702,371.602403 Z M917.373574,383 L921.575231,369.187658 L921.76841,369.187658 L925.970067,383 L932.393289,383 L939.685819,358.27301 L932.200109,358.27301 L928.819466,373.534199 L928.626286,373.534199 L924.617809,358.27301 L918.725831,358.27301 L914.717355,373.485904 L914.524175,373.485904 L911.143532,358.27301 L903.657822,358.27301 L910.950352,383 L917.373574,383 Z M947.832739,383.338064 C952.976146,383.338064 956.284347,380.875024 956.912181,377.011432 L950.827023,377.011432 C950.440664,378.061846 949.341955,378.653459 947.977624,378.653459 C945.997533,378.653459 944.838455,377.349496 944.838455,375.562585 L944.838455,375.272816 L956.912181,375.272816 L956.912181,373.727379 C956.912181,367.823327 953.290063,364.213283 947.687855,364.213283 C941.940761,364.213283 938.270349,368.02858 938.270349,373.775674 C938.270349,379.776315 941.892466,383.338064 947.832739,383.338064 Z M950.778728,371.602403 L944.838455,371.602403 C944.874676,369.996598 946.202786,368.897889 947.832739,368.897889 C949.48684,368.897889 950.742507,370.008671 950.778728,371.602403 Z M970.612851,383.241475 C974.573033,383.241475 977.905381,380.150601 977.905381,373.727379 C977.905381,367.014387 974.331558,364.213283 970.661146,364.213283 C967.908336,364.213283 966.16972,365.807015 965.445296,367.690516 L965.348706,367.690516 L965.348706,358.27301 L958.68401,358.27301 L958.68401,383 L965.300412,383 L965.300412,379.957421 L965.445296,379.957421 C966.218015,381.840922 968.004926,383.241475 970.612851,383.241475 Z M968.149811,378.122215 C966.314605,378.122215 965.203822,376.431893 965.203822,373.727379 C965.203822,370.974569 966.314605,369.332543 968.149811,369.332543 C969.985017,369.332543 971.047505,370.974569 971.047505,373.727379 C971.047505,376.480188 969.985017,378.122215 968.149811,378.122215 Z" id="ReactNativeWeb" fill="#FFC800"></path>
            <path d="M171.788948,23.0981819 C176.13762,23.0981819 178.547394,20.1067389 178.547394,16.4505307 L178.547394,14.9548092 C178.547394,11.298601 176.193017,8.2517609 171.788948,8.2517609 C167.551071,8.2517609 165.0859,11.298601 165.0859,14.9548092 L165.0859,16.4505307 C165.0859,20.0513418 167.440277,23.0981819 171.788948,23.0981819 Z M171.37347,38 L190.873247,9.63668823 L186.940053,9.63668823 L167.440277,38 L171.37347,38 Z M171.788948,18.7772086 C170.376323,18.7772086 169.960844,17.5584726 169.960844,16.4505307 L169.960844,14.9548092 C169.960844,13.9022644 170.320925,12.5727342 171.788948,12.5727342 C173.367766,12.5727342 173.67245,13.8468673 173.67245,14.9548092 L173.67245,16.4505307 C173.67245,17.5584726 173.312368,18.7772086 171.788948,18.7772086 Z M186.635369,39.3849273 C190.984041,39.3849273 193.393815,36.2826901 193.393815,32.681879 L193.393815,31.1861575 C193.393815,27.5299494 191.039438,24.4831092 186.635369,24.4831092 C182.342095,24.4831092 179.932321,27.5853465 179.932321,31.1861575 L179.932321,32.681879 C179.932321,36.2826901 182.286698,39.3849273 186.635369,39.3849273 Z M186.635369,35.008557 C185.167346,35.008557 184.751868,33.7344238 184.751868,32.681879 L184.751868,31.1861575 C184.751868,30.0782157 185.167346,28.8040825 186.635369,28.8040825 C188.214187,28.8040825 188.518871,30.0782157 188.518871,31.1861575 L188.518871,32.681879 C188.518871,33.7898209 188.158789,35.008557 186.635369,35.008557 Z M214.494889,38.3877797 C220.796308,38.3877797 224.660256,34.7731193 224.743351,29.1364651 L217.652523,29.1364651 C217.486332,31.3661981 216.281445,32.5710849 214.605683,32.5710849 C212.597538,32.5710849 211.281858,30.853775 211.281858,27.3637581 C211.281858,23.8737412 212.597538,22.1564313 214.605683,22.1564313 C216.295294,22.1564313 217.444784,23.3613181 217.652523,25.5910511 L224.743351,25.5910511 C224.701803,20.0513418 220.75476,16.4505307 214.494889,16.4505307 C207.570252,16.4505307 203.470867,20.8822982 203.470867,27.4191552 C203.470867,33.9560122 207.570252,38.3877797 214.494889,38.3877797 Z M237.149718,38.3877797 C244.074355,38.3877797 248.17374,33.9560122 248.17374,27.4191552 C248.17374,20.8822982 244.074355,16.4505307 237.149718,16.4505307 C230.225082,16.4505307 226.125697,20.8822982 226.125697,27.4191552 C226.125697,33.9560122 230.225082,38.3877797 237.149718,38.3877797 Z M237.205116,32.7372761 C235.155423,32.7372761 233.936687,30.701433 233.936687,27.3637581 C233.936687,24.0260832 235.155423,21.99024 237.205116,21.99024 C239.144014,21.99024 240.36275,24.0260832 240.36275,27.3637581 C240.36275,30.701433 239.144014,32.7372761 237.205116,32.7372761 Z M257.976452,38.2769855 C260.967895,38.2769855 263.017588,36.6704698 263.903941,34.5099831 L264.070132,34.5099831 L264.070132,38 L271.659534,38 L271.659534,9.63668823 L264.014735,9.63668823 L264.014735,20.4391214 L263.903941,20.4391214 C263.072985,18.2786348 261.078689,16.4505307 257.921055,16.4505307 C253.710876,16.4505307 249.611491,19.6635621 249.611491,27.3637581 C249.611491,34.7315715 253.433891,38.2769855 257.976452,38.2769855 Z M260.801704,32.4048936 C258.696614,32.4048936 257.477878,30.5213924 257.477878,27.3637581 C257.477878,24.2061238 258.696614,22.3226226 260.801704,22.3226226 C262.906793,22.3226226 264.180927,24.2061238 264.180927,27.3637581 C264.180927,30.4659953 262.906793,32.4048936 260.801704,32.4048936 Z M284.61989,38.3877797 C290.51968,38.3877797 294.314381,35.5625279 295.034543,31.1307604 L288.054509,31.1307604 C287.611333,32.3356472 286.351049,33.0142616 284.786081,33.0142616 C282.5148,33.0142616 281.18527,31.5185401 281.18527,29.4688476 L281.18527,29.1364651 L295.034543,29.1364651 L295.034543,27.3637581 C295.034543,20.5914634 290.879761,16.4505307 284.453698,16.4505307 C277.861444,16.4505307 273.651265,20.8269011 273.651265,27.4191552 C273.651265,34.302244 277.806047,38.3877797 284.61989,38.3877797 Z M287.999112,24.926286 L281.18527,24.926286 C281.226818,23.0843326 282.750238,21.8240488 284.61989,21.8240488 C286.51724,21.8240488 287.957564,23.0981819 287.999112,24.926286 Z M313.642622,38.3877797 C319.528563,38.3877797 323.863386,35.5209801 323.891084,30.9645692 C323.863386,27.8207841 321.758296,25.99268 317.409624,25.2032714 L313.088651,24.4277121 C311.468286,24.1368774 311.01126,23.5552079 311.038959,22.9319906 C311.01126,22.0456371 312.105353,21.5470633 313.421034,21.5470633 C314.930604,21.5470633 316.190888,22.3503211 316.301682,23.6521528 L323.337113,23.6521528 C323.143223,19.151139 319.40392,16.4505307 313.254842,16.4505307 C307.175011,16.4505307 303.421858,18.9433999 303.449557,23.3751674 C303.421858,26.7266915 305.596194,28.8733289 309.931017,29.6350389 L313.698019,30.299804 C315.359932,30.604488 316.107793,31.0476648 316.135491,31.8509226 C316.107793,32.7372761 315.096796,33.23585 313.698019,33.23585 C311.96686,33.23585 310.748124,32.4879892 310.540385,31.1307604 L302.950983,31.1307604 C303.366461,35.4932815 307.133463,38.3877797 313.642622,38.3877797 Z M333.472191,38 L333.472191,26.0342278 C333.486041,23.9291383 334.704777,22.6550052 336.574429,22.6550052 C338.527176,22.6550052 339.635118,23.9291383 339.621269,26.0342278 L339.621269,38 L347.266116,38 L347.266116,24.4277121 C347.279917,19.7743563 344.343871,16.4505307 339.842857,16.4505307 C336.699072,16.4505307 334.372394,18.0570464 333.416794,20.771504 L333.195206,20.771504 L333.195206,9.63668823 L325.827393,9.63668823 L325.827393,38 L333.472191,38 Z M355.960847,38.3323826 C358.730702,38.3323826 360.821942,37.390632 362.109925,35.008557 L362.276116,35.008557 L362.276116,38 L369.422341,38 L369.422341,23.4305645 C369.422341,19.4973708 365.696887,16.4505307 359.617056,16.4505307 C353.260239,16.4505307 350.130303,19.7743563 349.867167,23.6521528 L356.902598,23.6521528 C357.082639,22.3364719 358.052088,21.7132546 359.506261,21.7132546 C360.835792,21.7132546 361.777542,22.3226226 361.777542,23.4305645 L361.777542,23.4859616 C361.777542,24.7185469 360.420313,25.1063265 356.847201,25.3694627 C352.456981,25.687996 349.036211,27.460703 349.036211,32.1279081 C349.036211,36.3657857 351.889161,38.3323826 355.960847,38.3323826 Z M358.453717,33.5128354 C357.151885,33.5128354 356.237833,32.8757689 356.237833,31.6847314 C356.237833,30.5906388 357.013392,29.7458331 358.786099,29.4688476 C360.004835,29.2749578 361.029682,29.0256709 361.832939,28.6932883 L361.832939,30.4659953 C361.832939,32.4048936 360.184876,33.5128354 358.453717,33.5128354 Z M379.723612,38 L379.723612,26.9205813 C379.723612,24.4831092 381.399374,22.8765935 383.656806,22.8765935 C384.446214,22.8765935 385.720347,23.001237 386.482057,23.2643732 L386.482057,16.7413654 C385.872689,16.5613249 385.207924,16.4505307 384.543159,16.4505307 C382.271878,16.4505307 380.499171,17.7800609 379.723612,20.771504 L379.502024,20.771504 L379.502024,16.7275162 L372.078813,16.7275162 L372.078813,38 L379.723612,38 Z M396.949435,38.3877797 C402.849225,38.3877797 406.643926,35.5625279 407.364089,31.1307604 L400.384055,31.1307604 C399.940878,32.3356472 398.680594,33.0142616 397.115626,33.0142616 C394.844345,33.0142616 393.514815,31.5185401 393.514815,29.4688476 L393.514815,29.1364651 L407.364089,29.1364651 L407.364089,27.3637581 C407.364089,20.5914634 403.209307,16.4505307 396.783244,16.4505307 C390.19099,16.4505307 385.980811,20.8269011 385.980811,27.4191552 C385.980811,34.302244 390.135593,38.3877797 396.949435,38.3877797 Z M400.328658,24.926286 L393.514815,24.926286 C393.556363,23.0843326 395.079783,21.8240488 396.949435,21.8240488 C398.846785,21.8240488 400.28711,23.0981819 400.328658,24.926286 Z M423.867078,45.9771814 L423.867078,34.5099831 L423.977872,34.5099831 C424.864226,36.6704698 426.913918,38.2769855 429.905361,38.2769855 C434.447923,38.2769855 438.270322,34.7315715 438.270322,27.3637581 C438.270322,19.6635621 434.170937,16.4505307 429.960758,16.4505307 C426.803124,16.4505307 424.808828,18.2786348 423.977872,20.4391214 L423.811681,20.4391214 L423.811681,16.7275162 L416.222279,16.7275162 L416.222279,45.9771814 L423.867078,45.9771814 Z M427.080109,32.4048936 C424.97502,32.4048936 423.700887,30.4659953 423.700887,27.3637581 C423.700887,24.2061238 424.97502,22.3226226 427.080109,22.3226226 C429.185199,22.3226226 430.403935,24.2061238 430.403935,27.3637581 C430.403935,30.5213924 429.185199,32.4048936 427.080109,32.4048936 Z M450.732105,38.3877797 C457.656742,38.3877797 461.756126,33.9560122 461.756126,27.4191552 C461.756126,20.8822982 457.656742,16.4505307 450.732105,16.4505307 C443.807468,16.4505307 439.708083,20.8822982 439.708083,27.4191552 C439.708083,33.9560122 443.807468,38.3877797 450.732105,38.3877797 Z M450.787502,32.7372761 C448.737809,32.7372761 447.519073,30.701433 447.519073,27.3637581 C447.519073,24.0260832 448.737809,21.99024 450.787502,21.99024 C452.7264,21.99024 453.945136,24.0260832 453.945136,27.3637581 C453.945136,30.701433 452.7264,32.7372761 450.787502,32.7372761 Z M473.608531,38.3877797 C479.494472,38.3877797 483.829295,35.5209801 483.856993,30.9645692 C483.829295,27.8207841 481.724205,25.99268 477.375533,25.2032714 L473.05456,24.4277121 C471.434195,24.1368774 470.977169,23.5552079 471.004868,22.9319906 C470.977169,22.0456371 472.071262,21.5470633 473.386943,21.5470633 C474.896513,21.5470633 476.156797,22.3503211 476.267591,23.6521528 L483.303022,23.6521528 C483.109133,19.151139 479.369829,16.4505307 473.220751,16.4505307 C467.14092,16.4505307 463.387767,18.9433999 463.415466,23.3751674 C463.387767,26.7266915 465.562103,28.8733289 469.896926,29.6350389 L473.663928,30.299804 C475.325841,30.604488 476.073702,31.0476648 476.1014,31.8509226 C476.073702,32.7372761 475.062705,33.23585 473.663928,33.23585 C471.932769,33.23585 470.714033,32.4879892 470.506294,31.1307604 L462.916892,31.1307604 C463.33237,35.4932815 467.099373,38.3877797 473.608531,38.3877797 Z M495.54319,38.3877797 C501.429131,38.3877797 505.763954,35.5209801 505.791652,30.9645692 C505.763954,27.8207841 503.658864,25.99268 499.310192,25.2032714 L494.989219,24.4277121 C493.368854,24.1368774 492.911828,23.5552079 492.939527,22.9319906 C492.911828,22.0456371 494.005921,21.5470633 495.321602,21.5470633 C496.831173,21.5470633 498.091456,22.3503211 498.202251,23.6521528 L505.237681,23.6521528 C505.043792,19.151139 501.304488,16.4505307 495.15541,16.4505307 C489.075579,16.4505307 485.322426,18.9433999 485.350125,23.3751674 C485.322426,26.7266915 487.496762,28.8733289 491.831585,29.6350389 L495.598587,30.299804 C497.2605,30.604488 498.008361,31.0476648 498.036059,31.8509226 C498.008361,32.7372761 496.997364,33.23585 495.598587,33.23585 C493.867428,33.23585 492.648692,32.4879892 492.440953,31.1307604 L484.851551,31.1307604 C485.267029,35.4932815 489.034032,38.3877797 495.54319,38.3877797 Z M511.55036,14.5116324 C513.627751,14.5116324 515.317363,12.9466646 515.317363,11.0216156 C515.317363,9.09656657 513.627751,7.53159869 511.55036,7.53159869 C509.472969,7.53159869 507.783358,9.09656657 507.783358,11.0216156 C507.783358,12.9466646 509.472969,14.5116324 511.55036,14.5116324 Z M515.37276,38 L515.37276,16.7275162 L507.727961,16.7275162 L507.727961,38 L515.37276,38 Z M531.822976,38.2769855 C536.365538,38.2769855 540.187937,34.7315715 540.187937,27.3637581 C540.187937,19.6635621 536.088552,16.4505307 531.878373,16.4505307 C528.720739,16.4505307 526.726443,18.2786348 525.895487,20.4391214 L525.784693,20.4391214 L525.784693,9.63668823 L518.139894,9.63668823 L518.139894,38 L525.729296,38 L525.729296,34.5099831 L525.895487,34.5099831 C526.78184,36.6704698 528.831533,38.2769855 531.822976,38.2769855 Z M528.997724,32.4048936 C526.892635,32.4048936 525.618501,30.4659953 525.618501,27.3637581 C525.618501,24.2061238 526.892635,22.3226226 528.997724,22.3226226 C531.102814,22.3226226 532.32155,24.2061238 532.32155,27.3637581 C532.32155,30.5213924 531.102814,32.4048936 528.997724,32.4048936 Z M550.046055,38 L550.046055,9.63668823 L542.401256,9.63668823 L542.401256,38 L550.046055,38 Z M563.117049,38.3877797 C569.016839,38.3877797 572.81154,35.5625279 573.531702,31.1307604 L566.551668,31.1307604 C566.108492,32.3356472 564.848208,33.0142616 563.28324,33.0142616 C561.011959,33.0142616 559.682429,31.5185401 559.682429,29.4688476 L559.682429,29.1364651 L573.531702,29.1364651 L573.531702,27.3637581 C573.531702,20.5914634 569.37692,16.4505307 562.950857,16.4505307 C556.358603,16.4505307 552.148424,20.8269011 552.148424,27.4191552 C552.148424,34.302244 556.303206,38.3877797 563.117049,38.3877797 Z M566.496271,24.926286 L559.682429,24.926286 C559.723977,23.0843326 561.247397,21.8240488 563.117049,21.8240488 C565.014399,21.8240488 566.454724,23.0981819 566.496271,24.926286 Z M597.070122,44.4260628 C594.023282,40.7698547 591.752001,33.5682325 591.752001,27.0313755 C591.752001,20.4945185 594.023282,13.2928964 597.070122,9.63668823 L589.591515,9.63668823 C585.547527,14.5670295 583.77482,20.2175331 583.77482,27.0313755 C583.77482,33.845218 585.547527,39.4957215 589.591515,44.4260628 L597.070122,44.4260628 Z M607.925297,38.304684 C609.656456,38.2077391 610.944438,37.847658 611.636902,37.6399189 L610.52896,32.2664008 C610.238125,32.3356472 609.490265,32.4879892 609.033239,32.4879892 C608.036091,32.4879892 607.592914,32.0448125 607.592914,31.158459 L607.592914,22.2672255 L611.249122,22.2672255 L611.249122,16.7275162 L607.592914,16.7275162 L607.592914,11.6309836 L599.948115,11.6309836 L599.948115,16.7275162 L597.233658,16.7275162 L597.233658,22.2672255 L599.948115,22.2672255 L599.948115,31.8786212 C599.892718,36.3380872 602.648724,38.5955188 607.925297,38.304684 Z M621.439521,38 L621.439521,26.0342278 C621.45337,23.9291383 622.672106,22.6550052 624.541758,22.6550052 C626.494506,22.6550052 627.602448,23.9291383 627.588598,26.0342278 L627.588598,38 L635.233446,38 L635.233446,24.4277121 C635.247247,19.7743563 632.311201,16.4505307 627.810187,16.4505307 C624.666402,16.4505307 622.339724,18.0570464 621.384124,20.771504 L621.162536,20.771504 L621.162536,9.63668823 L613.794722,9.63668823 L613.794722,38 L621.439521,38 Z M643.928177,38.3323826 C646.698032,38.3323826 648.789272,37.390632 650.077254,35.008557 L650.243446,35.008557 L650.243446,38 L657.389671,38 L657.389671,23.4305645 C657.389671,19.4973708 653.664216,16.4505307 647.584385,16.4505307 C641.227569,16.4505307 638.097633,19.7743563 637.834497,23.6521528 L644.869928,23.6521528 C645.049968,22.3364719 646.019417,21.7132546 647.473591,21.7132546 C648.803121,21.7132546 649.744872,22.3226226 649.744872,23.4305645 L649.744872,23.4859616 C649.744872,24.7185469 648.387643,25.1063265 644.814531,25.3694627 C640.424311,25.687996 637.00354,27.460703 637.00354,32.1279081 C637.00354,36.3657857 639.856491,38.3323826 643.928177,38.3323826 Z M646.421046,33.5128354 C645.119215,33.5128354 644.205162,32.8757689 644.205162,31.6847314 C644.205162,30.5906388 644.980722,29.7458331 646.753429,29.4688476 C647.972165,29.2749578 648.997011,29.0256709 649.800269,28.6932883 L649.800269,30.4659953 C649.800269,32.4048936 648.152205,33.5128354 646.421046,33.5128354 Z M669.408251,38.304684 C671.139411,38.2077391 672.427393,37.847658 673.119857,37.6399189 L672.011915,32.2664008 C671.72108,32.3356472 670.973219,32.4879892 670.516193,32.4879892 C669.519046,32.4879892 669.075869,32.0448125 669.075869,31.158459 L669.075869,22.2672255 L672.732077,22.2672255 L672.732077,16.7275162 L669.075869,16.7275162 L669.075869,11.6309836 L661.43107,11.6309836 L661.43107,16.7275162 L658.716612,16.7275162 L658.716612,22.2672255 L661.43107,22.2672255 L661.43107,31.8786212 C661.375673,36.3380872 664.131678,38.5955188 669.408251,38.304684 Z M691.340065,38.3877797 C697.226006,38.3877797 701.560829,35.5209801 701.588527,30.9645692 C701.560829,27.8207841 699.455739,25.99268 695.107067,25.2032714 L690.786094,24.4277121 C689.165729,24.1368774 688.708703,23.5552079 688.736402,22.9319906 C688.708703,22.0456371 689.802796,21.5470633 691.118477,21.5470633 C692.628048,21.5470633 693.888331,22.3503211 693.999126,23.6521528 L701.034556,23.6521528 C700.840667,19.151139 697.101363,16.4505307 690.952285,16.4505307 C684.872454,16.4505307 681.119301,18.9433999 681.147,23.3751674 C681.119301,26.7266915 683.293637,28.8733289 687.62846,29.6350389 L691.395462,30.299804 C693.057375,30.604488 693.805236,31.0476648 693.832934,31.8509226 C693.805236,32.7372761 692.794239,33.23585 691.395462,33.23585 C689.664303,33.23585 688.445567,32.4879892 688.237828,31.1307604 L680.648426,31.1307604 C681.063904,35.4932815 684.830907,38.3877797 691.340065,38.3877797 Z M712.886945,38.304684 C714.618104,38.2077391 715.906086,37.847658 716.59855,37.6399189 L715.490608,32.2664008 C715.199773,32.3356472 714.451912,32.4879892 713.994886,32.4879892 C712.997739,32.4879892 712.554562,32.0448125 712.554562,31.158459 L712.554562,22.2672255 L716.21077,22.2672255 L716.21077,16.7275162 L712.554562,16.7275162 L712.554562,11.6309836 L704.909763,11.6309836 L704.909763,16.7275162 L702.195306,16.7275162 L702.195306,22.2672255 L704.909763,22.2672255 L704.909763,31.8786212 C704.854366,36.3380872 707.610371,38.5955188 712.886945,38.304684 Z M722.135587,14.5116324 C724.212978,14.5116324 725.90259,12.9466646 725.90259,11.0216156 C725.90259,9.09656657 724.212978,7.53159869 722.135587,7.53159869 C720.058196,7.53159869 718.368585,9.09656657 718.368585,11.0216156 C718.368585,12.9466646 720.058196,14.5116324 722.135587,14.5116324 Z M725.957987,38 L725.957987,16.7275162 L718.313188,16.7275162 L718.313188,38 L725.957987,38 Z M736.480714,38 L736.480714,9.63668823 L728.835915,9.63668823 L728.835915,38 L736.480714,38 Z M747.003441,38 L747.003441,9.63668823 L739.358643,9.63668823 L739.358643,38 L747.003441,38 Z M765.500587,38 L765.500587,22.2672255 L769.378383,22.2672255 L769.378383,16.7275162 L765.500587,16.7275162 L765.500587,15.7857656 C765.500587,14.7886179 765.888366,14.1238528 767.328691,14.1238528 C767.882662,14.1238528 768.713618,14.234647 769.267589,14.4008383 L770.375531,8.91652602 C769.489177,8.69493765 767.439485,8.30715799 765.500587,8.30715799 C760.847231,8.30715799 757.855788,10.8554243 757.855788,16.1181481 L757.855788,16.7275162 L755.14133,16.7275162 L755.14133,22.2672255 L757.855788,22.2672255 L757.855788,38 L765.500587,38 Z M780.842901,38.3877797 C786.742691,38.3877797 790.537392,35.5625279 791.257554,31.1307604 L784.277521,31.1307604 C783.834344,32.3356472 782.57406,33.0142616 781.009092,33.0142616 C778.737811,33.0142616 777.408281,31.5185401 777.408281,29.4688476 L777.408281,29.1364651 L791.257554,29.1364651 L791.257554,27.3637581 C791.257554,20.5914634 787.102772,16.4505307 780.67671,16.4505307 C774.084456,16.4505307 769.874276,20.8269011 769.874276,27.4191552 C769.874276,34.302244 774.029058,38.3877797 780.842901,38.3877797 Z M784.222124,24.926286 L777.408281,24.926286 C777.449829,23.0843326 778.973249,21.8240488 780.842901,21.8240488 C782.740251,21.8240488 784.180576,23.0981819 784.222124,24.926286 Z M803.553128,38.3877797 C809.452919,38.3877797 813.24762,35.5625279 813.967782,31.1307604 L806.987748,31.1307604 C806.544571,32.3356472 805.284287,33.0142616 803.719319,33.0142616 C801.448039,33.0142616 800.118508,31.5185401 800.118508,29.4688476 L800.118508,29.1364651 L813.967782,29.1364651 L813.967782,27.3637581 C813.967782,20.5914634 809.813,16.4505307 803.386937,16.4505307 C796.794683,16.4505307 792.584504,20.8269011 792.584504,27.4191552 C792.584504,34.302244 796.739286,38.3877797 803.553128,38.3877797 Z M806.932351,24.926286 L800.118508,24.926286 C800.160056,23.0843326 801.683476,21.8240488 803.553128,21.8240488 C805.450479,21.8240488 806.890803,23.0981819 806.932351,24.926286 Z M823.715089,38 L823.715089,9.63668823 L816.07029,9.63668823 L816.07029,38 L823.715089,38 Z M836.342906,38.3877797 C842.228847,38.3877797 846.56367,35.5209801 846.591368,30.9645692 C846.56367,27.8207841 844.45858,25.99268 840.109908,25.2032714 L835.788935,24.4277121 C834.16857,24.1368774 833.711544,23.5552079 833.739243,22.9319906 C833.711544,22.0456371 834.805637,21.5470633 836.121318,21.5470633 C837.630888,21.5470633 838.891172,22.3503211 839.001966,23.6521528 L846.037397,23.6521528 C845.843508,19.151139 842.104204,16.4505307 835.955126,16.4505307 C829.875295,16.4505307 826.122142,18.9433999 826.149841,23.3751674 C826.122142,26.7266915 828.296478,28.8733289 832.631301,29.6350389 L836.398303,30.299804 C838.060216,30.604488 838.808077,31.0476648 838.835775,31.8509226 C838.808077,32.7372761 837.79708,33.23585 836.398303,33.23585 C834.667144,33.23585 833.448408,32.4879892 833.240669,31.1307604 L825.651267,31.1307604 C826.066745,35.4932815 829.833748,38.3877797 836.342906,38.3877797 Z M862.928157,38 L862.928157,26.0342278 C862.942007,23.9291383 864.133044,22.6550052 866.030395,22.6550052 C867.955444,22.6550052 869.091084,23.9291383 869.077235,26.0342278 L869.077235,38 L876.722083,38 L876.722083,24.4277121 C876.735883,19.8020549 873.813686,16.4505307 869.298823,16.4505307 C866.168887,16.4505307 863.689867,18.084745 862.761966,20.771504 L862.540378,20.771504 L862.540378,16.7275162 L855.283358,16.7275162 L855.283358,38 L862.928157,38 Z M885.416813,38.3323826 C888.186668,38.3323826 890.277908,37.390632 891.565891,35.008557 L891.732082,35.008557 L891.732082,38 L898.878307,38 L898.878307,23.4305645 C898.878307,19.4973708 895.152853,16.4505307 889.073022,16.4505307 C882.716205,16.4505307 879.586269,19.7743563 879.323133,23.6521528 L886.358564,23.6521528 C886.538605,22.3364719 887.508054,21.7132546 888.962227,21.7132546 C890.291758,21.7132546 891.233508,22.3226226 891.233508,23.4305645 L891.233508,23.4859616 C891.233508,24.7185469 889.876279,25.1063265 886.303167,25.3694627 C881.912947,25.687996 878.492177,27.460703 878.492177,32.1279081 C878.492177,36.3657857 881.345127,38.3323826 885.416813,38.3323826 Z M887.909683,33.5128354 C886.607851,33.5128354 885.693799,32.8757689 885.693799,31.6847314 C885.693799,30.5906388 886.469358,29.7458331 888.242065,29.4688476 C889.460801,29.2749578 890.485647,29.0256709 891.288905,28.6932883 L891.288905,30.4659953 C891.288905,32.4048936 889.640842,33.5128354 887.909683,33.5128354 Z M910.896888,38.304684 C912.628047,38.2077391 913.916029,37.847658 914.608493,37.6399189 L913.500551,32.2664008 C913.209716,32.3356472 912.461856,32.4879892 912.00483,32.4879892 C911.007682,32.4879892 910.564505,32.0448125 910.564505,31.158459 L910.564505,22.2672255 L914.220713,22.2672255 L914.220713,16.7275162 L910.564505,16.7275162 L910.564505,11.6309836 L902.919706,11.6309836 L902.919706,16.7275162 L900.205249,16.7275162 L900.205249,22.2672255 L902.919706,22.2672255 L902.919706,31.8786212 C902.864309,36.3380872 905.620315,38.5955188 910.896888,38.304684 Z M920.145531,14.5116324 C922.222922,14.5116324 923.912533,12.9466646 923.912533,11.0216156 C923.912533,9.09656657 922.222922,7.53159869 920.145531,7.53159869 C918.06814,7.53159869 916.378528,9.09656657 916.378528,11.0216156 C916.378528,12.9466646 918.06814,14.5116324 920.145531,14.5116324 Z M923.96793,38 L923.96793,16.7275162 L916.323131,16.7275162 L916.323131,38 L923.96793,38 Z M941.138309,38 L948.284534,16.7275162 L940.251955,16.7275162 L936.817335,30.7983779 L936.595747,30.7983779 L933.161127,16.7275162 L925.128549,16.7275162 L932.274774,38 L941.138309,38 Z M958.973583,38.3877797 C964.873373,38.3877797 968.668074,35.5625279 969.388236,31.1307604 L962.408203,31.1307604 C961.965026,32.3356472 960.704742,33.0142616 959.139774,33.0142616 C956.868493,33.0142616 955.538963,31.5185401 955.538963,29.4688476 L955.538963,29.1364651 L969.388236,29.1364651 L969.388236,27.3637581 C969.388236,20.5914634 965.233454,16.4505307 958.807391,16.4505307 C952.215137,16.4505307 948.004958,20.8269011 948.004958,27.4191552 C948.004958,34.302244 952.15974,38.3877797 958.973583,38.3877797 Z M962.352805,24.926286 L955.538963,24.926286 C955.580511,23.0843326 957.103931,21.8240488 958.973583,21.8240488 C960.870933,21.8240488 962.311258,23.0981819 962.352805,24.926286 Z M977.584425,44.4260628 C981.628413,39.4957215 983.40112,33.845218 983.40112,27.0313755 C983.40112,20.2175331 981.628413,14.5670295 977.584425,9.63668823 L970.105818,9.63668823 C973.152658,13.2928964 975.423938,20.4945185 975.423938,27.0313755 C975.423938,33.5682325 973.152658,40.7698547 970.105818,44.4260628 L977.584425,44.4260628 Z M1004.66818,38.3877797 C1011.59282,38.3877797 1015.69221,33.9560122 1015.69221,27.4191552 C1015.69221,20.8822982 1011.59282,16.4505307 1004.66818,16.4505307 C997.743548,16.4505307 993.644163,20.8822982 993.644163,27.4191552 C993.644163,33.9560122 997.743548,38.3877797 1004.66818,38.3877797 Z M1004.72358,32.7372761 C1002.67389,32.7372761 1001.45515,30.701433 1001.45515,27.3637581 C1001.45515,24.0260832 1002.67389,21.99024 1004.72358,21.99024 C1006.66248,21.99024 1007.88122,24.0260832 1007.88122,27.3637581 C1007.88122,30.701433 1006.66248,32.7372761 1004.72358,32.7372761 Z M1031.4224,38 L1038.56862,16.7275162 L1030.53605,16.7275162 L1027.10143,30.7983779 L1026.87984,30.7983779 L1023.44522,16.7275162 L1015.41264,16.7275162 L1022.55886,38 L1031.4224,38 Z M1049.25767,38.3877797 C1055.15746,38.3877797 1058.95216,35.5625279 1059.67233,31.1307604 L1052.69229,31.1307604 C1052.24912,32.3356472 1050.98883,33.0142616 1049.42386,33.0142616 C1047.15258,33.0142616 1045.82305,31.5185401 1045.82305,29.4688476 L1045.82305,29.1364651 L1059.67233,29.1364651 L1059.67233,27.3637581 C1059.67233,20.5914634 1055.51755,16.4505307 1049.09148,16.4505307 C1042.49923,16.4505307 1038.28905,20.8269011 1038.28905,27.4191552 C1038.28905,34.302244 1042.44383,38.3877797 1049.25767,38.3877797 Z M1052.6369,24.926286 L1045.82305,24.926286 C1045.8646,23.0843326 1047.38802,21.8240488 1049.25767,21.8240488 C1051.15502,21.8240488 1052.59535,23.0981819 1052.6369,24.926286 Z M1069.41963,38 L1069.41963,26.9205813 C1069.41963,24.4831092 1071.0954,22.8765935 1073.35283,22.8765935 C1074.14224,22.8765935 1075.41637,23.001237 1076.17808,23.2643732 L1076.17808,16.7413654 C1075.56871,16.5613249 1074.90395,16.4505307 1074.23918,16.4505307 C1071.9679,16.4505307 1070.19519,17.7800609 1069.41963,20.771504 L1069.19805,20.771504 L1069.19805,16.7275162 L1061.77484,16.7275162 L1061.77484,38 L1069.41963,38 Z M1093.78893,38.304684 C1095.52009,38.2077391 1096.80807,37.847658 1097.50054,37.6399189 L1096.3926,32.2664008 C1096.10176,32.3356472 1095.3539,32.4879892 1094.89688,32.4879892 C1093.89973,32.4879892 1093.45655,32.0448125 1093.45655,31.158459 L1093.45655,22.2672255 L1097.11276,22.2672255 L1097.11276,16.7275162 L1093.45655,16.7275162 L1093.45655,11.6309836 L1085.81175,11.6309836 L1085.81175,16.7275162 L1083.09729,16.7275162 L1083.09729,22.2672255 L1085.81175,22.2672255 L1085.81175,31.8786212 C1085.75635,36.3380872 1088.51236,38.5955188 1093.78893,38.304684 Z M1103.03758,14.5116324 C1105.11497,14.5116324 1106.80458,12.9466646 1106.80458,11.0216156 C1106.80458,9.09656657 1105.11497,7.53159869 1103.03758,7.53159869 C1100.96019,7.53159869 1099.27057,9.09656657 1099.27057,11.0216156 C1099.27057,12.9466646 1100.96019,14.5116324 1103.03758,14.5116324 Z M1106.85998,38 L1106.85998,16.7275162 L1099.21518,16.7275162 L1099.21518,38 L1106.85998,38 Z M1117.3827,38 L1117.3827,25.5910511 C1117.3827,23.7352485 1118.35215,22.5996081 1119.93097,22.5996081 C1121.50979,22.5996081 1122.53463,23.7352485 1122.53463,25.5910511 L1122.53463,38 L1129.84705,38 L1129.84705,25.5910511 C1129.84705,23.7352485 1130.8165,22.5996081 1132.39532,22.5996081 C1133.97413,22.5996081 1134.99898,23.7352485 1134.99898,25.5910511 L1134.99898,38 L1142.64378,38 L1142.64378,23.6521528 C1142.64378,19.2896317 1139.84622,16.4505307 1135.77454,16.4505307 C1132.6169,16.4505307 1130.06864,18.1678406 1129.34847,20.771504 L1129.12689,20.771504 C1128.68371,18.1678406 1126.30163,16.4505307 1123.31019,16.4505307 C1120.3603,16.4505307 1118.10287,18.1124435 1117.21651,20.771504 L1116.99492,20.771504 L1116.99492,16.7275162 L1109.7379,16.7275162 L1109.7379,38 L1117.3827,38 Z M1155.60426,38.3877797 C1161.50406,38.3877797 1165.29876,35.5625279 1166.01892,31.1307604 L1159.03888,31.1307604 C1158.59571,32.3356472 1157.33542,33.0142616 1155.77046,33.0142616 C1153.49918,33.0142616 1152.16964,31.5185401 1152.16964,29.4688476 L1152.16964,29.1364651 L1166.01892,29.1364651 L1166.01892,27.3637581 C1166.01892,20.5914634 1161.86414,16.4505307 1155.43807,16.4505307 C1148.84582,16.4505307 1144.63564,20.8269011 1144.63564,27.4191552 C1144.63564,34.302244 1148.79042,38.3877797 1155.60426,38.3877797 Z M1158.98349,24.926286 L1152.16964,24.926286 C1152.21119,23.0843326 1153.73461,21.8240488 1155.60426,21.8240488 C1157.50162,21.8240488 1158.94194,23.0981819 1158.98349,24.926286 Z" id="%codesharepossible(thatstillfeelsnative)overtime" fill="#00B8FF" transform="translate(665.552409, 26.754390) rotate(-360.000000) translate(-665.552409, -26.754390) "></path>
        </g>
    </g>
</svg>