<?xml version="1.0" encoding="UTF-8"?>
<svg width="1389px" height="858px" viewBox="0 0 1389 858" version="1.1" xmlns="http://www.w3.org/2000/svg" xmlns:xlink="http://www.w3.org/1999/xlink">
    <!-- Generator: Sketch 61 (89581) - https://sketch.com -->
    <title>code-sharing</title>
    <desc>Created with Sketch.</desc>
    <g id="code-sharing" stroke="none" stroke-width="1" fill="none" fill-rule="evenodd">
        <rect fill="#000000" x="0" y="0" width="1389" height="858"></rect>
        <line x1="155" y1="173" x2="155.5" y2="730.5" id="Line-3" stroke="#5B0050" stroke-width="10" stroke-linecap="round"></line>
        <line x1="1332" y1="731" x2="155.5" y2="730.5" id="Line-3" stroke="#5B0050" stroke-width="10" stroke-linecap="round"></line>
        <path d="M158,725 C170.948711,725 242.458122,713.284269 268.303643,709.755988 C285.53399,707.403801 306.079521,706.428726 329.940237,706.830764 C396.416467,707.340667 457.334267,705.283625 512.693637,700.659638 C595.732692,693.723658 557.869667,642.790815 612.957601,625.198258 C668.045536,607.605701 700.136655,619.296874 734.840079,610.274926 C769.543503,601.252977 805.854943,602.65332 840.745015,596.368382 C875.635086,590.083444 877.139175,582.655286 904.412983,578.332111 C919.016848,576.01725 933.527315,577.27311 968.979445,568.132936 C1003.33961,559.274288 994.98104,507.06303 1034.98349,496.050424 C1074.98595,485.037818 1136.84826,475.72342 1142.15413,473.681068 C1142.70836,473.467733 1261.05306,452.731357 1304,452" id="Path-2" stroke="#979797" stroke-width="6"></path>
        <g id="Group-2-Copy" transform="translate(519.000000, 616.000000) scale(-1, 1) rotate(-135.000000) translate(-519.000000, -616.000000) translate(496.000000, 576.000000)" stroke="#FFC800" stroke-linecap="round" stroke-linejoin="round" stroke-width="12">
            <path d="M0,0 C0.467147754,10.359331 5.13381442,23.0259977 14,38 C22.8661856,52.9740023 33.1995189,65.640669 45,76" id="Line"></path>
            <line x1="45.4522793" y1="54" x2="45.5477207" y2="78" id="Line"></line>
            <line x1="20" y1="80" x2="45" y2="78" id="Line"></line>
        </g>
        <g id="Group-2-Copy-2" transform="translate(932.000000, 496.000000) scale(-1, 1) rotate(-120.000000) translate(-932.000000, -496.000000) translate(909.000000, 456.000000)" stroke="#FFC800" stroke-linecap="round" stroke-linejoin="round" stroke-width="12">
            <path d="M0,0 C0.467147754,10.359331 5.13381442,23.0259977 14,38 C22.8661856,52.9740023 33.1995189,65.640669 45,76" id="Line"></path>
            <line x1="45.4522793" y1="54" x2="45.5477207" y2="78" id="Line"></line>
            <line x1="20" y1="80" x2="45" y2="78" id="Line"></line>
        </g>
        <g id="Group" transform="translate(0.000000, 43.000000)" font-family="Inter-Black, Inter" font-weight="800">
            <text id="*-copy-2" font-size="54" line-spacing="59" letter-spacing="-1.328292" fill="#FFC800">
                <tspan x="522" y="674">*</tspan>
            </text>
            <text id="*-copy-3" font-size="54" line-spacing="59" letter-spacing="-1.328292" fill="#FFC800">
                <tspan x="944" y="553">*</tspan>
            </text>
            <text id="TIME" font-size="39" letter-spacing="-1" fill="#00B8FF">
                <tspan x="672.640625" y="766">TIME</tspan>
            </text>
            <text id="%" transform="translate(61.000000, 409.000000) rotate(-360.000000) translate(-61.000000, -409.000000) " font-size="39" letter-spacing="-1" fill="#00B8FF">
                <tspan x="44.1328125" y="398">% </tspan>
            </text>
            <text id="React-Native" font-size="34" line-spacing="59" letter-spacing="-0.836332" fill="#FFC800">
                <tspan x="394.333333" y="488">React Native</tspan>
            </text>
            <text id="React-Native-Web" font-size="34" line-spacing="59" letter-spacing="-0.836332" fill="#FFC800">
                <tspan x="693.819917" y="383">React Native Web</tspan>
            </text>
            <text id="%-code-share-possibl" transform="translate(694.000000, 49.000000) rotate(-360.000000) translate(-694.000000, -49.000000) " font-size="49" letter-spacing="-1.25641026" fill="#00B8FF">
                <tspan x="63.0527207" y="47">% code share possible (that still feels native) over time</tspan>
            </text>
        </g>
    </g>
</svg>