<?xml version="1.0" encoding="UTF-8"?>
<svg width="1389px" height="858px" viewBox="0 0 1389 858" version="1.1" xmlns="http://www.w3.org/2000/svg" xmlns:xlink="http://www.w3.org/1999/xlink">
    <!-- Generator: Sketch 61 (89581) - https://sketch.com -->
    <title>code-sharing</title>
    <desc>Created with Sketch.</desc>
    <g id="code-sharing" stroke="none" stroke-width="1" fill="none" fill-rule="evenodd">
        <rect fill="#000000" x="0" y="0" width="1389" height="858"></rect>
        <line x1="155" y1="173" x2="155.5" y2="730.5" id="Line-3" stroke="#5B0050" stroke-width="10" stroke-linecap="round"></line>
        <line x1="1332" y1="731" x2="155.5" y2="730.5" id="Line-3" stroke="#5B0050" stroke-width="10" stroke-linecap="round"></line>
        <path d="M158,725 C170.948711,725 242.458122,713.284269 268.303643,709.755988 C285.53399,707.403801 306.079521,706.428726 329.940237,706.830764 C396.416467,707.340667 457.334267,705.283625 512.693637,700.659638 C595.732692,693.723658 557.869667,642.790815 612.957601,625.198258 C668.045536,607.605701 700.136655,619.296874 734.840079,610.274926 C769.543503,601.252977 805.854943,602.65332 840.745015,596.368382 C875.635086,590.083444 877.139175,582.655286 904.412983,578.332111 C919.016848,576.01725 933.527315,577.27311 968.979445,568.132936 C1003.33961,559.274288 994.98104,507.06303 1034.98349,496.050424 C1074.98595,485.037818 1136.84826,475.72342 1142.15413,473.681068 C1142.70836,473.467733 1261.05306,452.731357 1304,452" id="Path-2" stroke="#979797" stroke-width="6"></path>
        <g id="Group-2-Copy" transform="translate(519.000000, 616.000000) scale(-1, 1) rotate(-135.000000) translate(-519.000000, -616.000000) translate(496.000000, 576.000000)" stroke="#FFC800" stroke-linecap="round" stroke-linejoin="round" stroke-width="12">
            <path d="M0,0 C0.467147754,10.359331 5.13381442,23.0259977 14,38 C22.8661856,52.9740023 33.1995189,65.640669 45,76" id="Line"></path>
            <line x1="45.4522793" y1="54" x2="45.5477207" y2="78" id="Line"></line>
            <line x1="20" y1="80" x2="45" y2="78" id="Line"></line>
        </g>
        <g id="Group-2-Copy-2" transform="translate(932.000000, 496.000000) scale(-1, 1) rotate(-120.000000) translate(-932.000000, -496.000000) translate(909.000000, 456.000000)" stroke="#FFC800" stroke-linecap="round" stroke-linejoin="round" stroke-width="12">
            <path d="M0,0 C0.467147754,10.359331 5.13381442,23.0259977 14,38 C22.8661856,52.9740023 33.1995189,65.640669 45,76" id="Line"></path>
            <line x1="45.4522793" y1="54" x2="45.5477207" y2="78" id="Line"></line>
            <line x1="20" y1="80" x2="45" y2="78" id="Line"></line>
        </g>
        <g id="Group" transform="translate(0.000000, 43.000000)" fill-rule="nonzero">
            <polygon id="*" fill="#FFC800" points="562.732105 653.818378 562.118476 647.068456 567.717843 650.980343 570.78599 645.611086 564.649697 642.77305 570.78599 639.935015 567.717843 634.565758 562.118476 638.477645 562.732105 631.727722 556.595811 631.727722 557.209441 638.477645 551.610073 634.565758 548.541926 639.935015 554.67822 642.77305 548.541926 645.611086 551.610073 650.980343 557.209441 647.068456 556.595811 653.818378"></polygon>
            <polygon id="*" fill="#FFC800" points="984.732105 532.818378 984.118476 526.068456 989.717843 529.980343 992.78599 524.611086 986.649697 521.77305 992.78599 518.935015 989.717843 513.565758 984.118476 517.477645 984.732105 510.727722 978.595811 510.727722 979.209441 517.477645 973.610073 513.565758 970.541926 518.935015 976.67822 521.77305 970.541926 524.611086 973.610073 529.980343 979.209441 526.068456 978.595811 532.818378"></polygon>
            <path d="M689.813724,766 L689.813724,743.841163 L698.344876,743.841163 L698.344876,737.636688 L673.69317,737.636688 L673.69317,743.841163 L682.224322,743.841163 L682.224322,766 L689.813724,766 Z M707.926027,766 L707.926027,737.636688 L700.225831,737.636688 L700.225831,766 L707.926027,766 Z M718.11637,766 L718.11637,749.491666 L718.337959,749.491666 L724.653227,765.778412 L729.195789,765.778412 L735.511057,749.60246 L735.732646,749.60246 L735.732646,766 L743.26665,766 L743.26665,737.636688 L733.682953,737.636688 L727.090699,753.701845 L726.758317,753.701845 L720.166063,737.636688 L710.582365,737.636688 L710.582365,766 L718.11637,766 Z M766.309405,766 L766.309405,759.795526 L753.623471,759.795526 L753.623471,754.920581 L765.312257,754.920581 L765.312257,748.716107 L753.623471,748.716107 L753.623471,743.841163 L766.364802,743.841163 L766.364802,737.636688 L745.923275,737.636688 L745.923275,766 L766.309405,766 Z" id="TIME" fill="#00B8FF"></path>
            <path d="M54.1042893,383.098182 C58.4529611,383.098182 60.8627347,380.106739 60.8627347,376.450531 L60.8627347,374.954809 C60.8627347,371.298601 58.5083582,368.251761 54.1042893,368.251761 C49.8664117,368.251761 47.401241,371.298601 47.401241,374.954809 L47.401241,376.450531 C47.401241,380.051342 49.7556175,383.098182 54.1042893,383.098182 Z M53.6888111,398 L73.1885879,369.636688 L69.2553943,369.636688 L49.7556175,398 L53.6888111,398 Z M54.1042893,378.777209 C52.6916634,378.777209 52.2761852,377.558473 52.2761852,376.450531 L52.2761852,374.954809 C52.2761852,373.902264 52.6362663,372.572734 54.1042893,372.572734 C55.6831065,372.572734 55.9877905,373.846867 55.9877905,374.954809 L55.9877905,376.450531 C55.9877905,377.558473 55.6277094,378.777209 54.1042893,378.777209 Z M68.9507103,399.384927 C73.2993821,399.384927 75.7091557,396.28269 75.7091557,392.681879 L75.7091557,391.186158 C75.7091557,387.529949 73.3547792,384.483109 68.9507103,384.483109 C64.6574356,384.483109 62.247662,387.585346 62.247662,391.186158 L62.247662,392.681879 C62.247662,396.28269 64.6020385,399.384927 68.9507103,399.384927 Z M68.9507103,395.008557 C67.4826873,395.008557 67.0672091,393.734424 67.0672091,392.681879 L67.0672091,391.186158 C67.0672091,390.078216 67.4826873,388.804083 68.9507103,388.804083 C70.5295275,388.804083 70.8342115,390.078216 70.8342115,391.186158 L70.8342115,392.681879 C70.8342115,393.789821 70.4741304,395.008557 68.9507103,395.008557 Z" id="%" fill="#00B8FF" transform="translate(61.555198, 383.818344) rotate(-360.000000) translate(-61.555198, -383.818344) "></path>
            <path d="M402.640056,497 L402.640056,488.838162 L404.958211,488.838162 L409.304752,497 L416.597283,497 L411.574613,487.775674 C414.206685,486.507933 415.776269,484.105261 415.776269,480.676323 C415.776269,475.412179 412.093783,472.27301 406.600238,472.27301 L395.927065,472.27301 L395.927065,497 L402.640056,497 Z M405.006506,483.622312 L402.640056,483.622312 L402.640056,477.633744 L405.006506,477.633744 C407.360883,477.633744 408.773509,478.551347 408.773509,480.676323 C408.773509,482.789225 407.360883,483.622312 405.006506,483.622312 Z M426.386084,497.338064 C431.529491,497.338064 434.837692,494.875024 435.465526,491.011432 L429.380368,491.011432 C428.994009,492.061846 427.8953,492.653459 426.530969,492.653459 C424.550878,492.653459 423.3918,491.349496 423.3918,489.562585 L423.3918,489.272816 L435.465526,489.272816 L435.465526,487.727379 C435.465526,481.823327 431.843408,478.213283 426.2412,478.213283 C420.494106,478.213283 416.823694,482.02858 416.823694,487.775674 C416.823694,493.776315 420.445811,497.338064 426.386084,497.338064 Z M429.332073,485.602403 L423.3918,485.602403 C423.428022,483.996598 424.756131,482.897889 426.386084,482.897889 C428.040185,482.897889 429.295852,484.008671 429.332073,485.602403 Z M442.5015,497.289769 C444.916245,497.289769 446.739377,496.468756 447.862234,494.392075 L448.007118,494.392075 L448.007118,497 L454.237161,497 L454.237161,484.298441 C454.237161,480.869503 450.989329,478.213283 445.688963,478.213283 C440.147123,478.213283 437.418461,481.110977 437.18906,484.49162 L443.322513,484.49162 C443.479471,483.344617 444.324632,482.801299 445.592373,482.801299 C446.751451,482.801299 447.572464,483.332543 447.572464,484.298441 L447.572464,484.346736 C447.572464,485.421297 446.389239,485.759362 443.274218,485.988762 C439.446847,486.266458 436.464637,487.811895 436.464637,491.88074 C436.464637,495.5753 438.951824,497.289769 442.5015,497.289769 Z M444.67477,493.088113 C443.53984,493.088113 442.742974,492.532722 442.742974,491.494381 C442.742974,490.540557 443.419103,489.80406 444.96454,489.562585 C446.027027,489.393553 446.920483,489.176226 447.620759,488.886456 L447.620759,490.431893 C447.620759,492.122215 446.183986,493.088113 444.67477,493.088113 Z M465.523079,497.338064 C471.016624,497.338064 474.385193,494.186822 474.457636,489.272816 L468.275888,489.272816 C468.131004,491.216686 467.08059,492.2671 465.619669,492.2671 C463.868979,492.2671 462.721975,490.769958 462.721975,487.727379 C462.721975,484.6848 463.868979,483.187658 465.619669,483.187658 C467.092663,483.187658 468.094782,484.238072 468.275888,486.181942 L474.457636,486.181942 C474.421415,481.352452 470.980403,478.213283 465.523079,478.213283 C459.486216,478.213283 455.912393,482.076875 455.912393,487.775674 C455.912393,493.474472 459.486216,497.338064 465.523079,497.338064 Z M484.536188,497.265622 C486.045403,497.181106 487.16826,496.867189 487.771946,496.686083 L486.806048,492.001478 C486.5525,492.061846 485.900519,492.194657 485.502086,492.194657 C484.632777,492.194657 484.246418,491.808298 484.246418,491.03558 L484.246418,483.284248 L487.433882,483.284248 L487.433882,478.454758 L484.246418,478.454758 L484.246418,474.011627 L477.581722,474.011627 L477.581722,478.454758 L475.215272,478.454758 L475.215272,483.284248 L477.581722,483.284248 L477.581722,491.663413 C477.533427,495.551153 479.936098,497.51917 484.536188,497.265622 Z M501.843655,497 L501.843655,484.008671 L501.98854,484.008671 L510.923096,497 L516.525305,497 L516.525305,472.27301 L509.812314,472.27301 L509.812314,485.216044 L509.619134,485.216044 L500.829462,472.27301 L495.130664,472.27301 L495.130664,497 L501.843655,497 Z M524.140862,497.289769 C526.555607,497.289769 528.37874,496.468756 529.501596,494.392075 L529.646481,494.392075 L529.646481,497 L535.876523,497 L535.876523,484.298441 C535.876523,480.869503 532.628691,478.213283 527.328326,478.213283 C521.786486,478.213283 519.057824,481.110977 518.828423,484.49162 L524.961876,484.49162 C525.118834,483.344617 525.963995,482.801299 527.231736,482.801299 C528.390814,482.801299 529.211827,483.332543 529.211827,484.298441 L529.211827,484.346736 C529.211827,485.421297 528.028602,485.759362 524.913581,485.988762 C521.08621,486.266458 518.104,487.811895 518.104,491.88074 C518.104,495.5753 520.591187,497.289769 524.140862,497.289769 Z M526.314133,493.088113 C525.179203,493.088113 524.382337,492.532722 524.382337,491.494381 C524.382337,490.540557 525.058465,489.80406 526.603902,489.562585 C527.66639,489.393553 528.559846,489.176226 529.260122,488.886456 L529.260122,490.431893 C529.260122,492.122215 527.823349,493.088113 526.314133,493.088113 Z M546.389723,497.265622 C547.898939,497.181106 549.021795,496.867189 549.625482,496.686083 L548.659584,492.001478 C548.406035,492.061846 547.754054,492.194657 547.355621,492.194657 C546.486313,492.194657 546.099954,491.808298 546.099954,491.03558 L546.099954,483.284248 L549.287417,483.284248 L549.287417,478.454758 L546.099954,478.454758 L546.099954,474.011627 L539.435257,474.011627 L539.435257,478.454758 L537.068807,478.454758 L537.068807,483.284248 L539.435257,483.284248 L539.435257,491.663413 C539.386962,495.551153 541.789634,497.51917 546.389723,497.265622 Z M554.488106,476.522962 C556.299164,476.522962 557.772159,475.158631 557.772159,473.480383 C557.772159,471.802135 556.299164,470.437804 554.488106,470.437804 C552.677047,470.437804 551.204052,471.802135 551.204052,473.480383 C551.204052,475.158631 552.677047,476.522962 554.488106,476.522962 Z M557.820454,497 L557.820454,478.454758 L551.155757,478.454758 L551.155757,497 L557.820454,497 Z M572.824965,497 L579.055007,478.454758 L572.052246,478.454758 L569.057962,490.721663 L568.864783,490.721663 L565.870499,478.454758 L558.867738,478.454758 L565.09778,497 L572.824965,497 Z M588.409128,497.338064 C593.552535,497.338064 596.860736,494.875024 597.48857,491.011432 L591.403412,491.011432 C591.017053,492.061846 589.918344,492.653459 588.554013,492.653459 C586.573922,492.653459 585.414844,491.349496 585.414844,489.562585 L585.414844,489.272816 L597.48857,489.272816 L597.48857,487.727379 C597.48857,481.823327 593.866452,478.213283 588.264243,478.213283 C582.51715,478.213283 578.846737,482.02858 578.846737,487.775674 C578.846737,493.776315 582.468855,497.338064 588.409128,497.338064 Z M591.355117,485.602403 L585.414844,485.602403 C585.451065,483.996598 586.779175,482.897889 588.409128,482.897889 C590.063228,482.897889 591.318896,484.008671 591.355117,485.602403 Z" id="ReactNative" fill="#FFC800"></path>
            <path d="M702.12664,392 L702.12664,383.838162 L704.444796,383.838162 L708.791337,392 L716.083867,392 L711.061197,382.775674 C713.693269,381.507933 715.262854,379.105261 715.262854,375.676323 C715.262854,370.412179 711.580368,367.27301 706.086822,367.27301 L695.413649,367.27301 L695.413649,392 L702.12664,392 Z M704.493091,378.622312 L702.12664,378.622312 L702.12664,372.633744 L704.493091,372.633744 C706.847467,372.633744 708.260093,373.551347 708.260093,375.676323 C708.260093,377.789225 706.847467,378.622312 704.493091,378.622312 Z M725.872669,392.338064 C731.016076,392.338064 734.324277,389.875024 734.95211,386.011432 L728.866953,386.011432 C728.480594,387.061846 727.381885,387.653459 726.017554,387.653459 C724.037463,387.653459 722.878385,386.349496 722.878385,384.562585 L722.878385,384.272816 L734.95211,384.272816 L734.95211,382.727379 C734.95211,376.823327 731.329993,373.213283 725.727784,373.213283 C719.980691,373.213283 716.310278,377.02858 716.310278,382.775674 C716.310278,388.776315 719.932396,392.338064 725.872669,392.338064 Z M728.818658,380.602403 L722.878385,380.602403 C722.914606,378.996598 724.242716,377.897889 725.872669,377.897889 C727.526769,377.897889 728.782437,379.008671 728.818658,380.602403 Z M741.988084,392.289769 C744.402829,392.289769 746.225962,391.468756 747.348818,389.392075 L747.493703,389.392075 L747.493703,392 L753.723745,392 L753.723745,379.298441 C753.723745,375.869503 750.475913,373.213283 745.175547,373.213283 C739.633708,373.213283 736.905046,376.110977 736.675645,379.49162 L742.809097,379.49162 C742.966056,378.344617 743.811217,377.801299 745.078958,377.801299 C746.238035,377.801299 747.059049,378.332543 747.059049,379.298441 L747.059049,379.346736 C747.059049,380.421297 745.875824,380.759362 742.760802,380.988762 C738.933431,381.266458 735.951221,382.811895 735.951221,386.88074 C735.951221,390.5753 738.438409,392.289769 741.988084,392.289769 Z M744.161355,388.088113 C743.026424,388.088113 742.229558,387.532722 742.229558,386.494381 C742.229558,385.540557 742.905687,384.80406 744.451124,384.562585 C745.513612,384.393553 746.407067,384.176226 747.107344,383.886456 L747.107344,385.431893 C747.107344,387.122215 745.67057,388.088113 744.161355,388.088113 Z M765.009663,392.338064 C770.503208,392.338064 773.871778,389.186822 773.94422,384.272816 L767.762473,384.272816 C767.617588,386.216686 766.567174,387.2671 765.106253,387.2671 C763.355563,387.2671 762.208559,385.769958 762.208559,382.727379 C762.208559,379.6848 763.355563,378.187658 765.106253,378.187658 C766.579248,378.187658 767.581367,379.238072 767.762473,381.181942 L773.94422,381.181942 C773.907999,376.352452 770.466987,373.213283 765.009663,373.213283 C758.972801,373.213283 755.398978,377.076875 755.398978,382.775674 C755.398978,388.474472 758.972801,392.338064 765.009663,392.338064 Z M784.022772,392.265622 C785.531988,392.181106 786.654844,391.867189 787.25853,391.686083 L786.292632,387.001478 C786.039084,387.061846 785.387103,387.194657 784.98867,387.194657 C784.119362,387.194657 783.733003,386.808298 783.733003,386.03558 L783.733003,378.284248 L786.920466,378.284248 L786.920466,373.454758 L783.733003,373.454758 L783.733003,369.011627 L777.068306,369.011627 L777.068306,373.454758 L774.701856,373.454758 L774.701856,378.284248 L777.068306,378.284248 L777.068306,386.663413 C777.020011,390.551153 779.422683,392.51917 784.022772,392.265622 Z M801.330239,392 L801.330239,379.008671 L801.475124,379.008671 L810.409681,392 L816.01189,392 L816.01189,367.27301 L809.298898,367.27301 L809.298898,380.216044 L809.105719,380.216044 L800.316046,367.27301 L794.617248,367.27301 L794.617248,392 L801.330239,392 Z M823.627447,392.289769 C826.042192,392.289769 827.865324,391.468756 828.988181,389.392075 L829.133066,389.392075 L829.133066,392 L835.363108,392 L835.363108,379.298441 C835.363108,375.869503 832.115276,373.213283 826.81491,373.213283 C821.27307,373.213283 818.544408,376.110977 818.315007,379.49162 L824.44846,379.49162 C824.605418,378.344617 825.450579,377.801299 826.71832,377.801299 C827.877398,377.801299 828.698411,378.332543 828.698411,379.298441 L828.698411,379.346736 C828.698411,380.421297 827.515186,380.759362 824.400165,380.988762 C820.572794,381.266458 817.590584,382.811895 817.590584,386.88074 C817.590584,390.5753 820.077771,392.289769 823.627447,392.289769 Z M825.800717,388.088113 C824.665787,388.088113 823.868921,387.532722 823.868921,386.494381 C823.868921,385.540557 824.54505,384.80406 826.090487,384.562585 C827.152975,384.393553 828.04643,384.176226 828.746706,383.886456 L828.746706,385.431893 C828.746706,387.122215 827.309933,388.088113 825.800717,388.088113 Z M845.876308,392.265622 C847.385523,392.181106 848.50838,391.867189 849.112066,391.686083 L848.146168,387.001478 C847.89262,387.061846 847.240639,387.194657 846.842206,387.194657 C845.972898,387.194657 845.586538,386.808298 845.586538,386.03558 L845.586538,378.284248 L848.774002,378.284248 L848.774002,373.454758 L845.586538,373.454758 L845.586538,369.011627 L838.921842,369.011627 L838.921842,373.454758 L836.555392,373.454758 L836.555392,378.284248 L838.921842,378.284248 L838.921842,386.663413 C838.873547,390.551153 841.276218,392.51917 845.876308,392.265622 Z M853.97469,371.522962 C855.785749,371.522962 857.258743,370.158631 857.258743,368.480383 C857.258743,366.802135 855.785749,365.437804 853.97469,365.437804 C852.163631,365.437804 850.690637,366.802135 850.690637,368.480383 C850.690637,370.158631 852.163631,371.522962 853.97469,371.522962 Z M857.307038,392 L857.307038,373.454758 L850.642342,373.454758 L850.642342,392 L857.307038,392 Z M872.311549,392 L878.541591,373.454758 L871.538831,373.454758 L868.544547,385.721663 L868.351367,385.721663 L865.357083,373.454758 L858.354322,373.454758 L864.584365,392 L872.311549,392 Z M887.895713,392.338064 C893.03912,392.338064 896.34732,389.875024 896.975154,386.011432 L890.889996,386.011432 C890.503637,387.061846 889.404928,387.653459 888.040597,387.653459 C886.060506,387.653459 884.901429,386.349496 884.901429,384.562585 L884.901429,384.272816 L896.975154,384.272816 L896.975154,382.727379 C896.975154,376.823327 893.353036,373.213283 887.750828,373.213283 C882.003734,373.213283 878.333322,377.02858 878.333322,382.775674 C878.333322,388.776315 881.95544,392.338064 887.895713,392.338064 Z M890.841702,380.602403 L884.901429,380.602403 C884.93765,378.996598 886.26576,377.897889 887.895713,377.897889 C889.549813,377.897889 890.80548,379.008671 890.841702,380.602403 Z M917.373574,392 L921.575231,378.187658 L921.76841,378.187658 L925.970067,392 L932.393289,392 L939.685819,367.27301 L932.200109,367.27301 L928.819466,382.534199 L928.626286,382.534199 L924.617809,367.27301 L918.725831,367.27301 L914.717355,382.485904 L914.524175,382.485904 L911.143532,367.27301 L903.657822,367.27301 L910.950352,392 L917.373574,392 Z M947.832739,392.338064 C952.976146,392.338064 956.284347,389.875024 956.912181,386.011432 L950.827023,386.011432 C950.440664,387.061846 949.341955,387.653459 947.977624,387.653459 C945.997533,387.653459 944.838455,386.349496 944.838455,384.562585 L944.838455,384.272816 L956.912181,384.272816 L956.912181,382.727379 C956.912181,376.823327 953.290063,373.213283 947.687855,373.213283 C941.940761,373.213283 938.270349,377.02858 938.270349,382.775674 C938.270349,388.776315 941.892466,392.338064 947.832739,392.338064 Z M950.778728,380.602403 L944.838455,380.602403 C944.874676,378.996598 946.202786,377.897889 947.832739,377.897889 C949.48684,377.897889 950.742507,379.008671 950.778728,380.602403 Z M970.612851,392.241475 C974.573033,392.241475 977.905381,389.150601 977.905381,382.727379 C977.905381,376.014387 974.331558,373.213283 970.661146,373.213283 C967.908336,373.213283 966.16972,374.807015 965.445296,376.690516 L965.348706,376.690516 L965.348706,367.27301 L958.68401,367.27301 L958.68401,392 L965.300412,392 L965.300412,388.957421 L965.445296,388.957421 C966.218015,390.840922 968.004926,392.241475 970.612851,392.241475 Z M968.149811,387.122215 C966.314605,387.122215 965.203822,385.431893 965.203822,382.727379 C965.203822,379.974569 966.314605,378.332543 968.149811,378.332543 C969.985017,378.332543 971.047505,379.974569 971.047505,382.727379 C971.047505,385.480188 969.985017,387.122215 968.149811,387.122215 Z" id="ReactNativeWeb" fill="#FFC800"></path>
            <path d="M75.5809864,28.2772029 C81.0447023,28.2772029 84.0723665,24.5187232 84.0723665,19.9250258 L84.0723665,18.0457859 C84.0723665,13.4520885 81.1143038,9.62400728 75.5809864,9.62400728 C70.2564735,9.62400728 67.1592078,13.4520885 67.1592078,18.0457859 L67.1592078,19.9250258 C67.1592078,24.4491217 70.1172706,28.2772029 75.5809864,28.2772029 Z M75.0589754,47 L99.558695,11.3640442 L94.6169902,11.3640442 L70.1172706,47 L75.0589754,47 Z M75.5809864,22.8482878 C73.8061488,22.8482878 73.2841377,21.3170553 73.2841377,19.9250258 L73.2841377,18.0457859 C73.2841377,16.7233579 73.7365473,15.0529224 75.5809864,15.0529224 C77.5646285,15.0529224 77.9474366,16.6537564 77.9474366,18.0457859 L77.9474366,19.9250258 C77.9474366,21.3170553 77.495027,22.8482878 75.5809864,22.8482878 Z M94.2341821,48.7400369 C99.6978979,48.7400369 102.725562,44.8423542 102.725562,40.3182583 L102.725562,38.4390184 C102.725562,33.845321 99.7674994,30.0172398 94.2341821,30.0172398 C88.8400676,30.0172398 85.8124034,33.9149225 85.8124034,38.4390184 L85.8124034,40.3182583 C85.8124034,44.8423542 88.7704662,48.7400369 94.2341821,48.7400369 Z M94.2341821,43.2415203 C92.3897429,43.2415203 91.8677319,41.6406863 91.8677319,40.3182583 L91.8677319,38.4390184 C91.8677319,37.0469889 92.3897429,35.446155 94.2341821,35.446155 C96.2178241,35.446155 96.6006322,37.0469889 96.6006322,38.4390184 L96.6006322,40.3182583 C96.6006322,41.7102878 96.1482226,43.2415203 94.2341821,43.2415203 Z M129.237168,47.4872103 C137.154336,47.4872103 142.009039,42.945714 142.113441,35.8637638 L133.204452,35.8637638 C132.995648,38.6652232 131.481816,40.1790553 129.376371,40.1790553 C126.853318,40.1790553 125.200283,38.0214096 125.200283,33.6365166 C125.200283,29.2516236 126.853318,27.0939778 129.376371,27.0939778 C131.499216,27.0939778 132.943447,28.6078099 133.204452,31.4092693 L142.113441,31.4092693 C142.06124,24.4491217 137.102135,19.9250258 129.237168,19.9250258 C120.536984,19.9250258 115.386474,25.4931439 115.386474,33.706118 C115.386474,41.9190922 120.536984,47.4872103 129.237168,47.4872103 Z M157.700928,47.4872103 C166.401113,47.4872103 171.551622,41.9190922 171.551622,33.706118 C171.551622,25.4931439 166.401113,19.9250258 157.700928,19.9250258 C149.000744,19.9250258 143.850235,25.4931439 143.850235,33.706118 C143.850235,41.9190922 149.000744,47.4872103 157.700928,47.4872103 Z M157.77053,40.3878598 C155.195275,40.3878598 153.664043,37.8300055 153.664043,33.6365166 C153.664043,29.4430276 155.195275,26.8851734 157.77053,26.8851734 C160.206581,26.8851734 161.737814,29.4430276 161.737814,33.6365166 C161.737814,37.8300055 160.206581,40.3878598 157.77053,40.3878598 Z M183.86785,47.3480074 C187.62633,47.3480074 190.201585,45.3295646 191.315208,42.615107 L191.524013,42.615107 L191.524013,47 L201.059415,47 L201.059415,11.3640442 L191.454411,11.3640442 L191.454411,24.936332 L191.315208,24.936332 C190.271186,22.2218745 187.765533,19.9250258 183.798249,19.9250258 C178.508537,19.9250258 173.358027,23.9619114 173.358027,33.6365166 C173.358027,42.8935129 178.160529,47.3480074 183.86785,47.3480074 Z M187.417525,39.9702509 C184.772669,39.9702509 183.241437,37.6038007 183.241437,33.6365166 C183.241437,29.6692324 184.772669,27.3027822 187.417525,27.3027822 C190.062382,27.3027822 191.663216,29.6692324 191.663216,33.6365166 C191.663216,37.5341992 190.062382,39.9702509 187.417525,39.9702509 Z M217.342938,47.4872103 C224.755495,47.4872103 229.523197,43.937535 230.428016,38.369417 L221.65823,38.369417 C221.101418,39.8832491 219.517984,40.7358671 217.551743,40.7358671 C214.698082,40.7358671 213.027647,38.8566273 213.027647,36.2813727 L213.027647,35.8637638 L230.428016,35.8637638 L230.428016,33.6365166 C230.428016,25.1277361 225.207905,19.9250258 217.134134,19.9250258 C208.851558,19.9250258 203.561846,25.4235424 203.561846,33.706118 C203.561846,42.3541015 208.781957,47.4872103 217.342938,47.4872103 Z M221.588628,30.5740516 L213.027647,30.5740516 C213.079848,28.2598025 214.993888,26.676369 217.342938,26.676369 C219.726789,26.676369 221.536427,28.2772029 221.588628,30.5740516 Z M253.807397,47.4872103 C261.202554,47.4872103 266.648869,43.8853339 266.68367,38.1606125 C266.648869,34.2107287 264.004013,31.91388 258.540297,30.922059 L253.111382,29.9476383 C251.075539,29.5822306 250.501327,28.8514151 250.536127,28.0683985 C250.501327,26.9547749 251.875956,26.3283616 253.528991,26.3283616 C255.425631,26.3283616 257.009065,27.337583 257.148268,28.9732177 L265.987655,28.9732177 C265.74405,23.3180977 261.04595,19.9250258 253.320186,19.9250258 C245.681424,19.9250258 240.965924,23.0570922 241.000725,28.6252103 C240.965924,32.8360996 243.697782,35.5331568 249.144098,36.4901771 L253.876998,37.3253948 C255.965043,37.7082029 256.904662,38.2650147 256.939463,39.2742361 C256.904662,40.3878598 255.634436,41.014273 253.876998,41.014273 C251.701952,41.014273 250.17072,40.0746531 249.909714,38.369417 L240.374312,38.369417 C240.896323,43.8505332 245.629223,47.4872103 253.807397,47.4872103 Z M278.721471,47 L278.721471,31.9660811 C278.738872,29.321225 280.270104,27.7203911 282.619154,27.7203911 C285.072606,27.7203911 286.464636,29.321225 286.447235,31.9660811 L286.447235,47 L296.0523,47 L296.0523,29.9476383 C296.069639,24.1011143 292.380761,19.9250258 286.725641,19.9250258 C282.775757,19.9250258 279.852495,21.9434686 278.65187,25.3539409 L278.373464,25.3539409 L278.373464,11.3640442 L269.116468,11.3640442 L269.116468,47 L278.721471,47 Z M306.976449,47.4176089 C310.456523,47.4176089 313.083979,46.2343838 314.702213,43.2415203 L314.911018,43.2415203 L314.911018,47 L323.889608,47 L323.889608,28.6948118 C323.889608,23.753107 319.208909,19.9250258 311.570147,19.9250258 C303.583377,19.9250258 299.650894,24.1011143 299.320287,28.9732177 L308.159674,28.9732177 C308.385879,27.3201826 309.603905,26.537166 311.430944,26.537166 C313.101379,26.537166 314.284604,27.3027822 314.284604,28.6948118 L314.284604,28.7644132 C314.284604,30.3130461 312.579368,30.8002564 308.090073,31.1308634 C302.574156,31.5310719 298.276265,33.7583192 298.276265,39.6222435 C298.276265,44.9467565 301.860741,47.4176089 306.976449,47.4176089 Z M310.108516,41.3622804 C308.472881,41.3622804 307.324457,40.5618635 307.324457,39.0654317 C307.324457,37.6908026 308.298877,36.62938 310.526125,36.2813727 C312.057357,36.0377675 313.344984,35.7245609 314.354206,35.306952 L314.354206,37.5341992 C314.354206,39.9702509 312.283562,41.3622804 310.108516,41.3622804 Z M336.83223,47 L336.83223,33.0797048 C336.83223,30.0172398 338.937675,27.998797 341.773935,27.998797 C342.765756,27.998797 344.36659,28.1554003 345.32361,28.4860073 L345.32361,20.2904335 C344.557994,20.0642287 343.722776,19.9250258 342.887559,19.9250258 C340.033898,19.9250258 337.806651,21.5954612 336.83223,25.3539409 L336.553824,25.3539409 L336.553824,20.2730331 L327.227227,20.2730331 L327.227227,47 L336.83223,47 Z M358.474931,47.4872103 C365.887488,47.4872103 370.65519,43.937535 371.560009,38.369417 L362.790223,38.369417 C362.233411,39.8832491 360.649977,40.7358671 358.683736,40.7358671 C355.830075,40.7358671 354.15964,38.8566273 354.15964,36.2813727 L354.15964,35.8637638 L371.560009,35.8637638 L371.560009,33.6365166 C371.560009,25.1277361 366.339898,19.9250258 358.266127,19.9250258 C349.983551,19.9250258 344.693839,25.4235424 344.693839,33.706118 C344.693839,42.3541015 349.91395,47.4872103 358.474931,47.4872103 Z M362.720621,30.5740516 L354.15964,30.5740516 C354.211841,28.2598025 356.125881,26.676369 358.474931,26.676369 C360.858782,26.676369 362.66842,28.2772029 362.720621,30.5740516 Z M392.294534,57.0226126 L392.294534,42.615107 L392.433737,42.615107 C393.54736,45.3295646 396.122615,47.3480074 399.881095,47.3480074 C405.588416,47.3480074 410.390917,42.8935129 410.390917,33.6365166 C410.390917,23.9619114 405.240408,19.9250258 399.950696,19.9250258 C395.983412,19.9250258 393.477759,22.2218745 392.433737,24.936332 L392.224932,24.936332 L392.224932,20.2730331 L382.68953,20.2730331 L382.68953,57.0226126 L392.294534,57.0226126 Z M396.331419,39.9702509 C393.686563,39.9702509 392.085729,37.5341992 392.085729,33.6365166 C392.085729,29.6692324 393.686563,27.3027822 396.331419,27.3027822 C398.976275,27.3027822 400.507508,29.6692324 400.507508,33.6365166 C400.507508,37.6038007 398.976275,39.9702509 396.331419,39.9702509 Z M426.048029,47.4872103 C434.748214,47.4872103 439.898723,41.9190922 439.898723,33.706118 C439.898723,25.4931439 434.748214,19.9250258 426.048029,19.9250258 C417.347845,19.9250258 412.197335,25.4931439 412.197335,33.706118 C412.197335,41.9190922 417.347845,47.4872103 426.048029,47.4872103 Z M426.117631,40.3878598 C423.542376,40.3878598 422.011144,37.8300055 422.011144,33.6365166 C422.011144,29.4430276 423.542376,26.8851734 426.117631,26.8851734 C428.553682,26.8851734 430.084915,29.4430276 430.084915,33.6365166 C430.084915,37.8300055 428.553682,40.3878598 426.117631,40.3878598 Z M454.790206,47.4872103 C462.185362,47.4872103 467.631678,43.8853339 467.666479,38.1606125 C467.631678,34.2107287 464.986822,31.91388 459.523106,30.922059 L454.094191,29.9476383 C452.058348,29.5822306 451.484136,28.8514151 451.518936,28.0683985 C451.484136,26.9547749 452.858765,26.3283616 454.5118,26.3283616 C456.40844,26.3283616 457.991874,27.337583 458.131076,28.9732177 L466.970464,28.9732177 C466.726859,23.3180977 462.028759,19.9250258 454.302995,19.9250258 C446.664233,19.9250258 441.948733,23.0570922 441.983534,28.6252103 C441.948733,32.8360996 444.680591,35.5331568 450.126907,36.4901771 L454.859807,37.3253948 C456.947851,37.7082029 457.887471,38.2650147 457.922272,39.2742361 C457.887471,40.3878598 456.617244,41.014273 454.859807,41.014273 C452.684761,41.014273 451.153528,40.0746531 450.892523,38.369417 L441.357121,38.369417 C441.879132,43.8505332 446.612032,47.4872103 454.790206,47.4872103 Z M482.349136,47.4872103 C489.744293,47.4872103 495.190609,43.8853339 495.225409,38.1606125 C495.190609,34.2107287 492.545753,31.91388 487.082037,30.922059 L481.653122,29.9476383 C479.617278,29.5822306 479.043066,28.8514151 479.077867,28.0683985 C479.043066,26.9547749 480.417695,26.3283616 482.07073,26.3283616 C483.967371,26.3283616 485.550804,27.337583 485.690007,28.9732177 L494.529395,28.9732177 C494.285789,23.3180977 489.58769,19.9250258 481.861926,19.9250258 C474.223164,19.9250258 469.507664,23.0570922 469.542465,28.6252103 C469.507664,32.8360996 472.239522,35.5331568 477.685837,36.4901771 L482.418738,37.3253948 C484.506782,37.7082029 485.446402,38.2650147 485.481203,39.2742361 C485.446402,40.3878598 484.176175,41.014273 482.418738,41.014273 C480.243692,41.014273 478.712459,40.0746531 478.451454,38.369417 L468.916051,38.369417 C469.438062,43.8505332 474.170963,47.4872103 482.349136,47.4872103 Z M502.460709,17.4889741 C505.070764,17.4889741 507.193609,15.5227324 507.193609,13.1040811 C507.193609,10.6854298 505.070764,8.71918809 502.460709,8.71918809 C499.850654,8.71918809 497.727809,10.6854298 497.727809,13.1040811 C497.727809,15.5227324 499.850654,17.4889741 502.460709,17.4889741 Z M507.263211,47 L507.263211,20.2730331 L497.658207,20.2730331 L497.658207,47 L507.263211,47 Z M527.931431,47.3480074 C533.638752,47.3480074 538.441254,42.8935129 538.441254,33.6365166 C538.441254,23.9619114 533.290745,19.9250258 528.001033,19.9250258 C524.033749,19.9250258 521.528095,22.2218745 520.484073,24.936332 L520.34487,24.936332 L520.34487,11.3640442 L510.739867,11.3640442 L510.739867,47 L520.275269,47 L520.275269,42.615107 L520.484073,42.615107 C521.597697,45.3295646 524.172952,47.3480074 527.931431,47.3480074 Z M524.381756,39.9702509 C521.7369,39.9702509 520.136066,37.5341992 520.136066,33.6365166 C520.136066,29.6692324 521.7369,27.3027822 524.381756,27.3027822 C527.026612,27.3027822 528.557845,29.6692324 528.557845,33.6365166 C528.557845,37.6038007 527.026612,39.9702509 524.381756,39.9702509 Z M550.827095,47 L550.827095,11.3640442 L541.222091,11.3640442 L541.222091,47 L550.827095,47 Z M567.249625,47.4872103 C574.662182,47.4872103 579.429884,43.937535 580.334703,38.369417 L571.564917,38.369417 C571.008105,39.8832491 569.424671,40.7358671 567.45843,40.7358671 C564.604769,40.7358671 562.934334,38.8566273 562.934334,36.2813727 L562.934334,35.8637638 L580.334703,35.8637638 L580.334703,33.6365166 C580.334703,25.1277361 575.114592,19.9250258 567.040821,19.9250258 C558.758245,19.9250258 553.468533,25.4235424 553.468533,33.706118 C553.468533,42.3541015 558.688644,47.4872103 567.249625,47.4872103 Z M571.495315,30.5740516 L562.934334,30.5740516 C562.986535,28.2598025 564.900575,26.676369 567.249625,26.676369 C569.633476,26.676369 571.443114,28.2772029 571.495315,30.5740516 Z M609.908615,55.0737712 C606.080534,50.4800738 603.226873,41.4318819 603.226873,33.2189077 C603.226873,25.0059335 606.080534,15.9577416 609.908615,11.3640442 L600.512416,11.3640442 C595.431508,17.5585756 593.204261,24.6579261 593.204261,33.2189077 C593.204261,41.7798893 595.431508,48.8792399 600.512416,55.0737712 L609.908615,55.0737712 Z M623.547168,47.3828081 C625.722214,47.2610055 627.340448,46.8085959 628.210467,46.5475904 L626.818437,39.7962472 C626.453029,39.8832491 625.513409,40.0746531 624.939197,40.0746531 C623.686371,40.0746531 623.129559,39.5178413 623.129559,38.4042177 L623.129559,27.2331808 L627.723256,27.2331808 L627.723256,20.2730331 L623.129559,20.2730331 L623.129559,13.8696973 L613.524555,13.8696973 L613.524555,20.2730331 L610.114083,20.2730331 L610.114083,27.2331808 L613.524555,27.2331808 L613.524555,39.3090369 C613.454954,44.9119557 616.917627,47.7482159 623.547168,47.3828081 Z M640.526578,47 L640.526578,31.9660811 C640.543978,29.321225 642.075211,27.7203911 644.42426,27.7203911 C646.877712,27.7203911 648.269742,29.321225 648.252342,31.9660811 L648.252342,47 L657.857407,47 L657.857407,29.9476383 C657.874746,24.1011143 654.185867,19.9250258 648.530747,19.9250258 C644.580864,19.9250258 641.657602,21.9434686 640.456976,25.3539409 L640.17857,25.3539409 L640.17857,11.3640442 L630.921574,11.3640442 L630.921574,47 L640.526578,47 Z M668.781556,47.4176089 C672.26163,47.4176089 674.889085,46.2343838 676.50732,43.2415203 L676.716124,43.2415203 L676.716124,47 L685.694714,47 L685.694714,28.6948118 C685.694714,23.753107 681.014015,19.9250258 673.375253,19.9250258 C665.388484,19.9250258 661.456,24.1011143 661.125393,28.9732177 L669.964781,28.9732177 C670.190986,27.3201826 671.409011,26.537166 673.23605,26.537166 C674.906486,26.537166 676.089711,27.3027822 676.089711,28.6948118 L676.089711,28.7644132 C676.089711,30.3130461 674.384475,30.8002564 669.895179,31.1308634 C664.379262,31.5310719 660.081371,33.7583192 660.081371,39.6222435 C660.081371,44.9467565 663.665847,47.4176089 668.781556,47.4176089 Z M671.913622,41.3622804 C670.277987,41.3622804 669.129563,40.5618635 669.129563,39.0654317 C669.129563,37.6908026 670.103984,36.62938 672.331231,36.2813727 C673.862464,36.0377675 675.150091,35.7245609 676.159312,35.306952 L676.159312,37.5341992 C676.159312,39.9702509 674.088668,41.3622804 671.913622,41.3622804 Z M700.794982,47.3828081 C702.970029,47.2610055 704.588263,46.8085959 705.458281,46.5475904 L704.066252,39.7962472 C703.700844,39.8832491 702.761224,40.0746531 702.187012,40.0746531 C700.934185,40.0746531 700.377374,39.5178413 700.377374,38.4042177 L700.377374,27.2331808 L704.971071,27.2331808 L704.971071,20.2730331 L700.377374,20.2730331 L700.377374,13.8696973 L690.77237,13.8696973 L690.77237,20.2730331 L687.361898,20.2730331 L687.361898,27.2331808 L690.77237,27.2331808 L690.77237,39.3090369 C690.702768,44.9119557 694.165442,47.7482159 700.794982,47.3828081 Z M728.350338,47.4872103 C735.745495,47.4872103 741.191811,43.8853339 741.226611,38.1606125 C741.191811,34.2107287 738.546954,31.91388 733.083239,30.922059 L727.654323,29.9476383 C725.61848,29.5822306 725.044268,28.8514151 725.079069,28.0683985 C725.044268,26.9547749 726.418897,26.3283616 728.071932,26.3283616 C729.968573,26.3283616 731.552006,27.337583 731.691209,28.9732177 L740.530597,28.9732177 C740.286991,23.3180977 735.588892,19.9250258 727.863128,19.9250258 C720.224366,19.9250258 715.508866,23.0570922 715.543667,28.6252103 C715.508866,32.8360996 718.240724,35.5331568 723.687039,36.4901771 L728.41994,37.3253948 C730.507984,37.7082029 731.447604,38.2650147 731.482405,39.2742361 C731.447604,40.3878598 730.177377,41.014273 728.41994,41.014273 C726.244894,41.014273 724.713661,40.0746531 724.452656,38.369417 L714.917253,38.369417 C715.439264,43.8505332 720.172165,47.4872103 728.350338,47.4872103 Z M755.422059,47.3828081 C757.597105,47.2610055 759.215339,46.8085959 760.085357,46.5475904 L758.693328,39.7962472 C758.32792,39.8832491 757.3883,40.0746531 756.814088,40.0746531 C755.561261,40.0746531 755.00445,39.5178413 755.00445,38.4042177 L755.00445,27.2331808 L759.598147,27.2331808 L759.598147,20.2730331 L755.00445,20.2730331 L755.00445,13.8696973 L745.399446,13.8696973 L745.399446,20.2730331 L741.988974,20.2730331 L741.988974,27.2331808 L745.399446,27.2331808 L745.399446,39.3090369 C745.329844,44.9119557 748.792518,47.7482159 755.422059,47.3828081 Z M767.042148,17.4889741 C769.652204,17.4889741 771.775049,15.5227324 771.775049,13.1040811 C771.775049,10.6854298 769.652204,8.71918809 767.042148,8.71918809 C764.432093,8.71918809 762.309248,10.6854298 762.309248,13.1040811 C762.309248,15.5227324 764.432093,17.4889741 767.042148,17.4889741 Z M771.84465,47 L771.84465,20.2730331 L762.239647,20.2730331 L762.239647,47 L771.84465,47 Z M785.065513,47 L785.065513,11.3640442 L775.460509,11.3640442 L775.460509,47 L785.065513,47 Z M798.286375,47 L798.286375,11.3640442 L788.681371,11.3640442 L788.681371,47 L798.286375,47 Z M821.526378,47 L821.526378,27.2331808 L826.398481,27.2331808 L826.398481,20.2730331 L821.526378,20.2730331 L821.526378,19.089808 C821.526378,17.8369815 822.013588,17.0017638 823.823227,17.0017638 C824.519242,17.0017638 825.563264,17.1409667 826.259278,17.3497711 L827.651308,10.459225 C826.537684,10.1808191 823.96243,9.69360876 821.526378,9.69360876 C815.679854,9.69360876 811.921374,12.8952767 811.921374,19.5074169 L811.921374,20.2730331 L808.510902,20.2730331 L808.510902,27.2331808 L811.921374,27.2331808 L811.921374,47 L821.526378,47 Z M840.802619,47.4872103 C848.215176,47.4872103 852.982877,43.937535 853.887697,38.369417 L845.117911,38.369417 C844.561099,39.8832491 842.977665,40.7358671 841.011424,40.7358671 C838.157763,40.7358671 836.487328,38.8566273 836.487328,36.2813727 L836.487328,35.8637638 L853.887697,35.8637638 L853.887697,33.6365166 C853.887697,25.1277361 848.667586,19.9250258 840.593815,19.9250258 C832.311239,19.9250258 827.021527,25.4235424 827.021527,33.706118 C827.021527,42.3541015 832.241638,47.4872103 840.802619,47.4872103 Z M845.048309,30.5740516 L836.487328,30.5740516 C836.539529,28.2598025 838.453569,26.676369 840.802619,26.676369 C843.18647,26.676369 844.996108,28.2772029 845.048309,30.5740516 Z M869.335982,47.4872103 C876.748539,47.4872103 881.51624,43.937535 882.421059,38.369417 L873.651273,38.369417 C873.094461,39.8832491 871.511028,40.7358671 869.544786,40.7358671 C866.691125,40.7358671 865.02069,38.8566273 865.02069,36.2813727 L865.02069,35.8637638 L882.421059,35.8637638 L882.421059,33.6365166 C882.421059,25.1277361 877.200948,19.9250258 869.127177,19.9250258 C860.844601,19.9250258 855.554889,25.4235424 855.554889,33.706118 C855.554889,42.3541015 860.775,47.4872103 869.335982,47.4872103 Z M873.581672,30.5740516 L865.02069,30.5740516 C865.072891,28.2598025 866.986932,26.676369 869.335982,26.676369 C871.719832,26.676369 873.529471,28.2772029 873.581672,30.5740516 Z M894.667676,47 L894.667676,11.3640442 L885.062672,11.3640442 L885.062672,47 L894.667676,47 Z M910.533395,47.4872103 C917.928552,47.4872103 923.374867,43.8853339 923.409668,38.1606125 C923.374867,34.2107287 920.730011,31.91388 915.266295,30.922059 L909.83738,29.9476383 C907.801537,29.5822306 907.227325,28.8514151 907.262125,28.0683985 C907.227325,26.9547749 908.601954,26.3283616 910.254989,26.3283616 C912.151629,26.3283616 913.735063,27.337583 913.874266,28.9732177 L922.713653,28.9732177 C922.470048,23.3180977 917.771948,19.9250258 910.046184,19.9250258 C902.407422,19.9250258 897.691922,23.0570922 897.726723,28.6252103 C897.691922,32.8360996 900.42378,35.5331568 905.870096,36.4901771 L910.602996,37.3253948 C912.69104,37.7082029 913.63066,38.2650147 913.665461,39.2742361 C913.63066,40.3878598 912.360433,41.014273 910.602996,41.014273 C908.42795,41.014273 906.896718,40.0746531 906.635712,38.369417 L897.10031,38.369417 C897.622321,43.8505332 902.355221,47.4872103 910.533395,47.4872103 Z M943.935377,47 L943.935377,31.9660811 C943.952778,29.321225 945.449209,27.7203911 947.83306,27.7203911 C950.251711,27.7203911 951.678541,29.321225 951.661141,31.9660811 L951.661141,47 L961.266206,47 L961.266206,29.9476383 C961.283545,24.1359151 957.612067,19.9250258 951.939547,19.9250258 C948.007064,19.9250258 944.892398,21.9782693 943.726573,25.3539409 L943.448167,25.3539409 L943.448167,20.2730331 L934.330373,20.2730331 L934.330373,47 L943.935377,47 Z M972.190355,47.4176089 C975.670429,47.4176089 978.297885,46.2343838 979.916119,43.2415203 L980.124924,43.2415203 L980.124924,47 L989.103514,47 L989.103514,28.6948118 C989.103514,23.753107 984.422815,19.9250258 976.784053,19.9250258 C968.797283,19.9250258 964.8648,24.1011143 964.534193,28.9732177 L973.37358,28.9732177 C973.599785,27.3201826 974.817811,26.537166 976.64485,26.537166 C978.315285,26.537166 979.49851,27.3027822 979.49851,28.6948118 L979.49851,28.7644132 C979.49851,30.3130461 977.793274,30.8002564 973.303979,31.1308634 C967.788062,31.5310719 963.490171,33.7583192 963.490171,39.6222435 C963.490171,44.9467565 967.074647,47.4176089 972.190355,47.4176089 Z M975.322422,41.3622804 C973.686787,41.3622804 972.538363,40.5618635 972.538363,39.0654317 C972.538363,37.6908026 973.512783,36.62938 975.740031,36.2813727 C977.271263,36.0377675 978.55889,35.7245609 979.568112,35.306952 L979.568112,37.5341992 C979.568112,39.9702509 977.497468,41.3622804 975.322422,41.3622804 Z M1004.20378,47.3828081 C1006.37883,47.2610055 1007.99706,46.8085959 1008.86708,46.5475904 L1007.47505,39.7962472 C1007.10964,39.8832491 1006.17002,40.0746531 1005.59581,40.0746531 C1004.34298,40.0746531 1003.78617,39.5178413 1003.78617,38.4042177 L1003.78617,27.2331808 L1008.37987,27.2331808 L1008.37987,20.2730331 L1003.78617,20.2730331 L1003.78617,13.8696973 L994.181169,13.8696973 L994.181169,20.2730331 L990.770697,20.2730331 L990.770697,27.2331808 L994.181169,27.2331808 L994.181169,39.3090369 C994.111568,44.9119557 997.574241,47.7482159 1004.20378,47.3828081 Z M1015.82387,17.4889741 C1018.43393,17.4889741 1020.55677,15.5227324 1020.55677,13.1040811 C1020.55677,10.6854298 1018.43393,8.71918809 1015.82387,8.71918809 C1013.21382,8.71918809 1011.09097,10.6854298 1011.09097,13.1040811 C1011.09097,15.5227324 1013.21382,17.4889741 1015.82387,17.4889741 Z M1020.62637,47 L1020.62637,20.2730331 L1011.02137,20.2730331 L1011.02137,47 L1020.62637,47 Z M1042.19941,47 L1051.178,20.2730331 L1041.08579,20.2730331 L1036.7705,37.9518081 L1036.49209,37.9518081 L1032.1768,20.2730331 L1022.08459,20.2730331 L1031.06318,47 L1042.19941,47 Z M1064.60783,47.4872103 C1072.02039,47.4872103 1076.78809,43.937535 1077.69291,38.369417 L1068.92313,38.369417 C1068.36631,39.8832491 1066.78288,40.7358671 1064.81664,40.7358671 C1061.96298,40.7358671 1060.29254,38.8566273 1060.29254,36.2813727 L1060.29254,35.8637638 L1077.69291,35.8637638 L1077.69291,33.6365166 C1077.69291,25.1277361 1072.4728,19.9250258 1064.39903,19.9250258 C1056.11645,19.9250258 1050.82674,25.4235424 1050.82674,33.706118 C1050.82674,42.3541015 1056.04685,47.4872103 1064.60783,47.4872103 Z M1068.85352,30.5740516 L1060.29254,30.5740516 C1060.34474,28.2598025 1062.25878,26.676369 1064.60783,26.676369 C1066.99169,26.676369 1068.80132,28.2772029 1068.85352,30.5740516 Z M1087.99069,55.0737712 C1093.0716,48.8792399 1095.29884,41.7798893 1095.29884,33.2189077 C1095.29884,24.6579261 1093.0716,17.5585756 1087.99069,11.3640442 L1078.59449,11.3640442 C1082.42257,15.9577416 1085.27623,25.0059335 1085.27623,33.2189077 C1085.27623,41.4318819 1082.42257,50.4800738 1078.59449,55.0737712 L1087.99069,55.0737712 Z M1122.019,47.4872103 C1130.71919,47.4872103 1135.86969,41.9190922 1135.86969,33.706118 C1135.86969,25.4931439 1130.71919,19.9250258 1122.019,19.9250258 C1113.31882,19.9250258 1108.16831,25.4931439 1108.16831,33.706118 C1108.16831,41.9190922 1113.31882,47.4872103 1122.019,47.4872103 Z M1122.0886,40.3878598 C1119.51335,40.3878598 1117.98212,37.8300055 1117.98212,33.6365166 C1117.98212,29.4430276 1119.51335,26.8851734 1122.0886,26.8851734 C1124.52465,26.8851734 1126.05589,29.4430276 1126.05589,33.6365166 C1126.05589,37.8300055 1124.52465,40.3878598 1122.0886,40.3878598 Z M1155.63327,47 L1164.61186,20.2730331 L1154.51965,20.2730331 L1150.20436,37.9518081 L1149.92595,37.9518081 L1145.61066,20.2730331 L1135.51844,20.2730331 L1144.49703,47 L1155.63327,47 Z M1178.04169,47.4872103 C1185.45425,47.4872103 1190.22195,43.937535 1191.12677,38.369417 L1182.35698,38.369417 C1181.80017,39.8832491 1180.21674,40.7358671 1178.2505,40.7358671 C1175.39684,40.7358671 1173.7264,38.8566273 1173.7264,36.2813727 L1173.7264,35.8637638 L1191.12677,35.8637638 L1191.12677,33.6365166 C1191.12677,25.1277361 1185.90666,19.9250258 1177.83289,19.9250258 C1169.55031,19.9250258 1164.2606,25.4235424 1164.2606,33.706118 C1164.2606,42.3541015 1169.48071,47.4872103 1178.04169,47.4872103 Z M1182.28738,30.5740516 L1173.7264,30.5740516 C1173.7786,28.2598025 1175.69264,26.676369 1178.04169,26.676369 C1180.42554,26.676369 1182.23518,28.2772029 1182.28738,30.5740516 Z M1203.37339,47 L1203.37339,33.0797048 C1203.37339,30.0172398 1205.47883,27.998797 1208.31509,27.998797 C1209.30691,27.998797 1210.90775,28.1554003 1211.86477,28.4860073 L1211.86477,20.2904335 C1211.09915,20.0642287 1210.26393,19.9250258 1209.42872,19.9250258 C1206.57506,19.9250258 1204.34781,21.5954612 1203.37339,25.3539409 L1203.09498,25.3539409 L1203.09498,20.2730331 L1193.76838,20.2730331 L1193.76838,47 L1203.37339,47 Z M1233.99122,47.3828081 C1236.16627,47.2610055 1237.7845,46.8085959 1238.65452,46.5475904 L1237.26249,39.7962472 C1236.89709,39.8832491 1235.95747,40.0746531 1235.38325,40.0746531 C1234.13043,40.0746531 1233.57361,39.5178413 1233.57361,38.4042177 L1233.57361,27.2331808 L1238.16731,27.2331808 L1238.16731,20.2730331 L1233.57361,20.2730331 L1233.57361,13.8696973 L1223.96861,13.8696973 L1223.96861,20.2730331 L1220.55814,20.2730331 L1220.55814,27.2331808 L1223.96861,27.2331808 L1223.96861,39.3090369 C1223.89901,44.9119557 1227.36168,47.7482159 1233.99122,47.3828081 Z M1245.61131,17.4889741 C1248.22137,17.4889741 1250.34421,15.5227324 1250.34421,13.1040811 C1250.34421,10.6854298 1248.22137,8.71918809 1245.61131,8.71918809 C1243.00126,8.71918809 1240.87841,10.6854298 1240.87841,13.1040811 C1240.87841,15.5227324 1243.00126,17.4889741 1245.61131,17.4889741 Z M1250.41382,47 L1250.41382,20.2730331 L1240.80881,20.2730331 L1240.80881,47 L1250.41382,47 Z M1263.63468,47 L1263.63468,31.4092693 C1263.63468,29.0776199 1264.8527,27.6507896 1266.83635,27.6507896 C1268.81999,27.6507896 1270.10762,29.0776199 1270.10762,31.4092693 L1270.10762,47 L1279.29501,47 L1279.29501,31.4092693 C1279.29501,29.0776199 1280.51304,27.6507896 1282.49668,27.6507896 C1284.48032,27.6507896 1285.76795,29.0776199 1285.76795,31.4092693 L1285.76795,47 L1295.37295,47 L1295.37295,28.9732177 C1295.37295,23.4921014 1291.85808,19.9250258 1286.74237,19.9250258 C1282.77508,19.9250258 1279.57342,22.0826715 1278.6686,25.3539409 L1278.39019,25.3539409 C1277.83338,22.0826715 1274.84052,19.9250258 1271.08204,19.9250258 C1267.37576,19.9250258 1264.5395,22.01307 1263.42587,25.3539409 L1263.14747,25.3539409 L1263.14747,20.2730331 L1254.02967,20.2730331 L1254.02967,47 L1263.63468,47 Z M1311.65664,47.4872103 C1319.0692,47.4872103 1323.8369,43.937535 1324.74172,38.369417 L1315.97193,38.369417 C1315.41512,39.8832491 1313.83169,40.7358671 1311.86544,40.7358671 C1309.01178,40.7358671 1307.34135,38.8566273 1307.34135,36.2813727 L1307.34135,35.8637638 L1324.74172,35.8637638 L1324.74172,33.6365166 C1324.74172,25.1277361 1319.52161,19.9250258 1311.44784,19.9250258 C1303.16526,19.9250258 1297.87555,25.4235424 1297.87555,33.706118 C1297.87555,42.3541015 1303.09566,47.4872103 1311.65664,47.4872103 Z M1315.90233,30.5740516 L1307.34135,30.5740516 C1307.39355,28.2598025 1309.30759,26.676369 1311.65664,26.676369 C1314.04049,26.676369 1315.85013,28.2772029 1315.90233,30.5740516 Z" id="%codesharepossible(thatstillfeelsnative)overtime" fill="#00B8FF" transform="translate(695.950463, 32.870900) rotate(-360.000000) translate(-695.950463, -32.870900) "></path>
        </g>
    </g>
</svg>