<?xml version="1.0" encoding="UTF-8"?>
<svg width="1389px" height="858px" viewBox="0 0 1389 858" version="1.1" xmlns="http://www.w3.org/2000/svg" xmlns:xlink="http://www.w3.org/1999/xlink">
    <!-- Generator: Sketch 61 (89581) - https://sketch.com -->
    <title>code-sharing</title>
    <desc>Created with Sketch.</desc>
    <g id="code-sharing" stroke="none" stroke-width="1" fill="none" fill-rule="evenodd">
        <rect fill="#000000" x="0" y="0" width="1389" height="858"></rect>
        <line x1="245" y1="291" x2="245.5" y2="730.5" id="Line-3" stroke="#5B0050" stroke-width="10" stroke-linecap="round"></line>
        <line x1="1332" y1="731" x2="245" y2="731" id="Line-3" stroke="#5B0050" stroke-width="10" stroke-linecap="round"></line>
        <path d="M245,643 C341.031086,603.955582 859.911509,600.807482 876.359241,597.369012 C888.662584,594.796945 900.887242,596.192345 930.754659,586.036596 C945.149019,581.142114 971.933354,531.769097 1034,501 C1096.75115,469.891565 1190.81,457.40841 1209,457" id="Path-2" stroke="#979797" stroke-width="6"></path>
        <g id="Group" transform="translate(37.000000, 38.000000)" fill-rule="nonzero">
            <polygon id="*" fill="#FFC800" points="212.732105 615.818378 212.118476 609.068456 217.717843 612.980343 220.78599 607.611086 214.649697 604.77305 220.78599 601.935015 217.717843 596.565758 212.118476 600.477645 212.732105 593.727722 206.595811 593.727722 207.209441 600.477645 201.610073 596.565758 198.541926 601.935015 204.67822 604.77305 198.541926 607.611086 201.610073 612.980343 207.209441 609.068456 206.595811 615.818378"></polygon>
            <polygon id="*" fill="#FFC800" points="908.732105 553.818378 908.118476 547.068456 913.717843 550.980343 916.78599 545.611086 910.649697 542.77305 916.78599 539.935015 913.717843 534.565758 908.118476 538.477645 908.732105 531.727722 902.595811 531.727722 903.209441 538.477645 897.610073 534.565758 894.541926 539.935015 900.67822 542.77305 894.541926 545.611086 897.610073 550.980343 903.209441 547.068456 902.595811 553.818378"></polygon>
            <path d="M419.559631,766 L419.559631,738.15941 L430.278258,738.15941 L430.278258,730.364044 L399.305601,730.364044 L399.305601,738.15941 L410.024228,738.15941 L410.024228,766 L419.559631,766 Z M437.583214,736.488974 C440.193269,736.488974 442.316114,734.522732 442.316114,732.104081 C442.316114,729.68543 440.193269,727.719188 437.583214,727.719188 C434.973159,727.719188 432.850314,729.68543 432.850314,732.104081 C432.850314,734.522732 434.973159,736.488974 437.583214,736.488974 Z M442.385716,766 L442.385716,739.273033 L432.780712,739.273033 L432.780712,766 L442.385716,766 Z M455.606578,766 L455.606578,750.409269 C455.606578,748.07762 456.824604,746.65079 458.808246,746.65079 C460.791888,746.65079 462.079516,748.07762 462.079516,750.409269 L462.079516,766 L471.266911,766 L471.266911,750.409269 C471.266911,748.07762 472.484936,746.65079 474.468578,746.65079 C476.452221,746.65079 477.739848,748.07762 477.739848,750.409269 L477.739848,766 L487.344852,766 L487.344852,747.973218 C487.344852,742.492101 483.829977,738.925026 478.714268,738.925026 C474.746984,738.925026 471.545316,741.082672 470.640497,744.353941 L470.362091,744.353941 C469.80528,741.082672 466.812416,738.925026 463.053936,738.925026 C459.347658,738.925026 456.511398,741.01307 455.397774,744.353941 L455.119368,744.353941 L455.119368,739.273033 L446.001575,739.273033 L446.001575,766 L455.606578,766 Z M503.628541,766.48721 C511.041098,766.48721 515.808799,762.937535 516.713618,757.369417 L507.943832,757.369417 C507.38702,758.883249 505.803587,759.735867 503.837345,759.735867 C500.983684,759.735867 499.313249,757.856627 499.313249,755.281373 L499.313249,754.863764 L516.713618,754.863764 L516.713618,752.636517 C516.713618,744.127736 511.493507,738.925026 503.419736,738.925026 C495.13716,738.925026 489.847448,744.423542 489.847448,752.706118 C489.847448,761.354101 495.067559,766.48721 503.628541,766.48721 Z M507.874231,749.574052 L499.313249,749.574052 C499.36545,747.259803 501.279491,745.676369 503.628541,745.676369 C506.012391,745.676369 507.82203,747.277203 507.874231,749.574052 Z M540.092999,766.48721 C547.488156,766.48721 552.934472,762.885334 552.969272,757.160613 C552.934472,753.210729 550.289615,750.91388 544.8259,749.922059 L539.396984,748.947638 C537.361141,748.582231 536.786929,747.851415 536.82173,747.068398 C536.786929,745.954775 538.161558,745.328362 539.814593,745.328362 C541.711234,745.328362 543.294667,746.337583 543.43387,747.973218 L552.273258,747.973218 C552.029652,742.318098 547.331553,738.925026 539.605789,738.925026 C531.967027,738.925026 527.251527,742.057092 527.286328,747.62521 C527.251527,751.8361 529.983385,754.533157 535.4297,755.490177 L540.162601,756.325395 C542.250645,756.708203 543.190265,757.265015 543.225066,758.274236 C543.190265,759.38786 541.920038,760.014273 540.162601,760.014273 C537.987555,760.014273 536.456322,759.074653 536.195317,757.369417 L526.659914,757.369417 C527.181925,762.850533 531.914826,766.48721 540.092999,766.48721 Z M560.204572,736.488974 C562.814627,736.488974 564.937472,734.522732 564.937472,732.104081 C564.937472,729.68543 562.814627,727.719188 560.204572,727.719188 C557.594517,727.719188 555.471671,729.68543 555.471671,732.104081 C555.471671,734.522732 557.594517,736.488974 560.204572,736.488974 Z M565.007074,766 L565.007074,739.273033 L555.40207,739.273033 L555.40207,766 L565.007074,766 Z M578.227936,766 L578.227936,750.966081 C578.245337,748.321225 579.741768,746.720391 582.125619,746.720391 C584.54427,746.720391 585.9711,748.321225 585.9537,750.966081 L585.9537,766 L595.558765,766 L595.558765,748.947638 C595.576104,743.135915 591.904626,738.925026 586.232106,738.925026 C582.299623,738.925026 579.184957,740.978269 578.019132,744.353941 L577.740726,744.353941 L577.740726,739.273033 L568.622932,739.273033 L568.622932,766 L578.227936,766 Z M611.911829,766.48721 C619.828997,766.48721 624.6837,761.945714 624.788103,754.863764 L615.879114,754.863764 C615.670309,757.665223 614.156477,759.179055 612.051032,759.179055 C609.527979,759.179055 607.874944,757.02141 607.874944,752.636517 C607.874944,748.251624 609.527979,746.093978 612.051032,746.093978 C614.173877,746.093978 615.618108,747.60781 615.879114,750.409269 L624.788103,750.409269 C624.735901,743.449122 619.776796,738.925026 611.911829,738.925026 C603.211645,738.925026 598.061136,744.493144 598.061136,752.706118 C598.061136,760.919092 603.211645,766.48721 611.911829,766.48721 Z M640.305988,766.48721 C647.718545,766.48721 652.486246,762.937535 653.391066,757.369417 L644.62128,757.369417 C644.064468,758.883249 642.481034,759.735867 640.514793,759.735867 C637.661132,759.735867 635.990697,757.856627 635.990697,755.281373 L635.990697,754.863764 L653.391066,754.863764 L653.391066,752.636517 C653.391066,744.127736 648.170955,738.925026 640.097184,738.925026 C631.814608,738.925026 626.524896,744.423542 626.524896,752.706118 C626.524896,761.354101 631.745007,766.48721 640.305988,766.48721 Z M644.551678,749.574052 L635.990697,749.574052 C636.042898,747.259803 637.956938,745.676369 640.305988,745.676369 C642.689839,745.676369 644.499477,747.277203 644.551678,749.574052 Z M674.125591,766 L674.125591,752.079705 C674.125591,749.01724 676.231035,746.998797 679.067295,746.998797 C680.059116,746.998797 681.65995,747.1554 682.616971,747.486007 L682.616971,739.290434 C681.851354,739.064229 681.016137,738.925026 680.180919,738.925026 C677.327259,738.925026 675.100011,740.595461 674.125591,744.353941 L673.847185,744.353941 L673.847185,739.273033 L664.520587,739.273033 L664.520587,766 L674.125591,766 Z M695.768291,766.48721 C703.180849,766.48721 707.94855,762.937535 708.853369,757.369417 L700.083583,757.369417 C699.526771,758.883249 697.943338,759.735867 695.977096,759.735867 C693.123435,759.735867 691.453,757.856627 691.453,755.281373 L691.453,754.863764 L708.853369,754.863764 L708.853369,752.636517 C708.853369,744.127736 703.633258,738.925026 695.559487,738.925026 C687.276911,738.925026 681.987199,744.423542 681.987199,752.706118 C681.987199,761.354101 687.20731,766.48721 695.768291,766.48721 Z M700.013982,749.574052 L691.453,749.574052 C691.505201,747.259803 693.419242,745.676369 695.768291,745.676369 C698.152142,745.676369 699.96178,747.277203 700.013982,749.574052 Z M721.099986,766 L721.099986,730.364044 L711.494982,730.364044 L711.494982,766 L721.099986,766 Z M737.522516,766.48721 C744.935074,766.48721 749.702775,762.937535 750.607594,757.369417 L741.837808,757.369417 C741.280996,758.883249 739.697563,759.735867 737.731321,759.735867 C734.87766,759.735867 733.207225,757.856627 733.207225,755.281373 L733.207225,754.863764 L750.607594,754.863764 L750.607594,752.636517 C750.607594,744.127736 745.387483,738.925026 737.313712,738.925026 C729.031136,738.925026 723.741424,744.423542 723.741424,752.706118 C723.741424,761.354101 728.961535,766.48721 737.522516,766.48721 Z M741.768206,749.574052 L733.207225,749.574052 C733.259426,747.259803 735.173467,745.676369 737.522516,745.676369 C739.906367,745.676369 741.716005,747.277203 741.768206,749.574052 Z M760.696565,766.417609 C764.176639,766.417609 766.804095,765.234384 768.422329,762.24152 L768.631133,762.24152 L768.631133,766 L777.609724,766 L777.609724,747.694812 C777.609724,742.753107 772.929025,738.925026 765.290263,738.925026 C757.303493,738.925026 753.37101,743.101114 753.040403,747.973218 L761.87979,747.973218 C762.105995,746.320183 763.324021,745.537166 765.15106,745.537166 C766.821495,745.537166 768.00472,746.302782 768.00472,747.694812 L768.00472,747.764413 C768.00472,749.313046 766.299484,749.800256 761.810189,750.130863 C756.294272,750.531072 751.996381,752.758319 751.996381,758.622244 C751.996381,763.946756 755.580857,766.417609 760.696565,766.417609 Z M763.828632,760.36228 C762.192997,760.36228 761.044573,759.561863 761.044573,758.065432 C761.044573,756.690803 762.018993,755.62938 764.24624,755.281373 C765.777473,755.037767 767.0651,754.724561 768.074322,754.306952 L768.074322,756.534199 C768.074322,758.970251 766.003678,760.36228 763.828632,760.36228 Z M793.197202,766.48721 C800.592359,766.48721 806.038675,762.885334 806.073475,757.160613 C806.038675,753.210729 803.393819,750.91388 797.930103,749.922059 L792.501188,748.947638 C790.465344,748.582231 789.891132,747.851415 789.925933,747.068398 C789.891132,745.954775 791.265761,745.328362 792.918796,745.328362 C794.815437,745.328362 796.39887,746.337583 796.538073,747.973218 L805.377461,747.973218 C805.133855,742.318098 800.435756,738.925026 792.709992,738.925026 C785.07123,738.925026 780.35573,742.057092 780.390531,747.62521 C780.35573,751.8361 783.087588,754.533157 788.533903,755.490177 L793.266804,756.325395 C795.354848,756.708203 796.294468,757.265015 796.329269,758.274236 C796.294468,759.38786 795.024241,760.014273 793.266804,760.014273 C791.091758,760.014273 789.560525,759.074653 789.29952,757.369417 L779.764117,757.369417 C780.286128,762.850533 785.019029,766.48721 793.197202,766.48721 Z M821.312945,766.48721 C828.725502,766.48721 833.493203,762.937535 834.398022,757.369417 L825.628236,757.369417 C825.071424,758.883249 823.487991,759.735867 821.521749,759.735867 C818.668089,759.735867 816.997653,757.856627 816.997653,755.281373 L816.997653,754.863764 L834.398022,754.863764 L834.398022,752.636517 C834.398022,744.127736 829.177912,738.925026 821.10414,738.925026 C812.821565,738.925026 807.531852,744.423542 807.531852,752.706118 C807.531852,761.354101 812.751963,766.48721 821.312945,766.48721 Z M825.558635,749.574052 L816.997653,749.574052 C817.049854,747.259803 818.963895,745.676369 821.312945,745.676369 C823.696795,745.676369 825.506434,747.277203 825.558635,749.574052 Z M858.403817,766.48721 C867.104001,766.48721 872.25451,760.919092 872.25451,752.706118 C872.25451,744.493144 867.104001,738.925026 858.403817,738.925026 C849.703632,738.925026 844.553123,744.493144 844.553123,752.706118 C844.553123,760.919092 849.703632,766.48721 858.403817,766.48721 Z M858.473418,759.38786 C855.898163,759.38786 854.366931,756.830006 854.366931,752.636517 C854.366931,748.443028 855.898163,745.885173 858.473418,745.885173 C860.90947,745.885173 862.440702,748.443028 862.440702,752.636517 C862.440702,756.830006 860.90947,759.38786 858.473418,759.38786 Z M886.032369,766 L886.032369,746.233181 L890.904473,746.233181 L890.904473,739.273033 L886.032369,739.273033 L886.032369,738.089808 C886.032369,736.836981 886.51958,736.001764 888.329218,736.001764 C889.025233,736.001764 890.069255,736.140967 890.76527,736.349771 L892.157299,729.459225 C891.043676,729.180819 888.468421,728.693609 886.032369,728.693609 C880.185845,728.693609 876.427366,731.895277 876.427366,738.507417 L876.427366,739.273033 L873.016893,739.273033 L873.016893,746.233181 L876.427366,746.233181 L876.427366,766 L886.032369,766 Z M911.360476,766 L911.360476,754.237351 L914.701347,754.237351 L920.96548,766 L931.475303,766 L924.236749,752.706118 C928.03003,750.879079 930.292078,747.416406 930.292078,742.474701 C930.292078,734.88814 924.984965,730.364044 917.067797,730.364044 L901.685871,730.364044 L901.685871,766 L911.360476,766 Z M914.770949,746.720391 L911.360476,746.720391 L911.360476,738.089808 L914.770949,738.089808 C918.164021,738.089808 920.199864,739.412236 920.199864,742.474701 C920.199864,745.519766 918.164021,746.720391 914.770949,746.720391 Z M942.817134,766 L942.817134,747.277203 L943.025939,747.277203 L955.902212,766 L963.975983,766 L963.975983,730.364044 L954.301378,730.364044 L954.301378,749.01724 L954.022972,749.01724 L941.355503,730.364044 L933.142529,730.364044 L933.142529,766 L942.817134,766 Z" id="TimesincereleaseofRN" fill="#00B8FF"></path>
            <path d="M114.428863,414.098182 C118.777535,414.098182 121.187309,411.106739 121.187309,407.450531 L121.187309,405.954809 C121.187309,402.298601 118.832932,399.251761 114.428863,399.251761 C110.190986,399.251761 107.725815,402.298601 107.725815,405.954809 L107.725815,407.450531 C107.725815,411.051342 110.080191,414.098182 114.428863,414.098182 Z M114.013385,429 L133.513162,400.636688 L129.579968,400.636688 L110.080191,429 L114.013385,429 Z M114.428863,409.777209 C113.016237,409.777209 112.600759,408.558473 112.600759,407.450531 L112.600759,405.954809 C112.600759,404.902264 112.96084,403.572734 114.428863,403.572734 C116.00768,403.572734 116.312364,404.846867 116.312364,405.954809 L116.312364,407.450531 C116.312364,408.558473 115.952283,409.777209 114.428863,409.777209 Z M129.275284,430.384927 C133.623956,430.384927 136.03373,427.28269 136.03373,423.681879 L136.03373,422.186158 C136.03373,418.529949 133.679353,415.483109 129.275284,415.483109 C124.982009,415.483109 122.572236,418.585346 122.572236,422.186158 L122.572236,423.681879 C122.572236,427.28269 124.926612,430.384927 129.275284,430.384927 Z M129.275284,426.008557 C127.807261,426.008557 127.391783,424.734424 127.391783,423.681879 L127.391783,422.186158 C127.391783,421.078216 127.807261,419.804083 129.275284,419.804083 C130.854101,419.804083 131.158785,421.078216 131.158785,422.186158 L131.158785,423.681879 C131.158785,424.789821 130.798704,426.008557 129.275284,426.008557 Z M157.134804,429.38778 C164.05944,429.38778 168.158825,424.956012 168.158825,418.419155 C168.158825,411.882298 164.05944,407.450531 157.134804,407.450531 C150.210167,407.450531 146.110782,411.882298 146.110782,418.419155 C146.110782,424.956012 150.210167,429.38778 157.134804,429.38778 Z M157.190201,423.737276 C155.140508,423.737276 153.921772,421.701433 153.921772,418.363758 C153.921772,415.026083 155.140508,412.99024 157.190201,412.99024 C159.129099,412.99024 160.347835,415.026083 160.347835,418.363758 C160.347835,421.701433 159.129099,423.737276 157.190201,423.737276 Z M179.124876,429 L179.124876,413.267226 L183.002673,413.267226 L183.002673,407.727516 L179.124876,407.727516 L179.124876,406.785766 C179.124876,405.788618 179.512656,405.123853 180.95298,405.123853 C181.506951,405.123853 182.337908,405.234647 182.891879,405.400838 L183.999821,399.916526 C183.113467,399.694938 181.063775,399.307158 179.124876,399.307158 C174.471521,399.307158 171.480077,401.855424 171.480077,407.118148 L171.480077,407.727516 L168.76562,407.727516 L168.76562,413.267226 L171.480077,413.267226 L171.480077,429 L179.124876,429 Z M11.4558264,476.38778 C17.7572458,476.38778 21.6211931,472.773119 21.7042887,467.136465 L14.6134608,467.136465 C14.4472695,469.366198 13.2423827,470.571085 11.5666206,470.571085 C9.55847599,470.571085 8.24279502,468.853775 8.24279502,465.363758 C8.24279502,461.873741 9.55847599,460.156431 11.5666206,460.156431 C13.256232,460.156431 14.4057217,461.361318 14.6134608,463.591051 L21.7042887,463.591051 C21.6627409,458.051342 17.715698,454.450531 11.4558264,454.450531 C4.53118977,454.450531 0.431804868,458.882298 0.431804868,465.419155 C0.431804868,471.956012 4.53118977,476.38778 11.4558264,476.38778 Z M34.110656,476.38778 C41.0352926,476.38778 45.1346775,471.956012 45.1346775,465.419155 C45.1346775,458.882298 41.0352926,454.450531 34.110656,454.450531 C27.1860193,454.450531 23.0866344,458.882298 23.0866344,465.419155 C23.0866344,471.956012 27.1860193,476.38778 34.110656,476.38778 Z M34.1660531,470.737276 C32.1163606,470.737276 30.8976246,468.701433 30.8976246,465.363758 C30.8976246,462.026083 32.1163606,459.99024 34.1660531,459.99024 C36.1049513,459.99024 37.3236874,462.026083 37.3236874,465.363758 C37.3236874,468.701433 36.1049513,470.737276 34.1660531,470.737276 Z M54.9373897,476.276985 C57.9288327,476.276985 59.9785252,474.67047 60.8648787,472.509983 L61.03107,472.509983 L61.03107,476 L68.6204717,476 L68.6204717,447.636688 L60.9756729,447.636688 L60.9756729,458.439121 L60.8648787,458.439121 C60.0339223,456.278635 58.0396269,454.450531 54.8819926,454.450531 C50.6718135,454.450531 46.5724286,457.663562 46.5724286,465.363758 C46.5724286,472.731571 50.394828,476.276985 54.9373897,476.276985 Z M57.7626414,470.404894 C55.6575519,470.404894 54.4388158,468.521392 54.4388158,465.363758 C54.4388158,462.206124 55.6575519,460.322623 57.7626414,460.322623 C59.867731,460.322623 61.1418641,462.206124 61.1418641,465.363758 C61.1418641,468.465995 59.867731,470.404894 57.7626414,470.404894 Z M81.5808271,476.38778 C87.4806175,476.38778 91.2753184,473.562528 91.9954806,469.13076 L85.0154469,469.13076 C84.5722701,470.335647 83.3119862,471.014262 81.7470183,471.014262 C79.4757375,471.014262 78.1462073,469.51854 78.1462073,467.468848 L78.1462073,467.136465 L91.9954806,467.136465 L91.9954806,465.363758 C91.9954806,458.591463 87.8406986,454.450531 81.4146358,454.450531 C74.8223817,454.450531 70.6122026,458.826901 70.6122026,465.419155 C70.6122026,472.302244 74.7669846,476.38778 81.5808271,476.38778 Z M84.9600498,462.926286 L78.1462073,462.926286 C78.1877551,461.084333 79.7111752,459.824049 81.5808271,459.824049 C83.4781775,459.824049 84.9185019,461.098182 84.9600498,462.926286 Z M107.670277,476.276985 C112.212839,476.276985 116.035238,472.731571 116.035238,465.363758 C116.035238,457.663562 111.935853,454.450531 107.725674,454.450531 C104.56804,454.450531 102.573744,456.278635 101.742788,458.439121 L101.631994,458.439121 L101.631994,447.636688 L93.987195,447.636688 L93.987195,476 L101.576597,476 L101.576597,472.509983 L101.742788,472.509983 C102.629142,474.67047 104.678834,476.276985 107.670277,476.276985 Z M104.845025,470.404894 C102.739936,470.404894 101.465803,468.465995 101.465803,465.363758 C101.465803,462.206124 102.739936,460.322623 104.845025,460.322623 C106.950115,460.322623 108.168851,462.206124 108.168851,465.363758 C108.168851,468.521392 106.950115,470.404894 104.845025,470.404894 Z M124.176046,476.332383 C126.945901,476.332383 129.037141,475.390632 130.325124,473.008557 L130.491315,473.008557 L130.491315,476 L137.63754,476 L137.63754,461.430564 C137.63754,457.497371 133.912085,454.450531 127.832254,454.450531 C121.475438,454.450531 118.345502,457.774356 118.082366,461.652153 L125.117797,461.652153 C125.297837,460.336472 126.267287,459.713255 127.72146,459.713255 C129.050991,459.713255 129.992741,460.322623 129.992741,461.430564 L129.992741,461.485962 C129.992741,462.718547 128.635512,463.106327 125.0624,463.369463 C120.67218,463.687996 117.25141,465.460703 117.25141,470.127908 C117.25141,474.365786 120.10436,476.332383 124.176046,476.332383 Z M126.668916,471.512835 C125.367084,471.512835 124.453032,470.875769 124.453032,469.684731 C124.453032,468.590639 125.228591,467.745833 127.001298,467.468848 C128.220034,467.274958 129.24488,467.025671 130.048138,466.693288 L130.048138,468.465995 C130.048138,470.404894 128.400075,471.512835 126.668916,471.512835 Z M150.0439,476.38778 C155.929841,476.38778 160.264664,473.52098 160.292363,468.964569 C160.264664,465.820784 158.159574,463.99268 153.810903,463.203271 L149.489929,462.427712 C147.869564,462.136877 147.412538,461.555208 147.440237,460.931991 C147.412538,460.045637 148.506631,459.547063 149.822312,459.547063 C151.331883,459.547063 152.592167,460.350321 152.702961,461.652153 L159.738392,461.652153 C159.544502,457.151139 155.805198,454.450531 149.656121,454.450531 C143.57629,454.450531 139.823137,456.9434 139.850835,461.375167 C139.823137,464.726692 141.997473,466.873329 146.332295,467.635039 L150.099297,468.299804 C151.76121,468.604488 152.509071,469.047665 152.53677,469.850923 C152.509071,470.737276 151.498074,471.23585 150.099297,471.23585 C148.368138,471.23585 147.149402,470.487989 146.941663,469.13076 L139.352261,469.13076 C139.76774,473.493282 143.534742,476.38778 150.0439,476.38778 Z M172.421736,476.38778 C178.321527,476.38778 182.116227,473.562528 182.83639,469.13076 L175.856356,469.13076 C175.413179,470.335647 174.152895,471.014262 172.587927,471.014262 C170.316647,471.014262 168.987116,469.51854 168.987116,467.468848 L168.987116,467.136465 L182.83639,467.136465 L182.83639,465.363758 C182.83639,458.591463 178.681608,454.450531 172.255545,454.450531 C165.663291,454.450531 161.453112,458.826901 161.453112,465.419155 C161.453112,472.302244 165.607894,476.38778 172.421736,476.38778 Z M175.800959,462.926286 L168.987116,462.926286 C169.028664,461.084333 170.552084,459.824049 172.421736,459.824049 C174.319087,459.824049 175.759411,461.098182 175.800959,462.926286 Z M64.9643549,523.38778 C70.850296,523.38778 75.1851186,520.52098 75.2128171,515.964569 C75.1851186,512.820784 73.080029,510.99268 68.7313572,510.203271 L64.4103839,509.427712 C62.790019,509.136877 62.3329929,508.555208 62.3606915,507.931991 C62.3329929,507.045637 63.4270855,506.547063 64.7427665,506.547063 C66.2523373,506.547063 67.5126212,507.350321 67.6234153,508.652153 L74.6588462,508.652153 C74.4649564,504.151139 70.7256526,501.450531 64.5765752,501.450531 C58.4967442,501.450531 54.7435912,503.9434 54.7712897,508.375167 C54.7435912,511.726692 56.9179271,513.873329 61.2527496,514.635039 L65.019752,515.299804 C66.6816648,515.604488 67.4295255,516.047665 67.4572241,516.850923 C67.4295255,517.737276 66.4185286,518.23585 65.019752,518.23585 C63.2885928,518.23585 62.0698567,517.487989 61.8621176,516.13076 L54.2727159,516.13076 C54.6881941,520.493282 58.4551964,523.38778 64.9643549,523.38778 Z M84.7939244,523 L84.7939244,511.034228 C84.8077737,508.929138 86.0265097,507.655005 87.8961616,507.655005 C89.8489092,507.655005 90.956851,508.929138 90.9430018,511.034228 L90.9430018,523 L98.5878494,523 L98.5878494,509.427712 C98.6016499,504.774356 95.665604,501.450531 91.1645901,501.450531 C88.0208051,501.450531 85.6941272,503.057046 84.7385273,505.771504 L84.5169389,505.771504 L84.5169389,494.636688 L77.1491255,494.636688 L77.1491255,523 L84.7939244,523 Z M107.28258,523.332383 C110.052435,523.332383 112.143675,522.390632 113.431658,520.008557 L113.597849,520.008557 L113.597849,523 L120.744074,523 L120.744074,508.430564 C120.744074,504.497371 117.01862,501.450531 110.938789,501.450531 C104.581972,501.450531 101.452036,504.774356 101.1889,508.652153 L108.224331,508.652153 C108.404372,507.336472 109.373821,506.713255 110.827994,506.713255 C112.157525,506.713255 113.099275,507.322623 113.099275,508.430564 L113.099275,508.485962 C113.099275,509.718547 111.742046,510.106327 108.168934,510.369463 C103.778714,510.687996 100.357944,512.460703 100.357944,517.127908 C100.357944,521.365786 103.210894,523.332383 107.28258,523.332383 Z M109.77545,518.512835 C108.473618,518.512835 107.559566,517.875769 107.559566,516.684731 C107.559566,515.590639 108.335125,514.745833 110.107832,514.468848 C111.326568,514.274958 112.351414,514.025671 113.154672,513.693288 L113.154672,515.465995 C113.154672,517.404894 111.506609,518.512835 109.77545,518.512835 Z M131.045345,523 L131.045345,511.920581 C131.045345,509.483109 132.721107,507.876594 134.978538,507.876594 C135.767947,507.876594 137.04208,508.001237 137.80379,508.264373 L137.80379,501.741365 C137.194422,501.561325 136.529657,501.450531 135.864892,501.450531 C133.593611,501.450531 131.820904,502.780061 131.045345,505.771504 L130.823756,505.771504 L130.823756,501.727516 L123.400546,501.727516 L123.400546,523 L131.045345,523 Z M148.271168,523.38778 C154.170958,523.38778 157.965659,520.562528 158.685822,516.13076 L151.705788,516.13076 C151.262611,517.335647 150.002327,518.014262 148.437359,518.014262 C146.166078,518.014262 144.836548,516.51854 144.836548,514.468848 L144.836548,514.136465 L158.685822,514.136465 L158.685822,512.363758 C158.685822,505.591463 154.53104,501.450531 148.104977,501.450531 C141.512723,501.450531 137.302544,505.826901 137.302544,512.419155 C137.302544,519.302244 141.457326,523.38778 148.271168,523.38778 Z M151.650391,509.926286 L144.836548,509.926286 C144.878096,508.084333 146.401516,506.824049 148.271168,506.824049 C150.168518,506.824049 151.608843,508.098182 151.650391,509.926286 Z M168.488526,523.276985 C171.479969,523.276985 173.529662,521.67047 174.416015,519.509983 L174.582206,519.509983 L174.582206,523 L182.171608,523 L182.171608,494.636688 L174.526809,494.636688 L174.526809,505.439121 L174.416015,505.439121 C173.585059,503.278635 171.590763,501.450531 168.433129,501.450531 C164.22295,501.450531 160.123565,504.663562 160.123565,512.363758 C160.123565,519.731571 163.945964,523.276985 168.488526,523.276985 Z M171.313778,517.404894 C169.208688,517.404894 167.989952,515.521392 167.989952,512.363758 C167.989952,509.206124 169.208688,507.322623 171.313778,507.322623 C173.418867,507.322623 174.693001,509.206124 174.693001,512.363758 C174.693001,515.465995 173.418867,517.404894 171.313778,517.404894 Z" id="%ofcodebaseshared" fill="#00B8FF" transform="translate(92.215813, 461.319770) rotate(-360.000000) translate(-92.215813, -461.319770) "></path>
            <path d="M141.999837,701.775585 C149.713882,701.789409 154.505731,696.263549 154.51961,686.873741 C154.533429,677.539331 149.713882,672.248909 141.999837,672.248909 C134.271943,672.248909 129.507793,677.511632 129.479975,686.873741 C129.452395,696.222001 134.271943,701.76171 141.999837,701.775585 Z M141.999837,695.515688 C139.340777,695.515688 137.429577,692.842778 137.457275,686.873741 C137.484974,681.043197 139.340777,678.453383 141.999837,678.453383 C144.658898,678.453383 146.528549,681.043197 146.542474,686.873741 C146.556248,692.842778 144.658898,695.515688 141.999837,695.515688 Z" id="0" fill="#00B8FF" transform="translate(141.999793, 687.012247) rotate(-360.000000) translate(-141.999793, -687.012247) "></path>
            <path d="M154.881941,269.136465 L154.881941,268.4717 C154.881941,266.269665 155.920637,265.161724 157.928781,263.984535 C160.62939,262.405718 162.471343,260.425272 162.471343,257.059899 C162.471343,251.852572 158.081123,249.248909 152.167484,249.248909 C146.780116,249.248909 142.306801,251.797175 142.251404,257.890855 L149.342232,257.890855 C149.342232,256.298189 150.616365,255.176398 152.112087,255.176398 C153.497014,255.176398 154.604956,256.118148 154.604956,257.503075 C154.604956,259.054194 153.261576,260.009794 151.502719,261.159284 C149.439177,262.502663 148.345084,263.915289 148.345084,268.4717 L148.345084,269.136465 L154.881941,269.136465 Z M151.724307,278.443177 C153.76015,278.443177 155.574405,276.725867 155.602103,274.56538 C155.574405,272.460291 153.76015,270.742981 151.724307,270.742981 C149.57767,270.742981 147.818812,272.460291 147.84651,274.56538 C147.818812,276.725867 149.57767,278.443177 151.724307,278.443177 Z" id="?" fill="#00B8FF" transform="translate(152.361373, 263.846043) rotate(-360.000000) translate(-152.361373, -263.846043) "></path>
            <path d="M57.2750195,763 L57.2750195,751.281384 L63.1812019,751.281384 L69.4623801,763 L75.931056,763 L69.0092603,750.312645 C72.7748422,748.797038 74.7591944,745.578324 74.7591944,741.234624 C74.7591944,735.125319 70.8217395,731.000366 63.4780736,731.000366 L51.4782109,731.000366 L51.4782109,763 L57.2750195,763 Z M62.6187084,746.468939 L57.2750195,746.468939 L57.2750195,735.844061 L62.5874587,735.844061 C66.9155342,735.844061 68.853012,737.828413 68.853012,741.234624 C68.853012,744.640835 66.9155342,746.468939 62.6187084,746.468939 Z M89.0520301,763.468745 C94.6457161,763.468745 98.4894221,760.734401 99.4894107,756.562574 L94.2082211,755.96883 C93.4426049,758.000057 91.5676264,759.062545 89.1301543,759.062545 C85.4739461,759.062545 83.0520988,756.656323 83.0052243,752.546995 L99.723783,752.546995 L99.723783,750.812639 C99.723783,742.390861 94.661341,738.687778 88.7551585,738.687778 C81.8802372,738.687778 77.3959135,743.734595 77.3959135,751.140761 C77.3959135,758.671925 81.8177379,763.468745 89.0520301,763.468745 Z M94.3019701,748.734538 L83.0208492,748.734538 C83.1927222,745.672073 85.4583213,743.093978 88.8332827,743.093978 C92.0832455,743.093978 94.2707204,745.468951 94.3019701,748.734538 Z M110.329136,763.484369 C114.094718,763.484369 116.344692,761.718765 117.37593,759.703163 L117.563428,759.703163 L117.563428,763 L123.000866,763 L123.000866,746.937684 C123.000866,740.594006 117.82905,738.687778 113.250977,738.687778 C108.20416,738.687778 104.329204,740.937752 103.079219,745.312702 L108.360408,746.062694 C108.922902,744.422088 110.516634,743.015854 113.282227,743.015854 C115.907197,743.015854 117.34468,744.359588 117.34468,746.718936 L117.34468,746.812685 C117.34468,748.437667 115.641575,748.515791 111.407248,748.968911 C106.751052,749.468905 102.297978,750.859514 102.297978,756.265702 C102.297978,760.984398 105.751063,763.484369 110.329136,763.484369 Z M111.797869,759.328167 C109.438521,759.328167 107.75104,758.250054 107.75104,756.171953 C107.75104,754.000103 109.641644,753.093863 112.172865,752.734492 C113.657223,752.53137 116.625939,752.156374 117.360305,751.562631 L117.360305,754.390724 C117.360305,757.062568 115.20408,759.328167 111.797869,759.328167 Z M138.090533,763.468745 C144.121714,763.468745 147.96542,759.890661 148.371665,754.796969 L142.965477,754.796969 C142.481108,757.375064 140.621754,758.859422 138.137407,758.859422 C134.606198,758.859422 132.324974,755.906331 132.324974,751.000137 C132.324974,746.156443 134.653072,743.250226 138.137407,743.250226 C140.856126,743.250226 142.527982,745.000206 142.965477,747.31268 L148.371665,747.31268 C147.981045,742.109614 143.918591,738.687778 138.059283,738.687778 C131.028114,738.687778 126.590665,743.765845 126.590665,751.093886 C126.590665,758.359428 130.91874,763.468745 138.090533,763.468745 Z M161.039487,763.328121 C162.648843,763.281247 163.758206,762.96875 164.367574,762.765628 L163.414459,758.343803 C163.101963,758.421927 162.461345,758.562551 161.758228,758.562551 C160.33637,758.562551 159.195758,758.062557 159.195758,755.781333 L159.195758,743.375225 L163.930079,743.375225 L163.930079,739.000275 L159.195758,739.000275 L159.195758,733.25034 L153.539573,733.25034 L153.539573,739.000275 L150.133361,739.000275 L150.133361,743.375225 L153.539573,743.375225 L153.539573,756.718822 C153.508323,761.234395 156.789535,763.45312 161.039487,763.328121 Z M183.468648,763 L183.468648,741.203374 L183.734269,741.203374 L198.812222,763 L203.968413,763 L203.968413,731.000366 L198.202854,731.000366 L198.202854,752.812617 L197.921607,752.812617 L182.85928,731.000366 L177.671839,731.000366 L177.671839,763 L183.468648,763 Z M215.839451,763.484369 C219.605033,763.484369 221.855007,761.718765 222.886245,759.703163 L223.073743,759.703163 L223.073743,763 L228.511181,763 L228.511181,746.937684 C228.511181,740.594006 223.339365,738.687778 218.761292,738.687778 C213.714475,738.687778 209.839519,740.937752 208.589534,745.312702 L213.870723,746.062694 C214.433217,744.422088 216.026949,743.015854 218.792542,743.015854 C221.417512,743.015854 222.854995,744.359588 222.854995,746.718936 L222.854995,746.812685 C222.854995,748.437667 221.15189,748.515791 216.917563,748.968911 C212.261367,749.468905 207.808293,750.859514 207.808293,756.265702 C207.808293,760.984398 211.261378,763.484369 215.839451,763.484369 Z M217.308184,759.328167 C214.948836,759.328167 213.261355,758.250054 213.261355,756.171953 C213.261355,754.000103 215.151959,753.093863 217.68318,752.734492 C219.167538,752.53137 222.136254,752.156374 222.87062,751.562631 L222.87062,754.390724 C222.87062,757.062568 220.714395,759.328167 217.308184,759.328167 Z M242.225864,763.328121 C243.83522,763.281247 244.944583,762.96875 245.553951,762.765628 L244.600836,758.343803 C244.28834,758.421927 243.647722,758.562551 242.944605,758.562551 C241.522747,758.562551 240.382135,758.062557 240.382135,755.781333 L240.382135,743.375225 L245.116456,743.375225 L245.116456,739.000275 L240.382135,739.000275 L240.382135,733.25034 L234.72595,733.25034 L234.72595,739.000275 L231.319738,739.000275 L231.319738,743.375225 L234.72595,743.375225 L234.72595,756.718822 C234.6947,761.234395 237.975912,763.45312 242.225864,763.328121 Z M251.612373,735.594064 C253.409228,735.594064 254.877961,734.219079 254.877961,732.531599 C254.877961,730.828493 253.409228,729.453509 251.612373,729.453509 C249.799894,729.453509 248.331161,730.828493 248.331161,732.531599 C248.331161,734.219079 249.799894,735.594064 251.612373,735.594064 Z M254.424841,763 L254.424841,739.000275 L248.768656,739.000275 L248.768656,763 L254.424841,763 Z M272.045571,763 L280.592348,739.000275 L274.576792,739.000275 L269.045606,756.828196 L268.795608,756.828196 L263.280047,739.000275 L257.248866,739.000275 L265.795643,763 L272.045571,763 Z M293.213285,763.468745 C298.806971,763.468745 302.650677,760.734401 303.650666,756.562574 L298.369476,755.96883 C297.60386,758.000057 295.728881,759.062545 293.291409,759.062545 C289.635201,759.062545 287.213354,756.656323 287.166479,752.546995 L303.885038,752.546995 L303.885038,750.812639 C303.885038,742.390861 298.822596,738.687778 292.916414,738.687778 C286.041492,738.687778 281.557169,743.734595 281.557169,751.140761 C281.557169,758.671925 285.978993,763.468745 293.213285,763.468745 Z M298.463225,748.734538 L287.182104,748.734538 C287.353977,745.672073 289.619576,743.093978 292.994538,743.093978 C296.2445,743.093978 298.431975,745.468951 298.463225,748.734538 Z" id="ReactNative" fill="#FFC800"></path>
            <path d="M826.158394,619 L826.158394,607.281384 L832.064576,607.281384 L838.345754,619 L844.81443,619 L837.892634,606.312645 C841.658216,604.797038 843.642568,601.578324 843.642568,597.234624 C843.642568,591.125319 839.705114,587.000366 832.361448,587.000366 L820.361585,587.000366 L820.361585,619 L826.158394,619 Z M831.502082,602.468939 L826.158394,602.468939 L826.158394,591.844061 L831.470833,591.844061 C835.798908,591.844061 837.736386,593.828413 837.736386,597.234624 C837.736386,600.640835 835.798908,602.468939 831.502082,602.468939 Z M857.935404,619.468745 C863.52909,619.468745 867.372796,616.734401 868.372785,612.562574 L863.091595,611.96883 C862.325979,614.000057 860.451,615.062545 858.013528,615.062545 C854.35732,615.062545 851.935473,612.656323 851.888598,608.546995 L868.607157,608.546995 L868.607157,606.812639 C868.607157,598.390861 863.544715,594.687778 857.638533,594.687778 C850.763611,594.687778 846.279288,599.734595 846.279288,607.140761 C846.279288,614.671925 850.701112,619.468745 857.935404,619.468745 Z M863.185344,604.734538 L851.904223,604.734538 C852.076096,601.672073 854.341695,599.093978 857.716657,599.093978 C860.966619,599.093978 863.154094,601.468951 863.185344,604.734538 Z M879.21251,619.484369 C882.978092,619.484369 885.228066,617.718765 886.259304,615.703163 L886.446802,615.703163 L886.446802,619 L891.88424,619 L891.88424,602.937684 C891.88424,596.594006 886.712424,594.687778 882.134351,594.687778 C877.087534,594.687778 873.212578,596.937752 871.962593,601.312702 L877.243782,602.062694 C877.806276,600.422088 879.400008,599.015854 882.165601,599.015854 C884.790571,599.015854 886.228054,600.359588 886.228054,602.718936 L886.228054,602.812685 C886.228054,604.437667 884.524949,604.515791 880.290622,604.968911 C875.634426,605.468905 871.181352,606.859514 871.181352,612.265702 C871.181352,616.984398 874.634437,619.484369 879.21251,619.484369 Z M880.681243,615.328167 C878.321895,615.328167 876.634414,614.250054 876.634414,612.171953 C876.634414,610.000103 878.525018,609.093863 881.056239,608.734492 C882.540597,608.53137 885.509313,608.156374 886.243679,607.562631 L886.243679,610.390724 C886.243679,613.062568 884.087454,615.328167 880.681243,615.328167 Z M906.973907,619.468745 C913.005088,619.468745 916.848794,615.890661 917.255039,610.796969 L911.848851,610.796969 C911.364482,613.375064 909.505128,614.859422 907.020781,614.859422 C903.489572,614.859422 901.208348,611.906331 901.208348,607.000137 C901.208348,602.156443 903.536446,599.250226 907.020781,599.250226 C909.7395,599.250226 911.411356,601.000206 911.848851,603.31268 L917.255039,603.31268 C916.864419,598.109614 912.801965,594.687778 906.942657,594.687778 C899.911488,594.687778 895.474039,599.765845 895.474039,607.093886 C895.474039,614.359428 899.802114,619.468745 906.973907,619.468745 Z M929.922861,619.328121 C931.532217,619.281247 932.64158,618.96875 933.250948,618.765628 L932.297833,614.343803 C931.985337,614.421927 931.344719,614.562551 930.641602,614.562551 C929.219744,614.562551 928.079132,614.062557 928.079132,611.781333 L928.079132,599.375225 L932.813453,599.375225 L932.813453,595.000275 L928.079132,595.000275 L928.079132,589.25034 L922.422947,589.25034 L922.422947,595.000275 L919.016735,595.000275 L919.016735,599.375225 L922.422947,599.375225 L922.422947,612.718822 C922.391697,617.234395 925.672909,619.45312 929.922861,619.328121 Z M952.352022,619 L952.352022,597.203374 L952.617643,597.203374 L967.695596,619 L972.851787,619 L972.851787,587.000366 L967.086228,587.000366 L967.086228,608.812617 L966.804981,608.812617 L951.742654,587.000366 L946.555213,587.000366 L946.555213,619 L952.352022,619 Z M984.722825,619.484369 C988.488407,619.484369 990.738381,617.718765 991.769619,615.703163 L991.957117,615.703163 L991.957117,619 L997.394555,619 L997.394555,602.937684 C997.394555,596.594006 992.222739,594.687778 987.644666,594.687778 C982.597849,594.687778 978.722893,596.937752 977.472908,601.312702 L982.754097,602.062694 C983.316591,600.422088 984.910323,599.015854 987.675916,599.015854 C990.300886,599.015854 991.738369,600.359588 991.738369,602.718936 L991.738369,602.812685 C991.738369,604.437667 990.035264,604.515791 985.800937,604.968911 C981.144741,605.468905 976.691667,606.859514 976.691667,612.265702 C976.691667,616.984398 980.144752,619.484369 984.722825,619.484369 Z M986.191558,615.328167 C983.83221,615.328167 982.144729,614.250054 982.144729,612.171953 C982.144729,610.000103 984.035333,609.093863 986.566554,608.734492 C988.050912,608.53137 991.019628,608.156374 991.753994,607.562631 L991.753994,610.390724 C991.753994,613.062568 989.597769,615.328167 986.191558,615.328167 Z M1011.10924,619.328121 C1012.71859,619.281247 1013.82796,618.96875 1014.43732,618.765628 L1013.48421,614.343803 C1013.17171,614.421927 1012.5311,614.562551 1011.82798,614.562551 C1010.40612,614.562551 1009.26551,614.062557 1009.26551,611.781333 L1009.26551,599.375225 L1013.99983,599.375225 L1013.99983,595.000275 L1009.26551,595.000275 L1009.26551,589.25034 L1003.60932,589.25034 L1003.60932,595.000275 L1000.20311,595.000275 L1000.20311,599.375225 L1003.60932,599.375225 L1003.60932,612.718822 C1003.57807,617.234395 1006.85929,619.45312 1011.10924,619.328121 Z M1020.49575,591.594064 C1022.2926,591.594064 1023.76133,590.219079 1023.76133,588.531599 C1023.76133,586.828493 1022.2926,585.453509 1020.49575,585.453509 C1018.68327,585.453509 1017.21453,586.828493 1017.21453,588.531599 C1017.21453,590.219079 1018.68327,591.594064 1020.49575,591.594064 Z M1023.30822,619 L1023.30822,595.000275 L1017.65203,595.000275 L1017.65203,619 L1023.30822,619 Z M1040.92895,619 L1049.47572,595.000275 L1043.46017,595.000275 L1037.92898,612.828196 L1037.67898,612.828196 L1032.16342,595.000275 L1026.13224,595.000275 L1034.67902,619 L1040.92895,619 Z M1062.09666,619.468745 C1067.69035,619.468745 1071.53405,616.734401 1072.53404,612.562574 L1067.25285,611.96883 C1066.48723,614.000057 1064.61226,615.062545 1062.17478,615.062545 C1058.51858,615.062545 1056.09673,612.656323 1056.04985,608.546995 L1072.76841,608.546995 L1072.76841,606.812639 C1072.76841,598.390861 1067.70597,594.687778 1061.79979,594.687778 C1054.92487,594.687778 1050.44054,599.734595 1050.44054,607.140761 C1050.44054,614.671925 1054.86237,619.468745 1062.09666,619.468745 Z M1067.3466,604.734538 L1056.06548,604.734538 C1056.23735,601.672073 1058.50295,599.093978 1061.87791,599.093978 C1065.12787,599.093978 1067.31535,601.468951 1067.3466,604.734538 Z M1099.01014,619 L1105.43194,596.547132 L1105.68194,596.547132 L1112.08811,619 L1117.8068,619 L1126.83794,587.000366 L1120.60364,587.000366 L1114.83808,610.531347 L1114.55683,610.531347 L1108.38503,587.000366 L1102.71322,587.000366 L1096.55704,610.515722 L1096.26017,610.515722 L1090.49461,587.000366 L1084.26031,587.000366 L1093.29145,619 L1099.01014,619 Z M1137.67785,619.468745 C1143.27153,619.468745 1147.11524,616.734401 1148.11523,612.562574 L1142.83404,611.96883 C1142.06842,614.000057 1140.19344,615.062545 1137.75597,615.062545 C1134.09976,615.062545 1131.67792,612.656323 1131.63104,608.546995 L1148.3496,608.546995 L1148.3496,606.812639 C1148.3496,598.390861 1143.28716,594.687778 1137.38098,594.687778 C1130.50606,594.687778 1126.02173,599.734595 1126.02173,607.140761 C1126.02173,614.671925 1130.44356,619.468745 1137.67785,619.468745 Z M1142.92779,604.734538 L1131.64667,604.734538 C1131.81854,601.672073 1134.08414,599.093978 1137.4591,599.093978 C1140.70906,599.093978 1142.89654,601.468951 1142.92779,604.734538 Z M1165.06426,619.42187 C1170.72044,619.42187 1174.95477,614.937546 1174.95477,607.031387 C1174.95477,599.031479 1170.59545,594.687778 1165.04863,594.687778 C1160.81431,594.687778 1159.0487,597.234624 1158.18934,598.968979 L1157.95497,598.968979 L1157.95497,587.000366 L1152.29878,587.000366 L1152.29878,619 L1157.86122,619 L1157.86122,615.218793 L1158.18934,615.218793 C1159.07995,616.968773 1160.93931,619.42187 1165.06426,619.42187 Z M1163.48615,614.781298 C1159.87682,614.781298 1157.84559,611.656334 1157.84559,607.000137 C1157.84559,602.343941 1159.84557,599.32835 1163.48615,599.32835 C1167.25173,599.32835 1169.18921,602.531438 1169.18921,607.000137 C1169.18921,611.500086 1167.22048,614.781298 1163.48615,614.781298 Z" id="ReactNativeWeb" fill="#FFC800"></path>
            <g id="&quot;Write-once,-feels-n" transform="translate(173.431475, 0.951957)">
                <path d="M95.1021358,21.9297916 L95.1021358,2.86679958 L87.6533574,2.86679958 L87.6533574,21.9297916 L95.1021358,21.9297916 Z M107.76996,21.9297916 L107.76996,2.86679958 L100.321181,2.86679958 L100.321181,21.9297916 L107.76996,21.9297916 Z M135.526624,53.0480435 L145.05812,20.239115 L145.450161,20.239115 L155.00616,53.0480435 L165.34624,53.0480435 L179.704741,2.86679958 L168.11503,2.86679958 L159.808662,37.8074508 L159.367615,37.8074508 L150.22816,2.86679958 L140.304623,2.86679958 L131.140666,37.7339432 L130.724122,37.7339432 L122.417754,2.86679958 L110.828043,2.86679958 L125.186544,53.0480435 L135.526624,53.0480435 Z M191.486217,53.0480435 L191.486217,31.7553184 C191.486217,27.1243345 194.86757,23.9390016 199.474052,23.9390016 C200.919703,23.9390016 202.90441,24.1840272 203.884512,24.5025605 L203.884512,15.2405926 C202.953415,15.0200696 201.654779,14.8730542 200.601169,14.8730542 C196.386729,14.8730542 192.931868,17.3233103 191.559725,21.9787968 L191.167684,21.9787968 L191.167684,15.4121106 L181.048126,15.4121106 L181.048126,53.0480435 L191.486217,53.0480435 Z M212.725213,10.5606036 C215.837038,10.5606036 218.385305,8.18385521 218.385305,5.26805051 C218.385305,2.37674837 215.837038,0 212.725213,0 C209.637891,0 207.089624,2.37674837 207.089624,5.26805051 C207.089624,8.18385521 209.637891,10.5606036 212.725213,10.5606036 Z M217.919756,53.0480435 L217.919756,15.4121106 L207.481665,15.4121106 L207.481665,53.0480435 L217.919756,53.0480435 Z M239.526183,53.5625972 C242.221464,53.464587 244.132664,52.9255307 245.186274,52.5824948 L243.544603,44.8151831 C243.030049,44.9131934 241.927434,45.158219 240.947331,45.158219 C238.864614,45.158219 237.418963,44.3741371 237.418963,41.4828349 L237.418963,23.2529299 L244.500203,23.2529299 L244.500203,15.4121106 L237.418963,15.4121106 L237.418963,6.39516829 L226.980872,6.39516829 L226.980872,15.4121106 L221.835334,15.4121106 L221.835334,23.2529299 L226.980872,23.2529299 L226.980872,42.8549783 C226.931867,50.230249 231.954892,53.8811305 239.526183,53.5625972 Z M266.278235,53.7831203 C275.589208,53.7831203 281.861863,49.2501466 283.332017,42.2669169 L273.678008,41.6298503 C272.624398,44.4966499 269.929116,45.9913061 266.449753,45.9913061 C261.230707,45.9913061 257.922862,42.536445 257.922862,36.9253587 L257.922862,36.9008561 L283.55254,36.9008561 L283.55254,34.0340565 C283.55254,21.24372 275.809731,14.9220593 265.861691,14.9220593 C254.786534,14.9220593 247.607284,22.7873813 247.607284,34.4015949 C247.607284,46.3343419 254.688524,53.7831203 266.278235,53.7831203 Z M273.727013,30.4321801 L257.922862,30.4321801 C258.143385,26.144232 261.402225,22.7138736 266.033209,22.7138736 C270.566183,22.7138736 273.70251,25.9482116 273.727013,30.4321801 Z M319.831394,53.7831203 C331.249587,53.7831203 338.35533,45.9668035 338.35533,34.3770924 C338.35533,22.7138736 331.249587,14.9220593 319.831394,14.9220593 C308.413201,14.9220593 301.307458,22.7138736 301.307458,34.3770924 C301.307458,45.9668035 308.413201,53.7831203 319.831394,53.7831203 Z M319.880399,45.6972753 C314.612349,45.6972753 311.917067,40.8702709 311.917067,34.3035847 C311.917067,27.7368985 314.612349,22.8853915 319.880399,22.8853915 C325.05044,22.8853915 327.745721,27.7368985 327.745721,34.3035847 C327.745721,40.8702709 325.05044,45.6972753 319.880399,45.6972753 Z M353.836386,53.0480435 L353.836386,31.2897698 C353.860889,26.4382628 356.752191,23.5959658 360.966631,23.5959658 C365.156569,23.5959658 367.680333,26.3402525 367.65583,30.9467339 L367.65583,53.0480435 L378.093921,53.0480435 L378.093921,29.0845393 C378.093921,20.3126227 372.948383,14.9220593 365.107564,14.9220593 C359.52098,14.9220593 355.478058,17.6663461 353.787381,22.0523044 L353.346335,22.0523044 L353.346335,15.4121106 L343.398295,15.4121106 L343.398295,53.0480435 L353.836386,53.0480435 Z M401.538316,53.7831203 C411.559863,53.7831203 417.857021,47.9025058 418.347073,39.2531019 L408.497043,39.2531019 C407.884479,43.2715218 405.238203,45.5257574 401.660829,45.5257574 C396.784819,45.5257574 393.623989,41.4338298 393.623989,34.230077 C393.623989,27.1243345 396.809322,23.0569094 401.660829,23.0569094 C405.483228,23.0569094 407.933484,25.5806732 408.497043,29.3295649 L418.347073,29.3295649 C417.906027,20.6311559 411.314838,14.9220593 401.489311,14.9220593 C390.071118,14.9220593 383.01438,22.8363864 383.01438,34.3770924 C383.01438,45.8197881 389.948605,53.7831203 401.538316,53.7831203 Z M440.4438,53.7831203 C449.754773,53.7831203 456.027428,49.2501466 457.497582,42.2669169 L447.843573,41.6298503 C446.789963,44.4966499 444.094681,45.9913061 440.615317,45.9913061 C435.396272,45.9913061 432.088426,42.536445 432.088426,36.9253587 L432.088426,36.9008561 L457.718105,36.9008561 L457.718105,34.0340565 C457.718105,21.24372 449.975296,14.9220593 440.027256,14.9220593 C428.952099,14.9220593 421.772848,22.7873813 421.772848,34.4015949 C421.772848,46.3343419 428.854088,53.7831203 440.4438,53.7831203 Z M447.892578,30.4321801 L432.088426,30.4321801 C432.308949,26.144232 435.56779,22.7138736 440.198774,22.7138736 C444.731748,22.7138736 447.868075,25.9482116 447.892578,30.4321801 Z M469.205231,65.2993237 C470.381354,62.3345139 473.174646,55.3757867 473.836215,48.8826082 L474.105743,46.1873265 L465.480842,46.1873265 L465.358329,48.9316133 C465.064298,55.5963098 463.153099,62.4325241 462.442524,65.2993237 L469.205231,65.2993237 Z M506.537436,53.0480435 L506.537436,23.2529299 L514.010717,23.2529299 L514.010717,15.4121106 L506.537436,15.4121106 L506.537436,12.8883468 C506.537436,10.3400805 507.566543,8.84542434 510.629363,8.84542434 C511.878994,8.84542434 513.153127,9.1149525 513.986214,9.38448067 L515.823906,1.54366131 C514.525271,1.15162034 511.658471,0.51455377 508.448636,0.51455377 C501.367396,0.51455377 496.099345,4.50847113 496.099345,12.6923263 L496.099345,15.4121106 L490.782289,15.4121106 L490.782289,23.2529299 L496.099345,23.2529299 L496.099345,53.0480435 L506.537436,53.0480435 Z M534.441095,53.7831203 C543.752068,53.7831203 550.024724,49.2501466 551.494877,42.2669169 L541.840869,41.6298503 C540.787258,44.4966499 538.091977,45.9913061 534.612613,45.9913061 C529.393568,45.9913061 526.085722,42.536445 526.085722,36.9253587 L526.085722,36.9008561 L551.7154,36.9008561 L551.7154,34.0340565 C551.7154,21.24372 543.972591,14.9220593 534.024552,14.9220593 C522.949394,14.9220593 515.770144,22.7873813 515.770144,34.4015949 C515.770144,46.3343419 522.851384,53.7831203 534.441095,53.7831203 Z M541.889874,30.4321801 L526.085722,30.4321801 C526.306245,26.144232 529.565086,22.7138736 534.19607,22.7138736 C538.729043,22.7138736 541.865371,25.9482116 541.889874,30.4321801 Z M573.910146,53.7831203 C583.221119,53.7831203 589.493774,49.2501466 590.963928,42.2669169 L581.309919,41.6298503 C580.256309,44.4966499 577.561027,45.9913061 574.081664,45.9913061 C568.862618,45.9913061 565.554773,42.536445 565.554773,36.9253587 L565.554773,36.9008561 L591.184451,36.9008561 L591.184451,34.0340565 C591.184451,21.24372 583.441642,14.9220593 573.493602,14.9220593 C562.418445,14.9220593 555.239195,22.7873813 555.239195,34.4015949 C555.239195,46.3343419 562.320435,53.7831203 573.910146,53.7831203 Z M581.358924,30.4321801 L565.554773,30.4321801 C565.775296,26.144232 569.034136,22.7138736 573.66512,22.7138736 C578.198094,22.7138736 581.334422,25.9482116 581.358924,30.4321801 Z M606.665495,53.0480435 L606.665495,2.86679958 L596.227404,2.86679958 L596.227404,53.0480435 L606.665495,53.0480435 Z M628.63946,53.7831203 C638.391479,53.7831203 645.374709,48.8091005 645.399211,41.3848247 C645.374709,35.9452562 641.821837,32.6864157 634.520074,31.1917595 L627.708362,29.8196161 C624.204496,29.0600367 622.905861,27.8594113 622.930363,26.0462218 C622.905861,23.7919862 625.454127,22.3218326 628.688465,22.3218326 C632.314844,22.3218326 634.471069,24.30654 634.985623,26.7322935 L644.541622,26.144232 C643.610524,19.2100074 638.02394,14.9220593 628.516947,14.9220593 C618.887441,14.9220593 612.541278,19.3815254 612.56578,26.6342833 C612.541278,32.2698722 616.094149,35.9207537 623.444917,37.3909073 L629.962598,38.689543 C633.245941,39.3511122 634.740597,40.5517376 634.789602,42.4384348 C634.740597,44.6681678 632.314844,46.2608342 628.663962,46.2608342 C624.939573,46.2608342 622.464815,44.6681678 621.827748,41.6053477 L611.561175,42.1444041 C612.541278,49.3481568 618.666918,53.7831203 628.63946,53.7831203 Z M674.890828,53.0480435 L674.890828,31.2897698 C674.91533,26.4382628 677.806633,23.5959658 682.021073,23.5959658 C686.211011,23.5959658 688.734775,26.3402525 688.710272,30.9467339 L688.710272,53.0480435 L699.148363,53.0480435 L699.148363,29.0845393 C699.148363,20.3126227 694.002825,14.9220593 686.162006,14.9220593 C680.575422,14.9220593 676.532499,17.6663461 674.841823,22.0523044 L674.400777,22.0523044 L674.400777,15.4121106 L664.452737,15.4121106 L664.452737,53.0480435 L674.890828,53.0480435 Z M716.320102,53.7586177 C721.882184,53.7586177 725.48406,51.3328642 727.321752,47.8289981 L727.615783,47.8289981 L727.615783,53.0480435 L737.514817,53.0480435 L737.514817,27.6633908 C737.514817,18.6954537 729.919023,14.9220593 721.539148,14.9220593 C712.522205,14.9220593 706.592586,19.23451 705.146935,26.0952269 L714.800944,26.8793089 C715.511518,24.3800477 717.741251,22.5423557 721.490143,22.5423557 C725.043014,22.5423557 727.076726,24.3310426 727.076726,27.4183652 L727.076726,27.5653806 C727.076726,29.991134 724.503957,30.3096673 717.961774,30.9467339 C710.512995,31.6328056 703.823796,34.1320668 703.823796,42.536445 C703.823796,49.9852234 709.140852,53.7586177 716.320102,53.7586177 Z M719.309415,46.5548649 C716.099579,46.5548649 713.796339,45.0602088 713.796339,42.1934092 C713.796339,39.2531019 716.222092,37.8074508 719.897476,37.2928971 C722.176214,36.9743638 725.900603,36.4353075 727.150234,35.6022204 L727.150234,39.5961378 C727.150234,43.54105 723.891393,46.5548649 719.309415,46.5548649 Z M758.900964,53.5625972 C761.596246,53.464587 763.507446,52.9255307 764.561056,52.5824948 L762.919384,44.8151831 C762.40483,44.9131934 761.302215,45.158219 760.322113,45.158219 C758.239395,45.158219 756.793744,44.3741371 756.793744,41.4828349 L756.793744,23.2529299 L763.874984,23.2529299 L763.874984,15.4121106 L756.793744,15.4121106 L756.793744,6.39516829 L746.355653,6.39516829 L746.355653,15.4121106 L741.210116,15.4121106 L741.210116,23.2529299 L746.355653,23.2529299 L746.355653,42.8549783 C746.306648,50.230249 751.329673,53.8811305 758.900964,53.5625972 Z M774.136817,10.5606036 C777.248642,10.5606036 779.796909,8.18385521 779.796909,5.26805051 C779.796909,2.37674837 777.248642,0 774.136817,0 C771.049495,0 768.501228,2.37674837 768.501228,5.26805051 C768.501228,8.18385521 771.049495,10.5606036 774.136817,10.5606036 Z M779.33136,53.0480435 L779.33136,15.4121106 L768.893269,15.4121106 L768.893269,53.0480435 L779.33136,53.0480435 Z M807.823006,53.0480435 L820.980881,15.4121106 L809.930226,15.4121106 L802.138412,42.3404245 L801.746371,42.3404245 L793.930054,15.4121106 L782.903902,15.4121106 L796.061777,53.0480435 L807.823006,53.0480435 Z M840.455819,53.7831203 C849.766792,53.7831203 856.039447,49.2501466 857.509601,42.2669169 L847.855592,41.6298503 C846.801982,44.4966499 844.1067,45.9913061 840.627337,45.9913061 C835.408291,45.9913061 832.100446,42.536445 832.100446,36.9253587 L832.100446,36.9008561 L857.730124,36.9008561 L857.730124,34.0340565 C857.730124,21.24372 849.987315,14.9220593 840.039275,14.9220593 C828.964118,14.9220593 821.784868,22.7873813 821.784868,34.4015949 C821.784868,46.3343419 828.866108,53.7831203 840.455819,53.7831203 Z M847.904597,30.4321801 L832.100446,30.4321801 C832.320969,26.144232 835.579809,22.7138736 840.210793,22.7138736 C844.743767,22.7138736 847.880095,25.9482116 847.904597,30.4321801 Z M869.486779,21.9297916 L869.486779,2.86679958 L862.038,2.86679958 L862.038,21.9297916 L869.486779,21.9297916 Z M882.154602,21.9297916 L882.154602,2.86679958 L874.705824,2.86679958 L874.705824,21.9297916 L882.154602,21.9297916 Z" id="&quot;Writeonce,feelsnative&quot;" fill="#00B8FF" transform="translate(484.903980, 32.649662) rotate(-360.000000) translate(-484.903980, -32.649662) "></path>
                <path d="M10.7690529,132.411618 C6.70446873,125.85381 3.85506952,115.252369 3.85506952,105.593744 C3.85506952,95.9560698 6.68351726,85.3546286 10.7690529,78.7758686 L7.3749156,78.7758686 C2.63988456,86.590765 0,95.5370405 0,105.593744 C0,115.629495 2.63988456,124.554819 7.3749156,132.411618 L10.7690529,132.411618 Z M25.2633855,102.597684 C30.1660282,102.597684 33.1411362,98.8473719 33.1411362,94.0494865 L33.1411362,92.1010002 C33.1411362,87.3031148 30.2079312,83.5528026 25.2633855,83.5528026 C20.3607427,83.5528026 17.3227803,87.3031148 17.3227803,92.1010002 L17.3227803,94.0494865 C17.3227803,98.8473719 20.2978883,102.597684 25.2633855,102.597684 Z M22.9796758,127.048043 L52.4374353,84.1394436 L48.729026,84.1394436 L19.2503151,127.048043 L22.9796758,127.048043 Z M25.2633855,99.7482849 C22.1835202,99.7482849 20.6121603,97.2131576 20.6121603,94.0494865 L20.6121603,92.1010002 C20.6121603,88.9373291 22.2254231,86.4022018 25.2633855,86.4022018 C28.3432508,86.4022018 29.8308048,88.9373291 29.8308048,92.1010002 L29.8308048,94.0494865 C29.8308048,97.2131576 28.2803964,99.7482849 25.2633855,99.7482849 Z M46.8852971,127.634684 C51.7879399,127.634684 54.7630479,123.884372 54.7630479,119.086487 L54.7630479,117.138001 C54.7630479,112.340115 51.8298428,108.589803 46.8852971,108.589803 C41.9826544,108.589803 38.944692,112.340115 38.944692,117.138001 L38.944692,119.086487 C38.944692,123.884372 41.9198,127.634684 46.8852971,127.634684 Z M46.8852971,124.785285 C43.8054318,124.785285 42.234072,122.250158 42.234072,119.086487 L42.234072,117.138001 C42.234072,113.974329 43.8473347,111.439202 46.8852971,111.439202 C49.9651625,111.439202 51.4527165,113.974329 51.4527165,117.138001 L51.4527165,119.086487 C51.4527165,122.250158 49.9023081,124.785285 46.8852971,124.785285 Z M90.6869095,127.71849 C97.3913782,127.71849 102.105458,123.486294 102.964468,117.661787 L99.1932042,117.661787 C98.3341941,121.768274 94.9610083,124.303402 90.6869095,124.303402 C84.3805186,124.303402 80.2111771,118.814118 80.2111771,110.97827 C80.2111771,103.184325 84.5062274,97.8207501 90.6869095,97.8207501 C95.2752803,97.8207501 98.3760971,100.774907 99.1722527,104.420462 L102.943516,104.420462 C102.063555,98.4492941 97.0771063,94.4266128 90.6240551,94.4266128 C82.2015663,94.4266128 76.4608649,101.424402 76.4608649,111.103979 C76.4608649,120.69975 82.0339545,127.71849 90.6869095,127.71849 Z M121.942556,127.71849 C130.281239,127.71849 136.105746,120.909264 136.105746,111.103979 C136.105746,101.235839 130.281239,94.4266128 121.942556,94.4266128 C113.603873,94.4266128 107.779365,101.235839 107.779365,111.103979 C107.779365,120.909264 113.603873,127.71849 121.942556,127.71849 Z M121.942556,124.303402 C115.259038,124.303402 111.529678,118.311283 111.529678,111.103979 C111.529678,103.896675 115.259038,97.8207501 121.942556,97.8207501 C128.626073,97.8207501 132.355434,103.896675 132.355434,111.103979 C132.355434,118.311283 128.626073,124.303402 121.942556,124.303402 Z M154.371507,127.71849 C160.216966,127.71849 162.940656,124.010081 164.260598,121.076876 L164.700579,121.076876 L164.700579,127.048043 L168.346134,127.048043 L168.346134,84.1394436 L164.595822,84.1394436 L164.595822,101.005373 L164.260598,101.005373 C162.982559,98.1140706 160.321723,94.4266128 154.434361,94.4266128 C146.493756,94.4266128 141.130181,101.131082 141.130181,111.041124 C141.130181,121.034973 146.472805,127.71849 154.371507,127.71849 Z M154.811488,124.303402 C148.40034,124.303402 144.880493,118.478894 144.880493,110.97827 C144.880493,103.561451 148.358437,97.8207501 154.811488,97.8207501 C161.096927,97.8207501 164.658676,103.268131 164.658676,110.97827 C164.658676,118.751263 161.055024,124.303402 154.811488,124.303402 Z M190.46698,127.71849 C196.920031,127.71849 201.256984,124.219596 202.723587,120.175963 L199.182789,119.023632 C197.946653,121.914935 195.034399,124.303402 190.46698,124.303402 C183.88822,124.303402 179.718878,119.505516 179.551267,112.067746 L203.519742,112.067746 L203.519742,110.224017 C203.519742,99.4759158 196.878128,94.4266128 189.90129,94.4266128 C181.562607,94.4266128 175.800955,101.403451 175.800955,111.145882 C175.800955,120.909264 181.45785,127.71849 190.46698,127.71849 Z M199.706576,108.778366 L179.572218,108.778366 C179.970296,102.786247 184.013929,97.8207501 189.90129,97.8207501 C195.662943,97.8207501 199.706576,102.576733 199.706576,108.778366 Z M227.878248,139.116087 C231.900929,139.116087 234.855086,136.811426 236.573106,132.139249 L250.191558,94.8665936 L246.147925,94.8665936 L236.594057,122.124449 L236.300737,122.124449 L226.746869,94.8665936 L222.703236,94.8665936 L234.540814,127.362315 L233.367532,130.630744 C231.586657,135.491484 229.072481,136.350494 225.280266,135.15626 L224.274596,138.44564 C225.028849,138.801815 226.411645,139.116087 227.878248,139.116087 Z M267.283993,127.71849 C275.622676,127.71849 281.447183,120.909264 281.447183,111.103979 C281.447183,101.235839 275.622676,94.4266128 267.283993,94.4266128 C258.94531,94.4266128 253.120803,101.235839 253.120803,111.103979 C253.120803,120.909264 258.94531,127.71849 267.283993,127.71849 Z M267.283993,124.303402 C260.600476,124.303402 256.871115,118.311283 256.871115,111.103979 C256.871115,103.896675 260.600476,97.8207501 267.283993,97.8207501 C273.96751,97.8207501 277.696871,103.896675 277.696871,111.103979 C277.696871,118.311283 273.96751,124.303402 267.283993,124.303402 Z M298.707274,127.467073 C303.421353,127.467073 306.773588,125.015751 308.282093,121.70542 L308.575414,121.70542 L308.575414,127.048043 L312.304775,127.048043 L312.304775,94.8665936 L308.575414,94.8665936 L308.575414,114.749534 C308.575414,120.657847 304.133703,123.842469 299.775799,123.842469 C295.124573,123.842469 291.856145,120.511186 291.856145,115.482835 L291.856145,94.8665936 L288.126784,94.8665936 L288.126784,115.713301 C288.126784,123.339634 292.526592,127.467073 298.707274,127.467073 Z M348.29134,127.71849 C354.995809,127.71849 359.709889,123.486294 360.568899,117.661787 L356.797635,117.661787 C355.938625,121.768274 352.565439,124.303402 348.29134,124.303402 C341.984949,124.303402 337.815608,118.814118 337.815608,110.97827 C337.815608,103.184325 342.110658,97.8207501 348.29134,97.8207501 C352.879711,97.8207501 355.980528,100.774907 356.776683,104.420462 L360.547947,104.420462 C359.667986,98.4492941 354.681537,94.4266128 348.228486,94.4266128 C339.805997,94.4266128 334.065296,101.424402 334.065296,111.103979 C334.065296,120.69975 339.638385,127.71849 348.29134,127.71849 Z M376.02714,127.781345 C381.390715,127.781345 384.659144,124.806237 386.000037,121.956838 L386.230504,121.956838 L386.230504,127.048043 L389.959864,127.048043 L389.959864,105.195666 C389.959864,96.5636622 383.46491,94.4266128 378.541316,94.4266128 C373.617722,94.4266128 368.547467,96.375099 366.368515,101.633917 L369.909313,102.911956 C371.082595,100.146363 373.994848,97.7788472 378.646073,97.7788472 C383.527765,97.7788472 386.230504,100.460635 386.230504,104.860442 L386.230504,105.614695 C386.230504,108.045065 383.213493,108.086968 377.808015,108.757415 C370.537856,109.658328 365.446651,111.69062 365.446651,118.059865 C365.446651,124.261499 370.181682,127.781345 376.02714,127.781345 Z M376.529975,124.366256 C372.318731,124.366256 369.176011,122.124449 369.176011,118.227477 C369.176011,114.330504 372.360634,112.69629 377.808015,112.025843 C380.447899,111.711571 385.141027,111.12493 386.230504,110.056406 L386.230504,114.707631 C386.230504,119.9874 382.480191,124.366256 376.529975,124.366256 Z M402.086823,127.048043 L402.086823,106.934637 C402.086823,101.319645 405.774281,97.862653 410.844535,97.862653 C415.789081,97.862653 418.973704,101.172984 418.973704,106.431802 L418.973704,127.048043 L422.703064,127.048043 L422.703064,106.201336 C422.703064,98.5750028 418.282305,94.4475643 411.787351,94.4475643 C407.073272,94.4475643 403.825795,96.6265166 402.317289,99.9158966 L401.982066,99.9158966 L401.982066,94.8665936 L398.357462,94.8665936 L398.357462,127.048043 L402.086823,127.048043 Z M456.259262,127.71849 C463.340857,127.71849 468.201597,123.821518 468.201597,118.353186 C468.201597,114.058135 465.498858,111.187785 460.114332,109.867842 L455.253592,108.673609 C451.251862,107.667939 449.387182,106.054676 449.387182,103.268131 C449.387182,99.9997025 452.50895,97.7159928 456.845903,97.7159928 C461.182856,97.7159928 463.319906,99.9997025 464.325576,102.891005 L467.740665,101.927237 C466.169305,97.276012 462.733265,94.4266128 456.845903,94.4266128 C450.350949,94.4266128 445.636869,98.1350221 445.636869,103.435743 C445.636869,107.751744 448.255803,110.684949 453.849844,112.025843 L459.108661,113.282931 C462.649459,114.12099 464.346528,115.943767 464.346528,118.520797 C464.346528,121.873032 461.140953,124.366256 456.196408,124.366256 C451.7966,124.366256 449.051958,122.375867 448.151045,118.5627 L444.568345,119.442662 C445.699724,124.806237 449.952871,127.71849 456.259262,127.71849 Z M478.589555,127.048043 L478.589555,106.934637 C478.589555,101.319645 482.360818,97.862653 487.514879,97.862653 C492.501327,97.862653 495.68595,101.131082 495.68595,106.431802 L495.68595,127.048043 L499.436262,127.048043 L499.436262,106.201336 C499.436262,98.5330999 494.994552,94.4475643 488.457695,94.4475643 C483.596955,94.4475643 480.433284,96.5846137 478.924778,99.9158966 L478.589555,99.9158966 L478.589555,84.1394436 L474.860194,84.1394436 L474.860194,127.048043 L478.589555,127.048043 Z M516.759202,127.781345 C522.122777,127.781345 525.391206,124.806237 526.7321,121.956838 L526.962566,121.956838 L526.962566,127.048043 L530.691927,127.048043 L530.691927,105.195666 C530.691927,96.5636622 524.196972,94.4266128 519.273378,94.4266128 C514.349784,94.4266128 509.27953,96.375099 507.100577,101.633917 L510.641375,102.911956 C511.814657,100.146363 514.72691,97.7788472 519.378136,97.7788472 C524.259827,97.7788472 526.962566,100.460635 526.962566,104.860442 L526.962566,105.614695 C526.962566,108.045065 523.945555,108.086968 518.540077,108.757415 C511.269919,109.658328 506.178713,111.69062 506.178713,118.059865 C506.178713,124.261499 510.913744,127.781345 516.759202,127.781345 Z M517.262038,124.366256 C513.050793,124.366256 509.908073,122.124449 509.908073,118.227477 C509.908073,114.330504 513.092696,112.69629 518.540077,112.025843 C521.179962,111.711571 525.87309,111.12493 526.962566,110.056406 L526.962566,114.707631 C526.962566,119.9874 523.212254,124.366256 517.262038,124.366256 Z M542.818885,127.048043 L542.818885,106.26419 C542.818885,101.487256 546.485392,98.0302648 551.513743,98.0302648 C552.498462,98.0302648 553.420326,98.1978765 553.75555,98.2397794 L553.75555,94.4475643 C553.252715,94.4266128 552.393705,94.3847099 551.786112,94.3847099 C547.74248,94.3847099 544.285488,96.5636622 542.986497,99.8111393 L542.714128,99.8111393 L542.714128,94.8665936 L539.089525,94.8665936 L539.089525,127.048043 L542.818885,127.048043 Z M570.617393,127.71849 C577.070444,127.71849 581.407398,124.219596 582.874,120.175963 L579.333203,119.023632 C578.097066,121.914935 575.184813,124.303402 570.617393,124.303402 C564.038633,124.303402 559.869292,119.505516 559.70168,112.067746 L583.670156,112.067746 L583.670156,110.224017 C583.670156,99.4759158 577.028541,94.4266128 570.051704,94.4266128 C561.713021,94.4266128 555.951368,101.403451 555.951368,111.145882 C555.951368,120.909264 561.608263,127.71849 570.617393,127.71849 Z M579.856989,108.778366 L559.722632,108.778366 C560.120709,102.786247 564.164342,97.8207501 570.051704,97.8207501 C575.813357,97.8207501 579.856989,102.576733 579.856989,108.778366 Z M620.180511,127.71849 C628.079213,127.71849 633.421836,121.034973 633.421836,111.041124 C633.421836,101.131082 628.058261,94.4266128 620.117656,94.4266128 C614.230295,94.4266128 611.569459,98.1140706 610.291419,101.005373 L609.956196,101.005373 L609.956196,84.1394436 L606.205884,84.1394436 L606.205884,127.048043 L609.830487,127.048043 L609.830487,121.076876 L610.291419,121.076876 C611.59041,124.031033 614.314101,127.71849 620.180511,127.71849 Z M619.719579,124.303402 C613.476042,124.303402 609.893342,118.751263 609.893342,110.97827 C609.893342,103.268131 613.434139,97.8207501 619.719579,97.8207501 C626.17263,97.8207501 629.671524,103.561451 629.671524,110.97827 C629.671524,118.478894 626.130727,124.303402 619.719579,124.303402 Z M650.493379,127.529927 C652.043788,127.529927 653.091361,127.236607 653.803711,126.964238 L653.007555,123.591052 C652.483768,123.737712 651.813322,123.884372 650.828603,123.884372 C648.293475,123.884372 645.967863,122.690139 645.967863,118.646506 L645.967863,98.1140706 L652.777089,98.1140706 L652.777089,94.8665936 L645.967863,94.8665936 L645.967863,87.1564545 L642.217551,87.1564545 L642.217551,94.8665936 L637.419665,94.8665936 L637.419665,98.1140706 L642.217551,98.1140706 L642.217551,119.526468 C642.217551,124.785285 646.365941,127.529927 650.493379,127.529927 Z M670.728421,127.048043 L678.354754,100.670149 L678.752832,100.670149 L686.379165,127.048043 L690.234235,127.048043 L699.955715,94.8665936 L696.016839,94.8665936 L688.390506,121.349245 L688.097185,121.349245 L680.554658,94.8665936 L676.594831,94.8665936 L668.98945,121.412099 L668.717081,121.412099 L661.090747,94.8665936 L657.151872,94.8665936 L666.873352,127.048043 L670.728421,127.048043 Z M709.442957,127.048043 L709.442957,106.934637 C709.442957,101.319645 713.130414,97.862653 718.200669,97.862653 C723.145215,97.862653 726.329837,101.172984 726.329837,106.431802 L726.329837,127.048043 L730.059198,127.048043 L730.059198,106.201336 C730.059198,98.5750028 725.638439,94.4475643 719.143485,94.4475643 C714.429405,94.4475643 711.181928,96.6265166 709.673423,99.9158966 L709.338199,99.9158966 L709.338199,94.8665936 L705.713596,94.8665936 L705.713596,127.048043 L709.442957,127.048043 Z M764.474406,127.048043 L772.100739,100.670149 L772.498817,100.670149 L780.12515,127.048043 L783.980219,127.048043 L793.701699,94.8665936 L789.762824,94.8665936 L782.13649,121.349245 L781.84317,121.349245 L774.300643,94.8665936 L770.340816,94.8665936 L762.735434,121.412099 L762.463065,121.412099 L754.836732,94.8665936 L750.897856,94.8665936 L760.619336,127.048043 L764.474406,127.048043 Z M811.380951,127.71849 C817.834002,127.71849 822.170956,124.219596 823.637558,120.175963 L820.096761,119.023632 C818.860624,121.914935 815.948371,124.303402 811.380951,124.303402 C804.802191,124.303402 800.63285,119.505516 800.465238,112.067746 L824.433714,112.067746 L824.433714,110.224017 C824.433714,99.4759158 817.7921,94.4266128 810.815262,94.4266128 C802.476579,94.4266128 796.714926,101.403451 796.714926,111.145882 C796.714926,120.909264 802.371821,127.71849 811.380951,127.71849 Z M820.620547,108.778366 L800.48619,108.778366 C800.884267,102.786247 804.9279,97.8207501 810.815262,97.8207501 C816.576915,97.8207501 820.620547,102.576733 820.620547,108.778366 Z M845.863139,127.71849 C853.761842,127.71849 859.104465,121.034973 859.104465,111.041124 C859.104465,101.131082 853.74089,94.4266128 845.800285,94.4266128 C839.912923,94.4266128 837.252087,98.1140706 835.974048,101.005373 L835.638824,101.005373 L835.638824,84.1394436 L831.888512,84.1394436 L831.888512,127.048043 L835.513116,127.048043 L835.513116,121.076876 L835.974048,121.076876 C837.273039,124.031033 839.996729,127.71849 845.863139,127.71849 Z M845.402207,124.303402 C839.158671,124.303402 835.57597,118.751263 835.57597,110.97827 C835.57597,103.268131 839.116768,97.8207501 845.402207,97.8207501 C851.855258,97.8207501 855.354153,103.561451 855.354153,110.97827 C855.354153,118.478894 851.813355,124.303402 845.402207,124.303402 Z M889.853189,127.781345 C895.216764,127.781345 898.485193,124.806237 899.826086,121.956838 L900.056553,121.956838 L900.056553,127.048043 L903.785913,127.048043 L903.785913,105.195666 C903.785913,96.5636622 897.290959,94.4266128 892.367365,94.4266128 C887.443771,94.4266128 882.373516,96.375099 880.194564,101.633917 L883.735361,102.911956 C884.908644,100.146363 887.820897,97.7788472 892.472122,97.7788472 C897.353814,97.7788472 900.056553,100.460635 900.056553,104.860442 L900.056553,105.614695 C900.056553,108.045065 897.039542,108.086968 891.634064,108.757415 C884.363905,109.658328 879.2727,111.69062 879.2727,118.059865 C879.2727,124.261499 884.007731,127.781345 889.853189,127.781345 Z M890.356024,124.366256 C886.14478,124.366256 883.00206,122.124449 883.00206,118.227477 C883.00206,114.330504 886.186683,112.69629 891.634064,112.025843 C894.273948,111.711571 898.967076,111.12493 900.056553,110.056406 L900.056553,114.707631 C900.056553,119.9874 896.30624,124.366256 890.356024,124.366256 Z M915.912872,127.048043 L915.912872,106.934637 C915.912872,101.319645 919.60033,97.862653 924.670584,97.862653 C929.61513,97.862653 932.799753,101.172984 932.799753,106.431802 L932.799753,127.048043 L936.529113,127.048043 L936.529113,106.201336 C936.529113,98.5750028 932.108354,94.4475643 925.6134,94.4475643 C920.899321,94.4475643 917.651844,96.6265166 916.143338,99.9158966 L915.808115,99.9158966 L915.808115,94.8665936 L912.183511,94.8665936 L912.183511,127.048043 L915.912872,127.048043 Z M956.450033,127.71849 C962.295491,127.71849 965.019182,124.010081 966.339124,121.076876 L966.779105,121.076876 L966.779105,127.048043 L970.42466,127.048043 L970.42466,84.1394436 L966.674347,84.1394436 L966.674347,101.005373 L966.339124,101.005373 C965.061085,98.1140706 962.400249,94.4266128 956.512887,94.4266128 C948.572282,94.4266128 943.208707,101.131082 943.208707,111.041124 C943.208707,121.034973 948.55133,127.71849 956.450033,127.71849 Z M956.890013,124.303402 C950.478865,124.303402 946.959019,118.478894 946.959019,110.97827 C946.959019,103.561451 950.436962,97.8207501 956.890013,97.8207501 C963.175453,97.8207501 966.737202,103.268131 966.737202,110.97827 C966.737202,118.751263 963.13355,124.303402 956.890013,124.303402 Z M46.1692049,198.048043 L46.1692049,177.934637 C46.1692049,172.319645 49.8566627,168.862653 54.9269172,168.862653 C59.8714629,168.862653 63.0560855,172.172984 63.0560855,177.431802 L63.0560855,198.048043 L66.7854463,198.048043 L66.7854463,177.201336 C66.7854463,169.575003 62.3646872,165.447564 55.8697331,165.447564 C51.1556535,165.447564 47.9081765,167.626517 46.399671,170.915897 L46.0644476,170.915897 L46.0644476,165.866594 L42.4398442,165.866594 L42.4398442,198.048043 L46.1692049,198.048043 Z M84.1083839,198.781345 C89.4719589,198.781345 92.7403874,195.806237 94.0812811,192.956838 L94.3117472,192.956838 L94.3117472,198.048043 L98.041108,198.048043 L98.041108,176.195666 C98.041108,167.563662 91.5461539,165.426613 86.6225597,165.426613 C81.6989654,165.426613 76.628711,167.375099 74.4497586,172.633917 L77.9905562,173.911956 C79.1638382,171.146363 82.0760918,168.778847 86.727317,168.778847 C91.6090083,168.778847 94.3117472,171.460635 94.3117472,175.860442 L94.3117472,176.614695 C94.3117472,179.045065 91.2947363,179.086968 85.8892584,179.757415 C78.6191001,180.658328 73.5278942,182.69062 73.5278942,189.059865 C73.5278942,195.261499 78.2629252,198.781345 84.1083839,198.781345 Z M84.611219,195.366256 C80.3999746,195.366256 77.2572549,193.124449 77.2572549,189.227477 C77.2572549,185.330504 80.4418776,183.69629 85.8892584,183.025843 C88.529143,182.711571 93.2222711,182.12493 94.3117472,181.056406 L94.3117472,185.707631 C94.3117472,190.9874 90.561435,195.366256 84.611219,195.366256 Z M116.830633,198.529927 C118.381041,198.529927 119.428614,198.236607 120.140964,197.964238 L119.344808,194.591052 C118.821022,194.737712 118.150575,194.884372 117.165856,194.884372 C114.630729,194.884372 112.305116,193.690139 112.305116,189.646506 L112.305116,169.114071 L119.114342,169.114071 L119.114342,165.866594 L112.305116,165.866594 L112.305116,158.156455 L108.554804,158.156455 L108.554804,165.866594 L103.756919,165.866594 L103.756919,169.114071 L108.554804,169.114071 L108.554804,190.526468 C108.554804,195.785285 112.703194,198.529927 116.830633,198.529927 Z M128.014642,160.335407 C129.544099,160.335407 130.822138,159.120222 130.822138,157.653619 C130.822138,156.187017 129.544099,154.971832 128.014642,154.971832 C126.485185,154.971832 125.228097,156.187017 125.228097,157.653619 C125.228097,159.120222 126.485185,160.335407 128.014642,160.335407 Z M129.858371,198.048043 L129.858371,165.866594 L126.108058,165.866594 L126.108058,198.048043 L129.858371,198.048043 Z M151.392318,198.048043 L163.14609,165.866594 L159.102457,165.866594 L149.548589,193.124449 L149.255268,193.124449 L139.7014,165.866594 L135.657768,165.866594 L147.41154,198.048043 L151.392318,198.048043 Z M180.74136,198.71849 C187.194411,198.71849 191.531364,195.219596 192.997967,191.175963 L189.457169,190.023632 C188.221033,192.914935 185.308779,195.303402 180.74136,195.303402 C174.1626,195.303402 169.993258,190.505516 169.825647,183.067746 L193.794122,183.067746 L193.794122,181.224017 C193.794122,170.475916 187.152508,165.426613 180.17567,165.426613 C171.836987,165.426613 166.075334,172.403451 166.075334,182.145882 C166.075334,191.909264 171.73223,198.71849 180.74136,198.71849 Z M189.980956,179.778366 L169.846598,179.778366 C170.244676,173.786247 174.288309,168.82075 180.17567,168.82075 C185.937323,168.82075 189.980956,173.576733 189.980956,179.778366 Z M225.799912,198.71849 C232.273915,198.71849 237.155606,195.219596 239.292656,191.175963 L235.961373,190.023632 C234.243353,192.914935 230.933021,195.303402 226.323699,195.303402 C219.493521,195.303402 216.204141,191.13406 217.461229,183.067746 L241.450657,183.067746 L241.743977,181.224017 C243.545803,170.475916 237.742247,165.426613 230.765409,165.426613 C222.426727,165.426613 215.512743,172.403451 213.89948,182.145882 C212.265266,191.909264 216.790782,198.71849 225.799912,198.71849 Z M238.182228,179.778366 L218.026919,179.778366 C219.346861,174.058616 224.563776,168.82075 230.262574,168.82075 C236.045179,168.82075 239.229801,173.576733 238.182228,179.778366 Z M251.754855,198.048043 L256.55274,169.114071 L263.718141,169.114071 L264.262879,165.866594 L257.097478,165.866594 L257.746974,161.927718 C258.333615,158.554532 260.491615,156.668901 263.718141,156.668901 C264.954277,156.668901 265.645676,156.962221 266.211365,157.129833 L267.803677,153.861404 C267.112278,153.547132 265.938996,153.149054 263.969559,153.149054 C259.569751,153.149054 254.98138,155.956551 254.164273,161.152514 L253.389069,165.866594 L248.444523,165.866594 L247.920737,169.114071 L252.844331,169.114071 L248.025494,198.048043 L251.754855,198.048043 Z M270.942318,198.048043 L275.740204,169.114071 L282.905605,169.114071 L283.450343,165.866594 L276.284942,165.866594 L276.934437,161.927718 C277.521078,158.554532 279.679079,156.668901 282.905605,156.668901 C284.141741,156.668901 284.833139,156.962221 285.398829,157.129833 L286.99114,153.861404 C286.299742,153.547132 285.12646,153.149054 283.157022,153.149054 C278.757215,153.149054 274.168844,155.956551 273.351737,161.152514 L272.576532,165.866594 L267.631987,165.866594 L267.1082,169.114071 L272.031794,169.114071 L267.212957,198.048043 L270.942318,198.048043 Z M295.61905,198.71849 C302.093053,198.71849 306.974744,195.219596 309.111794,191.175963 L305.780511,190.023632 C304.062491,192.914935 300.752159,195.303402 296.142837,195.303402 C289.312659,195.303402 286.023279,191.13406 287.280367,183.067746 L311.269794,183.067746 L311.563115,181.224017 C313.364941,170.475916 307.561385,165.426613 300.584547,165.426613 C292.245864,165.426613 285.331881,172.403451 283.718618,182.145882 C282.084404,191.909264 286.60992,198.71849 295.61905,198.71849 Z M308.001366,179.778366 L287.846057,179.778366 C289.165999,174.058616 294.382914,168.82075 300.081712,168.82075 C305.864316,168.82075 309.048939,173.576733 308.001366,179.778366 Z M327.964189,198.71849 C334.647707,198.71849 340.032233,194.507246 341.917865,188.661787 L338.146601,188.661787 C336.575241,192.747323 332.762075,195.303402 328.467024,195.303402 C322.139682,195.303402 318.913157,189.814118 320.25405,181.97827 C321.511138,174.184325 326.749004,168.82075 332.992541,168.82075 C337.55996,168.82075 340.116039,171.712052 340.304602,175.420462 L344.075866,175.420462 C344.180623,169.449294 339.885573,165.426613 333.432522,165.426613 C325.010033,165.426613 318.075098,172.403451 316.503738,182.103979 C314.911427,191.678798 319.269331,198.71849 327.964189,198.71849 Z M357.103737,198.529927 C358.654146,198.529927 359.743622,198.236607 360.560729,197.964238 L360.28836,194.591052 C359.722671,194.716761 359.052224,194.884372 358.067505,194.884372 C355.532378,194.884372 353.374377,193.690139 354.044824,189.646506 L357.459912,169.114071 L364.311041,169.114071 L364.834828,165.866594 L358.00465,165.866594 L359.28269,158.156455 L355.532378,158.156455 L354.254338,165.866594 L349.477404,165.866594 L348.932666,169.114071 L353.730552,169.114071 L350.189754,190.526468 C349.330744,195.785285 352.99725,198.529927 357.103737,198.529927 Z M375.05507,160.272552 C376.563575,160.272552 377.841614,159.078319 377.883517,157.653619 C377.92542,156.145114 376.668332,154.908978 375.117924,154.908978 C373.609419,154.908978 372.331379,156.103211 372.289476,157.527911 C372.247573,159.036416 373.48371,160.272552 375.05507,160.272552 Z M370.215281,198.048043 L375.578856,165.866594 L371.828544,165.866594 L366.464969,198.048043 L370.215281,198.048043 Z M391.749229,198.048043 L408.866575,165.866594 L404.655331,165.866594 L390.554995,193.124449 L390.282626,193.124449 L385.254275,165.866594 L381.378254,165.866594 L387.76845,198.048043 L391.749229,198.048043 Z M421.014465,198.71849 C427.488467,198.71849 432.370159,195.219596 434.507208,191.175963 L431.175925,190.023632 C429.457905,192.914935 426.147574,195.303402 421.538251,195.303402 C414.708074,195.303402 411.418694,191.13406 412.675782,183.067746 L436.665209,183.067746 L436.958529,181.224017 C438.760355,170.475916 432.9568,165.426613 425.979962,165.426613 C417.641279,165.426613 410.727296,172.403451 409.114033,182.145882 C407.479818,191.909264 412.005335,198.71849 421.014465,198.71849 Z M433.39678,179.778366 L413.241471,179.778366 C414.561414,174.058616 419.778328,168.82075 425.477127,168.82075 C431.259731,168.82075 434.444354,173.576733 433.39678,179.778366 Z M444.601891,198.048043 L451.72539,155.139444 L447.996029,155.139444 L440.872531,198.048043 L444.601891,198.048043 Z M453.564959,210.116087 C457.461931,210.116087 460.856068,207.895232 463.412147,203.097346 L483.211281,165.866594 L479.000037,165.866594 L464.899701,193.187304 L464.627332,193.187304 L459.598981,165.866594 L455.72296,165.866594 L462.092205,198.215655 L460.332282,201.484084 C457.713349,206.323872 455.15727,207.371445 451.637424,206.15626 L450.066064,209.44564 C450.757462,209.801815 452.077405,210.116087 453.564959,210.116087 Z M513.876154,198.71849 C522.214837,198.71849 528.039344,191.909264 528.039344,182.103979 C528.039344,172.235839 522.214837,165.426613 513.876154,165.426613 C505.537471,165.426613 499.712964,172.235839 499.712964,182.103979 C499.712964,191.909264 505.537471,198.71849 513.876154,198.71849 Z M513.876154,195.303402 C507.192637,195.303402 503.463276,189.311283 503.463276,182.103979 C503.463276,174.896675 507.192637,168.82075 513.876154,168.82075 C520.559671,168.82075 524.289032,174.896675 524.289032,182.103979 C524.289032,189.311283 520.559671,195.303402 513.876154,195.303402 Z M538.448306,198.048043 L538.448306,177.934637 C538.448306,172.319645 542.135764,168.862653 547.206018,168.862653 C552.150564,168.862653 555.335187,172.172984 555.335187,177.431802 L555.335187,198.048043 L559.064547,198.048043 L559.064547,177.201336 C559.064547,169.575003 554.643788,165.447564 548.148834,165.447564 C543.434755,165.447564 540.187278,167.626517 538.678772,170.915897 L538.343549,170.915897 L538.343549,165.866594 L534.718945,165.866594 L534.718945,198.048043 L538.448306,198.048043 Z M587.173364,198.048043 L587.173364,180.700231 L597.167213,180.700231 C597.732902,180.700231 598.277641,180.679279 598.801427,180.637376 L608.208635,198.048043 L612.734151,198.048043 L602.824108,179.883124 C608.166732,178.1232 610.932325,173.723393 610.932325,167.982692 C610.932325,160.482067 606.218246,155.139444 597.104359,155.139444 L583.25544,155.139444 L583.25544,198.048043 L587.173364,198.048043 Z M597.062456,177.11753 L587.173364,177.11753 L587.173364,158.65929 L596.999601,158.65929 C603.787876,158.65929 607.077256,162.367699 607.077256,167.982692 C607.077256,173.597684 603.787876,177.11753 597.062456,177.11753 Z M630.874227,198.71849 C637.327278,198.71849 641.664231,195.219596 643.130834,191.175963 L639.590036,190.023632 C638.3539,192.914935 635.441646,195.303402 630.874227,195.303402 C624.295467,195.303402 620.126125,190.505516 619.958514,183.067746 L643.926989,183.067746 L643.926989,181.224017 C643.926989,170.475916 637.285375,165.426613 630.308537,165.426613 C621.969854,165.426613 616.208202,172.403451 616.208202,182.145882 C616.208202,191.909264 621.865097,198.71849 630.874227,198.71849 Z M640.113823,179.778366 L619.979465,179.778366 C620.377543,173.786247 624.421176,168.82075 630.308537,168.82075 C636.07019,168.82075 640.113823,173.576733 640.113823,179.778366 Z M659.594762,198.781345 C664.958337,198.781345 668.226766,195.806237 669.567659,192.956838 L669.798125,192.956838 L669.798125,198.048043 L673.527486,198.048043 L673.527486,176.195666 C673.527486,167.563662 667.032532,165.426613 662.108938,165.426613 C657.185344,165.426613 652.115089,167.375099 649.936137,172.633917 L653.476934,173.911956 C654.650216,171.146363 657.56247,168.778847 662.213695,168.778847 C667.095386,168.778847 669.798125,171.460635 669.798125,175.860442 L669.798125,176.614695 C669.798125,179.045065 666.781115,179.086968 661.375637,179.757415 C654.105478,180.658328 649.014272,182.69062 649.014272,189.059865 C649.014272,195.261499 653.749303,198.781345 659.594762,198.781345 Z M660.097597,195.366256 C655.886353,195.366256 652.743633,193.124449 652.743633,189.227477 C652.743633,185.330504 655.928256,183.69629 661.375637,183.025843 C664.015521,182.711571 668.708649,182.12493 669.798125,181.056406 L669.798125,185.707631 C669.798125,190.9874 666.047813,195.366256 660.097597,195.366256 Z M694.495963,198.71849 C701.200432,198.71849 705.914511,194.486294 706.773521,188.661787 L703.002258,188.661787 C702.143248,192.768274 698.770062,195.303402 694.495963,195.303402 C688.189572,195.303402 684.020231,189.814118 684.020231,181.97827 C684.020231,174.184325 688.315281,168.82075 694.495963,168.82075 C699.084334,168.82075 702.185151,171.774907 702.981306,175.420462 L706.75257,175.420462 C705.872608,169.449294 700.88616,165.426613 694.433109,165.426613 C686.01062,165.426613 680.269918,172.424402 680.269918,182.103979 C680.269918,191.69975 685.843008,198.71849 694.495963,198.71849 Z M723.635511,198.529927 C725.18592,198.529927 726.233493,198.236607 726.945843,197.964238 L726.149687,194.591052 C725.6259,194.737712 724.955454,194.884372 723.970735,194.884372 C721.435607,194.884372 719.109995,193.690139 719.109995,189.646506 L719.109995,169.114071 L725.919221,169.114071 L725.919221,165.866594 L719.109995,165.866594 L719.109995,158.156455 L715.359683,158.156455 L715.359683,165.866594 L710.561797,165.866594 L710.561797,169.114071 L715.359683,169.114071 L715.359683,190.526468 C715.359683,195.785285 719.508073,198.529927 723.635511,198.529927 Z M752.645092,198.048043 L752.645092,162.116281 L752.980315,162.116281 L778.331588,198.048043 L782.144754,198.048043 L782.144754,155.139444 L778.289685,155.139444 L778.289685,191.113109 L777.954461,191.113109 L752.519383,155.139444 L748.727168,155.139444 L748.727168,198.048043 L752.645092,198.048043 Z M800.243017,198.781345 C805.606592,198.781345 808.875021,195.806237 810.215915,192.956838 L810.446381,192.956838 L810.446381,198.048043 L814.175742,198.048043 L814.175742,176.195666 C814.175742,167.563662 807.680787,165.426613 802.757193,165.426613 C797.833599,165.426613 792.763345,167.375099 790.584392,172.633917 L794.12519,173.911956 C795.298472,171.146363 798.210725,168.778847 802.861951,168.778847 C807.743642,168.778847 810.446381,171.460635 810.446381,175.860442 L810.446381,176.614695 C810.446381,179.045065 807.42937,179.086968 802.023892,179.757415 C794.753734,180.658328 789.662528,182.69062 789.662528,189.059865 C789.662528,195.261499 794.397559,198.781345 800.243017,198.781345 Z M800.745853,195.366256 C796.534608,195.366256 793.391889,193.124449 793.391889,189.227477 C793.391889,185.330504 796.576511,183.69629 802.023892,183.025843 C804.663777,182.711571 809.356905,182.12493 810.446381,181.056406 L810.446381,185.707631 C810.446381,190.9874 806.696069,195.366256 800.745853,195.366256 Z M832.965266,198.529927 C834.515675,198.529927 835.563248,198.236607 836.275598,197.964238 L835.479442,194.591052 C834.955655,194.737712 834.285208,194.884372 833.30049,194.884372 C830.765362,194.884372 828.43975,193.690139 828.43975,189.646506 L828.43975,169.114071 L835.248976,169.114071 L835.248976,165.866594 L828.43975,165.866594 L828.43975,158.156455 L824.689438,158.156455 L824.689438,165.866594 L819.891552,165.866594 L819.891552,169.114071 L824.689438,169.114071 L824.689438,190.526468 C824.689438,195.785285 828.837828,198.529927 832.965266,198.529927 Z M844.149275,160.335407 C845.678732,160.335407 846.956771,159.120222 846.956771,157.653619 C846.956771,156.187017 845.678732,154.971832 844.149275,154.971832 C842.619818,154.971832 841.36273,156.187017 841.36273,157.653619 C841.36273,159.120222 842.619818,160.335407 844.149275,160.335407 Z M845.993004,198.048043 L845.993004,165.866594 L842.242692,165.866594 L842.242692,198.048043 L845.993004,198.048043 Z M867.526951,198.048043 L879.280723,165.866594 L875.23709,165.866594 L865.683223,193.124449 L865.389902,193.124449 L855.836034,165.866594 L851.792401,165.866594 L863.546173,198.048043 L867.526951,198.048043 Z M896.875993,198.71849 C903.329045,198.71849 907.665998,195.219596 909.1326,191.175963 L905.591803,190.023632 C904.355666,192.914935 901.443413,195.303402 896.875993,195.303402 C890.297233,195.303402 886.127892,190.505516 885.96028,183.067746 L909.928756,183.067746 L909.928756,181.224017 C909.928756,170.475916 903.287142,165.426613 896.310304,165.426613 C887.971621,165.426613 882.209968,172.403451 882.209968,182.145882 C882.209968,191.909264 887.866864,198.71849 896.875993,198.71849 Z M906.115589,179.778366 L885.981232,179.778366 C886.37931,173.786247 890.422942,168.82075 896.310304,168.82075 C902.071957,168.82075 906.115589,173.576733 906.115589,179.778366 Z M918.284467,206.763853 C923.019498,198.948956 925.659383,190.002681 925.659383,179.945978 C925.659383,169.910226 923.019498,160.984902 918.284467,153.128103 L914.89033,153.128103 C918.954914,159.685911 921.804313,170.287353 921.804313,179.945978 C921.804313,189.583652 918.975866,200.185093 914.89033,206.763853 L918.284467,206.763853 Z" id="(%codeyoucansharebtwnwebandnativeeffectivelyonReactNative)" fill="#FFFFFF" transform="translate(485.212330, 144.445978) rotate(-360.000000) translate(-485.212330, -144.445978) "></path>
            </g>
        </g>
    </g>
</svg>