<?xml version="1.0" encoding="UTF-8"?>
<svg width="32px" height="32px" viewBox="0 0 32 32" version="1.1" xmlns="http://www.w3.org/2000/svg" xmlns:xlink="http://www.w3.org/1999/xlink">
  <style>
    rect {
      fill: #000;
    }
    @media (prefers-color-scheme: dark) {
      rect {
        fill: #fff;
      }
    }
</style>

    <g id="favicon" stroke="none" stroke-width="1" fill="none" fill-rule="evenodd">
        <g id="tamagui-icon-copy" transform="translate(16.000000, 16.000000) scale(-1, 1) translate(-16.000000, -16.000000) translate(1.000000, 2.000000)" fill="#141414">
            <g id="guy">
                <rect x="10" y="0" width="2" height="2"></rect>
                <rect x="12" y="0" width="2" height="2"></rect>
                <rect x="14" y="0" width="2" height="2"></rect>
                <rect x="16" y="0" width="2" height="2"></rect>
                <rect x="18" y="0" width="2" height="2"></rect>
                <rect x="20" y="0" width="2" height="2"></rect>
                <rect x="22" y="2" width="2" height="2"></rect>
                <rect x="24" y="4" width="2" height="2"></rect>
                <rect x="26" y="6" width="2" height="2"></rect>
                <rect x="26" y="8" width="2" height="2"></rect>
                <rect x="26" y="10" width="2" height="2"></rect>
                <rect x="26" y="12" width="2" height="2"></rect>
                <rect x="28" y="14" width="2" height="2"></rect>
                <rect x="28" y="16" width="2" height="2"></rect>
                <rect x="28" y="18" width="2" height="2"></rect>
                <rect x="26" y="20" width="2" height="2"></rect>
                <rect x="24" y="22" width="2" height="2"></rect>
                <rect x="22" y="24" width="2" height="2"></rect>
                <rect x="20" y="26" width="2" height="2"></rect>
                <rect x="18" y="26" width="2" height="2"></rect>
                <rect x="16" y="24" width="2" height="2"></rect>
                <rect x="14" y="24" width="2" height="2"></rect>
                <rect x="14" y="26" width="2" height="2"></rect>
                <rect x="12" y="26" width="2" height="2"></rect>
                <rect x="10" y="24" width="2" height="2"></rect>
                <rect x="10" y="22" width="2" height="2"></rect>
                <rect x="8" y="20" width="2" height="2"></rect>
                <rect x="6" y="16" width="2" height="2"></rect>
                <rect x="6" y="18" width="2" height="2"></rect>
                <rect x="6" y="14" width="2" height="2"></rect>
                <rect x="4" y="12" width="2" height="2"></rect>
                <rect x="2" y="12" width="2" height="2"></rect>
                <rect x="0" y="10" width="2" height="2"></rect>
                <rect x="2" y="8" width="2" height="2"></rect>
                <rect x="4" y="8" width="2" height="2"></rect>
                <rect x="6" y="8" width="2" height="2"></rect>
                <rect x="0" y="6" width="2" height="2"></rect>
                <rect x="0" y="8" width="2" height="2"></rect>
                <rect x="2" y="4" width="2" height="2"></rect>
                <rect x="2" y="4" width="2" height="2"></rect>
                <rect x="4" y="4" width="2" height="2"></rect>
                <rect x="8" y="2" width="2" height="2"></rect>
                <rect x="10" y="4" width="2" height="2"></rect>
                <rect x="16" y="6" width="2" height="2"></rect>
                <rect x="16" y="14" width="2" height="2"></rect>
                <rect x="16" y="16" width="2" height="2"></rect>
                <rect x="18" y="18" width="2" height="2"></rect>
                <rect x="20" y="16" width="2" height="2"></rect>
                <rect x="20" y="14" width="2" height="2"></rect>
                <rect x="6" y="4" width="2" height="2"></rect>
            </g>
        </g>
    </g>
</svg>
