<?xml version="1.0" encoding="UTF-8"?>
<svg width="161px" height="20px" viewBox="0 0 161 20" version="1.1" xmlns="http://www.w3.org/2000/svg" xmlns:xlink="http://www.w3.org/1999/xlink">
    <!-- Generator: Sketch 61 (89581) - https://sketch.com -->
    <title>logo-color copy</title>
    <desc>Created with Sketch.</desc>
    <g id="Page-1" stroke="none" stroke-width="1" fill="none" fill-rule="evenodd">
        <g id="Artboard" transform="translate(-1119.000000, -111.000000)" fill="#000000" fill-rule="nonzero">
            <g id="logo-color-copy" transform="translate(1119.000000, 111.000000)">
                <path d="M12,20 L12,4 L16,4 L16,0 L0,0 L0,4 L4,4 L4,20 L12,20 Z M29,20 L29,12 L33,12 L33,20 L41,20 L41,4 L37,4 L37,0 L25,0 L25,4 L21,4 L21,20 L29,20 Z M33,8 L29,8 L29,4 L33,4 L33,8 Z M55,20 L55,12 L63,12 L63,20 L71,20 L71,0 L63,0 L63,4 L55,4 L55,0 L47,0 L47,20 L55,20 Z M85,20 L85,12 L89,12 L89,20 L97,20 L97,4 L93,4 L93,0 L81,0 L81,4 L77,4 L77,20 L85,20 Z M89,8 L85,8 L85,4 L89,4 L89,8 Z" id="TAMAGUI"></path>
                <g id="Group" transform="translate(102.000000, 0.000000)">
                    <polygon id="Path" points="59 20 59 0 51 0 51 20"></polygon>
                    <polygon id="Path" points="42 20 42 16 46 16 46 0 38 0 38 16 34 16 34 0 26 0 26 16 30 16 30 20"></polygon>
                    <polygon id="Path" points="16 20 16 16 20 16 20 8 12 8 12 16 8 16 8 4 20 4 20 0 4 0 4 4 0 4 0 16 4 16 4 20"></polygon>
                </g>
            </g>
        </g>
    </g>
</svg>