{
    "asset" : {
        "generator" : "Khronos glTF Blender I/O v3.2.43",
        "version" : "2.0"
    },
    "scene" : 0,
    "scenes" : [
        {
            "name" : "Scene",
            "nodes" : [
                0,
                1,
                2
            ]
        }
    ],
    "nodes" : [
        {
            "mesh" : 0,
            "name" : "pack",
            "rotation" : [
                0,
                1,
                0,
                9.099629778575036e-07
            ],
            "scale" : [
                0.10000000149011612,
                0.10000000149011612,
                0.10000000149011612
            ],
            "translation" : [
                0.13286493718624115,
                0.005910587031394243,
                0.2250399887561798
            ]
        },
        {
            "mesh" : 1,
            "name" : "handle",
            "scale" : [
                0.10000000149011612,
                0.10000000149011612,
                0.10000000149011612
            ],
            "translation" : [
                -0.2579450011253357,
                0.08342566341161728,
                0.057494696229696274
            ]
        },
        {
            "name" : "CAMPOS_TempCam",
            "rotation" : [
                0.39832380414009094,
                -0.5719720125198364,
                0.3714430332183838,
                0.6133647561073303
            ],
            "scale" : [
                0.10000001639127731,
                0.10000000149011612,
                0.10000000149011612
            ],
            "translation" : [
                -3.2142512798309326,
                2.6914002895355225,
                0.6590962409973145
            ]
        }
    ],
    "materials" : [
        {
            "doubleSided" : true,
            "name" : "Chinese_Takeout_Box_chinese",
            "pbrMetallicRoughness" : {
                "baseColorTexture" : {
                    "index" : 0
                },
                "metallicFactor" : 0,
                "roughnessFactor" : 0.800000011920929
            }
        },
        {
            "doubleSided" : true,
            "name" : "Material",
            "pbrMetallicRoughness" : {
                "baseColorFactor" : [
                    0.4436766803264618,
                    0.4436766803264618,
                    0.4436766803264618,
                    1
                ],
                "metallicFactor" : 0.8500000238418579,
                "roughnessFactor" : 0.3100000023841858
            }
        }
    ],
    "meshes" : [
        {
            "name" : "Mesh",
            "primitives" : [
                {
                    "attributes" : {
                        "POSITION" : 0,
                        "NORMAL" : 1,
                        "TEXCOORD_0" : 2
                    },
                    "indices" : 3,
                    "material" : 0
                }
            ]
        },
        {
            "name" : "Mesh.001",
            "primitives" : [
                {
                    "attributes" : {
                        "POSITION" : 4,
                        "NORMAL" : 5,
                        "TEXCOORD_0" : 6
                    },
                    "indices" : 7,
                    "material" : 1
                }
            ]
        }
    ],
    "textures" : [
        {
            "sampler" : 0,
            "source" : 0
        }
    ],
    "images" : [
        {
            "bufferView" : 4,
            "mimeType" : "image/jpeg",
            "name" : "Chinese_Takeout_Box_chinese_diffuse"
        }
    ],
    "accessors" : [
        {
            "bufferView" : 0,
            "componentType" : 5126,
            "count" : 41844,
            "max" : [
                5.619559288024902,
                9.533210754394531,
                6.604653358459473
            ],
            "min" : [
                -2.986090660095215,
                -0.059105899184942245,
                -3.184601306915283
            ],
            "type" : "VEC3"
        },
        {
            "bufferView" : 1,
            "componentType" : 5126,
            "count" : 41844,
            "type" : "VEC3"
        },
        {
            "bufferView" : 2,
            "componentType" : 5126,
            "count" : 41844,
            "type" : "VEC2"
        },
        {
            "bufferView" : 3,
            "componentType" : 5123,
            "count" : 244560,
            "type" : "SCALAR"
        },
        {
            "bufferView" : 5,
            "componentType" : 5126,
            "count" : 2697,
            "max" : [
                7.0460710525512695,
                6.7103376388549805,
                0.05304182320833206
            ],
            "min" : [
                -1.8871712684631348,
                6.534277439117432,
                -6.0194292068481445
            ],
            "type" : "VEC3"
        },
        {
            "bufferView" : 6,
            "componentType" : 5126,
            "count" : 2697,
            "type" : "VEC3"
        },
        {
            "bufferView" : 7,
            "componentType" : 5126,
            "count" : 2697,
            "type" : "VEC2"
        },
        {
            "bufferView" : 8,
            "componentType" : 5123,
            "count" : 15360,
            "type" : "SCALAR"
        }
    ],
    "bufferViews" : [
        {
            "buffer" : 0,
            "byteLength" : 502128,
            "byteOffset" : 0
        },
        {
            "buffer" : 0,
            "byteLength" : 502128,
            "byteOffset" : 502128
        },
        {
            "buffer" : 0,
            "byteLength" : 334752,
            "byteOffset" : 1004256
        },
        {
            "buffer" : 0,
            "byteLength" : 489120,
            "byteOffset" : 1339008
        },
        {
            "buffer" : 0,
            "byteLength" : 845169,
            "byteOffset" : 1828128
        },
        {
            "buffer" : 0,
            "byteLength" : 32364,
            "byteOffset" : 2673300
        },
        {
            "buffer" : 0,
            "byteLength" : 32364,
            "byteOffset" : 2705664
        },
        {
            "buffer" : 0,
            "byteLength" : 21576,
            "byteOffset" : 2738028
        },
        {
            "buffer" : 0,
            "byteLength" : 30720,
            "byteOffset" : 2759604
        }
    ],
    "samplers" : [
        {
            "magFilter" : 9729,
            "minFilter" : 9987
        }
    ],
    "buffers" : [
        {
            "byteLength" : 2790324,
            "uri" : "data:application/octet-stream;base64,"
        }
    ]
}
