{
	"asset":{
		"generator":"Khronos glTF Blender I/O v3.5.30",
		"version":"2.0"
	},
	"extensionsUsed":[
		"KHR_materials_specular",
		"KHR_materials_ior"
	],
	"scene":0,
	"scenes":[
		{
			"name":"Scene",
			"nodes":[
				0,
				1
			]
		}
	],
	"nodes":[
		{
			"mesh":0,
			"name":"pack",
			"rotation":[
				0,
				0.7071068286895752,
				0,
				0.7071067094802856
			]
		},
		{
			"mesh":1,
			"name":"handle",
			"rotation":[
				0,
				0.7071068286895752,
				0,
				0.7071067094802856
			]
		}
	],
	"materials":[
		{
			"doubleSided":true,
			"extensions":{
				"KHR_materials_specular":{
					"specularColorTexture":{
						"index":0
					},
					"specularColorFactor":[
						2.1481711700820347,
						2.1481711700820347,
						2.1481711700820347
					]
				},
				"KHR_materials_ior":{
					"ior":1.4500000476837158
				}
			},
			"name":"Chinese_Takeout_Box_chinese.002",
			"normalTexture":{
				"index":1
			},
			"pbrMetallicRoughness":{
				"baseColorTexture":{
					"index":2
				},
				"metallicFactor":0,
				"metallicRoughnessTexture":{
					"index":3
				}
			}
		}
	],
	"meshes":[
		{
			"name":"pack_pivot.005",
			"primitives":[
				{
					"attributes":{
						"POSITION":0,
						"TEXCOORD_0":1,
						"NORMAL":2
					},
					"indices":3,
					"material":0
				}
			]
		},
		{
			"name":"handle_pivot.003",
			"primitives":[
				{
					"attributes":{
						"POSITION":4,
						"TEXCOORD_0":5,
						"NORMAL":6
					},
					"indices":7,
					"material":0
				}
			]
		}
	],
	"textures":[
		{
			"sampler":0,
			"source":0
		},
		{
			"sampler":0,
			"source":1
		},
		{
			"sampler":0,
			"source":2
		},
		{
			"sampler":0,
			"source":3
		}
	],
	"images":[
		{
			"bufferView":4,
			"mimeType":"image/png",
			"name":"Image"
		},
		{
			"bufferView":5,
			"mimeType":"image/jpeg",
			"name":"Chinese_Takeout_Box_normal"
		},
		{
			"bufferView":6,
			"mimeType":"image/png",
			"name":"Chinese_Takeout_Box_chinese_diffuse"
		},
		{
			"bufferView":7,
			"mimeType":"image/png",
			"name":"Chinese_Takeout_Box_chinese_glossiness"
		}
	],
	"accessors":[
		{
			"bufferView":0,
			"componentType":5126,
			"count":2806,
			"max":[
				4.343760013580322,
				9.595069885253906,
				5.447259902954102
			],
			"min":[
				-4.319930076599121,
				-0.007180000189691782,
				-4.366519927978516
			],
			"type":"VEC3"
		},
		{
			"bufferView":1,
			"componentType":5126,
			"count":2806,
			"type":"VEC2"
		},
		{
			"bufferView":2,
			"componentType":5126,
			"count":2806,
			"type":"VEC3"
		},
		{
			"bufferView":3,
			"componentType":5123,
			"count":15282,
			"type":"SCALAR"
		},
		{
			"bufferView":8,
			"componentType":5126,
			"count":195,
			"max":[
				4.48022985458374,
				7.560919761657715,
				0.6307799816131592
			],
			"min":[
				-4.48022985458374,
				7.35221004486084,
				-5.447259902954102
			],
			"type":"VEC3"
		},
		{
			"bufferView":9,
			"componentType":5126,
			"count":195,
			"type":"VEC2"
		},
		{
			"bufferView":10,
			"componentType":5126,
			"count":195,
			"type":"VEC3"
		},
		{
			"bufferView":11,
			"componentType":5123,
			"count":960,
			"type":"SCALAR"
		}
	],
	"bufferViews":[
		{
			"buffer":0,
			"byteLength":33672,
			"byteOffset":0,
			"target":34962
		},
		{
			"buffer":0,
			"byteLength":22448,
			"byteOffset":33672,
			"target":34962
		},
		{
			"buffer":0,
			"byteLength":33672,
			"byteOffset":56120,
			"target":34962
		},
		{
			"buffer":0,
			"byteLength":30564,
			"byteOffset":89792,
			"target":34963
		},
		{
			"buffer":0,
			"byteLength":230106,
			"byteOffset":120356
		},
		{
			"buffer":0,
			"byteLength":49618,
			"byteOffset":350464
		},
		{
			"buffer":0,
			"byteLength":57143,
			"byteOffset":400084
		},
		{
			"buffer":0,
			"byteLength":230101,
			"byteOffset":457228
		},
		{
			"buffer":0,
			"byteLength":2340,
			"byteOffset":687332,
			"target":34962
		},
		{
			"buffer":0,
			"byteLength":1560,
			"byteOffset":689672,
			"target":34962
		},
		{
			"buffer":0,
			"byteLength":2340,
			"byteOffset":691232,
			"target":34962
		},
		{
			"buffer":0,
			"byteLength":1920,
			"byteOffset":693572,
			"target":34963
		}
	],
	"samplers":[
		{
			"magFilter":9729,
			"minFilter":9987
		}
	],
	"buffers":[
		{
			"byteLength":695492,
			"uri":"data:application/octet-stream;base64,"
		}
	]
}
