<?xml version="1.0" encoding="UTF-8"?>
<svg width="161px" height="20px" viewBox="0 0 161 20" version="1.1" xmlns="http://www.w3.org/2000/svg" xmlns:xlink="http://www.w3.org/1999/xlink">
    <!-- Generator: Sketch 61 (89581) - https://sketch.com -->
    <title>TAMAGUI Copy</title>
    <desc>Created with Sketch.</desc>
    <g id="Page-1" stroke="none" stroke-width="1" fill="none" fill-rule="evenodd">
        <g id="Artboard" transform="translate(-958.000000, -290.000000)" fill="#FFFFFF" fill-rule="nonzero">
            <path d="M970,310 L970,294 L974,294 L974,290 L958,290 L958,294 L962,294 L962,310 L970,310 Z M987,310 L987,302 L991,302 L991,310 L999,310 L999,294 L995,294 L995,290 L983,290 L983,294 L979,294 L979,310 L987,310 Z M991,298 L987,298 L987,294 L991,294 L991,298 Z M1013,310 L1013,302 L1021,302 L1021,310 L1029,310 L1029,290 L1021,290 L1021,294 L1013,294 L1013,290 L1005,290 L1005,310 L1013,310 Z M1043,310 L1043,302 L1047,302 L1047,310 L1055,310 L1055,294 L1051,294 L1051,290 L1039,290 L1039,294 L1035,294 L1035,310 L1043,310 Z M1047,298 L1043,298 L1043,294 L1047,294 L1047,298 Z M1076,310 L1076,306 L1080,306 L1080,298 L1072,298 L1072,306 L1068,306 L1068,294 L1080,294 L1080,290 L1064,290 L1064,294 L1060,294 L1060,306 L1064,306 L1064,310 L1076,310 Z M1102,310 L1102,306 L1106,306 L1106,290 L1098,290 L1098,306 L1094,306 L1094,290 L1086,290 L1086,306 L1090,306 L1090,310 L1102,310 Z M1119,310 L1119,290 L1111,290 L1111,310 L1119,310 Z" id="TAMAGUI-Copy"></path>
        </g>
    </g>
</svg>