<?xml version="1.0" encoding="UTF-8"?>
<svg width="1198px" height="1177px" viewBox="0 0 1198 1177" version="1.1" xmlns="http://www.w3.org/2000/svg" xmlns:xlink="http://www.w3.org/1999/xlink">
    <!-- Generator: Sketch 61 (89581) - https://sketch.com -->
    <title>trilemma</title>
    <desc>Created with Sketch.</desc>
    <g id="trilemma" stroke="none" stroke-width="1" fill="none" fill-rule="evenodd">
        <rect fill="#000000" x="0" y="0" width="1198" height="1177"></rect>
        <g id="Group-3" transform="translate(21.000000, 33.000000)">
            <circle id="Oval" fill-opacity="0.302365603" fill="#8C007B" cx="578" cy="372" r="372"></circle>
            <circle id="Oval-Copy" fill-opacity="0.302365603" fill="#8C007B" cx="372" cy="744" r="372"></circle>
            <circle id="Oval-Copy-2" fill-opacity="0.302365603" fill="#8C007B" cx="784" cy="744" r="372"></circle>
            <g id="Group-2" transform="translate(389.000000, 658.000000)" stroke="#FFC800" stroke-linecap="round" stroke-linejoin="round" stroke-width="2">
                <path d="M0,0 C1.3783951,10.7583214 6.41065316,23.4724288 15.0967742,38.1423221 C23.7828952,52.8122154 33.7506372,65.4314414 45,76" id="Line"></path>
                <line x1="45.4522793" y1="54" x2="45.5477207" y2="78" id="Line"></line>
                <line x1="20" y1="80" x2="45" y2="78" id="Line"></line>
            </g>
            <g id="Group-2-Copy" transform="translate(732.000000, 698.000000) scale(-1, 1) translate(-732.000000, -698.000000) translate(709.000000, 658.000000)" stroke="#FFC800" stroke-linecap="round" stroke-linejoin="round" stroke-width="2">
                <path d="M0,0 C0.467147754,10.359331 5.13381442,23.0259977 14,38 C22.8661856,52.9740023 33.1995189,65.640669 45,76" id="Line"></path>
                <line x1="45.4522793" y1="54" x2="45.5477207" y2="78" id="Line"></line>
                <line x1="20" y1="80" x2="45" y2="78" id="Line"></line>
            </g>
        </g>
        <g id="Native,-web-Runs-on" transform="translate(790.325868, 780.906778)" fill="#FFFFFF" fill-rule="nonzero">
            <path d="M11.6490144,46.0932225 L11.6490144,23.5494464 L11.900432,23.5494464 L27.4045159,46.0932225 L37.1259956,46.0932225 L37.1259956,3.18462265 L25.4769812,3.18462265 L25.4769812,25.6445929 L25.1417577,25.6445929 L9.88909137,3.18462265 L0,3.18462265 L0,46.0932225 L11.6490144,46.0932225 Z M49.8258424,46.5960577 C54.0161354,46.5960577 57.1798066,45.171358 59.1282928,41.5677061 L59.3797104,41.5677061 L59.3797104,46.0932225 L70.1906662,46.0932225 L70.1906662,24.0522816 C70.1906662,18.1020656 64.5547222,13.4927433 55.3570291,13.4927433 C45.7403068,13.4927433 41.0052758,18.5210949 40.6071979,24.387505 L51.250542,24.387505 C51.5229111,22.3971158 52.9895136,21.4542999 55.1894174,21.4542999 C57.200758,21.4542999 58.6254576,22.3761644 58.6254576,24.0522816 L58.6254576,24.1360874 C58.6254576,26.0007678 56.5722141,26.5874088 51.1667362,26.9854866 C44.5251218,27.4673703 39.35011,30.1491578 39.35011,37.2098014 C39.35011,43.6209497 43.6661118,46.5960577 49.8258424,46.5960577 Z M53.5971061,39.3049479 C51.6276684,39.3049479 50.2448717,38.3411805 50.2448717,36.5393546 C50.2448717,34.8841888 51.4181538,33.6061495 54.0999412,33.1871202 C55.9436701,32.8937997 57.4940785,32.5166733 58.7092635,32.0138382 L58.7092635,34.6956257 C58.7092635,37.6288307 56.2160392,39.3049479 53.5971061,39.3049479 Z M87.9187754,46.5541547 C90.5377085,46.4074945 92.4861947,45.8627564 93.5337679,45.5484844 L91.8576508,37.4193161 C91.41767,37.5240734 90.2862909,37.7545395 89.5948926,37.7545395 C88.0863871,37.7545395 87.4159402,37.0840926 87.4159402,35.7431989 L87.4159402,22.2923585 L92.9471269,22.2923585 L92.9471269,13.9117726 L87.4159402,13.9117726 L87.4159402,6.20163357 L75.8507317,6.20163357 L75.8507317,13.9117726 L71.7442446,13.9117726 L71.7442446,22.2923585 L75.8507317,22.2923585 L75.8507317,36.8326751 C75.7669258,43.5790467 79.9362673,46.9941355 87.9187754,46.5541547 Z M101.456466,10.5595382 C104.599186,10.5595382 107.155264,8.19202273 107.155264,5.27976912 C107.155264,2.36751552 104.599186,0 101.456466,0 C98.3137463,0 95.7576676,2.36751552 95.7576676,5.27976912 C95.7576676,8.19202273 98.3137463,10.5595382 101.456466,10.5595382 Z M107.23907,46.0932225 L107.23907,13.9117726 L95.6738617,13.9117726 L95.6738617,46.0932225 L107.23907,46.0932225 Z M132.760925,46.0932225 L143.571881,13.9117726 L131.420031,13.9117726 L126.224068,35.1984608 L125.888844,35.1984608 L120.692881,13.9117726 L108.541032,13.9117726 L119.351987,46.0932225 L132.760925,46.0932225 Z M159.288647,46.6798635 C168.213971,46.6798635 173.954673,42.4057647 175.044149,35.701296 L164.484611,35.701296 C163.814164,37.5240734 161.90758,38.5506952 159.540065,38.5506952 C156.104025,38.5506952 154.092684,36.287937 154.092684,33.1871202 L154.092684,32.684285 L175.044149,32.684285 L175.044149,30.0024976 C175.044149,19.7572313 168.758709,13.4927433 159.03723,13.4927433 C149.064333,13.4927433 142.695087,20.1134062 142.695087,30.0863034 C142.695087,40.4991814 148.980527,46.6798635 159.288647,46.6798635 Z M164.400805,26.3150398 L154.092684,26.3150398 C154.155538,23.5284949 156.4602,21.6219116 159.288647,21.6219116 C162.158998,21.6219116 164.33795,23.5494464 164.400805,26.3150398 Z M184.810713,56.5689549 C185.816383,54.2433423 188.393413,48.6283497 188.833394,42.5733764 L189.001006,40.2268124 L180.285197,40.2268124 L180.285197,42.5733764 C180.285197,48.2721748 178.357662,54.2433423 177.687215,56.5689549 L184.810713,56.5689549 Z M219.176968,46.0932225 L223.702484,28.8292155 L224.037708,28.8292155 L228.563224,46.0932225 L241.050297,46.0932225 L249.09566,13.9117726 L237.530451,13.9117726 L234.010605,33.3547319 L233.759187,33.3547319 L229.485089,13.9117726 L218.255104,13.9117726 L214.148616,33.5223436 L213.897199,33.5223436 L210.209741,13.9117726 L198.644533,13.9117726 L206.689895,46.0932225 L219.176968,46.0932225 Z M265.48306,46.6798635 C274.408384,46.6798635 280.149086,42.4057647 281.238562,35.701296 L270.679024,35.701296 C270.008577,37.5240734 268.101993,38.5506952 265.734478,38.5506952 C262.298438,38.5506952 260.287097,36.287937 260.287097,33.1871202 L260.287097,32.684285 L281.238562,32.684285 L281.238562,30.0024976 C281.238562,19.7572313 274.953122,13.4927433 265.231643,13.4927433 C255.258745,13.4927433 248.8895,20.1134062 248.8895,30.0863034 C248.8895,40.4991814 255.17494,46.6798635 265.48306,46.6798635 Z M270.595218,26.3150398 L260.287097,26.3150398 C260.349951,23.5284949 262.654613,21.6219116 265.48306,21.6219116 C268.353411,21.6219116 270.532363,23.5494464 270.595218,26.3150398 Z M304.497869,46.5122518 C311.36995,46.5122518 317.152554,41.1486768 317.152554,30.0024976 C317.152554,18.3534831 310.95092,13.4927433 304.581675,13.4927433 C299.804741,13.4927433 296.78773,16.2583367 295.530642,19.5267652 L295.363031,19.5267652 L295.363031,3.18462265 L283.797822,3.18462265 L283.797822,46.0932225 L295.279225,46.0932225 L295.279225,40.8134534 L295.530642,40.8134534 C296.871536,44.0818819 299.972353,46.5122518 304.497869,46.5122518 Z M300.22377,37.6288307 C297.039148,37.6288307 295.111613,34.6956257 295.111613,30.0024976 C295.111613,25.2255636 297.039148,22.3761644 300.22377,22.3761644 C303.408393,22.3761644 305.252122,25.2255636 305.252122,30.0024976 C305.252122,34.7794315 303.408393,37.6288307 300.22377,37.6288307 Z" id="Native,web"></path>
            <path d="M79.6739292,95.0932225 L79.6739292,87.3873448 L84.0488792,87.3873448 L84.0488792,87.3873448 L88.1851955,95.0932225 L91.6851554,95.0932225 L87.1710025,86.8504191 C89.6667126,85.9257138 90.9095961,83.8476126 90.9095961,81.1132689 C90.9095961,77.3647322 88.5829182,74.7298192 83.8599609,74.7298192 L76.6015212,74.7298192 L76.6015212,95.0932225 L79.6739292,95.0932225 Z M83.5716119,84.7424887 L79.6739292,84.7424887 L79.6739292,77.3647322 L83.5318396,77.3647322 C86.5644754,77.3647322 87.8173019,78.8064771 87.8173019,81.1132689 C87.8173019,83.4101176 86.5644754,84.7424887 83.5716119,84.7424887 Z M98.4976787,95.2920839 C100.794527,95.2920839 102.355589,94.0790296 103.061547,92.4483664 L103.220636,92.4483664 L103.220636,95.0932225 L106.143898,95.0932225 L106.143898,79.82067 L103.160978,79.82067 L103.160978,88.7594882 C103.170921,91.3546289 101.241965,92.5875694 99.57153,92.5875694 C97.7320625,92.5875694 96.4593498,91.2551982 96.4593498,89.177097 L96.4593498,79.82067 L93.4863724,79.82067 L93.4863724,89.5350475 C93.4863724,93.3233564 95.5644736,95.2920839 98.4976787,95.2920839 Z M112.170903,95.0932225 L112.170903,86.0251445 C112.170903,83.5890928 113.662363,82.1970633 115.730521,82.1970633 C117.748964,82.1970633 118.971961,83.5194913 118.971961,85.7367955 L118.971961,95.0932225 L121.944939,95.0932225 L121.944939,85.378845 C121.944939,81.6004792 119.866837,79.6218086 116.744714,79.6218086 C114.447865,79.6218086 112.946462,80.6857169 112.240504,82.306437 L112.051586,82.306437 L112.051586,79.82067 L109.197925,79.82067 L109.197925,95.0932225 L112.170903,95.0932225 Z M130.487541,95.4014576 C134.176419,95.4014576 136.731787,93.4426732 136.731787,90.6785003 C136.731787,88.5208545 135.359644,87.1884834 132.555699,86.542184 L130.12959,85.9853722 C128.449212,85.5876495 127.723368,85.0208946 127.733311,83.9868155 C127.723368,82.8135335 128.99608,81.9783158 130.686402,81.9783158 C132.535813,81.9783158 133.390916,83.0024518 133.738924,84.0265878 L136.433495,83.5493205 C135.817025,81.1729273 133.957671,79.6218086 130.656573,79.6218086 C127.206328,79.6218086 124.760333,81.4413901 124.760333,84.1459046 C124.760333,86.3134934 126.072818,87.7552383 128.936422,88.3915946 L131.52162,88.9583495 C132.993194,89.2864708 133.679265,89.9427133 133.679265,90.8972478 C133.679265,92.0804729 132.416496,93.0051782 130.467654,93.0051782 C128.687845,93.0051782 127.544392,92.239562 127.186442,90.7381587 L124.312895,91.1756537 C124.810049,93.8801682 127.057182,95.4014576 130.487541,95.4014576 Z M151.977397,95.4014576 C156.282746,95.4014576 159.096634,92.249505 159.096634,87.5265477 C159.096634,82.7737612 156.282746,79.6218086 151.977397,79.6218086 C147.672049,79.6218086 144.858161,82.7737612 144.858161,87.5265477 C144.858161,92.249505 147.672049,95.4014576 151.977397,95.4014576 Z M151.98734,92.9057475 C149.173452,92.9057475 147.860967,90.4498097 147.860967,87.5166047 C147.860967,84.5933427 149.173452,82.1075757 151.98734,82.1075757 C154.781342,82.1075757 156.093827,84.5933427 156.093827,87.5166047 C156.093827,90.4498097 154.781342,92.9057475 151.98734,92.9057475 Z M164.447513,95.0932225 L164.447513,86.0251445 C164.447513,83.5890928 165.938973,82.1970633 168.007131,82.1970633 C170.025574,82.1970633 171.248571,83.5194913 171.248571,85.7367955 L171.248571,95.0932225 L174.221549,95.0932225 L174.221549,85.378845 C174.221549,81.6004792 172.143447,79.6218086 169.021324,79.6218086 C166.724475,79.6218086 165.223072,80.6857169 164.517114,82.306437 L164.328196,82.306437 L164.328196,79.82067 L161.474535,79.82067 L161.474535,95.0932225 L164.447513,95.0932225 Z M191.555222,95.3915145 C195.254044,95.3915145 197.938672,92.4284803 197.938672,87.4867755 C197.938672,82.5351276 195.214272,79.6218086 191.525393,79.6218086 C188.691619,79.6218086 187.667483,81.3519025 187.1405,82.2964939 L186.961525,82.2964939 L186.961525,74.7298192 L183.988548,74.7298192 L183.988548,95.0932225 L186.891924,95.0932225 L186.891924,92.7168292 L187.1405,92.7168292 C187.677426,93.6912499 188.771163,95.3915145 191.555222,95.3915145 Z M190.889037,92.8560322 C188.333668,92.8560322 186.901867,90.6685572 186.901867,87.4569463 C186.901867,84.2652214 188.293896,82.1473479 190.889037,82.1473479 C193.583608,82.1473479 194.935866,84.4243105 194.935866,87.4569463 C194.935866,90.5194112 193.543836,92.8560322 190.889037,92.8560322 Z M206.769632,95.4014576 C211.074981,95.4014576 213.888869,92.249505 213.888869,87.5265477 C213.888869,82.7737612 211.074981,79.6218086 206.769632,79.6218086 C202.464284,79.6218086 199.650395,82.7737612 199.650395,87.5265477 C199.650395,92.249505 202.464284,95.4014576 206.769632,95.4014576 Z M206.779575,92.9057475 C203.965687,92.9057475 202.653202,90.4498097 202.653202,87.5166047 C202.653202,84.5933427 203.965687,82.1075757 206.779575,82.1075757 C209.573577,82.1075757 210.886062,84.5933427 210.886062,87.5166047 C210.886062,90.4498097 209.573577,92.9057475 206.779575,92.9057475 Z M221.745401,95.2920839 C222.689992,95.2821408 223.326348,95.1031656 223.674356,94.9739057 L223.13743,92.5179679 C222.938569,92.5577402 222.570675,92.6472278 222.093408,92.6472278 C221.12893,92.6472278 220.263883,92.3290496 220.263883,90.6088988 L220.263883,82.2070063 L223.39595,82.2070063 L223.39595,79.82067 L220.263883,79.82067 L220.263883,76.161621 L217.290906,76.161621 L217.290906,79.82067 L215.053716,79.82067 L215.053716,82.2070063 L217.290906,82.2070063 L217.290906,91.225369 C217.280963,93.999485 219.398837,95.3417992 221.745401,95.2920839 Z M229.035107,95.0932225 L229.035107,86.0251445 C229.035107,83.5890928 230.576283,82.1970633 232.694156,82.1970633 C234.742428,82.1970633 235.965426,83.4996052 235.965426,85.7367955 L235.965426,95.0932225 L238.938403,95.0932225 L238.938403,85.378845 C238.938403,81.57065 236.850359,79.6218086 233.708349,79.6218086 C231.331956,79.6218086 229.900154,80.6558877 229.184253,82.306437 L228.995335,82.306437 L228.995335,74.7298192 L226.06213,74.7298192 L226.06213,95.0932225 L229.035107,95.0932225 Z" id="Runsonboth" fill-opacity="0.671711101"></path>
        </g>
        <g id="Write-once-Single-co" transform="translate(447.175651, 218.906778)" fill="#FFFFFF" fill-rule="nonzero">
            <path d="M23.800864,46.0932225 L31.0919737,22.1247468 L31.4271972,22.1247468 L38.7183069,46.0932225 L49.8644862,46.0932225 L62.5191709,3.18462265 L49.5292627,3.18462265 L43.6628526,29.6672741 L43.3276291,29.6672741 L36.3717428,3.18462265 L26.147428,3.18462265 L19.1915417,29.5834683 L18.8563183,29.5834683 L12.9899082,3.18462265 L-1.13686838e-13,3.18462265 L12.6546847,46.0932225 L23.800864,46.0932225 Z M74.045963,46.0932225 L74.045963,29.3320507 C74.045963,25.6445929 76.5810902,23.214223 79.996179,23.214223 C81.1904125,23.214223 83.1179473,23.4027862 84.2702778,23.800864 L84.2702778,13.9327241 C83.3484134,13.660355 82.3427431,13.4927433 81.3370728,13.4927433 C77.9010325,13.4927433 75.219245,15.5040839 74.045963,20.0296003 L73.7107396,20.0296003 L73.7107396,13.9117726 L62.4807545,13.9117726 L62.4807545,46.0932225 L74.045963,46.0932225 Z M91.8577716,10.5595382 C95.0004913,10.5595382 97.55657,8.19202273 97.55657,5.27976912 C97.55657,2.36751552 95.0004913,0 91.8577716,0 C88.7150519,0 86.1589732,2.36751552 86.1589732,5.27976912 C86.1589732,8.19202273 88.7150519,10.5595382 91.8577716,10.5595382 Z M97.6403759,46.0932225 L97.6403759,13.9117726 L86.0751673,13.9117726 L86.0751673,46.0932225 L97.6403759,46.0932225 Z M115.703509,46.5541547 C118.322442,46.4074945 120.270928,45.8627564 121.318502,45.5484844 L119.642384,37.4193161 C119.202404,37.5240734 118.071025,37.7545395 117.379626,37.7545395 C115.871121,37.7545395 115.200674,37.0840926 115.200674,35.7431989 L115.200674,22.2923585 L120.731861,22.2923585 L120.731861,13.9117726 L115.200674,13.9117726 L115.200674,6.20163357 L103.635465,6.20163357 L103.635465,13.9117726 L99.5289782,13.9117726 L99.5289782,22.2923585 L103.635465,22.2923585 L103.635465,36.8326751 C103.551659,43.5790467 107.721001,46.9941355 115.703509,46.5541547 Z M138.543646,46.6798635 C147.46897,46.6798635 153.209672,42.4057647 154.299148,35.701296 L143.739609,35.701296 C143.069163,37.5240734 141.162579,38.5506952 138.795064,38.5506952 C135.359024,38.5506952 133.347683,36.287937 133.347683,33.1871202 L133.347683,32.684285 L154.299148,32.684285 L154.299148,30.0024976 C154.299148,19.7572313 148.013708,13.4927433 138.292229,13.4927433 C128.319331,13.4927433 121.950086,20.1134062 121.950086,30.0863034 C121.950086,40.4991814 128.235525,46.6798635 138.543646,46.6798635 Z M143.655804,26.3150398 L133.347683,26.3150398 C133.410537,23.5284949 135.715198,21.6219116 138.543646,21.6219116 C141.413997,21.6219116 143.592949,23.5494464 143.655804,26.3150398 Z M182.296391,46.6798635 C192.772124,46.6798635 198.973757,39.9753948 198.973757,30.0863034 C198.973757,20.197212 192.772124,13.4927433 182.296391,13.4927433 C171.820659,13.4927433 165.619025,20.197212 165.619025,30.0863034 C165.619025,39.9753948 171.820659,46.6798635 182.296391,46.6798635 Z M182.380197,38.1316659 C179.27938,38.1316659 177.435652,35.0518006 177.435652,30.0024976 C177.435652,24.9531945 179.27938,21.8733292 182.380197,21.8733292 C185.313402,21.8733292 187.157131,24.9531945 187.157131,30.0024976 C187.157131,35.0518006 185.313402,38.1316659 182.380197,38.1316659 Z M213.265849,46.0932225 L213.265849,27.9911569 C213.286801,24.8065343 215.088627,22.8789995 217.958977,22.8789995 C220.871231,22.8789995 222.589251,24.8065343 222.5683,27.9911569 L222.5683,46.0932225 L234.133582,46.0932225 L234.133582,25.560787 C234.15446,18.5629978 229.733701,13.4927433 222.903523,13.4927433 C218.168492,13.4927433 214.41818,15.9650162 213.014432,20.0296003 L212.679208,20.0296003 L212.679208,13.9117726 L201.700641,13.9117726 L201.700641,46.0932225 L213.265849,46.0932225 Z M253.37016,46.6798635 C262.903077,46.6798635 268.748535,41.2115312 268.874244,32.684285 L258.147094,32.684285 C257.895677,36.0574709 256.072899,37.8802483 253.537772,37.8802483 C250.49981,37.8802483 248.509421,35.2822667 248.509421,30.0024976 C248.509421,24.7227284 250.49981,22.1247468 253.537772,22.1247468 C256.093851,22.1247468 257.832822,23.9475242 258.147094,27.3207101 L268.874244,27.3207101 C268.81139,18.9401242 262.840222,13.4927433 253.37016,13.4927433 C242.894428,13.4927433 236.692794,20.197212 236.692794,30.0863034 C236.692794,39.9753948 242.894428,46.6798635 253.37016,46.6798635 Z M287.105199,46.6798635 C296.030523,46.6798635 301.771225,42.4057647 302.860701,35.701296 L292.301162,35.701296 C291.630716,37.5240734 289.724132,38.5506952 287.356617,38.5506952 C283.920577,38.5506952 281.909236,36.287937 281.909236,33.1871202 L281.909236,32.684285 L302.860701,32.684285 L302.860701,30.0024976 C302.860701,19.7572313 296.575261,13.4927433 286.853782,13.4927433 C276.880884,13.4927433 270.511639,20.1134062 270.511639,30.0863034 C270.511639,40.4991814 276.797079,46.6798635 287.105199,46.6798635 Z M292.217357,26.3150398 L281.909236,26.3150398 C281.97209,23.5284949 284.276751,21.6219116 287.105199,21.6219116 C289.97555,21.6219116 292.154502,23.5494464 292.217357,26.3150398 Z" id="Writeonce"></path>
            <path d="M56.1402962,95.4312868 C60.9229119,95.4312868 63.6771418,92.9156906 63.6771418,89.465446 C63.6771418,85.7964539 60.4058724,84.3745952 57.8206747,83.7382388 L55.8320611,83.2211993 C54.2411702,82.8135335 52.1232967,82.0678034 52.1332398,80.118962 C52.1332398,78.3888682 53.7141876,77.1062124 56.2198408,77.1062124 C58.5564617,77.1062124 60.2169541,78.1999499 60.4357016,80.0791898 L63.3987359,80.0791898 C63.3092483,76.8178635 60.4257585,74.4514133 56.2894422,74.4514133 C52.2028413,74.4514133 49.0707748,76.7880343 49.0707748,80.2979373 C49.0707748,83.1317117 51.0991607,84.792204 54.3704301,85.6771371 L56.7766526,86.3333796 C58.9541845,86.9100775 60.634563,87.6259784 60.634563,89.4356168 C60.634563,91.4242304 58.735437,92.7367154 56.1204101,92.7367154 C53.7539599,92.7367154 51.7852324,91.6827502 51.6062572,89.465446 L48.5239061,89.465446 C48.7227675,93.1543242 51.576428,95.4312868 56.1402962,95.4312868 Z M67.6757764,77.4641629 C68.6999124,77.4641629 69.5550162,76.6687174 69.5550162,75.6942968 C69.5550162,74.7198761 68.6999124,73.9144876 67.6757764,73.9144876 C66.6416973,73.9144876 65.7965365,74.7198761 65.7965365,75.6942968 C65.7965365,76.6687174 66.6416973,77.4641629 67.6757764,77.4641629 Z M69.1473504,95.0932225 L69.1473504,79.82067 L66.1743731,79.82067 L66.1743731,95.0932225 L69.1473504,95.0932225 Z M75.1841876,95.0932225 L75.1841876,86.0251445 C75.1841876,83.5890928 76.6756478,82.1970633 78.7438059,82.1970633 C80.7622487,82.1970633 81.9852461,83.5194913 81.9852461,85.7367955 L81.9852461,95.0932225 L84.9582234,95.0932225 L84.9582234,85.378845 C84.9582234,81.6004792 82.8801222,79.6218086 79.7579989,79.6218086 C77.4611501,79.6218086 75.9597469,80.6857169 75.253789,82.306437 L75.0648708,82.306437 L75.0648708,79.82067 L72.2112102,79.82067 L72.2112102,95.0932225 L75.1841876,95.0932225 Z M94.4056445,101.138608 C98.2933841,101.138608 101.296191,99.3587987 101.296191,95.4312868 L101.296191,79.82067 L98.3828717,79.82067 L98.3828717,82.2964939 L98.1641242,82.2964939 C97.6371416,81.3519025 96.5831764,79.6218086 93.739459,79.6218086 C90.0505807,79.6218086 87.3361232,82.5351276 87.3361232,87.3972878 C87.3361232,92.2693912 90.1102391,94.8645319 93.7195728,94.8645319 C96.523518,94.8645319 97.6073124,93.2835841 98.1442381,92.3091635 L98.3331564,92.3091635 L98.3331564,95.31197 C98.3331564,97.7082494 96.6925502,98.7423285 94.4354737,98.7423285 C91.9596498,98.7423285 90.9951722,97.499445 90.4681896,96.624455 L87.9128211,97.6784202 C88.7182096,99.547717 90.7565386,101.138608 94.4056445,101.138608 Z M94.3758153,92.3986511 C91.7210162,92.3986511 90.3389297,90.3603221 90.3389297,87.3575156 C90.3389297,84.4243105 91.691187,82.1473479 94.3758153,82.1473479 C96.9709561,82.1473479 98.3629856,84.2652214 98.3629856,87.3575156 C98.3629856,90.5094681 96.9411269,92.3986511 94.3758153,92.3986511 Z M107.323203,95.0932225 L107.323203,74.7298192 L104.350225,74.7298192 L104.350225,95.0932225 L107.323203,95.0932225 Z M116.969374,95.4014576 C120.300301,95.4014576 122.656808,93.7608514 123.332937,91.2750844 L120.519049,90.7679879 C119.982123,92.2097328 118.689524,92.9455198 116.999203,92.9455198 C114.453777,92.9455198 112.74357,91.2949705 112.664025,88.3518224 L123.521855,88.3518224 L123.521855,87.2978572 C123.521855,81.7794544 120.220757,79.6218086 116.760569,79.6218086 C112.504936,79.6218086 109.700991,82.8632488 109.700991,87.5563769 C109.700991,92.2992204 112.465164,95.4014576 116.969374,95.4014576 Z M120.608536,86.1245751 L112.673968,86.1245751 C112.793285,83.9569863 114.36429,82.0777465 116.780455,82.0777465 C119.087247,82.0777465 120.598593,83.7879542 120.608536,86.1245751 Z M138.817197,95.4014576 C142.426531,95.4014576 144.763152,93.2338688 145.091273,90.2608914 L142.19784,90.2608914 C141.820004,91.9114407 140.537348,92.8858614 138.837083,92.8858614 C136.321487,92.8858614 134.700767,90.787874 134.700767,87.4569463 C134.700767,84.1856769 136.351316,82.1274618 138.837083,82.1274618 C140.726266,82.1274618 141.879662,83.32063 142.19784,84.7524318 L145.091273,84.7524318 C144.773095,81.6700807 142.257499,79.6218086 138.787368,79.6218086 C134.48202,79.6218086 131.697961,82.8632488 131.697961,87.5265477 C131.697961,92.1301882 134.382589,95.4014576 138.817197,95.4014576 Z M153.783012,95.4014576 C158.08836,95.4014576 160.902248,92.249505 160.902248,87.5265477 C160.902248,82.7737612 158.08836,79.6218086 153.783012,79.6218086 C149.477663,79.6218086 146.663775,82.7737612 146.663775,87.5265477 C146.663775,92.249505 149.477663,95.4014576 153.783012,95.4014576 Z M153.792955,92.9057475 C150.979066,92.9057475 149.666581,90.4498097 149.666581,87.5166047 C149.666581,84.5933427 150.979066,82.1075757 153.792955,82.1075757 C156.586957,82.1075757 157.899442,84.5933427 157.899442,87.5166047 C157.899442,90.4498097 156.586957,92.9057475 153.792955,92.9057475 Z M168.997414,95.3915145 C171.781473,95.3915145 172.87521,93.6912499 173.412136,92.7168292 L173.660713,92.7168292 L173.660713,95.0932225 L176.564089,95.0932225 L176.564089,74.7298192 L173.591111,74.7298192 L173.591111,82.2964939 L173.412136,82.2964939 C172.87521,81.3519025 171.861017,79.6218086 169.0173,79.6218086 C165.328422,79.6218086 162.613964,82.5351276 162.613964,87.4867755 C162.613964,92.4284803 165.288649,95.3915145 168.997414,95.3915145 Z M169.653656,92.8560322 C166.998857,92.8560322 165.616771,90.5194112 165.616771,87.4569463 C165.616771,84.4243105 166.969028,82.1473479 169.653656,82.1473479 C172.248797,82.1473479 173.640827,84.2652214 173.640827,87.4569463 C173.640827,90.6685572 172.218968,92.8560322 169.653656,92.8560322 Z M186.449014,95.4014576 C189.779941,95.4014576 192.136449,93.7608514 192.812577,91.2750844 L189.998689,90.7679879 C189.461763,92.2097328 188.169164,92.9455198 186.478843,92.9455198 C183.933417,92.9455198 182.22321,91.2949705 182.143665,88.3518224 L193.001496,88.3518224 L193.001496,87.2978572 C193.001496,81.7794544 189.700397,79.6218086 186.240209,79.6218086 C181.984576,79.6218086 179.180631,82.8632488 179.180631,87.5563769 C179.180631,92.2992204 181.944804,95.4014576 186.449014,95.4014576 Z M190.088177,86.1245751 L182.153608,86.1245751 C182.272925,83.9569863 183.84393,82.0777465 186.260095,82.0777465 C188.566887,82.0777465 190.078234,83.7879542 190.088177,86.1245751 Z M203.1847,95.3915145 C206.883522,95.3915145 209.56815,92.4284803 209.56815,87.4867755 C209.56815,82.5351276 206.843749,79.6218086 203.154871,79.6218086 C200.321097,79.6218086 199.296961,81.3519025 198.769978,82.2964939 L198.591003,82.2964939 L198.591003,74.7298192 L195.618026,74.7298192 L195.618026,95.0932225 L198.521402,95.0932225 L198.521402,92.7168292 L198.769978,92.7168292 C199.306904,93.6912499 200.400641,95.3915145 203.1847,95.3915145 Z M202.518515,92.8560322 C199.963146,92.8560322 198.531345,90.6685572 198.531345,87.4569463 C198.531345,84.2652214 199.923374,82.1473479 202.518515,82.1473479 C205.213086,82.1473479 206.565344,84.4243105 206.565344,87.4569463 C206.565344,90.5194112 205.173314,92.8560322 202.518515,92.8560322 Z M216.410496,95.4312868 C218.936036,95.4312868 220.357894,94.148631 220.924649,93.0051782 L221.043966,93.0051782 L221.043966,95.0932225 L223.947342,95.0932225 L223.947342,84.9512931 C223.947342,80.5067417 220.447382,79.6218086 218.021274,79.6218086 C215.257101,79.6218086 212.711675,80.7354323 211.717368,83.5194913 L214.51137,84.1558477 C214.948865,83.0720533 216.062489,82.0280311 218.061046,82.0280311 C219.980058,82.0280311 220.964422,83.032281 220.964422,84.7623748 L220.964422,84.8319763 C220.964422,85.9157707 219.850798,85.8958846 217.106511,86.2140628 C214.213078,86.5521271 211.250044,87.3078002 211.250044,90.777931 C211.250044,93.7807375 213.507121,95.4312868 216.410496,95.4312868 Z M217.056796,93.0449505 C215.376417,93.0449505 214.163363,92.2892773 214.163363,90.8177032 C214.163363,89.2268124 215.575279,88.6600575 217.29543,88.4313669 C218.259907,88.302107 220.546813,88.0435873 220.974365,87.6160353 L220.974365,89.5847628 C220.974365,91.3944012 219.53262,93.0449505 217.056796,93.0449505 Z M232.470049,95.4014576 C236.158927,95.4014576 238.714296,93.4426732 238.714296,90.6785003 C238.714296,88.5208545 237.342152,87.1884834 234.538207,86.542184 L232.112098,85.9853722 C230.43172,85.5876495 229.705876,85.0208946 229.715819,83.9868155 C229.705876,82.8135335 230.978589,81.9783158 232.66891,81.9783158 C234.518321,81.9783158 235.373425,83.0024518 235.721432,84.0265878 L238.416003,83.5493205 C237.799533,81.1729273 235.94018,79.6218086 232.639081,79.6218086 C229.188836,79.6218086 226.742842,81.4413901 226.742842,84.1459046 C226.742842,86.3134934 228.055327,87.7552383 230.91893,88.3915946 L233.504128,88.9583495 C234.975702,89.2864708 235.661774,89.9427133 235.661774,90.8972478 C235.661774,92.0804729 234.399004,93.0051782 232.450163,93.0051782 C230.670354,93.0051782 229.526901,92.239562 229.16895,90.7381587 L226.295404,91.1756537 C226.792557,93.8801682 229.03969,95.4014576 232.470049,95.4014576 Z M247.624771,95.4014576 C250.955699,95.4014576 253.312206,93.7608514 253.988335,91.2750844 L251.174447,90.7679879 C250.637521,92.2097328 249.344922,92.9455198 247.6546,92.9455198 C245.109175,92.9455198 243.398967,91.2949705 243.319423,88.3518224 L254.177253,88.3518224 L254.177253,87.2978572 C254.177253,81.7794544 250.876155,79.6218086 247.415967,79.6218086 C243.160334,79.6218086 240.356389,82.8632488 240.356389,87.5563769 C240.356389,92.2992204 243.120561,95.4014576 247.624771,95.4014576 Z M251.263934,86.1245751 L243.329366,86.1245751 C243.448683,83.9569863 245.019687,82.0777465 247.435853,82.0777465 C249.742645,82.0777465 251.253991,83.7879542 251.263934,86.1245751 Z" id="Singlecodebase" fill-opacity="0.671711101"></path>
        </g>
        <g id="Feels-nice-Uses-nati" transform="translate(108.140830, 777.906778)" fill="#FFFFFF" fill-rule="nonzero">
            <path d="M11.6490144,46.0932225 L11.6490144,29.3320507 L28.3263804,29.3320507 L28.3263804,19.9457945 L11.6490144,19.9457945 L11.6490144,12.5708789 L30.1701093,12.5708789 L30.1701093,3.18462265 L-1.13686838e-13,3.18462265 L-1.13686838e-13,46.0932225 L11.6490144,46.0932225 Z M45.7192345,46.6798635 C54.6445585,46.6798635 60.3852598,42.4057647 61.474736,35.701296 L50.9151978,35.701296 C50.2447509,37.5240734 48.3381676,38.5506952 45.9706521,38.5506952 C42.5346118,38.5506952 40.5232712,36.287937 40.5232712,33.1871202 L40.5232712,32.684285 L61.474736,32.684285 L61.474736,30.0024976 C61.474736,19.7572313 55.1892966,13.4927433 45.4678169,13.4927433 C35.4949197,13.4927433 29.1256744,20.1134062 29.1256744,30.0863034 C29.1256744,40.4991814 35.4111138,46.6798635 45.7192345,46.6798635 Z M50.8313919,26.3150398 L40.5232712,26.3150398 C40.5861256,23.5284949 42.8907867,21.6219116 45.7192345,21.6219116 C48.5895852,21.6219116 50.7685375,23.5494464 50.8313919,26.3150398 Z M79.621886,46.6798635 C88.54721,46.6798635 94.2879113,42.4057647 95.3773875,35.701296 L84.8178493,35.701296 C84.1474024,37.5240734 82.2408191,38.5506952 79.8733036,38.5506952 C76.4372634,38.5506952 74.4259227,36.287937 74.4259227,33.1871202 L74.4259227,32.684285 L95.3773875,32.684285 L95.3773875,30.0024976 C95.3773875,19.7572313 89.0919481,13.4927433 79.3704684,13.4927433 C69.3975712,13.4927433 63.0283259,20.1134062 63.0283259,30.0863034 C63.0283259,40.4991814 69.3137653,46.6798635 79.621886,46.6798635 Z M84.7340434,26.3150398 L74.4259227,26.3150398 C74.4887771,23.5284949 76.7934383,21.6219116 79.621886,21.6219116 C82.4922367,21.6219116 84.671189,23.5494464 84.7340434,26.3150398 Z M109.669468,46.0932225 L109.669468,3.18462265 L98.1042594,3.18462265 L98.1042594,46.0932225 L109.669468,46.0932225 Z M128.319242,46.6798635 C137.223615,46.6798635 143.781423,42.3429103 143.823326,35.4498784 C143.781423,30.6938959 140.596801,27.9283025 134.018041,26.734069 L127.481184,25.560787 C125.029862,25.1208063 124.338464,24.2408447 124.380367,23.2980288 C124.338464,21.9571351 125.99363,21.2028823 127.984019,21.2028823 C130.267728,21.2028823 132.174312,22.4180673 132.341923,24.387505 L142.985268,24.387505 C142.691947,17.5782789 137.035052,13.4927433 127.732601,13.4927433 C118.534908,13.4927433 112.857061,17.264007 112.898964,23.9684757 C112.857061,29.0387302 116.146441,32.2862072 122.70425,33.4385378 L128.403048,34.4442081 C130.917224,34.9051403 132.048603,35.5755872 132.090506,36.7907721 C132.048603,38.1316659 130.519146,38.8859186 128.403048,38.8859186 C125.784115,38.8859186 123.940386,37.7545395 123.626114,35.701296 L112.144711,35.701296 C112.773255,42.3010074 118.472054,46.6798635 128.319242,46.6798635 Z M167.630263,46.0932225 L167.630263,27.9911569 C167.651215,24.8065343 169.453041,22.8789995 172.323392,22.8789995 C175.235645,22.8789995 176.953665,24.8065343 176.932714,27.9911569 L176.932714,46.0932225 L188.497997,46.0932225 L188.497997,25.560787 C188.518874,18.5629978 184.098115,13.4927433 177.267937,13.4927433 C172.532906,13.4927433 168.782594,15.9650162 167.378846,20.0296003 L167.043622,20.0296003 L167.043622,13.9117726 L156.065055,13.9117726 L156.065055,46.0932225 L167.630263,46.0932225 Z M198.013095,10.5595382 C201.155814,10.5595382 203.711893,8.19202273 203.711893,5.27976912 C203.711893,2.36751552 201.155814,0 198.013095,0 C194.870375,0 192.314296,2.36751552 192.314296,5.27976912 C192.314296,8.19202273 194.870375,10.5595382 198.013095,10.5595382 Z M203.795699,46.0932225 L203.795699,13.9117726 L192.230491,13.9117726 L192.230491,46.0932225 L203.795699,46.0932225 Z M223.199726,46.6798635 C232.732642,46.6798635 238.578101,41.2115312 238.70381,32.684285 L227.97666,32.684285 C227.725242,36.0574709 225.902465,37.8802483 223.367338,37.8802483 C220.329375,37.8802483 218.338986,35.2822667 218.338986,30.0024976 C218.338986,24.7227284 220.329375,22.1247468 223.367338,22.1247468 C225.923416,22.1247468 227.662388,23.9475242 227.97666,27.3207101 L238.70381,27.3207101 C238.640955,18.9401242 232.669788,13.4927433 223.199726,13.4927433 C212.723994,13.4927433 206.52236,20.197212 206.52236,30.0863034 C206.52236,39.9753948 212.723994,46.6798635 223.199726,46.6798635 Z M256.934765,46.6798635 C265.860089,46.6798635 271.60079,42.4057647 272.690266,35.701296 L262.130728,35.701296 C261.460281,37.5240734 259.553698,38.5506952 257.186182,38.5506952 C253.750142,38.5506952 251.738802,36.287937 251.738802,33.1871202 L251.738802,32.684285 L272.690266,32.684285 L272.690266,30.0024976 C272.690266,19.7572313 266.404827,13.4927433 256.683347,13.4927433 C246.71045,13.4927433 240.341205,20.1134062 240.341205,30.0863034 C240.341205,40.4991814 246.626644,46.6798635 256.934765,46.6798635 Z M262.046922,26.3150398 L251.738802,26.3150398 C251.801656,23.5284949 254.106317,21.6219116 256.934765,21.6219116 C259.805115,21.6219116 261.984068,23.5494464 262.046922,26.3150398 Z" id="Feelsnice"></path>
            <path d="M8.13353096,105.431287 C13.0155774,105.431287 16.2271883,102.398651 16.2271883,98.1231318 L16.2271883,84.7298192 L13.1448372,84.7298192 L13.1448372,97.8745551 C13.1448372,100.638728 11.2357682,102.627342 8.13353096,102.627342 C5.0412368,102.627342 3.12222467,100.638728 3.12222467,97.8745551 L3.12222467,84.7298192 L0.0498166532,84.7298192 L0.0498166532,98.1231318 C0.0498166532,102.398651 3.25148456,105.431287 8.13353096,105.431287 Z M25.0283549,105.401458 C28.7172332,105.401458 31.2726017,103.442673 31.2726017,100.6785 C31.2726017,98.5208545 29.9004583,97.1884834 27.0965131,96.542184 L24.6704045,95.9853722 C22.990026,95.5876495 22.264182,95.0208946 22.2741251,93.9868155 C22.264182,92.8135335 23.5368947,91.9783158 25.2272163,91.9783158 C27.076627,91.9783158 27.9317308,93.0024518 28.2797382,94.0265878 L30.9743096,93.5493205 C30.3578394,91.1729273 28.4984857,89.6218086 25.1973871,89.6218086 C21.7471425,89.6218086 19.3011478,91.4413901 19.3011478,94.1459046 C19.3011478,96.3134934 20.6136327,97.7552383 23.4772363,98.3915946 L26.062434,98.9583495 C27.5340081,99.2864708 28.2200798,99.9427133 28.2200798,100.897248 C28.2200798,102.080473 26.9573101,103.005178 25.0084688,103.005178 C23.2286596,103.005178 22.0852068,102.239562 21.7272564,100.738159 L18.8537097,101.175654 C19.3508631,103.880168 21.5979965,105.401458 25.0283549,105.401458 Z M40.1830774,105.401458 C43.5140052,105.401458 45.8705123,103.760851 46.5466409,101.275084 L43.7327527,100.767988 C43.195827,102.209733 41.9032282,102.94552 40.2129066,102.94552 C37.6674812,102.94552 35.9572735,101.294971 35.8777289,98.3518224 L46.7355592,98.3518224 L46.7355592,97.2978572 C46.7355592,91.7794544 43.4344606,89.6218086 39.974273,89.6218086 C35.7186398,89.6218086 32.9146947,92.8632488 32.9146947,97.5563769 C32.9146947,102.29922 35.6788676,105.401458 40.1830774,105.401458 Z M43.8222403,96.1245751 L35.887672,96.1245751 C36.0069888,93.9569863 37.5779936,92.0777465 39.9941591,92.0777465 C42.3009509,92.0777465 43.8122972,93.7879542 43.8222403,96.1245751 Z M54.6119724,105.401458 C58.3008506,105.401458 60.8562191,103.442673 60.8562191,100.6785 C60.8562191,98.5208545 59.4840757,97.1884834 56.6801305,96.542184 L54.2540219,95.9853722 C52.5736434,95.5876495 51.8477995,95.0208946 51.8577425,93.9868155 C51.8477995,92.8135335 53.1205122,91.9783158 54.8108337,91.9783158 C56.6602444,91.9783158 57.5153482,93.0024518 57.8633556,94.0265878 L60.557927,93.5493205 C59.9414568,91.1729273 58.0821031,89.6218086 54.7810045,89.6218086 C51.3307599,89.6218086 48.8847652,91.4413901 48.8847652,94.1459046 C48.8847652,96.3134934 50.1972502,97.7552383 53.0608538,98.3915946 L55.6460514,98.9583495 C57.1176255,99.2864708 57.8036972,99.9427133 57.8036972,100.897248 C57.8036972,102.080473 56.5409276,103.005178 54.5920862,103.005178 C52.8122771,103.005178 51.6688242,102.239562 51.3108738,100.738159 L48.4373271,101.175654 C48.9344805,103.880168 51.1816139,105.401458 54.6119724,105.401458 Z M72.6416414,105.093222 L72.6416414,96.0251445 C72.6416414,93.5890928 74.1331016,92.1970633 76.2012598,92.1970633 C78.2197026,92.1970633 79.4427,93.5194913 79.4427,95.7367955 L79.4427,105.093222 L82.4156773,105.093222 L82.4156773,95.378845 C82.4156773,91.6004792 80.3375761,89.6218086 77.2154527,89.6218086 C74.918604,89.6218086 73.4172007,90.6857169 72.7112429,92.306437 L72.5223246,92.306437 L72.5223246,89.82067 L69.6686641,89.82067 L69.6686641,105.093222 L72.6416414,105.093222 Z M89.904314,105.431287 C92.4298533,105.431287 93.851712,104.148631 94.4184669,103.005178 L94.5377837,103.005178 L94.5377837,105.093222 L97.4411595,105.093222 L97.4411595,94.9512931 C97.4411595,90.5067417 93.9411996,89.6218086 91.515091,89.6218086 C88.7509181,89.6218086 86.2054927,90.7354323 85.2111859,93.5194913 L88.005188,94.1558477 C88.442683,93.0720533 89.5563066,92.0280311 91.5548633,92.0280311 C93.4738754,92.0280311 94.4582391,93.032281 94.4582391,94.7623748 L94.4582391,94.8319763 C94.4582391,95.9157707 93.3446155,95.8958846 90.6003287,96.2140628 C87.7068959,96.5521271 84.7438617,97.3078002 84.7438617,100.777931 C84.7438617,103.780738 87.0009381,105.431287 89.904314,105.431287 Z M90.5506134,103.04495 C88.8702349,103.04495 87.6571806,102.289277 87.6571806,100.817703 C87.6571806,99.2268124 89.0690963,98.6600575 90.789247,98.4313669 C91.7537246,98.302107 94.0406303,98.0435873 94.4681822,97.6160353 L94.4681822,99.5847628 C94.4681822,101.394401 93.0264373,103.04495 90.5506134,103.04495 Z M105.94398,105.292084 C106.888572,105.282141 107.524928,105.103166 107.872935,104.973906 L107.33601,102.517968 C107.137148,102.55774 106.769255,102.647228 106.291988,102.647228 C105.32751,102.647228 104.462463,102.32905 104.462463,100.608899 L104.462463,92.2070063 L107.594529,92.2070063 L107.594529,89.82067 L104.462463,89.82067 L104.462463,86.161621 L101.489486,86.161621 L101.489486,89.82067 L99.2522954,89.82067 L99.2522954,92.2070063 L101.489486,92.2070063 L101.489486,101.225369 C101.479543,103.999485 103.597416,105.341799 105.94398,105.292084 Z M111.443931,87.4641629 C112.468067,87.4641629 113.323171,86.6687174 113.323171,85.6942968 C113.323171,84.7198761 112.468067,83.9144876 111.443931,83.9144876 C110.409852,83.9144876 109.564691,84.7198761 109.564691,85.6942968 C109.564691,86.6687174 110.409852,87.4641629 111.443931,87.4641629 Z M112.915505,105.093222 L112.915505,89.82067 L109.942528,89.82067 L109.942528,105.093222 L112.915505,105.093222 Z M123.506267,105.093222 L129.044556,89.82067 L125.852831,89.82067 L121.994921,101.573376 L121.835832,101.573376 L117.967978,89.82067 L114.776254,89.82067 L120.324486,105.093222 L123.506267,105.093222 Z M136.950786,105.401458 C140.281714,105.401458 142.638221,103.760851 143.314349,101.275084 L140.500461,100.767988 C139.963535,102.209733 138.670936,102.94552 136.980615,102.94552 C134.43519,102.94552 132.724982,101.294971 132.645437,98.3518224 L143.503268,98.3518224 L143.503268,97.2978572 C143.503268,91.7794544 140.202169,89.6218086 136.741981,89.6218086 C132.486348,89.6218086 129.682403,92.8632488 129.682403,97.5563769 C129.682403,102.29922 132.446576,105.401458 136.950786,105.401458 Z M140.589949,96.1245751 L132.65538,96.1245751 C132.774697,93.9569863 134.345702,92.0777465 136.761867,92.0777465 C139.068659,92.0777465 140.580006,93.7879542 140.589949,96.1245751 Z M155.338422,110.82043 L155.338422,102.716829 L155.517397,102.716829 C156.054323,103.69125 157.14806,105.391515 159.932119,105.391515 C163.63094,105.391515 166.315569,102.42848 166.315569,97.4867755 C166.315569,92.5351276 163.591168,89.6218086 159.90229,89.6218086 C157.068516,89.6218086 156.04438,91.3519025 155.517397,92.2964939 L155.26882,92.2964939 L155.26882,89.82067 L152.365444,89.82067 L152.365444,110.82043 L155.338422,110.82043 Z M159.265934,102.856032 C156.710565,102.856032 155.278763,100.668557 155.278763,97.4569463 C155.278763,94.2652214 156.670793,92.1473479 159.265934,92.1473479 C161.960505,92.1473479 163.312762,94.4243105 163.312762,97.4569463 C163.312762,100.519411 161.920733,102.856032 159.265934,102.856032 Z M171.686338,105.093222 L171.686338,95.7666247 C171.686338,93.768068 173.227514,92.3263232 175.335444,92.3263232 C175.951915,92.3263232 176.647929,92.4356969 176.886563,92.5052984 L176.886563,89.6615809 C176.588271,89.6218086 176.00163,89.5919794 175.623793,89.5919794 C173.834041,89.5919794 172.302809,90.6061724 171.745997,92.2467786 L171.586908,92.2467786 L171.586908,89.82067 L168.713361,89.82067 L168.713361,105.093222 L171.686338,105.093222 Z M180.039954,87.4641629 C181.06409,87.4641629 181.919194,86.6687174 181.919194,85.6942968 C181.919194,84.7198761 181.06409,83.9144876 180.039954,83.9144876 C179.005875,83.9144876 178.160714,84.7198761 178.160714,85.6942968 C178.160714,86.6687174 179.005875,87.4641629 180.039954,87.4641629 Z M181.511528,105.093222 L181.511528,89.82067 L178.53855,89.82067 L178.53855,105.093222 L181.511528,105.093222 Z M187.548365,105.093222 L187.548365,95.6771371 C187.548365,93.618922 188.99011,92.1871202 190.680431,92.1871202 C192.330981,92.1871202 193.474433,93.2808577 193.474433,94.94135 L193.474433,105.093222 L196.437468,105.093222 L196.437468,95.3589589 C196.437468,93.5194913 197.561034,92.1871202 199.499933,92.1871202 C201.070937,92.1871202 202.363536,93.0621102 202.363536,95.1302683 L202.363536,105.093222 L205.336514,105.093222 L205.336514,94.8518624 C205.336514,91.3618456 203.387672,89.6218086 200.623499,89.6218086 C198.426081,89.6218086 196.775532,90.6757739 196.039745,92.306437 L195.880656,92.306437 C195.21447,90.6360016 193.812498,89.6218086 191.774169,89.6218086 C189.755726,89.6218086 188.254323,90.6260585 187.617966,92.306437 L187.429048,92.306437 L187.429048,89.82067 L184.575388,89.82067 L184.575388,105.093222 L187.548365,105.093222 Z M209.882094,87.4641629 C210.90623,87.4641629 211.761334,86.6687174 211.761334,85.6942968 C211.761334,84.7198761 210.90623,83.9144876 209.882094,83.9144876 C208.848015,83.9144876 208.002854,84.7198761 208.002854,85.6942968 C208.002854,86.6687174 208.848015,87.4641629 209.882094,87.4641629 Z M211.353668,105.093222 L211.353668,89.82067 L208.380691,89.82067 L208.380691,105.093222 L211.353668,105.093222 Z M219.896158,105.292084 C220.84075,105.282141 221.477106,105.103166 221.825113,104.973906 L221.288188,102.517968 C221.089326,102.55774 220.721433,102.647228 220.244166,102.647228 C219.279688,102.647228 218.414641,102.32905 218.414641,100.608899 L218.414641,92.2070063 L221.546707,92.2070063 L221.546707,89.82067 L218.414641,89.82067 L218.414641,86.161621 L215.441664,86.161621 L215.441664,89.82067 L213.204473,89.82067 L213.204473,92.2070063 L215.441664,92.2070063 L215.441664,101.225369 C215.431721,103.999485 217.549594,105.341799 219.896158,105.292084 Z M225.396109,87.4641629 C226.420245,87.4641629 227.275349,86.6687174 227.275349,85.6942968 C227.275349,84.7198761 226.420245,83.9144876 225.396109,83.9144876 C224.36203,83.9144876 223.516869,84.7198761 223.516869,85.6942968 C223.516869,86.6687174 224.36203,87.4641629 225.396109,87.4641629 Z M226.867683,105.093222 L226.867683,89.82067 L223.894706,89.82067 L223.894706,105.093222 L226.867683,105.093222 Z M237.458445,105.093222 L242.996734,89.82067 L239.805009,89.82067 L235.947099,101.573376 L235.78801,101.573376 L231.920156,89.82067 L228.728432,89.82067 L234.276664,105.093222 L237.458445,105.093222 Z M250.902964,105.401458 C254.233892,105.401458 256.590399,103.760851 257.266527,101.275084 L254.452639,100.767988 C253.915713,102.209733 252.623115,102.94552 250.932793,102.94552 C248.387368,102.94552 246.67716,101.294971 246.597615,98.3518224 L257.455446,98.3518224 L257.455446,97.2978572 C257.455446,91.7794544 254.154347,89.6218086 250.694159,89.6218086 C246.438526,89.6218086 243.634581,92.8632488 243.634581,97.5563769 C243.634581,102.29922 246.398754,105.401458 250.902964,105.401458 Z M254.542127,96.1245751 L246.607558,96.1245751 C246.726875,93.9569863 248.29788,92.0777465 250.714045,92.0777465 C253.020837,92.0777465 254.532184,93.7879542 254.542127,96.1245751 Z M265.331859,105.401458 C269.020737,105.401458 271.576105,103.442673 271.576105,100.6785 C271.576105,98.5208545 270.203962,97.1884834 267.400017,96.542184 L264.973908,95.9853722 C263.29353,95.5876495 262.567686,95.0208946 262.577629,93.9868155 C262.567686,92.8135335 263.840399,91.9783158 265.53072,91.9783158 C267.380131,91.9783158 268.235235,93.0024518 268.583242,94.0265878 L271.277813,93.5493205 C270.661343,91.1729273 268.801989,89.6218086 265.500891,89.6218086 C262.050646,89.6218086 259.604652,91.4413901 259.604652,94.1459046 C259.604652,96.3134934 260.917137,97.7552383 263.78074,98.3915946 L266.365938,98.9583495 C267.837512,99.2864708 268.523584,99.9427133 268.523584,100.897248 C268.523584,102.080473 267.260814,103.005178 265.311973,103.005178 C263.532163,103.005178 262.388711,102.239562 262.03076,100.738159 L259.157213,101.175654 C259.654367,103.880168 261.9015,105.401458 265.331859,105.401458 Z" id="Usesnativeprimitives" fill-opacity="0.671711101"></path>
        </g>
        <path d="M729.854294,525 L729.854294,515.637891 L732.513355,515.637891 L737.499093,525 L745.864054,525 L740.102757,514.419155 C743.121898,512.964981 744.922304,510.208976 744.922304,506.275782 C744.922304,500.237499 740.698275,496.636688 734.396856,496.636688 L722.154098,496.636688 L722.154098,525 L729.854294,525 Z M732.568752,509.655005 L729.854294,509.655005 L729.854294,502.785766 L732.568752,502.785766 C735.26936,502.785766 736.889725,503.83831 736.889725,506.275782 C736.889725,508.699405 735.26936,509.655005 732.568752,509.655005 Z M754.725035,525.276985 C757.896518,525.276985 760.333991,523.67047 761.261892,520.956012 L761.48348,520.956012 L761.48348,525 L768.7405,525 L768.7405,503.727516 L761.095701,503.727516 L761.095701,515.693288 C761.10955,517.798378 759.890814,519.072511 757.993463,519.072511 C756.068414,519.072511 754.960473,517.798378 754.946623,515.693288 L754.946623,503.727516 L747.301824,503.727516 L747.301824,517.299804 C747.315674,521.95316 750.25172,525.276985 754.725035,525.276985 Z M779.263385,525 L779.263385,513.034228 C779.277234,510.929138 780.468271,509.655005 782.365622,509.655005 C784.290671,509.655005 785.426311,510.929138 785.412462,513.034228 L785.412462,525 L793.05731,525 L793.05731,511.427712 C793.07111,506.802055 790.148913,503.450531 785.63405,503.450531 C782.504115,503.450531 780.025095,505.084745 779.097193,507.771504 L778.875605,507.771504 L778.875605,503.727516 L771.618586,503.727516 L771.618586,525 L779.263385,525 Z M805.57444,525.38778 C811.460381,525.38778 815.795204,522.52098 815.822902,517.964569 C815.795204,514.820784 813.690114,512.99268 809.341442,512.203271 L805.020469,511.427712 C803.400104,511.136877 802.943078,510.555208 802.970777,509.931991 C802.943078,509.045637 804.037171,508.547063 805.352852,508.547063 C806.862423,508.547063 808.122706,509.350321 808.233501,510.652153 L815.268931,510.652153 C815.075042,506.151139 811.335738,503.450531 805.18666,503.450531 C799.106829,503.450531 795.353676,505.9434 795.381375,510.375167 C795.353676,513.726692 797.528012,515.873329 801.862835,516.635039 L805.629837,517.299804 C807.29175,517.604488 808.039611,518.047665 808.067309,518.850923 C808.039611,519.737276 807.028614,520.23585 805.629837,520.23585 C803.898678,520.23585 802.679942,519.487989 802.472203,518.13076 L794.882801,518.13076 C795.298279,522.493282 799.065282,525.38778 805.57444,525.38778 Z M834.264781,525.38778 C840.150722,525.38778 844.485545,522.52098 844.513243,517.964569 C844.485545,514.820784 842.380455,512.99268 838.031783,512.203271 L833.71081,511.427712 C832.090445,511.136877 831.633419,510.555208 831.661118,509.931991 C831.633419,509.045637 832.727512,508.547063 834.043193,508.547063 C835.552763,508.547063 836.813047,509.350321 836.923841,510.652153 L843.959272,510.652153 C843.765383,506.151139 840.026079,503.450531 833.877001,503.450531 C827.79717,503.450531 824.044017,505.9434 824.071716,510.375167 C824.044017,513.726692 826.218353,515.873329 830.553176,516.635039 L834.320178,517.299804 C835.982091,517.604488 836.729952,518.047665 836.75765,518.850923 C836.729952,519.737276 835.718955,520.23585 834.320178,520.23585 C832.589019,520.23585 831.370283,519.487989 831.162544,518.13076 L823.573142,518.13076 C823.98862,522.493282 827.755623,525.38778 834.264781,525.38778 Z M854.094351,525 L854.094351,496.636688 L846.449552,496.636688 L846.449552,525 L854.094351,525 Z M867.220741,525.38778 C874.145378,525.38778 878.244763,520.956012 878.244763,514.419155 C878.244763,507.882298 874.145378,503.450531 867.220741,503.450531 C860.296105,503.450531 856.19672,507.882298 856.19672,514.419155 C856.19672,520.956012 860.296105,525.38778 867.220741,525.38778 Z M867.276138,519.737276 C865.226446,519.737276 864.00771,517.701433 864.00771,514.363758 C864.00771,511.026083 865.226446,508.99024 867.276138,508.99024 C869.215037,508.99024 870.433773,511.026083 870.433773,514.363758 C870.433773,517.701433 869.215037,519.737276 867.276138,519.737276 Z M891.980664,525 L894.972107,513.588199 L895.193696,513.588199 L898.185139,525 L906.439305,525 L911.757426,503.727516 L904.112628,503.727516 L901.78595,516.579642 L901.619758,516.579642 L898.794507,503.727516 L891.371296,503.727516 L888.656839,516.690436 L888.490647,516.690436 L886.053175,503.727516 L878.408376,503.727516 L883.726497,525 L891.980664,525 Z M914.857169,531.924637 C915.521934,530.387367 917.225395,526.675762 917.516229,522.673322 L917.627024,521.122203 L911.865726,521.122203 L911.865726,522.673322 C911.865726,526.440324 910.591593,530.387367 910.148416,531.924637 L914.857169,531.924637 Z M750.628428,569 L750.628428,553.267226 L754.506224,553.267226 L754.506224,547.727516 L750.628428,547.727516 L750.628428,546.785766 C750.628428,545.788618 751.016207,545.123853 752.456532,545.123853 C753.010503,545.123853 753.841459,545.234647 754.39543,545.400838 L755.503372,539.916526 C754.617018,539.694938 752.567326,539.307158 750.628428,539.307158 C745.975072,539.307158 742.983629,541.855424 742.983629,547.118148 L742.983629,547.727516 L740.269171,547.727516 L740.269171,553.267226 L742.983629,553.267226 L742.983629,569 L750.628428,569 Z M765.970742,569.38778 C771.870532,569.38778 775.665233,566.562528 776.385395,562.13076 L769.405362,562.13076 C768.962185,563.335647 767.701901,564.014262 766.136933,564.014262 C763.865652,564.014262 762.536122,562.51854 762.536122,560.468848 L762.536122,560.136465 L776.385395,560.136465 L776.385395,558.363758 C776.385395,551.591463 772.230613,547.450531 765.804551,547.450531 C759.212296,547.450531 755.002117,551.826901 755.002117,558.419155 C755.002117,565.302244 759.156899,569.38778 765.970742,569.38778 Z M769.349965,555.926286 L762.536122,555.926286 C762.57767,554.084333 764.10109,552.824049 765.970742,552.824049 C767.868092,552.824049 769.308417,554.098182 769.349965,555.926286 Z M788.680969,569.38778 C794.58076,569.38778 798.37546,566.562528 799.095623,562.13076 L792.115589,562.13076 C791.672412,563.335647 790.412128,564.014262 788.84716,564.014262 C786.57588,564.014262 785.246349,562.51854 785.246349,560.468848 L785.246349,560.136465 L799.095623,560.136465 L799.095623,558.363758 C799.095623,551.591463 794.940841,547.450531 788.514778,547.450531 C781.922524,547.450531 777.712345,551.826901 777.712345,558.419155 C777.712345,565.302244 781.867127,569.38778 788.680969,569.38778 Z M792.060192,555.926286 L785.246349,555.926286 C785.287897,554.084333 786.811317,552.824049 788.680969,552.824049 C790.57832,552.824049 792.018644,554.098182 792.060192,555.926286 Z M808.84293,569 L808.84293,540.636688 L801.198131,540.636688 L801.198131,569 L808.84293,569 Z M821.470747,569.38778 C827.356688,569.38778 831.691511,566.52098 831.719209,561.964569 C831.691511,558.820784 829.586421,556.99268 825.237749,556.203271 L820.916776,555.427712 C819.296411,555.136877 818.839385,554.555208 818.867084,553.931991 C818.839385,553.045637 819.933478,552.547063 821.249159,552.547063 C822.758729,552.547063 824.019013,553.350321 824.129807,554.652153 L831.165238,554.652153 C830.971348,550.151139 827.232045,547.450531 821.082967,547.450531 C815.003136,547.450531 811.249983,549.9434 811.277682,554.375167 C811.249983,557.726692 813.424319,559.873329 817.759142,560.635039 L821.526144,561.299804 C823.188057,561.604488 823.935918,562.047665 823.963616,562.850923 C823.935918,563.737276 822.924921,564.23585 821.526144,564.23585 C819.794985,564.23585 818.576249,563.487989 818.36851,562.13076 L810.779108,562.13076 C811.194586,566.493282 814.961588,569.38778 821.470747,569.38778 Z M850.659662,569.38778 C857.584298,569.38778 861.683683,564.956012 861.683683,558.419155 C861.683683,551.882298 857.584298,547.450531 850.659662,547.450531 C843.735025,547.450531 839.63564,551.882298 839.63564,558.419155 C839.63564,564.956012 843.735025,569.38778 850.659662,569.38778 Z M850.715059,563.737276 C848.665366,563.737276 847.44663,561.701433 847.44663,558.363758 C847.44663,555.026083 848.665366,552.99024 850.715059,552.99024 C852.653957,552.99024 853.872693,555.026083 853.872693,558.363758 C853.872693,561.701433 852.653957,563.737276 850.715059,563.737276 Z M872.649734,569 L872.649734,553.267226 L876.527531,553.267226 L876.527531,547.727516 L872.649734,547.727516 L872.649734,546.785766 C872.649734,545.788618 873.037514,545.123853 874.477838,545.123853 C875.031809,545.123853 875.862766,545.234647 876.416737,545.400838 L877.524679,539.916526 C876.638325,539.694938 874.588633,539.307158 872.649734,539.307158 C867.996378,539.307158 865.004935,541.855424 865.004935,547.118148 L865.004935,547.727516 L862.290478,547.727516 L862.290478,553.267226 L865.004935,553.267226 L865.004935,569 L872.649734,569 Z M887.327291,569 L887.327291,553.267226 L891.205088,553.267226 L891.205088,547.727516 L887.327291,547.727516 L887.327291,546.785766 C887.327291,545.788618 887.715071,545.123853 889.155395,545.123853 C889.709366,545.123853 890.540323,545.234647 891.094293,545.400838 L892.202235,539.916526 C891.315882,539.694938 889.266189,539.307158 887.327291,539.307158 C882.673935,539.307158 879.682492,541.855424 879.682492,547.118148 L879.682492,547.727516 L876.968035,547.727516 L876.968035,553.267226 L879.682492,553.267226 L879.682492,569 L887.327291,569 Z M895.080186,569.443177 C897.116029,569.443177 898.930284,567.725867 898.957982,565.56538 C898.930284,563.460291 897.116029,561.742981 895.080186,561.742981 C892.933549,561.742981 891.174691,563.460291 891.202389,565.56538 C891.174691,567.725867 892.933549,569.443177 895.080186,569.443177 Z" id="Runsslow,feelsoff." fill="#00B8FF" fill-rule="nonzero"></path>
        <path d="M280.443739,515.332383 C287.631512,515.332383 291.938636,512.230145 291.966335,506.635039 C291.938636,502.314066 289.362671,499.281075 283.1028,497.937695 L280.776122,497.439121 C278.089363,496.871301 276.884476,496.081893 276.953722,494.724664 C276.967572,493.478229 278.006267,492.564177 280.388342,492.564177 C282.881211,492.564177 284.0584,493.65827 284.210742,495.500223 L291.578555,495.500223 C291.550856,489.932815 287.257582,486.248909 280.388342,486.248909 C273.643746,486.248909 268.879596,489.877418 268.921144,495.278635 C268.907295,499.710402 271.981833,502.175573 277.009119,503.255816 L279.834371,503.865184 C282.992006,504.557648 284.072249,505.347056 284.099947,506.635039 C284.072249,508.033816 282.798116,509.017114 280.332945,509.017114 C277.38305,509.017114 275.638041,507.632187 275.513398,505.028523 L268.200982,505.028523 C268.22868,512.14705 273.048227,515.332383 280.443739,515.332383 Z M301.658271,515 L301.658271,503.034228 C301.67212,500.929138 302.890856,499.655005 304.760508,499.655005 C306.713256,499.655005 307.821198,500.929138 307.807348,503.034228 L307.807348,515 L315.452196,515 L315.452196,501.427712 C315.465997,496.774356 312.529951,493.450531 308.028937,493.450531 C304.885152,493.450531 302.558474,495.057046 301.602874,497.771504 L301.381286,497.771504 L301.381286,486.636688 L294.013472,486.636688 L294.013472,515 L301.658271,515 Z M322.041837,491.511632 C324.119228,491.511632 325.80884,489.946665 325.80884,488.021616 C325.80884,486.096567 324.119228,484.531599 322.041837,484.531599 C319.964446,484.531599 318.274835,486.096567 318.274835,488.021616 C318.274835,489.946665 319.964446,491.511632 322.041837,491.511632 Z M325.864237,515 L325.864237,493.727516 L318.219438,493.727516 L318.219438,515 L325.864237,515 Z M336.386964,522.977181 L336.386964,511.509983 L336.497758,511.509983 C337.384112,513.67047 339.433804,515.276985 342.425247,515.276985 C346.967809,515.276985 350.790208,511.731571 350.790208,504.363758 C350.790208,496.663562 346.690824,493.450531 342.480644,493.450531 C339.32301,493.450531 337.328715,495.278635 336.497758,497.439121 L336.331567,497.439121 L336.331567,493.727516 L328.742165,493.727516 L328.742165,522.977181 L336.386964,522.977181 Z M339.599996,509.404894 C337.494906,509.404894 336.220773,507.465995 336.220773,504.363758 C336.220773,501.206124 337.494906,499.322623 339.599996,499.322623 C341.705085,499.322623 342.923821,501.206124 342.923821,504.363758 C342.923821,507.521392 341.705085,509.404894 339.599996,509.404894 Z M368.622746,515 L368.622746,499.267226 L372.500542,499.267226 L372.500542,493.727516 L368.622746,493.727516 L368.622746,492.785766 C368.622746,491.788618 369.010525,491.123853 370.45085,491.123853 C371.004821,491.123853 371.835777,491.234647 372.389748,491.400838 L373.49769,485.916526 C372.611336,485.694938 370.561644,485.307158 368.622746,485.307158 C363.96939,485.307158 360.977947,487.855424 360.977947,493.118148 L360.977947,493.727516 L358.263489,493.727516 L358.263489,499.267226 L360.977947,499.267226 L360.977947,515 L368.622746,515 Z M384.020457,515.38778 C390.945094,515.38778 395.044479,510.956012 395.044479,504.419155 C395.044479,497.882298 390.945094,493.450531 384.020457,493.450531 C377.09582,493.450531 372.996436,497.882298 372.996436,504.419155 C372.996436,510.956012 377.09582,515.38778 384.020457,515.38778 Z M384.075854,509.737276 C382.026162,509.737276 380.807426,507.701433 380.807426,504.363758 C380.807426,501.026083 382.026162,498.99024 384.075854,498.99024 C386.014752,498.99024 387.233489,501.026083 387.233489,504.363758 C387.233489,507.701433 386.014752,509.737276 384.075854,509.737276 Z M404.791794,515 L404.791794,503.920581 C404.791794,501.483109 406.467556,499.876594 408.724987,499.876594 C409.514396,499.876594 410.788529,500.001237 411.550239,500.264373 L411.550239,493.741365 C410.940871,493.561325 410.276106,493.450531 409.611341,493.450531 C407.34006,493.450531 405.567353,494.780061 404.791794,497.771504 L404.570205,497.771504 L404.570205,493.727516 L397.146995,493.727516 L397.146995,515 L404.791794,515 Z M436.803128,515.38778 C443.727764,515.38778 447.827149,510.956012 447.827149,504.419155 C447.827149,497.882298 443.727764,493.450531 436.803128,493.450531 C429.878491,493.450531 425.779106,497.882298 425.779106,504.419155 C425.779106,510.956012 429.878491,515.38778 436.803128,515.38778 Z M436.858525,509.737276 C434.808832,509.737276 433.590096,507.701433 433.590096,504.363758 C433.590096,501.026083 434.808832,498.99024 436.858525,498.99024 C438.797423,498.99024 440.016159,501.026083 440.016159,504.363758 C440.016159,507.701433 438.797423,509.737276 436.858525,509.737276 Z M457.574464,515 L457.574464,503.034228 C457.588313,500.929138 458.779351,499.655005 460.676701,499.655005 C462.60175,499.655005 463.737391,500.929138 463.723542,503.034228 L463.723542,515 L471.368389,515 L471.368389,501.427712 C471.38219,496.802055 468.459993,493.450531 463.94513,493.450531 C460.815194,493.450531 458.336174,495.084745 457.408273,497.771504 L457.186685,497.771504 L457.186685,493.727516 L449.929665,493.727516 L449.929665,515 L457.574464,515 Z M484.328696,515.38778 C490.228487,515.38778 494.023188,512.562528 494.74335,508.13076 L487.763316,508.13076 C487.320139,509.335647 486.059856,510.014262 484.494888,510.014262 C482.223607,510.014262 480.894077,508.51854 480.894077,506.468848 L480.894077,506.136465 L494.74335,506.136465 L494.74335,504.363758 C494.74335,497.591463 490.588568,493.450531 484.162505,493.450531 C477.570251,493.450531 473.360072,497.826901 473.360072,504.419155 C473.360072,511.302244 477.514854,515.38778 484.328696,515.38778 Z M487.707919,501.926286 L480.894077,501.926286 C480.935624,500.084333 482.459044,498.824049 484.328696,498.824049 C486.226047,498.824049 487.666371,500.098182 487.707919,501.926286 Z M304.702305,566.977181 L304.702305,555.509983 L304.813099,555.509983 C305.699453,557.67047 307.749145,559.276985 310.740588,559.276985 C315.28315,559.276985 319.105549,555.731571 319.105549,548.363758 C319.105549,540.663562 315.006164,537.450531 310.795985,537.450531 C307.638351,537.450531 305.644056,539.278635 304.813099,541.439121 L304.646908,541.439121 L304.646908,537.727516 L297.057506,537.727516 L297.057506,566.977181 L304.702305,566.977181 Z M307.915337,553.404894 C305.810247,553.404894 304.536114,551.465995 304.536114,548.363758 C304.536114,545.206124 305.810247,543.322623 307.915337,543.322623 C310.020426,543.322623 311.239162,545.206124 311.239162,548.363758 C311.239162,551.521392 310.020426,553.404894 307.915337,553.404894 Z M328.963669,559 L328.963669,530.636688 L321.31887,530.636688 L321.31887,559 L328.963669,559 Z M337.769086,559.332383 C340.538941,559.332383 342.630181,558.390632 343.918163,556.008557 L344.084355,556.008557 L344.084355,559 L351.23058,559 L351.23058,544.430564 C351.23058,540.497371 347.505125,537.450531 341.425294,537.450531 C335.068478,537.450531 331.938542,540.774356 331.675406,544.652153 L338.710837,544.652153 C338.890877,543.336472 339.860326,542.713255 341.3145,542.713255 C342.64403,542.713255 343.585781,543.322623 343.585781,544.430564 L343.585781,544.485962 C343.585781,545.718547 342.228552,546.106327 338.65544,546.369463 C334.26522,546.687996 330.844449,548.460703 330.844449,553.127908 C330.844449,557.365786 333.6974,559.332383 337.769086,559.332383 Z M340.261955,554.512835 C338.960124,554.512835 338.046072,553.875769 338.046072,552.684731 C338.046072,551.590639 338.821631,550.745833 340.594338,550.468848 C341.813074,550.274958 342.83792,550.025671 343.641178,549.693288 L343.641178,551.465995 C343.641178,553.404894 341.993114,554.512835 340.261955,554.512835 Z M363.24916,559.304684 C364.98032,559.207739 366.268302,558.847658 366.960766,558.639919 L365.852824,553.266401 C365.561989,553.335647 364.814128,553.487989 364.357102,553.487989 C363.359955,553.487989 362.916778,553.044812 362.916778,552.158459 L362.916778,543.267226 L366.572986,543.267226 L366.572986,537.727516 L362.916778,537.727516 L362.916778,532.630984 L355.271979,532.630984 L355.271979,537.727516 L352.557521,537.727516 L352.557521,543.267226 L355.271979,543.267226 L355.271979,552.878621 C355.216582,557.338087 357.972587,559.595519 363.24916,559.304684 Z M377.538939,559 L377.538939,543.267226 L381.416735,543.267226 L381.416735,537.727516 L377.538939,537.727516 L377.538939,536.785766 C377.538939,535.788618 377.926719,535.123853 379.367043,535.123853 C379.921014,535.123853 380.75197,535.234647 381.305941,535.400838 L382.413883,529.916526 C381.52753,529.694938 379.477837,529.307158 377.538939,529.307158 C372.885583,529.307158 369.89414,531.855424 369.89414,537.118148 L369.89414,537.727516 L367.179682,537.727516 L367.179682,543.267226 L369.89414,543.267226 L369.89414,559 L377.538939,559 Z M392.93665,559.38778 C399.861287,559.38778 403.960672,554.956012 403.960672,548.419155 C403.960672,541.882298 399.861287,537.450531 392.93665,537.450531 C386.012014,537.450531 381.912629,541.882298 381.912629,548.419155 C381.912629,554.956012 386.012014,559.38778 392.93665,559.38778 Z M392.992047,553.737276 C390.942355,553.737276 389.723619,551.701433 389.723619,548.363758 C389.723619,545.026083 390.942355,542.99024 392.992047,542.99024 C394.930946,542.99024 396.149682,545.026083 396.149682,548.363758 C396.149682,551.701433 394.930946,553.737276 392.992047,553.737276 Z M413.707987,559 L413.707987,547.920581 C413.707987,545.483109 415.383749,543.876594 417.641181,543.876594 C418.430589,543.876594 419.704722,544.001237 420.466432,544.264373 L420.466432,537.741365 C419.857064,537.561325 419.192299,537.450531 418.527534,537.450531 C416.256253,537.450531 414.483546,538.780061 413.707987,541.771504 L413.486399,541.771504 L413.486399,537.727516 L406.063188,537.727516 L406.063188,559 L413.707987,559 Z M429.604294,559 L429.604294,546.591051 C429.604294,544.735248 430.573743,543.599608 432.15256,543.599608 C433.731377,543.599608 434.756223,544.735248 434.756223,546.591051 L434.756223,559 L442.06864,559 L442.06864,546.591051 C442.06864,544.735248 443.038089,543.599608 444.616906,543.599608 C446.195723,543.599608 447.220569,544.735248 447.220569,546.591051 L447.220569,559 L454.865368,559 L454.865368,544.652153 C454.865368,540.289632 452.067815,537.450531 447.996129,537.450531 C444.838494,537.450531 442.290228,539.167841 441.570066,541.771504 L441.348478,541.771504 C440.905301,539.167841 438.523226,537.450531 435.531783,537.450531 C432.581887,537.450531 430.324456,539.112444 429.438102,541.771504 L429.216514,541.771504 L429.216514,537.727516 L421.959495,537.727516 L421.959495,559 L429.604294,559 Z M461.787572,559.443177 C463.823415,559.443177 465.63767,557.725867 465.665369,555.56538 C465.63767,553.460291 463.823415,551.742981 461.787572,551.742981 C459.640935,551.742981 457.882077,553.460291 457.909776,555.56538 C457.882077,557.725867 459.640935,559.443177 461.787572,559.443177 Z" id="Shipforoneplatform." fill="#00B8FF" fill-rule="nonzero"></path>
        <path d="M518.293867,641 L522.866258,625.968922 L523.076483,625.968922 L527.648874,641 L534.638851,641 L542.574839,614.091217 L534.428626,614.091217 L530.749691,630.698982 L530.539466,630.698982 L526.1773,614.091217 L519.765441,614.091217 L515.403275,630.646425 L515.19305,630.646425 L511.514115,614.091217 L503.367902,614.091217 L511.30389,641 L518.293867,641 Z M550.126713,641 L550.126713,630.488757 C550.126713,628.176283 551.716539,626.652153 553.858204,626.652153 C554.60713,626.652153 555.815923,626.770404 556.538571,627.020046 L556.538571,620.831552 C555.960453,620.660744 555.329778,620.555632 554.699104,620.555632 C552.544299,620.555632 550.8625,621.816981 550.126713,624.655017 L549.916488,624.655017 L549.916488,620.818413 L542.873955,620.818413 L542.873955,641 L550.126713,641 Z M561.620038,618.716164 C563.590896,618.716164 565.19386,617.231451 565.19386,615.405122 C565.19386,613.578794 563.590896,612.094081 561.620038,612.094081 C559.649179,612.094081 558.046215,613.578794 558.046215,615.405122 C558.046215,617.231451 559.649179,618.716164 561.620038,618.716164 Z M565.246416,641 L565.246416,620.818413 L557.993659,620.818413 L557.993659,641 L565.246416,641 Z M576.897351,641.289059 C578.539733,641.197086 579.761665,640.85547 580.418618,640.658385 L579.367494,635.560432 C579.091573,635.626127 578.382065,635.770656 577.948476,635.770656 C577.002464,635.770656 576.582014,635.350207 576.582014,634.509307 L576.582014,626.074034 L580.050724,626.074034 L580.050724,620.818413 L576.582014,620.818413 L576.582014,615.983241 L569.329256,615.983241 L569.329256,620.818413 L566.754002,620.818413 L566.754002,626.074034 L569.329256,626.074034 L569.329256,635.192538 C569.2767,639.423313 571.891372,641.564979 576.897351,641.289059 Z M591.544035,641.367894 C597.141272,641.367894 600.741372,638.687526 601.424603,634.483029 L594.80252,634.483029 C594.38207,635.626127 593.186416,636.26994 591.701703,636.26994 C589.546898,636.26994 588.285549,634.850923 588.285549,632.906343 L588.285549,632.591005 L601.424603,632.591005 L601.424603,630.909206 C601.424603,624.484209 597.482887,620.555632 591.386366,620.555632 C585.132176,620.555632 581.137904,624.707573 581.137904,630.961763 C581.137904,637.491873 585.07962,641.367894 591.544035,641.367894 Z M594.749964,628.596733 L588.285549,628.596733 C588.324966,626.849239 589.770262,625.653585 591.544035,625.653585 C593.344085,625.653585 594.710547,626.862378 594.749964,628.596733 Z M619.628611,641.367894 C626.198139,641.367894 630.087299,637.163396 630.087299,630.961763 C630.087299,624.760129 626.198139,620.555632 619.628611,620.555632 C613.059084,620.555632 609.169924,624.760129 609.169924,630.961763 C609.169924,637.163396 613.059084,641.367894 619.628611,641.367894 Z M619.681168,636.007159 C617.736588,636.007159 616.580351,634.075718 616.580351,630.909206 C616.580351,627.742694 617.736588,625.811253 619.681168,625.811253 C621.520635,625.811253 622.676872,627.742694 622.676872,630.909206 C622.676872,634.075718 621.520635,636.007159 619.681168,636.007159 Z M639.373343,641 L639.373343,629.647857 C639.386482,627.650721 640.516441,626.441928 642.316491,626.441928 C644.14282,626.441928 645.220222,627.650721 645.207083,629.647857 L645.207083,641 L652.459888,641 L652.459888,628.123727 C652.47298,623.735283 649.70064,620.555632 645.417308,620.555632 C642.447882,620.555632 640.095991,622.10604 639.215675,624.655017 L639.00545,624.655017 L639.00545,620.818413 L632.120585,620.818413 L632.120585,641 L639.373343,641 Z M664.846712,641.367894 C670.824981,641.367894 674.490778,637.9386 674.569612,632.591005 L667.842416,632.591005 C667.684747,634.706393 666.54165,635.849491 664.951824,635.849491 C663.046661,635.849491 661.798451,634.220248 661.798451,630.909206 C661.798451,627.598165 663.046661,625.968922 664.951824,625.968922 C666.554789,625.968922 667.64533,627.11202 667.842416,629.227407 L674.569612,629.227407 C674.530195,623.971786 670.785564,620.555632 664.846712,620.555632 C658.277185,620.555632 654.388025,624.760129 654.388025,630.961763 C654.388025,637.163396 658.277185,641.367894 664.846712,641.367894 Z M686.325791,641.367894 C691.923028,641.367894 695.523129,638.687526 696.20636,634.483029 L689.584276,634.483029 C689.163827,635.626127 687.968173,636.26994 686.48346,636.26994 C684.328655,636.26994 683.067305,634.850923 683.067305,632.906343 L683.067305,632.591005 L696.20636,632.591005 L696.20636,630.909206 C696.20636,624.484209 692.264643,620.555632 686.168122,620.555632 C679.913932,620.555632 675.91966,624.707573 675.91966,630.961763 C675.91966,637.491873 679.861376,641.367894 686.325791,641.367894 Z M689.53172,628.596733 L683.067305,628.596733 C683.106723,626.849239 684.552019,625.653585 686.325791,625.653585 C688.125841,625.653585 689.492303,626.862378 689.53172,628.596733 Z M702.654361,647.569527 C703.285036,646.111092 704.90114,642.589826 705.17706,638.792639 L705.282172,637.321065 L699.816326,637.321065 L699.816326,638.792639 C699.816326,642.366462 698.607533,646.111092 698.187083,647.569527 L702.654361,647.569527 Z M507.772946,689 L507.772946,674.074034 L511.451881,674.074034 L511.451881,668.818413 L507.772946,668.818413 L507.772946,667.924957 C507.772946,666.978945 508.14084,666.348271 509.507301,666.348271 C510.032863,666.348271 510.821207,666.453383 511.346769,666.611052 L512.397893,661.407986 C511.556994,661.197761 509.612414,660.829868 507.772946,660.829868 C503.358224,660.829868 500.520188,663.247454 500.520188,668.240294 L500.520188,668.818413 L497.944934,668.818413 L497.944934,674.074034 L500.520188,674.074034 L500.520188,689 L507.772946,689 Z M522.367067,689.367894 C527.964304,689.367894 531.564405,686.687526 532.247636,682.483029 L525.625552,682.483029 C525.205103,683.626127 524.009449,684.26994 522.524736,684.26994 C520.369931,684.26994 519.108582,682.850923 519.108582,680.906343 L519.108582,680.591005 L532.247636,680.591005 L532.247636,678.909206 C532.247636,672.484209 528.305919,668.555632 522.209398,668.555632 C515.955209,668.555632 511.960936,672.707573 511.960936,678.961763 C511.960936,685.491873 515.902652,689.367894 522.367067,689.367894 Z M525.572996,676.596733 L519.108582,676.596733 C519.147999,674.849239 520.593295,673.653585 522.367067,673.653585 C524.167117,673.653585 525.533579,674.862378 525.572996,676.596733 Z M543.951259,689.367894 C549.548496,689.367894 553.148597,686.687526 553.831828,682.483029 L547.209745,682.483029 C546.789295,683.626127 545.593641,684.26994 544.108928,684.26994 C541.954123,684.26994 540.692774,682.850923 540.692774,680.906343 L540.692774,680.591005 L553.831828,680.591005 L553.831828,678.909206 C553.831828,672.484209 549.890112,668.555632 543.79359,668.555632 C537.539401,668.555632 533.545128,672.707573 533.545128,678.961763 C533.545128,685.491873 537.486844,689.367894 543.951259,689.367894 Z M547.157188,676.596733 L540.692774,676.596733 C540.732191,674.849239 542.177487,673.653585 543.951259,673.653585 C545.75131,673.653585 547.117771,674.862378 547.157188,676.596733 Z M563.117865,689 L563.117865,662.091217 L555.865107,662.091217 L555.865107,689 L563.117865,689 Z M575.136694,689.367894 C580.720792,689.367894 584.833316,686.648109 584.859594,682.32536 C584.833316,679.342795 582.83618,677.60844 578.710517,676.859514 L574.611132,676.123727 C573.073862,675.847807 572.640273,675.295966 572.666552,674.704709 C572.640273,673.86381 573.678259,673.390804 574.926469,673.390804 C576.358626,673.390804 577.55428,674.152869 577.659392,675.38794 L584.334032,675.38794 C584.150085,671.117747 580.60254,668.555632 574.7688,668.555632 C569.000755,668.555632 565.440072,670.920661 565.46635,675.125159 C565.440072,678.30481 567.502903,680.341363 571.615427,681.064011 L575.18925,681.694686 C576.765936,681.983745 577.475445,682.404195 577.501724,683.16626 C577.475445,684.007159 576.516294,684.480165 575.18925,684.480165 C573.546868,684.480165 572.390631,683.770656 572.193546,682.483029 L564.993344,682.483029 C565.387516,686.621831 568.961338,689.367894 575.136694,689.367894 Z M600.435783,689 L600.435783,677.647857 C600.448922,675.650721 601.578881,674.441928 603.378931,674.441928 C605.205259,674.441928 606.282662,675.650721 606.269523,677.647857 L606.269523,689 L613.522327,689 L613.522327,676.123727 C613.53542,671.735283 610.763079,668.555632 606.479748,668.555632 C603.510321,668.555632 601.158431,670.10604 600.278114,672.655017 L600.067889,672.655017 L600.067889,668.818413 L593.183025,668.818413 L593.183025,689 L600.435783,689 Z M621.809766,689.315337 C624.437577,689.315337 626.421574,688.421882 627.643506,686.161964 L627.801175,686.161964 L627.801175,689 L634.580927,689 L634.580927,675.177715 C634.580927,671.446224 631.046521,668.555632 625.278477,668.555632 C619.247651,668.555632 616.278225,671.709005 616.028583,675.38794 L622.703222,675.38794 C622.87403,674.13973 623.793764,673.548472 625.173364,673.548472 C626.434713,673.548472 627.328169,674.126591 627.328169,675.177715 L627.328169,675.230271 C627.328169,676.399647 626.040542,676.767541 622.650666,677.017183 C618.485586,677.319381 615.240239,679.00118 615.240239,683.429041 C615.240239,687.449592 617.946884,689.315337 621.809766,689.315337 Z M624.174796,684.742946 C622.939725,684.742946 622.072547,684.13855 622.072547,683.008591 C622.072547,681.970606 622.808334,681.169124 624.490133,680.906343 C625.64637,680.722396 626.61866,680.485893 627.380725,680.170556 L627.380725,681.852355 C627.380725,683.691822 625.817178,684.742946 624.174796,684.742946 Z M646.021762,689.289059 C647.664144,689.197086 648.886076,688.85547 649.543029,688.658385 L648.491904,683.560432 C648.215984,683.626127 647.506475,683.770656 647.072886,683.770656 C646.126875,683.770656 645.706425,683.350207 645.706425,682.509307 L645.706425,674.074034 L649.175135,674.074034 L649.175135,668.818413 L645.706425,668.818413 L645.706425,663.983241 L638.453667,663.983241 L638.453667,668.818413 L635.878412,668.818413 L635.878412,674.074034 L638.453667,674.074034 L638.453667,683.192538 C638.401111,687.423313 641.015783,689.564979 646.021762,689.289059 Z M654.834708,666.716164 C656.805566,666.716164 658.40853,665.231451 658.40853,663.405122 C658.40853,661.578794 656.805566,660.094081 654.834708,660.094081 C652.86385,660.094081 651.260885,661.578794 651.260885,663.405122 C651.260885,665.231451 652.86385,666.716164 654.834708,666.716164 Z M658.461087,689 L658.461087,668.818413 L651.208329,668.818413 L651.208329,689 L658.461087,689 Z M674.789525,689 L681.569277,668.818413 L673.948625,668.818413 L670.69014,682.167692 L670.479915,682.167692 L667.22143,668.818413 L659.600778,668.818413 L666.38053,689 L674.789525,689 Z M691.748762,689.367894 C697.345999,689.367894 700.946099,686.687526 701.62933,682.483029 L695.007247,682.483029 C694.586797,683.626127 693.391143,684.26994 691.90643,684.26994 C689.751625,684.26994 688.490276,682.850923 688.490276,680.906343 L688.490276,680.591005 L701.62933,680.591005 L701.62933,678.909206 C701.62933,672.484209 697.687614,668.555632 691.591093,668.555632 C685.336903,668.555632 681.342631,672.707573 681.342631,678.961763 C681.342631,685.491873 685.284347,689.367894 691.748762,689.367894 Z M694.954691,676.596733 L688.490276,676.596733 C688.529693,674.849239 689.974989,673.653585 691.748762,673.653585 C693.548812,673.653585 694.915274,674.862378 694.954691,676.596733 Z M707.604326,689.42045 C709.535767,689.42045 711.256983,687.791207 711.283261,685.741515 C711.256983,683.744378 709.535767,682.115136 707.604326,682.115136 C705.567773,682.115136 703.899113,683.744378 703.925391,685.741515 C703.899113,687.791207 705.567773,689.42045 707.604326,689.42045 Z" id="Writeonce,feelsnative." fill="#FFC800" fill-rule="nonzero"></path>
        <path d="M338.068495,668.261361 C338.909395,668.261361 339.47757,668.102272 339.863929,667.954546 L339.432116,666.125021 C339.148028,666.204566 338.784396,666.284111 338.250311,666.284111 C336.875327,666.284111 335.613978,665.636391 335.613978,663.443234 L335.613978,652.306998 L339.307117,652.306998 L339.307117,650.545654 L335.613978,650.545654 L335.613978,646.363884 L333.57991,646.363884 L333.57991,650.545654 L330.977667,650.545654 L330.977667,652.306998 L333.57991,652.306998 L333.57991,663.920501 C333.57991,666.772741 335.829884,668.261361 338.068495,668.261361 Z M345.49731,668 L345.49731,657.091034 C345.49731,654.045614 347.542741,652.170636 350.338163,652.170636 C353.042678,652.170636 354.769931,653.943343 354.769931,656.81831 L354.769931,668 L356.803998,668 L356.803998,656.693311 C356.803998,652.534268 354.394935,650.318384 350.849521,650.318384 C348.213188,650.318384 346.497298,651.477462 345.679126,653.284259 L345.49731,653.284259 L345.49731,644.727539 L343.474605,644.727539 L343.474605,668 L345.49731,668 Z M368.414661,668.363632 C371.914621,668.363632 374.266867,666.465927 375.062313,664.27277 L373.14188,663.647777 C372.471433,665.215941 370.891906,666.511381 368.414661,666.511381 C364.84652,666.511381 362.585183,663.909138 362.494275,659.875093 L375.494126,659.875093 L375.494126,658.875104 C375.494126,653.045626 371.891894,650.307021 368.107847,650.307021 C363.585171,650.307021 360.460207,654.091068 360.460207,659.375099 C360.460207,664.670493 363.528354,668.363632 368.414661,668.363632 Z M373.425968,658.091022 L362.505638,658.091022 C362.721545,654.84106 364.914701,652.147909 368.107847,652.147909 C371.232811,652.147909 373.425968,654.727425 373.425968,658.091022 Z M381.173038,668 L381.173038,657.091034 C381.173038,654.045614 383.173015,652.170636 385.922983,652.170636 C388.604771,652.170636 390.332024,653.96607 390.332024,656.81831 L390.332024,668 L392.354728,668 L392.354728,656.693311 C392.354728,652.556995 389.957028,650.318384 386.434341,650.318384 C383.877552,650.318384 382.116209,651.500189 381.298036,653.284259 L381.11622,653.284259 L381.11622,650.545654 L379.150333,650.545654 L379.150333,668 L381.173038,668 Z" id="then" fill="#FFC800" fill-rule="nonzero"></path>
        <path d="M803.32154,668.261361 C804.16244,668.261361 804.730615,668.102272 805.116974,667.954546 L804.685161,666.125021 C804.401073,666.204566 804.037441,666.284111 803.503356,666.284111 C802.128372,666.284111 800.867023,665.636391 800.867023,663.443234 L800.867023,652.306998 L804.560162,652.306998 L804.560162,650.545654 L800.867023,650.545654 L800.867023,646.363884 L798.832955,646.363884 L798.832955,650.545654 L796.230712,650.545654 L796.230712,652.306998 L798.832955,652.306998 L798.832955,663.920501 C798.832955,666.772741 801.082929,668.261361 803.32154,668.261361 Z M814.966209,668.363632 C819.488885,668.363632 822.64794,664.670493 822.64794,659.352372 C822.64794,654.00016 819.488885,650.307021 814.966209,650.307021 C810.443534,650.307021 807.284479,654.00016 807.284479,659.352372 C807.284479,664.670493 810.443534,668.363632 814.966209,668.363632 Z M814.966209,666.511381 C811.341251,666.511381 809.318547,663.261418 809.318547,659.352372 C809.318547,655.443326 811.341251,652.147909 814.966209,652.147909 C818.591168,652.147909 820.613872,655.443326 820.613872,659.352372 C820.613872,663.261418 818.591168,666.511381 814.966209,666.511381 Z M837.823795,668 L837.835159,652.306998 L841.698751,652.306998 L841.698751,650.545654 L837.835159,650.545654 L837.835159,648.409315 C837.835159,646.579791 838.823784,645.557075 840.585127,645.557075 C841.255574,645.557075 841.66466,645.704801 841.971475,645.807072 L842.562377,644.034365 C842.153291,643.863913 841.471481,643.648006 840.403311,643.648006 C838.028338,643.648006 835.801091,645.170716 835.801091,647.988865 L835.801091,650.545654 L833.119304,650.545654 L833.119304,652.306998 L835.801091,652.306998 L835.801091,668 L837.823795,668 Z M846.013958,647.545689 C846.843494,647.545689 847.536668,646.886605 847.536668,646.09116 C847.536668,645.295714 846.843494,644.636631 846.013958,644.636631 C845.184422,644.636631 844.502611,645.295714 844.502611,646.09116 C844.502611,646.886605 845.184422,647.545689 846.013958,647.545689 Z M847.013946,668 L847.013946,650.545654 L844.979879,650.545654 L844.979879,668 L847.013946,668 Z M852.840456,668 L857.340404,660.795537 L861.840353,668 L864.192599,668 L858.579027,659.272827 L864.192599,650.545654 L861.840353,650.545654 L857.340404,657.988751 L852.840456,650.545654 L850.499574,650.545654 L856.044965,659.272827 L850.499574,668 L852.840456,668 Z" id="tofix" fill="#FFC800" fill-rule="nonzero"></path>
        <path d="M576.364904,860.332383 C583.552677,860.332383 587.859801,857.230145 587.887499,851.635039 C587.859801,847.314066 585.283836,844.281075 579.023965,842.937695 L576.697287,842.439121 C574.010528,841.871301 572.805641,841.081893 572.874887,839.724664 C572.888736,838.478229 573.927432,837.564177 576.309507,837.564177 C578.802376,837.564177 579.979564,838.65827 580.131906,840.500223 L587.49972,840.500223 C587.472021,834.932815 583.178747,831.248909 576.309507,831.248909 C569.564911,831.248909 564.800761,834.877418 564.842309,840.278635 C564.828459,844.710402 567.902998,847.175573 572.930284,848.255816 L575.755536,848.865184 C578.91317,849.557648 579.993414,850.347056 580.021112,851.635039 C579.993414,853.033816 578.71928,854.017114 576.25411,854.017114 C573.304215,854.017114 571.559206,852.632187 571.434563,850.028523 L564.122146,850.028523 C564.149845,857.14705 568.969392,860.332383 576.364904,860.332383 Z M597.579436,860 L597.579436,848.034228 C597.593285,845.929138 598.812021,844.655005 600.681673,844.655005 C602.634421,844.655005 603.742362,845.929138 603.728513,848.034228 L603.728513,860 L611.373361,860 L611.373361,846.427712 C611.387161,841.774356 608.451115,838.450531 603.950102,838.450531 C600.806316,838.450531 598.479639,840.057046 597.524039,842.771504 L597.30245,842.771504 L597.30245,831.636688 L589.934637,831.636688 L589.934637,860 L597.579436,860 Z M617.963002,836.511632 C620.040393,836.511632 621.730005,834.946665 621.730005,833.021616 C621.730005,831.096567 620.040393,829.531599 617.963002,829.531599 C615.885611,829.531599 614.196,831.096567 614.196,833.021616 C614.196,834.946665 615.885611,836.511632 617.963002,836.511632 Z M621.785402,860 L621.785402,838.727516 L614.140603,838.727516 L614.140603,860 L621.785402,860 Z M632.308129,867.977181 L632.308129,856.509983 L632.418923,856.509983 C633.305277,858.67047 635.354969,860.276985 638.346412,860.276985 C642.888974,860.276985 646.711373,856.731571 646.711373,849.363758 C646.711373,841.663562 642.611988,838.450531 638.401809,838.450531 C635.244175,838.450531 633.24988,840.278635 632.418923,842.439121 L632.252732,842.439121 L632.252732,838.727516 L624.66333,838.727516 L624.66333,867.977181 L632.308129,867.977181 Z M635.52116,854.404894 C633.416071,854.404894 632.141938,852.465995 632.141938,849.363758 C632.141938,846.206124 633.416071,844.322623 635.52116,844.322623 C637.62625,844.322623 638.844986,846.206124 638.844986,849.363758 C638.844986,852.521392 637.62625,854.404894 635.52116,854.404894 Z M514.909662,904.38778 C520.809453,904.38778 524.604154,901.562528 525.324316,897.13076 L518.344282,897.13076 C517.901105,898.335647 516.640821,899.014262 515.075854,899.014262 C512.804573,899.014262 511.475043,897.51854 511.475043,895.468848 L511.475043,895.136465 L525.324316,895.136465 L525.324316,893.363758 C525.324316,886.591463 521.169534,882.450531 514.743471,882.450531 C508.151217,882.450531 503.941038,886.826901 503.941038,893.419155 C503.941038,900.302244 508.09582,904.38778 514.909662,904.38778 Z M518.288885,890.926286 L511.475043,890.926286 C511.51659,889.084333 513.04001,887.824049 514.909662,887.824049 C516.807013,887.824049 518.247337,889.098182 518.288885,890.926286 Z M541.165297,904 L548.311522,882.727516 L540.278944,882.727516 L536.844324,896.798378 L536.622736,896.798378 L533.188116,882.727516 L525.155537,882.727516 L532.301762,904 L541.165297,904 Z M559.000571,904.38778 C564.900362,904.38778 568.695063,901.562528 569.415225,897.13076 L562.435191,897.13076 C561.992014,898.335647 560.731731,899.014262 559.166763,899.014262 C556.895482,899.014262 555.565952,897.51854 555.565952,895.468848 L555.565952,895.136465 L569.415225,895.136465 L569.415225,893.363758 C569.415225,886.591463 565.260443,882.450531 558.83438,882.450531 C552.242126,882.450531 548.031947,886.826901 548.031947,893.419155 C548.031947,900.302244 552.186729,904.38778 559.000571,904.38778 Z M562.379794,890.926286 L555.565952,890.926286 C555.607499,889.084333 557.130919,887.824049 559.000571,887.824049 C560.897922,887.824049 562.338246,889.098182 562.379794,890.926286 Z M579.162532,904 L579.162532,892.920581 C579.162532,890.483109 580.838294,888.876594 583.095726,888.876594 C583.885135,888.876594 585.159268,889.001237 585.920978,889.264373 L585.920978,882.741365 C585.31161,882.561325 584.646845,882.450531 583.982079,882.450531 C581.710799,882.450531 579.938092,883.780061 579.162532,886.771504 L578.940944,886.771504 L578.940944,882.727516 L571.517733,882.727516 L571.517733,904 L579.162532,904 Z M592.732169,911.977181 C598.077988,911.977181 600.584707,909.290422 601.761895,905.772707 L609.517488,882.727516 L601.48491,882.727516 L597.994893,897.463143 L597.773304,897.463143 L594.338685,882.727516 L586.361503,882.727516 L593.840111,904.941751 L593.673919,905.32953 C593.161496,906.506718 591.679624,906.465171 589.796123,905.800406 L588.13421,911.229321 C589.325248,911.700196 590.973311,911.977181 592.732169,911.977181 Z M620.040354,904.304684 C621.771513,904.207739 623.059495,903.847658 623.751959,903.639919 L622.644017,898.266401 C622.353182,898.335647 621.605322,898.487989 621.148295,898.487989 C620.151148,898.487989 619.707971,898.044812 619.707971,897.158459 L619.707971,888.267226 L623.364179,888.267226 L623.364179,882.727516 L619.707971,882.727516 L619.707971,877.630984 L612.063172,877.630984 L612.063172,882.727516 L609.348715,882.727516 L609.348715,888.267226 L612.063172,888.267226 L612.063172,897.878621 C612.007775,902.338087 614.76378,904.595519 620.040354,904.304684 Z M633.554578,904 L633.554578,892.034228 C633.568427,889.929138 634.787163,888.655005 636.656815,888.655005 C638.609563,888.655005 639.717504,889.929138 639.703655,892.034228 L639.703655,904 L647.348503,904 L647.348503,890.427712 C647.362303,885.774356 644.426257,882.450531 639.925244,882.450531 C636.781459,882.450531 634.454781,884.057046 633.499181,886.771504 L633.277592,886.771504 L633.277592,875.636688 L625.909779,875.636688 L625.909779,904 L633.554578,904 Z M653.938144,880.511632 C656.015535,880.511632 657.705147,878.946665 657.705147,877.021616 C657.705147,875.096567 656.015535,873.531599 653.938144,873.531599 C651.860753,873.531599 650.171142,875.096567 650.171142,877.021616 C650.171142,878.946665 651.860753,880.511632 653.938144,880.511632 Z M657.760544,904 L657.760544,882.727516 L650.115745,882.727516 L650.115745,904 L657.760544,904 Z M668.283271,904 L668.283271,892.034228 C668.29712,889.929138 669.488158,888.655005 671.385508,888.655005 C673.310557,888.655005 674.446198,889.929138 674.432348,892.034228 L674.432348,904 L682.077196,904 L682.077196,890.427712 C682.090997,885.802055 679.1688,882.450531 674.653937,882.450531 C671.524001,882.450531 669.044981,884.084745 668.11708,886.771504 L667.895491,886.771504 L667.895491,882.727516 L660.638472,882.727516 L660.638472,904 L668.283271,904 Z M695.0929,912.420358 C701.823647,912.420358 706.283113,909.34582 706.283113,903.944603 L706.283113,882.727516 L698.638314,882.727516 L698.638314,886.439121 L698.472123,886.439121 C697.641167,884.278635 695.646871,882.450531 692.489237,882.450531 C688.279058,882.450531 684.179673,885.663562 684.179673,893.363758 C684.179673,900.731571 688.002072,903.723015 692.544634,903.723015 C695.425283,903.723015 697.696564,902.504278 698.52752,900.343792 L698.749108,900.343792 L698.749108,903.944603 C698.749108,906.451321 697.294935,907.268429 695.314489,907.268429 C693.555631,907.268429 692.267649,906.742156 692.04606,905.384927 L684.678247,905.384927 C684.969081,909.484312 688.694536,912.420358 695.0929,912.420358 Z M695.369886,898.294099 C693.264796,898.294099 692.04606,896.521392 692.04606,893.363758 C692.04606,890.206124 693.264796,888.322623 695.369886,888.322623 C697.474975,888.322623 698.749108,890.206124 698.749108,893.363758 C698.749108,896.465995 697.474975,898.294099 695.369886,898.294099 Z M558.806689,948.304684 C560.537848,948.207739 561.82583,947.847658 562.518294,947.639919 L561.410352,942.266401 C561.119517,942.335647 560.371657,942.487989 559.914631,942.487989 C558.917483,942.487989 558.474306,942.044812 558.474306,941.158459 L558.474306,932.267226 L562.130514,932.267226 L562.130514,926.727516 L558.474306,926.727516 L558.474306,921.630984 L550.829507,921.630984 L550.829507,926.727516 L548.11505,926.727516 L548.11505,932.267226 L550.829507,932.267226 L550.829507,941.878621 C550.77411,946.338087 553.530116,948.595519 558.806689,948.304684 Z M576.254102,948 L579.245545,936.588199 L579.467133,936.588199 L582.458576,948 L590.712743,948 L596.030864,926.727516 L588.386065,926.727516 L586.059387,939.579642 L585.893196,939.579642 L583.067944,926.727516 L575.644734,926.727516 L572.930276,939.690436 L572.764085,939.690436 L570.326613,926.727516 L562.681814,926.727516 L567.999935,948 L576.254102,948 Z M601.180332,924.511632 C603.257723,924.511632 604.947334,922.946665 604.947334,921.021616 C604.947334,919.096567 603.257723,917.531599 601.180332,917.531599 C599.102941,917.531599 597.413329,919.096567 597.413329,921.021616 C597.413329,922.946665 599.102941,924.511632 601.180332,924.511632 Z M605.002731,948 L605.002731,926.727516 L597.357932,926.727516 L597.357932,948 L605.002731,948 Z M618.129122,948.38778 C624.430541,948.38778 628.294489,944.773119 628.377584,939.136465 L621.286756,939.136465 C621.120565,941.366198 619.915678,942.571085 618.239916,942.571085 C616.231771,942.571085 614.91609,940.853775 614.91609,937.363758 C614.91609,933.873741 616.231771,932.156431 618.239916,932.156431 C619.929527,932.156431 621.079017,933.361318 621.286756,935.591051 L628.377584,935.591051 C628.336036,930.051342 624.388993,926.450531 618.129122,926.450531 C611.204485,926.450531 607.1051,930.882298 607.1051,937.419155 C607.1051,943.956012 611.204485,948.38778 618.129122,948.38778 Z M640.728554,948.38778 C646.628345,948.38778 650.423046,945.562528 651.143208,941.13076 L644.163174,941.13076 C643.719997,942.335647 642.459714,943.014262 640.894746,943.014262 C638.623465,943.014262 637.293935,941.51854 637.293935,939.468848 L637.293935,939.136465 L651.143208,939.136465 L651.143208,937.363758 C651.143208,930.591463 646.988426,926.450531 640.562363,926.450531 C633.970109,926.450531 629.75993,930.826901 629.75993,937.419155 C629.75993,944.302244 633.914712,948.38778 640.728554,948.38778 Z M644.107777,934.926286 L637.293935,934.926286 C637.335482,933.084333 638.858902,931.824049 640.728554,931.824049 C642.625905,931.824049 644.066229,933.098182 644.107777,934.926286 Z M657.400498,948.443177 C659.436342,948.443177 661.250596,946.725867 661.278295,944.56538 C661.250596,942.460291 659.436342,940.742981 657.400498,940.742981 C655.253861,940.742981 653.495003,942.460291 653.522702,944.56538 C653.495003,946.725867 655.253861,948.443177 657.400498,948.443177 Z" id="Shipeverythingtwice." fill="#00B8FF" fill-rule="nonzero"></path>
    </g>
</svg>