<?xml version="1.0" encoding="UTF-8"?>
<svg width="1514px" height="1437px" viewBox="0 0 1514 1437" version="1.1" xmlns="http://www.w3.org/2000/svg" xmlns:xlink="http://www.w3.org/1999/xlink">
    <!-- Generator: Sketch 61 (89581) - https://sketch.com -->
    <title>trilemma</title>
    <desc>Created with Sketch.</desc>
    <defs>
        <linearGradient x1="4.12365141%" y1="41.104932%" x2="98.3700707%" y2="41.104932%" id="linearGradient-1">
            <stop stop-color="#E5494C" offset="0%"></stop>
            <stop stop-color="#F76809" offset="16.1238387%"></stop>
            <stop stop-color="#F5D910" offset="33.1828442%"></stop>
            <stop stop-color="#31A36D" offset="50.5103543%"></stop>
            <stop stop-color="#0090FF" offset="67.8476789%"></stop>
            <stop stop-color="#8E4EC5" offset="84.5102562%"></stop>
            <stop stop-color="#D6409F" offset="100%"></stop>
        </linearGradient>
        <path d="M42.4645833,0 L42.4645833,4 L46.4717262,4 L46.4717262,20 L38.4574405,20 L38.4574405,12 L34.4502976,12 L34.4502976,20 L26.4360119,20 L26.4360119,4 L30.4431548,4 L30.4431548,0 L42.4645833,0 Z M16.139881,0 L16.139881,4 L12.1049107,4 L12.1049107,20 L4.03497024,20 L4.03497024,4 L0,4 L0,0 L16.139881,0 Z M62.5002976,0 L62.5002976,4 L70.5145833,4 L70.5145833,0 L76.5252976,0 L76.5252976,20 L68.5110119,20 L68.5110119,11 L64.503869,11 L64.503869,20 L56.4895833,20 L56.4895833,0 L62.5002976,0 Z M102.293452,0 L102.293452,4 L106.300595,4 L106.300595,20 L98.2863095,20 L98.2863095,12 L94.2791667,12 L94.2791667,20 L86.264881,20 L86.264881,4 L90.2720238,4 L90.2720238,0 L102.293452,0 Z M135.797619,0 L135.797619,4 L123.77619,4 L123.77619,16 L127.783333,16 L127.783333,8 L135.797619,8 L135.797619,16 L131.790476,16 L131.790476,20 L119.769048,20 L119.769048,16 L115.761905,16 L115.761905,4 L119.769048,4 L119.769048,0 L135.797619,0 Z M153.829762,0 L153.829762,16 L157.836905,16 L157.836905,0 L165.85119,0 L165.85119,16 L161.844048,16 L161.844048,20 L149.822619,20 L149.822619,16 L145.815476,16 L145.815476,0 L153.829762,0 Z M187,0 L187,20 L179.208333,20 L179.208333,0 L187,0 Z M98.2863095,4 L94.2791667,4 L94.2791667,8 L98.2863095,8 L98.2863095,4 Z M38.4574405,4 L34.4502976,4 L34.4502976,8 L38.4574405,8 L38.4574405,4 Z" id="path-2"></path>
    </defs>
    <g id="trilemma" stroke="none" stroke-width="1" fill="none" fill-rule="evenodd">
        <rect fill="#000000" x="0" y="0" width="1514" height="1437"></rect>
        <g id="Group-3" transform="translate(179.000000, -77.000000)">
            <circle id="Oval" fill-opacity="0.302365603" fill="#8C007B" cx="578" cy="677" r="372"></circle>
            <circle id="Oval-Copy" fill-opacity="0.302365603" fill="#8C007B" cx="372" cy="1049" r="372"></circle>
            <circle id="Oval-Copy-2" fill-opacity="0.302365603" fill="#8C007B" cx="784" cy="1049" r="372"></circle>
            <g id="Group-2" transform="translate(389.000000, 963.000000)" stroke="#B4AA2F" stroke-linecap="round" stroke-linejoin="round" stroke-width="12">
                <path d="M0,0 C1.3783951,10.7583214 6.41065316,23.4724288 15.0967742,38.1423221 C23.7828952,52.8122154 33.7506372,65.4314414 45,76" id="Line"></path>
                <line x1="45.4522793" y1="54" x2="45.5477207" y2="78" id="Line"></line>
                <line x1="20" y1="80" x2="45" y2="78" id="Line"></line>
            </g>
            <g id="Group-2-Copy" transform="translate(732.000000, 1003.000000) scale(-1, 1) translate(-732.000000, -1003.000000) translate(709.000000, 963.000000)" stroke="#B4AA2F" stroke-linecap="round" stroke-linejoin="round" stroke-width="12">
                <path d="M0,0 C0.467147754,10.359331 5.13381442,23.0259977 14,38 C22.8661856,52.9740023 33.1995189,65.640669 45,76" id="Line"></path>
                <line x1="45.4522793" y1="54" x2="45.5477207" y2="78" id="Line"></line>
                <line x1="20" y1="80" x2="45" y2="78" id="Line"></line>
            </g>
            <g id="Group-2-Copy-2" transform="translate(1277.674622, 549.098423) scale(-1, 1) rotate(-195.000000) translate(-1277.674622, -549.098423) translate(690.674622, 138.598423)" stroke="#1CC871" stroke-linecap="round" stroke-linejoin="round">
                <path d="M1.13686838e-13,0 C49.1969656,58.9540615 102.81197,109.445843 160.845013,151.475345 C218.878055,193.504847 284.929718,229.679732 359,260" id="Line" stroke-width="8"></path>
                <line x1="359.088409" y1="236.032261" x2="359.183851" y2="260.032261" id="Line" stroke-width="12"></line>
                <line x1="333.63613" y1="264.032261" x2="358.63613" y2="260.032261" id="Line" stroke-width="12"></line>
            </g>
        </g>
        <path d="M704.36204,461 C741.283848,461 762.724298,437.777965 762.847303,397.600157 C762.9086,358.466727 742.266791,335.183258 707.556606,335.183258 L671.43344,335.183258 L671.43344,461 L704.36204,461 Z M704.36204,457.068227 L675.365213,457.068227 L675.365213,339.115031 L707.556606,339.115031 C740.178037,339.115031 758.792525,360.924086 758.915962,397.600157 C759.038261,434.890569 739.256527,457.068227 704.36204,457.068227 Z M778.993484,461 L818.556952,401.777666 L819.048424,401.777666 L858.611891,461 L863.526608,461 L821.260046,398.091629 L863.526608,335.183258 L858.611891,335.183258 L819.048424,394.405592 L818.556952,394.405592 L778.993484,335.183258 L774.078768,335.183258 L816.345329,398.091629 L774.078768,461 L778.993484,461 Z" id="DX" fill="#FFFFFF" fill-rule="nonzero"></path>
        <path d="M350.577098,1063.96589 C376.440794,1063.96589 395.79249,1044.98279 395.79249,1019.4877 L395.79249,936.183258 L391.860717,936.183258 L391.860717,1019.4877 C391.860717,1042.77117 374.290606,1060.03411 350.577098,1060.03411 C326.863591,1060.03411 309.29348,1042.77117 309.29348,1019.4877 L309.29348,936.183258 L305.361132,936.183258 L305.361132,1019.4877 C305.238839,1044.92136 324.836271,1063.96589 350.577098,1063.96589 Z M419.065217,1062 L458.628685,1002.77767 L459.120156,1002.77767 L498.683624,1062 L503.598341,1062 L461.331779,999.091629 L503.598341,936.183258 L498.683624,936.183258 L459.120156,995.405592 L458.628685,995.405592 L419.065217,936.183258 L414.150501,936.183258 L456.417062,999.091629 L414.150501,1062 L419.065217,1062 Z" id="UX" fill="#FFFFFF" fill-rule="nonzero"></path>
        <path d="M1019.92502,1062 L1059.48849,1002.77767 L1059.97996,1002.77767 L1099.54343,1062 L1104.45814,1062 L1062.19158,999.091629 L1104.45814,936.183258 L1099.54343,936.183258 L1059.97996,995.405592 L1059.48849,995.405592 L1019.92502,936.183258 L1015.0103,936.183258 L1057.27686,999.091629 L1015.0103,1062 L1019.92502,1062 Z M1126.7476,1062 L1126.7476,1009.65827 L1159.6762,1009.65827 C1180.80948,1009.65827 1195.79937,994.484082 1195.79937,973.043632 C1195.79937,951.480313 1180.80948,936.183258 1159.6762,936.183258 L1122.81583,936.183258 L1122.81583,1062 L1126.7476,1062 Z M1159.6762,1005.7265 L1126.7476,1005.7265 L1126.7476,940.115031 L1159.6762,940.115031 C1178.53642,940.115031 1191.86759,953.753369 1191.86759,973.043632 C1191.86759,992.211026 1178.53642,1005.7265 1159.6762,1005.7265 Z" id="XP" fill="#FFFFFF" fill-rule="nonzero"></path>
        <path d="M330.555999,1142 L330.555999,1130.92058 L341.58002,1130.92058 L341.58002,1124.71611 L330.555999,1124.71611 L330.555999,1119.84116 L342.798757,1119.84116 L342.798757,1113.63669 L322.855803,1113.63669 L322.855803,1142 L330.555999,1142 Z M353.076992,1142.38778 C358.976782,1142.38778 362.771483,1139.56253 363.491645,1135.13076 L356.511612,1135.13076 C356.068435,1136.33565 354.808151,1137.01426 353.243183,1137.01426 C350.971902,1137.01426 349.642372,1135.51854 349.642372,1133.46885 L349.642372,1133.13647 L363.491645,1133.13647 L363.491645,1131.36376 C363.491645,1124.59146 359.336863,1120.45053 352.910801,1120.45053 C346.318546,1120.45053 342.108367,1124.8269 342.108367,1131.41916 C342.108367,1138.30224 346.263149,1142.38778 353.076992,1142.38778 Z M356.456215,1128.92629 L349.642372,1128.92629 C349.68392,1127.08433 351.20734,1125.82405 353.076992,1125.82405 C354.974342,1125.82405 356.414667,1127.09818 356.456215,1128.92629 Z M375.487219,1142.38778 C381.38701,1142.38778 385.18171,1139.56253 385.901873,1135.13076 L378.921839,1135.13076 C378.478662,1136.33565 377.218378,1137.01426 375.65341,1137.01426 C373.38213,1137.01426 372.052599,1135.51854 372.052599,1133.46885 L372.052599,1133.13647 L385.901873,1133.13647 L385.901873,1131.36376 C385.901873,1124.59146 381.747091,1120.45053 375.321028,1120.45053 C368.728774,1120.45053 364.518595,1124.8269 364.518595,1131.41916 C364.518595,1138.30224 368.673377,1142.38778 375.487219,1142.38778 Z M378.866442,1128.92629 L372.052599,1128.92629 C372.094147,1127.08433 373.617567,1125.82405 375.487219,1125.82405 C377.38457,1125.82405 378.824894,1127.09818 378.866442,1128.92629 Z M395.34918,1142 L395.34918,1113.63669 L387.704381,1113.63669 L387.704381,1142 L395.34918,1142 Z M407.676997,1142.38778 C413.562938,1142.38778 417.897761,1139.52098 417.925459,1134.96457 C417.897761,1131.82078 415.792671,1129.99268 411.443999,1129.20327 L407.123026,1128.42771 C405.502661,1128.13688 405.045635,1127.55521 405.073334,1126.93199 C405.045635,1126.04564 406.139728,1125.54706 407.455409,1125.54706 C408.964979,1125.54706 410.225263,1126.35032 410.336057,1127.65215 L417.371488,1127.65215 C417.177598,1123.15114 413.438295,1120.45053 407.289217,1120.45053 C401.209386,1120.45053 397.456233,1122.9434 397.483932,1127.37517 C397.456233,1130.72669 399.630569,1132.87333 403.965392,1133.63504 L407.732394,1134.2998 C409.394307,1134.60449 410.142168,1135.04766 410.169866,1135.85092 C410.142168,1136.73728 409.131171,1137.23585 407.732394,1137.23585 C406.001235,1137.23585 404.782499,1136.48799 404.57476,1135.13076 L396.985358,1135.13076 C397.400836,1139.49328 401.167838,1142.38778 407.676997,1142.38778 Z M433.662248,1142 L433.662248,1130.03423 C433.676098,1127.92914 434.867135,1126.65501 436.764486,1126.65501 C438.689534,1126.65501 439.825175,1127.92914 439.811326,1130.03423 L439.811326,1142 L447.456174,1142 L447.456174,1128.42771 C447.469974,1123.80205 444.547777,1120.45053 440.032914,1120.45053 C436.902978,1120.45053 434.423958,1122.08474 433.496057,1124.7715 L433.274469,1124.7715 L433.274469,1120.72752 L426.017449,1120.72752 L426.017449,1142 L433.662248,1142 Z M453.745815,1118.51163 C455.823206,1118.51163 457.512817,1116.94666 457.512817,1115.02162 C457.512817,1113.09657 455.823206,1111.5316 453.745815,1111.5316 C451.668424,1111.5316 449.978812,1113.09657 449.978812,1115.02162 C449.978812,1116.94666 451.668424,1118.51163 453.745815,1118.51163 Z M457.568214,1142 L457.568214,1120.72752 L449.923415,1120.72752 L449.923415,1142 L457.568214,1142 Z M470.394605,1142.38778 C476.696024,1142.38778 480.559971,1138.77312 480.643067,1133.13647 L473.552239,1133.13647 C473.386048,1135.3662 472.181161,1136.57108 470.505399,1136.57108 C468.497254,1136.57108 467.181573,1134.85377 467.181573,1131.36376 C467.181573,1127.87374 468.497254,1126.15643 470.505399,1126.15643 C472.19501,1126.15643 473.3445,1127.36132 473.552239,1129.59105 L480.643067,1129.59105 C480.601519,1124.05134 476.654476,1120.45053 470.394605,1120.45053 C463.469968,1120.45053 459.370583,1124.8823 459.370583,1131.41916 C459.370583,1137.95601 463.469968,1142.38778 470.394605,1142.38778 Z M492.694037,1142.38778 C498.593828,1142.38778 502.388529,1139.56253 503.108691,1135.13076 L496.128657,1135.13076 C495.68548,1136.33565 494.425196,1137.01426 492.860229,1137.01426 C490.588948,1137.01426 489.259418,1135.51854 489.259418,1133.46885 L489.259418,1133.13647 L503.108691,1133.13647 L503.108691,1131.36376 C503.108691,1124.59146 498.953909,1120.45053 492.527846,1120.45053 C485.935592,1120.45053 481.725413,1124.8269 481.725413,1131.41916 C481.725413,1138.30224 485.880195,1142.38778 492.694037,1142.38778 Z M496.07326,1128.92629 L489.259418,1128.92629 C489.300965,1127.08433 490.824385,1125.82405 492.694037,1125.82405 C494.591388,1125.82405 496.031712,1127.09818 496.07326,1128.92629 Z" id="Feelsnice" fill="#FFFFFF" fill-rule="nonzero"></path>
        <g id="Cross-platform-Nativ" transform="translate(969.705804, 1111.307158)" fill="#FFFFFF" fill-rule="nonzero">
            <path d="M13.683082,30.0806217 C21.992646,30.0806217 26.2028251,24.319324 26.5906048,19.4997768 L18.7796146,19.4443797 C18.391835,21.8680026 16.6745251,23.3775734 13.8492733,23.3775734 C10.0961203,23.3775734 7.92178434,20.7185129 7.92178434,15.5111861 C7.92178434,10.5808448 10.0268739,7.64479887 13.9046704,7.64479887 C16.8684149,7.64479887 18.5580263,9.38980731 18.7796146,11.9657722 L26.5906048,11.9657722 C25.9812368,4.9303413 20.8293071,0.941750586 13.683082,0.941750586 C6.03828317,0.941750586 0,6.03828317 0,15.5111861 C0,24.9425413 5.87209189,30.0806217 13.683082,30.0806217 Z M36.5365577,29.692842 L36.5365577,18.6134233 C36.5365577,16.1759512 38.2123198,14.5694355 40.4697513,14.5694355 C41.2591599,14.5694355 42.5332931,14.694079 43.2950031,14.9572152 L43.2950031,8.43420745 C42.6856351,8.2541669 42.0208699,8.14337271 41.3561048,8.14337271 C39.084824,8.14337271 37.312117,9.47290295 36.5365577,12.464346 L36.3149693,12.464346 L36.3149693,8.42035818 L28.8917588,8.42035818 L28.8917588,29.692842 L36.5365577,29.692842 Z M53.5177779,30.0806217 C60.4424146,30.0806217 64.5417995,25.6488542 64.5417995,19.1119972 C64.5417995,12.5751402 60.4424146,8.14337271 53.5177779,8.14337271 C46.5931412,8.14337271 42.4937563,12.5751402 42.4937563,19.1119972 C42.4937563,25.6488542 46.5931412,30.0806217 53.5177779,30.0806217 Z M53.573175,24.4301181 C51.5234825,24.4301181 50.3047465,22.394275 50.3047465,19.0566001 C50.3047465,15.7189252 51.5234825,13.683082 53.573175,13.683082 C55.5120733,13.683082 56.7308093,15.7189252 56.7308093,19.0566001 C56.7308093,22.394275 55.5120733,24.4301181 53.573175,24.4301181 Z M76.0942041,30.0806217 C81.9801452,30.0806217 86.3149678,27.2138221 86.3426663,22.6574112 C86.3149678,19.5136261 84.2098782,17.685522 79.8612064,16.8961135 L75.5402331,16.1205541 C73.9198682,15.8297194 73.4628421,15.2480499 73.4905407,14.6248326 C73.4628421,13.7384791 74.5569347,13.2399053 75.8726157,13.2399053 C77.3821865,13.2399053 78.6424704,14.0431632 78.7532645,15.3449948 L85.7886954,15.3449948 C85.5948056,10.843981 81.8555018,8.14337271 75.7064244,8.14337271 C69.6265934,8.14337271 65.8734404,10.6362419 65.9011389,15.0680094 C65.8734404,18.4195335 68.0477763,20.5661709 72.3825988,21.3278809 L76.1496012,21.992646 C77.811514,22.2973301 78.5593747,22.7405068 78.5870733,23.5437647 C78.5593747,24.4301181 77.5483778,24.928692 76.1496012,24.928692 C74.418442,24.928692 73.1997059,24.1808312 72.9919668,22.8236024 L65.4025651,22.8236024 C65.8180433,27.1861235 69.5850456,30.0806217 76.0942041,30.0806217 Z M97.7288632,30.0806217 C103.614804,30.0806217 107.949627,27.2138221 107.977325,22.6574112 C107.949627,19.5136261 105.844537,17.685522 101.495866,16.8961135 L97.1748922,16.1205541 C95.5545272,15.8297194 95.0975012,15.2480499 95.1251998,14.6248326 C95.0975012,13.7384791 96.1915938,13.2399053 97.5072748,13.2399053 C99.0168456,13.2399053 100.277129,14.0431632 100.387924,15.3449948 L107.423354,15.3449948 C107.229465,10.843981 103.490161,8.14337271 97.3410835,8.14337271 C91.2612525,8.14337271 87.5080994,10.6362419 87.535798,15.0680094 C87.5080994,18.4195335 89.6824354,20.5661709 94.0172579,21.3278809 L97.7842603,21.992646 C99.446173,22.2973301 100.194034,22.7405068 100.221732,23.5437647 C100.194034,24.4301181 99.1830369,24.928692 97.7842603,24.928692 C96.0531011,24.928692 94.834365,24.1808312 94.6266259,22.8236024 L87.0372242,22.8236024 C87.4527024,27.1861235 91.2197047,30.0806217 97.7288632,30.0806217 Z M123.714115,37.6700234 L123.714115,26.2028251 L123.824909,26.2028251 C124.711262,28.3633118 126.760955,29.9698275 129.752398,29.9698275 C134.294959,29.9698275 138.117359,26.4244135 138.117359,19.0566001 C138.117359,11.3564041 134.017974,8.14337271 129.807795,8.14337271 C126.65016,8.14337271 124.655865,9.97147679 123.824909,12.1319634 L123.658717,12.1319634 L123.658717,8.42035818 L116.069316,8.42035818 L116.069316,37.6700234 L123.714115,37.6700234 Z M126.927146,24.0977356 C124.822056,24.0977356 123.547923,22.1588373 123.547923,19.0566001 C123.547923,15.8989658 124.822056,14.0154646 126.927146,14.0154646 C129.032235,14.0154646 130.250972,15.8989658 130.250972,19.0566001 C130.250972,22.2142344 129.032235,24.0977356 126.927146,24.0977356 Z M147.675478,29.692842 L147.675478,1.32953024 L140.030679,1.32953024 L140.030679,29.692842 L147.675478,29.692842 Z M156.180896,30.0252246 C158.95075,30.0252246 161.04199,29.083474 162.329973,26.701399 L162.496164,26.701399 L162.496164,29.692842 L169.642389,29.692842 L169.642389,15.1234065 C169.642389,11.1902128 165.916935,8.14337271 159.837104,8.14337271 C153.480287,8.14337271 150.350351,11.4671983 150.087215,15.3449948 L157.122646,15.3449948 C157.302687,14.0293139 158.272136,13.4060966 159.72631,13.4060966 C161.05584,13.4060966 161.99759,14.0154646 161.99759,15.1234065 L161.99759,15.1788036 C161.99759,16.4113889 160.640362,16.7991685 157.067249,17.0623047 C152.677029,17.380838 149.256259,19.153545 149.256259,23.8207501 C149.256259,28.0586278 152.109209,30.0252246 156.180896,30.0252246 Z M158.673765,25.2056774 C157.371933,25.2056774 156.457881,24.5686109 156.457881,23.3775734 C156.457881,22.2834808 157.23344,21.4386751 159.006147,21.1616896 C160.224883,20.9677998 161.24973,20.7185129 162.052987,20.3861303 L162.052987,22.1588373 C162.052987,24.0977356 160.404924,25.2056774 158.673765,25.2056774 Z M181.36097,29.997526 C183.092129,29.9005811 184.380111,29.5405 185.072575,29.3327609 L183.964633,23.9592429 C183.673799,24.0284892 182.925938,24.1808312 182.468912,24.1808312 C181.471764,24.1808312 181.028587,23.7376545 181.028587,22.851301 L181.028587,13.9600675 L184.684795,13.9600675 L184.684795,8.42035818 L181.028587,8.42035818 L181.028587,3.3238256 L173.383788,3.3238256 L173.383788,8.42035818 L170.669331,8.42035818 L170.669331,13.9600675 L173.383788,13.9600675 L173.383788,23.5714632 C173.328391,28.0309292 176.084397,30.2883608 181.36097,29.997526 Z M195.350748,29.692842 L195.350748,13.9600675 L199.228545,13.9600675 L199.228545,8.42035818 L195.350748,8.42035818 L195.350748,7.47860759 C195.350748,6.48145992 195.738528,5.8166948 197.178852,5.8166948 C197.732823,5.8166948 198.56378,5.92748898 199.117751,6.09368026 L200.225693,0.609368026 C199.339339,0.387779653 197.289647,0 195.350748,0 C190.697392,0 187.705949,2.54826629 187.705949,7.81099015 L187.705949,8.42035818 L184.991492,8.42035818 L184.991492,13.9600675 L187.705949,13.9600675 L187.705949,29.692842 L195.350748,29.692842 Z M210.44846,30.0806217 C217.373096,30.0806217 221.472481,25.6488542 221.472481,19.1119972 C221.472481,12.5751402 217.373096,8.14337271 210.44846,8.14337271 C203.523823,8.14337271 199.424438,12.5751402 199.424438,19.1119972 C199.424438,25.6488542 203.523823,30.0806217 210.44846,30.0806217 Z M210.503857,24.4301181 C208.454164,24.4301181 207.235428,22.394275 207.235428,19.0566001 C207.235428,15.7189252 208.454164,13.683082 210.503857,13.683082 C212.442755,13.683082 213.661491,15.7189252 213.661491,19.0566001 C213.661491,22.394275 212.442755,24.4301181 210.503857,24.4301181 Z M230.919796,29.692842 L230.919796,18.6134233 C230.919796,16.1759512 232.595558,14.5694355 234.85299,14.5694355 C235.642399,14.5694355 236.916532,14.694079 237.678242,14.9572152 L237.678242,8.43420745 C237.068874,8.2541669 236.404109,8.14337271 235.739343,8.14337271 C233.468063,8.14337271 231.695356,9.47290295 230.919796,12.464346 L230.698208,12.464346 L230.698208,8.42035818 L223.274997,8.42035818 L223.274997,29.692842 L230.919796,29.692842 Z M246.516103,29.692842 L246.516103,17.2838931 C246.516103,15.4280905 247.485552,14.2924501 249.064369,14.2924501 C250.643187,14.2924501 251.668033,15.4280905 251.668033,17.2838931 L251.668033,29.692842 L258.980449,29.692842 L258.980449,17.2838931 C258.980449,15.4280905 259.949898,14.2924501 261.528715,14.2924501 C263.107533,14.2924501 264.132379,15.4280905 264.132379,17.2838931 L264.132379,29.692842 L271.777178,29.692842 L271.777178,15.3449948 C271.777178,10.9824737 268.979624,8.14337271 264.907938,8.14337271 C261.750304,8.14337271 259.202038,9.86068261 258.481875,12.464346 L258.260287,12.464346 C257.81711,9.86068261 255.435035,8.14337271 252.443592,8.14337271 C249.493697,8.14337271 247.236265,9.80528551 246.349912,12.464346 L246.128324,12.464346 L246.128324,8.42035818 L238.871304,8.42035818 L238.871304,29.692842 L246.516103,29.692842 Z" id="Crossplatform"></path>
            <path d="M28.1576765,78.692842 L28.1576765,57.8912335 L28.4208127,57.8912335 L42.8379062,78.692842 L46.7710998,78.692842 L46.7710998,50.3295302 L42.5332222,50.3295302 L42.5332222,71.1588373 L42.270086,71.1588373 L27.8391432,50.3295302 L23.878251,50.3295302 L23.878251,78.692842 L28.1576765,78.692842 Z M57.5618488,79.1637173 C61.0795642,79.1637173 63.0600103,77.377161 63.8494189,75.7844946 L64.0156101,75.7844946 L64.0156101,78.692842 L68.0595979,78.692842 L68.0595979,64.5665832 C68.0595979,58.375958 63.1846537,57.1433727 59.805431,57.1433727 C55.9553331,57.1433727 52.4099191,58.6944913 51.0249918,62.5722879 L54.9166376,63.4586414 C55.5260056,61.9490706 57.0771242,60.4948969 59.8608281,60.4948969 C62.5337379,60.4948969 63.9048159,61.8936735 63.9048159,64.303447 L63.9048159,64.4003919 C63.9048159,65.9099627 62.3536973,65.8822642 58.5312979,66.3254409 C54.5011594,66.7963162 50.3740759,67.848861 50.3740759,72.6822574 C50.3740759,76.8647379 53.517861,79.1637173 57.5618488,79.1637173 Z M58.4620515,75.8398917 C56.1215243,75.8398917 54.431913,74.7873469 54.431913,72.7376545 C54.431913,70.5217707 56.3985098,69.7323622 58.7944341,69.4138289 C60.1378136,69.2337883 63.3231465,68.8737072 63.9186652,68.2781885 L63.9186652,71.0203446 C63.9186652,73.5409123 61.9105206,75.8398917 58.4620515,75.8398917 Z M79.9028124,78.9698275 C81.2184934,78.9559782 82.1048469,78.7066913 82.5895714,78.5266507 L81.8417107,75.1058802 C81.5647252,75.1612773 81.0523021,75.2859208 80.387537,75.2859208 C79.0441575,75.2859208 77.8392707,74.842744 77.8392707,72.4468197 L77.8392707,60.7441838 L82.2017918,60.7441838 L82.2017918,57.4203582 L77.8392707,57.4203582 L77.8392707,52.3238256 L73.6983379,52.3238256 L73.6983379,57.4203582 L70.5822515,57.4203582 L70.5822515,60.7441838 L73.6983379,60.7441838 L73.6983379,73.3054747 C73.6844887,77.1694219 76.6343839,79.0390738 79.9028124,78.9698275 Z M87.5634582,54.1380804 C88.9899333,54.1380804 90.1809708,53.0301385 90.1809708,51.6729098 C90.1809708,50.315681 88.9899333,49.1938898 87.5634582,49.1938898 C86.1231338,49.1938898 84.9459455,50.315681 84.9459455,51.6729098 C84.9459455,53.0301385 86.1231338,54.1380804 87.5634582,54.1380804 Z M89.6131506,78.692842 L89.6131506,57.4203582 L85.4722179,57.4203582 L85.4722179,78.692842 L89.6131506,78.692842 Z M104.36457,78.692842 L112.078615,57.4203582 L107.632998,57.4203582 L102.25948,73.7901992 L102.037892,73.7901992 L96.6505243,57.4203582 L92.2049075,57.4203582 L99.9328021,78.692842 L104.36457,78.692842 Z M123.090863,79.1221695 C127.73037,79.1221695 131.012647,76.8370394 131.954398,73.3747211 L128.035054,72.6684081 C127.287193,74.6765527 125.486787,75.701399 123.132411,75.701399 C119.586997,75.701399 117.204922,73.4024196 117.094128,69.3030347 L132.217534,69.3030347 L132.217534,67.8350117 C132.217534,60.148665 127.619575,57.1433727 122.800028,57.1433727 C116.872539,57.1433727 112.967044,61.6582358 112.967044,68.1950928 C112.967044,74.8011962 116.817142,79.1221695 123.090863,79.1221695 Z M128.159697,66.2007975 L117.107977,66.2007975 C117.274168,63.1816559 119.462353,60.5641432 122.827727,60.5641432 C126.040758,60.5641432 128.145848,62.9462182 128.159697,66.2007975 Z M152.815447,79.0944709 C155.377563,79.0944709 158.216664,78.235816 160.127864,76.4492597 L162.039063,78.692842 L166.720118,78.692842 L162.689979,73.8732949 C163.894866,72.2667792 165.044356,69.7462114 165.044356,65.8130178 L161.305052,65.8130178 C161.305052,67.7103683 160.861875,69.3999796 160.127864,70.8126055 L154.449662,64.0264616 L156.38856,62.5999864 C158.742936,60.8826765 160.155562,58.9022304 160.155562,56.2016221 C160.155562,52.8916458 157.482652,50.0248462 153.120131,50.0248462 C148.799158,50.0248462 145.960057,52.8085502 145.960057,56.7278945 C145.960057,59.2623115 147.289587,61.2704562 149.076144,63.4447921 C145.835414,65.6883744 143.633379,67.7796146 143.633379,71.1588373 C143.633379,75.7152482 147.109547,79.0944709 152.815447,79.0944709 Z M152.164531,61.2704562 C150.876549,59.691639 149.865552,58.2374653 149.865552,56.7971409 C149.865552,55.1490774 151.222781,53.4871646 153.217076,53.4871646 C155.128276,53.4871646 156.374711,54.9828861 156.374711,56.3124163 C156.374711,58.0020277 155.446809,59.0268739 153.90954,60.0378708 L152.164531,61.2704562 Z M152.829297,75.5906048 C149.754758,75.5906048 147.746613,73.4993645 147.746613,71.0480431 C147.746613,70.1755389 148.480625,68.4305305 150.696508,66.7963162 L151.444369,66.2423453 L157.801186,73.7071036 C156.333163,74.9258397 154.574305,75.5906048 152.829297,75.5906048 Z M186.500952,78.692842 L190.821925,63.3339979 L191.140459,63.3339979 L195.461432,78.692842 L199.68546,78.692842 L205.931483,57.4203582 L201.652057,57.4203582 L197.511124,72.9730921 L197.303385,72.9730921 L193.148603,57.4203582 L188.869178,57.4203582 L184.686697,73.0423385 L184.478958,73.0423385 L180.310327,57.4203582 L176.030902,57.4203582 L182.290773,78.692842 L186.500952,78.692842 Z M217.068491,79.1221695 C221.707997,79.1221695 224.990275,76.8370394 225.932026,73.3747211 L222.012681,72.6684081 C221.264821,74.6765527 219.464415,75.701399 217.110039,75.701399 C213.564625,75.701399 211.18255,73.4024196 211.071755,69.3030347 L226.195162,69.3030347 L226.195162,67.8350117 C226.195162,60.148665 221.597203,57.1433727 216.777656,57.1433727 C210.850167,57.1433727 206.944672,61.6582358 206.944672,68.1950928 C206.944672,74.8011962 210.79477,79.1221695 217.068491,79.1221695 Z M222.137325,66.2007975 L211.085605,66.2007975 C211.251796,63.1816559 213.439981,60.5641432 216.805355,60.5641432 C220.018386,60.5641432 222.123476,62.9462182 222.137325,66.2007975 Z M240.378912,79.1083202 C245.530841,79.1083202 249.270145,74.9812368 249.270145,68.0981479 C249.270145,61.2012098 245.475444,57.1433727 240.337364,57.1433727 C236.390321,57.1433727 234.963846,59.5531463 234.229834,60.8688272 L233.980547,60.8688272 L233.980547,50.3295302 L229.839615,50.3295302 L229.839615,78.692842 L233.883602,78.692842 L233.883602,75.3828657 L234.229834,75.3828657 C234.977695,76.7400945 236.501115,79.1083202 240.378912,79.1083202 Z M239.45101,75.5767555 C235.891747,75.5767555 233.897452,72.5299154 233.897452,68.0566001 C233.897452,63.6109834 235.83635,60.6610881 239.45101,60.6610881 C243.204163,60.6610881 245.087665,63.8325717 245.087665,68.0566001 C245.087665,72.3221763 243.148766,75.5767555 239.45101,75.5767555 Z" id="Native&amp;web" fill-opacity="0.671711101"></path>
        </g>
        <path d="M672.035324,539 L676.854871,523.156431 L677.076459,523.156431 L681.896006,539 L689.26382,539 L697.628781,510.636688 L689.042231,510.636688 L685.164435,528.14217 L684.942846,528.14217 L680.344888,510.636688 L673.586442,510.636688 L668.988484,528.086773 L668.766895,528.086773 L664.889099,510.636688 L656.302549,510.636688 L664.66751,539 L672.035324,539 Z M705.248186,539 L705.248186,527.920581 C705.248186,525.483109 706.923948,523.876594 709.181379,523.876594 C709.970788,523.876594 711.244921,524.001237 712.006631,524.264373 L712.006631,517.741365 C711.397263,517.561325 710.732498,517.450531 710.067733,517.450531 C707.796452,517.450531 706.023745,518.780061 705.248186,521.771504 L705.026597,521.771504 L705.026597,517.727516 L697.603387,517.727516 L697.603387,539 L705.248186,539 Z M717.022093,515.511632 C719.099484,515.511632 720.789096,513.946665 720.789096,512.021616 C720.789096,510.096567 719.099484,508.531599 717.022093,508.531599 C714.944702,508.531599 713.255091,510.096567 713.255091,512.021616 C713.255091,513.946665 714.944702,515.511632 717.022093,515.511632 Z M720.844493,539 L720.844493,517.727516 L713.199694,517.727516 L713.199694,539 L720.844493,539 Z M732.78453,539.304684 C734.515689,539.207739 735.803671,538.847658 736.496135,538.639919 L735.388193,533.266401 C735.097358,533.335647 734.349498,533.487989 733.892472,533.487989 C732.895324,533.487989 732.452147,533.044812 732.452147,532.158459 L732.452147,523.267226 L736.108355,523.267226 L736.108355,517.727516 L732.452147,517.727516 L732.452147,512.630984 L724.807348,512.630984 L724.807348,517.727516 L722.092891,517.727516 L722.092891,523.267226 L724.807348,523.267226 L724.807348,532.878621 C724.751951,537.338087 727.507957,539.595519 732.78453,539.304684 Z M747.882248,539.38778 C753.782038,539.38778 757.576739,536.562528 758.296901,532.13076 L751.316867,532.13076 C750.873691,533.335647 749.613407,534.014262 748.048439,534.014262 C745.777158,534.014262 744.447628,532.51854 744.447628,530.468848 L744.447628,530.136465 L758.296901,530.136465 L758.296901,528.363758 C758.296901,521.591463 754.142119,517.450531 747.716056,517.450531 C741.123802,517.450531 736.913623,521.826901 736.913623,528.419155 C736.913623,535.302244 741.068405,539.38778 747.882248,539.38778 Z M751.26147,525.926286 L744.447628,525.926286 C744.489176,524.084333 746.012596,522.824049 747.882248,522.824049 C749.779598,522.824049 751.219922,524.098182 751.26147,525.926286 Z M776.803554,539.38778 C783.72819,539.38778 787.827575,534.956012 787.827575,528.419155 C787.827575,521.882298 783.72819,517.450531 776.803554,517.450531 C769.878917,517.450531 765.779532,521.882298 765.779532,528.419155 C765.779532,534.956012 769.878917,539.38778 776.803554,539.38778 Z M776.858951,533.737276 C774.809258,533.737276 773.590522,531.701433 773.590522,528.363758 C773.590522,525.026083 774.809258,522.99024 776.858951,522.99024 C778.797849,522.99024 780.016585,525.026083 780.016585,528.363758 C780.016585,531.701433 778.797849,533.737276 776.858951,533.737276 Z M797.27489,539 L797.27489,527.034228 C797.28874,524.929138 798.479777,523.655005 800.377128,523.655005 C802.302177,523.655005 803.437817,524.929138 803.423968,527.034228 L803.423968,539 L811.068816,539 L811.068816,525.427712 C811.082616,520.802055 808.160419,517.450531 803.645556,517.450531 C800.51562,517.450531 798.0366,519.084745 797.108699,521.771504 L796.887111,521.771504 L796.887111,517.727516 L789.630091,517.727516 L789.630091,539 L797.27489,539 Z M823.78452,539.38778 C830.085939,539.38778 833.949886,535.773119 834.032982,530.136465 L826.942154,530.136465 C826.775963,532.366198 825.571076,533.571085 823.895314,533.571085 C821.887169,533.571085 820.571488,531.853775 820.571488,528.363758 C820.571488,524.873741 821.887169,523.156431 823.895314,523.156431 C825.584925,523.156431 826.734415,524.361318 826.942154,526.591051 L834.032982,526.591051 C833.991434,521.051342 830.044391,517.450531 823.78452,517.450531 C816.859883,517.450531 812.760498,521.882298 812.760498,528.419155 C812.760498,534.956012 816.859883,539.38778 823.78452,539.38778 Z M846.083952,539.38778 C851.983743,539.38778 855.778443,536.562528 856.498606,532.13076 L849.518572,532.13076 C849.075395,533.335647 847.815111,534.014262 846.250143,534.014262 C843.978863,534.014262 842.649332,532.51854 842.649332,530.468848 L842.649332,530.136465 L856.498606,530.136465 L856.498606,528.363758 C856.498606,521.591463 852.343824,517.450531 845.917761,517.450531 C839.325507,517.450531 835.115328,521.826901 835.115328,528.419155 C835.115328,535.302244 839.27011,539.38778 846.083952,539.38778 Z M849.463175,525.926286 L842.649332,525.926286 C842.69088,524.084333 844.2143,522.824049 846.083952,522.824049 C847.981303,522.824049 849.421627,524.098182 849.463175,525.926286 Z" id="Writeonce" fill="#FFFFFF" fill-rule="nonzero"></path>
        <path d="M887.854294,720 L887.854294,710.637891 L890.513355,710.637891 L895.499093,720 L903.864054,720 L898.102757,709.419155 C901.121898,707.964981 902.922304,705.208976 902.922304,701.275782 C902.922304,695.237499 898.698275,691.636688 892.396856,691.636688 L880.154098,691.636688 L880.154098,720 L887.854294,720 Z M890.568752,704.655005 L887.854294,704.655005 L887.854294,697.785766 L890.568752,697.785766 C893.26936,697.785766 894.889725,698.83831 894.889725,701.275782 C894.889725,703.699405 893.26936,704.655005 890.568752,704.655005 Z M912.725035,720.276985 C915.896518,720.276985 918.333991,718.67047 919.261892,715.956012 L919.48348,715.956012 L919.48348,720 L926.7405,720 L926.7405,698.727516 L919.095701,698.727516 L919.095701,710.693288 C919.10955,712.798378 917.890814,714.072511 915.993463,714.072511 C914.068414,714.072511 912.960473,712.798378 912.946623,710.693288 L912.946623,698.727516 L905.301824,698.727516 L905.301824,712.299804 C905.315674,716.95316 908.25172,720.276985 912.725035,720.276985 Z M937.263385,720 L937.263385,708.034228 C937.277234,705.929138 938.468271,704.655005 940.365622,704.655005 C942.290671,704.655005 943.426311,705.929138 943.412462,708.034228 L943.412462,720 L951.05731,720 L951.05731,706.427712 C951.07111,701.802055 948.148913,698.450531 943.63405,698.450531 C940.504115,698.450531 938.025095,700.084745 937.097193,702.771504 L936.875605,702.771504 L936.875605,698.727516 L929.618586,698.727516 L929.618586,720 L937.263385,720 Z M963.57444,720.38778 C969.460381,720.38778 973.795204,717.52098 973.822902,712.964569 C973.795204,709.820784 971.690114,707.99268 967.341442,707.203271 L963.020469,706.427712 C961.400104,706.136877 960.943078,705.555208 960.970777,704.931991 C960.943078,704.045637 962.037171,703.547063 963.352852,703.547063 C964.862423,703.547063 966.122706,704.350321 966.233501,705.652153 L973.268931,705.652153 C973.075042,701.151139 969.335738,698.450531 963.18666,698.450531 C957.106829,698.450531 953.353676,700.9434 953.381375,705.375167 C953.353676,708.726692 955.528012,710.873329 959.862835,711.635039 L963.629837,712.299804 C965.29175,712.604488 966.039611,713.047665 966.067309,713.850923 C966.039611,714.737276 965.028614,715.23585 963.629837,715.23585 C961.898678,715.23585 960.679942,714.487989 960.472203,713.13076 L952.882801,713.13076 C953.298279,717.493282 957.065282,720.38778 963.57444,720.38778 Z M992.264781,720.38778 C998.150722,720.38778 1002.48554,717.52098 1002.51324,712.964569 C1002.48554,709.820784 1000.38046,707.99268 996.031783,707.203271 L991.71081,706.427712 C990.090445,706.136877 989.633419,705.555208 989.661118,704.931991 C989.633419,704.045637 990.727512,703.547063 992.043193,703.547063 C993.552763,703.547063 994.813047,704.350321 994.923841,705.652153 L1001.95927,705.652153 C1001.76538,701.151139 998.026079,698.450531 991.877001,698.450531 C985.79717,698.450531 982.044017,700.9434 982.071716,705.375167 C982.044017,708.726692 984.218353,710.873329 988.553176,711.635039 L992.320178,712.299804 C993.982091,712.604488 994.729952,713.047665 994.75765,713.850923 C994.729952,714.737276 993.718955,715.23585 992.320178,715.23585 C990.589019,715.23585 989.370283,714.487989 989.162544,713.13076 L981.573142,713.13076 C981.98862,717.493282 985.755623,720.38778 992.264781,720.38778 Z M1012.09435,720 L1012.09435,691.636688 L1004.44955,691.636688 L1004.44955,720 L1012.09435,720 Z M1025.22074,720.38778 C1032.14538,720.38778 1036.24476,715.956012 1036.24476,709.419155 C1036.24476,702.882298 1032.14538,698.450531 1025.22074,698.450531 C1018.2961,698.450531 1014.19672,702.882298 1014.19672,709.419155 C1014.19672,715.956012 1018.2961,720.38778 1025.22074,720.38778 Z M1025.27614,714.737276 C1023.22645,714.737276 1022.00771,712.701433 1022.00771,709.363758 C1022.00771,706.026083 1023.22645,703.99024 1025.27614,703.99024 C1027.21504,703.99024 1028.43377,706.026083 1028.43377,709.363758 C1028.43377,712.701433 1027.21504,714.737276 1025.27614,714.737276 Z M1049.98066,720 L1052.97211,708.588199 L1053.1937,708.588199 L1056.18514,720 L1064.43931,720 L1069.75743,698.727516 L1062.11263,698.727516 L1059.78595,711.579642 L1059.61976,711.579642 L1056.79451,698.727516 L1049.3713,698.727516 L1046.65684,711.690436 L1046.49065,711.690436 L1044.05318,698.727516 L1036.40838,698.727516 L1041.7265,720 L1049.98066,720 Z M1072.85717,726.924637 C1073.52193,725.387367 1075.22539,721.675762 1075.51623,717.673322 L1075.62702,716.122203 L1069.86573,716.122203 L1069.86573,717.673322 C1069.86573,721.440324 1068.59159,725.387367 1068.14842,726.924637 L1072.85717,726.924637 Z M908.628428,764 L908.628428,748.267226 L912.506224,748.267226 L912.506224,742.727516 L908.628428,742.727516 L908.628428,741.785766 C908.628428,740.788618 909.016207,740.123853 910.456532,740.123853 C911.010503,740.123853 911.841459,740.234647 912.39543,740.400838 L913.503372,734.916526 C912.617018,734.694938 910.567326,734.307158 908.628428,734.307158 C903.975072,734.307158 900.983629,736.855424 900.983629,742.118148 L900.983629,742.727516 L898.269171,742.727516 L898.269171,748.267226 L900.983629,748.267226 L900.983629,764 L908.628428,764 Z M923.970742,764.38778 C929.870532,764.38778 933.665233,761.562528 934.385395,757.13076 L927.405362,757.13076 C926.962185,758.335647 925.701901,759.014262 924.136933,759.014262 C921.865652,759.014262 920.536122,757.51854 920.536122,755.468848 L920.536122,755.136465 L934.385395,755.136465 L934.385395,753.363758 C934.385395,746.591463 930.230613,742.450531 923.804551,742.450531 C917.212296,742.450531 913.002117,746.826901 913.002117,753.419155 C913.002117,760.302244 917.156899,764.38778 923.970742,764.38778 Z M927.349965,750.926286 L920.536122,750.926286 C920.57767,749.084333 922.10109,747.824049 923.970742,747.824049 C925.868092,747.824049 927.308417,749.098182 927.349965,750.926286 Z M946.680969,764.38778 C952.58076,764.38778 956.37546,761.562528 957.095623,757.13076 L950.115589,757.13076 C949.672412,758.335647 948.412128,759.014262 946.84716,759.014262 C944.57588,759.014262 943.246349,757.51854 943.246349,755.468848 L943.246349,755.136465 L957.095623,755.136465 L957.095623,753.363758 C957.095623,746.591463 952.940841,742.450531 946.514778,742.450531 C939.922524,742.450531 935.712345,746.826901 935.712345,753.419155 C935.712345,760.302244 939.867127,764.38778 946.680969,764.38778 Z M950.060192,750.926286 L943.246349,750.926286 C943.287897,749.084333 944.811317,747.824049 946.680969,747.824049 C948.57832,747.824049 950.018644,749.098182 950.060192,750.926286 Z M966.84293,764 L966.84293,735.636688 L959.198131,735.636688 L959.198131,764 L966.84293,764 Z M979.470747,764.38778 C985.356688,764.38778 989.691511,761.52098 989.719209,756.964569 C989.691511,753.820784 987.586421,751.99268 983.237749,751.203271 L978.916776,750.427712 C977.296411,750.136877 976.839385,749.555208 976.867084,748.931991 C976.839385,748.045637 977.933478,747.547063 979.249159,747.547063 C980.758729,747.547063 982.019013,748.350321 982.129807,749.652153 L989.165238,749.652153 C988.971348,745.151139 985.232045,742.450531 979.082967,742.450531 C973.003136,742.450531 969.249983,744.9434 969.277682,749.375167 C969.249983,752.726692 971.424319,754.873329 975.759142,755.635039 L979.526144,756.299804 C981.188057,756.604488 981.935918,757.047665 981.963616,757.850923 C981.935918,758.737276 980.924921,759.23585 979.526144,759.23585 C977.794985,759.23585 976.576249,758.487989 976.36851,757.13076 L968.779108,757.13076 C969.194586,761.493282 972.961588,764.38778 979.470747,764.38778 Z M1008.65966,764.38778 C1015.5843,764.38778 1019.68368,759.956012 1019.68368,753.419155 C1019.68368,746.882298 1015.5843,742.450531 1008.65966,742.450531 C1001.73502,742.450531 997.63564,746.882298 997.63564,753.419155 C997.63564,759.956012 1001.73502,764.38778 1008.65966,764.38778 Z M1008.71506,758.737276 C1006.66537,758.737276 1005.44663,756.701433 1005.44663,753.363758 C1005.44663,750.026083 1006.66537,747.99024 1008.71506,747.99024 C1010.65396,747.99024 1011.87269,750.026083 1011.87269,753.363758 C1011.87269,756.701433 1010.65396,758.737276 1008.71506,758.737276 Z M1030.64973,764 L1030.64973,748.267226 L1034.52753,748.267226 L1034.52753,742.727516 L1030.64973,742.727516 L1030.64973,741.785766 C1030.64973,740.788618 1031.03751,740.123853 1032.47784,740.123853 C1033.03181,740.123853 1033.86277,740.234647 1034.41674,740.400838 L1035.52468,734.916526 C1034.63833,734.694938 1032.58863,734.307158 1030.64973,734.307158 C1025.99638,734.307158 1023.00494,736.855424 1023.00494,742.118148 L1023.00494,742.727516 L1020.29048,742.727516 L1020.29048,748.267226 L1023.00494,748.267226 L1023.00494,764 L1030.64973,764 Z M1045.32729,764 L1045.32729,748.267226 L1049.20509,748.267226 L1049.20509,742.727516 L1045.32729,742.727516 L1045.32729,741.785766 C1045.32729,740.788618 1045.71507,740.123853 1047.1554,740.123853 C1047.70937,740.123853 1048.54032,740.234647 1049.09429,740.400838 L1050.20224,734.916526 C1049.31588,734.694938 1047.26619,734.307158 1045.32729,734.307158 C1040.67394,734.307158 1037.68249,736.855424 1037.68249,742.118148 L1037.68249,742.727516 L1034.96803,742.727516 L1034.96803,748.267226 L1037.68249,748.267226 L1037.68249,764 L1045.32729,764 Z M1053.08019,764.443177 C1055.11603,764.443177 1056.93028,762.725867 1056.95798,760.56538 C1056.93028,758.460291 1055.11603,756.742981 1053.08019,756.742981 C1050.93355,756.742981 1049.17469,758.460291 1049.20239,760.56538 C1049.17469,762.725867 1050.93355,764.443177 1053.08019,764.443177 Z" id="Runsslow,feelsoff." fill="#00B8FF" fill-rule="nonzero"></path>
        <path d="M438.443739,710.332383 C445.631512,710.332383 449.938636,707.230145 449.966335,701.635039 C449.938636,697.314066 447.362671,694.281075 441.1028,692.937695 L438.776122,692.439121 C436.089363,691.871301 434.884476,691.081893 434.953722,689.724664 C434.967572,688.478229 436.006267,687.564177 438.388342,687.564177 C440.881211,687.564177 442.0584,688.65827 442.210742,690.500223 L449.578555,690.500223 C449.550856,684.932815 445.257582,681.248909 438.388342,681.248909 C431.643746,681.248909 426.879596,684.877418 426.921144,690.278635 C426.907295,694.710402 429.981833,697.175573 435.009119,698.255816 L437.834371,698.865184 C440.992006,699.557648 442.072249,700.347056 442.099947,701.635039 C442.072249,703.033816 440.798116,704.017114 438.332945,704.017114 C435.38305,704.017114 433.638041,702.632187 433.513398,700.028523 L426.200982,700.028523 C426.22868,707.14705 431.048227,710.332383 438.443739,710.332383 Z M459.658271,710 L459.658271,698.034228 C459.67212,695.929138 460.890856,694.655005 462.760508,694.655005 C464.713256,694.655005 465.821198,695.929138 465.807348,698.034228 L465.807348,710 L473.452196,710 L473.452196,696.427712 C473.465997,691.774356 470.529951,688.450531 466.028937,688.450531 C462.885152,688.450531 460.558474,690.057046 459.602874,692.771504 L459.381286,692.771504 L459.381286,681.636688 L452.013472,681.636688 L452.013472,710 L459.658271,710 Z M480.041837,686.511632 C482.119228,686.511632 483.80884,684.946665 483.80884,683.021616 C483.80884,681.096567 482.119228,679.531599 480.041837,679.531599 C477.964446,679.531599 476.274835,681.096567 476.274835,683.021616 C476.274835,684.946665 477.964446,686.511632 480.041837,686.511632 Z M483.864237,710 L483.864237,688.727516 L476.219438,688.727516 L476.219438,710 L483.864237,710 Z M494.386964,717.977181 L494.386964,706.509983 L494.497758,706.509983 C495.384112,708.67047 497.433804,710.276985 500.425247,710.276985 C504.967809,710.276985 508.790208,706.731571 508.790208,699.363758 C508.790208,691.663562 504.690824,688.450531 500.480644,688.450531 C497.32301,688.450531 495.328715,690.278635 494.497758,692.439121 L494.331567,692.439121 L494.331567,688.727516 L486.742165,688.727516 L486.742165,717.977181 L494.386964,717.977181 Z M497.599996,704.404894 C495.494906,704.404894 494.220773,702.465995 494.220773,699.363758 C494.220773,696.206124 495.494906,694.322623 497.599996,694.322623 C499.705085,694.322623 500.923821,696.206124 500.923821,699.363758 C500.923821,702.521392 499.705085,704.404894 497.599996,704.404894 Z M526.622746,710 L526.622746,694.267226 L530.500542,694.267226 L530.500542,688.727516 L526.622746,688.727516 L526.622746,687.785766 C526.622746,686.788618 527.010525,686.123853 528.45085,686.123853 C529.004821,686.123853 529.835777,686.234647 530.389748,686.400838 L531.49769,680.916526 C530.611336,680.694938 528.561644,680.307158 526.622746,680.307158 C521.96939,680.307158 518.977947,682.855424 518.977947,688.118148 L518.977947,688.727516 L516.263489,688.727516 L516.263489,694.267226 L518.977947,694.267226 L518.977947,710 L526.622746,710 Z M542.020457,710.38778 C548.945094,710.38778 553.044479,705.956012 553.044479,699.419155 C553.044479,692.882298 548.945094,688.450531 542.020457,688.450531 C535.09582,688.450531 530.996436,692.882298 530.996436,699.419155 C530.996436,705.956012 535.09582,710.38778 542.020457,710.38778 Z M542.075854,704.737276 C540.026162,704.737276 538.807426,702.701433 538.807426,699.363758 C538.807426,696.026083 540.026162,693.99024 542.075854,693.99024 C544.014752,693.99024 545.233489,696.026083 545.233489,699.363758 C545.233489,702.701433 544.014752,704.737276 542.075854,704.737276 Z M562.791794,710 L562.791794,698.920581 C562.791794,696.483109 564.467556,694.876594 566.724987,694.876594 C567.514396,694.876594 568.788529,695.001237 569.550239,695.264373 L569.550239,688.741365 C568.940871,688.561325 568.276106,688.450531 567.611341,688.450531 C565.34006,688.450531 563.567353,689.780061 562.791794,692.771504 L562.570205,692.771504 L562.570205,688.727516 L555.146995,688.727516 L555.146995,710 L562.791794,710 Z M594.803128,710.38778 C601.727764,710.38778 605.827149,705.956012 605.827149,699.419155 C605.827149,692.882298 601.727764,688.450531 594.803128,688.450531 C587.878491,688.450531 583.779106,692.882298 583.779106,699.419155 C583.779106,705.956012 587.878491,710.38778 594.803128,710.38778 Z M594.858525,704.737276 C592.808832,704.737276 591.590096,702.701433 591.590096,699.363758 C591.590096,696.026083 592.808832,693.99024 594.858525,693.99024 C596.797423,693.99024 598.016159,696.026083 598.016159,699.363758 C598.016159,702.701433 596.797423,704.737276 594.858525,704.737276 Z M615.574464,710 L615.574464,698.034228 C615.588313,695.929138 616.779351,694.655005 618.676701,694.655005 C620.60175,694.655005 621.737391,695.929138 621.723542,698.034228 L621.723542,710 L629.368389,710 L629.368389,696.427712 C629.38219,691.802055 626.459993,688.450531 621.94513,688.450531 C618.815194,688.450531 616.336174,690.084745 615.408273,692.771504 L615.186685,692.771504 L615.186685,688.727516 L607.929665,688.727516 L607.929665,710 L615.574464,710 Z M642.328696,710.38778 C648.228487,710.38778 652.023188,707.562528 652.74335,703.13076 L645.763316,703.13076 C645.320139,704.335647 644.059856,705.014262 642.494888,705.014262 C640.223607,705.014262 638.894077,703.51854 638.894077,701.468848 L638.894077,701.136465 L652.74335,701.136465 L652.74335,699.363758 C652.74335,692.591463 648.588568,688.450531 642.162505,688.450531 C635.570251,688.450531 631.360072,692.826901 631.360072,699.419155 C631.360072,706.302244 635.514854,710.38778 642.328696,710.38778 Z M645.707919,696.926286 L638.894077,696.926286 C638.935624,695.084333 640.459044,693.824049 642.328696,693.824049 C644.226047,693.824049 645.666371,695.098182 645.707919,696.926286 Z M462.702305,761.977181 L462.702305,750.509983 L462.813099,750.509983 C463.699453,752.67047 465.749145,754.276985 468.740588,754.276985 C473.28315,754.276985 477.105549,750.731571 477.105549,743.363758 C477.105549,735.663562 473.006164,732.450531 468.795985,732.450531 C465.638351,732.450531 463.644056,734.278635 462.813099,736.439121 L462.646908,736.439121 L462.646908,732.727516 L455.057506,732.727516 L455.057506,761.977181 L462.702305,761.977181 Z M465.915337,748.404894 C463.810247,748.404894 462.536114,746.465995 462.536114,743.363758 C462.536114,740.206124 463.810247,738.322623 465.915337,738.322623 C468.020426,738.322623 469.239162,740.206124 469.239162,743.363758 C469.239162,746.521392 468.020426,748.404894 465.915337,748.404894 Z M486.963669,754 L486.963669,725.636688 L479.31887,725.636688 L479.31887,754 L486.963669,754 Z M495.769086,754.332383 C498.538941,754.332383 500.630181,753.390632 501.918163,751.008557 L502.084355,751.008557 L502.084355,754 L509.23058,754 L509.23058,739.430564 C509.23058,735.497371 505.505125,732.450531 499.425294,732.450531 C493.068478,732.450531 489.938542,735.774356 489.675406,739.652153 L496.710837,739.652153 C496.890877,738.336472 497.860326,737.713255 499.3145,737.713255 C500.64403,737.713255 501.585781,738.322623 501.585781,739.430564 L501.585781,739.485962 C501.585781,740.718547 500.228552,741.106327 496.65544,741.369463 C492.26522,741.687996 488.844449,743.460703 488.844449,748.127908 C488.844449,752.365786 491.6974,754.332383 495.769086,754.332383 Z M498.261955,749.512835 C496.960124,749.512835 496.046072,748.875769 496.046072,747.684731 C496.046072,746.590639 496.821631,745.745833 498.594338,745.468848 C499.813074,745.274958 500.83792,745.025671 501.641178,744.693288 L501.641178,746.465995 C501.641178,748.404894 499.993114,749.512835 498.261955,749.512835 Z M521.24916,754.304684 C522.98032,754.207739 524.268302,753.847658 524.960766,753.639919 L523.852824,748.266401 C523.561989,748.335647 522.814128,748.487989 522.357102,748.487989 C521.359955,748.487989 520.916778,748.044812 520.916778,747.158459 L520.916778,738.267226 L524.572986,738.267226 L524.572986,732.727516 L520.916778,732.727516 L520.916778,727.630984 L513.271979,727.630984 L513.271979,732.727516 L510.557521,732.727516 L510.557521,738.267226 L513.271979,738.267226 L513.271979,747.878621 C513.216582,752.338087 515.972587,754.595519 521.24916,754.304684 Z M535.538939,754 L535.538939,738.267226 L539.416735,738.267226 L539.416735,732.727516 L535.538939,732.727516 L535.538939,731.785766 C535.538939,730.788618 535.926719,730.123853 537.367043,730.123853 C537.921014,730.123853 538.75197,730.234647 539.305941,730.400838 L540.413883,724.916526 C539.52753,724.694938 537.477837,724.307158 535.538939,724.307158 C530.885583,724.307158 527.89414,726.855424 527.89414,732.118148 L527.89414,732.727516 L525.179682,732.727516 L525.179682,738.267226 L527.89414,738.267226 L527.89414,754 L535.538939,754 Z M550.93665,754.38778 C557.861287,754.38778 561.960672,749.956012 561.960672,743.419155 C561.960672,736.882298 557.861287,732.450531 550.93665,732.450531 C544.012014,732.450531 539.912629,736.882298 539.912629,743.419155 C539.912629,749.956012 544.012014,754.38778 550.93665,754.38778 Z M550.992047,748.737276 C548.942355,748.737276 547.723619,746.701433 547.723619,743.363758 C547.723619,740.026083 548.942355,737.99024 550.992047,737.99024 C552.930946,737.99024 554.149682,740.026083 554.149682,743.363758 C554.149682,746.701433 552.930946,748.737276 550.992047,748.737276 Z M571.707987,754 L571.707987,742.920581 C571.707987,740.483109 573.383749,738.876594 575.641181,738.876594 C576.430589,738.876594 577.704722,739.001237 578.466432,739.264373 L578.466432,732.741365 C577.857064,732.561325 577.192299,732.450531 576.527534,732.450531 C574.256253,732.450531 572.483546,733.780061 571.707987,736.771504 L571.486399,736.771504 L571.486399,732.727516 L564.063188,732.727516 L564.063188,754 L571.707987,754 Z M587.604294,754 L587.604294,741.591051 C587.604294,739.735248 588.573743,738.599608 590.15256,738.599608 C591.731377,738.599608 592.756223,739.735248 592.756223,741.591051 L592.756223,754 L600.06864,754 L600.06864,741.591051 C600.06864,739.735248 601.038089,738.599608 602.616906,738.599608 C604.195723,738.599608 605.220569,739.735248 605.220569,741.591051 L605.220569,754 L612.865368,754 L612.865368,739.652153 C612.865368,735.289632 610.067815,732.450531 605.996129,732.450531 C602.838494,732.450531 600.290228,734.167841 599.570066,736.771504 L599.348478,736.771504 C598.905301,734.167841 596.523226,732.450531 593.531783,732.450531 C590.581887,732.450531 588.324456,734.112444 587.438102,736.771504 L587.216514,736.771504 L587.216514,732.727516 L579.959495,732.727516 L579.959495,754 L587.604294,754 Z M619.787572,754.443177 C621.823415,754.443177 623.63767,752.725867 623.665369,750.56538 C623.63767,748.460291 621.823415,746.742981 619.787572,746.742981 C617.640935,746.742981 615.882077,748.460291 615.909776,750.56538 C615.882077,752.725867 617.640935,754.443177 619.787572,754.443177 Z" id="Shipforoneplatform." fill="#00B8FF" fill-rule="nonzero"></path>
        <path d="M724.858764,822 L724.858764,801.366713 L725.088875,801.366713 L739.279054,822 L748.176679,822 L748.176679,782.727722 L737.514869,782.727722 L737.514869,803.284305 L737.208055,803.284305 L723.247987,782.727722 L714.196954,782.727722 L714.196954,822 L724.858764,822 Z M766.254862,822.536926 C775.84282,822.536926 781.518892,816.400632 781.518892,807.349599 C781.518892,798.298567 775.84282,792.162273 766.254862,792.162273 C756.666904,792.162273 750.990832,798.298567 750.990832,807.349599 C750.990832,816.400632 756.666904,822.536926 766.254862,822.536926 Z M766.331566,814.713152 C763.49353,814.713152 761.806049,811.894292 761.806049,807.272896 C761.806049,802.6515 763.49353,799.83264 766.331566,799.83264 C769.016194,799.83264 770.703675,802.6515 770.703675,807.272896 C770.703675,811.894292 769.016194,814.713152 766.331566,814.713152 Z M797.449311,822.42187 C799.846301,822.287639 801.629661,821.789065 802.588457,821.501426 L801.054384,814.06117 C800.651689,814.15705 799.61619,814.367985 798.983385,814.367985 C797.602719,814.367985 796.989089,813.754356 796.989089,812.527097 L796.989089,800.216158 L802.051531,800.216158 L802.051531,792.545792 L796.989089,792.545792 L796.989089,785.489054 L786.403983,785.489054 L786.403983,792.545792 L782.645503,792.545792 L782.645503,800.216158 L786.403983,800.216158 L786.403983,813.524245 C786.327279,819.69889 790.143287,822.824564 797.449311,822.42187 Z M659.682334,892.045328 L659.682334,876.167669 L659.835742,876.167669 C661.063,879.159112 663.901036,881.383518 668.043034,881.383518 C674.332735,881.383518 679.625288,876.474484 679.625288,866.272896 C679.625288,855.611086 673.949217,851.162273 668.119738,851.162273 C663.747629,851.162273 660.986297,853.693494 659.835742,856.684937 L659.605631,856.684937 L659.605631,851.545792 L649.097228,851.545792 L649.097228,892.045328 L659.682334,892.045328 Z M664.131147,873.25293 C661.216408,873.25293 659.452223,870.568301 659.452223,866.272896 C659.452223,861.900787 661.216408,859.292862 664.131147,859.292862 C667.045886,859.292862 668.733367,861.900787 668.733367,866.272896 C668.733367,870.645005 667.045886,873.25293 664.131147,873.25293 Z M696.936387,881.536926 C706.524346,881.536926 712.200417,875.400632 712.200417,866.349599 C712.200417,857.298567 706.524346,851.162273 696.936387,851.162273 C687.348429,851.162273 681.672358,857.298567 681.672358,866.349599 C681.672358,875.400632 687.348429,881.536926 696.936387,881.536926 Z M697.013091,873.713152 C694.175055,873.713152 692.487575,870.894292 692.487575,866.272896 C692.487575,861.6515 694.175055,858.83264 697.013091,858.83264 C699.697719,858.83264 701.3852,861.6515 701.3852,866.272896 C701.3852,870.894292 699.697719,873.713152 697.013091,873.713152 Z M728.667762,881.536926 C736.817527,881.536926 742.819589,877.567511 742.857941,871.258634 C742.819589,866.905701 739.90485,864.37448 733.883612,863.281453 L727.900726,862.207601 C725.657143,861.804907 725.024338,860.999519 725.06269,860.136602 C725.024338,858.909344 726.539236,858.219011 728.360948,858.219011 C730.451123,858.219011 732.196131,859.331214 732.349538,861.13375 L742.090904,861.13375 C741.822441,854.901577 736.644944,851.162273 728.130837,851.162273 C719.712609,851.162273 714.515936,854.613938 714.554288,860.750232 C714.515936,865.390804 717.526555,868.363071 723.528617,869.417746 L728.744466,870.33819 C731.045576,870.76006 732.081076,871.37369 732.119427,872.485893 C732.081076,873.713152 730.681234,874.403485 728.744466,874.403485 C726.347476,874.403485 724.659996,873.367985 724.372357,871.488745 L713.863955,871.488745 C714.439232,877.529159 719.655081,881.536926 728.667762,881.536926 Z M759.095152,881.536926 C767.244917,881.536926 773.246979,877.567511 773.285331,871.258634 C773.246979,866.905701 770.33224,864.37448 764.311002,863.281453 L758.328116,862.207601 C756.084533,861.804907 755.451728,860.999519 755.49008,860.136602 C755.451728,858.909344 756.966625,858.219011 758.788338,858.219011 C760.878513,858.219011 762.623521,859.331214 762.776928,861.13375 L772.518294,861.13375 C772.249831,854.901577 767.072334,851.162273 758.558227,851.162273 C750.139999,851.162273 744.943326,854.613938 744.981677,860.750232 C744.943326,865.390804 747.953945,868.363071 753.956007,869.417746 L759.171856,870.33819 C761.472966,870.76006 762.508465,871.37369 762.546817,872.485893 C762.508465,873.713152 761.108624,874.403485 759.171856,874.403485 C756.774866,874.403485 755.087386,873.367985 754.799747,871.488745 L744.291344,871.488745 C744.866622,877.529159 750.082471,881.536926 759.095152,881.536926 Z M781.31525,848.477645 C784.191637,848.477645 786.531099,846.310766 786.531099,843.645314 C786.531099,840.979861 784.191637,838.812983 781.31525,838.812983 C778.438862,838.812983 776.0994,840.979861 776.0994,843.645314 C776.0994,846.310766 778.438862,848.477645 781.31525,848.477645 Z M786.607803,881 L786.607803,851.545792 L776.022697,851.545792 L776.022697,881 L786.607803,881 Z M809.441349,881.383518 C815.731049,881.383518 821.023602,876.474484 821.023602,866.272896 C821.023602,855.611086 815.347531,851.162273 809.518052,851.162273 C805.145943,851.162273 802.384611,853.693494 801.234056,856.684937 L801.080649,856.684937 L801.080649,841.727722 L790.495543,841.727722 L790.495543,881 L801.003945,881 L801.003945,876.167669 L801.234056,876.167669 C802.461315,879.159112 805.299351,881.383518 809.441349,881.383518 Z M805.529462,873.25293 C802.614722,873.25293 800.850538,870.568301 800.850538,866.272896 C800.850538,861.900787 802.614722,859.292862 805.529462,859.292862 C808.444201,859.292862 810.131682,861.900787 810.131682,866.272896 C810.131682,870.645005 808.444201,873.25293 805.529462,873.25293 Z M834.729628,881 L834.729628,841.727722 L824.144522,841.727722 L824.144522,881 L834.729628,881 Z M852.88425,881.536926 C861.053191,881.536926 866.307392,877.625039 867.304539,871.488745 L857.639877,871.488745 C857.026248,873.15705 855.28124,874.09667 853.114361,874.09667 C849.969511,874.09667 848.128623,872.025671 848.128623,869.187635 L848.128623,868.727413 L867.304539,868.727413 L867.304539,866.272896 C867.304539,856.895872 861.551764,851.162273 852.654139,851.162273 C843.526402,851.162273 837.696924,857.221863 837.696924,866.349599 C837.696924,875.88003 843.449699,881.536926 852.88425,881.536926 Z M857.563174,862.897934 L848.128623,862.897934 C848.18615,860.347537 850.295501,858.602529 852.88425,858.602529 C855.511351,858.602529 857.505646,860.366713 857.563174,862.897934 Z" id="Notpossible" fill="#FFC800" fill-rule="nonzero"></path>
        <polygon id="*" fill="#FFC800" fill-rule="nonzero" points="542.732105 899.818378 542.118476 893.068456 547.717843 896.980343 550.78599 891.611086 544.649697 888.77305 550.78599 885.935015 547.717843 880.565758 542.118476 884.477645 542.732105 877.727722 536.595811 877.727722 537.209441 884.477645 531.610073 880.565758 528.541926 885.935015 534.67822 888.77305 528.541926 891.611086 531.610073 896.980343 537.209441 893.068456 536.595811 899.818378"></polygon>
        <polygon id="*" fill="#FFC800" fill-rule="nonzero" points="966.732105 894.818378 966.118476 888.068456 971.717843 891.980343 974.78599 886.611086 968.649697 883.77305 974.78599 880.935015 971.717843 875.565758 966.118476 879.477645 966.732105 872.727722 960.595811 872.727722 961.209441 879.477645 955.610073 875.565758 952.541926 880.935015 958.67822 883.77305 952.541926 886.611086 955.610073 891.980343 961.209441 888.068456 960.595811 894.818378"></polygon>
        <polygon id="*" fill="#1CC871" fill-rule="nonzero" points="759.732105 710.818378 759.118476 704.068456 764.717843 707.980343 767.78599 702.611086 761.649697 699.77305 767.78599 696.935015 764.717843 691.565758 759.118476 695.477645 759.732105 688.727722 753.595811 688.727722 754.209441 695.477645 748.610073 691.565758 745.541926 696.935015 751.67822 699.77305 745.541926 702.611086 748.610073 707.980343 754.209441 704.068456 753.595811 710.818378"></polygon>
        <path d="M734.364904,1055.33238 C741.552677,1055.33238 745.859801,1052.23015 745.887499,1046.63504 C745.859801,1042.31407 743.283836,1039.28107 737.023965,1037.9377 L734.697287,1037.43912 C732.010528,1036.8713 730.805641,1036.08189 730.874887,1034.72466 C730.888736,1033.47823 731.927432,1032.56418 734.309507,1032.56418 C736.802376,1032.56418 737.979564,1033.65827 738.131906,1035.50022 L745.49972,1035.50022 C745.472021,1029.93282 741.178747,1026.24891 734.309507,1026.24891 C727.564911,1026.24891 722.800761,1029.87742 722.842309,1035.27863 C722.828459,1039.7104 725.902998,1042.17557 730.930284,1043.25582 L733.755536,1043.86518 C736.91317,1044.55765 737.993414,1045.34706 738.021112,1046.63504 C737.993414,1048.03382 736.71928,1049.01711 734.25411,1049.01711 C731.304215,1049.01711 729.559206,1047.63219 729.434563,1045.02852 L722.122146,1045.02852 C722.149845,1052.14705 726.969392,1055.33238 734.364904,1055.33238 Z M755.579436,1055 L755.579436,1043.03423 C755.593285,1040.92914 756.812021,1039.65501 758.681673,1039.65501 C760.634421,1039.65501 761.742362,1040.92914 761.728513,1043.03423 L761.728513,1055 L769.373361,1055 L769.373361,1041.42771 C769.387161,1036.77436 766.451115,1033.45053 761.950102,1033.45053 C758.806316,1033.45053 756.479639,1035.05705 755.524039,1037.7715 L755.30245,1037.7715 L755.30245,1026.63669 L747.934637,1026.63669 L747.934637,1055 L755.579436,1055 Z M775.963002,1031.51163 C778.040393,1031.51163 779.730005,1029.94666 779.730005,1028.02162 C779.730005,1026.09657 778.040393,1024.5316 775.963002,1024.5316 C773.885611,1024.5316 772.196,1026.09657 772.196,1028.02162 C772.196,1029.94666 773.885611,1031.51163 775.963002,1031.51163 Z M779.785402,1055 L779.785402,1033.72752 L772.140603,1033.72752 L772.140603,1055 L779.785402,1055 Z M790.308129,1062.97718 L790.308129,1051.50998 L790.418923,1051.50998 C791.305277,1053.67047 793.354969,1055.27699 796.346412,1055.27699 C800.888974,1055.27699 804.711373,1051.73157 804.711373,1044.36376 C804.711373,1036.66356 800.611988,1033.45053 796.401809,1033.45053 C793.244175,1033.45053 791.24988,1035.27863 790.418923,1037.43912 L790.252732,1037.43912 L790.252732,1033.72752 L782.66333,1033.72752 L782.66333,1062.97718 L790.308129,1062.97718 Z M793.52116,1049.40489 C791.416071,1049.40489 790.141938,1047.466 790.141938,1044.36376 C790.141938,1041.20612 791.416071,1039.32262 793.52116,1039.32262 C795.62625,1039.32262 796.844986,1041.20612 796.844986,1044.36376 C796.844986,1047.52139 795.62625,1049.40489 793.52116,1049.40489 Z M672.909662,1099.38778 C678.809453,1099.38778 682.604154,1096.56253 683.324316,1092.13076 L676.344282,1092.13076 C675.901105,1093.33565 674.640821,1094.01426 673.075854,1094.01426 C670.804573,1094.01426 669.475043,1092.51854 669.475043,1090.46885 L669.475043,1090.13647 L683.324316,1090.13647 L683.324316,1088.36376 C683.324316,1081.59146 679.169534,1077.45053 672.743471,1077.45053 C666.151217,1077.45053 661.941038,1081.8269 661.941038,1088.41916 C661.941038,1095.30224 666.09582,1099.38778 672.909662,1099.38778 Z M676.288885,1085.92629 L669.475043,1085.92629 C669.51659,1084.08433 671.04001,1082.82405 672.909662,1082.82405 C674.807013,1082.82405 676.247337,1084.09818 676.288885,1085.92629 Z M699.165297,1099 L706.311522,1077.72752 L698.278944,1077.72752 L694.844324,1091.79838 L694.622736,1091.79838 L691.188116,1077.72752 L683.155537,1077.72752 L690.301762,1099 L699.165297,1099 Z M717.000571,1099.38778 C722.900362,1099.38778 726.695063,1096.56253 727.415225,1092.13076 L720.435191,1092.13076 C719.992014,1093.33565 718.731731,1094.01426 717.166763,1094.01426 C714.895482,1094.01426 713.565952,1092.51854 713.565952,1090.46885 L713.565952,1090.13647 L727.415225,1090.13647 L727.415225,1088.36376 C727.415225,1081.59146 723.260443,1077.45053 716.83438,1077.45053 C710.242126,1077.45053 706.031947,1081.8269 706.031947,1088.41916 C706.031947,1095.30224 710.186729,1099.38778 717.000571,1099.38778 Z M720.379794,1085.92629 L713.565952,1085.92629 C713.607499,1084.08433 715.130919,1082.82405 717.000571,1082.82405 C718.897922,1082.82405 720.338246,1084.09818 720.379794,1085.92629 Z M737.162532,1099 L737.162532,1087.92058 C737.162532,1085.48311 738.838294,1083.87659 741.095726,1083.87659 C741.885135,1083.87659 743.159268,1084.00124 743.920978,1084.26437 L743.920978,1077.74137 C743.31161,1077.56132 742.646845,1077.45053 741.982079,1077.45053 C739.710799,1077.45053 737.938092,1078.78006 737.162532,1081.7715 L736.940944,1081.7715 L736.940944,1077.72752 L729.517733,1077.72752 L729.517733,1099 L737.162532,1099 Z M750.732169,1106.97718 C756.077988,1106.97718 758.584707,1104.29042 759.761895,1100.77271 L767.517488,1077.72752 L759.48491,1077.72752 L755.994893,1092.46314 L755.773304,1092.46314 L752.338685,1077.72752 L744.361503,1077.72752 L751.840111,1099.94175 L751.673919,1100.32953 C751.161496,1101.50672 749.679624,1101.46517 747.796123,1100.80041 L746.13421,1106.22932 C747.325248,1106.7002 748.973311,1106.97718 750.732169,1106.97718 Z M778.040354,1099.30468 C779.771513,1099.20774 781.059495,1098.84766 781.751959,1098.63992 L780.644017,1093.2664 C780.353182,1093.33565 779.605322,1093.48799 779.148295,1093.48799 C778.151148,1093.48799 777.707971,1093.04481 777.707971,1092.15846 L777.707971,1083.26723 L781.364179,1083.26723 L781.364179,1077.72752 L777.707971,1077.72752 L777.707971,1072.63098 L770.063172,1072.63098 L770.063172,1077.72752 L767.348715,1077.72752 L767.348715,1083.26723 L770.063172,1083.26723 L770.063172,1092.87862 C770.007775,1097.33809 772.76378,1099.59552 778.040354,1099.30468 Z M791.554578,1099 L791.554578,1087.03423 C791.568427,1084.92914 792.787163,1083.65501 794.656815,1083.65501 C796.609563,1083.65501 797.717504,1084.92914 797.703655,1087.03423 L797.703655,1099 L805.348503,1099 L805.348503,1085.42771 C805.362303,1080.77436 802.426257,1077.45053 797.925244,1077.45053 C794.781459,1077.45053 792.454781,1079.05705 791.499181,1081.7715 L791.277592,1081.7715 L791.277592,1070.63669 L783.909779,1070.63669 L783.909779,1099 L791.554578,1099 Z M811.938144,1075.51163 C814.015535,1075.51163 815.705147,1073.94666 815.705147,1072.02162 C815.705147,1070.09657 814.015535,1068.5316 811.938144,1068.5316 C809.860753,1068.5316 808.171142,1070.09657 808.171142,1072.02162 C808.171142,1073.94666 809.860753,1075.51163 811.938144,1075.51163 Z M815.760544,1099 L815.760544,1077.72752 L808.115745,1077.72752 L808.115745,1099 L815.760544,1099 Z M826.283271,1099 L826.283271,1087.03423 C826.29712,1084.92914 827.488158,1083.65501 829.385508,1083.65501 C831.310557,1083.65501 832.446198,1084.92914 832.432348,1087.03423 L832.432348,1099 L840.077196,1099 L840.077196,1085.42771 C840.090997,1080.80205 837.1688,1077.45053 832.653937,1077.45053 C829.524001,1077.45053 827.044981,1079.08474 826.11708,1081.7715 L825.895491,1081.7715 L825.895491,1077.72752 L818.638472,1077.72752 L818.638472,1099 L826.283271,1099 Z M853.0929,1107.42036 C859.823647,1107.42036 864.283113,1104.34582 864.283113,1098.9446 L864.283113,1077.72752 L856.638314,1077.72752 L856.638314,1081.43912 L856.472123,1081.43912 C855.641167,1079.27863 853.646871,1077.45053 850.489237,1077.45053 C846.279058,1077.45053 842.179673,1080.66356 842.179673,1088.36376 C842.179673,1095.73157 846.002072,1098.72301 850.544634,1098.72301 C853.425283,1098.72301 855.696564,1097.50428 856.52752,1095.34379 L856.749108,1095.34379 L856.749108,1098.9446 C856.749108,1101.45132 855.294935,1102.26843 853.314489,1102.26843 C851.555631,1102.26843 850.267649,1101.74216 850.04606,1100.38493 L842.678247,1100.38493 C842.969081,1104.48431 846.694536,1107.42036 853.0929,1107.42036 Z M853.369886,1093.2941 C851.264796,1093.2941 850.04606,1091.52139 850.04606,1088.36376 C850.04606,1085.20612 851.264796,1083.32262 853.369886,1083.32262 C855.474975,1083.32262 856.749108,1085.20612 856.749108,1088.36376 C856.749108,1091.466 855.474975,1093.2941 853.369886,1093.2941 Z M716.806689,1143.30468 C718.537848,1143.20774 719.82583,1142.84766 720.518294,1142.63992 L719.410352,1137.2664 C719.119517,1137.33565 718.371657,1137.48799 717.914631,1137.48799 C716.917483,1137.48799 716.474306,1137.04481 716.474306,1136.15846 L716.474306,1127.26723 L720.130514,1127.26723 L720.130514,1121.72752 L716.474306,1121.72752 L716.474306,1116.63098 L708.829507,1116.63098 L708.829507,1121.72752 L706.11505,1121.72752 L706.11505,1127.26723 L708.829507,1127.26723 L708.829507,1136.87862 C708.77411,1141.33809 711.530116,1143.59552 716.806689,1143.30468 Z M734.254102,1143 L737.245545,1131.5882 L737.467133,1131.5882 L740.458576,1143 L748.712743,1143 L754.030864,1121.72752 L746.386065,1121.72752 L744.059387,1134.57964 L743.893196,1134.57964 L741.067944,1121.72752 L733.644734,1121.72752 L730.930276,1134.69044 L730.764085,1134.69044 L728.326613,1121.72752 L720.681814,1121.72752 L725.999935,1143 L734.254102,1143 Z M759.180332,1119.51163 C761.257723,1119.51163 762.947334,1117.94666 762.947334,1116.02162 C762.947334,1114.09657 761.257723,1112.5316 759.180332,1112.5316 C757.102941,1112.5316 755.413329,1114.09657 755.413329,1116.02162 C755.413329,1117.94666 757.102941,1119.51163 759.180332,1119.51163 Z M763.002731,1143 L763.002731,1121.72752 L755.357932,1121.72752 L755.357932,1143 L763.002731,1143 Z M776.129122,1143.38778 C782.430541,1143.38778 786.294489,1139.77312 786.377584,1134.13647 L779.286756,1134.13647 C779.120565,1136.3662 777.915678,1137.57108 776.239916,1137.57108 C774.231771,1137.57108 772.91609,1135.85377 772.91609,1132.36376 C772.91609,1128.87374 774.231771,1127.15643 776.239916,1127.15643 C777.929527,1127.15643 779.079017,1128.36132 779.286756,1130.59105 L786.377584,1130.59105 C786.336036,1125.05134 782.388993,1121.45053 776.129122,1121.45053 C769.204485,1121.45053 765.1051,1125.8823 765.1051,1132.41916 C765.1051,1138.95601 769.204485,1143.38778 776.129122,1143.38778 Z M798.728554,1143.38778 C804.628345,1143.38778 808.423046,1140.56253 809.143208,1136.13076 L802.163174,1136.13076 C801.719997,1137.33565 800.459714,1138.01426 798.894746,1138.01426 C796.623465,1138.01426 795.293935,1136.51854 795.293935,1134.46885 L795.293935,1134.13647 L809.143208,1134.13647 L809.143208,1132.36376 C809.143208,1125.59146 804.988426,1121.45053 798.562363,1121.45053 C791.970109,1121.45053 787.75993,1125.8269 787.75993,1132.41916 C787.75993,1139.30224 791.914712,1143.38778 798.728554,1143.38778 Z M802.107777,1129.92629 L795.293935,1129.92629 C795.335482,1128.08433 796.858902,1126.82405 798.728554,1126.82405 C800.625905,1126.82405 802.066229,1128.09818 802.107777,1129.92629 Z M815.400498,1143.44318 C817.436342,1143.44318 819.250596,1141.72587 819.278295,1139.56538 C819.250596,1137.46029 817.436342,1135.74298 815.400498,1135.74298 C813.253861,1135.74298 811.495003,1137.46029 811.522702,1139.56538 C811.495003,1141.72587 813.253861,1143.44318 815.400498,1143.44318 Z" id="Shipeverythingtwice." fill="#00B8FF" fill-rule="nonzero"></path>
        <g id="*-bailout-option" transform="translate(650.791130, 1356.176420)" fill-rule="nonzero">
            <polygon id="*" fill="#FFC800" points="7.38911998 14.0055215 7.256309 8.36709175 12.0737255 11.3130808 12.9671811 9.74349645 7.99280626 7.05105567 12.9671811 4.35861489 12.0737255 2.78903058 7.256309 5.73501959 7.38911998 0.0965898037 5.57806116 0.0965898037 5.71087214 5.73501959 0.893455684 2.78903058 0 4.35861489 4.97437489 7.05105567 0 9.74349645 0.893455684 11.3130808 5.71087214 8.36709175 5.57806116 14.0055215"></polygon>
            <path d="M34.2107521,25.2099388 C38.7625466,25.2099388 41.8413465,21.3584203 41.8413465,15.5992533 C41.8413465,9.88838115 38.7504728,6.02478901 34.1745309,6.02478901 C30.781814,6.02478901 29.2484509,8.14976469 28.5119536,9.8159388 L28.318774,9.8159388 L28.318774,0.0965898037 L26.1575772,0.0965898037 L26.1575772,24.8235795 L28.2463317,24.8235795 L28.2463317,21.3825678 L28.5119536,21.3825678 C29.2605246,23.0849631 30.8301089,25.2099388 34.2107521,25.2099388 Z M33.9451301,23.2419215 C30.3471599,23.2419215 28.2825529,20.0423843 28.2825529,15.5630321 C28.2825529,11.1199012 30.3230125,7.98073253 33.9451301,7.98073253 C37.6638375,7.98073253 39.6801497,11.2889333 39.6801497,15.5630321 C39.6801497,19.8854258 37.6396901,23.2419215 33.9451301,23.2419215 Z M50.9057081,25.2461599 C53.9965818,25.2461599 55.8800829,23.5316909 56.6528014,21.8896643 L56.7856124,21.8896643 L56.7856124,24.8235795 L58.9347355,24.8235795 L58.9347355,12.2306839 C58.9347355,7.256309 55.1918806,6.02478901 52.3545551,6.02478901 C49.5172296,6.02478901 46.5953881,7.14764547 45.3397206,10.1781506 L47.3801802,10.9146478 C48.0563088,9.32091606 49.7345567,7.95658508 52.4149237,7.95658508 C55.2281018,7.95658508 56.7856124,9.50202194 56.7856124,12.0375043 L56.7856124,12.4721584 C56.7856124,13.8727106 55.0469959,13.896858 51.9319747,14.2832172 C47.742392,14.8023874 44.8084767,15.9735388 44.8084767,19.6439513 C44.8084767,23.2177741 47.5371387,25.2461599 50.9057081,25.2461599 Z M51.1954775,23.2781427 C48.7686586,23.2781427 46.9575998,21.9862541 46.9575998,19.7405411 C46.9575998,17.4948282 48.7928061,16.5530776 51.9319747,16.1667184 C53.4532641,15.9856125 56.1577786,15.6475482 56.7856124,15.0317882 L56.7856124,17.7121553 C56.7856124,20.7547341 54.6244155,23.2781427 51.1954775,23.2781427 Z M64.9323486,3.09087372 C65.8137306,3.09087372 66.5502278,2.39059764 66.5502278,1.54543686 C66.5502278,0.700276077 65.8137306,0 64.9323486,0 C64.0509667,0 63.3265431,0.700276077 63.3265431,1.54543686 C63.3265431,2.39059764 64.0509667,3.09087372 64.9323486,3.09087372 Z M65.9948365,24.8235795 L65.9948365,6.27833724 L63.8336396,6.27833724 L63.8336396,24.8235795 L65.9948365,24.8235795 Z M73.0065162,24.8235795 L73.0065162,0.0965898037 L70.8573931,0.0965898037 L70.8573931,24.8235795 L73.0065162,24.8235795 Z M85.0529388,25.2099388 C89.8582816,25.2099388 93.2147773,21.285978 93.2147773,15.6354745 C93.2147773,9.94874978 89.8582816,6.02478901 85.0529388,6.02478901 C80.2475961,6.02478901 76.8911004,9.94874978 76.8911004,15.6354745 C76.8911004,21.285978 80.2475961,25.2099388 85.0529388,25.2099388 Z M85.0529388,23.2419215 C81.2014204,23.2419215 79.0522973,19.788836 79.0522973,15.6354745 C79.0522973,11.4821129 81.2014204,7.98073253 85.0529388,7.98073253 C88.9044573,7.98073253 91.0535804,11.4821129 91.0535804,15.6354745 C91.0535804,19.788836 88.9044573,23.2419215 85.0529388,23.2419215 Z M103.196733,25.0650541 C105.913321,25.0650541 107.845117,23.6524282 108.714426,21.7447796 L108.883458,21.7447796 L108.883458,24.8235795 L111.032581,24.8235795 L111.032581,6.27833724 L108.883458,6.27833724 L108.883458,17.7363027 C108.883458,21.1410933 106.323828,22.9762996 103.812493,22.9762996 C101.132126,22.9762996 99.248625,21.0565772 99.248625,18.1588831 L99.248625,6.27833724 L97.0995018,6.27833724 L97.0995018,18.2916941 C97.0995018,22.6865301 99.6349842,25.0650541 103.196733,25.0650541 Z M121.859692,25.1012752 C122.753148,25.1012752 123.356834,24.9322431 123.767341,24.7752846 L123.308539,22.8314148 C123.006696,22.9159309 122.620337,23.000447 122.052872,23.000447 C120.591951,23.000447 119.251768,22.3122447 119.251768,19.9820156 L119.251768,8.14976469 L123.175728,8.14976469 L123.175728,6.27833724 L119.251768,6.27833724 L119.251768,1.83520627 L117.090571,1.83520627 L117.090571,6.27833724 L114.325688,6.27833724 L114.325688,8.14976469 L117.090571,8.14976469 L117.090571,20.4891121 C117.090571,23.5196172 119.481168,25.1012752 121.859692,25.1012752 Z M143.151503,25.2099388 C147.956846,25.2099388 151.313341,21.285978 151.313341,15.6354745 C151.313341,9.94874978 147.956846,6.02478901 143.151503,6.02478901 C138.34616,6.02478901 134.989664,9.94874978 134.989664,15.6354745 C134.989664,21.285978 138.34616,25.2099388 143.151503,25.2099388 Z M143.151503,23.2419215 C139.299984,23.2419215 137.150861,19.788836 137.150861,15.6354745 C137.150861,11.4821129 139.299984,7.98073253 143.151503,7.98073253 C147.003021,7.98073253 149.152144,11.4821129 149.152144,15.6354745 C149.152144,19.788836 147.003021,23.2419215 143.151503,23.2419215 Z M157.347189,31.7780454 L157.347189,21.3825678 L157.540369,21.3825678 C158.28894,23.0849631 159.882671,25.2099388 163.239167,25.2099388 C167.778888,25.2099388 170.869762,21.3463466 170.869762,15.5992533 C170.869762,9.87630743 167.790962,6.02478901 163.21502,6.02478901 C159.798155,6.02478901 158.301013,8.14976469 157.540369,9.8159388 L157.28682,9.8159388 L157.28682,6.27833724 L155.198066,6.27833724 L155.198066,31.7780454 L157.347189,31.7780454 Z M162.985619,23.2419215 C159.399722,23.2419215 157.323042,20.0423843 157.323042,15.5630321 C157.323042,11.1199012 159.351427,7.98073253 162.985619,7.98073253 C166.7164,7.98073253 168.720638,11.2889333 168.720638,15.5630321 C168.720638,19.8854258 166.668105,23.2419215 162.985619,23.2419215 Z M180.743057,25.1012752 C181.636513,25.1012752 182.240199,24.9322431 182.650706,24.7752846 L182.191904,22.8314148 C181.890061,22.9159309 181.503702,23.000447 180.936237,23.000447 C179.475316,23.000447 178.135133,22.3122447 178.135133,19.9820156 L178.135133,8.14976469 L182.059093,8.14976469 L182.059093,6.27833724 L178.135133,6.27833724 L178.135133,1.83520627 L175.973936,1.83520627 L175.973936,6.27833724 L173.209053,6.27833724 L173.209053,8.14976469 L175.973936,8.14976469 L175.973936,20.4891121 C175.973936,23.5196172 178.364533,25.1012752 180.743057,25.1012752 Z M187.223542,3.09087372 C188.104924,3.09087372 188.841422,2.39059764 188.841422,1.54543686 C188.841422,0.700276077 188.104924,0 187.223542,0 C186.34216,0 185.617737,0.700276077 185.617737,1.54543686 C185.617737,2.39059764 186.34216,3.09087372 187.223542,3.09087372 Z M188.28603,24.8235795 L188.28603,6.27833724 L186.124833,6.27833724 L186.124833,24.8235795 L188.28603,24.8235795 Z M200.356601,25.2099388 C205.161944,25.2099388 208.518439,21.285978 208.518439,15.6354745 C208.518439,9.94874978 205.161944,6.02478901 200.356601,6.02478901 C195.551258,6.02478901 192.194763,9.94874978 192.194763,15.6354745 C192.194763,21.285978 195.551258,25.2099388 200.356601,25.2099388 Z M200.356601,23.2419215 C196.505083,23.2419215 194.355959,19.788836 194.355959,15.6354745 C194.355959,11.4821129 196.505083,7.98073253 200.356601,7.98073253 C204.208119,7.98073253 206.357243,11.4821129 206.357243,15.6354745 C206.357243,19.788836 204.208119,23.2419215 200.356601,23.2419215 Z M214.552287,24.8235795 L214.552287,13.2328031 C214.552287,9.99704468 216.677263,8.00487998 219.599104,8.00487998 C222.448504,8.00487998 224.28371,9.9125286 224.28371,12.9430337 L224.28371,24.8235795 L226.432833,24.8235795 L226.432833,12.8102227 C226.432833,8.41538665 223.885277,6.03686273 220.142422,6.03686273 C217.425834,6.03686273 215.554406,7.29253018 214.685098,9.18810508 L214.491919,9.18810508 L214.491919,6.27833724 L212.403164,6.27833724 L212.403164,24.8235795 L214.552287,24.8235795 Z" id="bailoutoption" fill-opacity="0.726644449" fill="#DCDCDC"></path>
        </g>
        <path d="M455.548305,127 L455.548305,90.9705828 L468.907527,90.9705828 L468.907527,83.3641357 L433.069869,83.3641357 L433.069869,90.9705828 L446.429091,90.9705828 L446.429091,127 L455.548305,127 Z M482.261482,127 L482.261482,108.079762 C482.282788,103.86106 484.860884,101.389498 488.568228,101.389498 C492.254265,101.389498 494.427536,103.754527 494.406229,107.78147 L494.406229,127 L503.482905,127 L503.482905,106.16217 C503.504136,98.4918035 498.987143,93.8469703 492.169039,93.8469703 C487.204607,93.8469703 483.880781,96.1906935 482.389321,100.047183 L482.005803,100.047183 L482.005803,83.3641357 L473.184881,83.3641357 L473.184881,127 L482.261482,127 Z M524.080989,127.639197 C532.177488,127.639197 537.631971,123.697481 538.910365,117.625107 L530.515575,117.071136 C529.599392,119.564006 527.255669,120.863707 524.230135,120.863707 C519.691835,120.863707 516.815448,117.85948 516.815448,112.980274 L516.815448,112.958968 L539.102124,112.958968 L539.102124,110.466098 C539.102124,99.3440665 532.369247,93.8469703 523.718778,93.8469703 C514.088206,93.8469703 507.84538,100.686381 507.84538,110.785697 C507.84538,121.161999 514.00298,127.639197 524.080989,127.639197 Z M530.558188,107.334032 L516.815448,107.334032 C517.007207,103.605381 519.840981,100.622461 523.867924,100.622461 C527.80964,100.622461 530.536881,103.434929 530.558188,107.334032 Z M565.383554,127 L565.383554,108.974638 L583.13193,108.974638 L583.13193,101.368191 L565.383554,101.368191 L565.383554,90.9705828 L585.049522,90.9705828 L585.049522,83.3641357 L556.157807,83.3641357 L556.157807,127 L565.383554,127 Z M598.126428,127 L598.126428,108.484587 C598.126428,104.457644 601.066735,101.68779 605.072371,101.68779 C606.329459,101.68779 608.055291,101.900855 608.907554,102.177841 L608.907554,94.1239558 C608.097904,93.9321966 606.968656,93.8043572 606.052473,93.8043572 C602.387742,93.8043572 599.383516,95.9350146 598.190347,99.9832637 L597.849442,99.9832637 L597.849442,94.2731018 L589.049827,94.2731018 L589.049827,127 L598.126428,127 Z M625.350766,127.639197 C635.27963,127.639197 641.458537,120.8424 641.458537,110.76439 C641.458537,100.622461 635.27963,93.8469703 625.350766,93.8469703 C615.421903,93.8469703 609.242996,100.622461 609.242996,110.76439 C609.242996,120.8424 615.421903,127.639197 625.350766,127.639197 Z M625.39338,120.608028 C620.812466,120.608028 618.468743,116.410633 618.468743,110.700471 C618.468743,104.990309 620.812466,100.771607 625.39338,100.771607 C629.889067,100.771607 632.23279,104.990309 632.23279,110.700471 C632.23279,116.410633 629.889067,120.608028 625.39338,120.608028 Z M654.982906,127 L654.982906,108.079762 C655.004213,103.86106 657.518389,101.389498 661.183119,101.389498 C664.826544,101.389498 667.021121,103.775834 666.999814,107.78147 L666.999814,127 L676.076415,127 L676.076415,106.16217 C676.076415,98.5344167 671.602034,93.8469703 664.78393,93.8469703 C659.926032,93.8469703 656.410447,96.2333066 654.940293,100.047183 L654.556775,100.047183 L654.556775,94.2731018 L645.906306,94.2731018 L645.906306,127 L654.982906,127 Z M694.820901,127.447438 C697.164624,127.362212 698.826537,126.893467 699.74272,126.595175 L698.315179,119.840991 C697.867741,119.926217 696.908945,120.139283 696.056682,120.139283 C694.245623,120.139283 692.988535,119.457473 692.988535,116.943297 L692.988535,101.091206 L699.146135,101.091206 L699.146135,94.2731018 L692.988535,94.2731018 L692.988535,86.4322824 L683.911935,86.4322824 L683.911935,94.2731018 L679.437554,94.2731018 L679.437554,101.091206 L683.911935,101.091206 L683.911935,118.136465 C683.869322,124.549744 688.237169,127.724424 694.820901,127.447438 Z M718.146136,127.639197 C726.242635,127.639197 731.697118,123.697481 732.975512,117.625107 L724.580722,117.071136 C723.664539,119.564006 721.320816,120.863707 718.295282,120.863707 C713.756982,120.863707 710.880594,117.85948 710.880594,112.980274 L710.880594,112.958968 L733.167271,112.958968 L733.167271,110.466098 C733.167271,99.3440665 726.434394,93.8469703 717.783925,93.8469703 C708.153353,93.8469703 701.910527,100.686381 701.910527,110.785697 C701.910527,121.161999 708.068127,127.639197 718.146136,127.639197 Z M724.623335,107.334032 L710.880594,107.334032 C711.072354,103.605381 713.906128,100.622461 717.933071,100.622461 C721.874787,100.622461 724.602028,103.434929 724.623335,107.334032 Z M746.69163,127 L746.69163,108.079762 C746.712936,103.86106 749.227112,101.389498 752.891843,101.389498 C756.535267,101.389498 758.729844,103.775834 758.708538,107.78147 L758.708538,127 L767.785139,127 L767.785139,106.16217 C767.785139,98.5344167 763.310758,93.8469703 756.492654,93.8469703 C751.634755,93.8469703 748.11917,96.2333066 746.649017,100.047183 L746.265498,100.047183 L746.265498,94.2731018 L737.615029,94.2731018 L737.615029,127 L746.69163,127 Z M785.506909,127.532664 C790.790939,127.532664 793.539487,124.485824 794.796575,121.758583 L795.180094,121.758583 L795.180094,127 L804.128855,127 L804.128855,83.3641357 L795.073561,83.3641357 L795.073561,99.770198 L794.796575,99.770198 C793.582101,97.1068762 790.961392,93.8469703 785.485602,93.8469703 C778.305287,93.8469703 772.232913,99.4292928 772.232913,110.679164 C772.232913,121.630743 778.049608,127.532664 785.506909,127.532664 Z M788.383296,120.309736 C783.930222,120.309736 781.501273,116.346713 781.501273,110.636551 C781.501273,104.969002 783.887609,101.069899 788.383296,101.069899 C792.793757,101.069899 795.26532,104.79855 795.26532,110.636551 C795.26532,116.474552 792.751144,120.309736 788.383296,120.309736 Z M843.513854,127 L843.513854,90.9705828 L856.873076,90.9705828 L856.873076,83.3641357 L821.035418,83.3641357 L821.035418,90.9705828 L834.39464,90.9705828 L834.39464,127 L843.513854,127 Z M866.817939,127 L866.817939,108.484587 C866.817939,104.457644 869.758247,101.68779 873.763883,101.68779 C875.020971,101.68779 876.746803,101.900855 877.599066,102.177841 L877.599066,94.1239558 C876.789416,93.9321966 875.660168,93.8043572 874.743985,93.8043572 C871.079254,93.8043572 868.075027,95.9350146 866.881859,99.9832637 L866.540954,99.9832637 L866.540954,94.2731018 L857.741339,94.2731018 L857.741339,127 L866.817939,127 Z M885.349213,90.0544001 C888.055148,90.0544001 890.271032,87.9876624 890.271032,85.45218 C890.271032,82.9380043 888.055148,80.8712665 885.349213,80.8712665 C882.664585,80.8712665 880.448701,82.9380043 880.448701,85.45218 C880.448701,87.9876624 882.664585,90.0544001 885.349213,90.0544001 Z M889.866207,127 L889.866207,94.2731018 L880.789607,94.2731018 L880.789607,127 L889.866207,127 Z M904.71135,127 L904.71135,83.3641357 L895.634749,83.3641357 L895.634749,127 L904.71135,127 Z M925.394494,127.639197 C933.490992,127.639197 938.945475,123.697481 940.22387,117.625107 L931.829079,117.071136 C930.912897,119.564006 928.569174,120.863707 925.54364,120.863707 C921.00534,120.863707 918.128952,117.85948 918.128952,112.980274 L918.128952,112.958968 L940.415629,112.958968 L940.415629,110.466098 C940.415629,99.3440665 933.682751,93.8469703 925.032282,93.8469703 C915.401711,93.8469703 909.158884,100.686381 909.158884,110.785697 C909.158884,121.161999 915.316484,127.639197 925.394494,127.639197 Z M931.871693,107.334032 L918.128952,107.334032 C918.320711,103.605381 921.154486,100.622461 925.181428,100.622461 C929.123145,100.622461 931.850386,103.434929 931.871693,107.334032 Z M953.939988,127 L953.939988,107.355338 C953.939988,103.733221 956.241098,101.325578 959.266631,101.325578 C962.249552,101.325578 964.25237,103.371009 964.25237,106.588302 L964.25237,127 L973.051985,127 L973.051985,107.014433 C973.051985,103.626688 974.990883,101.325578 978.293402,101.325578 C981.191096,101.325578 983.364367,103.136637 983.364367,106.780061 L983.364367,127 L992.419661,127 L992.419661,104.990309 C992.419661,97.8952194 988.200959,93.8469703 982.107279,93.8469703 C977.3133,93.8469703 973.584649,96.2972264 972.242335,100.047183 L971.90143,100.047183 C970.857408,96.2546132 967.512275,93.8469703 963.016588,93.8469703 C958.606127,93.8469703 955.260995,96.1906935 953.897374,100.047183 L953.513856,100.047183 L953.513856,94.2731018 L944.863387,94.2731018 L944.863387,127 L953.939988,127 Z M1007.18002,127 L1007.18002,107.355338 C1007.18002,103.733221 1009.48113,101.325578 1012.50666,101.325578 C1015.48958,101.325578 1017.4924,103.371009 1017.4924,106.588302 L1017.4924,127 L1026.29201,127 L1026.29201,107.014433 C1026.29201,103.626688 1028.23091,101.325578 1031.53343,101.325578 C1034.43113,101.325578 1036.6044,103.136637 1036.6044,106.780061 L1036.6044,127 L1045.65969,127 L1045.65969,104.990309 C1045.65969,97.8952194 1041.44099,93.8469703 1035.34731,93.8469703 C1030.55333,93.8469703 1026.82468,96.2972264 1025.48236,100.047183 L1025.14146,100.047183 C1024.09744,96.2546132 1020.7523,93.8469703 1016.25662,93.8469703 C1011.84616,93.8469703 1008.50102,96.1906935 1007.1374,100.047183 L1006.75389,100.047183 L1006.75389,94.2731018 L998.103416,94.2731018 L998.103416,127 L1007.18002,127 Z M1060.67572,127.617891 C1065.51232,127.617891 1068.64438,125.50854 1070.24238,122.4617 L1070.49806,122.4617 L1070.49806,127 L1079.10591,127 L1079.10591,104.926389 C1079.10591,97.1281828 1072.50087,93.8469703 1065.21403,93.8469703 C1057.37321,93.8469703 1052.21701,97.5969274 1050.95993,103.562768 L1059.35472,104.244579 C1059.97261,102.071308 1061.91151,100.473315 1065.17141,100.473315 C1068.26087,100.473315 1070.02931,102.028695 1070.02931,104.713323 L1070.02931,104.841163 C1070.02931,106.950514 1067.79212,107.227499 1062.10327,107.78147 C1055.62607,108.378054 1049.80937,110.551325 1049.80937,117.85948 C1049.80937,124.336678 1054.4329,127.617891 1060.67572,127.617891 Z M1063.27513,121.353758 C1060.48397,121.353758 1058.48115,120.054057 1058.48115,117.561188 C1058.48115,115.004399 1060.5905,113.747311 1063.78648,113.299873 C1065.768,113.022887 1069.0066,112.554143 1070.09323,111.829719 L1070.09323,115.302691 C1070.09323,118.733049 1067.25946,121.353758 1063.27513,121.353758 Z" id="TheFrontendTrilemma" fill="#FFFFFF" fill-rule="nonzero"></path>
        <path d="M676.25093,190.437495 C683.282099,190.437495 688.422666,186.031295 689.469529,179.703243 L684.594584,179.687618 C683.766469,183.781321 680.329008,186.031295 676.28218,186.031295 C670.797867,186.031295 666.65729,181.828219 666.65729,174.000183 C666.65729,166.234647 670.782242,161.969071 676.297804,161.969071 C680.375883,161.969071 683.797719,164.26592 684.594584,168.406497 L689.469529,168.406497 C688.375791,161.562825 683.016477,157.562871 676.25093,157.562871 C667.969775,157.562871 661.86047,163.765925 661.86047,174.000183 C661.86047,184.234441 667.938525,190.437495 676.25093,190.437495 Z M698.465597,190 L698.465597,175.750163 C698.465597,171.922082 700.887444,169.734607 704.215531,169.734607 C707.434244,169.734607 709.356097,171.781458 709.356097,175.297043 L709.356097,190 L714.027918,190 L714.027918,174.73455 C714.027918,168.750243 710.746706,165.687778 705.809263,165.687778 C702.07493,165.687778 699.824956,167.31276 698.699969,169.90648 L698.403097,169.90648 L698.403097,158.000366 L693.793775,158.000366 L693.793775,190 L698.465597,190 Z M729.305097,190.484369 C736.070645,190.484369 740.492469,185.531301 740.492469,178.109511 C740.492469,170.640847 736.070645,165.687778 729.305097,165.687778 C722.53955,165.687778 718.117725,170.640847 718.117725,178.109511 C718.117725,185.531301 722.53955,190.484369 729.305097,190.484369 Z M729.320722,186.562539 C724.898898,186.562539 722.836421,182.703209 722.836421,178.093886 C722.836421,173.500189 724.898898,169.593984 729.320722,169.593984 C733.711297,169.593984 735.773773,173.500189 735.773773,178.093886 C735.773773,182.703209 733.711297,186.562539 729.320722,186.562539 Z M754.722785,190.484369 C761.488333,190.484369 765.910157,185.531301 765.910157,178.109511 C765.910157,170.640847 761.488333,165.687778 754.722785,165.687778 C747.957238,165.687778 743.535413,170.640847 743.535413,178.109511 C743.535413,185.531301 747.957238,190.484369 754.722785,190.484369 Z M754.73841,186.562539 C750.316586,186.562539 748.254109,182.703209 748.254109,178.093886 C748.254109,173.500189 750.316586,169.593984 754.73841,169.593984 C759.128985,169.593984 761.191461,173.500189 761.191461,178.093886 C761.191461,182.703209 759.128985,186.562539 754.73841,186.562539 Z M778.67174,190.484369 C784.468549,190.484369 788.484128,187.40628 788.484128,183.062579 C788.484128,179.671993 786.327903,177.578267 781.921703,176.562654 L778.109247,175.687664 C775.468652,175.062671 774.32804,174.172056 774.343665,172.547075 C774.32804,170.703346 776.328017,169.390861 778.984237,169.390861 C781.890453,169.390861 783.234188,171.000217 783.781057,172.609574 L788.015383,171.859583 C787.046644,168.12525 784.124803,165.687778 778.937362,165.687778 C773.515549,165.687778 769.671843,168.547121 769.671843,172.797072 C769.671843,176.203283 771.73432,178.468882 776.234268,179.468871 L780.296722,180.359485 C782.609195,180.875104 783.687308,181.906343 783.687308,183.406325 C783.687308,185.265679 781.702955,186.718788 778.640491,186.718788 C775.843648,186.718788 774.046793,185.515676 773.4843,183.156328 L768.968726,183.84382 C769.749967,188.093772 773.281177,190.484369 778.67174,190.484369 Z M802.870659,190.484369 C808.104974,190.484369 811.808056,187.906274 812.870544,184.000069 L808.44872,183.203203 C807.60498,185.468802 805.573753,186.625039 802.917533,186.625039 C798.917579,186.625039 796.23011,184.031318 796.105111,179.406371 L813.167416,179.406371 L813.167416,177.75014 C813.167416,169.078364 807.979975,165.687778 802.542537,165.687778 C795.855114,165.687778 791.448914,170.78147 791.448914,178.156386 C791.448914,185.609425 795.792615,190.484369 802.870659,190.484369 Z M808.589343,175.906411 L796.120736,175.906411 C796.308234,172.5002 798.776956,169.547109 802.573787,169.547109 C806.198746,169.547109 808.573718,172.234578 808.589343,175.906411 Z M848.862163,190 L848.862163,185.859422 L834.456078,185.859422 L834.456078,185.62505 L840.81538,178.968876 C846.674688,173.047069 848.346544,170.218976 848.346544,166.640892 C848.346544,161.500326 844.159092,157.562871 838.127911,157.562871 C832.143604,157.562871 827.768654,161.437827 827.768654,167.28151 L832.377976,167.28151 C832.362352,163.844049 834.581076,161.594075 838.034162,161.594075 C841.284124,161.594075 843.752846,163.594052 843.752846,166.781516 C843.752846,169.609608 842.065366,171.640835 838.627905,175.281418 L827.799904,186.50004 L827.799904,190 L848.862163,190 Z" id="Choose2" fill-opacity="0.610494974" fill="#FFFFFF" fill-rule="nonzero"></path>
        <g id="words-copy-2" transform="translate(1338.564924, 476.977199) rotate(6.000000) translate(-1338.564924, -476.977199) translate(1241.564924, 461.977199)">
            <g id="Group-3" transform="translate(7.000000, 0.000000)" fill-rule="nonzero">
                <g id="Path-9">
                    <use fill="#000000" xlink:href="#path-2"></use>
                    <use fill="url(#linearGradient-1)" style="mix-blend-mode: screen;" xlink:href="#path-2"></use>
                </g>
            </g>
            <g id="Group-2" transform="translate(0.000000, 10.000000)"></g>
        </g>
        <g id="tamagui-icon-copy-2" transform="translate(1330.359440, 555.047167) rotate(6.000000) translate(-1330.359440, -555.047167) translate(1276.359440, 505.547167)">
            <g id="Group" transform="translate(5.625000, 7.500000)" opacity="0.267275856">
                <g id="Rectangle-Copy-8">
                    <path d="M72.3214286,0 L72.3214286,7.1875 L87.75,7.1875 L87.749,14.375 L101.25,14.375 L101.25,35.9375 L87.749,35.937 L87.75,43.125 L72.3214286,43.125 L72.3214286,71.875 L65.089,71.875 L65.0892857,86.25 L14.4642857,86.25 L14.464,71.875 L0,71.875 L0,14.375 L14.464,14.375 L14.4642857,0 L72.3214286,0 Z"></path>
                </g>
            </g>
            <g id="tamagui-icon" transform="translate(53.125000, 49.500000) scale(-1, 1) translate(-53.125000, -49.500000) translate(0.125000, 0.000000)" fill="#FFFFFF">
                <g id="guy">
                    <rect id="Rectangle-Copy" x="36" y="0" width="5" height="5"></rect>
                    <rect id="Rectangle-Copy-2" x="43.2" y="0" width="5" height="5"></rect>
                    <rect id="Rectangle-Copy-3" x="50.4" y="0" width="5" height="5"></rect>
                    <rect id="Rectangle-Copy-28" x="57.6" y="0" width="5" height="5"></rect>
                    <rect id="Rectangle-Copy-4" x="64.8" y="0" width="5" height="5"></rect>
                    <rect id="Rectangle-Copy-5" x="72" y="0" width="5" height="5"></rect>
                    <rect id="Rectangle-Copy-6" x="79.2" y="7.17857143" width="5" height="5"></rect>
                    <rect id="Rectangle-Copy-7" x="86.4" y="14.3571429" width="5" height="5"></rect>
                    <rect id="Rectangle-Copy-8" x="93.6" y="21.5357143" width="5" height="5"></rect>
                    <rect id="Rectangle-Copy-10" x="93.6" y="28.7142857" width="5" height="5"></rect>
                    <rect id="Rectangle-Copy-11" x="93.6" y="35.8928571" width="5" height="5"></rect>
                    <rect id="Rectangle-Copy-12" x="93.6" y="43.0714286" width="5" height="5"></rect>
                    <rect id="Rectangle-Copy-13" x="100.8" y="50.25" width="5" height="5"></rect>
                    <rect id="Rectangle-Copy-14" x="100.8" y="57.4285714" width="5" height="5"></rect>
                    <rect id="Rectangle-Copy-15" x="100.8" y="64.6071429" width="5" height="5"></rect>
                    <rect id="Rectangle-Copy-16" x="93.6" y="71.7857143" width="5" height="5"></rect>
                    <rect id="Rectangle-Copy-17" x="86.4" y="78.9642857" width="5" height="5"></rect>
                    <rect id="Rectangle-Copy-18" x="79.2" y="86.1428571" width="5" height="5"></rect>
                    <rect id="Rectangle-Copy-20" x="72" y="93.3214286" width="5" height="5"></rect>
                    <rect id="Rectangle-Copy-21" x="64.8" y="93.3214286" width="5" height="5"></rect>
                    <rect id="Rectangle-Copy-22" x="57.6" y="86.1428571" width="5" height="5"></rect>
                    <rect id="Rectangle-Copy-23" x="50.4" y="86.1428571" width="5" height="5"></rect>
                    <rect id="Rectangle-Copy-24" x="50.4" y="93.3214286" width="5" height="5"></rect>
                    <rect id="Rectangle-Copy-25" x="43.2" y="93.3214286" width="5" height="5"></rect>
                    <rect id="Rectangle-Copy-26" x="36" y="86.1428571" width="5" height="5"></rect>
                    <rect id="Rectangle-Copy-27" x="36" y="78.9642857" width="5" height="5"></rect>
                    <rect id="Rectangle-Copy-29" x="28.8" y="71.7857143" width="5" height="5"></rect>
                    <rect id="Rectangle-Copy-30" x="21.6" y="57.4285714" width="5" height="5"></rect>
                    <rect id="Rectangle-Copy-32" x="21.6" y="64.6071429" width="5" height="5"></rect>
                    <rect id="Rectangle-Copy-31" x="21.6" y="50.25" width="5" height="5"></rect>
                    <rect id="Rectangle-Copy-33" x="14.4" y="43.0714286" width="5" height="5"></rect>
                    <rect id="Rectangle-Copy-34" x="7.2" y="43.0714286" width="5" height="5"></rect>
                    <rect id="Rectangle-Copy-35" x="0" y="35.8928571" width="5" height="5"></rect>
                    <rect id="Rectangle-Copy-36" x="7.2" y="28.7142857" width="5" height="5"></rect>
                    <rect id="Rectangle-Copy-37" x="14.4" y="28.7142857" width="5" height="5"></rect>
                    <rect id="Rectangle-Copy-38" x="21.6" y="28.7142857" width="5" height="5"></rect>
                    <rect id="Rectangle-Copy-39" x="0" y="21.5357143" width="5" height="5"></rect>
                    <rect id="Rectangle-Copy-44" x="0" y="28.7142857" width="5" height="5"></rect>
                    <rect id="Rectangle-Copy-40" x="7.2" y="14.3571429" width="5" height="5"></rect>
                    <rect id="Rectangle-Copy-40" x="7.2" y="14.3571429" width="5" height="5"></rect>
                    <rect id="Rectangle-Copy-41" x="14.4" y="14.3571429" width="5" height="5"></rect>
                    <rect id="Rectangle-Copy-42" x="28.8" y="7.17857143" width="5" height="5"></rect>
                    <rect id="Rectangle-Copy-45" x="36" y="14.3571429" width="5" height="5"></rect>
                    <rect id="Rectangle-Copy-46" x="57.6" y="21.5357143" width="5" height="5"></rect>
                    <rect id="Rectangle-Copy-47" x="57.6" y="50.25" width="5" height="5"></rect>
                    <rect id="Rectangle-Copy-48" x="57.6" y="57.4285714" width="5" height="5"></rect>
                    <rect id="Rectangle-Copy-49" x="64.8" y="64.6071429" width="5" height="5"></rect>
                    <rect id="Rectangle-Copy-50" x="72" y="57.4285714" width="5" height="5"></rect>
                    <rect id="Rectangle-Copy-51" x="72" y="50.25" width="5" height="5"></rect>
                    <rect id="Rectangle-Copy-43" x="21.6" y="14.3571429" width="5" height="5"></rect>
                </g>
            </g>
        </g>
        <ellipse id="Oval" stroke-opacity="0.287478147" stroke="#878787" stroke-width="6" transform="translate(1337.000000, 511.000000) rotate(6.000000) translate(-1337.000000, -511.000000) " cx="1337" cy="511" rx="133" ry="148"></ellipse>
    </g>
</svg>