<?xml version="1.0" encoding="UTF-8"?>
<svg width="1514px" height="1437px" viewBox="0 0 1514 1437" version="1.1" xmlns="http://www.w3.org/2000/svg" xmlns:xlink="http://www.w3.org/1999/xlink">
    <!-- Generator: Sketch 61 (89581) - https://sketch.com -->
    <title>trilemma</title>
    <desc>Created with Sketch.</desc>
    <defs>
        <linearGradient x1="4.12365141%" y1="41.104932%" x2="98.3700707%" y2="41.104932%" id="linearGradient-1">
            <stop stop-color="#E5494C" offset="0%"></stop>
            <stop stop-color="#F76809" offset="16.1238387%"></stop>
            <stop stop-color="#F5D910" offset="33.1828442%"></stop>
            <stop stop-color="#31A36D" offset="50.5103543%"></stop>
            <stop stop-color="#0090FF" offset="67.8476789%"></stop>
            <stop stop-color="#8E4EC5" offset="84.5102562%"></stop>
            <stop stop-color="#D6409F" offset="100%"></stop>
        </linearGradient>
        <path d="M42.4645833,0 L42.4645833,4 L46.4717262,4 L46.4717262,20 L38.4574405,20 L38.4574405,12 L34.4502976,12 L34.4502976,20 L26.4360119,20 L26.4360119,4 L30.4431548,4 L30.4431548,0 L42.4645833,0 Z M16.139881,0 L16.139881,4 L12.1049107,4 L12.1049107,20 L4.03497024,20 L4.03497024,4 L0,4 L0,0 L16.139881,0 Z M62.5002976,0 L62.5002976,4 L70.5145833,4 L70.5145833,0 L76.5252976,0 L76.5252976,20 L68.5110119,20 L68.5110119,11 L64.503869,11 L64.503869,20 L56.4895833,20 L56.4895833,0 L62.5002976,0 Z M102.293452,0 L102.293452,4 L106.300595,4 L106.300595,20 L98.2863095,20 L98.2863095,12 L94.2791667,12 L94.2791667,20 L86.264881,20 L86.264881,4 L90.2720238,4 L90.2720238,0 L102.293452,0 Z M135.797619,0 L135.797619,4 L123.77619,4 L123.77619,16 L127.783333,16 L127.783333,8 L135.797619,8 L135.797619,16 L131.790476,16 L131.790476,20 L119.769048,20 L119.769048,16 L115.761905,16 L115.761905,4 L119.769048,4 L119.769048,0 L135.797619,0 Z M153.829762,0 L153.829762,16 L157.836905,16 L157.836905,0 L165.85119,0 L165.85119,16 L161.844048,16 L161.844048,20 L149.822619,20 L149.822619,16 L145.815476,16 L145.815476,0 L153.829762,0 Z M187,0 L187,20 L179.208333,20 L179.208333,0 L187,0 Z M98.2863095,4 L94.2791667,4 L94.2791667,8 L98.2863095,8 L98.2863095,4 Z M38.4574405,4 L34.4502976,4 L34.4502976,8 L38.4574405,8 L38.4574405,4 Z" id="path-2"></path>
    </defs>
    <g id="trilemma" stroke="none" stroke-width="1" fill="none" fill-rule="evenodd">
        <rect fill="#000000" x="0" y="0" width="1514" height="1437"></rect>
        <g id="Group-3" transform="translate(179.000000, 228.000000)">
            <circle id="Oval" stroke-opacity="0.287478147" stroke="#878787" stroke-width="6" cx="578" cy="372" r="372"></circle>
            <circle id="Oval-Copy" stroke-opacity="0.287478147" stroke="#878787" stroke-width="6" cx="372" cy="744" r="372"></circle>
            <circle id="Oval-Copy-2" stroke-opacity="0.287478147" stroke="#878787" stroke-width="6" cx="784" cy="744" r="372"></circle>
            <path d="M525.36204,226 C562.283848,226 583.724298,202.777965 583.847303,162.600157 C583.9086,123.466727 563.266791,100.183258 528.556606,100.183258 L492.43344,100.183258 L492.43344,226 L525.36204,226 Z M525.36204,222.068227 L496.365213,222.068227 L496.365213,104.115031 L528.556606,104.115031 C561.178037,104.115031 579.792525,125.924086 579.915962,162.600157 C580.038261,199.890569 560.256527,222.068227 525.36204,222.068227 Z M599.993484,226 L639.556952,166.777666 L640.048424,166.777666 L679.611891,226 L684.526608,226 L642.260046,163.091629 L684.526608,100.183258 L679.611891,100.183258 L640.048424,159.405592 L639.556952,159.405592 L599.993484,100.183258 L595.078768,100.183258 L637.345329,163.091629 L595.078768,226 L599.993484,226 Z" id="DX" fill="#FFFFFF" fill-rule="nonzero"></path>
            <path d="M180.577098,817.965887 C206.440794,817.965887 225.79249,798.982794 225.79249,773.487702 L225.79249,690.183258 L221.860717,690.183258 L221.860717,773.487702 C221.860717,796.771172 204.290606,814.034113 180.577098,814.034113 C156.863591,814.034113 139.29348,796.771172 139.29348,773.487702 L139.29348,690.183258 L135.361132,690.183258 L135.361132,773.487702 C135.238839,798.92136 154.836271,817.965887 180.577098,817.965887 Z M249.065217,816 L288.628685,756.777666 L289.120156,756.777666 L328.683624,816 L333.598341,816 L291.331779,753.091629 L333.598341,690.183258 L328.683624,690.183258 L289.120156,749.405592 L288.628685,749.405592 L249.065217,690.183258 L244.150501,690.183258 L286.417062,753.091629 L244.150501,816 L249.065217,816 Z" id="UX" fill="#FFFFFF" fill-rule="nonzero"></path>
            <path d="M967.811306,824 L967.811306,820.068227 L898.022332,820.068227 L898.022332,819.576755 L935.128442,775.590043 C954.480138,752.675177 960.439231,742.845744 960.439231,728.900236 C960.439231,710.224313 946.432289,696.463107 927.510631,696.463107 C907.851765,696.463107 894.090559,711.391559 894.090559,729.637444 L898.022332,729.637444 C898.022332,713.603181 910.063388,700.39488 927.510631,700.39488 C944.220667,700.39488 956.507458,712.435936 956.507458,728.900236 C956.507458,741.432763 951.10127,750.770724 932.179612,773.132684 L891.878937,820.805434 L891.878937,824 L967.811306,824 Z" id="2" fill="#FFFFFF" fill-rule="nonzero"></path>
            <path d="M162.555999,904 L162.555999,892.920581 L173.58002,892.920581 L173.58002,886.716107 L162.555999,886.716107 L162.555999,881.841163 L174.798757,881.841163 L174.798757,875.636688 L154.855803,875.636688 L154.855803,904 L162.555999,904 Z M185.076992,904.38778 C190.976782,904.38778 194.771483,901.562528 195.491645,897.13076 L188.511612,897.13076 C188.068435,898.335647 186.808151,899.014262 185.243183,899.014262 C182.971902,899.014262 181.642372,897.51854 181.642372,895.468848 L181.642372,895.136465 L195.491645,895.136465 L195.491645,893.363758 C195.491645,886.591463 191.336863,882.450531 184.910801,882.450531 C178.318546,882.450531 174.108367,886.826901 174.108367,893.419155 C174.108367,900.302244 178.263149,904.38778 185.076992,904.38778 Z M188.456215,890.926286 L181.642372,890.926286 C181.68392,889.084333 183.20734,887.824049 185.076992,887.824049 C186.974342,887.824049 188.414667,889.098182 188.456215,890.926286 Z M207.487219,904.38778 C213.38701,904.38778 217.18171,901.562528 217.901873,897.13076 L210.921839,897.13076 C210.478662,898.335647 209.218378,899.014262 207.65341,899.014262 C205.38213,899.014262 204.052599,897.51854 204.052599,895.468848 L204.052599,895.136465 L217.901873,895.136465 L217.901873,893.363758 C217.901873,886.591463 213.747091,882.450531 207.321028,882.450531 C200.728774,882.450531 196.518595,886.826901 196.518595,893.419155 C196.518595,900.302244 200.673377,904.38778 207.487219,904.38778 Z M210.866442,890.926286 L204.052599,890.926286 C204.094147,889.084333 205.617567,887.824049 207.487219,887.824049 C209.38457,887.824049 210.824894,889.098182 210.866442,890.926286 Z M227.34918,904 L227.34918,875.636688 L219.704381,875.636688 L219.704381,904 L227.34918,904 Z M239.676997,904.38778 C245.562938,904.38778 249.897761,901.52098 249.925459,896.964569 C249.897761,893.820784 247.792671,891.99268 243.443999,891.203271 L239.123026,890.427712 C237.502661,890.136877 237.045635,889.555208 237.073334,888.931991 C237.045635,888.045637 238.139728,887.547063 239.455409,887.547063 C240.964979,887.547063 242.225263,888.350321 242.336057,889.652153 L249.371488,889.652153 C249.177598,885.151139 245.438295,882.450531 239.289217,882.450531 C233.209386,882.450531 229.456233,884.9434 229.483932,889.375167 C229.456233,892.726692 231.630569,894.873329 235.965392,895.635039 L239.732394,896.299804 C241.394307,896.604488 242.142168,897.047665 242.169866,897.850923 C242.142168,898.737276 241.131171,899.23585 239.732394,899.23585 C238.001235,899.23585 236.782499,898.487989 236.57476,897.13076 L228.985358,897.13076 C229.400836,901.493282 233.167838,904.38778 239.676997,904.38778 Z M265.662248,904 L265.662248,892.034228 C265.676098,889.929138 266.867135,888.655005 268.764486,888.655005 C270.689534,888.655005 271.825175,889.929138 271.811326,892.034228 L271.811326,904 L279.456174,904 L279.456174,890.427712 C279.469974,885.802055 276.547777,882.450531 272.032914,882.450531 C268.902978,882.450531 266.423958,884.084745 265.496057,886.771504 L265.274469,886.771504 L265.274469,882.727516 L258.017449,882.727516 L258.017449,904 L265.662248,904 Z M285.745815,880.511632 C287.823206,880.511632 289.512817,878.946665 289.512817,877.021616 C289.512817,875.096567 287.823206,873.531599 285.745815,873.531599 C283.668424,873.531599 281.978812,875.096567 281.978812,877.021616 C281.978812,878.946665 283.668424,880.511632 285.745815,880.511632 Z M289.568214,904 L289.568214,882.727516 L281.923415,882.727516 L281.923415,904 L289.568214,904 Z M302.394605,904.38778 C308.696024,904.38778 312.559971,900.773119 312.643067,895.136465 L305.552239,895.136465 C305.386048,897.366198 304.181161,898.571085 302.505399,898.571085 C300.497254,898.571085 299.181573,896.853775 299.181573,893.363758 C299.181573,889.873741 300.497254,888.156431 302.505399,888.156431 C304.19501,888.156431 305.3445,889.361318 305.552239,891.591051 L312.643067,891.591051 C312.601519,886.051342 308.654476,882.450531 302.394605,882.450531 C295.469968,882.450531 291.370583,886.882298 291.370583,893.419155 C291.370583,899.956012 295.469968,904.38778 302.394605,904.38778 Z M324.694037,904.38778 C330.593828,904.38778 334.388529,901.562528 335.108691,897.13076 L328.128657,897.13076 C327.68548,898.335647 326.425196,899.014262 324.860229,899.014262 C322.588948,899.014262 321.259418,897.51854 321.259418,895.468848 L321.259418,895.136465 L335.108691,895.136465 L335.108691,893.363758 C335.108691,886.591463 330.953909,882.450531 324.527846,882.450531 C317.935592,882.450531 313.725413,886.826901 313.725413,893.419155 C313.725413,900.302244 317.880195,904.38778 324.694037,904.38778 Z M328.07326,890.926286 L321.259418,890.926286 C321.300965,889.084333 322.824385,887.824049 324.694037,887.824049 C326.591388,887.824049 328.031712,889.098182 328.07326,890.926286 Z" id="Feelsnice" fill="#FFFFFF" fill-rule="nonzero"></path>
            <g id="Runs-twice-Native-&amp;" transform="translate(814.584055, 872.531599)" fill="#FFFFFF" fill-rule="nonzero">
                <path d="M19.4186766,30.4684013 L19.4186766,21.1062925 L22.0777371,21.1062925 L27.0634755,30.4684013 L35.4284366,30.4684013 L29.6671389,19.8875565 C32.6862805,18.4333828 34.486686,15.6773774 34.486686,11.7441838 C34.486686,5.70590061 30.2626576,2.10508955 23.9612383,2.10508955 L11.7184806,2.10508955 L11.7184806,30.4684013 L19.4186766,30.4684013 Z M22.1331342,15.1234065 L19.4186766,15.1234065 L19.4186766,8.2541669 L22.1331342,8.2541669 C24.8337425,8.2541669 26.4541075,9.30671167 26.4541075,11.7441838 C26.4541075,14.1678066 24.8337425,15.1234065 22.1331342,15.1234065 Z M43.9894172,30.7453868 C47.1609007,30.7453868 49.5983729,29.1388711 50.5262742,26.4244135 L50.7478625,26.4244135 L50.7478625,30.4684013 L58.0048818,30.4684013 L58.0048818,9.19591749 L50.3600829,9.19591749 L50.3600829,21.1616896 C50.3739322,23.2667792 49.1551961,24.5409123 47.2578457,24.5409123 C45.3327967,24.5409123 44.2248548,23.2667792 44.2110055,21.1616896 L44.2110055,9.19591749 L36.5662067,9.19591749 L36.5662067,22.7682053 C36.5800559,27.4215612 39.5161019,30.7453868 43.9894172,30.7453868 Z M68.2277669,30.4684013 L68.2277669,18.5026292 C68.2416162,16.3975396 69.4326537,15.1234065 71.3300041,15.1234065 C73.2550531,15.1234065 74.3906935,16.3975396 74.3768442,18.5026292 L74.3768442,30.4684013 L82.0216921,30.4684013 L82.0216921,16.8961135 C82.0354924,12.2704562 79.1132957,8.91893202 74.5984326,8.91893202 C71.4684969,8.91893202 68.9894769,10.5531463 68.0615756,13.2399053 L67.8399872,13.2399053 L67.8399872,9.19591749 L60.582968,9.19591749 L60.582968,30.4684013 L68.2277669,30.4684013 Z M94.2388223,30.856181 C100.124764,30.856181 104.459586,27.9893814 104.487285,23.4329705 C104.459586,20.2891854 102.354497,18.4610813 98.0058247,17.6716728 L93.6848514,16.8961135 C92.0644864,16.6052787 91.6074604,16.0236092 91.635159,15.4003919 C91.6074604,14.5140384 92.701553,14.0154646 94.017234,14.0154646 C95.5268048,14.0154646 96.7870886,14.8187225 96.8978828,16.1205541 L103.933314,16.1205541 C103.739424,11.6195403 100.00012,8.91893202 93.8510427,8.91893202 C87.7712117,8.91893202 84.0180586,11.4118012 84.0457572,15.8435687 C84.0180586,19.1950928 86.1923945,21.3417302 90.5272171,22.1034402 L94.2942194,22.7682053 C95.9561322,23.0728894 96.703993,23.5160661 96.7316915,24.319324 C96.703993,25.2056774 95.692996,25.7042513 94.2942194,25.7042513 C92.5630603,25.7042513 91.3443242,24.9563905 91.1365851,23.5991617 L83.5471833,23.5991617 C83.9626615,27.9616828 87.7296639,30.856181 94.2388223,30.856181 Z M121.941384,30.7730853 C123.672543,30.6761404 124.960525,30.3160593 125.652989,30.1083202 L124.545047,24.7348022 C124.254212,24.8040485 123.506351,24.9563905 123.049325,24.9563905 C122.052178,24.9563905 121.609001,24.5132138 121.609001,23.6268603 L121.609001,14.7356268 L125.265209,14.7356268 L125.265209,9.19591749 L121.609001,9.19591749 L121.609001,4.0993849 L113.964202,4.0993849 L113.964202,9.19591749 L111.249745,9.19591749 L111.249745,14.7356268 L113.964202,14.7356268 L113.964202,24.3470225 C113.908805,28.8064885 116.66481,31.0639201 121.941384,30.7730853 Z M139.088796,30.4684013 L142.080239,19.0566001 L142.301828,19.0566001 L145.293271,30.4684013 L153.547438,30.4684013 L158.865559,9.19591749 L151.22076,9.19591749 L148.894082,22.0480431 L148.727891,22.0480431 L145.902639,9.19591749 L138.479428,9.19591749 L135.764971,22.1588373 L135.598779,22.1588373 L133.161307,9.19591749 L125.516508,9.19591749 L130.834629,30.4684013 L139.088796,30.4684013 Z M163.715027,6.98003376 C165.792418,6.98003376 167.482029,5.41506587 167.482029,3.49001688 C167.482029,1.56496789 165.792418,0 163.715027,0 C161.637636,0 159.948024,1.56496789 159.948024,3.49001688 C159.948024,5.41506587 161.637636,6.98003376 163.715027,6.98003376 Z M167.537426,30.4684013 L167.537426,9.19591749 L159.892627,9.19591749 L159.892627,30.4684013 L167.537426,30.4684013 Z M180.363817,30.856181 C186.665236,30.856181 190.529183,27.2415206 190.612279,21.6048664 L183.521451,21.6048664 C183.35526,23.8345994 182.150373,25.0394862 180.474611,25.0394862 C178.466466,25.0394862 177.150785,23.3221763 177.150785,19.8321594 C177.150785,16.3421425 178.466466,14.6248326 180.474611,14.6248326 C182.164222,14.6248326 183.313712,15.8297194 183.521451,18.0594524 L190.612279,18.0594524 C190.570731,12.5197431 186.623688,8.91893202 180.363817,8.91893202 C173.43918,8.91893202 169.339795,13.3506995 169.339795,19.8875565 C169.339795,26.4244135 173.43918,30.856181 180.363817,30.856181 Z M202.663249,30.856181 C208.56304,30.856181 212.35774,28.0309292 213.077903,23.5991617 L206.097869,23.5991617 C205.654692,24.8040485 204.394408,25.4826629 202.82944,25.4826629 C200.55816,25.4826629 199.228629,23.9869414 199.228629,21.9372489 L199.228629,21.6048664 L213.077903,21.6048664 L213.077903,19.8321594 C213.077903,13.0598647 208.923121,8.91893202 202.497058,8.91893202 C195.904804,8.91893202 191.694625,13.2953024 191.694625,19.8875565 C191.694625,26.7706453 195.849407,30.856181 202.663249,30.856181 Z M206.042472,17.3946873 L199.228629,17.3946873 C199.270177,15.5527339 200.793597,14.2924501 202.663249,14.2924501 C204.5606,14.2924501 206.000924,15.5665832 206.042472,17.3946873 Z" id="Runstwice"></path>
                <path d="M4.27942546,79.4684013 L4.27942546,58.6667928 L4.54256165,58.6667928 L18.9596552,79.4684013 L22.8928488,79.4684013 L22.8928488,51.1050895 L18.6549712,51.1050895 L18.6549712,71.9343966 L18.391835,71.9343966 L3.96089217,51.1050895 L-1.70530257e-13,51.1050895 L-1.70530257e-13,79.4684013 L4.27942546,79.4684013 Z M33.6835977,79.9392766 C37.2013132,79.9392766 39.1817592,78.1527203 39.9711678,76.5600539 L40.1373591,76.5600539 L40.1373591,79.4684013 L44.1813469,79.4684013 L44.1813469,65.3421425 C44.1813469,59.1515173 39.3064027,57.918932 35.92718,57.918932 C32.077082,57.918932 28.5316681,59.4700506 27.1467407,63.3478472 L31.0383865,64.2342007 C31.6477546,62.7246299 33.1988732,61.2704562 35.9825771,61.2704562 C38.6554869,61.2704562 40.0265649,62.6692328 40.0265649,65.0790063 L40.0265649,65.1759512 C40.0265649,66.685522 38.4754463,66.6578235 34.6530469,67.1010002 C30.6229083,67.5718755 26.4958249,68.6244203 26.4958249,73.4578167 C26.4958249,77.6402972 29.6396099,79.9392766 33.6835977,79.9392766 Z M34.5838005,76.615451 C32.2432733,76.615451 30.553662,75.5629062 30.553662,73.5132138 C30.553662,71.2973301 32.5202588,70.5079215 34.9161831,70.1893882 C36.2595626,70.0093476 39.4448954,69.6492665 40.0404142,69.0537478 L40.0404142,71.7959039 C40.0404142,74.3164716 38.0322696,76.615451 34.5838005,76.615451 Z M56.0245614,79.7453868 C57.3402423,79.7315375 58.2265958,79.4822506 58.7113204,79.30221 L57.9634596,75.8814395 C57.6864742,75.9368366 57.174051,76.0614801 56.5092859,76.0614801 C55.1659064,76.0614801 53.9610196,75.6183033 53.9610196,73.222379 L53.9610196,61.5197431 L58.3235407,61.5197431 L58.3235407,58.1959175 L53.9610196,58.1959175 L53.9610196,53.0993849 L49.8200869,53.0993849 L49.8200869,58.1959175 L46.7040004,58.1959175 L46.7040004,61.5197431 L49.8200869,61.5197431 L49.8200869,74.081034 C49.8062376,77.9449812 52.7561329,79.8146331 56.0245614,79.7453868 Z M63.6852071,54.9136397 C65.1116823,54.9136397 66.3027198,53.8056978 66.3027198,52.4484691 C66.3027198,51.0912403 65.1116823,49.9694491 63.6852071,49.9694491 C62.2448827,49.9694491 61.0676945,51.0912403 61.0676945,52.4484691 C61.0676945,53.8056978 62.2448827,54.9136397 63.6852071,54.9136397 Z M65.7348996,79.4684013 L65.7348996,58.1959175 L61.5939669,58.1959175 L61.5939669,79.4684013 L65.7348996,79.4684013 Z M80.4863185,79.4684013 L88.2003637,58.1959175 L83.754747,58.1959175 L78.3812289,74.5657586 L78.1596406,74.5657586 L72.7722732,58.1959175 L68.3266565,58.1959175 L76.054551,79.4684013 L80.4863185,79.4684013 Z M99.2126119,79.8977288 C103.852119,79.8977288 107.134396,77.6125987 108.076147,74.1502804 L104.156803,73.4439674 C103.408942,75.452112 101.608536,76.4769583 99.2541598,76.4769583 C95.7087458,76.4769583 93.3266708,74.1779789 93.2158766,70.078594 L108.339283,70.078594 L108.339283,68.610571 C108.339283,60.9242243 103.741324,57.918932 98.9217772,57.918932 C92.9942882,57.918932 89.0887931,62.4337951 89.0887931,68.9706521 C89.0887931,75.5767555 92.9388911,79.8977288 99.2126119,79.8977288 Z M104.281446,66.9763568 L93.2297259,66.9763568 C93.3959172,63.9572152 95.5841023,61.3397025 98.9494758,61.3397025 C102.162507,61.3397025 104.267597,63.7217775 104.281446,66.9763568 Z M128.937196,79.8700302 C131.499312,79.8700302 134.338413,79.0113753 136.249613,77.224819 L138.160812,79.4684013 L142.841867,79.4684013 L138.811728,74.6488542 C140.016615,73.0423385 141.166105,70.5217707 141.166105,66.5885771 L137.426801,66.5885771 C137.426801,68.4859276 136.983624,70.1755389 136.249613,71.5881648 L130.571411,64.8020209 L132.510309,63.3755457 C134.864685,61.6582358 136.277311,59.6777897 136.277311,56.9771814 C136.277311,53.6672051 133.604401,50.8004055 129.24188,50.8004055 C124.920907,50.8004055 122.081806,53.5841095 122.081806,57.5034538 C122.081806,60.0378708 123.411336,62.0460155 125.197892,64.2203514 C121.957163,66.4639337 119.755128,68.5551739 119.755128,71.9343966 C119.755128,76.4908075 123.231296,79.8700302 128.937196,79.8700302 Z M128.28628,62.0460155 C126.998298,60.4671983 125.987301,59.0130246 125.987301,57.5727002 C125.987301,55.9246367 127.34453,54.2627239 129.338825,54.2627239 C131.250025,54.2627239 132.49646,55.7584454 132.49646,57.0879756 C132.49646,58.777587 131.568558,59.8024332 130.031289,60.8134301 L128.28628,62.0460155 Z M128.951046,76.3661641 C125.876507,76.3661641 123.868362,74.2749238 123.868362,71.8236024 C123.868362,70.9510982 124.602374,69.2060898 126.818257,67.5718755 L127.566118,67.0179046 L133.922935,74.4826629 C132.454912,75.701399 130.696054,76.3661641 128.951046,76.3661641 Z M162.622701,79.4684013 L166.943674,64.1095572 L167.262208,64.1095572 L171.583181,79.4684013 L175.807209,79.4684013 L182.053232,58.1959175 L177.773806,58.1959175 L173.632873,73.7486514 L173.425134,73.7486514 L169.270352,58.1959175 L164.990927,58.1959175 L160.808446,73.8178978 L160.600707,73.8178978 L156.432076,58.1959175 L152.152651,58.1959175 L158.412522,79.4684013 L162.622701,79.4684013 Z M193.19024,79.8977288 C197.829746,79.8977288 201.112024,77.6125987 202.053775,74.1502804 L198.13443,73.4439674 C197.38657,75.452112 195.586164,76.4769583 193.231788,76.4769583 C189.686374,76.4769583 187.304299,74.1779789 187.193504,70.078594 L202.316911,70.078594 L202.316911,68.610571 C202.316911,60.9242243 197.718952,57.918932 192.899405,57.918932 C186.971916,57.918932 183.066421,62.4337951 183.066421,68.9706521 C183.066421,75.5767555 186.916519,79.8977288 193.19024,79.8977288 Z M198.259074,66.9763568 L187.207354,66.9763568 C187.373545,63.9572152 189.56173,61.3397025 192.927104,61.3397025 C196.140135,61.3397025 198.245225,63.7217775 198.259074,66.9763568 Z M216.500661,79.8838795 C221.65259,79.8838795 225.391894,75.7567961 225.391894,68.8737072 C225.391894,61.9767691 221.597193,57.918932 216.459113,57.918932 C212.51207,57.918932 211.085595,60.3287056 210.351583,61.6443865 L210.102296,61.6443865 L210.102296,51.1050895 L205.961364,51.1050895 L205.961364,79.4684013 L210.005351,79.4684013 L210.005351,76.158425 L210.351583,76.158425 C211.099444,77.5156538 212.622864,79.8838795 216.500661,79.8838795 Z M215.572759,76.3523148 C212.013496,76.3523148 210.019201,73.3054747 210.019201,68.8321594 C210.019201,64.3865427 211.958099,61.4366474 215.572759,61.4366474 C219.325912,61.4366474 221.209414,64.608131 221.209414,68.8321594 C221.209414,73.0977356 219.270515,76.3523148 215.572759,76.3523148 Z" id="Native&amp;web" fill-opacity="0.671711101"></path>
            </g>
            <path d="M493.035324,304 L497.854871,288.156431 L498.076459,288.156431 L502.896006,304 L510.26382,304 L518.628781,275.636688 L510.042231,275.636688 L506.164435,293.14217 L505.942846,293.14217 L501.344888,275.636688 L494.586442,275.636688 L489.988484,293.086773 L489.766895,293.086773 L485.889099,275.636688 L477.302549,275.636688 L485.66751,304 L493.035324,304 Z M526.248186,304 L526.248186,292.920581 C526.248186,290.483109 527.923948,288.876594 530.181379,288.876594 C530.970788,288.876594 532.244921,289.001237 533.006631,289.264373 L533.006631,282.741365 C532.397263,282.561325 531.732498,282.450531 531.067733,282.450531 C528.796452,282.450531 527.023745,283.780061 526.248186,286.771504 L526.026597,286.771504 L526.026597,282.727516 L518.603387,282.727516 L518.603387,304 L526.248186,304 Z M538.022093,280.511632 C540.099484,280.511632 541.789096,278.946665 541.789096,277.021616 C541.789096,275.096567 540.099484,273.531599 538.022093,273.531599 C535.944702,273.531599 534.255091,275.096567 534.255091,277.021616 C534.255091,278.946665 535.944702,280.511632 538.022093,280.511632 Z M541.844493,304 L541.844493,282.727516 L534.199694,282.727516 L534.199694,304 L541.844493,304 Z M553.78453,304.304684 C555.515689,304.207739 556.803671,303.847658 557.496135,303.639919 L556.388193,298.266401 C556.097358,298.335647 555.349498,298.487989 554.892472,298.487989 C553.895324,298.487989 553.452147,298.044812 553.452147,297.158459 L553.452147,288.267226 L557.108355,288.267226 L557.108355,282.727516 L553.452147,282.727516 L553.452147,277.630984 L545.807348,277.630984 L545.807348,282.727516 L543.092891,282.727516 L543.092891,288.267226 L545.807348,288.267226 L545.807348,297.878621 C545.751951,302.338087 548.507957,304.595519 553.78453,304.304684 Z M568.882248,304.38778 C574.782038,304.38778 578.576739,301.562528 579.296901,297.13076 L572.316867,297.13076 C571.873691,298.335647 570.613407,299.014262 569.048439,299.014262 C566.777158,299.014262 565.447628,297.51854 565.447628,295.468848 L565.447628,295.136465 L579.296901,295.136465 L579.296901,293.363758 C579.296901,286.591463 575.142119,282.450531 568.716056,282.450531 C562.123802,282.450531 557.913623,286.826901 557.913623,293.419155 C557.913623,300.302244 562.068405,304.38778 568.882248,304.38778 Z M572.26147,290.926286 L565.447628,290.926286 C565.489176,289.084333 567.012596,287.824049 568.882248,287.824049 C570.779598,287.824049 572.219922,289.098182 572.26147,290.926286 Z M597.803554,304.38778 C604.72819,304.38778 608.827575,299.956012 608.827575,293.419155 C608.827575,286.882298 604.72819,282.450531 597.803554,282.450531 C590.878917,282.450531 586.779532,286.882298 586.779532,293.419155 C586.779532,299.956012 590.878917,304.38778 597.803554,304.38778 Z M597.858951,298.737276 C595.809258,298.737276 594.590522,296.701433 594.590522,293.363758 C594.590522,290.026083 595.809258,287.99024 597.858951,287.99024 C599.797849,287.99024 601.016585,290.026083 601.016585,293.363758 C601.016585,296.701433 599.797849,298.737276 597.858951,298.737276 Z M618.27489,304 L618.27489,292.034228 C618.28874,289.929138 619.479777,288.655005 621.377128,288.655005 C623.302177,288.655005 624.437817,289.929138 624.423968,292.034228 L624.423968,304 L632.068816,304 L632.068816,290.427712 C632.082616,285.802055 629.160419,282.450531 624.645556,282.450531 C621.51562,282.450531 619.0366,284.084745 618.108699,286.771504 L617.887111,286.771504 L617.887111,282.727516 L610.630091,282.727516 L610.630091,304 L618.27489,304 Z M644.78452,304.38778 C651.085939,304.38778 654.949886,300.773119 655.032982,295.136465 L647.942154,295.136465 C647.775963,297.366198 646.571076,298.571085 644.895314,298.571085 C642.887169,298.571085 641.571488,296.853775 641.571488,293.363758 C641.571488,289.873741 642.887169,288.156431 644.895314,288.156431 C646.584925,288.156431 647.734415,289.361318 647.942154,291.591051 L655.032982,291.591051 C654.991434,286.051342 651.044391,282.450531 644.78452,282.450531 C637.859883,282.450531 633.760498,286.882298 633.760498,293.419155 C633.760498,299.956012 637.859883,304.38778 644.78452,304.38778 Z M667.083952,304.38778 C672.983743,304.38778 676.778443,301.562528 677.498606,297.13076 L670.518572,297.13076 C670.075395,298.335647 668.815111,299.014262 667.250143,299.014262 C664.978863,299.014262 663.649332,297.51854 663.649332,295.468848 L663.649332,295.136465 L677.498606,295.136465 L677.498606,293.363758 C677.498606,286.591463 673.343824,282.450531 666.917761,282.450531 C660.325507,282.450531 656.115328,286.826901 656.115328,293.419155 C656.115328,300.302244 660.27011,304.38778 667.083952,304.38778 Z M670.463175,290.926286 L663.649332,290.926286 C663.69088,289.084333 665.2143,287.824049 667.083952,287.824049 C668.981303,287.824049 670.421627,289.098182 670.463175,290.926286 Z" id="Writeonce" fill="#FFFFFF" fill-rule="nonzero"></path>
            <path d="M708.854294,492 L708.854294,482.637891 L711.513355,482.637891 L716.499093,492 L724.864054,492 L719.102757,481.419155 C722.121898,479.964981 723.922304,477.208976 723.922304,473.275782 C723.922304,467.237499 719.698275,463.636688 713.396856,463.636688 L701.154098,463.636688 L701.154098,492 L708.854294,492 Z M711.568752,476.655005 L708.854294,476.655005 L708.854294,469.785766 L711.568752,469.785766 C714.26936,469.785766 715.889725,470.83831 715.889725,473.275782 C715.889725,475.699405 714.26936,476.655005 711.568752,476.655005 Z M733.725035,492.276985 C736.896518,492.276985 739.333991,490.67047 740.261892,487.956012 L740.48348,487.956012 L740.48348,492 L747.7405,492 L747.7405,470.727516 L740.095701,470.727516 L740.095701,482.693288 C740.10955,484.798378 738.890814,486.072511 736.993463,486.072511 C735.068414,486.072511 733.960473,484.798378 733.946623,482.693288 L733.946623,470.727516 L726.301824,470.727516 L726.301824,484.299804 C726.315674,488.95316 729.25172,492.276985 733.725035,492.276985 Z M758.263385,492 L758.263385,480.034228 C758.277234,477.929138 759.468271,476.655005 761.365622,476.655005 C763.290671,476.655005 764.426311,477.929138 764.412462,480.034228 L764.412462,492 L772.05731,492 L772.05731,478.427712 C772.07111,473.802055 769.148913,470.450531 764.63405,470.450531 C761.504115,470.450531 759.025095,472.084745 758.097193,474.771504 L757.875605,474.771504 L757.875605,470.727516 L750.618586,470.727516 L750.618586,492 L758.263385,492 Z M784.57444,492.38778 C790.460381,492.38778 794.795204,489.52098 794.822902,484.964569 C794.795204,481.820784 792.690114,479.99268 788.341442,479.203271 L784.020469,478.427712 C782.400104,478.136877 781.943078,477.555208 781.970777,476.931991 C781.943078,476.045637 783.037171,475.547063 784.352852,475.547063 C785.862423,475.547063 787.122706,476.350321 787.233501,477.652153 L794.268931,477.652153 C794.075042,473.151139 790.335738,470.450531 784.18666,470.450531 C778.106829,470.450531 774.353676,472.9434 774.381375,477.375167 C774.353676,480.726692 776.528012,482.873329 780.862835,483.635039 L784.629837,484.299804 C786.29175,484.604488 787.039611,485.047665 787.067309,485.850923 C787.039611,486.737276 786.028614,487.23585 784.629837,487.23585 C782.898678,487.23585 781.679942,486.487989 781.472203,485.13076 L773.882801,485.13076 C774.298279,489.493282 778.065282,492.38778 784.57444,492.38778 Z M813.264781,492.38778 C819.150722,492.38778 823.485545,489.52098 823.513243,484.964569 C823.485545,481.820784 821.380455,479.99268 817.031783,479.203271 L812.71081,478.427712 C811.090445,478.136877 810.633419,477.555208 810.661118,476.931991 C810.633419,476.045637 811.727512,475.547063 813.043193,475.547063 C814.552763,475.547063 815.813047,476.350321 815.923841,477.652153 L822.959272,477.652153 C822.765383,473.151139 819.026079,470.450531 812.877001,470.450531 C806.79717,470.450531 803.044017,472.9434 803.071716,477.375167 C803.044017,480.726692 805.218353,482.873329 809.553176,483.635039 L813.320178,484.299804 C814.982091,484.604488 815.729952,485.047665 815.75765,485.850923 C815.729952,486.737276 814.718955,487.23585 813.320178,487.23585 C811.589019,487.23585 810.370283,486.487989 810.162544,485.13076 L802.573142,485.13076 C802.98862,489.493282 806.755623,492.38778 813.264781,492.38778 Z M833.094351,492 L833.094351,463.636688 L825.449552,463.636688 L825.449552,492 L833.094351,492 Z M846.220741,492.38778 C853.145378,492.38778 857.244763,487.956012 857.244763,481.419155 C857.244763,474.882298 853.145378,470.450531 846.220741,470.450531 C839.296105,470.450531 835.19672,474.882298 835.19672,481.419155 C835.19672,487.956012 839.296105,492.38778 846.220741,492.38778 Z M846.276138,486.737276 C844.226446,486.737276 843.00771,484.701433 843.00771,481.363758 C843.00771,478.026083 844.226446,475.99024 846.276138,475.99024 C848.215037,475.99024 849.433773,478.026083 849.433773,481.363758 C849.433773,484.701433 848.215037,486.737276 846.276138,486.737276 Z M870.980664,492 L873.972107,480.588199 L874.193696,480.588199 L877.185139,492 L885.439305,492 L890.757426,470.727516 L883.112628,470.727516 L880.78595,483.579642 L880.619758,483.579642 L877.794507,470.727516 L870.371296,470.727516 L867.656839,483.690436 L867.490647,483.690436 L865.053175,470.727516 L857.408376,470.727516 L862.726497,492 L870.980664,492 Z M893.857169,498.924637 C894.521934,497.387367 896.225395,493.675762 896.516229,489.673322 L896.627024,488.122203 L890.865726,488.122203 L890.865726,489.673322 C890.865726,493.440324 889.591593,497.387367 889.148416,498.924637 L893.857169,498.924637 Z M729.628428,536 L729.628428,520.267226 L733.506224,520.267226 L733.506224,514.727516 L729.628428,514.727516 L729.628428,513.785766 C729.628428,512.788618 730.016207,512.123853 731.456532,512.123853 C732.010503,512.123853 732.841459,512.234647 733.39543,512.400838 L734.503372,506.916526 C733.617018,506.694938 731.567326,506.307158 729.628428,506.307158 C724.975072,506.307158 721.983629,508.855424 721.983629,514.118148 L721.983629,514.727516 L719.269171,514.727516 L719.269171,520.267226 L721.983629,520.267226 L721.983629,536 L729.628428,536 Z M744.970742,536.38778 C750.870532,536.38778 754.665233,533.562528 755.385395,529.13076 L748.405362,529.13076 C747.962185,530.335647 746.701901,531.014262 745.136933,531.014262 C742.865652,531.014262 741.536122,529.51854 741.536122,527.468848 L741.536122,527.136465 L755.385395,527.136465 L755.385395,525.363758 C755.385395,518.591463 751.230613,514.450531 744.804551,514.450531 C738.212296,514.450531 734.002117,518.826901 734.002117,525.419155 C734.002117,532.302244 738.156899,536.38778 744.970742,536.38778 Z M748.349965,522.926286 L741.536122,522.926286 C741.57767,521.084333 743.10109,519.824049 744.970742,519.824049 C746.868092,519.824049 748.308417,521.098182 748.349965,522.926286 Z M767.680969,536.38778 C773.58076,536.38778 777.37546,533.562528 778.095623,529.13076 L771.115589,529.13076 C770.672412,530.335647 769.412128,531.014262 767.84716,531.014262 C765.57588,531.014262 764.246349,529.51854 764.246349,527.468848 L764.246349,527.136465 L778.095623,527.136465 L778.095623,525.363758 C778.095623,518.591463 773.940841,514.450531 767.514778,514.450531 C760.922524,514.450531 756.712345,518.826901 756.712345,525.419155 C756.712345,532.302244 760.867127,536.38778 767.680969,536.38778 Z M771.060192,522.926286 L764.246349,522.926286 C764.287897,521.084333 765.811317,519.824049 767.680969,519.824049 C769.57832,519.824049 771.018644,521.098182 771.060192,522.926286 Z M787.84293,536 L787.84293,507.636688 L780.198131,507.636688 L780.198131,536 L787.84293,536 Z M800.470747,536.38778 C806.356688,536.38778 810.691511,533.52098 810.719209,528.964569 C810.691511,525.820784 808.586421,523.99268 804.237749,523.203271 L799.916776,522.427712 C798.296411,522.136877 797.839385,521.555208 797.867084,520.931991 C797.839385,520.045637 798.933478,519.547063 800.249159,519.547063 C801.758729,519.547063 803.019013,520.350321 803.129807,521.652153 L810.165238,521.652153 C809.971348,517.151139 806.232045,514.450531 800.082967,514.450531 C794.003136,514.450531 790.249983,516.9434 790.277682,521.375167 C790.249983,524.726692 792.424319,526.873329 796.759142,527.635039 L800.526144,528.299804 C802.188057,528.604488 802.935918,529.047665 802.963616,529.850923 C802.935918,530.737276 801.924921,531.23585 800.526144,531.23585 C798.794985,531.23585 797.576249,530.487989 797.36851,529.13076 L789.779108,529.13076 C790.194586,533.493282 793.961588,536.38778 800.470747,536.38778 Z M829.659662,536.38778 C836.584298,536.38778 840.683683,531.956012 840.683683,525.419155 C840.683683,518.882298 836.584298,514.450531 829.659662,514.450531 C822.735025,514.450531 818.63564,518.882298 818.63564,525.419155 C818.63564,531.956012 822.735025,536.38778 829.659662,536.38778 Z M829.715059,530.737276 C827.665366,530.737276 826.44663,528.701433 826.44663,525.363758 C826.44663,522.026083 827.665366,519.99024 829.715059,519.99024 C831.653957,519.99024 832.872693,522.026083 832.872693,525.363758 C832.872693,528.701433 831.653957,530.737276 829.715059,530.737276 Z M851.649734,536 L851.649734,520.267226 L855.527531,520.267226 L855.527531,514.727516 L851.649734,514.727516 L851.649734,513.785766 C851.649734,512.788618 852.037514,512.123853 853.477838,512.123853 C854.031809,512.123853 854.862766,512.234647 855.416737,512.400838 L856.524679,506.916526 C855.638325,506.694938 853.588633,506.307158 851.649734,506.307158 C846.996378,506.307158 844.004935,508.855424 844.004935,514.118148 L844.004935,514.727516 L841.290478,514.727516 L841.290478,520.267226 L844.004935,520.267226 L844.004935,536 L851.649734,536 Z M866.327291,536 L866.327291,520.267226 L870.205088,520.267226 L870.205088,514.727516 L866.327291,514.727516 L866.327291,513.785766 C866.327291,512.788618 866.715071,512.123853 868.155395,512.123853 C868.709366,512.123853 869.540323,512.234647 870.094293,512.400838 L871.202235,506.916526 C870.315882,506.694938 868.266189,506.307158 866.327291,506.307158 C861.673935,506.307158 858.682492,508.855424 858.682492,514.118148 L858.682492,514.727516 L855.968035,514.727516 L855.968035,520.267226 L858.682492,520.267226 L858.682492,536 L866.327291,536 Z M874.080186,536.443177 C876.116029,536.443177 877.930284,534.725867 877.957982,532.56538 C877.930284,530.460291 876.116029,528.742981 874.080186,528.742981 C871.933549,528.742981 870.174691,530.460291 870.202389,532.56538 C870.174691,534.725867 871.933549,536.443177 874.080186,536.443177 Z" id="Runsslow,feelsoff." fill="#00B8FF" fill-rule="nonzero"></path>
            <path d="M275.617035,482.332383 C282.804808,482.332383 287.111932,479.230145 287.13963,473.635039 C287.111932,469.314066 284.535967,466.281075 278.276095,464.937695 L275.949417,464.439121 C273.262658,463.871301 272.057771,463.081893 272.127018,461.724664 C272.140867,460.478229 273.179563,459.564177 275.561638,459.564177 C278.054507,459.564177 279.231695,460.65827 279.384037,462.500223 L286.75185,462.500223 C286.724152,456.932815 282.430877,453.248909 275.561638,453.248909 C268.817042,453.248909 264.052891,456.877418 264.094439,462.278635 C264.08059,466.710402 267.155129,469.175573 272.182415,470.255816 L275.007667,470.865184 C278.165301,471.557648 279.245544,472.347056 279.273243,473.635039 C279.245544,475.033816 277.971411,476.017114 275.506241,476.017114 C272.556345,476.017114 270.811337,474.632187 270.686693,472.028523 L263.374277,472.028523 C263.401976,479.14705 268.221523,482.332383 275.617035,482.332383 Z M295.114257,482.332383 C297.884111,482.332383 299.975352,481.390632 301.263334,479.008557 L301.429525,479.008557 L301.429525,482 L308.57575,482 L308.57575,467.430564 C308.57575,463.497371 304.850296,460.450531 298.770465,460.450531 C292.413648,460.450531 289.283712,463.774356 289.020576,467.652153 L296.056007,467.652153 C296.236048,466.336472 297.205497,465.713255 298.659671,465.713255 C299.989201,465.713255 300.930951,466.322623 300.930951,467.430564 L300.930951,467.485962 C300.930951,468.718547 299.573723,469.106327 296.00061,469.369463 C291.61039,469.687996 288.18962,471.460703 288.18962,476.127908 C288.18962,480.365786 291.04257,482.332383 295.114257,482.332383 Z M297.607126,477.512835 C296.305294,477.512835 295.391242,476.875769 295.391242,475.684731 C295.391242,474.590639 296.166801,473.745833 297.939508,473.468848 C299.158244,473.274958 300.183091,473.025671 300.986348,472.693288 L300.986348,474.465995 C300.986348,476.404894 299.338285,477.512835 297.607126,477.512835 Z M321.480684,482.38778 C327.782104,482.38778 331.646051,478.773119 331.729147,473.136465 L324.638319,473.136465 C324.472127,475.366198 323.267241,476.571085 321.591479,476.571085 C319.583334,476.571085 318.267653,474.853775 318.267653,471.363758 C318.267653,467.873741 319.583334,466.156431 321.591479,466.156431 C323.28109,466.156431 324.43058,467.361318 324.638319,469.591051 L331.729147,469.591051 C331.687599,464.051342 327.740556,460.450531 321.480684,460.450531 C314.556048,460.450531 310.456663,464.882298 310.456663,471.419155 C310.456663,477.956012 314.556048,482.38778 321.480684,482.38778 Z M341.531851,482 L341.531851,470.920581 C341.531851,468.483109 343.207613,466.876594 345.465044,466.876594 C346.254453,466.876594 347.528586,467.001237 348.290296,467.264373 L348.290296,460.741365 C347.680928,460.561325 347.016163,460.450531 346.351398,460.450531 C344.080117,460.450531 342.30741,461.780061 341.531851,464.771504 L341.310262,464.771504 L341.310262,460.727516 L333.887052,460.727516 L333.887052,482 L341.531851,482 Z M353.605758,458.511632 C355.683149,458.511632 357.37276,456.946665 357.37276,455.021616 C357.37276,453.096567 355.683149,451.531599 353.605758,451.531599 C351.528367,451.531599 349.838756,453.096567 349.838756,455.021616 C349.838756,456.946665 351.528367,458.511632 353.605758,458.511632 Z M357.428157,482 L357.428157,460.727516 L349.783358,460.727516 L349.783358,482 L357.428157,482 Z M369.169621,482 L369.169621,466.267226 L373.047417,466.267226 L373.047417,460.727516 L369.169621,460.727516 L369.169621,459.785766 C369.169621,458.788618 369.5574,458.123853 370.997725,458.123853 C371.551696,458.123853 372.382652,458.234647 372.936623,458.400838 L374.044565,452.916526 C373.158211,452.694938 371.108519,452.307158 369.169621,452.307158 C364.516265,452.307158 361.524822,454.855424 361.524822,460.118148 L361.524822,460.727516 L358.810364,460.727516 L358.810364,466.267226 L361.524822,466.267226 L361.524822,482 L369.169621,482 Z M378.806042,458.511632 C380.883433,458.511632 382.573044,456.946665 382.573044,455.021616 C382.573044,453.096567 380.883433,451.531599 378.806042,451.531599 C376.728651,451.531599 375.03904,453.096567 375.03904,455.021616 C375.03904,456.946665 376.728651,458.511632 378.806042,458.511632 Z M382.628441,482 L382.628441,460.727516 L374.983643,460.727516 L374.983643,482 L382.628441,482 Z M395.754832,482.38778 C402.056251,482.38778 405.920199,478.773119 406.003294,473.136465 L398.912466,473.136465 C398.746275,475.366198 397.541388,476.571085 395.865626,476.571085 C393.857482,476.571085 392.541801,474.853775 392.541801,471.363758 C392.541801,467.873741 393.857482,466.156431 395.865626,466.156431 C397.555238,466.156431 398.704727,467.361318 398.912466,469.591051 L406.003294,469.591051 C405.961747,464.051342 402.014704,460.450531 395.754832,460.450531 C388.830195,460.450531 384.730811,464.882298 384.730811,471.419155 C384.730811,477.956012 388.830195,482.38778 395.754832,482.38778 Z M418.354265,482.38778 C424.254055,482.38778 428.048756,479.562528 428.768918,475.13076 L421.788884,475.13076 C421.345708,476.335647 420.085424,477.014262 418.520456,477.014262 C416.249175,477.014262 414.919645,475.51854 414.919645,473.468848 L414.919645,473.136465 L428.768918,473.136465 L428.768918,471.363758 C428.768918,464.591463 424.614136,460.450531 418.188073,460.450531 C411.595819,460.450531 407.38564,464.826901 407.38564,471.419155 C407.38564,478.302244 411.540422,482.38778 418.354265,482.38778 Z M421.733487,468.926286 L414.919645,468.926286 C414.961193,467.084333 416.484613,465.824049 418.354265,465.824049 C420.251615,465.824049 421.691939,467.098182 421.733487,468.926286 Z M443.554597,482.332383 C446.324452,482.332383 448.415692,481.390632 449.703675,479.008557 L449.869866,479.008557 L449.869866,482 L457.016091,482 L457.016091,467.430564 C457.016091,463.497371 453.290637,460.450531 447.210806,460.450531 C440.853989,460.450531 437.724053,463.774356 437.460917,467.652153 L444.496348,467.652153 C444.676389,466.336472 445.645838,465.713255 447.100011,465.713255 C448.429542,465.713255 449.371292,466.322623 449.371292,467.430564 L449.371292,467.485962 C449.371292,468.718547 448.014063,469.106327 444.440951,469.369463 C440.050731,469.687996 436.629961,471.460703 436.629961,476.127908 C436.629961,480.365786 439.482911,482.332383 443.554597,482.332383 Z M446.047467,477.512835 C444.745635,477.512835 443.831583,476.875769 443.831583,475.684731 C443.831583,474.590639 444.607142,473.745833 446.379849,473.468848 C447.598585,473.274958 448.623432,473.025671 449.426689,472.693288 L449.426689,474.465995 C449.426689,476.404894 447.778626,477.512835 446.047467,477.512835 Z M283.702305,533.977181 L283.702305,522.509983 L283.813099,522.509983 C284.699453,524.67047 286.749145,526.276985 289.740588,526.276985 C294.28315,526.276985 298.105549,522.731571 298.105549,515.363758 C298.105549,507.663562 294.006164,504.450531 289.795985,504.450531 C286.638351,504.450531 284.644056,506.278635 283.813099,508.439121 L283.646908,508.439121 L283.646908,504.727516 L276.057506,504.727516 L276.057506,533.977181 L283.702305,533.977181 Z M286.915337,520.404894 C284.810247,520.404894 283.536114,518.465995 283.536114,515.363758 C283.536114,512.206124 284.810247,510.322623 286.915337,510.322623 C289.020426,510.322623 290.239162,512.206124 290.239162,515.363758 C290.239162,518.521392 289.020426,520.404894 286.915337,520.404894 Z M307.963669,526 L307.963669,497.636688 L300.31887,497.636688 L300.31887,526 L307.963669,526 Z M316.769086,526.332383 C319.538941,526.332383 321.630181,525.390632 322.918163,523.008557 L323.084355,523.008557 L323.084355,526 L330.23058,526 L330.23058,511.430564 C330.23058,507.497371 326.505125,504.450531 320.425294,504.450531 C314.068478,504.450531 310.938542,507.774356 310.675406,511.652153 L317.710837,511.652153 C317.890877,510.336472 318.860326,509.713255 320.3145,509.713255 C321.64403,509.713255 322.585781,510.322623 322.585781,511.430564 L322.585781,511.485962 C322.585781,512.718547 321.228552,513.106327 317.65544,513.369463 C313.26522,513.687996 309.844449,515.460703 309.844449,520.127908 C309.844449,524.365786 312.6974,526.332383 316.769086,526.332383 Z M319.261955,521.512835 C317.960124,521.512835 317.046072,520.875769 317.046072,519.684731 C317.046072,518.590639 317.821631,517.745833 319.594338,517.468848 C320.813074,517.274958 321.83792,517.025671 322.641178,516.693288 L322.641178,518.465995 C322.641178,520.404894 320.993114,521.512835 319.261955,521.512835 Z M342.24916,526.304684 C343.98032,526.207739 345.268302,525.847658 345.960766,525.639919 L344.852824,520.266401 C344.561989,520.335647 343.814128,520.487989 343.357102,520.487989 C342.359955,520.487989 341.916778,520.044812 341.916778,519.158459 L341.916778,510.267226 L345.572986,510.267226 L345.572986,504.727516 L341.916778,504.727516 L341.916778,499.630984 L334.271979,499.630984 L334.271979,504.727516 L331.557521,504.727516 L331.557521,510.267226 L334.271979,510.267226 L334.271979,519.878621 C334.216582,524.338087 336.972587,526.595519 342.24916,526.304684 Z M356.538939,526 L356.538939,510.267226 L360.416735,510.267226 L360.416735,504.727516 L356.538939,504.727516 L356.538939,503.785766 C356.538939,502.788618 356.926719,502.123853 358.367043,502.123853 C358.921014,502.123853 359.75197,502.234647 360.305941,502.400838 L361.413883,496.916526 C360.52753,496.694938 358.477837,496.307158 356.538939,496.307158 C351.885583,496.307158 348.89414,498.855424 348.89414,504.118148 L348.89414,504.727516 L346.179682,504.727516 L346.179682,510.267226 L348.89414,510.267226 L348.89414,526 L356.538939,526 Z M371.93665,526.38778 C378.861287,526.38778 382.960672,521.956012 382.960672,515.419155 C382.960672,508.882298 378.861287,504.450531 371.93665,504.450531 C365.012014,504.450531 360.912629,508.882298 360.912629,515.419155 C360.912629,521.956012 365.012014,526.38778 371.93665,526.38778 Z M371.992047,520.737276 C369.942355,520.737276 368.723619,518.701433 368.723619,515.363758 C368.723619,512.026083 369.942355,509.99024 371.992047,509.99024 C373.930946,509.99024 375.149682,512.026083 375.149682,515.363758 C375.149682,518.701433 373.930946,520.737276 371.992047,520.737276 Z M392.707987,526 L392.707987,514.920581 C392.707987,512.483109 394.383749,510.876594 396.641181,510.876594 C397.430589,510.876594 398.704722,511.001237 399.466432,511.264373 L399.466432,504.741365 C398.857064,504.561325 398.192299,504.450531 397.527534,504.450531 C395.256253,504.450531 393.483546,505.780061 392.707987,508.771504 L392.486399,508.771504 L392.486399,504.727516 L385.063188,504.727516 L385.063188,526 L392.707987,526 Z M408.604294,526 L408.604294,513.591051 C408.604294,511.735248 409.573743,510.599608 411.15256,510.599608 C412.731377,510.599608 413.756223,511.735248 413.756223,513.591051 L413.756223,526 L421.06864,526 L421.06864,513.591051 C421.06864,511.735248 422.038089,510.599608 423.616906,510.599608 C425.195723,510.599608 426.220569,511.735248 426.220569,513.591051 L426.220569,526 L433.865368,526 L433.865368,511.652153 C433.865368,507.289632 431.067815,504.450531 426.996129,504.450531 C423.838494,504.450531 421.290228,506.167841 420.570066,508.771504 L420.348478,508.771504 C419.905301,506.167841 417.523226,504.450531 414.531783,504.450531 C411.581887,504.450531 409.324456,506.112444 408.438102,508.771504 L408.216514,508.771504 L408.216514,504.727516 L400.959495,504.727516 L400.959495,526 L408.604294,526 Z M440.787572,526.443177 C442.823415,526.443177 444.63767,524.725867 444.665369,522.56538 C444.63767,520.460291 442.823415,518.742981 440.787572,518.742981 C438.640935,518.742981 436.882077,520.460291 436.909776,522.56538 C436.882077,524.725867 438.640935,526.443177 440.787572,526.443177 Z" id="Sacrificeaplatform." fill="#00B8FF" fill-rule="nonzero"></path>
            <path d="M491.137507,611 L491.137507,598.03708 L494.819283,598.03708 L501.722614,611 L513.304867,611 L505.327686,596.349599 C509.508036,594.336128 512.000905,590.520121 512.000905,585.07416 C512.000905,576.713461 506.15225,571.727722 497.427208,571.727722 L480.475698,571.727722 L480.475698,611 L491.137507,611 Z M494.895987,589.753084 L491.137507,589.753084 L491.137507,580.241829 L494.895987,580.241829 C498.635291,580.241829 500.878873,581.699199 500.878873,585.07416 C500.878873,588.429946 498.635291,589.753084 494.895987,589.753084 Z M525.630241,611.383518 C530.021526,611.383518 533.396487,609.159112 534.681274,605.400632 L534.988088,605.400632 L534.988088,611 L545.036269,611 L545.036269,581.545792 L534.451163,581.545792 L534.451163,598.113784 C534.470338,601.028523 532.782858,602.792708 530.155757,602.792708 C527.490305,602.792708 525.956231,601.028523 525.937055,598.113784 L525.937055,581.545792 L515.351949,581.545792 L515.351949,600.33819 C515.371125,606.781298 519.43642,611.383518 525.630241,611.383518 Z M559.662741,611 L559.662741,594.432008 C559.681917,591.517268 561.331045,589.753084 563.958146,589.753084 C566.623599,589.753084 568.196024,591.517268 568.176848,594.432008 L568.176848,611 L578.762022,611 L578.762022,592.207601 C578.78113,585.802845 574.735011,581.162273 568.483662,581.162273 C564.149905,581.162273 560.717416,583.425031 559.43263,587.145159 L559.125815,587.145159 L559.125815,581.545792 L549.077635,581.545792 L549.077635,611 L559.662741,611 Z M606.250434,611.536926 C615.838392,611.536926 621.514463,605.400632 621.514463,596.349599 C621.514463,587.298567 615.838392,581.162273 606.250434,581.162273 C596.662475,581.162273 590.986404,587.298567 590.986404,596.349599 C590.986404,605.400632 596.662475,611.536926 606.250434,611.536926 Z M606.327137,603.713152 C603.489102,603.713152 601.801621,600.894292 601.801621,596.272896 C601.801621,591.6515 603.489102,588.83264 606.327137,588.83264 C609.011766,588.83264 610.699246,591.6515 610.699246,596.272896 C610.699246,600.894292 609.011766,603.713152 606.327137,603.713152 Z M634.760255,611.383518 C639.15154,611.383518 642.526501,609.159112 643.811287,605.400632 L644.118102,605.400632 L644.118102,611 L654.166282,611 L654.166282,581.545792 L643.581176,581.545792 L643.581176,598.113784 C643.600352,601.028523 641.912872,602.792708 639.285771,602.792708 C636.620318,602.792708 635.086245,601.028523 635.067069,598.113784 L635.067069,581.545792 L624.481963,581.545792 L624.481963,600.33819 C624.501139,606.781298 628.566433,611.383518 634.760255,611.383518 Z M671.170568,611.42187 C673.567558,611.287639 675.350918,610.789065 676.309714,610.501426 L674.775641,603.06117 C674.372946,603.15705 673.337447,603.367985 672.704642,603.367985 C671.323976,603.367985 670.710346,602.754356 670.710346,601.527097 L670.710346,589.216158 L675.772788,589.216158 L675.772788,581.545792 L670.710346,581.545792 L670.710346,574.489054 L660.12524,574.489054 L660.12524,581.545792 L656.36676,581.545792 L656.36676,589.216158 L660.12524,589.216158 L660.12524,602.524245 C660.048536,608.69889 663.864544,611.824564 671.170568,611.42187 Z M496.940816,670.536926 C506.528774,670.536926 512.204846,664.400632 512.204846,655.349599 C512.204846,646.298567 506.528774,640.162273 496.940816,640.162273 C487.352857,640.162273 481.676786,646.298567 481.676786,655.349599 C481.676786,664.400632 487.352857,670.536926 496.940816,670.536926 Z M497.017519,662.713152 C494.179484,662.713152 492.492003,659.894292 492.492003,655.272896 C492.492003,650.6515 494.179484,647.83264 497.017519,647.83264 C499.702148,647.83264 501.389629,650.6515 501.389629,655.272896 C501.389629,659.894292 499.702148,662.713152 497.017519,662.713152 Z M527.444932,670 L527.444932,648.216158 L532.814189,648.216158 L532.814189,640.545792 L527.444932,640.545792 L527.444932,639.241829 C527.444932,637.861163 527.981858,636.940719 529.976153,636.940719 C530.74319,636.940719 531.893745,637.094127 532.660781,637.324238 L534.194855,629.730574 C532.967596,629.42376 530.12956,628.886834 527.444932,628.886834 C521.001824,628.886834 516.859826,632.415203 516.859826,639.702051 L516.859826,640.545792 L513.101346,640.545792 L513.101346,648.216158 L516.859826,648.216158 L516.859826,670 L527.444932,670 Z M557.924704,670.42187 C560.321693,670.287639 562.105054,669.789065 563.06385,669.501426 L561.529776,662.06117 C561.127082,662.15705 560.091582,662.367985 559.458777,662.367985 C558.078111,662.367985 557.464482,661.754356 557.464482,660.527097 L557.464482,648.216158 L562.526924,648.216158 L562.526924,640.545792 L557.464482,640.545792 L557.464482,633.489054 L546.879376,633.489054 L546.879376,640.545792 L543.120896,640.545792 L543.120896,648.216158 L546.879376,648.216158 L546.879376,661.524245 C546.802672,667.69889 550.618679,670.824564 557.924704,670.42187 Z M570.786841,637.477645 C573.663228,637.477645 576.00269,635.310766 576.00269,632.645314 C576.00269,629.979861 573.663228,627.812983 570.786841,627.812983 C567.910453,627.812983 565.570991,629.979861 565.570991,632.645314 C565.570991,635.310766 567.910453,637.477645 570.786841,637.477645 Z M576.079394,670 L576.079394,640.545792 L565.494287,640.545792 L565.494287,670 L576.079394,670 Z M590.705647,670 L590.705647,652.818378 C590.705647,650.248806 592.047961,648.67638 594.234016,648.67638 C596.42007,648.67638 597.839088,650.248806 597.839088,652.818378 L597.839088,670 L607.963972,670 L607.963972,652.818378 C607.963972,650.248806 609.306286,648.67638 611.492341,648.67638 C613.678396,648.67638 615.097413,650.248806 615.097413,652.818378 L615.097413,670 L625.682519,670 L625.682519,650.13375 C625.682519,644.093336 621.808984,640.162273 616.171265,640.162273 C611.799156,640.162273 608.270787,642.540087 607.273639,646.145159 L606.966825,646.145159 C606.353195,642.540087 603.054938,640.162273 598.912939,640.162273 C594.828469,640.162273 591.702795,642.463383 590.475536,646.145159 L590.168721,646.145159 L590.168721,640.545792 L580.120541,640.545792 L580.120541,670 L590.705647,670 Z M643.684133,670.536926 C651.853073,670.536926 657.107275,666.625039 658.104422,660.488745 L648.43976,660.488745 C647.826131,662.15705 646.081122,663.09667 643.914244,663.09667 C640.769393,663.09667 638.928505,661.025671 638.928505,658.187635 L638.928505,657.727413 L658.104422,657.727413 L658.104422,655.272896 C658.104422,645.895872 652.351647,640.162273 643.454022,640.162273 C634.326285,640.162273 628.496807,646.221863 628.496807,655.349599 C628.496807,664.88003 634.249582,670.536926 643.684133,670.536926 Z M648.363057,651.897934 L638.928505,651.897934 C638.986033,649.347537 641.095384,647.602529 643.684133,647.602529 C646.311233,647.602529 648.305529,649.366713 648.363057,651.897934 Z M666.824687,670.613629 C669.643546,670.613629 672.155591,668.235816 672.193943,665.244373 C672.155591,662.329633 669.643546,659.95182 666.824687,659.95182 C663.852419,659.95182 661.417078,662.329633 661.45543,665.244373 C661.417078,668.235816 663.852419,670.613629 666.824687,670.613629 Z" id="Runoutoftime." fill="#FFC800" fill-rule="nonzero"></path>
            <polygon id="*" fill="#FFC800" fill-rule="nonzero" points="363.732105 671.818378 363.118476 665.068456 368.717843 668.980343 371.78599 663.611086 365.649697 660.77305 371.78599 657.935015 368.717843 652.565758 363.118476 656.477645 363.732105 649.727722 357.595811 649.727722 358.209441 656.477645 352.610073 652.565758 349.541926 657.935015 355.67822 660.77305 349.541926 663.611086 352.610073 668.980343 358.209441 665.068456 357.595811 671.818378"></polygon>
            <polygon id="*" fill="#FFC800" fill-rule="nonzero" points="787.732105 666.818378 787.118476 660.068456 792.717843 663.980343 795.78599 658.611086 789.649697 655.77305 795.78599 652.935015 792.717843 647.565758 787.118476 651.477645 787.732105 644.727722 781.595811 644.727722 782.209441 651.477645 776.610073 647.565758 773.541926 652.935015 779.67822 655.77305 773.541926 658.611086 776.610073 663.980343 782.209441 660.068456 781.595811 666.818378"></polygon>
            <polygon id="*" fill="#1CC871" fill-rule="nonzero" points="580.732105 482.818378 580.118476 476.068456 585.717843 479.980343 588.78599 474.611086 582.649697 471.77305 588.78599 468.935015 585.717843 463.565758 580.118476 467.477645 580.732105 460.727722 574.595811 460.727722 575.209441 467.477645 569.610073 463.565758 566.541926 468.935015 572.67822 471.77305 566.541926 474.611086 569.610073 479.980343 575.209441 476.068456 574.595811 482.818378"></polygon>
            <path d="M555.364904,827.332383 C562.552677,827.332383 566.859801,824.230145 566.887499,818.635039 C566.859801,814.314066 564.283836,811.281075 558.023965,809.937695 L555.697287,809.439121 C553.010528,808.871301 551.805641,808.081893 551.874887,806.724664 C551.888736,805.478229 552.927432,804.564177 555.309507,804.564177 C557.802376,804.564177 558.979564,805.65827 559.131906,807.500223 L566.49972,807.500223 C566.472021,801.932815 562.178747,798.248909 555.309507,798.248909 C548.564911,798.248909 543.800761,801.877418 543.842309,807.278635 C543.828459,811.710402 546.902998,814.175573 551.930284,815.255816 L554.755536,815.865184 C557.91317,816.557648 558.993414,817.347056 559.021112,818.635039 C558.993414,820.033816 557.71928,821.017114 555.25411,821.017114 C552.304215,821.017114 550.559206,819.632187 550.434563,817.028523 L543.122146,817.028523 C543.149845,824.14705 547.969392,827.332383 555.364904,827.332383 Z M576.579436,827 L576.579436,815.034228 C576.593285,812.929138 577.812021,811.655005 579.681673,811.655005 C581.634421,811.655005 582.742362,812.929138 582.728513,815.034228 L582.728513,827 L590.373361,827 L590.373361,813.427712 C590.387161,808.774356 587.451115,805.450531 582.950102,805.450531 C579.806316,805.450531 577.479639,807.057046 576.524039,809.771504 L576.30245,809.771504 L576.30245,798.636688 L568.934637,798.636688 L568.934637,827 L576.579436,827 Z M596.963002,803.511632 C599.040393,803.511632 600.730005,801.946665 600.730005,800.021616 C600.730005,798.096567 599.040393,796.531599 596.963002,796.531599 C594.885611,796.531599 593.196,798.096567 593.196,800.021616 C593.196,801.946665 594.885611,803.511632 596.963002,803.511632 Z M600.785402,827 L600.785402,805.727516 L593.140603,805.727516 L593.140603,827 L600.785402,827 Z M611.308129,834.977181 L611.308129,823.509983 L611.418923,823.509983 C612.305277,825.67047 614.354969,827.276985 617.346412,827.276985 C621.888974,827.276985 625.711373,823.731571 625.711373,816.363758 C625.711373,808.663562 621.611988,805.450531 617.401809,805.450531 C614.244175,805.450531 612.24988,807.278635 611.418923,809.439121 L611.252732,809.439121 L611.252732,805.727516 L603.66333,805.727516 L603.66333,834.977181 L611.308129,834.977181 Z M614.52116,821.404894 C612.416071,821.404894 611.141938,819.465995 611.141938,816.363758 C611.141938,813.206124 612.416071,811.322623 614.52116,811.322623 C616.62625,811.322623 617.844986,813.206124 617.844986,816.363758 C617.844986,819.521392 616.62625,821.404894 614.52116,821.404894 Z M493.909662,871.38778 C499.809453,871.38778 503.604154,868.562528 504.324316,864.13076 L497.344282,864.13076 C496.901105,865.335647 495.640821,866.014262 494.075854,866.014262 C491.804573,866.014262 490.475043,864.51854 490.475043,862.468848 L490.475043,862.136465 L504.324316,862.136465 L504.324316,860.363758 C504.324316,853.591463 500.169534,849.450531 493.743471,849.450531 C487.151217,849.450531 482.941038,853.826901 482.941038,860.419155 C482.941038,867.302244 487.09582,871.38778 493.909662,871.38778 Z M497.288885,857.926286 L490.475043,857.926286 C490.51659,856.084333 492.04001,854.824049 493.909662,854.824049 C495.807013,854.824049 497.247337,856.098182 497.288885,857.926286 Z M520.165297,871 L527.311522,849.727516 L519.278944,849.727516 L515.844324,863.798378 L515.622736,863.798378 L512.188116,849.727516 L504.155537,849.727516 L511.301762,871 L520.165297,871 Z M538.000571,871.38778 C543.900362,871.38778 547.695063,868.562528 548.415225,864.13076 L541.435191,864.13076 C540.992014,865.335647 539.731731,866.014262 538.166763,866.014262 C535.895482,866.014262 534.565952,864.51854 534.565952,862.468848 L534.565952,862.136465 L548.415225,862.136465 L548.415225,860.363758 C548.415225,853.591463 544.260443,849.450531 537.83438,849.450531 C531.242126,849.450531 527.031947,853.826901 527.031947,860.419155 C527.031947,867.302244 531.186729,871.38778 538.000571,871.38778 Z M541.379794,857.926286 L534.565952,857.926286 C534.607499,856.084333 536.130919,854.824049 538.000571,854.824049 C539.897922,854.824049 541.338246,856.098182 541.379794,857.926286 Z M558.162532,871 L558.162532,859.920581 C558.162532,857.483109 559.838294,855.876594 562.095726,855.876594 C562.885135,855.876594 564.159268,856.001237 564.920978,856.264373 L564.920978,849.741365 C564.31161,849.561325 563.646845,849.450531 562.982079,849.450531 C560.710799,849.450531 558.938092,850.780061 558.162532,853.771504 L557.940944,853.771504 L557.940944,849.727516 L550.517733,849.727516 L550.517733,871 L558.162532,871 Z M571.732169,878.977181 C577.077988,878.977181 579.584707,876.290422 580.761895,872.772707 L588.517488,849.727516 L580.48491,849.727516 L576.994893,864.463143 L576.773304,864.463143 L573.338685,849.727516 L565.361503,849.727516 L572.840111,871.941751 L572.673919,872.32953 C572.161496,873.506718 570.679624,873.465171 568.796123,872.800406 L567.13421,878.229321 C568.325248,878.700196 569.973311,878.977181 571.732169,878.977181 Z M599.040354,871.304684 C600.771513,871.207739 602.059495,870.847658 602.751959,870.639919 L601.644017,865.266401 C601.353182,865.335647 600.605322,865.487989 600.148295,865.487989 C599.151148,865.487989 598.707971,865.044812 598.707971,864.158459 L598.707971,855.267226 L602.364179,855.267226 L602.364179,849.727516 L598.707971,849.727516 L598.707971,844.630984 L591.063172,844.630984 L591.063172,849.727516 L588.348715,849.727516 L588.348715,855.267226 L591.063172,855.267226 L591.063172,864.878621 C591.007775,869.338087 593.76378,871.595519 599.040354,871.304684 Z M612.554578,871 L612.554578,859.034228 C612.568427,856.929138 613.787163,855.655005 615.656815,855.655005 C617.609563,855.655005 618.717504,856.929138 618.703655,859.034228 L618.703655,871 L626.348503,871 L626.348503,857.427712 C626.362303,852.774356 623.426257,849.450531 618.925244,849.450531 C615.781459,849.450531 613.454781,851.057046 612.499181,853.771504 L612.277592,853.771504 L612.277592,842.636688 L604.909779,842.636688 L604.909779,871 L612.554578,871 Z M632.938144,847.511632 C635.015535,847.511632 636.705147,845.946665 636.705147,844.021616 C636.705147,842.096567 635.015535,840.531599 632.938144,840.531599 C630.860753,840.531599 629.171142,842.096567 629.171142,844.021616 C629.171142,845.946665 630.860753,847.511632 632.938144,847.511632 Z M636.760544,871 L636.760544,849.727516 L629.115745,849.727516 L629.115745,871 L636.760544,871 Z M647.283271,871 L647.283271,859.034228 C647.29712,856.929138 648.488158,855.655005 650.385508,855.655005 C652.310557,855.655005 653.446198,856.929138 653.432348,859.034228 L653.432348,871 L661.077196,871 L661.077196,857.427712 C661.090997,852.802055 658.1688,849.450531 653.653937,849.450531 C650.524001,849.450531 648.044981,851.084745 647.11708,853.771504 L646.895491,853.771504 L646.895491,849.727516 L639.638472,849.727516 L639.638472,871 L647.283271,871 Z M674.0929,879.420358 C680.823647,879.420358 685.283113,876.34582 685.283113,870.944603 L685.283113,849.727516 L677.638314,849.727516 L677.638314,853.439121 L677.472123,853.439121 C676.641167,851.278635 674.646871,849.450531 671.489237,849.450531 C667.279058,849.450531 663.179673,852.663562 663.179673,860.363758 C663.179673,867.731571 667.002072,870.723015 671.544634,870.723015 C674.425283,870.723015 676.696564,869.504278 677.52752,867.343792 L677.749108,867.343792 L677.749108,870.944603 C677.749108,873.451321 676.294935,874.268429 674.314489,874.268429 C672.555631,874.268429 671.267649,873.742156 671.04606,872.384927 L663.678247,872.384927 C663.969081,876.484312 667.694536,879.420358 674.0929,879.420358 Z M674.369886,865.294099 C672.264796,865.294099 671.04606,863.521392 671.04606,860.363758 C671.04606,857.206124 672.264796,855.322623 674.369886,855.322623 C676.474975,855.322623 677.749108,857.206124 677.749108,860.363758 C677.749108,863.465995 676.474975,865.294099 674.369886,865.294099 Z M537.806689,915.304684 C539.537848,915.207739 540.82583,914.847658 541.518294,914.639919 L540.410352,909.266401 C540.119517,909.335647 539.371657,909.487989 538.914631,909.487989 C537.917483,909.487989 537.474306,909.044812 537.474306,908.158459 L537.474306,899.267226 L541.130514,899.267226 L541.130514,893.727516 L537.474306,893.727516 L537.474306,888.630984 L529.829507,888.630984 L529.829507,893.727516 L527.11505,893.727516 L527.11505,899.267226 L529.829507,899.267226 L529.829507,908.878621 C529.77411,913.338087 532.530116,915.595519 537.806689,915.304684 Z M555.254102,915 L558.245545,903.588199 L558.467133,903.588199 L561.458576,915 L569.712743,915 L575.030864,893.727516 L567.386065,893.727516 L565.059387,906.579642 L564.893196,906.579642 L562.067944,893.727516 L554.644734,893.727516 L551.930276,906.690436 L551.764085,906.690436 L549.326613,893.727516 L541.681814,893.727516 L546.999935,915 L555.254102,915 Z M580.180332,891.511632 C582.257723,891.511632 583.947334,889.946665 583.947334,888.021616 C583.947334,886.096567 582.257723,884.531599 580.180332,884.531599 C578.102941,884.531599 576.413329,886.096567 576.413329,888.021616 C576.413329,889.946665 578.102941,891.511632 580.180332,891.511632 Z M584.002731,915 L584.002731,893.727516 L576.357932,893.727516 L576.357932,915 L584.002731,915 Z M597.129122,915.38778 C603.430541,915.38778 607.294489,911.773119 607.377584,906.136465 L600.286756,906.136465 C600.120565,908.366198 598.915678,909.571085 597.239916,909.571085 C595.231771,909.571085 593.91609,907.853775 593.91609,904.363758 C593.91609,900.873741 595.231771,899.156431 597.239916,899.156431 C598.929527,899.156431 600.079017,900.361318 600.286756,902.591051 L607.377584,902.591051 C607.336036,897.051342 603.388993,893.450531 597.129122,893.450531 C590.204485,893.450531 586.1051,897.882298 586.1051,904.419155 C586.1051,910.956012 590.204485,915.38778 597.129122,915.38778 Z M619.728554,915.38778 C625.628345,915.38778 629.423046,912.562528 630.143208,908.13076 L623.163174,908.13076 C622.719997,909.335647 621.459714,910.014262 619.894746,910.014262 C617.623465,910.014262 616.293935,908.51854 616.293935,906.468848 L616.293935,906.136465 L630.143208,906.136465 L630.143208,904.363758 C630.143208,897.591463 625.988426,893.450531 619.562363,893.450531 C612.970109,893.450531 608.75993,897.826901 608.75993,904.419155 C608.75993,911.302244 612.914712,915.38778 619.728554,915.38778 Z M623.107777,901.926286 L616.293935,901.926286 C616.335482,900.084333 617.858902,898.824049 619.728554,898.824049 C621.625905,898.824049 623.066229,900.098182 623.107777,901.926286 Z M636.400498,915.443177 C638.436342,915.443177 640.250596,913.725867 640.278295,911.56538 C640.250596,909.460291 638.436342,907.742981 636.400498,907.742981 C634.253861,907.742981 632.495003,909.460291 632.522702,911.56538 C632.495003,913.725867 634.253861,915.443177 636.400498,915.443177 Z" id="Shipeverythingtwice." fill="#00B8FF" fill-rule="nonzero"></path>
            <g id="Group-2" transform="translate(389.000000, 658.000000)" stroke="#B4AA2F" stroke-linecap="round" stroke-linejoin="round" stroke-width="12">
                <path d="M0,0 C1.3783951,10.7583214 6.41065316,23.4724288 15.0967742,38.1423221 C23.7828952,52.8122154 33.7506372,65.4314414 45,76" id="Line"></path>
                <line x1="45.4522793" y1="54" x2="45.5477207" y2="78" id="Line"></line>
                <line x1="20" y1="80" x2="45" y2="78" id="Line"></line>
            </g>
            <g id="Group-2-Copy" transform="translate(732.000000, 698.000000) scale(-1, 1) translate(-732.000000, -698.000000) translate(709.000000, 658.000000)" stroke="#B4AA2F" stroke-linecap="round" stroke-linejoin="round" stroke-width="12">
                <path d="M0,0 C0.467147754,10.359331 5.13381442,23.0259977 14,38 C22.8661856,52.9740023 33.1995189,65.640669 45,76" id="Line"></path>
                <line x1="45.4522793" y1="54" x2="45.5477207" y2="78" id="Line"></line>
                <line x1="20" y1="80" x2="45" y2="78" id="Line"></line>
            </g>
            <g id="Group-2-Copy-2" transform="translate(812.591116, 407.286451) scale(-1, 1) rotate(-195.000000) translate(-812.591116, -407.286451) translate(632.591116, 274.786451)" stroke="#1CC871" stroke-linecap="round" stroke-linejoin="round">
                <path d="M1.13686838e-13,0 C49.1969656,58.9540615 102.81197,109.445843 160.845013,151.475345 C218.878055,193.504847 284.929718,229.679732 359,260" id="Line" stroke-width="8"></path>
                <line x1="359.088409" y1="236.032261" x2="359.183851" y2="260.032261" id="Line" stroke-width="12"></line>
                <line x1="333.63613" y1="264.032261" x2="358.63613" y2="260.032261" id="Line" stroke-width="12"></line>
            </g>
        </g>
        <g id="*-bailout-option" transform="translate(650.791130, 1356.176420)" fill-rule="nonzero">
            <polygon id="*" fill="#FFC800" points="7.38911998 14.0055215 7.256309 8.36709175 12.0737255 11.3130808 12.9671811 9.74349645 7.99280626 7.05105567 12.9671811 4.35861489 12.0737255 2.78903058 7.256309 5.73501959 7.38911998 0.0965898037 5.57806116 0.0965898037 5.71087214 5.73501959 0.893455684 2.78903058 0 4.35861489 4.97437489 7.05105567 0 9.74349645 0.893455684 11.3130808 5.71087214 8.36709175 5.57806116 14.0055215"></polygon>
            <path d="M34.2107521,25.2099388 C38.7625466,25.2099388 41.8413465,21.3584203 41.8413465,15.5992533 C41.8413465,9.88838115 38.7504728,6.02478901 34.1745309,6.02478901 C30.781814,6.02478901 29.2484509,8.14976469 28.5119536,9.8159388 L28.318774,9.8159388 L28.318774,0.0965898037 L26.1575772,0.0965898037 L26.1575772,24.8235795 L28.2463317,24.8235795 L28.2463317,21.3825678 L28.5119536,21.3825678 C29.2605246,23.0849631 30.8301089,25.2099388 34.2107521,25.2099388 Z M33.9451301,23.2419215 C30.3471599,23.2419215 28.2825529,20.0423843 28.2825529,15.5630321 C28.2825529,11.1199012 30.3230125,7.98073253 33.9451301,7.98073253 C37.6638375,7.98073253 39.6801497,11.2889333 39.6801497,15.5630321 C39.6801497,19.8854258 37.6396901,23.2419215 33.9451301,23.2419215 Z M50.9057081,25.2461599 C53.9965818,25.2461599 55.8800829,23.5316909 56.6528014,21.8896643 L56.7856124,21.8896643 L56.7856124,24.8235795 L58.9347355,24.8235795 L58.9347355,12.2306839 C58.9347355,7.256309 55.1918806,6.02478901 52.3545551,6.02478901 C49.5172296,6.02478901 46.5953881,7.14764547 45.3397206,10.1781506 L47.3801802,10.9146478 C48.0563088,9.32091606 49.7345567,7.95658508 52.4149237,7.95658508 C55.2281018,7.95658508 56.7856124,9.50202194 56.7856124,12.0375043 L56.7856124,12.4721584 C56.7856124,13.8727106 55.0469959,13.896858 51.9319747,14.2832172 C47.742392,14.8023874 44.8084767,15.9735388 44.8084767,19.6439513 C44.8084767,23.2177741 47.5371387,25.2461599 50.9057081,25.2461599 Z M51.1954775,23.2781427 C48.7686586,23.2781427 46.9575998,21.9862541 46.9575998,19.7405411 C46.9575998,17.4948282 48.7928061,16.5530776 51.9319747,16.1667184 C53.4532641,15.9856125 56.1577786,15.6475482 56.7856124,15.0317882 L56.7856124,17.7121553 C56.7856124,20.7547341 54.6244155,23.2781427 51.1954775,23.2781427 Z M64.9323486,3.09087372 C65.8137306,3.09087372 66.5502278,2.39059764 66.5502278,1.54543686 C66.5502278,0.700276077 65.8137306,0 64.9323486,0 C64.0509667,0 63.3265431,0.700276077 63.3265431,1.54543686 C63.3265431,2.39059764 64.0509667,3.09087372 64.9323486,3.09087372 Z M65.9948365,24.8235795 L65.9948365,6.27833724 L63.8336396,6.27833724 L63.8336396,24.8235795 L65.9948365,24.8235795 Z M73.0065162,24.8235795 L73.0065162,0.0965898037 L70.8573931,0.0965898037 L70.8573931,24.8235795 L73.0065162,24.8235795 Z M85.0529388,25.2099388 C89.8582816,25.2099388 93.2147773,21.285978 93.2147773,15.6354745 C93.2147773,9.94874978 89.8582816,6.02478901 85.0529388,6.02478901 C80.2475961,6.02478901 76.8911004,9.94874978 76.8911004,15.6354745 C76.8911004,21.285978 80.2475961,25.2099388 85.0529388,25.2099388 Z M85.0529388,23.2419215 C81.2014204,23.2419215 79.0522973,19.788836 79.0522973,15.6354745 C79.0522973,11.4821129 81.2014204,7.98073253 85.0529388,7.98073253 C88.9044573,7.98073253 91.0535804,11.4821129 91.0535804,15.6354745 C91.0535804,19.788836 88.9044573,23.2419215 85.0529388,23.2419215 Z M103.196733,25.0650541 C105.913321,25.0650541 107.845117,23.6524282 108.714426,21.7447796 L108.883458,21.7447796 L108.883458,24.8235795 L111.032581,24.8235795 L111.032581,6.27833724 L108.883458,6.27833724 L108.883458,17.7363027 C108.883458,21.1410933 106.323828,22.9762996 103.812493,22.9762996 C101.132126,22.9762996 99.248625,21.0565772 99.248625,18.1588831 L99.248625,6.27833724 L97.0995018,6.27833724 L97.0995018,18.2916941 C97.0995018,22.6865301 99.6349842,25.0650541 103.196733,25.0650541 Z M121.859692,25.1012752 C122.753148,25.1012752 123.356834,24.9322431 123.767341,24.7752846 L123.308539,22.8314148 C123.006696,22.9159309 122.620337,23.000447 122.052872,23.000447 C120.591951,23.000447 119.251768,22.3122447 119.251768,19.9820156 L119.251768,8.14976469 L123.175728,8.14976469 L123.175728,6.27833724 L119.251768,6.27833724 L119.251768,1.83520627 L117.090571,1.83520627 L117.090571,6.27833724 L114.325688,6.27833724 L114.325688,8.14976469 L117.090571,8.14976469 L117.090571,20.4891121 C117.090571,23.5196172 119.481168,25.1012752 121.859692,25.1012752 Z M143.151503,25.2099388 C147.956846,25.2099388 151.313341,21.285978 151.313341,15.6354745 C151.313341,9.94874978 147.956846,6.02478901 143.151503,6.02478901 C138.34616,6.02478901 134.989664,9.94874978 134.989664,15.6354745 C134.989664,21.285978 138.34616,25.2099388 143.151503,25.2099388 Z M143.151503,23.2419215 C139.299984,23.2419215 137.150861,19.788836 137.150861,15.6354745 C137.150861,11.4821129 139.299984,7.98073253 143.151503,7.98073253 C147.003021,7.98073253 149.152144,11.4821129 149.152144,15.6354745 C149.152144,19.788836 147.003021,23.2419215 143.151503,23.2419215 Z M157.347189,31.7780454 L157.347189,21.3825678 L157.540369,21.3825678 C158.28894,23.0849631 159.882671,25.2099388 163.239167,25.2099388 C167.778888,25.2099388 170.869762,21.3463466 170.869762,15.5992533 C170.869762,9.87630743 167.790962,6.02478901 163.21502,6.02478901 C159.798155,6.02478901 158.301013,8.14976469 157.540369,9.8159388 L157.28682,9.8159388 L157.28682,6.27833724 L155.198066,6.27833724 L155.198066,31.7780454 L157.347189,31.7780454 Z M162.985619,23.2419215 C159.399722,23.2419215 157.323042,20.0423843 157.323042,15.5630321 C157.323042,11.1199012 159.351427,7.98073253 162.985619,7.98073253 C166.7164,7.98073253 168.720638,11.2889333 168.720638,15.5630321 C168.720638,19.8854258 166.668105,23.2419215 162.985619,23.2419215 Z M180.743057,25.1012752 C181.636513,25.1012752 182.240199,24.9322431 182.650706,24.7752846 L182.191904,22.8314148 C181.890061,22.9159309 181.503702,23.000447 180.936237,23.000447 C179.475316,23.000447 178.135133,22.3122447 178.135133,19.9820156 L178.135133,8.14976469 L182.059093,8.14976469 L182.059093,6.27833724 L178.135133,6.27833724 L178.135133,1.83520627 L175.973936,1.83520627 L175.973936,6.27833724 L173.209053,6.27833724 L173.209053,8.14976469 L175.973936,8.14976469 L175.973936,20.4891121 C175.973936,23.5196172 178.364533,25.1012752 180.743057,25.1012752 Z M187.223542,3.09087372 C188.104924,3.09087372 188.841422,2.39059764 188.841422,1.54543686 C188.841422,0.700276077 188.104924,0 187.223542,0 C186.34216,0 185.617737,0.700276077 185.617737,1.54543686 C185.617737,2.39059764 186.34216,3.09087372 187.223542,3.09087372 Z M188.28603,24.8235795 L188.28603,6.27833724 L186.124833,6.27833724 L186.124833,24.8235795 L188.28603,24.8235795 Z M200.356601,25.2099388 C205.161944,25.2099388 208.518439,21.285978 208.518439,15.6354745 C208.518439,9.94874978 205.161944,6.02478901 200.356601,6.02478901 C195.551258,6.02478901 192.194763,9.94874978 192.194763,15.6354745 C192.194763,21.285978 195.551258,25.2099388 200.356601,25.2099388 Z M200.356601,23.2419215 C196.505083,23.2419215 194.355959,19.788836 194.355959,15.6354745 C194.355959,11.4821129 196.505083,7.98073253 200.356601,7.98073253 C204.208119,7.98073253 206.357243,11.4821129 206.357243,15.6354745 C206.357243,19.788836 204.208119,23.2419215 200.356601,23.2419215 Z M214.552287,24.8235795 L214.552287,13.2328031 C214.552287,9.99704468 216.677263,8.00487998 219.599104,8.00487998 C222.448504,8.00487998 224.28371,9.9125286 224.28371,12.9430337 L224.28371,24.8235795 L226.432833,24.8235795 L226.432833,12.8102227 C226.432833,8.41538665 223.885277,6.03686273 220.142422,6.03686273 C217.425834,6.03686273 215.554406,7.29253018 214.685098,9.18810508 L214.491919,9.18810508 L214.491919,6.27833724 L212.403164,6.27833724 L212.403164,24.8235795 L214.552287,24.8235795 Z" id="bailoutoption" fill-opacity="0.726644449" fill="#DCDCDC"></path>
        </g>
        <path d="M455.548305,127 L455.548305,90.9705828 L468.907527,90.9705828 L468.907527,83.3641357 L433.069869,83.3641357 L433.069869,90.9705828 L446.429091,90.9705828 L446.429091,127 L455.548305,127 Z M482.261482,127 L482.261482,108.079762 C482.282788,103.86106 484.860884,101.389498 488.568228,101.389498 C492.254265,101.389498 494.427536,103.754527 494.406229,107.78147 L494.406229,127 L503.482905,127 L503.482905,106.16217 C503.504136,98.4918035 498.987143,93.8469703 492.169039,93.8469703 C487.204607,93.8469703 483.880781,96.1906935 482.389321,100.047183 L482.005803,100.047183 L482.005803,83.3641357 L473.184881,83.3641357 L473.184881,127 L482.261482,127 Z M524.080989,127.639197 C532.177488,127.639197 537.631971,123.697481 538.910365,117.625107 L530.515575,117.071136 C529.599392,119.564006 527.255669,120.863707 524.230135,120.863707 C519.691835,120.863707 516.815448,117.85948 516.815448,112.980274 L516.815448,112.958968 L539.102124,112.958968 L539.102124,110.466098 C539.102124,99.3440665 532.369247,93.8469703 523.718778,93.8469703 C514.088206,93.8469703 507.84538,100.686381 507.84538,110.785697 C507.84538,121.161999 514.00298,127.639197 524.080989,127.639197 Z M530.558188,107.334032 L516.815448,107.334032 C517.007207,103.605381 519.840981,100.622461 523.867924,100.622461 C527.80964,100.622461 530.536881,103.434929 530.558188,107.334032 Z M565.383554,127 L565.383554,108.974638 L583.13193,108.974638 L583.13193,101.368191 L565.383554,101.368191 L565.383554,90.9705828 L585.049522,90.9705828 L585.049522,83.3641357 L556.157807,83.3641357 L556.157807,127 L565.383554,127 Z M598.126428,127 L598.126428,108.484587 C598.126428,104.457644 601.066735,101.68779 605.072371,101.68779 C606.329459,101.68779 608.055291,101.900855 608.907554,102.177841 L608.907554,94.1239558 C608.097904,93.9321966 606.968656,93.8043572 606.052473,93.8043572 C602.387742,93.8043572 599.383516,95.9350146 598.190347,99.9832637 L597.849442,99.9832637 L597.849442,94.2731018 L589.049827,94.2731018 L589.049827,127 L598.126428,127 Z M625.350766,127.639197 C635.27963,127.639197 641.458537,120.8424 641.458537,110.76439 C641.458537,100.622461 635.27963,93.8469703 625.350766,93.8469703 C615.421903,93.8469703 609.242996,100.622461 609.242996,110.76439 C609.242996,120.8424 615.421903,127.639197 625.350766,127.639197 Z M625.39338,120.608028 C620.812466,120.608028 618.468743,116.410633 618.468743,110.700471 C618.468743,104.990309 620.812466,100.771607 625.39338,100.771607 C629.889067,100.771607 632.23279,104.990309 632.23279,110.700471 C632.23279,116.410633 629.889067,120.608028 625.39338,120.608028 Z M654.982906,127 L654.982906,108.079762 C655.004213,103.86106 657.518389,101.389498 661.183119,101.389498 C664.826544,101.389498 667.021121,103.775834 666.999814,107.78147 L666.999814,127 L676.076415,127 L676.076415,106.16217 C676.076415,98.5344167 671.602034,93.8469703 664.78393,93.8469703 C659.926032,93.8469703 656.410447,96.2333066 654.940293,100.047183 L654.556775,100.047183 L654.556775,94.2731018 L645.906306,94.2731018 L645.906306,127 L654.982906,127 Z M694.820901,127.447438 C697.164624,127.362212 698.826537,126.893467 699.74272,126.595175 L698.315179,119.840991 C697.867741,119.926217 696.908945,120.139283 696.056682,120.139283 C694.245623,120.139283 692.988535,119.457473 692.988535,116.943297 L692.988535,101.091206 L699.146135,101.091206 L699.146135,94.2731018 L692.988535,94.2731018 L692.988535,86.4322824 L683.911935,86.4322824 L683.911935,94.2731018 L679.437554,94.2731018 L679.437554,101.091206 L683.911935,101.091206 L683.911935,118.136465 C683.869322,124.549744 688.237169,127.724424 694.820901,127.447438 Z M718.146136,127.639197 C726.242635,127.639197 731.697118,123.697481 732.975512,117.625107 L724.580722,117.071136 C723.664539,119.564006 721.320816,120.863707 718.295282,120.863707 C713.756982,120.863707 710.880594,117.85948 710.880594,112.980274 L710.880594,112.958968 L733.167271,112.958968 L733.167271,110.466098 C733.167271,99.3440665 726.434394,93.8469703 717.783925,93.8469703 C708.153353,93.8469703 701.910527,100.686381 701.910527,110.785697 C701.910527,121.161999 708.068127,127.639197 718.146136,127.639197 Z M724.623335,107.334032 L710.880594,107.334032 C711.072354,103.605381 713.906128,100.622461 717.933071,100.622461 C721.874787,100.622461 724.602028,103.434929 724.623335,107.334032 Z M746.69163,127 L746.69163,108.079762 C746.712936,103.86106 749.227112,101.389498 752.891843,101.389498 C756.535267,101.389498 758.729844,103.775834 758.708538,107.78147 L758.708538,127 L767.785139,127 L767.785139,106.16217 C767.785139,98.5344167 763.310758,93.8469703 756.492654,93.8469703 C751.634755,93.8469703 748.11917,96.2333066 746.649017,100.047183 L746.265498,100.047183 L746.265498,94.2731018 L737.615029,94.2731018 L737.615029,127 L746.69163,127 Z M785.506909,127.532664 C790.790939,127.532664 793.539487,124.485824 794.796575,121.758583 L795.180094,121.758583 L795.180094,127 L804.128855,127 L804.128855,83.3641357 L795.073561,83.3641357 L795.073561,99.770198 L794.796575,99.770198 C793.582101,97.1068762 790.961392,93.8469703 785.485602,93.8469703 C778.305287,93.8469703 772.232913,99.4292928 772.232913,110.679164 C772.232913,121.630743 778.049608,127.532664 785.506909,127.532664 Z M788.383296,120.309736 C783.930222,120.309736 781.501273,116.346713 781.501273,110.636551 C781.501273,104.969002 783.887609,101.069899 788.383296,101.069899 C792.793757,101.069899 795.26532,104.79855 795.26532,110.636551 C795.26532,116.474552 792.751144,120.309736 788.383296,120.309736 Z M843.513854,127 L843.513854,90.9705828 L856.873076,90.9705828 L856.873076,83.3641357 L821.035418,83.3641357 L821.035418,90.9705828 L834.39464,90.9705828 L834.39464,127 L843.513854,127 Z M866.817939,127 L866.817939,108.484587 C866.817939,104.457644 869.758247,101.68779 873.763883,101.68779 C875.020971,101.68779 876.746803,101.900855 877.599066,102.177841 L877.599066,94.1239558 C876.789416,93.9321966 875.660168,93.8043572 874.743985,93.8043572 C871.079254,93.8043572 868.075027,95.9350146 866.881859,99.9832637 L866.540954,99.9832637 L866.540954,94.2731018 L857.741339,94.2731018 L857.741339,127 L866.817939,127 Z M885.349213,90.0544001 C888.055148,90.0544001 890.271032,87.9876624 890.271032,85.45218 C890.271032,82.9380043 888.055148,80.8712665 885.349213,80.8712665 C882.664585,80.8712665 880.448701,82.9380043 880.448701,85.45218 C880.448701,87.9876624 882.664585,90.0544001 885.349213,90.0544001 Z M889.866207,127 L889.866207,94.2731018 L880.789607,94.2731018 L880.789607,127 L889.866207,127 Z M904.71135,127 L904.71135,83.3641357 L895.634749,83.3641357 L895.634749,127 L904.71135,127 Z M925.394494,127.639197 C933.490992,127.639197 938.945475,123.697481 940.22387,117.625107 L931.829079,117.071136 C930.912897,119.564006 928.569174,120.863707 925.54364,120.863707 C921.00534,120.863707 918.128952,117.85948 918.128952,112.980274 L918.128952,112.958968 L940.415629,112.958968 L940.415629,110.466098 C940.415629,99.3440665 933.682751,93.8469703 925.032282,93.8469703 C915.401711,93.8469703 909.158884,100.686381 909.158884,110.785697 C909.158884,121.161999 915.316484,127.639197 925.394494,127.639197 Z M931.871693,107.334032 L918.128952,107.334032 C918.320711,103.605381 921.154486,100.622461 925.181428,100.622461 C929.123145,100.622461 931.850386,103.434929 931.871693,107.334032 Z M953.939988,127 L953.939988,107.355338 C953.939988,103.733221 956.241098,101.325578 959.266631,101.325578 C962.249552,101.325578 964.25237,103.371009 964.25237,106.588302 L964.25237,127 L973.051985,127 L973.051985,107.014433 C973.051985,103.626688 974.990883,101.325578 978.293402,101.325578 C981.191096,101.325578 983.364367,103.136637 983.364367,106.780061 L983.364367,127 L992.419661,127 L992.419661,104.990309 C992.419661,97.8952194 988.200959,93.8469703 982.107279,93.8469703 C977.3133,93.8469703 973.584649,96.2972264 972.242335,100.047183 L971.90143,100.047183 C970.857408,96.2546132 967.512275,93.8469703 963.016588,93.8469703 C958.606127,93.8469703 955.260995,96.1906935 953.897374,100.047183 L953.513856,100.047183 L953.513856,94.2731018 L944.863387,94.2731018 L944.863387,127 L953.939988,127 Z M1007.18002,127 L1007.18002,107.355338 C1007.18002,103.733221 1009.48113,101.325578 1012.50666,101.325578 C1015.48958,101.325578 1017.4924,103.371009 1017.4924,106.588302 L1017.4924,127 L1026.29201,127 L1026.29201,107.014433 C1026.29201,103.626688 1028.23091,101.325578 1031.53343,101.325578 C1034.43113,101.325578 1036.6044,103.136637 1036.6044,106.780061 L1036.6044,127 L1045.65969,127 L1045.65969,104.990309 C1045.65969,97.8952194 1041.44099,93.8469703 1035.34731,93.8469703 C1030.55333,93.8469703 1026.82468,96.2972264 1025.48236,100.047183 L1025.14146,100.047183 C1024.09744,96.2546132 1020.7523,93.8469703 1016.25662,93.8469703 C1011.84616,93.8469703 1008.50102,96.1906935 1007.1374,100.047183 L1006.75389,100.047183 L1006.75389,94.2731018 L998.103416,94.2731018 L998.103416,127 L1007.18002,127 Z M1060.67572,127.617891 C1065.51232,127.617891 1068.64438,125.50854 1070.24238,122.4617 L1070.49806,122.4617 L1070.49806,127 L1079.10591,127 L1079.10591,104.926389 C1079.10591,97.1281828 1072.50087,93.8469703 1065.21403,93.8469703 C1057.37321,93.8469703 1052.21701,97.5969274 1050.95993,103.562768 L1059.35472,104.244579 C1059.97261,102.071308 1061.91151,100.473315 1065.17141,100.473315 C1068.26087,100.473315 1070.02931,102.028695 1070.02931,104.713323 L1070.02931,104.841163 C1070.02931,106.950514 1067.79212,107.227499 1062.10327,107.78147 C1055.62607,108.378054 1049.80937,110.551325 1049.80937,117.85948 C1049.80937,124.336678 1054.4329,127.617891 1060.67572,127.617891 Z M1063.27513,121.353758 C1060.48397,121.353758 1058.48115,120.054057 1058.48115,117.561188 C1058.48115,115.004399 1060.5905,113.747311 1063.78648,113.299873 C1065.768,113.022887 1069.0066,112.554143 1070.09323,111.829719 L1070.09323,115.302691 C1070.09323,118.733049 1067.25946,121.353758 1063.27513,121.353758 Z" id="TheFrontendTrilemma" fill="#FFFFFF" fill-rule="nonzero"></path>
        <path d="M676.25093,190.437495 C683.282099,190.437495 688.422666,186.031295 689.469529,179.703243 L684.594584,179.687618 C683.766469,183.781321 680.329008,186.031295 676.28218,186.031295 C670.797867,186.031295 666.65729,181.828219 666.65729,174.000183 C666.65729,166.234647 670.782242,161.969071 676.297804,161.969071 C680.375883,161.969071 683.797719,164.26592 684.594584,168.406497 L689.469529,168.406497 C688.375791,161.562825 683.016477,157.562871 676.25093,157.562871 C667.969775,157.562871 661.86047,163.765925 661.86047,174.000183 C661.86047,184.234441 667.938525,190.437495 676.25093,190.437495 Z M698.465597,190 L698.465597,175.750163 C698.465597,171.922082 700.887444,169.734607 704.215531,169.734607 C707.434244,169.734607 709.356097,171.781458 709.356097,175.297043 L709.356097,190 L714.027918,190 L714.027918,174.73455 C714.027918,168.750243 710.746706,165.687778 705.809263,165.687778 C702.07493,165.687778 699.824956,167.31276 698.699969,169.90648 L698.403097,169.90648 L698.403097,158.000366 L693.793775,158.000366 L693.793775,190 L698.465597,190 Z M729.305097,190.484369 C736.070645,190.484369 740.492469,185.531301 740.492469,178.109511 C740.492469,170.640847 736.070645,165.687778 729.305097,165.687778 C722.53955,165.687778 718.117725,170.640847 718.117725,178.109511 C718.117725,185.531301 722.53955,190.484369 729.305097,190.484369 Z M729.320722,186.562539 C724.898898,186.562539 722.836421,182.703209 722.836421,178.093886 C722.836421,173.500189 724.898898,169.593984 729.320722,169.593984 C733.711297,169.593984 735.773773,173.500189 735.773773,178.093886 C735.773773,182.703209 733.711297,186.562539 729.320722,186.562539 Z M754.722785,190.484369 C761.488333,190.484369 765.910157,185.531301 765.910157,178.109511 C765.910157,170.640847 761.488333,165.687778 754.722785,165.687778 C747.957238,165.687778 743.535413,170.640847 743.535413,178.109511 C743.535413,185.531301 747.957238,190.484369 754.722785,190.484369 Z M754.73841,186.562539 C750.316586,186.562539 748.254109,182.703209 748.254109,178.093886 C748.254109,173.500189 750.316586,169.593984 754.73841,169.593984 C759.128985,169.593984 761.191461,173.500189 761.191461,178.093886 C761.191461,182.703209 759.128985,186.562539 754.73841,186.562539 Z M778.67174,190.484369 C784.468549,190.484369 788.484128,187.40628 788.484128,183.062579 C788.484128,179.671993 786.327903,177.578267 781.921703,176.562654 L778.109247,175.687664 C775.468652,175.062671 774.32804,174.172056 774.343665,172.547075 C774.32804,170.703346 776.328017,169.390861 778.984237,169.390861 C781.890453,169.390861 783.234188,171.000217 783.781057,172.609574 L788.015383,171.859583 C787.046644,168.12525 784.124803,165.687778 778.937362,165.687778 C773.515549,165.687778 769.671843,168.547121 769.671843,172.797072 C769.671843,176.203283 771.73432,178.468882 776.234268,179.468871 L780.296722,180.359485 C782.609195,180.875104 783.687308,181.906343 783.687308,183.406325 C783.687308,185.265679 781.702955,186.718788 778.640491,186.718788 C775.843648,186.718788 774.046793,185.515676 773.4843,183.156328 L768.968726,183.84382 C769.749967,188.093772 773.281177,190.484369 778.67174,190.484369 Z M802.870659,190.484369 C808.104974,190.484369 811.808056,187.906274 812.870544,184.000069 L808.44872,183.203203 C807.60498,185.468802 805.573753,186.625039 802.917533,186.625039 C798.917579,186.625039 796.23011,184.031318 796.105111,179.406371 L813.167416,179.406371 L813.167416,177.75014 C813.167416,169.078364 807.979975,165.687778 802.542537,165.687778 C795.855114,165.687778 791.448914,170.78147 791.448914,178.156386 C791.448914,185.609425 795.792615,190.484369 802.870659,190.484369 Z M808.589343,175.906411 L796.120736,175.906411 C796.308234,172.5002 798.776956,169.547109 802.573787,169.547109 C806.198746,169.547109 808.573718,172.234578 808.589343,175.906411 Z M848.862163,190 L848.862163,185.859422 L834.456078,185.859422 L834.456078,185.62505 L840.81538,178.968876 C846.674688,173.047069 848.346544,170.218976 848.346544,166.640892 C848.346544,161.500326 844.159092,157.562871 838.127911,157.562871 C832.143604,157.562871 827.768654,161.437827 827.768654,167.28151 L832.377976,167.28151 C832.362352,163.844049 834.581076,161.594075 838.034162,161.594075 C841.284124,161.594075 843.752846,163.594052 843.752846,166.781516 C843.752846,169.609608 842.065366,171.640835 838.627905,175.281418 L827.799904,186.50004 L827.799904,190 L848.862163,190 Z" id="Choose2" fill-opacity="0.610494974" fill="#FFFFFF" fill-rule="nonzero"></path>
        <g id="words-copy-2" transform="translate(1338.564924, 476.977199) rotate(6.000000) translate(-1338.564924, -476.977199) translate(1241.564924, 461.977199)">
            <g id="Group-3" transform="translate(7.000000, 0.000000)" fill-rule="nonzero">
                <g id="Path-9">
                    <use fill="#000000" xlink:href="#path-2"></use>
                    <use fill="url(#linearGradient-1)" style="mix-blend-mode: screen;" xlink:href="#path-2"></use>
                </g>
            </g>
            <g id="Group-2" transform="translate(0.000000, 10.000000)"></g>
        </g>
        <g id="tamagui-icon-copy-2" transform="translate(1330.359440, 555.047167) rotate(6.000000) translate(-1330.359440, -555.047167) translate(1276.359440, 505.547167)">
            <g id="Group" transform="translate(5.625000, 7.500000)" opacity="0.267275856">
                <g id="Rectangle-Copy-8">
                    <path d="M72.3214286,0 L72.3214286,7.1875 L87.75,7.1875 L87.749,14.375 L101.25,14.375 L101.25,35.9375 L87.749,35.937 L87.75,43.125 L72.3214286,43.125 L72.3214286,71.875 L65.089,71.875 L65.0892857,86.25 L14.4642857,86.25 L14.464,71.875 L0,71.875 L0,14.375 L14.464,14.375 L14.4642857,0 L72.3214286,0 Z"></path>
                </g>
            </g>
            <g id="tamagui-icon" transform="translate(53.125000, 49.500000) scale(-1, 1) translate(-53.125000, -49.500000) translate(0.125000, 0.000000)" fill="#FFFFFF">
                <g id="guy">
                    <rect id="Rectangle-Copy" x="36" y="0" width="5" height="5"></rect>
                    <rect id="Rectangle-Copy-2" x="43.2" y="0" width="5" height="5"></rect>
                    <rect id="Rectangle-Copy-3" x="50.4" y="0" width="5" height="5"></rect>
                    <rect id="Rectangle-Copy-28" x="57.6" y="0" width="5" height="5"></rect>
                    <rect id="Rectangle-Copy-4" x="64.8" y="0" width="5" height="5"></rect>
                    <rect id="Rectangle-Copy-5" x="72" y="0" width="5" height="5"></rect>
                    <rect id="Rectangle-Copy-6" x="79.2" y="7.17857143" width="5" height="5"></rect>
                    <rect id="Rectangle-Copy-7" x="86.4" y="14.3571429" width="5" height="5"></rect>
                    <rect id="Rectangle-Copy-8" x="93.6" y="21.5357143" width="5" height="5"></rect>
                    <rect id="Rectangle-Copy-10" x="93.6" y="28.7142857" width="5" height="5"></rect>
                    <rect id="Rectangle-Copy-11" x="93.6" y="35.8928571" width="5" height="5"></rect>
                    <rect id="Rectangle-Copy-12" x="93.6" y="43.0714286" width="5" height="5"></rect>
                    <rect id="Rectangle-Copy-13" x="100.8" y="50.25" width="5" height="5"></rect>
                    <rect id="Rectangle-Copy-14" x="100.8" y="57.4285714" width="5" height="5"></rect>
                    <rect id="Rectangle-Copy-15" x="100.8" y="64.6071429" width="5" height="5"></rect>
                    <rect id="Rectangle-Copy-16" x="93.6" y="71.7857143" width="5" height="5"></rect>
                    <rect id="Rectangle-Copy-17" x="86.4" y="78.9642857" width="5" height="5"></rect>
                    <rect id="Rectangle-Copy-18" x="79.2" y="86.1428571" width="5" height="5"></rect>
                    <rect id="Rectangle-Copy-20" x="72" y="93.3214286" width="5" height="5"></rect>
                    <rect id="Rectangle-Copy-21" x="64.8" y="93.3214286" width="5" height="5"></rect>
                    <rect id="Rectangle-Copy-22" x="57.6" y="86.1428571" width="5" height="5"></rect>
                    <rect id="Rectangle-Copy-23" x="50.4" y="86.1428571" width="5" height="5"></rect>
                    <rect id="Rectangle-Copy-24" x="50.4" y="93.3214286" width="5" height="5"></rect>
                    <rect id="Rectangle-Copy-25" x="43.2" y="93.3214286" width="5" height="5"></rect>
                    <rect id="Rectangle-Copy-26" x="36" y="86.1428571" width="5" height="5"></rect>
                    <rect id="Rectangle-Copy-27" x="36" y="78.9642857" width="5" height="5"></rect>
                    <rect id="Rectangle-Copy-29" x="28.8" y="71.7857143" width="5" height="5"></rect>
                    <rect id="Rectangle-Copy-30" x="21.6" y="57.4285714" width="5" height="5"></rect>
                    <rect id="Rectangle-Copy-32" x="21.6" y="64.6071429" width="5" height="5"></rect>
                    <rect id="Rectangle-Copy-31" x="21.6" y="50.25" width="5" height="5"></rect>
                    <rect id="Rectangle-Copy-33" x="14.4" y="43.0714286" width="5" height="5"></rect>
                    <rect id="Rectangle-Copy-34" x="7.2" y="43.0714286" width="5" height="5"></rect>
                    <rect id="Rectangle-Copy-35" x="0" y="35.8928571" width="5" height="5"></rect>
                    <rect id="Rectangle-Copy-36" x="7.2" y="28.7142857" width="5" height="5"></rect>
                    <rect id="Rectangle-Copy-37" x="14.4" y="28.7142857" width="5" height="5"></rect>
                    <rect id="Rectangle-Copy-38" x="21.6" y="28.7142857" width="5" height="5"></rect>
                    <rect id="Rectangle-Copy-39" x="0" y="21.5357143" width="5" height="5"></rect>
                    <rect id="Rectangle-Copy-44" x="0" y="28.7142857" width="5" height="5"></rect>
                    <rect id="Rectangle-Copy-40" x="7.2" y="14.3571429" width="5" height="5"></rect>
                    <rect id="Rectangle-Copy-40" x="7.2" y="14.3571429" width="5" height="5"></rect>
                    <rect id="Rectangle-Copy-41" x="14.4" y="14.3571429" width="5" height="5"></rect>
                    <rect id="Rectangle-Copy-42" x="28.8" y="7.17857143" width="5" height="5"></rect>
                    <rect id="Rectangle-Copy-45" x="36" y="14.3571429" width="5" height="5"></rect>
                    <rect id="Rectangle-Copy-46" x="57.6" y="21.5357143" width="5" height="5"></rect>
                    <rect id="Rectangle-Copy-47" x="57.6" y="50.25" width="5" height="5"></rect>
                    <rect id="Rectangle-Copy-48" x="57.6" y="57.4285714" width="5" height="5"></rect>
                    <rect id="Rectangle-Copy-49" x="64.8" y="64.6071429" width="5" height="5"></rect>
                    <rect id="Rectangle-Copy-50" x="72" y="57.4285714" width="5" height="5"></rect>
                    <rect id="Rectangle-Copy-51" x="72" y="50.25" width="5" height="5"></rect>
                    <rect id="Rectangle-Copy-43" x="21.6" y="14.3571429" width="5" height="5"></rect>
                </g>
            </g>
        </g>
        <ellipse id="Oval" stroke-opacity="0.287478147" stroke="#878787" stroke-width="6" transform="translate(1337.000000, 511.000000) rotate(6.000000) translate(-1337.000000, -511.000000) " cx="1337" cy="511" rx="133" ry="148"></ellipse>
    </g>
</svg>