<?xml version="1.0" encoding="UTF-8"?>
<svg width="319px" height="333px" viewBox="0 0 319 333" version="1.1"
    xmlns="http://www.w3.org/2000/svg" xmlns:xlink="http://www.w3.org/1999/xlink">
    <!-- Generator: Sketch 61 (89581) - https://sketch.com -->
    <title>Path</title>
    <desc>Created with Sketch.</desc>
    <g id="Page-1" stroke="none" stroke-width="1" fill="none" fill-rule="evenodd">
        <path
            d="M67.041794,114 C105.041794,100 34.041794,56 74.041794,36 C114.041794,16 130.944757,27.515453 135.611001,14.4535774 C142.327357,-4.34450663 183.238785,-4.95717663 190.817855,13.5007978 C195.003852,23.6885358 214.274097,28.5034378 224.325617,26.4763398 L224.325617,26.4724336 C227.672101,25.8515657 230.928769,24.8284876 234.029439,23.426624 C240.816081,20.4394068 248.465437,20.0449966 255.522027,22.3254352 C262.581727,24.6058738 275.858675,20.9274913 282.041794,50 C288.224913,79.0725087 262.803158,72.156298 272.041794,100 C281.28043,127.843702 300.041794,113 311.041794,143 C315.82223,156.037554 299.728811,185.841149 310.693489,194.302837 C321.150553,202.390081 320.646733,225.783501 314.574893,235.124075 C310.837936,241.543737 304.816789,246.323185 297.713549,248.502051 C282.082689,252.855989 275.906078,300.974495 234.041794,319 C192.17751,337.025505 142.234075,337.170017 134.650651,318.712043 C129.386914,305.900087 105.661097,301.190925 94.2200292,309.004489 C77.7376512,320.270153 45.2804472,305.271431 49.9976952,285.872309 C50.333513,278.796437 47.8617472,271.873577 43.1133992,266.617677 C38.369032,261.357858 31.7345312,258.187089 24.6630132,257.800205 C2.68650924,256.19532 -7.68098676,229.661547 6.49377124,214.721729 C11.2264448,209.274439 19.041794,194 4.54939924,176.063807 C-9.94299555,158.127614 29.041794,128 67.041794,114 Z"
            id="Path" fill="#6A99FF"></path>
    </g>
</svg>
