<?xml version="1.0" encoding="UTF-8"?>
<svg width="128px" height="128px" viewBox="0 0 128 128" version="1.1" xmlns="http://www.w3.org/2000/svg" xmlns:xlink="http://www.w3.org/1999/xlink">
    <!-- Generator: Sketch 61 (89581) - https://sketch.com -->
    <title>bentoduck</title>
    <desc>Created with Sketch.</desc>
    <g id="bentoduck" stroke="none" stroke-width="1" fill="none" fill-rule="evenodd">
        <g id="Group-Copy-4" transform="translate(9.000000, 6.500000)" fill="#000000">
            <path d="M46,0.5 C60.6735182,-1.13290289 73.3131561,2.12117385 79.998512,10.5835211 C77.1616079,11.0598113 75,13.5274704 75,16.5 C75,19.8137085 77.6862915,22.5 81,22.5 C82.4925809,22.5 83.8578691,21.9549952 84.9077163,21.0531341 C85.854778,24.2420203 86.2388867,26.7209267 86.4957861,29.247842 C89.3620482,28.9191323 91.8781062,29.0789248 94.0446466,29.7267409 C103.876515,32.6665625 99.3085371,39.8391206 95.5861741,46.4577452 C95.3341701,46.9058261 95.0791898,47.3400751 94.8212331,47.7604922 C97.662454,48.2031855 99.4841348,49.3966709 98.4103501,52.5895649 C97.7780488,54.4697101 96.0141329,56.4390053 93.1186025,58.4974504 C98.9548318,70.7913103 107.38824,81.8120747 101.568391,93.7715337 C94.1367812,109.043067 73.0754947,110.5 54.4077353,110.5 C35.7399759,110.5 5.28205266,112.771534 1,87.5 C-3.28205266,62.2284663 12.052459,68.276384 15,54.5 C17.947541,40.723616 12.1752205,45.0270554 12.5876102,28.2635277 C13,11.5 28.3147543,2.46805486 46,0.5 Z M42.2223498,60.7178763 C39.0664035,60.7178763 38.7716742,68.2543992 40.7331061,74.6489087 C38.3355323,75.0167568 36.5,77.0885525 36.5,79.5890598 L36.5,79.5890598 L36.5,93.5890598 C36.5,96.3504836 38.7385763,98.5890598 41.5,98.5890598 L41.5,98.5890598 L63.5,98.5890598 C66.2614237,98.5890598 68.5,96.3504836 68.5,93.5890598 L68.5,93.5890598 L68.5,79.5890598 C68.5,76.8276361 66.2614237,74.5890598 63.5,74.5890598 L63.5,74.5890598 L63.0446294,74.5890723 C62.6499377,76.3497964 61.9986722,77.9548651 61.0908331,79.4042784 C58.1360344,84.1217712 53.0912631,86.3844131 46.2344889,82.8943458 C43.732257,81.620721 41.8601953,78.3233582 40.7331061,74.6489087 C40.9828348,74.609045 41.2390835,74.5890598 41.5,74.5890598 L48.4205365,74.5882805 L48.4085606,74.5685646 C46.0827045,70.5864375 47.1153311,60.7178763 42.2223498,60.7178763 Z M59.6153691,60.7178763 C56.4438987,61.6375521 56.4198268,70.984404 55.8050086,74.5897722 L48.4205365,74.5882805 L48.5200803,74.7508553 C50.9436514,78.5303634 54.1096179,77.1343041 55.3086145,75.9816903 L55.3768545,75.9142111 C55.5559998,75.7318429 55.6907122,75.2600199 55.8050086,74.5897722 L63.0446294,74.5890723 C63.5063555,72.5293068 63.6169539,70.2565229 63.3764245,67.7707207 C63.3764245,62.341727 62.1227394,59.9907789 59.6153691,60.7178763 Z M62,25.5 C56.4771525,25.5 52,29.9771525 52,35.5 C52,41.0228475 56.4771525,45.5 62,45.5 C67.5228475,45.5 72,41.0228475 72,35.5 C72,29.9771525 67.5228475,25.5 62,25.5 Z" id="Path-6"></path>
        </g>
    </g>
</svg>