<?xml version="1.0" encoding="UTF-8"?>
<svg width="128px" height="128px" viewBox="0 0 128 128" version="1.1" xmlns="http://www.w3.org/2000/svg" xmlns:xlink="http://www.w3.org/1999/xlink">
    <!-- Generator: Sketch 61 (89581) - https://sketch.com -->
    <title>bentoduck</title>
    <desc>Created with Sketch.</desc>
    <g id="bentoduck" stroke="none" stroke-width="1" fill="none" fill-rule="evenodd">
        <g id="Group-Copy-4" transform="translate(8.000000, 6.500000)" fill="#000000">
            <path d="M46.807671,0.920981572 C62.0021399,-0.775829261 75.0770371,2.63811501 81.9206306,11.5009683 L82,11.5 C78.6862915,11.5 76,14.1862915 76,17.5 C76,20.8137085 78.6862915,23.5 82,23.5 C83.8474866,23.5 85.4999483,22.6649987 86.6005799,21.3518011 C88.3573066,26.9676424 88.4518046,30.4325602 88.8794685,35.2328958 C92.9857554,35.306488 96.877505,35.6466812 98.4887944,36.1820611 C108.011324,39.346093 102.900401,44.5593321 98.7192989,50.165058 C100.57658,50.8208687 101.541841,52.1167892 100.683757,54.6751838 C100.037854,56.6009571 98.2275286,58.6187127 95.252781,60.7284505 C101.258871,73.4530557 109.983003,84.8531678 103.982861,97.2263988 C96.3363615,112.994676 74.6660729,114.5 55.4585219,114.5 C36.250971,114.5 3.73265448,108.996854 0.506463957,90.7508683 C-2.71972656,72.5048828 11.9772665,66.4585382 14.9112839,56.677463 C17.8453014,46.8963878 12.4291382,42.9461754 12.4291382,29.5875856 C12.4291382,16.2289957 28.6110438,2.95305221 46.807671,0.920981572 Z M57.4543753,61.5 C53.1782648,61.5 54.8930717,78.3378424 53.2604576,79.7821474 C51.6278435,81.2264525 46.6062191,82.859811 43.9901096,78.3378424 C41.3740001,73.8158739 44.9551005,61.5 39.040637,61.5 C33.1261736,61.5 34.9242494,82.0282285 42.1834173,86.1235962 C49.4425851,90.218964 55.6597257,88.8531652 58.7879283,83.3174933 C60.8733967,79.6270454 61.7561374,75.1132328 61.4361503,69.7760557 C61.632374,64.2586852 60.3051157,61.5 57.4543753,61.5 Z M63.5,27.5 C58.2532949,27.5 54,31.7532949 54,37 C54,42.2467051 58.2532949,46.5 63.5,46.5 C68.7467051,46.5 73,42.2467051 73,37 C73,31.7532949 68.7467051,27.5 63.5,27.5 Z" id="Path-6"></path>
        </g>
    </g>
</svg>