<?xml version="1.0" encoding="UTF-8"?>
<svg width="626px" height="626px" viewBox="0 0 626 626" version="1.1" xmlns="http://www.w3.org/2000/svg" xmlns:xlink="http://www.w3.org/1999/xlink">
    <!-- Generator: Sketch 61 (89581) - https://sketch.com -->
    <title>Artboard</title>
    <desc>Created with Sketch.</desc>
    <g id="Artboard" stroke="none" stroke-width="1" fill="none" fill-rule="evenodd">
        <path d="M197,115 C266,87 301.930729,77.7809183 347.097803,86.8047704 C392.264876,95.8286226 555.330365,150.179578 587,210 C596,227 591,357.520335 591,391.359781 C591,425.199227 588.570152,422.629121 568.416463,438.735005 C548.262774,454.840889 460.015487,513.181785 392.264876,544.765268 C324.514266,576.34875 279.347192,560.557009 243.213533,544.765268 C207.079875,528.973527 62.5452392,445.502894 51.2534708,438.735005 C39.9617024,431.967116 36.6786837,424.052771 35.444995,407.151522 C34.2113064,390.250274 35.9933011,276.449924 35.444995,222.162553 C34.896689,167.875182 128,143 197,115 Z M136.970595,352.877974 C136.029084,354.459554 135.37632,356.195958 135.042788,358.006094 C132.613315,371.191281 138.647563,384.49536 150.167922,391.353409 L200.74862,421.464003 C208.116172,425.849894 217.64422,423.432779 222.030111,416.065226 C222.971622,414.483646 223.624386,412.747243 223.957918,410.937106 C226.387391,397.751919 220.353142,384.44784 208.832784,377.589792 L158.252086,347.479197 C150.884534,343.093306 141.356485,345.510421 136.970595,352.877974 Z M311,338 C295.536027,338 283,353.222319 283,372 C283,390.777681 295.536027,406 311,406 C326.463973,406 339,390.777681 339,372 C339,353.222319 326.463973,338 311,338 Z M98,240 C84.1928813,240 73,253.879173 73,271 C73,288.120827 84.1928813,302 98,302 C111.807119,302 123,288.120827 123,271 C123,253.879173 111.807119,240 98,240 Z" id="Path-22" fill="#000000"></path>
    </g>
</svg>