<?xml version="1.0" encoding="UTF-8"?>
<svg width="503px" height="503px" viewBox="0 0 503 503" version="1.1" xmlns="http://www.w3.org/2000/svg" xmlns:xlink="http://www.w3.org/1999/xlink">
    <!-- Generator: Sketch 61 (89581) - https://sketch.com -->
    <title>Artboard</title>
    <desc>Created with Sketch.</desc>
    <g id="Artboard" stroke="none" stroke-width="1" fill="none" fill-rule="evenodd">
        <g id="Group" transform="translate(21.000000, 23.000000)" fill="#000000">
            <path d="M104.11965,-1.60669371e-15 L116.88035,2.41004057e-15 C142.399901,-2.27782481e-15 159.61685,4.22356531 174.44648,12.154538 C189.276109,20.0855107 200.914489,31.7238909 208.845462,46.5535205 C216.776435,61.3831501 221,78.6000993 221,104.11965 L221,116.88035 C221,142.399901 216.776435,159.61685 208.845462,174.44648 C200.914489,189.276109 189.276109,200.914489 174.44648,208.845462 C159.61685,216.776435 142.399901,221 116.88035,221 L104.11965,221 C78.6000993,221 61.3831501,216.776435 46.5535205,208.845462 C31.7238909,200.914489 20.0855107,189.276109 12.154538,174.44648 C4.22356531,159.61685 7.59274935e-16,142.399901 -8.03346857e-16,116.88035 L1.60669371e-15,104.11965 C-1.51854987e-15,78.6000993 4.22356531,61.3831501 12.154538,46.5535205 C20.0855107,31.7238909 31.7238909,20.0855107 46.5535205,12.154538 C61.3831501,4.22356531 78.6000993,1.51854987e-15 104.11965,-1.60669371e-15 Z" id="Rectangle"></path>
            <path d="M344.11965,-1.60669371e-15 L356.88035,2.41004057e-15 C382.399901,-2.27782481e-15 399.61685,4.22356531 414.44648,12.154538 C429.276109,20.0855107 440.914489,31.7238909 448.845462,46.5535205 C456.776435,61.3831501 461,78.6000993 461,104.11965 L461,116.88035 C461,142.399901 456.776435,159.61685 448.845462,174.44648 C440.914489,189.276109 429.276109,200.914489 414.44648,208.845462 C399.61685,216.776435 382.399901,221 356.88035,221 L344.11965,221 C318.600099,221 301.38315,216.776435 286.55352,208.845462 C271.723891,200.914489 260.085511,189.276109 252.154538,174.44648 C244.223565,159.61685 240,142.399901 240,116.88035 L240,104.11965 C240,78.6000993 244.223565,61.3831501 252.154538,46.5535205 C260.085511,31.7238909 271.723891,20.0855107 286.55352,12.154538 C301.38315,4.22356531 318.600099,1.51854987e-15 344.11965,-1.60669371e-15 Z" id="Rectangle-Copy"></path>
        </g>
        <g id="Group-Copy" transform="translate(21.000000, 261.000000)" fill="#000000">
            <path d="M104.11965,-1.60669371e-15 L116.88035,2.41004057e-15 C142.399901,-2.27782481e-15 159.61685,4.22356531 174.44648,12.154538 C189.276109,20.0855107 200.914489,31.7238909 208.845462,46.5535205 C216.776435,61.3831501 221,78.6000993 221,104.11965 L221,116.88035 C221,142.399901 216.776435,159.61685 208.845462,174.44648 C200.914489,189.276109 189.276109,200.914489 174.44648,208.845462 C159.61685,216.776435 142.399901,221 116.88035,221 L104.11965,221 C78.6000993,221 61.3831501,216.776435 46.5535205,208.845462 C31.7238909,200.914489 20.0855107,189.276109 12.154538,174.44648 C4.22356531,159.61685 7.59274935e-16,142.399901 -8.03346857e-16,116.88035 L1.60669371e-15,104.11965 C-1.51854987e-15,78.6000993 4.22356531,61.3831501 12.154538,46.5535205 C20.0855107,31.7238909 31.7238909,20.0855107 46.5535205,12.154538 C61.3831501,4.22356531 78.6000993,1.51854987e-15 104.11965,-1.60669371e-15 Z" id="Rectangle"></path>
            <path d="M344.11965,-1.60669371e-15 L356.88035,2.41004057e-15 C382.399901,-2.27782481e-15 399.61685,4.22356531 414.44648,12.154538 C429.276109,20.0855107 440.914489,31.7238909 448.845462,46.5535205 C456.776435,61.3831501 461,78.6000993 461,104.11965 L461,116.88035 C461,142.399901 456.776435,159.61685 448.845462,174.44648 C440.914489,189.276109 429.276109,200.914489 414.44648,208.845462 C399.61685,216.776435 382.399901,221 356.88035,221 L344.11965,221 C318.600099,221 301.38315,216.776435 286.55352,208.845462 C271.723891,200.914489 260.085511,189.276109 252.154538,174.44648 C244.223565,159.61685 240,142.399901 240,116.88035 L240,104.11965 C240,78.6000993 244.223565,61.3831501 252.154538,46.5535205 C260.085511,31.7238909 271.723891,20.0855107 286.55352,12.154538 C301.38315,4.22356531 318.600099,1.51854987e-15 344.11965,-1.60669371e-15 Z" id="Rectangle-Copy"></path>
        </g>
    </g>
</svg>