<svg xmlns="http://www.w3.org/2000/svg" viewBox="0 0 256 256"><rect width="256" height="256" fill="none"/><path d="M216,112c0,48.6-56,120-88,120S40,160.6,40,112a88,88,0,0,1,176,0Z" fill="none" stroke="#000" stroke-linecap="round" stroke-linejoin="round" stroke-width="12"/><path d="M80,104h0a32,32,0,0,1,32,32v4a8,8,0,0,1-8,8h0a32,32,0,0,1-32-32v-4A8,8,0,0,1,80,104Z" transform="translate(184 252) rotate(-180)" fill="none" stroke="#000" stroke-linecap="round" stroke-linejoin="round" stroke-width="12"/><path d="M176,104h0a8,8,0,0,1,8,8v4a32,32,0,0,1-32,32h0a8,8,0,0,1-8-8v-4a32,32,0,0,1,32-32Z" fill="none" stroke="#000" stroke-linecap="round" stroke-linejoin="round" stroke-width="12"/><line x1="112" y1="184" x2="144" y2="184" fill="none" stroke="#000" stroke-linecap="round" stroke-linejoin="round" stroke-width="12"/></svg>