<svg xmlns="http://www.w3.org/2000/svg" viewBox="0 0 256 256"><rect width="256" height="256" fill="none"/><path d="M96,48h64a48,48,0,0,1,48,48V216a8,8,0,0,1-8,8H56a8,8,0,0,1-8-8V96A48,48,0,0,1,96,48Z" fill="none" stroke="#000" stroke-linecap="round" stroke-linejoin="round" stroke-width="12"/><path d="M80,224V152a16,16,0,0,1,16-16h64a16,16,0,0,1,16,16v72" fill="none" stroke="#000" stroke-linecap="round" stroke-linejoin="round" stroke-width="12"/><path d="M96,48V32a16,16,0,0,1,16-16h32a16,16,0,0,1,16,16V48" fill="none" stroke="#000" stroke-linecap="round" stroke-linejoin="round" stroke-width="12"/><line x1="112" y1="88" x2="144" y2="88" fill="none" stroke="#000" stroke-linecap="round" stroke-linejoin="round" stroke-width="12"/><line x1="80" y1="168" x2="176" y2="168" fill="none" stroke="#000" stroke-linecap="round" stroke-linejoin="round" stroke-width="12"/><line x1="144" y1="168" x2="144" y2="184" fill="none" stroke="#000" stroke-linecap="round" stroke-linejoin="round" stroke-width="12"/></svg>