<svg xmlns="http://www.w3.org/2000/svg" viewBox="0 0 256 256"><rect width="256" height="256" fill="none"/><circle cx="128" cy="128" r="32" fill="none" stroke="#000" stroke-linecap="round" stroke-linejoin="round" stroke-width="12"/><path d="M77.1,178.9A71.6,71.6,0,0,1,61.7,156a71.6,71.6,0,0,1,0-56A71.6,71.6,0,0,1,77.1,77.1" fill="none" stroke="#000" stroke-linecap="round" stroke-linejoin="round" stroke-width="12"/><path d="M178.9,77.1A71.6,71.6,0,0,1,194.3,100a71.6,71.6,0,0,1,0,56,71.6,71.6,0,0,1-15.4,22.9" fill="none" stroke="#000" stroke-linecap="round" stroke-linejoin="round" stroke-width="12"/><path d="M48.8,207.2a112.9,112.9,0,0,1-24-35.6,112.4,112.4,0,0,1,0-87.2,112.9,112.9,0,0,1,24-35.6" fill="none" stroke="#000" stroke-linecap="round" stroke-linejoin="round" stroke-width="12"/><path d="M207.2,48.8a112.9,112.9,0,0,1,24,35.6,112.4,112.4,0,0,1,0,87.2,112.9,112.9,0,0,1-24,35.6" fill="none" stroke="#000" stroke-linecap="round" stroke-linejoin="round" stroke-width="12"/></svg>