<svg xmlns="http://www.w3.org/2000/svg" viewBox="0 0 256 256"><rect width="256" height="256" fill="none"/><line x1="96" y1="104" x2="160" y2="104" fill="none" stroke="#000" stroke-linecap="round" stroke-linejoin="round" stroke-width="12"/><line x1="96" y1="136" x2="160" y2="136" fill="none" stroke="#000" stroke-linecap="round" stroke-linejoin="round" stroke-width="12"/><path d="M149.7,195.9l-14.8,24.7a8.1,8.1,0,0,1-13.8,0l-14.8-24.7a7.9,7.9,0,0,0-6.8-3.9H40a8,8,0,0,1-8-8V56a8,8,0,0,1,8-8H216a8,8,0,0,1,8,8V184a8,8,0,0,1-8,8H156.5A7.9,7.9,0,0,0,149.7,195.9Z" fill="none" stroke="#000" stroke-linecap="round" stroke-linejoin="round" stroke-width="12"/></svg>