<svg xmlns="http://www.w3.org/2000/svg" viewBox="0 0 256 256"><rect width="256" height="256" fill="none"/><path d="M88,148a68,68,0,1,1,68,68H76a44,44,0,0,1,0-88,42.5,42.5,0,0,1,14.3,2.4" fill="none" stroke="#000" stroke-linecap="round" stroke-linejoin="round" stroke-width="12"/><path d="M47,138.9A64.1,64.1,0,0,1,9.6,94.4h0A68.3,68.3,0,0,0,24,96,64.1,64.1,0,0,0,88,32a68.3,68.3,0,0,0-1.6-14.4h0A64,64,0,0,1,136,80c0,1,0,2-.1,3" fill="none" stroke="#000" stroke-linecap="round" stroke-linejoin="round" stroke-width="12"/></svg>