<svg xmlns="http://www.w3.org/2000/svg" viewBox="0 0 256 256"><rect width="256" height="256" fill="none"/><line x1="164" y1="168" x2="200" y2="216" fill="none" stroke="#000" stroke-linecap="round" stroke-linejoin="round" stroke-width="12"/><line x1="200" y1="168" x2="164" y2="216" fill="none" stroke="#000" stroke-linecap="round" stroke-linejoin="round" stroke-width="12"/><path d="M72,168v32a16,16,0,0,1-32,0" fill="none" stroke="#000" stroke-linecap="round" stroke-linejoin="round" stroke-width="12"/><path d="M104,212a25.2,25.2,0,0,0,15,5c9,0,17-3,17-13,0-16-32-9-32-24,0-8,6-13,15-13a25.2,25.2,0,0,1,15,5" fill="none" stroke="#000" stroke-linecap="round" stroke-linejoin="round" stroke-width="12"/><path d="M48,128V40a8,8,0,0,1,8-8h96l56,56v40" fill="none" stroke="#000" stroke-linecap="round" stroke-linejoin="round" stroke-width="12"/><polyline points="152 32 152 88 208 88" fill="none" stroke="#000" stroke-linecap="round" stroke-linejoin="round" stroke-width="12"/></svg>