<svg xmlns="http://www.w3.org/2000/svg" viewBox="0 0 256 256"><rect width="256" height="256" fill="none"/><polyline points="172 168 192 216 212 168" fill="none" stroke="#000" stroke-linecap="round" stroke-linejoin="round" stroke-width="12"/><path d="M80,210.5A21,21,0,0,1,66,216c-12.2,0-22-10.7-22-24s9.8-24,22-24a21,21,0,0,1,14,5.5" fill="none" stroke="#000" stroke-linecap="round" stroke-linejoin="round" stroke-width="12"/><path d="M112,212a25.2,25.2,0,0,0,15,5c9,0,17-3,17-13,0-16-32-9-32-24,0-8,6-13,15-13a25.2,25.2,0,0,1,15,5" fill="none" stroke="#000" stroke-linecap="round" stroke-linejoin="round" stroke-width="12"/><path d="M48,128V40a8,8,0,0,1,8-8h96l56,56v40" fill="none" stroke="#000" stroke-linecap="round" stroke-linejoin="round" stroke-width="12"/><polyline points="152 32 152 88 208 88" fill="none" stroke="#000" stroke-linecap="round" stroke-linejoin="round" stroke-width="12"/></svg>