<svg xmlns="http://www.w3.org/2000/svg" viewBox="0 0 256 256"><rect width="256" height="256" fill="none"/><path d="M220,176v32a8,8,0,0,1-8,8H188a8,8,0,0,1-8-8V176" fill="none" stroke="#000" stroke-linecap="round" stroke-linejoin="round" stroke-width="12"/><path d="M76,176v32a8,8,0,0,1-8,8H44a8,8,0,0,1-8-8V176" fill="none" stroke="#000" stroke-linecap="round" stroke-linejoin="round" stroke-width="12"/><line x1="16" y1="96" x2="240" y2="96" fill="none" stroke="#000" stroke-linecap="round" stroke-linejoin="round" stroke-width="12"/><line x1="144" y1="128" x2="144" y2="176" fill="none" stroke="#000" stroke-linecap="round" stroke-linejoin="round" stroke-width="12"/><line x1="112" y1="128" x2="112" y2="176" fill="none" stroke="#000" stroke-linecap="round" stroke-linejoin="round" stroke-width="12"/><path d="M220,176H36V96l7-49.1A8,8,0,0,1,50.9,40H205.1a8,8,0,0,1,7.9,6.9L220,96Z" fill="none" stroke="#000" stroke-linecap="round" stroke-linejoin="round" stroke-width="12"/><circle cx="184" cy="132" r="10"/><circle cx="72" cy="132" r="10"/></svg>