<svg xmlns="http://www.w3.org/2000/svg" viewBox="0 0 256 256"><rect width="256" height="256" fill="none"/><line x1="88" y1="232" x2="168" y2="232" fill="none" stroke="#000" stroke-linecap="round" stroke-linejoin="round" stroke-width="12"/><line x1="128" y1="200" x2="128" y2="144" fill="none" stroke="#000" stroke-linecap="round" stroke-linejoin="round" stroke-width="12"/><polyline points="96 112 128 144 160 112" fill="none" stroke="#000" stroke-linecap="round" stroke-linejoin="round" stroke-width="12"/><path d="M78.7,167A79.5,79.5,0,0,1,48,104.5C47.8,61.1,82.7,25,126.1,24a80,80,0,0,1,51.3,142.9A24.2,24.2,0,0,0,168,186v6a8,8,0,0,1-8,8H96a8,8,0,0,1-8-8v-6A24.4,24.4,0,0,0,78.7,167Z" fill="none" stroke="#000" stroke-linecap="round" stroke-linejoin="round" stroke-width="12"/></svg>