<svg xmlns="http://www.w3.org/2000/svg" viewBox="0 0 256 256"><rect width="256" height="256" fill="none"/><line x1="152" y1="96" x2="208" y2="96" fill="none" stroke="#000" stroke-linecap="round" stroke-linejoin="round" stroke-width="12"/><line x1="152" y1="160" x2="208" y2="160" fill="none" stroke="#000" stroke-linecap="round" stroke-linejoin="round" stroke-width="12"/><path d="M64,72V40a8,8,0,0,1,8-8H200a8,8,0,0,1,8,8V216a8,8,0,0,1-8,8H72a8,8,0,0,1-8-8V184" fill="none" stroke="#000" stroke-linecap="round" stroke-linejoin="round" stroke-width="12"/><line x1="136" y1="184" x2="136" y2="224" fill="none" stroke="#000" stroke-linecap="round" stroke-linejoin="round" stroke-width="12"/><line x1="136" y1="32" x2="136" y2="72" fill="none" stroke="#000" stroke-linecap="round" stroke-linejoin="round" stroke-width="12"/><rect x="32" y="72" width="120" height="112" rx="8" fill="none" stroke="#000" stroke-linecap="round" stroke-linejoin="round" stroke-width="12"/><line x1="74" y1="104" x2="110" y2="152" fill="none" stroke="#000" stroke-linecap="round" stroke-linejoin="round" stroke-width="12"/><line x1="110" y1="104" x2="74" y2="152" fill="none" stroke="#000" stroke-linecap="round" stroke-linejoin="round" stroke-width="12"/></svg>