<svg xmlns="http://www.w3.org/2000/svg" viewBox="0 0 256 256"><rect width="256" height="256" fill="none"/><line x1="128" y1="200" x2="128" y2="232" fill="none" stroke="#000" stroke-linecap="round" stroke-linejoin="round" stroke-width="12"/><line x1="48" y1="40" x2="208" y2="216" fill="none" stroke="#000" stroke-linecap="round" stroke-linejoin="round" stroke-width="12"/><path d="M154.9,157.6A39.6,39.6,0,0,1,128,168h0a40,40,0,0,1-40-40V84" fill="none" stroke="#000" stroke-linecap="round" stroke-linejoin="round" stroke-width="12"/><path d="M176.4,181.3A72,72,0,0,1,56.4,136" fill="none" stroke="#000" stroke-linecap="round" stroke-linejoin="round" stroke-width="12"/><path d="M199.6,136a72.4,72.4,0,0,1-6.2,22.3" fill="none" stroke="#000" stroke-linecap="round" stroke-linejoin="round" stroke-width="12"/><path d="M94,43a39.8,39.8,0,0,1,34-19h0a40,40,0,0,1,40,40v60.4" fill="none" stroke="#000" stroke-linecap="round" stroke-linejoin="round" stroke-width="12"/></svg>