<svg xmlns="http://www.w3.org/2000/svg" viewBox="0 0 256 256"><rect width="256" height="256" fill="none"/><path d="M224,177.3V78.7a8.1,8.1,0,0,0-4.1-7l-88-49.5a7.8,7.8,0,0,0-7.8,0l-88,49.5a8.1,8.1,0,0,0-4.1,7v98.6a8.1,8.1,0,0,0,4.1,7l88,49.5a7.8,7.8,0,0,0,7.8,0l88-49.5A8.1,8.1,0,0,0,224,177.3Z" fill="none" stroke="#000" stroke-linecap="round" stroke-linejoin="round" stroke-width="12"/><polyline points="177 152.5 177 100.5 80 47" fill="none" stroke="#000" stroke-linecap="round" stroke-linejoin="round" stroke-width="12"/><polyline points="222.9 74.6 128.9 128 33.1 74.6" fill="none" stroke="#000" stroke-linecap="round" stroke-linejoin="round" stroke-width="12"/><line x1="128.9" y1="128" x2="128" y2="234.8" fill="none" stroke="#000" stroke-linecap="round" stroke-linejoin="round" stroke-width="12"/></svg>