<svg xmlns="http://www.w3.org/2000/svg" viewBox="0 0 256 256"><rect width="256" height="256" fill="none"/><circle cx="127.9" cy="44" r="28" fill="none" stroke="#000" stroke-linecap="round" stroke-linejoin="round" stroke-width="12"/><path d="M153.9,134.7l34.8,27a12,12,0,0,0,16.9-16.9L166,93.9A19.9,19.9,0,0,0,151.9,88h-48a20.3,20.3,0,0,0-14.2,5.9L50.1,144.8a12,12,0,0,0,17,16.9l34.8-27L74.1,222.3a12,12,0,0,0,21.8,10.2l32-50.4h0l32,50.4a12,12,0,1,0,21.7-10.2Z" fill="none" stroke="#000" stroke-linecap="round" stroke-linejoin="round" stroke-width="12"/></svg>