<svg xmlns="http://www.w3.org/2000/svg" viewBox="0 0 256 256"><rect width="256" height="256" fill="none"/><path d="M23.4,75.7a7.9,7.9,0,0,1,2.2-10.8,175.8,175.8,0,0,1,204.8,0,7.9,7.9,0,0,1,2.2,10.8L134.7,229.4a7.9,7.9,0,0,1-13.4,0Z" fill="none" stroke="#000" stroke-linecap="round" stroke-linejoin="round" stroke-width="12"/><path d="M36.7,96.6a144.1,144.1,0,0,1,182.6,0" fill="none" stroke="#000" stroke-linecap="round" stroke-linejoin="round" stroke-width="12"/><path d="M164.3,182.9a28,28,0,1,1,28.8-45.3" fill="none" stroke="#000" stroke-linecap="round" stroke-linejoin="round" stroke-width="12"/><path d="M57.9,129.8A28,28,0,1,1,84,168H82.2" fill="none" stroke="#000" stroke-linecap="round" stroke-linejoin="round" stroke-width="12"/></svg>