<svg xmlns="http://www.w3.org/2000/svg" viewBox="0 0 256 256"><rect width="256" height="256" fill="none"/><circle cx="128" cy="128" r="96" fill="none" stroke="#000" stroke-linecap="round" stroke-linejoin="round" stroke-width="12"/><polygon points="128 86 88.1 115 103.3 162 152.7 162 167.9 115 128 86" fill="none" stroke="#000" stroke-linecap="round" stroke-linejoin="round" stroke-width="12"/><line x1="128" y1="64" x2="128" y2="86" fill="none" stroke="#000" stroke-linecap="round" stroke-linejoin="round" stroke-width="12"/><polyline points="163 38.6 128 64 93 38.6" fill="none" stroke="#000" stroke-linecap="round" stroke-linejoin="round" stroke-width="12"/><line x1="67.1" y1="108.2" x2="88.1" y2="115" fill="none" stroke="#000" stroke-linecap="round" stroke-linejoin="round" stroke-width="12"/><polyline points="53.8 67.1 67.1 108.2 32.1 133.7" fill="none" stroke="#000" stroke-linecap="round" stroke-linejoin="round" stroke-width="12"/><line x1="90.4" y1="179.8" x2="103.3" y2="162" fill="none" stroke="#000" stroke-linecap="round" stroke-linejoin="round" stroke-width="12"/><polyline points="47.1 179.8 90.4 179.8 103.8 220.9" fill="none" stroke="#000" stroke-linecap="round" stroke-linejoin="round" stroke-width="12"/><line x1="165.6" y1="179.8" x2="152.7" y2="162" fill="none" stroke="#000" stroke-linecap="round" stroke-linejoin="round" stroke-width="12"/><polyline points="152.2 220.9 165.6 179.8 208.9 179.8" fill="none" stroke="#000" stroke-linecap="round" stroke-linejoin="round" stroke-width="12"/><line x1="188.9" y1="108.2" x2="167.9" y2="115" fill="none" stroke="#000" stroke-linecap="round" stroke-linejoin="round" stroke-width="12"/><polyline points="223.9 133.7 188.9 108.2 202.2 67.1" fill="none" stroke="#000" stroke-linecap="round" stroke-linejoin="round" stroke-width="12"/></svg>