<svg xmlns="http://www.w3.org/2000/svg" viewBox="0 0 32 32" height="64" width="64"><title>coding-apps-websites-phone-tablet</title><g><rect x="29.71" y="24.38" width="1.53" height="1.52" fill="#ffffff"></rect><rect x="28.19" y="22.85" width="1.52" height="1.53" fill="#ffffff"></rect><rect x="28.19" y="25.9" width="1.52" height="1.53" fill="#ffffff"></rect><rect x="26.66" y="21.33" width="1.53" height="1.52" fill="#ffffff"></rect><rect x="26.66" y="27.43" width="1.53" height="1.52" fill="#ffffff"></rect><rect x="25.14" y="19.81" width="1.52" height="1.52" fill="#ffffff"></rect><rect x="25.14" y="25.9" width="1.52" height="1.53" fill="#ffffff"></rect><rect x="23.62" y="18.28" width="1.52" height="1.53" fill="#ffffff"></rect><rect x="23.62" y="24.38" width="1.52" height="1.52" fill="#ffffff"></rect><rect x="22.09" y="16.76" width="1.53" height="1.52" fill="#ffffff"></rect><rect x="22.09" y="22.85" width="1.53" height="1.53" fill="#ffffff"></rect><polygon points="20.57 21.33 20.57 19.81 19.05 19.81 19.05 21.33 20.56 21.33 20.56 22.85 22.09 22.85 22.09 21.33 20.57 21.33" fill="#ffffff"></polygon><path d="M2.28,1.52H.76V30.47H2.28V32H20.56V30.47h1.53V25.9H20.56v3.05H2.28V3.04H6.85V4.57h9.14V3.04h4.57v9.15h1.53V1.52H20.56V0H2.28Zm9.14,0h3.05V3.04H11.42Zm-3.05,0H9.9V3.04H8.37Z" fill="#ffffff"></path><rect x="17.52" y="18.28" width="1.53" height="1.53" fill="#ffffff"></rect><rect x="16" y="7.62" width="3.05" height="3.04" fill="#ffffff"></rect><polygon points="20.56 15.23 20.56 16.76 22.09 16.76 22.09 15.23 20.57 15.23 20.57 13.71 16 13.71 16 18.28 17.52 18.28 17.52 15.23 20.56 15.23" fill="#ffffff"></polygon><rect x="9.9" y="7.62" width="3.05" height="3.04" fill="#ffffff"></rect><polygon points="12.95 24.38 12.95 22.85 14.47 22.85 14.47 21.33 12.95 21.33 12.95 19.81 11.43 19.81 11.43 21.33 9.9 21.33 9.9 22.85 11.43 22.85 11.43 24.38 12.95 24.38" fill="#ffffff"></polygon><rect x="9.9" y="13.71" width="3.05" height="3.05" fill="#ffffff"></rect><rect x="3.81" y="7.62" width="3.05" height="3.04" fill="#ffffff"></rect><rect x="3.81" y="13.71" width="3.05" height="3.05" fill="#ffffff"></rect><rect x="3.81" y="19.81" width="3.05" height="3.04" fill="#ffffff"></rect></g></svg>