<svg xmlns="http://www.w3.org/2000/svg" viewBox="0 0 32 32" height="64" width="64"><title>coding-apps-websites-plugin</title><g><polygon points="30.48 6.1 28.96 6.1 28.96 7.62 27.43 7.62 27.43 9.15 28.96 9.15 28.96 10.67 30.48 10.67 30.48 9.15 32 9.15 32 7.62 30.48 7.62 30.48 6.1" fill="#ffffff"></polygon><path d="M30.48,18.29H28.96V16.77H25.91v-6.1H15.24v6.1H4.57v1.52H3.05v1.52H1.53v1.53H0v1.52H4.57V32H27.43V22.86H32V19.81H30.48Zm-13.72-6.1h7.62v4.58H16.76Zm1.53,18.29H6.1V22.86H16.76V21.34h1.53Zm7.62,0h-6.1V18.29h6.1Z" fill="#ffffff"></path><rect x="19.81" y="3.05" width="1.53" height="1.53" fill="#ffffff"></rect><polygon points="16.76 0 16.76 7.62 24.38 7.62 24.38 6.1 22.86 6.1 22.86 4.58 21.34 4.58 21.34 6.1 18.29 6.1 18.29 3.05 19.81 3.05 19.81 1.53 18.29 1.53 18.29 0 16.76 0" fill="#ffffff"></polygon><rect x="12.19" y="7.62" width="1.53" height="4.57" fill="#ffffff"></rect><rect x="10.67" y="12.19" width="1.52" height="1.53" fill="#ffffff"></rect><rect x="10.67" y="6.1" width="1.52" height="1.52" fill="#ffffff"></rect><rect x="6.1" y="13.72" width="4.57" height="1.52" fill="#ffffff"></rect><rect x="6.1" y="4.58" width="4.57" height="1.52" fill="#ffffff"></rect><rect x="4.57" y="12.19" width="1.53" height="1.53" fill="#ffffff"></rect><rect x="4.57" y="6.1" width="1.53" height="1.52" fill="#ffffff"></rect><rect x="3.05" y="7.62" width="1.52" height="4.57" fill="#ffffff"></rect><rect x="1.53" y="1.53" width="1.52" height="1.52" fill="#ffffff"></rect></g></svg>