<svg xmlns="http://www.w3.org/2000/svg" viewBox="0 0 32 32" height="64" width="64"><title>coding-apps-websites-conference</title><g><path d="M1.52,24.38H30.47V25.9H32V22.86H28.95V6.09H27.42V22.86H25.9V21.33H24.38v1.53H15.23V21.33H13.71v1.53H12.19V6.09H27.42V4.57H4.57V6.09h6.09v6.1H4.57V6.09H3.04V22.86H0V25.9H1.52Zm3.05-9.14h6.09v6.09H4.57Z" fill="#ffffff"></path><rect x="1.52" y="25.9" width="28.95" height="1.53" fill="#ffffff"></rect><rect x="21.33" y="19.81" width="3.05" height="1.52" fill="#ffffff"></rect><rect x="21.33" y="16.76" width="1.52" height="1.52" fill="#ffffff"></rect><rect x="18.28" y="18.28" width="3.05" height="1.53" fill="#ffffff"></rect><rect x="15.23" y="19.81" width="3.05" height="1.52" fill="#ffffff"></rect><rect x="16.76" y="16.76" width="1.52" height="1.52" fill="#ffffff"></rect><polygon points="22.85 13.71 22.85 16.76 24.38 16.76 24.38 12.19 22.85 12.19 22.85 10.66 21.33 10.66 21.33 9.14 18.28 9.14 18.28 10.66 16.76 10.66 16.76 12.19 15.23 12.19 15.23 16.76 16.76 16.76 16.76 13.71 22.85 13.71" fill="#ffffff"></polygon><rect x="6.09" y="18.28" width="3.05" height="1.53" fill="#ffffff"></rect><rect x="6.09" y="9.14" width="3.05" height="1.52" fill="#ffffff"></rect></g></svg>