<svg xmlns="http://www.w3.org/2000/svg" viewBox="0 0 32 32" height="64" width="64"><title>computers-devices-electronics-flash-drive-2</title><g><polygon points="10.665 7.62 10.665 1.53 9.145 1.53 9.145 7.62 7.615 7.62 7.615 28.96 9.145 28.96 9.145 9.15 22.855 9.15 22.855 28.96 24.385 28.96 24.385 7.62 22.855 7.62 22.855 1.53 21.335 1.53 21.335 7.62 10.665 7.62" fill="#ffffff"></polygon><rect x="21.335" y="28.96" width="1.52" height="1.52" fill="#ffffff"></rect><rect x="19.805" y="15.24" width="1.53" height="3.05" fill="#ffffff"></rect><rect x="10.665" y="30.48" width="10.67" height="1.52" fill="#ffffff"></rect><rect x="18.285" y="18.29" width="1.52" height="1.52" fill="#ffffff"></rect><polygon points="16.765 10.67 15.235 10.67 15.235 19.81 13.715 19.81 13.715 24.38 18.285 24.38 18.285 19.81 16.765 19.81 16.765 10.67" fill="#ffffff"></polygon><rect x="12.195" y="3.05" width="7.61" height="1.52" fill="#ffffff"></rect><rect x="12.195" y="18.29" width="1.52" height="1.52" fill="#ffffff"></rect><rect x="10.665" width="10.67" height="1.53" fill="#ffffff"></rect><rect x="10.665" y="13.72" width="1.53" height="4.57" fill="#ffffff"></rect><rect x="9.145" y="28.96" width="1.52" height="1.52" fill="#ffffff"></rect></g></svg>