<svg xmlns="http://www.w3.org/2000/svg" viewBox="0 0 32 32" height="64" width="64"><title>computers-devices-electronics-keyboard-button</title><g><path d="M30.48,28.95H28.96v1.53H18.29V27.43h9.14V16.76h1.53V15.24H25.91V3.05H24.39V13.71H22.86v1.53H10.67V13.71H9.15v1.53H0V28.95H1.53V27.43H13.72v1.52h1.52V27.43h1.53v1.52H15.24v1.53H3.05V32H32V18.29H30.48ZM12.2,25.9H1.53V16.76H12.2Zm3.04,0V16.76H25.91V25.9Z" fill="#ffffff"></path><rect x="28.96" y="16.76" width="1.52" height="1.53" fill="#ffffff"></rect><rect x="27.43" y="27.43" width="1.53" height="1.52" fill="#ffffff"></rect><rect x="22.86" y="1.52" width="1.53" height="1.53" fill="#ffffff"></rect><rect x="21.34" y="19.81" width="1.52" height="1.52" fill="#ffffff"></rect><rect x="21.34" y="12.19" width="1.52" height="1.52" fill="#ffffff"></rect><rect x="19.81" y="18.29" width="1.53" height="1.52" fill="#ffffff"></rect><polygon points="22.86 22.86 18.29 22.86 18.29 21.33 16.77 21.33 16.77 24.38 24.39 24.38 24.39 21.33 22.86 21.33 22.86 22.86" fill="#ffffff"></polygon><rect x="18.29" y="19.81" width="1.52" height="1.52" fill="#ffffff"></rect><polygon points="16.77 3.05 15.24 3.05 15.24 4.57 13.72 4.57 13.72 3.05 12.2 3.05 12.2 4.57 10.67 4.57 10.67 6.1 12.2 6.1 12.2 7.62 13.72 7.62 13.72 9.14 15.24 9.14 15.24 7.62 16.77 7.62 16.77 6.1 18.29 6.1 18.29 4.57 16.77 4.57 16.77 3.05" fill="#ffffff"></polygon><path d="M21.34,12.19V1.52h1.52V0H7.62V13.71H9.15V12.19ZM9.15,1.52H19.81v9.15H9.15Z" fill="#ffffff"></path><rect x="7.62" y="19.81" width="1.53" height="3.05" fill="#ffffff"></rect><rect x="4.58" y="18.29" width="3.04" height="1.52" fill="#ffffff"></rect><rect x="4.58" y="22.86" width="3.04" height="1.52" fill="#ffffff"></rect><rect x="3.05" y="19.81" width="1.53" height="3.05" fill="#ffffff"></rect><rect x="1.53" y="28.95" width="1.52" height="1.53" fill="#ffffff"></rect></g></svg>