<svg xmlns="http://www.w3.org/2000/svg" viewBox="0 0 32 32" height="64" width="64"><title>computers-devices-electronics-battery-charge</title><g><polygon points="28.96 9.91 28.96 8.38 27.43 8.38 27.43 11.43 30.48 11.43 30.48 16 27.43 16 27.43 19.05 28.96 19.05 28.96 17.53 32 17.53 32 9.91 28.96 9.91" fill="#ffffff"></polygon><rect x="25.91" y="19.05" width="1.52" height="1.52" fill="#ffffff"></rect><rect x="25.91" y="6.86" width="1.52" height="1.52" fill="#ffffff"></rect><rect x="22.86" y="5.34" width="3.05" height="1.52" fill="#ffffff"></rect><rect x="16.77" y="20.57" width="9.14" height="1.53" fill="#ffffff"></rect><path d="M15.24,26.67V19.05h3.05V17.53h1.52V16h1.53V8.38H19.81V2.29H18.29V8.38H16.77V2.29H15.24V8.38H13.72V2.29H12.2V8.38H10.67V2.29H9.15V8.38H7.62V16H9.15v1.53h1.52v1.52h3.05v7.62Zm1.53-15.24h1.52v1.52H16.77Zm-6.1,0H12.2v1.52H10.67Zm1.53,6.1V16H10.67V14.48H12.2V16h4.57V14.48h1.52V16H16.77v1.53Z" fill="#ffffff"></path><rect x="16.77" y="0.76" width="1.52" height="1.53" fill="#ffffff"></rect><rect x="10.67" y="26.67" width="3.05" height="1.52" fill="#ffffff"></rect><rect x="10.67" y="0.76" width="1.53" height="1.53" fill="#ffffff"></rect><rect x="9.15" y="28.19" width="1.52" height="1.53" fill="#ffffff"></rect><rect x="7.62" y="29.72" width="1.53" height="1.52" fill="#ffffff"></rect><rect x="1.53" y="20.57" width="9.14" height="1.53" fill="#ffffff"></rect><rect x="1.53" y="5.34" width="4.57" height="1.52" fill="#ffffff"></rect><rect y="6.86" width="1.53" height="13.71" fill="#ffffff"></rect></g></svg>