<svg xmlns="http://www.w3.org/2000/svg" viewBox="0 0 32 32" height="64" width="64"><title>logo-social-media-twitter-circle</title><g><path d="M1.52,22.86H3.04V25.9H4.57v1.53H6.09v1.52H9.14v1.53h3.05V32h7.62V30.48h3.04V28.95H25.9V27.43h1.52V25.9h1.53V22.86h1.52V19.81H32V12.19H30.47V9.14H28.95V6.09H27.42V4.57H25.9V3.05H22.85V1.52H19.81V0H12.19V1.52H9.14V3.05H6.09V4.57H4.57V6.09H3.04V9.14H1.52v3.05H0v7.62H1.52ZM7.61,9.14H9.14v1.53h1.52v1.52h1.53v1.52h3.04V9.14h1.53V7.62h6.09V9.14h1.53v3.05h3.04v1.52H25.9v1.53H24.38v4.57H22.85v3.05H21.33v1.52H19.81V25.9H9.14V24.38h1.52V22.86h1.53V21.33h1.52V19.81H10.66V18.29H9.14V16.76H7.61Z" fill="#ffffff"></path><rect x="19.81" y="10.67" width="3.04" height="3.04" fill="#ffffff"></rect></g></svg>