<svg height="185" width="350" xmlns="http://www.w3.org/2000/svg"><g fill="none" transform="translate(-50)"><g transform="translate(50)"><path d="m0 142v-98.9867529l83.5311549-43.0132471 82.4693041 44v97.509231l-84.000459 43.490769z" fill="#f968c9" opacity=".191"/><path d="m177.85 46.51c13.072 0 24.19 4.628 33.358 13.887 9.35 9.258 14.024 20.378 14.024 33.358 0 10.075-2.95 19.197-8.85 27.367l8.85 8.713-11.3 11.165-8.714-8.714-.54.375c-8.117 5.56-17.06 8.339-26.827 8.339-1.996 0-3.947-.108-5.852-.324v-15.968c1.887.332 3.837.498 5.852.498 8.623 0 16.02-3.04 22.193-9.122 6.172-6.263 9.258-13.706 9.258-22.33 0-8.622-3.086-16.02-9.258-22.192-6.172-6.173-13.57-9.259-22.193-9.259s-16.066 3.086-22.33 9.259c-6.081 6.172-9.122 13.57-9.122 22.193 0 5.416 1.2 10.368 3.6 14.853v23.333a50.747 50.747 0 0 1 -5.506-4.829c-9.258-9.167-13.888-20.287-13.888-33.357 0-12.98 4.63-24.1 13.888-33.358 9.077-9.259 20.196-13.888 33.358-13.888zm-91.96 94.49c4.085 0 8.033-.5 11.845-1.498a46.302 46.302 0 0 0 10.757-4.289 48.263 48.263 0 0 0 9.326-6.74 51.068 51.068 0 0 0 7.557-8.713v-33.766h-39.485v15.658h23.69v12.934c-2.995 3.359-6.512 5.968-10.551 7.829-4.04 1.86-8.419 2.791-13.139 2.791-8.623 0-16.066-3.04-22.33-9.122-6.08-6.263-9.122-13.706-9.122-22.33 0-8.622 3.041-16.02 9.123-22.192 6.263-6.173 13.706-9.259 22.329-9.259 8.714 0 16.112 3.086 22.193 9.259l11.3-11.165c-4.356-4.357-9.394-7.76-15.112-10.212-5.719-2.45-11.846-3.676-18.381-3.676-13.07 0-24.19 4.63-33.358 13.888-9.258 9.258-13.887 20.378-13.887 33.358 0 13.07 4.629 24.19 13.887 33.357 9.168 9.259 20.288 13.888 33.358 13.888z" fill="#c00b84" stroke="#c00b84" stroke-width="3"/></g><path d="m311.13 141c4.209 0 8.134-1.063 11.775-3.19l-1.542-13.642c-2.776.588-4.526.882-5.25.882-2.398 0-4.222-.735-5.472-2.206-1.25-1.47-1.55-4.015-.896-7.635l4.814-26.673h10.18l2.769-15.34h-10.18l3.686-20.428-19.439 2.036-3.32 18.393h-10.18l-2.768 15.339h10.18l-5.304 29.388c-1.225 6.787.037 12.33 3.786 16.628 3.75 4.299 9.47 6.448 17.162 6.448zm41.38 28.506c8.21-.362 15.83-3.733 22.864-10.113s11.408-14.32 13.123-23.823l11.27-62.441h-19.004l-8.011 44.388c-3.828 4.66-7.757 7.126-11.788 7.398-4.545-.136-7.725-1.448-9.538-3.937s-2.311-5.995-1.495-10.52l6.737-37.33h-19.004l-7.594 42.081c-1.225 6.787-.045 12.782 3.541 17.986 3.586 5.203 9.677 7.805 18.274 7.805 6.29 0 12.204-2.059 17.743-6.176l-.625 3.461c-.98 5.43-3.013 9.615-6.1 12.556-3.088 2.941-7.573 4.412-13.455 4.412-4.76-.453-9.487-2.715-14.181-6.787l-10.661 10.18c6.385 7.24 14.305 10.996 23.758 11.267l4.145-.407z" fill="#ec4cb7"/></g></svg>