<?xml version="1.0" encoding="UTF-8"?>
<svg width="626px" height="626px" viewBox="0 0 626 626" version="1.1" xmlns="http://www.w3.org/2000/svg" xmlns:xlink="http://www.w3.org/1999/xlink">
    <!-- Generator: Sketch 61 (89581) - https://sketch.com -->
    <title>Artboard</title>
    <desc>Created with Sketch.</desc>
    <g id="Artboard" stroke="none" stroke-width="1" fill="none" fill-rule="evenodd">
        <path d="M209.338228,102.876327 C271.066562,78.8127212 316.98642,69.788869 347.097803,75.8047704 C392.264876,84.8286226 577.998184,161.675624 584.224939,211.162553 C590.451694,260.649482 591,346.520335 591,380.359781 C591,414.199227 588.570152,411.629121 568.416463,427.735005 C548.262774,443.840889 460.015487,502.181785 392.264876,533.765268 C324.514266,565.34875 279.347192,549.557009 243.213533,533.765268 C207.079875,517.973527 62.5452392,434.502894 51.2534708,427.735005 C39.9617024,420.967116 36.6786837,413.052771 35.444995,396.151522 C34.6634664,385.444761 35.092158,335.851538 35.3719878,287.135693 C37.6662246,288.968401 40.2572599,290 43,290 C52.3888407,290 60,277.911688 60,263 C60,248.088312 52.3888407,236 43,236 C40.3287362,236 37.8013732,236.978533 35.5522626,238.722216 C35.5563471,228.565119 35.5262744,219.209959 35.444995,211.162553 C35.0794577,174.970972 93.0438688,138.875563 209.338228,102.876327 Z M311,327 C295.536027,327 283,342.222319 283,361 C283,379.777681 295.536027,395 311,395 C326.463973,395 339,379.777681 339,361 C339,342.222319 326.463973,327 311,327 Z M87.4378818,411.476018 L68.874942,364.345471 L93.323553,396.063672 L133.37533,379.089824 L154.271984,425.476492 L203.230585,410.419552 L221.809988,457.361928 L288.483459,447.267826 L217.583057,479.745369 L196.653478,433.735042 L147.71134,448.603811 L127.407346,395.44302 L87.4378818,411.476018 Z" id="Path-22" fill="#000000"></path>
    </g>
</svg>