<?xml version="1.0" encoding="UTF-8"?>
<svg width="640px" height="640px" viewBox="0 0 640 640" version="1.1" xmlns="http://www.w3.org/2000/svg" xmlns:xlink="http://www.w3.org/1999/xlink">
    <!-- Generator: Sketch 61 (89581) - https://sketch.com -->
    <title>avatar-circle</title>
    <desc>Created with Sketch.</desc>
    <g id="Page-1" stroke="none" stroke-width="1" fill="none" fill-rule="evenodd">
        <g id="Artboard-Copy" transform="translate(-141.000000, -80.000000)">
            <g id="avatar-circle" transform="translate(141.000000, 80.000000)">
                <g id="Group-2">
                    <circle id="Oval" fill="#FF00A3" cx="320" cy="320" r="320"></circle>
                    <circle id="Oval" fill="#8C00FF" cx="320" cy="320" r="288"></circle>
                    <circle id="Oval" fill="#00FAFF" cx="320" cy="320" r="264"></circle>
                    <circle id="Oval" fill="#00FF2C" cx="320" cy="320" r="232"></circle>
                    <circle id="Oval" fill="#A9FF00" cx="320" cy="320" r="192"></circle>
                    <circle id="Oval" fill="#FFDB00" cx="320" cy="320" r="128"></circle>
                    <circle id="Oval" fill="#FF0000" cx="320" cy="320" r="72"></circle>
                </g>
                <g id="tamagui-icon" transform="translate(109.000000, 120.000000)">
                    <g id="Group" transform="translate(30.000000, 30.000000)" fill="#FC00BE">
                        <g id="Rectangle-Copy-8">
                            <path d="M300,0 L300,30 L364,30 L364,60 L420,60 L420,150 L364,150 L364,180 L300,180 L300,300 L270,300 L270,360 L60,360 L60,300 L0,300 L0,60 L60,60 L60,0 L300,0 Z"></path>
                        </g>
                    </g>
                    <g transform="translate(225.000000, 210.000000) scale(-1, 1) translate(-225.000000, -210.000000) " fill="#141414" id="guy">
                        <g>
                            <rect id="Rectangle-Copy" x="150" y="0" width="30" height="30"></rect>
                            <rect id="Rectangle-Copy-2" x="180" y="0" width="30" height="30"></rect>
                            <rect id="Rectangle-Copy-3" x="210" y="0" width="30" height="30"></rect>
                            <rect id="Rectangle-Copy-28" x="240" y="0" width="30" height="30"></rect>
                            <rect id="Rectangle-Copy-4" x="270" y="0" width="30" height="30"></rect>
                            <rect id="Rectangle-Copy-5" x="300" y="0" width="30" height="30"></rect>
                            <rect id="Rectangle-Copy-6" x="330" y="30" width="30" height="30"></rect>
                            <rect id="Rectangle-Copy-7" x="360" y="60" width="30" height="30"></rect>
                            <rect id="Rectangle-Copy-8" x="390" y="90" width="30" height="30"></rect>
                            <rect id="Rectangle-Copy-10" x="390" y="120" width="30" height="30"></rect>
                            <rect id="Rectangle-Copy-11" x="390" y="150" width="30" height="30"></rect>
                            <rect id="Rectangle-Copy-12" x="390" y="180" width="30" height="30"></rect>
                            <rect id="Rectangle-Copy-13" x="420" y="210" width="30" height="30"></rect>
                            <rect id="Rectangle-Copy-14" x="420" y="240" width="30" height="30"></rect>
                            <rect id="Rectangle-Copy-15" x="420" y="270" width="30" height="30"></rect>
                            <rect id="Rectangle-Copy-16" x="390" y="300" width="30" height="30"></rect>
                            <rect id="Rectangle-Copy-17" x="360" y="330" width="30" height="30"></rect>
                            <rect id="Rectangle-Copy-18" x="330" y="360" width="30" height="30"></rect>
                            <rect id="Rectangle-Copy-20" x="300" y="390" width="30" height="30"></rect>
                            <rect id="Rectangle-Copy-21" x="270" y="390" width="30" height="30"></rect>
                            <rect id="Rectangle-Copy-22" x="240" y="360" width="30" height="30"></rect>
                            <rect id="Rectangle-Copy-23" x="210" y="360" width="30" height="30"></rect>
                            <rect id="Rectangle-Copy-24" x="210" y="390" width="30" height="30"></rect>
                            <rect id="Rectangle-Copy-25" x="180" y="390" width="30" height="30"></rect>
                            <rect id="Rectangle-Copy-26" x="150" y="360" width="30" height="30"></rect>
                            <rect id="Rectangle-Copy-27" x="150" y="330" width="30" height="30"></rect>
                            <rect id="Rectangle-Copy-29" x="120" y="300" width="30" height="30"></rect>
                            <rect id="Rectangle-Copy-30" x="90" y="240" width="30" height="30"></rect>
                            <rect id="Rectangle-Copy-32" x="90" y="270" width="30" height="30"></rect>
                            <rect id="Rectangle-Copy-31" x="90" y="210" width="30" height="30"></rect>
                            <rect id="Rectangle-Copy-33" x="60" y="180" width="30" height="30"></rect>
                            <rect id="Rectangle-Copy-34" x="30" y="180" width="30" height="30"></rect>
                            <rect id="Rectangle-Copy-35" x="0" y="150" width="30" height="30"></rect>
                            <rect id="Rectangle-Copy-36" x="30" y="120" width="30" height="30"></rect>
                            <rect id="Rectangle-Copy-37" x="60" y="120" width="30" height="30"></rect>
                            <rect id="Rectangle-Copy-38" x="90" y="120" width="30" height="30"></rect>
                            <rect id="Rectangle-Copy-39" x="0" y="90" width="30" height="30"></rect>
                            <rect id="Rectangle-Copy-44" x="0" y="120" width="30" height="30"></rect>
                            <rect id="Rectangle-Copy-40" x="30" y="60" width="30" height="30"></rect>
                            <rect id="Rectangle-Copy-40" x="30" y="60" width="30" height="30"></rect>
                            <rect id="Rectangle-Copy-41" x="60" y="60" width="30" height="30"></rect>
                            <rect id="Rectangle-Copy-42" x="120" y="30" width="30" height="30"></rect>
                            <rect id="Rectangle-Copy-45" x="150" y="60" width="30" height="30"></rect>
                            <rect id="Rectangle-Copy-46" x="240" y="90" width="30" height="30"></rect>
                            <rect id="Rectangle-Copy-47" x="240" y="210" width="30" height="30"></rect>
                            <rect id="Rectangle-Copy-48" x="240" y="240" width="30" height="30"></rect>
                            <rect id="Rectangle-Copy-49" x="270" y="270" width="30" height="30"></rect>
                            <rect id="Rectangle-Copy-50" x="300" y="240" width="30" height="30"></rect>
                            <rect id="Rectangle-Copy-51" x="300" y="210" width="30" height="30"></rect>
                            <rect id="Rectangle-Copy-43" x="90" y="60" width="30" height="30"></rect>
                        </g>
                    </g>
                </g>
            </g>
        </g>
    </g>
</svg>