<?xml version="1.0" encoding="UTF-8"?>
<svg width="475px" height="475px" viewBox="0 0 475 475" version="1.1" xmlns="http://www.w3.org/2000/svg" xmlns:xlink="http://www.w3.org/1999/xlink">
    <!-- Generator: Sketch 61 (89581) - https://sketch.com -->
    <title>Artboard</title>
    <desc>Created with Sketch.</desc>
    <g id="Artboard" stroke="none" stroke-width="1" fill="none" fill-rule="evenodd">
        <path d="M241.939394,437 C340.537296,437 399.620047,394.333333 400,317.380952 C399.620047,257.952381 364.284382,216.238095 278.414918,197.761905 L246.498834,190.904762 C209.643357,183.095238 193.115385,172.238095 194.065268,153.571429 C194.255245,136.428571 208.503497,123.857143 241.179487,123.857143 C275.375291,123.857143 291.52331,138.904762 293.613054,164.238095 L394.680653,164.238095 C394.300699,87.6666667 335.407925,37 241.179487,37 C148.660839,37 83.3088578,86.9047619 83.8787879,161.190476 C83.6888112,222.142857 125.863636,256.047619 194.825175,270.904762 L233.58042,279.285714 C276.895105,288.809524 291.713287,299.666667 292.09324,317.380952 C291.713287,336.619048 274.235431,350.142857 240.41958,350.142857 C199.954545,350.142857 176.017483,331.095238 174.307692,295.285714 L74,295.285714 C74.3799534,393.190476 140.491841,437 241.939394,437 Z" id="S" fill="#000000" fill-rule="nonzero" transform="translate(237.000000, 237.000000) rotate(-28.000000) translate(-237.000000, -237.000000) "></path>
    </g>
</svg>