<?xml version="1.0" encoding="UTF-8"?>
<svg width="206px" height="31px" viewBox="0 0 206 31" version="1.1" xmlns="http://www.w3.org/2000/svg" xmlns:xlink="http://www.w3.org/1999/xlink">
    <!-- Generator: Sketch 61 (89581) - https://sketch.com -->
    <title>tamagui-logo</title>
    <desc>Created with Sketch.</desc>
    <g id="Page-1" stroke="none" stroke-width="1" fill="none" fill-rule="evenodd">
        <g id="Artboard-Copy-2" transform="translate(-618.000000, -262.000000)">
            <g id="tamagui-logo" transform="translate(618.000000, 262.000000)">
                <path d="M203,0 L203,3 L206,3 L206,28 L203,28 L203,31 L180,31 L180,0 L203,0 Z M196,6 L188,6 L188,26 L196,26 L196,6 Z" id="Rectangle-Copy-8" fill="#FC00BE"></path>
                <path d="M180,0 L180,31 L150,31 L150,0 L180,0 Z M163,6 L155,6 L155,22 L159,22 L159,26 L171,26 L171,22 L175,22 L175,6 L167,6 L167,22 L163,22 L163,6 Z" id="Rectangle-Copy-12" fill="#7008DB"></path>
                <path d="M150,0 L150,31 L120,31 L120,0 L150,0 Z M145,6 L129,6 L129,10 L125,10 L125,22 L129,22 L129,26 L141,26 L141,22 L145,22 L145,14 L137,14 L137,22 L133,22 L133,10 L145,10 L145,6 Z" id="Rectangle-2" fill="#006BFF"></path>
                <path d="M120,0 L120,31 L90,31 L90,0 L120,0 Z M111,6 L99,6 L99,10 L95,10 L95,26 L103,26 L103,18 L107,18 L107,26 L115,26 L115,10 L111,10 L111,6 Z M107,10 L107,14 L103,14 L103,10 L107,10 Z" id="Rectangle-Copy-11" fill="#09E700"></path>
                <path d="M60,0 L90,0 L90,31 L60,31 L60,0 Z M73,26 L73,17 L77,17 L77,26 L85,26 L85,6 L79,6 L79,10 L71,10 L71,6 L65,6 L65,26 L73,26 Z" id="Rectangle-Copy-10" fill="#EFDA1F"></path>
                <path d="M60,0 L60,31 L30,31 L30,0 L60,0 Z M51,6 L39,6 L39,10 L35,10 L35,26 L43,26 L43,18 L47,18 L47,26 L55,26 L55,10 L51,10 L51,6 Z M47,10 L47,14 L43,14 L43,10 L47,10 Z" id="Rectangle-Copy-9" fill="#FF6500"></path>
                <path d="M30,0 L30,31 L3,31 L3,28 L0,28 L0,3 L3,3 L3,0 L30,0 Z M23,6 L7,6 L7,10 L11,10 L11,26 L19,26 L19,10 L23,10 L23,6 Z" id="Rectangle-Copy-7" fill="#FF0000"></path>
            </g>
        </g>
    </g>
</svg>