<?xml version="1.0" encoding="UTF-8"?>
<svg width="373px" height="41px" viewBox="0 0 373 41" version="1.1" xmlns="http://www.w3.org/2000/svg" xmlns:xlink="http://www.w3.org/1999/xlink">
    <!-- Generator: Sketch 61 (89581) - https://sketch.com -->
    <title>words copy</title>
    <desc>Created with Sketch.</desc>
    <g id="Page-1" stroke="none" stroke-width="1" fill="none" fill-rule="evenodd">
        <g id="Artboard" transform="translate(-435.000000, -239.000000)" fill="#898989">
            <g id="words-copy" transform="translate(435.000000, 239.000000)">
                <polygon id="Path" points="372.677419 40.1612903 372.677419 0.806451613 356.935484 0.806451613 356.935484 40.1612903"></polygon>
                <polygon id="Path" points="323.483871 40.1612903 323.483871 32.2903226 331.354839 32.2903226 331.354839 0.806451613 315.612903 0.806451613 315.612903 32.2903226 307.741935 32.2903226 307.741935 0.806451613 292 0.806451613 292 32.2903226 299.870968 32.2903226 299.870968 40.1612903"></polygon>
                <polygon id="Path" points="264.451613 40.1612903 264.451613 32.2903226 272.322581 32.2903226 272.322581 16.5483871 256.580645 16.5483871 256.580645 32.2903226 248.709677 32.2903226 248.709677 8.67741935 272.322581 8.67741935 272.322581 0.806451613 240.83871 0.806451613 240.83871 8.67741935 232.967742 8.67741935 232.967742 32.2903226 240.83871 32.2903226 240.83871 40.1612903"></polygon>
                <path d="M205.419355,0.806451613 L205.419355,8.67741935 L213.290323,8.67741935 L213.290323,40.1612903 L197.548387,40.1612903 L197.548387,24.4193548 L189.677419,24.4193548 L189.677419,40.1612903 L173.935484,40.1612903 L173.935484,8.67741935 L181.806452,8.67741935 L181.806452,0.806451613 L205.419355,0.806451613 Z M197.548387,8.67741935 L189.677419,8.67741935 L189.677419,16.5483871 L197.548387,16.5483871 L197.548387,8.67741935 Z" id="Path-10" fill-rule="nonzero"></path>
                <polygon id="Path" points="130.645161 40.1612903 130.645161 22.4516129 138.516129 22.4516129 138.516129 40.1612903 154.258065 40.1612903 154.258065 0.806451613 142.451613 0.806451613 142.451613 8.67741935 126.709677 8.67741935 126.709677 0.806451613 114.903226 0.806451613 114.903226 40.1612903"></polygon>
                <path d="M87.3548387,0.806451613 L87.3548387,8.67741935 L95.2258065,8.67741935 L95.2258065,40.1612903 L79.483871,40.1612903 L79.483871,24.4193548 L71.6129032,24.4193548 L71.6129032,40.1612903 L55.8709677,40.1612903 L55.8709677,8.67741935 L63.7419355,8.67741935 L63.7419355,0.806451613 L87.3548387,0.806451613 Z M79.483871,8.67741935 L71.6129032,8.67741935 L71.6129032,16.5483871 L79.483871,16.5483871 L79.483871,8.67741935 Z" id="Path-9" fill-rule="nonzero"></path>
                <polygon id="Path" points="24.3870968 40.1612903 24.3870968 8.67741935 32.2580645 8.67741935 32.2580645 0.806451613 0.774193548 0.806451613 0.774193548 8.67741935 8.64516129 8.67741935 8.64516129 40.1612903"></polygon>
            </g>
        </g>
    </g>
</svg>