<svg xmlns="http://www.w3.org/2000/svg" viewBox="0 0 256 256"><rect width="256" height="256" fill="none"/><path d="M48,200H64a16,16,0,0,0,0-32H48v48" fill="none" stroke="#000" stroke-linecap="round" stroke-linejoin="round" stroke-width="16"/><line x1="68.8" y1="199.3" x2="80" y2="216" fill="none" stroke="#000" stroke-linecap="round" stroke-linejoin="round" stroke-width="16"/><path d="M112,212a25.2,25.2,0,0,0,15,5c9,0,17-3,17-13,0-16-32-9-32-24,0-8,6-13,15-13a25.2,25.2,0,0,1,15,5" fill="none" stroke="#000" stroke-linecap="round" stroke-linejoin="round" stroke-width="16"/><path d="M184,224h16a8,8,0,0,0,8-8V88L152,32H56a8,8,0,0,0-8,8v88" fill="none" stroke="#000" stroke-linecap="round" stroke-linejoin="round" stroke-width="16"/><polyline points="152 32 152 88 208 88" fill="none" stroke="#000" stroke-linecap="round" stroke-linejoin="round" stroke-width="16"/></svg>