<svg xmlns="http://www.w3.org/2000/svg" viewBox="0 0 256 256"><rect width="256" height="256" fill="none"/><path d="M32,80V64a8,8,0,0,1,8-8H93.3a8.1,8.1,0,0,1,4.8,1.6L128,80" fill="none" stroke="#000" stroke-linecap="round" stroke-linejoin="round" stroke-width="16"/><path d="M88,208H39.4a7.4,7.4,0,0,1-7.4-7.4V192" fill="none" stroke="#000" stroke-linecap="round" stroke-linejoin="round" stroke-width="16"/><line x1="160" y1="208" x2="128" y2="208" fill="none" stroke="#000" stroke-linecap="round" stroke-linejoin="round" stroke-width="16"/><path d="M224,152v48.9a7.1,7.1,0,0,1-7.1,7.1H200" fill="none" stroke="#000" stroke-linecap="round" stroke-linejoin="round" stroke-width="16"/><path d="M168,80h48a8,8,0,0,1,8,8v24" fill="none" stroke="#000" stroke-linecap="round" stroke-linejoin="round" stroke-width="16"/><line x1="32" y1="120" x2="32" y2="152" fill="none" stroke="#000" stroke-linecap="round" stroke-linejoin="round" stroke-width="16"/></svg>