<svg xmlns="http://www.w3.org/2000/svg" viewBox="0 0 256 256"><rect width="256" height="256" fill="none"/><line x1="152" y1="108" x2="184" y2="108" fill="none" stroke="#000" stroke-linecap="round" stroke-linejoin="round" stroke-width="16"/><line x1="72" y1="108" x2="104" y2="108" fill="none" stroke="#000" stroke-linecap="round" stroke-linejoin="round" stroke-width="16"/><line x1="88" y1="92" x2="88" y2="124" fill="none" stroke="#000" stroke-linecap="round" stroke-linejoin="round" stroke-width="16"/><path d="M172,55.7,84,56A52.1,52.1,0,0,0,32.8,99h0L16.4,183.1a28,28,0,0,0,47.4,24.7h0L107,160l65-.3a52,52,0,1,0,0-104Z" fill="none" stroke="#000" stroke-linecap="round" stroke-linejoin="round" stroke-width="16"/><path d="M223.2,98.7l16.4,84.4a28,28,0,0,1-47.4,24.7h0l-43.2-48" fill="none" stroke="#000" stroke-linecap="round" stroke-linejoin="round" stroke-width="16"/></svg>