<svg xmlns="http://www.w3.org/2000/svg" viewBox="0 0 256 256"><rect width="256" height="256" fill="none"/><circle cx="128" cy="128" r="48" fill="none" stroke="#000" stroke-linecap="round" stroke-linejoin="round" stroke-width="16"/><path d="M183.7,65.1q3.8,3.5,7.2,7.2l27.3,3.9a103.2,103.2,0,0,1,10.2,24.6l-16.6,22.1s.3,6.8,0,10.2l16.6,22.1a102.2,102.2,0,0,1-10.2,24.6l-27.3,3.9s-4.7,4.9-7.2,7.2l-3.9,27.3a103.2,103.2,0,0,1-24.6,10.2l-22.1-16.6a57.9,57.9,0,0,1-10.2,0l-22.1,16.6a102.2,102.2,0,0,1-24.6-10.2l-3.9-27.3q-3.7-3.5-7.2-7.2l-27.3-3.9a103.2,103.2,0,0,1-10.2-24.6l16.6-22.1s-.3-6.8,0-10.2L27.6,100.8A102.2,102.2,0,0,1,37.8,76.2l27.3-3.9q3.5-3.7,7.2-7.2l3.9-27.3a103.2,103.2,0,0,1,24.6-10.2l22.1,16.6a57.9,57.9,0,0,1,10.2,0l22.1-16.6a102.2,102.2,0,0,1,24.6,10.2Z" fill="none" stroke="#000" stroke-linecap="round" stroke-linejoin="round" stroke-width="16"/></svg>