<svg xmlns="http://www.w3.org/2000/svg" viewBox="0 0 256 256"><rect width="256" height="256" fill="none"/><circle cx="212" cy="108" r="20" fill="none" stroke="#000" stroke-linecap="round" stroke-linejoin="round" stroke-width="16"/><circle cx="44" cy="108" r="20" fill="none" stroke="#000" stroke-linecap="round" stroke-linejoin="round" stroke-width="16"/><circle cx="92" cy="60" r="20" fill="none" stroke="#000" stroke-linecap="round" stroke-linejoin="round" stroke-width="16"/><circle cx="164" cy="60" r="20" fill="none" stroke="#000" stroke-linecap="round" stroke-linejoin="round" stroke-width="16"/><path d="M183.2,155.9a43.6,43.6,0,0,1-20.6-26h0a36,36,0,0,0-69.2,0h0a43.6,43.6,0,0,1-20.6,26A32,32,0,0,0,88,216a32.4,32.4,0,0,0,12.5-2.5,71.8,71.8,0,0,1,55,0A32.4,32.4,0,0,0,168,216a32,32,0,0,0,15.2-60.1Z" fill="none" stroke="#000" stroke-linecap="round" stroke-linejoin="round" stroke-width="16"/></svg>