<svg xmlns="http://www.w3.org/2000/svg" viewBox="0 0 256 256"><rect width="256" height="256" fill="none"/><path d="M155.4,101.3a83.9,83.9,0,0,0-55.1.1,8,8,0,0,0-5.2,5.9l-5.8,29.5a8.2,8.2,0,0,1-4.9,5.9L37.1,161.6a7.9,7.9,0,0,1-9.3-2.5,48,48,0,0,1,4-63.3,136.1,136.1,0,0,1,192.4,0,48,48,0,0,1,4,63.3,7.9,7.9,0,0,1-9.3,2.5l-47.3-18.9a8.2,8.2,0,0,1-4.9-5.8l-6.2-29.7A7.9,7.9,0,0,0,155.4,101.3Z" fill="none" stroke="#000" stroke-linecap="round" stroke-linejoin="round" stroke-width="16"/><line x1="40" y1="200" x2="216" y2="200" fill="none" stroke="#000" stroke-linecap="round" stroke-linejoin="round" stroke-width="16"/></svg>