<svg xmlns="http://www.w3.org/2000/svg" viewBox="0 0 256 256"><rect width="256" height="256" fill="none"/><path d="M92.5,124.8a83.6,83.6,0,0,0,39,38.9,8,8,0,0,0,7.9-.6l25-16.7a7.9,7.9,0,0,1,7.6-.7l46.8,20.1a7.9,7.9,0,0,1,4.8,8.3A48,48,0,0,1,176,216,136,136,0,0,1,40,80,48,48,0,0,1,81.9,32.4a7.9,7.9,0,0,1,8.3,4.8l20.1,46.9a8,8,0,0,1-.6,7.5L93,117A8,8,0,0,0,92.5,124.8Z" fill="none" stroke="#000" stroke-linecap="round" stroke-linejoin="round" stroke-width="16"/><polyline points="168 48 208 48 208 88" fill="none" stroke="#000" stroke-linecap="round" stroke-linejoin="round" stroke-width="16"/><line x1="160" y1="96" x2="208" y2="48" fill="none" stroke="#000" stroke-linecap="round" stroke-linejoin="round" stroke-width="16"/></svg>