<svg xmlns="http://www.w3.org/2000/svg" viewBox="0 0 256 256"><rect width="256" height="256" fill="none"/><path d="M132,180l-31,31a24,24,0,0,1-34,0L45,189a24,24,0,0,1,0-34l31-31" fill="none" stroke="#000" stroke-linecap="round" stroke-linejoin="round" stroke-width="16"/><line x1="56" y1="200" x2="24" y2="232" fill="none" stroke="#000" stroke-linecap="round" stroke-linejoin="round" stroke-width="16"/><line x1="232" y1="24" x2="200" y2="56" fill="none" stroke="#000" stroke-linecap="round" stroke-linejoin="round" stroke-width="16"/><line x1="144" y1="144" x2="120" y2="168" fill="none" stroke="#000" stroke-linecap="round" stroke-linejoin="round" stroke-width="16"/><line x1="144" y1="144" x2="120" y2="168" fill="#231f20"/><line x1="112" y1="112" x2="88" y2="136" fill="none" stroke="#000" stroke-linecap="round" stroke-linejoin="round" stroke-width="16"/><line x1="112" y1="112" x2="88" y2="136" fill="#231f20"/><path d="M180,132l31-31a24,24,0,0,0,0-34L189,45a24,24,0,0,0-34,0L124,76" fill="none" stroke="#000" stroke-linecap="round" stroke-linejoin="round" stroke-width="16"/><line x1="116" y1="68" x2="188" y2="140" fill="none" stroke="#000" stroke-linecap="round" stroke-linejoin="round" stroke-width="16"/><line x1="68" y1="116" x2="140" y2="188" fill="none" stroke="#000" stroke-linecap="round" stroke-linejoin="round" stroke-width="16"/></svg>