<svg xmlns="http://www.w3.org/2000/svg" viewBox="0 0 256 256"><rect width="256" height="256" fill="none"/><circle cx="188" cy="32" r="16" fill="none" stroke="#000" stroke-linecap="round" stroke-linejoin="round" stroke-width="16"/><path d="M161,176a71.9,71.9,0,0,1-66,0" fill="none" stroke="#000" stroke-linecap="round" stroke-linejoin="round" stroke-width="16"/><polyline points="128 72 136 24 172.2 29.6" fill="none" stroke="#000" stroke-linecap="round" stroke-linejoin="round" stroke-width="16"/><path d="M59.4,89.9C77.7,78.7,101.7,72,128,72s50.3,6.7,68.6,17.9h0a24,24,0,1,1,31.6,34.8h0A50.7,50.7,0,0,1,232,144c0,39.8-46.6,72-104,72S24,183.8,24,144a50.7,50.7,0,0,1,3.8-19.3h0A24,24,0,1,1,59.4,89.9Z" fill="none" stroke="#000" stroke-linecap="round" stroke-linejoin="round" stroke-width="16"/><circle cx="88" cy="132" r="16"/><circle cx="168" cy="132" r="16"/></svg>