<svg xmlns="http://www.w3.org/2000/svg" viewBox="0 0 256 256"><rect width="256" height="256" fill="none"/><polyline points="76.2 132.2 152.2 40.2 216 40 215.8 103.8 123.8 179.8" fill="none" stroke="#000" stroke-linecap="round" stroke-linejoin="round" stroke-width="16"/><line x1="100" y1="156" x2="160" y2="96" fill="none" stroke="#000" stroke-linecap="round" stroke-linejoin="round" stroke-width="16"/><path d="M82.1,197.5,52.2,227.4a8,8,0,0,1-11.3,0L28.6,215.1a8,8,0,0,1,0-11.3l29.9-29.9a8,8,0,0,0,0-11.4L37.7,141.7a8,8,0,0,1,0-11.4l12.6-12.6a8,8,0,0,1,11.4,0l76.6,76.6a8,8,0,0,1,0,11.4l-12.6,12.6a8,8,0,0,1-11.4,0L93.5,197.5A8,8,0,0,0,82.1,197.5Z" fill="none" stroke="#000" stroke-linecap="round" stroke-linejoin="round" stroke-width="16"/></svg>