<svg xmlns="http://www.w3.org/2000/svg" viewBox="0 0 32 32" height="64" width="64"><title>computers-devices-electronics-memory</title><g><path d="M25.135,12.19v6.1h3.05V30.48h1.53V1.52h-1.53V12.19Zm3.05,3.05h-1.52V13.71h1.52Z" fill="#ffffff"></path><rect x="3.805" y="30.48" width="24.38" height="1.52" fill="#ffffff"></rect><rect x="5.335" y="27.43" width="21.33" height="1.52" fill="#ffffff"></rect><rect x="19.045" y="18.29" width="1.52" height="1.52" fill="#ffffff"></rect><rect x="12.945" y="21.33" width="6.1" height="1.53" fill="#ffffff"></rect><rect x="11.425" y="18.29" width="1.52" height="1.52" fill="#ffffff"></rect><path d="M9.9,7.62H8.375V9.14h18.29V1.52h1.52V0H8.375V1.52H9.9Zm13.71-4.57h1.52V7.62h-1.52Zm-3.05,0H22.1V7.62h-1.53Zm-3.04,0h1.52V7.62h-1.52Zm-3.05,0H16V7.62h-1.52Zm-3.05,0h1.52V7.62h-1.52Z" fill="#ffffff"></path><rect x="6.855" y="1.52" width="1.52" height="1.53" fill="#ffffff"></rect><rect x="5.335" y="3.05" width="1.52" height="1.52" fill="#ffffff"></rect><rect x="3.805" y="4.57" width="1.53" height="1.53" fill="#ffffff"></rect><polygon points="3.805 18.29 5.335 18.29 5.335 12.19 3.805 12.19 3.805 6.1 2.285 6.1 2.285 30.48 3.805 30.48 3.805 18.29" fill="#ffffff"></polygon></g></svg>