<svg xmlns="http://www.w3.org/2000/svg" viewBox="0 0 32 32" height="64" width="64"><title>computers-devices-electronics-graphic-tablet-draw</title><g><rect x="30.48" y="5.335" width="1.52" height="21.33" fill="#ffffff"></rect><rect x="1.52" y="26.665" width="28.96" height="1.53" fill="#ffffff"></rect><polygon points="28.95 3.805 25.91 3.805 25.91 5.335 24.38 5.335 24.38 6.855 22.86 6.855 22.86 8.385 21.33 8.385 21.33 9.905 19.81 9.905 19.81 11.425 18.29 11.425 18.29 12.955 16.76 12.955 16.76 14.475 15.24 14.475 15.24 17.525 18.29 17.525 18.29 15.995 19.81 15.995 19.81 14.475 21.33 14.475 21.33 12.955 22.86 12.955 22.86 11.425 24.38 11.425 24.38 9.905 25.91 9.905 25.91 8.385 27.43 8.385 27.43 6.855 28.95 6.855 28.95 3.805" fill="#ffffff"></polygon><rect x="13.71" y="17.525" width="1.53" height="1.52" fill="#ffffff"></rect><rect x="12.19" y="11.425" width="1.52" height="1.53" fill="#ffffff"></rect><rect x="9.14" y="19.045" width="4.57" height="1.53" fill="#ffffff"></rect><rect x="10.67" y="12.955" width="1.52" height="1.52" fill="#ffffff"></rect><rect x="9.14" y="9.905" width="3.05" height="1.52" fill="#ffffff"></rect><rect x="9.14" y="14.475" width="1.53" height="1.52" fill="#ffffff"></rect><rect x="7.62" y="15.995" width="1.52" height="3.05" fill="#ffffff"></rect><rect x="7.62" y="11.425" width="1.52" height="1.53" fill="#ffffff"></rect><rect x="6.1" y="12.955" width="1.52" height="1.52" fill="#ffffff"></rect><polygon points="4.57 8.385 19.81 8.385 19.81 6.855 3.05 6.855 3.05 25.145 28.95 25.145 28.95 9.905 27.43 9.905 27.43 23.615 4.57 23.615 4.57 8.385" fill="#ffffff"></polygon><rect x="1.52" y="3.805" width="21.34" height="1.53" fill="#ffffff"></rect><rect y="5.335" width="1.52" height="21.33" fill="#ffffff"></rect></g></svg>