<svg xmlns="http://www.w3.org/2000/svg" viewBox="0 0 32 32" height="64" width="64"><title>design-color-palette-sample</title><g><rect x="29.71" y="18.28" width="1.53" height="12.19" fill="#ffffff"></rect><rect x="29.71" y="10.67" width="1.53" height="1.52" fill="#ffffff"></rect><rect x="28.19" y="12.19" width="1.52" height="1.52" fill="#ffffff"></rect><rect x="28.19" y="9.14" width="1.52" height="1.53" fill="#ffffff"></rect><rect x="5.33" y="30.47" width="24.38" height="1.53" fill="#ffffff"></rect><rect x="26.66" y="13.71" width="1.53" height="1.53" fill="#ffffff"></rect><rect x="26.66" y="7.62" width="1.53" height="1.52" fill="#ffffff"></rect><path d="M28.19,19.81H20.57v9.14h7.62Zm-1.53,7.62H22.09v-6.1h4.57Z" fill="#ffffff"></path><polygon points="25.14 16.76 23.62 16.76 23.62 15.24 25.14 15.24 25.14 13.71 26.66 13.71 26.66 12.19 28.19 12.19 28.19 10.67 26.66 10.67 26.66 9.14 25.14 9.14 25.14 7.62 23.62 7.62 23.62 6.09 22.09 6.09 22.09 7.62 20.57 7.62 20.57 9.14 19.05 9.14 19.05 10.67 17.52 10.67 17.52 12.19 19.05 12.19 19.05 13.71 20.57 13.71 20.57 15.24 22.09 15.24 22.09 16.76 17.52 16.76 17.52 15.24 16 15.24 16 13.71 14.47 13.71 14.47 15.24 12.95 15.24 12.95 16.76 11.43 16.76 11.43 15.24 9.9 15.24 9.9 16.76 3.81 16.76 3.81 19.81 5.33 19.81 5.33 18.28 29.71 18.28 29.71 16.76 26.66 16.76 26.66 15.24 25.14 15.24 25.14 16.76" fill="#ffffff"></polygon><rect x="25.14" y="6.09" width="1.52" height="1.53" fill="#ffffff"></rect><rect x="23.62" y="4.57" width="1.52" height="1.52" fill="#ffffff"></rect><rect x="22.09" y="3.05" width="1.53" height="1.52" fill="#ffffff"></rect><rect x="20.57" y="4.57" width="1.52" height="1.52" fill="#ffffff"></rect><rect x="19.05" y="6.09" width="1.52" height="1.53" fill="#ffffff"></rect><rect x="17.52" y="7.62" width="1.53" height="1.52" fill="#ffffff"></rect><path d="M19.05,19.81H11.43v9.14h7.62Zm-1.53,7.62H12.95v-6.1h4.57Z" fill="#ffffff"></path><polygon points="14.47 12.19 16 12.19 16 10.67 17.52 10.67 17.52 9.14 16 9.14 16 1.52 14.47 1.52 14.47 12.19" fill="#ffffff"></polygon><rect x="12.95" y="12.19" width="1.52" height="1.52" fill="#ffffff"></rect><rect x="11.43" y="13.71" width="1.52" height="1.53" fill="#ffffff"></rect><polygon points="3.81 12.19 3.81 15.24 5.33 15.24 5.33 13.71 11.43 13.71 11.43 12.19 3.81 12.19" fill="#ffffff"></polygon><rect x="8.38" y="22.86" width="1.52" height="3.04" fill="#ffffff"></rect><rect x="5.33" y="21.33" width="3.05" height="1.53" fill="#ffffff"></rect><rect x="5.33" y="25.9" width="3.05" height="1.53" fill="#ffffff"></rect><path d="M12.95,10.67V3.05H3.81v7.62ZM5.33,4.57h6.1V9.14H5.33Z" fill="#ffffff"></path><rect x="3.81" y="28.95" width="1.52" height="1.52" fill="#ffffff"></rect><rect x="3.81" y="22.86" width="1.52" height="3.04" fill="#ffffff"></rect><rect x="2.28" width="12.19" height="1.52" fill="#ffffff"></rect><rect x="2.28" y="27.43" width="1.53" height="1.52" fill="#ffffff"></rect><polygon points="2.28 21.33 3.81 21.33 3.81 19.81 2.28 19.81 2.28 1.52 0.76 1.52 0.76 27.43 2.28 27.43 2.28 21.33" fill="#ffffff"></polygon></g></svg>