<svg xmlns="http://www.w3.org/2000/svg" viewBox="0 0 32 32" height="64" width="64"><title>coding-apps-websites-setting-computer</title><g><polygon points="1.52 31.24 30.47 31.24 30.47 29.71 32 29.71 32 25.14 30.47 25.14 30.47 28.19 1.52 28.19 1.52 25.14 0 25.14 0 29.71 1.52 29.71 1.52 31.24" fill="#ffffff"></polygon><rect x="28.95" y="22.1" width="1.52" height="3.04" fill="#ffffff"></rect><polygon points="27.43 19.05 27.43 20.57 24.38 20.57 24.38 22.1 28.95 22.1 28.95 19.05 27.43 19.05" fill="#ffffff"></polygon><rect x="27.43" y="14.48" width="1.52" height="1.52" fill="#ffffff"></rect><polygon points="28.95 9.9 28.95 11.43 27.43 11.43 27.43 12.95 30.47 12.95 30.47 8.38 27.43 8.38 27.43 9.9 28.95 9.9" fill="#ffffff"></polygon><rect x="27.43" y="5.33" width="1.52" height="1.53" fill="#ffffff"></rect><rect x="25.9" y="16" width="1.53" height="1.52" fill="#ffffff"></rect><rect x="25.9" y="12.95" width="1.53" height="1.53" fill="#ffffff"></rect><rect x="25.9" y="6.86" width="1.53" height="1.52" fill="#ffffff"></rect><rect x="25.9" y="3.81" width="1.53" height="1.52" fill="#ffffff"></rect><rect x="24.38" y="17.52" width="1.52" height="1.53" fill="#ffffff"></rect><rect x="24.38" y="2.29" width="1.52" height="1.52" fill="#ffffff"></rect><rect x="22.85" y="16" width="1.53" height="1.52" fill="#ffffff"></rect><rect x="22.85" y="3.81" width="1.53" height="1.52" fill="#ffffff"></rect><polygon points="21.33 19.05 19.81 19.05 19.81 17.52 18.28 17.52 18.28 20.57 22.85 20.57 22.85 17.52 21.33 17.52 21.33 19.05" fill="#ffffff"></polygon><path d="M22.85,6.86H18.28V8.38H16.76v4.57h1.52v1.53h4.57V12.95h1.53V8.38H22.85Zm0,4.57H21.33v1.52H19.81V11.43H18.28V9.9h1.53V8.38h1.52V9.9h1.52Z" fill="#ffffff"></path><polygon points="19.81 2.29 21.33 2.29 21.33 3.81 22.85 3.81 22.85 0.76 18.28 0.76 18.28 3.81 19.81 3.81 19.81 2.29" fill="#ffffff"></polygon><rect x="16.76" y="16" width="1.52" height="1.52" fill="#ffffff"></rect><rect x="16.76" y="3.81" width="1.52" height="1.52" fill="#ffffff"></rect><rect x="13.71" y="25.14" width="4.57" height="1.53" fill="#ffffff"></rect><rect x="15.24" y="17.52" width="1.52" height="1.53" fill="#ffffff"></rect><rect x="15.24" y="2.29" width="1.52" height="1.52" fill="#ffffff"></rect><rect x="13.71" y="16" width="1.53" height="1.52" fill="#ffffff"></rect><rect x="13.71" y="12.95" width="1.53" height="1.53" fill="#ffffff"></rect><rect x="13.71" y="6.86" width="1.53" height="1.52" fill="#ffffff"></rect><rect x="13.71" y="3.81" width="1.53" height="1.52" fill="#ffffff"></rect><rect x="12.19" y="14.48" width="1.52" height="1.52" fill="#ffffff"></rect><polygon points="12.19 11.43 12.19 9.9 13.71 9.9 13.71 8.38 10.66 8.38 10.66 12.95 13.71 12.95 13.71 11.43 12.19 11.43" fill="#ffffff"></polygon><rect x="12.19" y="5.33" width="1.52" height="1.53" fill="#ffffff"></rect><rect x="4.57" y="3.81" width="6.09" height="1.52" fill="#ffffff"></rect><polygon points="10.66 22.1 10.66 20.57 4.57 20.57 4.57 5.33 3.05 5.33 3.05 22.1 10.66 22.1" fill="#ffffff"></polygon><rect x="1.52" y="22.1" width="1.53" height="3.04" fill="#ffffff"></rect></g></svg>