<svg xmlns="http://www.w3.org/2000/svg" viewBox="0 0 32 32" height="64" width="64"><title>coding-apps-websites-live-status</title><g><path d="M1.52,30.475H30.48v-1.52H32V18.285H30.48v-1.52H1.52v1.52H0v10.67H1.52ZM25.9,19.815h3.05v3.05H25.9Zm-7.61,0h4.57v1.52H19.81v1.53h3.05v1.52H19.81v1.52h3.05v1.53H18.29Zm-6.1,0h1.52v6.09h1.53v-6.09h1.52v6.09H15.24v1.53H13.71v-1.53H12.19Zm-3.05,0h1.53v7.62H9.14Zm-6.09,0H4.57v6.09H7.62v1.53H3.05Z" fill="#ffffff"></path><rect x="25.9" y="7.625" width="1.53" height="1.52" fill="#ffffff"></rect><rect x="24.38" y="6.095" width="1.52" height="1.53" fill="#ffffff"></rect><rect x="22.86" y="10.665" width="1.52" height="1.53" fill="#ffffff"></rect><rect x="21.33" y="9.145" width="1.53" height="1.52" fill="#ffffff"></rect><rect x="21.33" y="4.575" width="3.05" height="1.52" fill="#ffffff"></rect><rect x="18.29" y="7.625" width="3.04" height="1.52" fill="#ffffff"></rect><rect x="18.29" y="12.195" width="1.52" height="1.52" fill="#ffffff"></rect><rect x="18.29" y="3.055" width="3.04" height="1.52" fill="#ffffff"></rect><rect x="13.71" y="10.665" width="4.58" height="1.53" fill="#ffffff"></rect><rect x="13.71" y="6.095" width="4.58" height="1.53" fill="#ffffff"></rect><rect x="13.71" y="1.525" width="4.58" height="1.53" fill="#ffffff"></rect><rect x="12.19" y="12.195" width="1.52" height="1.52" fill="#ffffff"></rect><rect x="10.67" y="3.055" width="3.04" height="1.52" fill="#ffffff"></rect><rect x="10.67" y="7.625" width="3.04" height="1.52" fill="#ffffff"></rect><rect x="9.14" y="9.145" width="1.53" height="1.52" fill="#ffffff"></rect><rect x="7.62" y="4.575" width="3.05" height="1.52" fill="#ffffff"></rect><rect x="7.62" y="10.665" width="1.52" height="1.53" fill="#ffffff"></rect><rect x="6.1" y="6.095" width="1.52" height="1.53" fill="#ffffff"></rect><rect x="4.57" y="7.625" width="1.53" height="1.52" fill="#ffffff"></rect></g></svg>