<svg xmlns="http://www.w3.org/2000/svg" viewBox="0 0 32 32" height="64" width="64"><title>coding-apps-websites-module</title><g><rect x="28.185" y="10.665" width="1.53" height="10.67" fill="#ffffff"></rect><rect x="26.665" y="21.335" width="1.52" height="1.52" fill="#ffffff"></rect><rect x="26.665" y="9.145" width="1.52" height="1.52" fill="#ffffff"></rect><rect x="23.615" y="10.665" width="3.05" height="1.52" fill="#ffffff"></rect><rect x="23.615" y="22.855" width="3.05" height="1.53" fill="#ffffff"></rect><polygon points="25.145 9.145 25.145 7.615 23.615 7.615 23.615 6.095 20.575 6.095 20.575 7.615 19.045 7.615 19.045 9.145 20.575 9.145 20.575 10.665 23.615 10.665 23.615 9.145 25.145 9.145" fill="#ffffff"></polygon><rect x="20.575" y="12.185" width="3.04" height="1.53" fill="#ffffff"></rect><rect x="20.575" y="24.385" width="3.04" height="1.52" fill="#ffffff"></rect><polygon points="17.525 28.955 17.525 27.425 20.575 27.425 20.575 25.905 17.525 25.905 17.525 15.235 14.475 15.235 14.475 16.765 15.995 16.765 15.995 27.425 14.475 27.425 14.475 28.955 17.525 28.955" fill="#ffffff"></polygon><rect x="17.525" y="13.715" width="3.05" height="1.52" fill="#ffffff"></rect><polygon points="17.525 12.185 19.045 12.185 19.045 10.665 17.525 10.665 17.525 9.145 14.475 9.145 14.475 10.665 12.955 10.665 12.955 12.185 14.475 12.185 14.475 13.715 17.525 13.715 17.525 12.185" fill="#ffffff"></polygon><polygon points="14.475 3.045 14.475 4.575 12.955 4.575 12.955 6.095 14.475 6.095 14.475 7.615 17.525 7.615 17.525 6.095 19.045 6.095 19.045 4.575 17.525 4.575 17.525 3.045 14.475 3.045" fill="#ffffff"></polygon><rect x="11.425" y="25.905" width="3.05" height="1.52" fill="#ffffff"></rect><rect x="11.425" y="13.715" width="3.05" height="1.52" fill="#ffffff"></rect><rect x="8.385" y="24.385" width="3.04" height="1.52" fill="#ffffff"></rect><polygon points="11.425 9.145 12.955 9.145 12.955 7.615 11.425 7.615 11.425 6.095 8.385 6.095 8.385 7.615 6.855 7.615 6.855 9.145 8.385 9.145 8.385 10.665 11.425 10.665 11.425 9.145" fill="#ffffff"></polygon><rect x="8.385" y="12.185" width="3.04" height="1.53" fill="#ffffff"></rect><rect x="5.335" y="22.855" width="3.05" height="1.53" fill="#ffffff"></rect><rect x="5.335" y="10.665" width="3.05" height="1.52" fill="#ffffff"></rect><rect x="3.805" y="21.335" width="1.53" height="1.52" fill="#ffffff"></rect><rect x="3.805" y="9.145" width="1.53" height="1.52" fill="#ffffff"></rect><rect x="2.285" y="10.665" width="1.52" height="10.67" fill="#ffffff"></rect></g></svg>