<svg xmlns="http://www.w3.org/2000/svg" viewBox="0 0 32 32" height="64" width="64"><title>coding-apps-websites-dinosaur-error</title><g><rect x="30.48" y="25.145" width="1.52" height="1.52" fill="#ffffff"></rect><polygon points="32 14.475 32 11.425 30.48 11.425 30.48 12.955 28.95 12.955 28.95 9.905 27.43 9.905 27.43 16.005 25.9 16.005 25.9 14.475 24.38 14.475 24.38 17.525 27.43 17.525 27.43 22.095 19.81 22.095 19.81 23.625 32 23.625 32 22.095 28.95 22.095 28.95 14.475 32 14.475" fill="#ffffff"></polygon><rect x="28.95" y="0.765" width="3.05" height="1.52" fill="#ffffff"></rect><rect x="25.9" y="25.145" width="1.53" height="1.52" fill="#ffffff"></rect><rect x="24.38" y="3.815" width="3.05" height="1.52" fill="#ffffff"></rect><rect x="19.81" y="25.145" width="1.52" height="1.52" fill="#ffffff"></rect><polygon points="19.81 9.905 15.24 9.905 15.24 11.425 19.81 11.425 19.81 12.955 21.33 12.955 21.33 5.335 19.81 5.335 19.81 9.905" fill="#ffffff"></polygon><path d="M13.71,16.005H10.67v1.52h3.04v1.52H10.67v-1.52H9.14v6.1h4.57v1.52H9.14v1.52H4.57V28.2H6.1v3.04H9.14v-1.52H7.62V28.2h4.57v-1.53h1.52V28.2h3.05v-1.53H15.24v-6.09h1.52V22.1h1.53v-3.05H15.24v-4.57h4.57v-1.52h-6.1Zm0,6.09H10.67v-1.52h3.04Z" fill="#ffffff"></path><rect x="10.67" y="0.765" width="3.04" height="1.52" fill="#ffffff"></rect><rect x="9.14" y="6.855" width="1.53" height="3.05" fill="#ffffff"></rect><rect x="7.62" y="3.815" width="12.19" height="1.52" fill="#ffffff"></rect><rect x="7.62" y="23.625" width="1.52" height="1.52" fill="#ffffff"></rect><rect x="6.1" y="5.335" width="1.52" height="10.67" fill="#ffffff"></rect><rect x="4.57" y="16.005" width="1.53" height="4.57" fill="#ffffff"></rect><rect x="3.05" y="25.145" width="1.52" height="1.52" fill="#ffffff"></rect><rect x="3.05" y="20.575" width="1.52" height="1.52" fill="#ffffff"></rect><rect x="1.52" y="23.625" width="1.53" height="1.52" fill="#ffffff"></rect><rect y="5.335" width="3.05" height="1.52" fill="#ffffff"></rect><polygon points="1.52 20.575 3.05 20.575 3.05 19.045 1.52 19.045 1.52 17.525 0 17.525 0 23.625 1.52 23.625 1.52 20.575" fill="#ffffff"></polygon></g></svg>