<svg xmlns="http://www.w3.org/2000/svg" viewBox="0 0 32 32" height="64" width="64"><title>coding-apps-websites-mobile</title><g><path d="M30.48,0H21.33V1.53H19.81v9.14H1.52v1.52H19.81v4.58h1.52v6.09H1.52V12.19H0V25.91H1.52V24.39H21.33v1.52h1.53V18.29h7.62V16.77H32V1.53H30.48Zm-6.1,1.53h3.05V3.05H24.38Zm6.1,13.71H21.33V3.05h1.53V4.58h6.09V3.05h1.53Z" fill="#ffffff"></path><rect x="27.43" y="9.15" width="1.52" height="1.52" fill="#ffffff"></rect><rect x="27.43" y="6.1" width="1.52" height="1.52" fill="#ffffff"></rect><rect x="24.38" y="10.67" width="3.05" height="1.52" fill="#ffffff"></rect><rect x="22.86" y="9.15" width="1.52" height="1.52" fill="#ffffff"></rect><rect x="22.86" y="6.1" width="1.52" height="1.52" fill="#ffffff"></rect><polygon points="1.52 25.91 1.52 27.43 7.62 27.43 7.62 28.96 9.14 28.96 9.14 27.43 13.71 27.43 13.71 28.96 15.24 28.96 15.24 27.43 21.33 27.43 21.33 25.91 1.52 25.91" fill="#ffffff"></polygon><rect x="18.29" y="16.77" width="1.52" height="1.52" fill="#ffffff"></rect><rect x="16.76" y="18.29" width="1.53" height="1.52" fill="#ffffff"></rect><rect x="16.76" y="15.24" width="1.53" height="1.53" fill="#ffffff"></rect><rect x="15.24" y="19.81" width="1.52" height="1.53" fill="#ffffff"></rect><rect x="15.24" y="13.72" width="1.52" height="1.52" fill="#ffffff"></rect><polygon points="7.62 30.48 7.62 28.96 6.1 28.96 6.1 32 16.76 32 16.76 28.96 15.24 28.96 15.24 30.48 7.62 30.48" fill="#ffffff"></polygon><rect x="12.19" y="13.72" width="1.52" height="3.05" fill="#ffffff"></rect><rect x="10.67" y="16.77" width="1.52" height="1.52" fill="#ffffff"></rect><rect x="9.14" y="18.29" width="1.53" height="3.05" fill="#ffffff"></rect><rect x="6.1" y="19.81" width="1.52" height="1.53" fill="#ffffff"></rect><rect x="6.1" y="13.72" width="1.52" height="1.52" fill="#ffffff"></rect><rect x="4.57" y="18.29" width="1.53" height="1.52" fill="#ffffff"></rect><rect x="4.57" y="15.24" width="1.53" height="1.53" fill="#ffffff"></rect><rect x="3.05" y="16.77" width="1.52" height="1.52" fill="#ffffff"></rect></g></svg>