<svg xmlns="http://www.w3.org/2000/svg" viewBox="0 0 32 32" height="64" width="64"><title>coding-apps-websites-favorite-rate</title><g><rect x="30.48" y="15.24" width="1.52" height="10.67" fill="#ffffff"></rect><rect x="28.96" y="25.91" width="1.52" height="1.52" fill="#ffffff"></rect><rect x="28.96" y="13.72" width="1.52" height="1.52" fill="#ffffff"></rect><polygon points="27.43 30.48 25.91 30.48 25.91 32 28.96 32 28.96 27.43 27.43 27.43 27.43 30.48" fill="#ffffff"></polygon><polygon points="25.91 12.19 19.81 12.19 19.81 10.67 18.29 10.67 18.29 12.19 15.24 12.19 15.24 13.72 28.96 13.72 28.96 12.19 27.43 12.19 27.43 7.62 25.91 7.62 25.91 12.19" fill="#ffffff"></polygon><rect x="24.38" y="28.96" width="1.53" height="1.52" fill="#ffffff"></rect><polygon points="25.91 15.24 22.86 15.24 22.86 16.77 21.34 16.77 21.34 15.24 18.29 15.24 18.29 16.77 16.76 16.77 16.76 19.81 18.29 19.81 18.29 21.34 19.81 21.34 19.81 22.86 21.34 22.86 21.34 24.39 22.86 24.39 22.86 22.86 24.38 22.86 24.38 21.34 25.91 21.34 25.91 19.81 27.43 19.81 27.43 16.77 25.91 16.77 25.91 15.24" fill="#ffffff"></polygon><rect x="24.38" y="6.1" width="1.53" height="1.52" fill="#ffffff"></rect><rect x="22.86" y="27.43" width="1.52" height="1.53" fill="#ffffff"></rect><rect x="22.86" y="4.58" width="1.52" height="1.52" fill="#ffffff"></rect><rect x="15.24" y="25.91" width="7.62" height="1.52" fill="#ffffff"></rect><rect x="19.81" y="3.05" width="3.05" height="1.53" fill="#ffffff"></rect><rect x="16.76" y="1.53" width="3.05" height="1.52" fill="#ffffff"></rect><polygon points="19.81 9.15 19.81 10.67 21.34 10.67 21.34 7.62 16.76 7.62 16.76 6.1 15.24 6.1 15.24 9.15 19.81 9.15" fill="#ffffff"></polygon><rect x="13.72" y="24.39" width="1.52" height="1.52" fill="#ffffff"></rect><rect x="13.72" y="13.72" width="1.52" height="1.52" fill="#ffffff"></rect><rect x="13.72" y="4.58" width="1.52" height="1.52" fill="#ffffff"></rect><polygon points="13.72 15.24 10.67 15.24 10.67 16.77 12.19 16.77 12.19 22.86 7.62 22.86 7.62 24.39 13.72 24.39 13.72 15.24" fill="#ffffff"></polygon><rect x="12.19" y="3.05" width="1.53" height="1.53" fill="#ffffff"></rect><rect x="10.67" width="6.09" height="1.53" fill="#ffffff"></rect><rect x="10.67" y="4.58" width="1.52" height="1.52" fill="#ffffff"></rect><rect x="9.15" y="16.77" width="1.52" height="1.52" fill="#ffffff"></rect><rect x="7.62" y="1.53" width="3.05" height="1.52" fill="#ffffff"></rect><rect x="7.62" y="18.29" width="1.53" height="1.52" fill="#ffffff"></rect><rect x="7.62" y="12.19" width="1.53" height="3.05" fill="#ffffff"></rect><rect x="6.1" y="15.24" width="1.52" height="3.05" fill="#ffffff"></rect><rect x="6.1" y="10.67" width="1.52" height="1.52" fill="#ffffff"></rect><polygon points="10.67 9.15 10.67 6.1 9.15 6.1 9.15 7.62 4.57 7.62 4.57 10.67 6.1 10.67 6.1 9.15 10.67 9.15" fill="#ffffff"></polygon><rect x="4.57" y="3.05" width="3.05" height="1.53" fill="#ffffff"></rect><polygon points="3.05 24.39 3.05 22.86 1.53 22.86 1.53 24.39 0 24.39 0 25.91 7.62 25.91 7.62 24.39 3.05 24.39" fill="#ffffff"></polygon><rect x="3.05" y="19.81" width="1.52" height="3.05" fill="#ffffff"></rect><rect x="3.05" y="4.58" width="1.52" height="1.52" fill="#ffffff"></rect><rect x="1.53" y="18.29" width="1.52" height="1.52" fill="#ffffff"></rect><rect x="1.53" y="6.1" width="1.52" height="1.52" fill="#ffffff"></rect><rect y="7.62" width="1.53" height="10.67" fill="#ffffff"></rect></g></svg>