<svg xmlns="http://www.w3.org/2000/svg" viewBox="0 0 32 32" height="64" width="64"><title>coding-apps-websites-music-player</title><g><rect x="30.48" y="1.53" width="1.52" height="28.95" fill="#ffffff"></rect><rect x="1.52" y="30.48" width="28.96" height="1.52" fill="#ffffff"></rect><rect x="25.9" y="24.39" width="1.53" height="1.52" fill="#ffffff"></rect><path d="M3.05,3.05V19.81h25.9V3.05ZM27.43,18.29H4.57V4.58H27.43Z" fill="#ffffff"></path><rect x="24.38" y="25.91" width="1.52" height="1.52" fill="#ffffff"></rect><rect x="24.38" y="22.86" width="1.52" height="1.53" fill="#ffffff"></rect><polygon points="24.38 12.19 25.9 12.19 25.9 10.67 24.38 10.67 24.38 9.15 22.86 9.15 22.86 13.72 21.33 13.72 21.33 15.24 24.38 15.24 24.38 12.19" fill="#ffffff"></polygon><rect x="21.33" y="22.86" width="1.53" height="4.57" fill="#ffffff"></rect><polygon points="18.29 9.15 16.76 9.15 16.76 10.67 19.81 10.67 19.81 6.1 15.24 6.1 15.24 7.62 18.29 7.62 18.29 9.15" fill="#ffffff"></polygon><polygon points="16.76 22.86 15.24 22.86 15.24 21.34 13.71 21.34 13.71 28.96 15.24 28.96 15.24 27.43 16.76 27.43 16.76 25.91 18.29 25.91 18.29 24.39 16.76 24.39 16.76 22.86" fill="#ffffff"></polygon><polygon points="15.24 7.62 13.71 7.62 13.71 10.67 12.19 10.67 12.19 12.19 15.24 12.19 15.24 7.62" fill="#ffffff"></polygon><rect x="9.14" y="22.86" width="1.53" height="4.57" fill="#ffffff"></rect><polygon points="9.14 9.15 7.62 9.15 7.62 13.72 6.1 13.72 6.1 15.24 9.14 15.24 9.14 9.15" fill="#ffffff"></polygon><rect x="6.1" y="25.91" width="1.52" height="1.52" fill="#ffffff"></rect><rect x="6.1" y="22.86" width="1.52" height="1.53" fill="#ffffff"></rect><rect x="4.57" y="24.39" width="1.53" height="1.52" fill="#ffffff"></rect><rect x="1.52" width="28.96" height="1.53" fill="#ffffff"></rect><rect y="1.53" width="1.52" height="28.95" fill="#ffffff"></rect></g></svg>