<svg xmlns="http://www.w3.org/2000/svg" viewBox="0 0 32 32" height="64" width="64"><title>coding-apps-websites-database</title><g><polygon points="28.19 27.43 29.72 27.43 29.72 25.91 31.24 25.91 31.24 6.1 29.72 6.1 29.72 7.62 28.19 7.62 28.19 9.14 23.62 9.14 23.62 10.67 8.38 10.67 8.38 12.19 22.1 12.19 22.1 19.81 23.62 19.81 23.62 18.29 28.19 18.29 28.19 16.76 29.72 16.76 29.72 18.29 28.19 18.29 28.19 19.81 23.62 19.81 23.62 21.33 22.1 21.33 22.1 28.95 8.38 28.95 8.38 30.48 23.62 30.48 23.62 28.95 28.19 28.95 28.19 27.43" fill="#ffffff"></polygon><rect x="26.67" y="4.57" width="3.05" height="1.53" fill="#ffffff"></rect><rect x="22.1" y="3.05" width="4.57" height="1.52" fill="#ffffff"></rect><rect x="8.38" y="19.81" width="13.72" height="1.52" fill="#ffffff"></rect><rect x="9.91" y="24.38" width="4.57" height="1.53" fill="#ffffff"></rect><rect x="9.91" y="15.24" width="4.57" height="1.52" fill="#ffffff"></rect><rect x="9.91" y="1.52" width="12.19" height="1.53" fill="#ffffff"></rect><rect x="3.81" y="27.43" width="4.57" height="1.52" fill="#ffffff"></rect><rect x="3.81" y="18.29" width="4.57" height="1.52" fill="#ffffff"></rect><rect x="3.81" y="9.14" width="4.57" height="1.53" fill="#ffffff"></rect><rect x="5.33" y="3.05" width="4.58" height="1.52" fill="#ffffff"></rect><rect x="3.81" y="21.33" width="3.05" height="3.05" fill="#ffffff"></rect><rect x="3.81" y="12.19" width="3.05" height="3.05" fill="#ffffff"></rect><rect x="2.29" y="4.57" width="3.04" height="1.53" fill="#ffffff"></rect><rect x="2.29" y="25.91" width="1.52" height="1.52" fill="#ffffff"></rect><polygon points="2.29 18.29 3.81 18.29 3.81 16.76 2.29 16.76 2.29 9.14 3.81 9.14 3.81 7.62 2.29 7.62 2.29 6.1 0.76 6.1 0.76 25.91 2.29 25.91 2.29 18.29" fill="#ffffff"></polygon></g></svg>