<svg xmlns="http://www.w3.org/2000/svg" viewBox="0 0 32 32" height="64" width="64"><title>coding-apps-websites-browser-bugs-2</title><g><polygon points="1.52 22.85 30.47 22.85 30.47 25.9 32 25.9 32 1.52 30.47 1.52 30.47 21.33 1.52 21.33 1.52 1.52 0 1.52 0 25.9 1.52 25.9 1.52 22.85" fill="#ffffff"></polygon><polygon points="1.52 25.9 1.52 27.42 10.67 27.42 10.67 28.95 12.19 28.95 12.19 27.42 19.81 27.42 19.81 28.95 21.33 28.95 21.33 27.42 30.47 27.42 30.47 25.9 1.52 25.9" fill="#ffffff"></polygon><rect x="21.33" y="6.09" width="1.53" height="3.05" fill="#ffffff"></rect><polygon points="10.67 30.47 10.67 28.95 9.14 28.95 9.14 32 22.86 32 22.86 28.95 21.33 28.95 21.33 30.47 10.67 30.47" fill="#ffffff"></polygon><polygon points="18.28 7.61 18.28 4.57 19.81 4.57 19.81 3.04 16.76 3.04 16.76 6.09 15.24 6.09 15.24 3.04 12.19 3.04 12.19 4.57 13.71 4.57 13.71 7.61 18.28 7.61" fill="#ffffff"></polygon><path d="M10.67,16.76H9.14v3.05h1.53V18.28h3.04v1.53h4.57V18.28h3.05v1.53h1.53V16.76H21.33V13.71h3.05V12.19H21.33V9.14H19.81V7.61H18.28V9.14H13.71V7.61H12.19V9.14H10.67v3.05H7.62v1.52h3.05Zm1.52-4.57h7.62v1.52H16.76v4.57H15.24V13.71H12.19Z" fill="#ffffff"></path><rect x="9.14" y="6.09" width="1.53" height="3.05" fill="#ffffff"></rect><rect x="1.52" width="28.95" height="1.52" fill="#ffffff"></rect></g></svg>