<svg xmlns="http://www.w3.org/2000/svg" viewBox="0 0 32 32" height="64" width="64"><title>coding-apps-websites-constuction</title><g><path d="M10.67,18.28V25.9h4.57V32h1.52V25.9h9.15V32h1.52V25.9H32V18.28Zm6.09,4.58H15.24v1.52H12.19V22.86h1.53V21.33h1.52V19.81h3.05v1.52H16.76Zm6.1,0H21.33v1.52H18.29V22.86h1.52V21.33h1.52V19.81h3.05v1.52H22.86Zm7.62-1.53H28.95v1.53H27.43v1.52H24.38V22.86h1.53V21.33h1.52V19.81h3.05Z" fill="#ffffff"></path><rect x="21.33" y="12.19" width="1.53" height="1.52" fill="#ffffff"></rect><rect x="21.33" y="9.14" width="1.53" height="1.53" fill="#ffffff"></rect><rect x="19.81" y="10.67" width="1.52" height="1.52" fill="#ffffff"></rect><rect x="18.29" y="12.19" width="1.52" height="1.52" fill="#ffffff"></rect><rect x="18.29" y="9.14" width="1.52" height="1.53" fill="#ffffff"></rect><rect x="16.76" y="15.24" width="1.53" height="1.52" fill="#ffffff"></rect><rect x="12.19" y="13.71" width="4.57" height="1.53" fill="#ffffff"></rect><rect x="10.67" y="15.24" width="1.52" height="1.52" fill="#ffffff"></rect><rect x="9.14" y="12.19" width="1.53" height="1.52" fill="#ffffff"></rect><rect x="9.14" y="9.14" width="1.53" height="1.53" fill="#ffffff"></rect><rect x="9.14" y="3.05" width="1.53" height="1.52" fill="#ffffff"></rect><path d="M3.05,27.43V24.38H1.52v3.05H0V32H10.67V27.43H9.14V24.38H7.62v3.05Zm6.09,1.52v1.53H1.52V28.95Z" fill="#ffffff"></path><rect x="7.62" y="10.67" width="1.52" height="1.52" fill="#ffffff"></rect><rect x="6.1" y="12.19" width="1.52" height="1.52" fill="#ffffff"></rect><rect x="6.1" y="9.14" width="1.52" height="1.53" fill="#ffffff"></rect><rect x="6.1" y="3.05" width="1.52" height="1.52" fill="#ffffff"></rect><polygon points="4.57 22.86 4.57 21.33 3.05 21.33 3.05 24.38 7.62 24.38 7.62 21.33 6.1 21.33 6.1 22.86 4.57 22.86" fill="#ffffff"></polygon><rect x="4.57" y="19.81" width="1.53" height="1.52" fill="#ffffff"></rect><rect x="3.05" y="3.05" width="1.52" height="1.52" fill="#ffffff"></rect><rect x="1.52" width="25.91" height="1.52" fill="#ffffff"></rect><polygon points="28.95 12.19 28.95 1.52 27.43 1.52 27.43 6.09 1.52 6.09 1.52 1.52 0 1.52 0 22.86 1.52 22.86 1.52 7.62 27.43 7.62 27.43 12.19 28.95 12.19" fill="#ffffff"></polygon></g></svg>