<svg xmlns="http://www.w3.org/2000/svg" viewBox="0 0 32 32" height="64" width="64"><title>computers-devices-electronics-tablet</title><g><path d="M4.565,0V1.53H3.045V30.48h1.52V32h22.86V30.48h1.53V1.53h-1.53V0Zm12.19,30.48h-1.52V28.96h1.52Zm9.15-3.05H6.1V3.05h19.81Z" fill="#ffffff"></path><path d="M15.235,12.19h1.52v3.05h7.62V7.62h-7.62v3.05h-1.52V7.62H7.615v7.62h7.62Zm3.05-3.04h4.57v4.57h-4.57Zm-4.57,4.57H9.145V9.15h4.57Z" fill="#ffffff"></path><rect x="19.805" y="10.67" width="1.53" height="1.52" fill="#ffffff"></rect><rect x="18.285" y="16.76" width="1.52" height="1.53" fill="#ffffff"></rect><rect x="15.235" y="18.29" width="3.05" height="1.52" fill="#ffffff"></rect><rect x="10.665" y="10.67" width="1.52" height="1.52" fill="#ffffff"></rect></g></svg>