<svg xmlns="http://www.w3.org/2000/svg" viewBox="0 0 32 32" height="64" width="64"><title>computers-devices-electronics-keyboard</title><g><rect x="30.48" y="19.81" width="1.52" height="10.67" fill="#ffffff"></rect><rect x="1.53" y="30.48" width="28.95" height="1.52" fill="#ffffff"></rect><polygon points="25.91 24.38 24.38 24.38 24.38 25.91 27.43 25.91 27.43 22.86 25.91 22.86 25.91 24.38" fill="#ffffff"></polygon><rect x="24.38" y="27.43" width="3.05" height="1.53" fill="#ffffff"></rect><rect x="22.86" y="21.34" width="1.52" height="1.52" fill="#ffffff"></rect><rect x="22.86" y="10.67" width="1.52" height="1.52" fill="#ffffff"></rect><rect x="21.33" y="24.38" width="1.53" height="1.53" fill="#ffffff"></rect><rect x="21.33" y="12.19" width="1.53" height="1.53" fill="#ffffff"></rect><rect x="21.33" y="9.15" width="1.53" height="1.52" fill="#ffffff"></rect><rect x="9.14" y="27.43" width="13.72" height="1.53" fill="#ffffff"></rect><rect x="19.81" y="21.34" width="1.52" height="1.52" fill="#ffffff"></rect><rect x="6.1" y="7.62" width="15.23" height="1.53" fill="#ffffff"></rect><rect x="18.29" y="24.38" width="1.52" height="1.53" fill="#ffffff"></rect><rect x="18.29" width="1.52" height="3.05" fill="#ffffff"></rect><rect x="16.76" y="21.34" width="1.53" height="1.52" fill="#ffffff"></rect><rect x="15.24" y="24.38" width="1.52" height="1.53" fill="#ffffff"></rect><rect x="13.72" y="21.34" width="1.52" height="1.52" fill="#ffffff"></rect><rect x="12.19" y="13.72" width="9.14" height="1.52" fill="#ffffff"></rect><rect x="12.19" y="24.38" width="1.53" height="1.53" fill="#ffffff"></rect><rect x="10.67" y="21.34" width="1.52" height="1.52" fill="#ffffff"></rect><rect x="9.14" y="24.38" width="1.53" height="1.53" fill="#ffffff"></rect><rect x="7.62" y="21.34" width="1.52" height="1.52" fill="#ffffff"></rect><rect x="6.1" y="3.05" width="12.19" height="1.53" fill="#ffffff"></rect><rect x="6.1" y="24.38" width="1.52" height="1.53" fill="#ffffff"></rect><rect x="4.57" y="27.43" width="3.05" height="1.53" fill="#ffffff"></rect><rect x="4.57" y="21.34" width="1.53" height="1.52" fill="#ffffff"></rect><rect x="4.57" y="4.58" width="1.53" height="3.04" fill="#ffffff"></rect><rect x="3.05" y="24.38" width="1.52" height="1.53" fill="#ffffff"></rect><polygon points="30.48 19.81 30.48 18.29 12.19 18.29 12.19 15.24 10.67 15.24 10.67 18.29 1.53 18.29 1.53 19.81 30.48 19.81" fill="#ffffff"></polygon><rect y="19.81" width="1.53" height="10.67" fill="#ffffff"></rect></g></svg>