<svg xmlns="http://www.w3.org/2000/svg" viewBox="0 0 32 32" height="64" width="64"><title>computers-devices-electronics-flash-drive-1</title><g><path d="M10.67,0V7.62H9.15V9.15H7.62V28.96H9.15V10.67H22.86V28.96h1.52V9.15H22.86V7.62H21.34V0Zm9.14,7.62H12.19V1.53h7.62Z" fill="#ffffff"></path><rect x="21.34" y="28.96" width="1.52" height="1.52" fill="#ffffff"></rect><rect x="10.67" y="30.48" width="10.67" height="1.52" fill="#ffffff"></rect><rect x="18.29" y="24.38" width="1.52" height="1.53" fill="#ffffff"></rect><rect x="18.29" y="21.34" width="1.52" height="1.52" fill="#ffffff"></rect><rect x="16.76" y="3.05" width="1.53" height="3.05" fill="#ffffff"></rect><rect x="13.72" y="25.91" width="4.57" height="1.52" fill="#ffffff"></rect><rect x="13.72" y="3.05" width="1.52" height="3.05" fill="#ffffff"></rect><rect x="12.19" y="24.38" width="1.53" height="1.53" fill="#ffffff"></rect><rect x="12.19" y="21.34" width="1.53" height="1.52" fill="#ffffff"></rect><rect x="9.15" y="28.96" width="1.52" height="1.52" fill="#ffffff"></rect></g></svg>