<svg xmlns="http://www.w3.org/2000/svg" viewBox="0 0 32 32" height="64" width="64"><title>computers-devices-electronicsmicrochip-board</title><g><path d="M0,0V32H32V0ZM1.52,7.62H6.1v3.05H24.38V7.62h3.05v7.62H25.91V12.19H24.38v1.53H21.33V12.19H19.81v1.53H16.76V12.19H15.24v1.53H12.19V12.19H10.67v1.53H7.62V12.19H6.1v3.05H4.57V9.15H1.52Zm6.1,1.53V7.62H9.14V9.15Zm4.57,0V7.62h1.52V9.15Zm4.57,0V7.62h1.53V9.15Zm4.57,0V7.62h1.53V9.15Zm3.05,6.09v3.05H7.62V15.24ZM1.52,10.67H3.05v9.14H1.52ZM30.48,28.96H1.52V27.43h6.1V22.86H1.52V21.34H4.57V16.76H6.1v4.58H7.62V19.81h3.05v1.53h1.52V19.81h3.05v1.53h1.52V19.81h3.05v1.53h1.52V19.81h3.05v1.53h1.53V16.76h1.52v1.53h1.52V15.24h1.53Zm0-15.24H28.95V6.1H24.38V4.57H6.1V6.1H1.52V1.53H9.14V3.05h1.53V1.53h1.52V3.05h1.52V1.53h1.53V3.05h1.52V1.53h1.53V3.05h1.52V1.53h1.52V3.05h1.53V1.53h7.62Z" fill="#ffffff"></path><rect x="27.43" y="22.86" width="1.52" height="4.57" fill="#ffffff"></rect><rect x="27.43" y="3.05" width="1.52" height="1.52" fill="#ffffff"></rect><rect x="24.38" y="22.86" width="1.53" height="4.57" fill="#ffffff"></rect><polygon points="21.33 22.86 19.81 22.86 19.81 24.38 18.29 24.38 18.29 22.86 16.76 22.86 16.76 24.38 15.24 24.38 15.24 27.43 22.86 27.43 22.86 24.38 21.33 24.38 21.33 22.86" fill="#ffffff"></polygon><rect x="9.14" y="22.86" width="4.57" height="4.57" fill="#ffffff"></rect><rect x="3.05" y="3.05" width="1.52" height="1.52" fill="#ffffff"></rect></g></svg>