<svg xmlns="http://www.w3.org/2000/svg" viewBox="0 0 32 32" height="64" width="64"><title>computers-devices-electronics-monitor</title><g><polygon points="30.48 21.33 1.52 21.33 1.52 1.52 0 1.52 0 25.9 1.52 25.9 1.52 27.42 10.67 27.42 10.67 28.95 12.19 28.95 12.19 27.42 19.81 27.42 19.81 28.95 21.33 28.95 21.33 27.42 30.48 27.42 30.48 25.9 32 25.9 32 1.52 30.48 1.52 30.48 21.33" fill="#ffffff"></polygon><polygon points="22.86 9.14 24.38 9.14 24.38 7.61 25.9 7.61 25.9 6.09 24.38 6.09 24.38 4.57 22.86 4.57 22.86 6.09 21.33 6.09 21.33 7.61 22.86 7.61 22.86 9.14" fill="#ffffff"></polygon><polygon points="10.67 30.47 10.67 28.95 9.14 28.95 9.14 32 22.86 32 22.86 28.95 21.33 28.95 21.33 30.47 10.67 30.47" fill="#ffffff"></polygon><rect x="19.81" y="10.66" width="1.52" height="1.53" fill="#ffffff"></rect><rect x="10.67" y="15.23" width="10.66" height="1.53" fill="#ffffff"></rect><rect x="10.67" y="10.66" width="1.52" height="1.53" fill="#ffffff"></rect><rect x="1.52" width="28.96" height="1.52" fill="#ffffff"></rect></g></svg>