<svg xmlns="http://www.w3.org/2000/svg" viewBox="0 0 32 32" height="64" width="64"><title>computer-old-electronics</title><g><path d="M30.475,22.86h-4.57V21.33h1.52V19.81H4.575v1.52H6.1v1.53H1.525V32h28.95ZM7.615,21.33h16.76v1.53H7.615Zm21.34,9.15H3.045v-6.1h25.91Z" fill="#ffffff"></path><rect x="27.425" y="1.52" width="1.53" height="18.29" fill="#ffffff"></rect><rect x="18.285" y="25.9" width="7.62" height="1.53" fill="#ffffff"></rect><rect x="18.285" y="10.67" width="1.52" height="1.52" fill="#ffffff"></rect><rect x="18.285" y="7.62" width="1.52" height="1.52" fill="#ffffff"></rect><rect x="13.715" y="12.19" width="4.57" height="1.52" fill="#ffffff"></rect><rect x="12.185" y="10.67" width="1.53" height="1.52" fill="#ffffff"></rect><rect x="12.185" y="7.62" width="1.53" height="1.52" fill="#ffffff"></rect><path d="M6.1,18.29h19.81V3.05H6.1ZM7.615,4.57h16.76V16.76H7.615Z" fill="#ffffff"></path><rect x="6.095" y="25.9" width="3.05" height="3.05" fill="#ffffff"></rect><rect x="4.575" width="22.85" height="1.52" fill="#ffffff"></rect><rect x="3.045" y="1.52" width="1.53" height="18.29" fill="#ffffff"></rect></g></svg>