<svg xmlns="http://www.w3.org/2000/svg" viewBox="0 0 32 32" height="64" width="64"><title>computers-devices-electronics-television-vintage</title><g><rect x="30.47" y="7.62" width="1.53" height="19.81" fill="#ffffff"></rect><polygon points="1.52 27.43 1.52 28.95 3.05 28.95 3.05 30.48 4.57 30.48 4.57 28.95 27.43 28.95 27.43 30.48 28.95 30.48 28.95 28.95 30.47 28.95 30.47 27.43 1.52 27.43" fill="#ffffff"></polygon><rect x="27.43" y="16.76" width="1.52" height="1.53" fill="#ffffff"></rect><rect x="27.43" y="13.71" width="1.52" height="1.53" fill="#ffffff"></rect><rect x="27.43" y="10.67" width="1.52" height="1.52" fill="#ffffff"></rect><path d="M24.38,19.81V25.9h4.57V19.81Zm3.05,3.05H25.9V21.33h1.53Z" fill="#ffffff"></path><rect x="4.57" y="30.48" width="22.86" height="1.52" fill="#ffffff"></rect><rect x="24.38" y="16.76" width="1.52" height="1.53" fill="#ffffff"></rect><rect x="24.38" y="13.71" width="1.52" height="1.53" fill="#ffffff"></rect><rect x="24.38" y="10.67" width="1.52" height="1.52" fill="#ffffff"></rect><rect x="21.33" y="10.67" width="1.52" height="13.71" fill="#ffffff"></rect><rect x="4.57" y="24.38" width="16.76" height="1.52" fill="#ffffff"></rect><rect x="13.71" width="1.53" height="1.52" fill="#ffffff"></rect><rect x="12.19" y="1.52" width="1.52" height="1.53" fill="#ffffff"></rect><rect x="10.66" y="3.05" width="1.53" height="1.52" fill="#ffffff"></rect><rect x="7.62" y="3.05" width="1.52" height="1.52" fill="#ffffff"></rect><rect x="4.57" y="9.14" width="16.76" height="1.53" fill="#ffffff"></rect><rect x="6.09" y="1.52" width="1.53" height="1.53" fill="#ffffff"></rect><rect x="4.57" width="1.52" height="1.52" fill="#ffffff"></rect><rect x="3.05" y="10.67" width="1.52" height="13.71" fill="#ffffff"></rect><polygon points="30.47 7.62 30.47 6.1 10.66 6.1 10.66 4.57 9.14 4.57 9.14 6.1 1.52 6.1 1.52 7.62 30.47 7.62" fill="#ffffff"></polygon><rect y="7.62" width="1.52" height="19.81" fill="#ffffff"></rect></g></svg>