<svg xmlns="http://www.w3.org/2000/svg" viewBox="0 0 32 32" height="64" width="64"><title>computers-devices-electronics-keyboard-wireless</title><g><rect x="30.48" y="20.575" width="1.52" height="6.09" fill="#ffffff"></rect><rect x="28.95" y="26.665" width="1.53" height="3.05" fill="#ffffff"></rect><rect x="28.95" y="17.525" width="1.53" height="3.05" fill="#ffffff"></rect><rect x="27.43" y="22.095" width="1.52" height="1.52" fill="#ffffff"></rect><rect x="27.43" y="6.855" width="1.52" height="1.53" fill="#ffffff"></rect><rect x="3.05" y="29.715" width="25.9" height="1.52" fill="#ffffff"></rect><rect x="25.91" y="19.045" width="1.52" height="1.53" fill="#ffffff"></rect><rect x="25.91" y="5.335" width="1.52" height="1.52" fill="#ffffff"></rect><rect x="24.38" y="25.145" width="3.05" height="1.52" fill="#ffffff"></rect><rect x="24.38" y="22.095" width="1.53" height="1.52" fill="#ffffff"></rect><rect x="24.38" y="9.905" width="1.53" height="1.52" fill="#ffffff"></rect><rect x="22.86" y="19.045" width="1.52" height="1.53" fill="#ffffff"></rect><rect x="21.33" y="8.385" width="3.05" height="1.52" fill="#ffffff"></rect><rect x="22.86" y="3.815" width="3.05" height="1.52" fill="#ffffff"></rect><rect x="21.33" y="22.095" width="1.53" height="1.52" fill="#ffffff"></rect><rect x="9.14" y="25.145" width="13.72" height="3.05" fill="#ffffff"></rect><rect x="19.81" y="19.045" width="1.52" height="1.53" fill="#ffffff"></rect><rect x="18.29" y="6.855" width="3.04" height="1.53" fill="#ffffff"></rect><rect x="19.81" y="2.285" width="3.05" height="1.53" fill="#ffffff"></rect><rect x="18.29" y="22.095" width="1.52" height="1.52" fill="#ffffff"></rect><rect x="18.29" y="11.425" width="1.52" height="1.53" fill="#ffffff"></rect><rect x="16.76" y="19.045" width="1.53" height="1.53" fill="#ffffff"></rect><rect x="13.72" y="9.905" width="4.57" height="1.52" fill="#ffffff"></rect><rect x="13.72" y="5.335" width="4.57" height="1.52" fill="#ffffff"></rect><rect x="15.24" y="22.095" width="1.52" height="1.52" fill="#ffffff"></rect><rect x="13.72" y="19.045" width="1.52" height="1.53" fill="#ffffff"></rect><rect x="12.19" y="0.765" width="7.62" height="1.52" fill="#ffffff"></rect><rect x="12.19" y="22.095" width="1.53" height="1.52" fill="#ffffff"></rect><rect x="12.19" y="11.425" width="1.53" height="1.53" fill="#ffffff"></rect><rect x="10.67" y="19.045" width="1.52" height="1.53" fill="#ffffff"></rect><rect x="10.67" y="6.855" width="3.05" height="1.53" fill="#ffffff"></rect><rect x="9.14" y="2.285" width="3.05" height="1.53" fill="#ffffff"></rect><rect x="9.14" y="22.095" width="1.53" height="1.52" fill="#ffffff"></rect><rect x="7.62" y="19.045" width="1.52" height="1.53" fill="#ffffff"></rect><rect x="7.62" y="8.385" width="3.05" height="1.52" fill="#ffffff"></rect><rect x="6.1" y="3.815" width="3.04" height="1.52" fill="#ffffff"></rect><rect x="6.1" y="22.095" width="1.52" height="1.52" fill="#ffffff"></rect><rect x="6.1" y="9.905" width="1.52" height="1.52" fill="#ffffff"></rect><rect x="4.57" y="25.145" width="3.05" height="1.52" fill="#ffffff"></rect><rect x="4.57" y="19.045" width="1.53" height="1.53" fill="#ffffff"></rect><rect x="3.05" y="16.005" width="25.9" height="1.52" fill="#ffffff"></rect><rect x="4.57" y="5.335" width="1.53" height="1.52" fill="#ffffff"></rect><rect x="3.05" y="22.095" width="1.52" height="1.52" fill="#ffffff"></rect><rect x="3.05" y="6.855" width="1.52" height="1.53" fill="#ffffff"></rect><rect x="1.53" y="26.665" width="1.52" height="3.05" fill="#ffffff"></rect><rect x="1.53" y="17.525" width="1.52" height="3.05" fill="#ffffff"></rect><rect y="20.575" width="1.53" height="6.09" fill="#ffffff"></rect></g></svg>