<svg xmlns="http://www.w3.org/2000/svg" viewBox="0 0 32 32" height="64" width="64"><title>computers-devices-electronics-webcam</title><g><rect x="25.91" y="7.62" width="1.52" height="7.62" fill="#ffffff"></rect><rect x="24.38" y="28.96" width="1.53" height="1.52" fill="#ffffff"></rect><rect x="24.38" y="15.24" width="1.53" height="3.05" fill="#ffffff"></rect><rect x="24.38" y="4.57" width="1.53" height="3.05" fill="#ffffff"></rect><rect x="22.86" y="27.43" width="1.52" height="1.53" fill="#ffffff"></rect><rect x="22.86" y="18.29" width="1.52" height="1.52" fill="#ffffff"></rect><rect x="22.86" y="3.05" width="1.52" height="1.52" fill="#ffffff"></rect><rect x="7.62" y="30.48" width="16.76" height="1.52" fill="#ffffff"></rect><rect x="21.33" y="7.62" width="1.53" height="7.62" fill="#ffffff"></rect><rect x="19.81" y="25.91" width="3.05" height="1.52" fill="#ffffff"></rect><rect x="19.81" y="19.81" width="3.05" height="1.53" fill="#ffffff"></rect><rect x="19.81" y="15.24" width="1.52" height="1.52" fill="#ffffff"></rect><rect x="19.81" y="6.1" width="1.52" height="1.52" fill="#ffffff"></rect><rect x="19.81" y="1.53" width="3.05" height="1.52" fill="#ffffff"></rect><polygon points="13.71 7.62 13.71 9.15 12.19 9.15 12.19 13.72 13.71 13.72 13.71 15.24 18.29 15.24 18.29 13.72 19.81 13.72 19.81 9.15 18.29 9.15 18.29 10.67 16.76 10.67 16.76 9.15 18.29 9.15 18.29 7.62 13.71 7.62" fill="#ffffff"></polygon><path d="M12.19,21.34v1.52h1.52v1.52H12.19v1.53h7.62V24.38H18.29V22.86h1.52V21.34Zm4.57,3.04H15.24V22.86h1.52Z" fill="#ffffff"></path><rect x="12.19" y="16.76" width="7.62" height="1.53" fill="#ffffff"></rect><rect x="12.19" y="4.57" width="7.62" height="1.53" fill="#ffffff"></rect><rect x="12.19" width="7.62" height="1.53" fill="#ffffff"></rect><rect x="9.14" y="25.91" width="3.05" height="1.52" fill="#ffffff"></rect><rect x="9.14" y="19.81" width="3.05" height="1.53" fill="#ffffff"></rect><rect x="10.67" y="15.24" width="1.52" height="1.52" fill="#ffffff"></rect><rect x="10.67" y="6.1" width="1.52" height="1.52" fill="#ffffff"></rect><rect x="9.14" y="1.53" width="3.05" height="1.52" fill="#ffffff"></rect><rect x="9.14" y="7.62" width="1.53" height="7.62" fill="#ffffff"></rect><rect x="7.62" y="27.43" width="1.52" height="1.53" fill="#ffffff"></rect><rect x="7.62" y="18.29" width="1.52" height="1.52" fill="#ffffff"></rect><rect x="7.62" y="3.05" width="1.52" height="1.52" fill="#ffffff"></rect><rect x="6.1" y="28.96" width="1.52" height="1.52" fill="#ffffff"></rect><rect x="6.1" y="15.24" width="1.52" height="3.05" fill="#ffffff"></rect><rect x="6.1" y="4.57" width="1.52" height="3.05" fill="#ffffff"></rect><rect x="4.57" y="7.62" width="1.53" height="7.62" fill="#ffffff"></rect></g></svg>