<svg xmlns="http://www.w3.org/2000/svg" viewBox="0 0 32 32" height="64" width="64"><title>computers-devices-electronicscd-disk</title><g><polygon points="30.48 9.14 28.95 9.14 28.95 13.72 22.86 13.72 22.86 15.24 24.38 15.24 24.38 16.76 25.91 16.76 25.91 15.24 27.43 15.24 27.43 16.76 28.95 16.76 28.95 15.24 30.48 15.24 30.48 16.76 28.95 16.76 28.95 18.29 30.48 18.29 30.48 19.81 32 19.81 32 12.19 30.48 12.19 30.48 9.14" fill="#ffffff"></polygon><polygon points="28.95 21.33 27.43 21.33 27.43 19.81 25.91 19.81 25.91 18.29 24.38 18.29 24.38 19.81 22.86 19.81 22.86 18.29 21.33 18.29 21.33 16.76 22.86 16.76 22.86 15.24 21.33 15.24 21.33 13.72 19.81 13.72 19.81 18.29 18.29 18.29 18.29 19.81 13.71 19.81 13.71 21.33 18.29 21.33 18.29 22.86 19.81 22.86 19.81 25.91 21.33 25.91 21.33 28.95 19.81 28.95 19.81 30.48 22.86 30.48 22.86 28.95 25.91 28.95 25.91 27.43 27.43 27.43 27.43 25.91 28.95 25.91 28.95 22.86 30.48 22.86 30.48 19.81 28.95 19.81 28.95 21.33" fill="#ffffff"></polygon><rect x="27.43" y="18.29" width="1.52" height="1.52" fill="#ffffff"></rect><rect x="27.43" y="6.1" width="1.52" height="3.04" fill="#ffffff"></rect><rect x="25.91" y="16.76" width="1.52" height="1.53" fill="#ffffff"></rect><rect x="25.91" y="4.57" width="1.52" height="1.53" fill="#ffffff"></rect><rect x="22.86" y="16.76" width="1.52" height="1.53" fill="#ffffff"></rect><rect x="22.86" y="3.05" width="3.05" height="1.52" fill="#ffffff"></rect><rect x="19.81" y="1.53" width="3.05" height="1.52" fill="#ffffff"></rect><rect x="18.29" y="12.19" width="1.52" height="1.53" fill="#ffffff"></rect><rect x="12.19" y="30.48" width="7.62" height="1.52" fill="#ffffff"></rect><path d="M18.29,13.72H13.71v4.57h4.58Zm-1.53,3.04H15.24V15.24h1.52Z" fill="#ffffff"></path><polygon points="13.71 6.1 15.24 6.1 15.24 1.53 19.81 1.53 19.81 0 12.19 0 12.19 1.53 13.71 1.53 13.71 6.1" fill="#ffffff"></polygon><rect x="12.19" y="18.29" width="1.52" height="1.52" fill="#ffffff"></rect><rect x="9.14" y="28.95" width="3.05" height="1.53" fill="#ffffff"></rect><polygon points="12.19 13.72 13.71 13.72 13.71 12.19 18.29 12.19 18.29 10.67 16.76 10.67 16.76 6.1 15.24 6.1 15.24 10.67 13.71 10.67 13.71 9.14 12.19 9.14 12.19 12.19 9.14 12.19 9.14 13.72 10.67 13.72 10.67 18.29 12.19 18.29 12.19 13.72" fill="#ffffff"></polygon><rect x="10.67" y="6.1" width="1.52" height="3.04" fill="#ffffff"></rect><rect x="9.14" y="24.38" width="3.05" height="1.53" fill="#ffffff"></rect><rect x="6.1" y="27.43" width="3.04" height="1.52" fill="#ffffff"></rect><rect x="7.62" y="22.86" width="1.52" height="1.52" fill="#ffffff"></rect><rect x="6.1" y="10.67" width="3.04" height="1.52" fill="#ffffff"></rect><polygon points="9.14 6.1 10.67 6.1 10.67 3.05 12.19 3.05 12.19 1.53 9.14 1.53 9.14 3.05 6.1 3.05 6.1 4.57 9.14 4.57 9.14 6.1" fill="#ffffff"></polygon><rect x="6.1" y="19.81" width="1.52" height="3.05" fill="#ffffff"></rect><rect x="4.57" y="25.91" width="1.53" height="1.52" fill="#ffffff"></rect><rect x="4.57" y="4.57" width="1.53" height="1.53" fill="#ffffff"></rect><rect x="3.05" y="22.86" width="1.52" height="3.05" fill="#ffffff"></rect><rect x="1.52" y="19.81" width="1.53" height="3.05" fill="#ffffff"></rect><polygon points="3.05 10.67 6.1 10.67 6.1 9.14 4.57 9.14 4.57 6.1 3.05 6.1 3.05 9.14 1.52 9.14 1.52 12.19 3.05 12.19 3.05 10.67" fill="#ffffff"></polygon><rect y="12.19" width="1.52" height="7.62" fill="#ffffff"></rect></g></svg>