<svg xmlns="http://www.w3.org/2000/svg" viewBox="0 0 32 32" height="64" width="64"><title>computers-devices-electronics-vintage-mac</title><g><rect x="27.43" y="3.05" width="1.52" height="24.38" fill="#ffffff"></rect><rect x="25.9" y="1.52" width="1.53" height="1.53" fill="#ffffff"></rect><polygon points="4.57 27.43 4.57 28.95 6.09 28.95 6.09 30.48 7.62 30.48 7.62 28.95 24.38 28.95 24.38 30.48 25.9 30.48 25.9 28.95 27.43 28.95 27.43 27.43 4.57 27.43" fill="#ffffff"></polygon><rect x="24.38" y="4.57" width="1.52" height="13.72" fill="#ffffff"></rect><rect x="7.62" y="30.48" width="16.76" height="1.52" fill="#ffffff"></rect><rect x="18.28" y="22.86" width="6.1" height="1.52" fill="#ffffff"></rect><rect x="7.62" y="18.29" width="16.76" height="1.52" fill="#ffffff"></rect><path d="M16.76,15.24h4.57V13.71h1.52V9.14H21.33V7.62H16.76V9.14H15.24v1.53h1.52v1.52H15.24v1.52h1.52Zm1.52-6.1h1.53v1.53H18.28Z" fill="#ffffff"></path><rect x="12.19" y="10.67" width="1.52" height="1.52" fill="#ffffff"></rect><rect x="9.14" y="10.67" width="1.52" height="1.52" fill="#ffffff"></rect><rect x="7.62" y="3.05" width="16.76" height="1.52" fill="#ffffff"></rect><rect x="7.62" y="22.86" width="1.52" height="1.52" fill="#ffffff"></rect><rect x="6.09" width="19.81" height="1.52" fill="#ffffff"></rect><rect x="6.09" y="4.57" width="1.53" height="13.72" fill="#ffffff"></rect><rect x="4.57" y="1.52" width="1.52" height="1.53" fill="#ffffff"></rect><rect x="3.05" y="3.05" width="1.52" height="24.38" fill="#ffffff"></rect></g></svg>