<svg xmlns="http://www.w3.org/2000/svg" viewBox="0 0 32 32" height="64" width="64"><title>design-color-tube-pastel</title><g><path d="M28.2,25.905v3.04h1.52V7.615H28.2V6.1h-1.53v1.52h-6.09V6.1h-1.53v1.52h-1.52v21.33h1.52v-3.04Zm-1.53-4.58h-1.52v-1.52H22.1v1.52h-1.52v-1.52H22.1v-1.52h3.05v1.52h1.52Zm-6.09-4.57v-1.52H22.1v1.52Zm6.09,0h-1.52v-1.52h1.52Zm-7.62-7.62H28.2v3.05h-9.15Z" fill="#ffffff"></path><rect x="19.045" y="28.945" width="9.15" height="1.53" fill="#ffffff"></rect><rect x="25.145" y="3.045" width="1.52" height="3.05" fill="#ffffff"></rect><rect x="22.095" y="1.525" width="3.05" height="1.52" fill="#ffffff"></rect><rect x="20.575" y="3.045" width="1.52" height="3.05" fill="#ffffff"></rect><path d="M12.955,25.905v3.04h1.52V7.615h-1.52V6.1h-1.52v1.52h-6.1V6.1H3.815v1.52H2.285v21.33h1.53v-3.04Zm-1.52-6.1H9.9v1.52H6.855v-1.52H5.335v-1.52h1.52v1.52H9.9v-1.52h1.53Zm-6.1-3.05v-1.52h1.52v1.52Zm6.1,0H9.9v-1.52h1.53Zm-7.62-7.62h9.14v3.05H3.815Z" fill="#ffffff"></path><rect x="3.815" y="28.945" width="9.14" height="1.53" fill="#ffffff"></rect><rect x="9.905" y="3.045" width="1.53" height="3.05" fill="#ffffff"></rect><rect x="6.855" y="1.525" width="3.05" height="1.52" fill="#ffffff"></rect><rect x="5.335" y="3.045" width="1.52" height="3.05" fill="#ffffff"></rect></g></svg>