<svg xmlns="http://www.w3.org/2000/svg" viewBox="0 0 32 32" height="64" width="64"><title>design-dropper-2</title><g><path d="M30.48,3.05H28.95V1.52H27.43V0H22.86V1.52H21.34V3.05H19.81V4.57H18.29V6.09h1.52V7.62h1.53V9.14h1.52v1.52h1.52v1.53h1.53v1.52h1.52V12.19h1.52V10.66h1.53V9.14H32V4.57H30.48Zm0,4.57H28.95V9.14H27.43v1.52H25.91V9.14h1.52V7.62h1.52V6.09H27.43V4.57h1.52V6.09h1.53Z" fill="#ffffff"></path><rect x="27.43" y="13.71" width="1.52" height="4.57" fill="#ffffff"></rect><rect x="22.86" y="18.28" width="4.57" height="1.53" fill="#ffffff"></rect><rect x="21.34" y="16.76" width="1.52" height="1.52" fill="#ffffff"></rect><rect x="19.81" y="18.28" width="1.53" height="1.53" fill="#ffffff"></rect><rect x="19.81" y="15.24" width="1.53" height="1.52" fill="#ffffff"></rect><rect x="18.29" y="19.81" width="1.52" height="1.52" fill="#ffffff"></rect><rect x="18.29" y="13.71" width="1.52" height="1.53" fill="#ffffff"></rect><rect x="16.76" y="21.33" width="1.53" height="1.52" fill="#ffffff"></rect><rect x="16.76" y="12.19" width="1.53" height="1.52" fill="#ffffff"></rect><rect x="15.24" y="22.85" width="1.52" height="1.53" fill="#ffffff"></rect><rect x="15.24" y="10.66" width="1.52" height="1.53" fill="#ffffff"></rect><rect x="13.72" y="3.05" width="4.57" height="1.52" fill="#ffffff"></rect><rect x="13.72" y="24.38" width="1.52" height="1.52" fill="#ffffff"></rect><rect x="13.72" y="9.14" width="1.52" height="1.52" fill="#ffffff"></rect><rect x="12.19" y="25.9" width="1.53" height="1.53" fill="#ffffff"></rect><rect x="12.19" y="15.24" width="1.53" height="1.52" fill="#ffffff"></rect><rect x="12.19" y="10.66" width="1.53" height="1.53" fill="#ffffff"></rect><rect x="12.19" y="4.57" width="1.53" height="4.57" fill="#ffffff"></rect><rect x="10.67" y="16.76" width="1.52" height="1.52" fill="#ffffff"></rect><rect x="10.67" y="12.19" width="1.52" height="1.52" fill="#ffffff"></rect><rect x="6.1" y="27.43" width="6.09" height="1.52" fill="#ffffff"></rect><rect x="9.15" y="18.28" width="1.52" height="1.53" fill="#ffffff"></rect><rect x="9.15" y="13.71" width="1.52" height="1.53" fill="#ffffff"></rect><rect x="7.62" y="19.81" width="1.53" height="1.52" fill="#ffffff"></rect><rect x="7.62" y="15.24" width="1.53" height="1.52" fill="#ffffff"></rect><rect x="6.1" y="21.33" width="1.52" height="3.05" fill="#ffffff"></rect><rect x="6.1" y="16.76" width="1.52" height="1.52" fill="#ffffff"></rect><rect x="4.57" y="28.95" width="1.53" height="1.52" fill="#ffffff"></rect><rect x="4.57" y="18.28" width="1.53" height="1.53" fill="#ffffff"></rect><rect x="3.05" y="30.47" width="1.52" height="1.53" fill="#ffffff"></rect><rect x="3.05" y="19.81" width="1.52" height="6.09" fill="#ffffff"></rect><rect x="1.53" y="28.95" width="1.52" height="1.52" fill="#ffffff"></rect><rect x="1.53" y="25.9" width="1.52" height="1.53" fill="#ffffff"></rect><rect y="27.43" width="1.53" height="1.52" fill="#ffffff"></rect></g></svg>