<svg xmlns="http://www.w3.org/2000/svg" viewBox="0 0 32 32" height="64" width="64"><title>design-color-bucket-brush</title><g><path d="M30.48,22.09H15.24V20.57H13.72v7.62H12.19v3.05H30.48V29.71H32V20.57H30.48Zm-12.19,6.1H16.76V23.62h1.53Zm4.57-1.52H21.34V23.62h1.52Zm3.05,0H24.38V23.62h1.53Zm3.04,1.52H27.43V23.62h1.52Z" fill="#ffffff"></path><rect x="27.43" y="19.05" width="3.05" height="1.52" fill="#ffffff"></rect><rect x="25.91" y="17.52" width="1.52" height="1.53" fill="#ffffff"></rect><rect x="25.91" y="6.86" width="1.52" height="4.57" fill="#ffffff"></rect><rect x="24.38" y="11.43" width="1.53" height="6.09" fill="#ffffff"></rect><rect x="21.34" y="8.38" width="3.04" height="3.05" fill="#ffffff"></rect><rect x="19.81" y="11.43" width="1.53" height="6.09" fill="#ffffff"></rect><polygon points="25.91 6.86 25.91 5.33 21.34 5.33 21.34 3.81 19.81 3.81 19.81 6.86 25.91 6.86" fill="#ffffff"></polygon><rect x="18.29" y="17.52" width="1.52" height="1.53" fill="#ffffff"></rect><polygon points="19.81 6.86 18.29 6.86 18.29 9.9 16.76 9.9 16.76 11.43 19.81 11.43 19.81 6.86" fill="#ffffff"></polygon><rect x="15.24" y="19.05" width="3.05" height="1.52" fill="#ffffff"></rect><polygon points="15.24 5.33 15.24 3.81 6.1 3.81 6.1 5.33 3.05 5.33 3.05 6.86 4.57 6.86 4.57 8.38 6.1 8.38 6.1 9.9 15.24 9.9 15.24 8.38 16.76 8.38 16.76 6.86 18.29 6.86 18.29 5.33 15.24 5.33" fill="#ffffff"></polygon><rect x="16.76" y="2.29" width="3.05" height="1.52" fill="#ffffff"></rect><polygon points="4.57 11.43 4.57 12.95 13.72 12.95 13.72 14.48 15.24 14.48 15.24 12.95 16.76 12.95 16.76 11.43 4.57 11.43" fill="#ffffff"></polygon><rect x="10.67" y="14.48" width="3.05" height="1.52" fill="#ffffff"></rect><rect x="7.62" y="16" width="3.05" height="1.52" fill="#ffffff"></rect><rect x="4.57" y="0.76" width="12.19" height="1.53" fill="#ffffff"></rect><rect x="4.57" y="25.14" width="7.62" height="1.53" fill="#ffffff"></rect><rect x="3.05" y="17.52" width="4.57" height="1.53" fill="#ffffff"></rect><rect x="3.05" y="23.62" width="1.52" height="1.52" fill="#ffffff"></rect><rect x="3.05" y="9.9" width="1.52" height="1.53" fill="#ffffff"></rect><rect x="1.53" y="2.29" width="3.04" height="1.52" fill="#ffffff"></rect><rect x="1.53" y="22.09" width="1.52" height="1.53" fill="#ffffff"></rect><polygon points="1.53 16 1.53 9.9 3.05 9.9 3.05 8.38 1.53 8.38 1.53 3.81 0 3.81 0 22.09 1.53 22.09 1.53 17.52 3.05 17.52 3.05 16 1.53 16" fill="#ffffff"></polygon></g></svg>