<svg xmlns="http://www.w3.org/2000/svg" viewBox="0 0 32 32" height="64" width="64"><title>search-coding</title><g><path d="M29.72,23.625H28.19V22.1H26.67v-1.52H25.14v-3.05H23.62v3.05H22.1V22.1H20.57v1.53H17.53v1.52h3.04v1.52H22.1V28.2h1.52v1.52h1.52v1.52h4.58v-1.52h1.52v-4.57H29.72Zm0,4.57H28.19v-1.53H26.67v-1.52H25.14v-1.52h1.53v1.52h1.52v1.52h1.53Z" fill="#ffffff"></path><rect x="25.14" y="9.905" width="1.53" height="7.62" fill="#ffffff"></rect><rect x="23.62" y="6.855" width="1.52" height="3.05" fill="#ffffff"></rect><rect x="22.1" y="5.335" width="1.52" height="1.52" fill="#ffffff"></rect><rect x="20.57" y="12.955" width="1.53" height="1.52" fill="#ffffff"></rect><rect x="20.57" y="3.815" width="1.53" height="1.52" fill="#ffffff"></rect><rect x="19.05" y="14.475" width="1.52" height="1.53" fill="#ffffff"></rect><rect x="19.05" y="11.425" width="1.52" height="1.53" fill="#ffffff"></rect><rect x="17.53" y="16.005" width="1.52" height="1.52" fill="#ffffff"></rect><rect x="17.53" y="9.905" width="1.52" height="1.52" fill="#ffffff"></rect><rect x="17.53" y="2.285" width="3.04" height="1.53" fill="#ffffff"></rect><rect x="9.91" y="25.145" width="7.62" height="1.52" fill="#ffffff"></rect><rect x="14.48" y="9.905" width="1.52" height="3.05" fill="#ffffff"></rect><rect x="12.95" y="12.955" width="1.53" height="1.52" fill="#ffffff"></rect><rect x="11.43" y="14.475" width="1.52" height="3.05" fill="#ffffff"></rect><rect x="9.91" y="0.765" width="7.62" height="1.52" fill="#ffffff"></rect><rect x="6.86" y="23.625" width="3.05" height="1.52" fill="#ffffff"></rect><rect x="8.38" y="16.005" width="1.53" height="1.52" fill="#ffffff"></rect><rect x="8.38" y="9.905" width="1.53" height="1.52" fill="#ffffff"></rect><rect x="6.86" y="2.285" width="3.05" height="1.53" fill="#ffffff"></rect><rect x="6.86" y="14.475" width="1.52" height="1.53" fill="#ffffff"></rect><rect x="6.86" y="11.425" width="1.52" height="1.53" fill="#ffffff"></rect><rect x="5.34" y="22.095" width="1.52" height="1.53" fill="#ffffff"></rect><rect x="5.34" y="12.955" width="1.52" height="1.52" fill="#ffffff"></rect><rect x="5.34" y="3.815" width="1.52" height="1.52" fill="#ffffff"></rect><rect x="3.81" y="20.575" width="1.53" height="1.52" fill="#ffffff"></rect><rect x="3.81" y="5.335" width="1.53" height="1.52" fill="#ffffff"></rect><rect x="2.29" y="17.525" width="1.52" height="3.05" fill="#ffffff"></rect><rect x="2.29" y="6.855" width="1.52" height="3.05" fill="#ffffff"></rect><rect x="0.76" y="9.905" width="1.53" height="7.62" fill="#ffffff"></rect></g></svg>