<?xml version="1.0" encoding="UTF-8"?>
<svg width="1132px" height="1131px" viewBox="0 0 1132 1131" version="1.1" xmlns="http://www.w3.org/2000/svg" xmlns:xlink="http://www.w3.org/1999/xlink">
    <title>ball-14</title>
    <defs>
        <filter x="-76.4%" y="-66.4%" width="252.7%" height="232.9%" filterUnits="objectBoundingBox" id="filter-1">
            <feGaussianBlur stdDeviation="20" in="SourceGraphic"></feGaussianBlur>
        </filter>
        <filter x="-8.7%" y="-30.5%" width="117.5%" height="160.9%" filterUnits="objectBoundingBox" id="filter-2">
            <feGaussianBlur stdDeviation="20" in="SourceGraphic"></feGaussianBlur>
        </filter>
        <filter x="-18.6%" y="-17.6%" width="137.3%" height="135.2%" filterUnits="objectBoundingBox" id="filter-3">
            <feGaussianBlur stdDeviation="45" in="SourceGraphic"></feGaussianBlur>
        </filter>
    </defs>
    <g id="ball-14" stroke="none" stroke-width="1" fill="none" fill-rule="evenodd">
        <g id="Group-Copy" transform="translate(271, 271)">
            <circle id="Oval" fill="#F5CA05" cx="295" cy="295" r="295"></circle>
            <g id="Group" transform="translate(195.1645, 20)">
                <ellipse id="Oval-2" fill="#000000" cx="102.835512" cy="78.5" rx="89" ry="60.5"></ellipse>
                <path d="M100.950034,0 C151.48905,0 196.453018,31.0130255 201.495377,69.2695312 C206.665324,107.526037 161.701357,138.539062 100.950034,138.539062 C40.1987119,138.539062 -4.76525571,107.526037 0.404692014,69.2695312 C5.44705107,31.0130255 50.4110186,0 100.950034,0 Z M102.680863,32.7455966 C98.1066686,32.7455966 96.2706474,33.742658 94.8883145,34.7397195 C93.5022469,35.7367809 93.4652203,39.3926728 92.996496,40.0573804 C92.5269368,40.7220881 83.6871342,43.0485647 80.4125002,44.0456262 C77.129092,45.0426876 76.925667,51.35741 80.1721493,52.6868253 C81.5346175,53.2433247 83.4090219,53.1592027 85.3306617,52.9951723 L85.9721525,52.9383051 C88.4321988,52.714866 90.8849084,52.4626797 92.3823434,53.3515329 L97.3735654,92.9016365 C89.9430721,93.7477229 85.6274133,94.5232152 84.4372744,95.2281132 C82.6479971,96.2854601 81.9021602,97.222236 82.3201749,100.545774 C82.6011587,102.761466 85.0839575,104.090881 89.7712288,104.53402 L128.409646,101.542836 C131.030877,100.21342 132.292827,98.4408667 132.202482,96.2251746 C132.112264,94.0094825 130.402331,92.5692827 127.076898,91.904575 L118.167295,91.904575 L110.048761,36.7338423 C109.092096,33.4103042 107.255057,32.7455966 102.680863,32.7455966 Z" id="Oval-2" fill="#FFFFFF"></path>
            </g>
            <ellipse id="Oval" fill="#FFFFFF" opacity="0.453031994" filter="url(#filter-1)" transform="translate(200.0089, 137.737) rotate(46) translate(-200.0089, -137.737)" cx="200.008945" cy="137.73703" rx="35.3577818" ry="40.6350626"></ellipse>
            <path d="M521,138 C482.503431,98.2196247 448.723549,71.1799277 419.660355,56.880909 C376.065564,35.432381 347.543959,28.4841486 295.097041,26.8563104 C242.650124,25.2284722 225.598176,37.942459 183.728994,56.880909 C155.816206,69.5065424 119.573208,92.6834255 75,126.411558 C102.798028,89.5392443 133.411045,63.0262947 166.839053,46.8727095 C216.981065,22.6423316 259.733728,10 295.097041,10 C330.460355,10 373.740828,20.0085949 428.633136,46.8727095 C465.228008,64.7821192 496.016963,95.1578827 521,138 Z" id="Path-8" fill="#FFFFFF" opacity="0.773065476" filter="url(#filter-2)"></path>
            <path d="M361.057245,44 C431.694309,123.939704 467.935264,174.984191 469.780109,197.133462 C472.547375,230.357369 482.654123,254.819372 459.752272,321.224371 C436.85042,387.629371 415.418677,407.823985 383.224042,440.562863 C361.760952,462.388781 259.019605,478.230174 75,488.087041 C207.883501,556.029014 286.171,590 309.862498,590 C333.553996,590 368.739389,581.727273 415.418677,565.181818 C481.196175,535.021945 525.881624,499.994866 549.475024,460.10058 C584.865123,400.259152 591.955643,340.867492 589.586372,292.181818 C587.2171,243.496144 582.366118,196.314838 555.280613,172.31528 C537.223611,156.315576 472.482488,113.543815 361.057245,44 Z" id="Path-9" fill="#000000" opacity="0.0963076637" filter="url(#filter-3)"></path>
        </g>
    </g>
</svg>
