<?xml version="1.0" encoding="UTF-8"?>
<svg width="1132px" height="1131px" viewBox="0 0 1132 1131" version="1.1" xmlns="http://www.w3.org/2000/svg" xmlns:xlink="http://www.w3.org/1999/xlink">
    <title>ball-4</title>
    <defs>
        <filter x="-76.4%" y="-66.4%" width="252.7%" height="232.9%" filterUnits="objectBoundingBox" id="filter-1">
            <feGaussianBlur stdDeviation="20" in="SourceGraphic"></feGaussianBlur>
        </filter>
        <filter x="-8.7%" y="-30.5%" width="117.5%" height="160.9%" filterUnits="objectBoundingBox" id="filter-2">
            <feGaussianBlur stdDeviation="20" in="SourceGraphic"></feGaussianBlur>
        </filter>
        <filter x="-18.6%" y="-17.6%" width="137.3%" height="135.2%" filterUnits="objectBoundingBox" id="filter-3">
            <feGaussianBlur stdDeviation="45" in="SourceGraphic"></feGaussianBlur>
        </filter>
    </defs>
    <g id="ball-4" stroke="none" stroke-width="1" fill="none" fill-rule="evenodd">
        <g id="Group-Copy" transform="translate(271, 271)">
            <circle id="Oval" fill="#F5CA05" cx="295" cy="295" r="295"></circle>
            <g id="Group" transform="translate(298, 447) rotate(9) translate(-298, -447)translate(180, 369)">
                <path d="M123.383204,150.222175 C170.148057,150.222175 208.425927,120.225253 208.87922,83.222175 C209.332512,46.2190967 171.054642,16.222175 123.383204,16.222175 C75.7117665,16.222175 37.4338967,46.2190967 37.8871891,83.222175 C38.3404815,120.225253 76.6183513,150.222175 123.383204,150.222175 Z" id="Oval-2" fill="#000000"></path>
                <path d="M101.346934,1.84461285 C168.269781,-7.43745275 228.527947,19.2191181 235.365949,61.3837303 C241.972447,103.548342 196.188508,145.111017 133.662396,154.216562 C71.52084,163.322108 12.7215702,136.665537 1.74256805,94.6774449 C-9.50134479,52.6893531 34.8236978,11.1266785 101.346934,1.84461285 Z M117.30544,36.9049835 C111.502903,36.9612516 109.254599,38.0942774 107.587765,39.2216764 C105.922161,40.3490754 106.192369,44.4209768 105.662744,45.1669493 C105.133378,45.9129219 94.3232772,48.6110413 90.356549,49.7609476 C86.3928145,50.9108538 86.9026807,57.944138 91.0414486,59.3854417 C92.7727967,59.9887781 95.0591062,59.87268 97.3957856,59.6670302 L98.1759144,59.5960276 C101.168557,59.3177611 104.151946,59.0075512 106.066081,59.9794902 L115.177778,103.968165 C106.743988,104.994749 101.884417,105.907251 100.59525,106.705672 C98.6627914,107.903302 97.9108414,108.954843 98.7274524,112.650945 C99.2707722,115.115012 102.196076,116.56757 107.502841,117.008617 L150.854655,113.243796 C153.800113,111.733095 155.213951,109.743835 155.093765,107.276016 C154.973329,104.808197 153.002289,103.222871 149.179484,102.520037 L138.957458,102.62132 L126.855049,41.2570287 C125.473871,37.5665538 123.108191,36.8487153 117.30544,36.9049835 Z" id="Oval-2" fill="#FFFFFF"></path>
            </g>
            <ellipse id="Oval" fill="#FFFFFF" opacity="0.453031994" filter="url(#filter-1)" transform="translate(200.0089, 137.737) rotate(46) translate(-200.0089, -137.737)" cx="200.008945" cy="137.73703" rx="35.3577818" ry="40.6350626"></ellipse>
            <path d="M521,138 C482.503431,98.2196247 448.723549,71.1799277 419.660355,56.880909 C376.065564,35.432381 347.543959,28.4841486 295.097041,26.8563104 C242.650124,25.2284722 225.598176,37.942459 183.728994,56.880909 C155.816206,69.5065424 119.573208,92.6834255 75,126.411558 C102.798028,89.5392443 133.411045,63.0262947 166.839053,46.8727095 C216.981065,22.6423316 259.733728,10 295.097041,10 C330.460355,10 373.740828,20.0085949 428.633136,46.8727095 C465.228008,64.7821192 496.016963,95.1578827 521,138 Z" id="Path-8" fill="#FFFFFF" opacity="0.773065476" filter="url(#filter-2)"></path>
            <path d="M361.057245,44 C431.694309,123.939704 467.935264,174.984191 469.780109,197.133462 C472.547375,230.357369 482.654123,254.819372 459.752272,321.224371 C436.85042,387.629371 415.418677,407.823985 383.224042,440.562863 C361.760952,462.388781 259.019605,478.230174 75,488.087041 C207.883501,556.029014 286.171,590 309.862498,590 C333.553996,590 368.739389,581.727273 415.418677,565.181818 C481.196175,535.021945 525.881624,499.994866 549.475024,460.10058 C584.865123,400.259152 591.955643,340.867492 589.586372,292.181818 C587.2171,243.496144 582.366118,196.314838 555.280613,172.31528 C537.223611,156.315576 472.482488,113.543815 361.057245,44 Z" id="Path-9" fill="#000000" opacity="0.0963076637" filter="url(#filter-3)"></path>
        </g>
    </g>
</svg>
