<?xml version="1.0" encoding="UTF-8"?>
<svg width="1132px" height="1131px" viewBox="0 0 1132 1131" version="1.1" xmlns="http://www.w3.org/2000/svg" xmlns:xlink="http://www.w3.org/1999/xlink">
    <title>ball-12</title>
    <defs>
        <filter x="-76.4%" y="-66.4%" width="252.7%" height="232.9%" filterUnits="objectBoundingBox" id="filter-1">
            <feGaussianBlur stdDeviation="20" in="SourceGraphic"></feGaussianBlur>
        </filter>
        <filter x="-8.7%" y="-30.5%" width="117.5%" height="160.9%" filterUnits="objectBoundingBox" id="filter-2">
            <feGaussianBlur stdDeviation="20" in="SourceGraphic"></feGaussianBlur>
        </filter>
        <filter x="-18.6%" y="-17.6%" width="137.3%" height="135.2%" filterUnits="objectBoundingBox" id="filter-3">
            <feGaussianBlur stdDeviation="45" in="SourceGraphic"></feGaussianBlur>
        </filter>
    </defs>
    <g id="ball-12" stroke="none" stroke-width="1" fill="none" fill-rule="evenodd">
        <g id="Group-Copy" transform="translate(271, 270)">
            <circle id="Oval" fill="#F5CA05" cx="295" cy="296" r="295"></circle>
            <g id="Group" transform="translate(208, 0)">
                <path d="M92.4161074,40.2096939 C134.942033,40.2096939 172,45.3452195 172,29.4338571 C172,13.5224946 134.942033,5 92.4161074,5 C49.8901816,5 18,13.5224946 18,29.4338571 C18,45.3452195 49.8901816,40.2096939 92.4161074,40.2096939 Z" id="Oval-2" fill="#000000"></path>
                <path d="M87,0 C130.555155,0 169.305663,11.4167389 173.651231,25.5 C178.106757,39.5832611 139.356248,51 87,51 C34.6437518,51 -4.10675687,39.5832611 0.348768631,25.5 C4.69433662,11.4167389 43.4448453,0 87,0 Z M89.3634162,12.2658228 C85.4376634,12.2658228 83.8619181,12.6334388 82.6755459,13.0010549 C81.4859683,13.3686709 81.4541907,14.7165963 81.0519131,14.9616737 C80.648919,15.2067511 73.0622542,16.0645218 70.251835,16.4321378 C67.4338855,16.7997539 67.2592982,19.1279887 70.0455564,19.6181435 C71.2148801,19.8233245 72.8235673,19.7923088 74.4727939,19.7318308 L75.0233464,19.7108639 C77.1346545,19.628482 79.2396659,19.5355011 80.5248233,19.8632208 L84.8084856,34.4453235 C78.4313451,34.7572751 74.7274777,35.0431987 73.7060539,35.3030942 C72.170426,35.6929375 71.5303195,36.0383263 71.8890762,37.2637131 C72.1302275,38.0806376 74.2610626,38.5707923 78.2838624,38.7341772 L111.444866,37.6313291 C113.694509,37.1411744 114.777564,36.4876348 114.700026,35.6707103 C114.622598,34.8537857 113.155066,34.3227848 110.301049,34.0777075 L102.654479,34.0777075 L95.6868346,13.7362869 C94.8657875,12.5109001 93.2891689,12.2658228 89.3634162,12.2658228 Z" id="Oval-2" fill="#FFFFFF"></path>
            </g>
            <ellipse id="Oval" fill="#FFFFFF" opacity="0.453031994" filter="url(#filter-1)" transform="translate(200.0089, 138.737) rotate(46) translate(-200.0089, -138.737)" cx="200.008945" cy="138.73703" rx="35.3577818" ry="40.6350626"></ellipse>
            <path d="M521,139 C482.503431,99.2196247 448.723549,72.1799277 419.660355,57.880909 C392.104324,44.3234108 370.570687,36.5594122 345.210401,32.2705355 C330.449656,29.7742302 314.392547,28.4552009 295.097041,27.8563104 C242.650124,26.2284722 225.598176,38.942459 183.728994,57.880909 C155.816206,70.5065424 119.573208,93.6834255 75,127.411558 C102.798028,90.5392443 133.411045,64.0262947 166.839053,47.8727095 C216.981065,23.6423316 259.733728,11 295.097041,11 C330.460355,11 373.740828,21.0085949 428.633136,47.8727095 C465.228008,65.7821192 496.016963,96.1578827 521,139 Z" id="Path-8" fill="#FFFFFF" opacity="0.773065476" filter="url(#filter-2)"></path>
            <path d="M361.057245,45 C431.694309,124.939704 467.935264,175.984191 469.780109,198.133462 C472.547375,231.357369 482.654123,255.819372 459.752272,322.224371 C436.85042,388.629371 415.418677,408.823985 383.224042,441.562863 C361.760952,463.388781 259.019605,479.230174 75,489.087041 C207.883501,557.029014 286.171,591 309.862498,591 C333.553996,591 368.739389,582.727273 415.418677,566.181818 C481.196175,536.021945 525.881624,500.994866 549.475024,461.10058 C584.865123,401.259152 591.955643,341.867492 589.586372,293.181818 C587.2171,244.496144 582.366118,197.314838 555.280613,173.31528 C537.223611,157.315576 472.482488,114.543815 361.057245,45 Z" id="Path-9" fill="#000000" opacity="0.0963076637" filter="url(#filter-3)"></path>
        </g>
    </g>
</svg>
