<?xml version="1.0" encoding="UTF-8"?>
<svg width="1132px" height="1131px" viewBox="0 0 1132 1131" version="1.1" xmlns="http://www.w3.org/2000/svg" xmlns:xlink="http://www.w3.org/1999/xlink">
    <title>ball-13</title>
    <defs>
        <filter x="-76.4%" y="-66.4%" width="252.7%" height="232.9%" filterUnits="objectBoundingBox" id="filter-1">
            <feGaussianBlur stdDeviation="20" in="SourceGraphic"></feGaussianBlur>
        </filter>
        <filter x="-8.7%" y="-30.5%" width="117.5%" height="160.9%" filterUnits="objectBoundingBox" id="filter-2">
            <feGaussianBlur stdDeviation="20" in="SourceGraphic"></feGaussianBlur>
        </filter>
        <filter x="-18.6%" y="-17.6%" width="137.3%" height="135.2%" filterUnits="objectBoundingBox" id="filter-3">
            <feGaussianBlur stdDeviation="45" in="SourceGraphic"></feGaussianBlur>
        </filter>
    </defs>
    <g id="ball-13" stroke="none" stroke-width="1" fill="none" fill-rule="evenodd">
        <g id="Group-Copy" transform="translate(271, 271)">
            <circle id="Oval" fill="#F5CA05" cx="295" cy="295" r="295"></circle>
            <g id="Group" transform="translate(206, 13)">
                <path d="M91.5,78 C132.645214,78 166,60.3152476 166,38.5 C166,16.6847524 130.145214,5 89,5 C47.8547861,5 17,16.6847524 17,38.5 C17,60.3152476 50.3547861,78 91.5,78 Z" id="Oval-2" fill="#000000"></path>
                <path d="M89.5,0 C134.30674,0 174.170769,17.6847524 178.641209,39.5 C183.224767,61.3152476 143.360738,79 89.5,79 C35.6392619,79 -4.22476712,61.3152476 0.358790718,39.5 C4.82923135,17.6847524 44.6932604,0 89.5,0 Z M91.9313304,19 C87.8927687,19 86.2717433,19.5694444 85.0512799,20.1388889 C83.8275192,20.7083333 83.7948284,22.7962963 83.3809911,23.1759259 C82.9664167,23.5555556 75.1617442,24.8842593 72.2705659,25.4537037 C69.3716408,26.0231481 69.1920366,29.6296296 72.0583598,30.3888889 C73.2612847,30.7067183 74.9161985,30.6586744 76.6128167,30.5649929 L77.1791897,30.5325147 C79.3511675,30.4049036 81.5166678,30.2608742 82.838755,30.7685185 L87.245511,53.3564815 C80.6851194,53.8397007 76.874819,54.2826019 75.8240439,54.6851852 C74.2442888,55.2890601 73.5857885,55.8240741 73.9548542,57.7222222 C74.2029352,58.9876543 76.3950012,59.7469136 80.5333987,60 L114.647305,58.2916667 C116.961592,57.5324074 118.07577,56.5200617 117.996003,55.2546296 C117.91635,53.9891975 116.406648,53.1666667 113.470619,52.787037 L105.60432,52.787037 L98.4364563,21.2777778 C97.5918158,19.3796296 95.9698922,19 91.9313304,19 Z" id="Oval-2" fill="#FFFFFF"></path>
            </g>
            <ellipse id="Oval" fill="#FFFFFF" opacity="0.453031994" filter="url(#filter-1)" transform="translate(200.0089, 137.737) rotate(46) translate(-200.0089, -137.737)" cx="200.008945" cy="137.73703" rx="35.3577818" ry="40.6350626"></ellipse>
            <path d="M521,138 C482.503431,98.2196247 448.723549,71.1799277 419.660355,56.880909 C376.065564,35.432381 347.543959,28.4841486 295.097041,26.8563104 C242.650124,25.2284722 225.598176,37.942459 183.728994,56.880909 C155.816206,69.5065424 119.573208,92.6834255 75,126.411558 C102.798028,89.5392443 133.411045,63.0262947 166.839053,46.8727095 C216.981065,22.6423316 259.733728,10 295.097041,10 C330.460355,10 373.740828,20.0085949 428.633136,46.8727095 C465.228008,64.7821192 496.016963,95.1578827 521,138 Z" id="Path-8" fill="#FFFFFF" opacity="0.773065476" filter="url(#filter-2)"></path>
            <path d="M361.057245,44 C431.694309,123.939704 467.935264,174.984191 469.780109,197.133462 C472.547375,230.357369 482.654123,254.819372 459.752272,321.224371 C436.85042,387.629371 415.418677,407.823985 383.224042,440.562863 C361.760952,462.388781 259.019605,478.230174 75,488.087041 C207.883501,556.029014 286.171,590 309.862498,590 C333.553996,590 368.739389,581.727273 415.418677,565.181818 C481.196175,535.021945 525.881624,499.994866 549.475024,460.10058 C584.865123,400.259152 591.955643,340.867492 589.586372,292.181818 C587.2171,243.496144 582.366118,196.314838 555.280613,172.31528 C537.223611,156.315576 472.482488,113.543815 361.057245,44 Z" id="Path-9" fill="#000000" opacity="0.0963076637" filter="url(#filter-3)"></path>
        </g>
    </g>
</svg>
