<?xml version="1.0" encoding="UTF-8"?>
<svg width="1132px" height="1131px" viewBox="0 0 1132 1131" version="1.1" xmlns="http://www.w3.org/2000/svg" xmlns:xlink="http://www.w3.org/1999/xlink">
    <title>ball-6</title>
    <defs>
        <filter x="-76.4%" y="-66.4%" width="252.7%" height="232.9%" filterUnits="objectBoundingBox" id="filter-1">
            <feGaussianBlur stdDeviation="20" in="SourceGraphic"></feGaussianBlur>
        </filter>
        <filter x="-8.7%" y="-30.5%" width="117.5%" height="160.9%" filterUnits="objectBoundingBox" id="filter-2">
            <feGaussianBlur stdDeviation="20" in="SourceGraphic"></feGaussianBlur>
        </filter>
        <filter x="-18.6%" y="-17.6%" width="137.3%" height="135.2%" filterUnits="objectBoundingBox" id="filter-3">
            <feGaussianBlur stdDeviation="45" in="SourceGraphic"></feGaussianBlur>
        </filter>
    </defs>
    <g id="ball-6" stroke="none" stroke-width="1" fill="none" fill-rule="evenodd">
        <g id="Group-Copy" transform="translate(271, 271)">
            <circle id="Oval" fill="#F5CA05" cx="295" cy="295" r="295"></circle>
            <ellipse id="Oval" fill="#FFFFFF" opacity="0.453031994" filter="url(#filter-1)" transform="translate(200.0089, 137.737) rotate(46) translate(-200.0089, -137.737)" cx="200.008945" cy="137.73703" rx="35.3577818" ry="40.6350626"></ellipse>
            <g id="Group" transform="translate(288, 570) rotate(6) translate(-288, -570)translate(200.957, 537.2466)">
                <path d="M78.8748091,50.7056017 C98.9330657,50.7056017 132.805683,42.3979489 133.000108,29.9341793 C133.194533,17.4704098 109.795783,16.4229807 89.3486764,16.4229807 C68.9015699,16.4229807 53.7420457,15.575785 53.9364707,28.0395545 C54.1308956,40.5033241 58.8165526,50.7056017 78.8748091,50.7056017 Z" id="Oval-2" fill="#000000"></path>
                <path d="M75.4997229,13.0222368 C122.440117,5.44728741 165.345715,8.22172216 171.332057,19.2191103 C177.318399,30.2164984 144.842241,45.1555727 98.7945292,52.5864665 C52.7468171,60.0173604 9.84121984,57.2429257 2.96219558,46.3895931 C-3.91682868,35.5362605 28.5593285,20.5971862 75.4997229,13.0222368 Z M78.6317137,22.1912026 C73.6538478,22.9022847 71.8681937,23.4956634 70.5803261,24.017934 C69.2924586,24.5402045 70.0459299,25.6730062 69.6851381,25.9500783 C69.3243463,26.2271505 60.345883,28.2990802 57.0668691,29.1057836 C53.7878552,29.912487 55.0893057,31.8691444 58.8478013,31.7833149 C60.4211251,31.7473862 62.3857806,31.4381952 64.3826521,31.0972895 L65.0489764,30.982811 C67.6040171,30.5420142 70.1465089,30.0932563 71.9272473,30.1404654 L85.5540896,41.6131298 C78.2777536,42.9396204 74.1234305,43.7961828 73.0911202,44.182817 C71.5426548,44.7627684 71.0131716,45.1562499 72.1959322,46.1149614 C72.9844392,46.7541024 75.7473617,46.8104892 80.4846996,46.2841219 L118.19779,39.8819522 C120.578662,39.0907805 121.540774,38.3519215 121.084124,37.665375 C120.627475,36.9788285 118.671364,36.7696007 115.215792,37.0376914 L106.255634,38.3176392 L87.4182677,22.2892549 C85.7377206,21.4016516 83.6095795,21.4801205 78.6317137,22.1912026 Z" id="Oval-2" fill="#FFFFFF" transform="translate(87.043, 32.7534) rotate(6) translate(-87.043, -32.7534)"></path>
            </g>
            <path d="M521,138 C482.503431,98.2196247 448.723549,71.1799277 419.660355,56.880909 C376.065564,35.432381 347.543959,28.4841486 295.097041,26.8563104 C242.650124,25.2284722 225.598176,37.942459 183.728994,56.880909 C155.816206,69.5065424 119.573208,92.6834255 75,126.411558 C102.798028,89.5392443 133.411045,63.0262947 166.839053,46.8727095 C216.981065,22.6423316 259.733728,10 295.097041,10 C330.460355,10 373.740828,20.0085949 428.633136,46.8727095 C465.228008,64.7821192 496.016963,95.1578827 521,138 Z" id="Path-8" fill="#FFFFFF" opacity="0.773065476" filter="url(#filter-2)"></path>
            <path d="M361.057245,44 C431.694309,123.939704 467.935264,174.984191 469.780109,197.133462 C472.547375,230.357369 482.654123,254.819372 459.752272,321.224371 C436.85042,387.629371 415.418677,407.823985 383.224042,440.562863 C361.760952,462.388781 259.019605,478.230174 75,488.087041 C207.883501,556.029014 286.171,590 309.862498,590 C333.553996,590 368.739389,581.727273 415.418677,565.181818 C481.196175,535.021945 525.881624,499.994866 549.475024,460.10058 C584.865123,400.259152 591.955643,340.867492 589.586372,292.181818 C587.2171,243.496144 582.366118,196.314838 555.280613,172.31528 C537.223611,156.315576 472.482488,113.543815 361.057245,44 Z" id="Path-9" fill="#000000" opacity="0.0963076637" filter="url(#filter-3)"></path>
        </g>
    </g>
</svg>
