<svg xmlns="http://www.w3.org/2000/svg" viewBox="0 0 32 32" height="64" width="64"><title>coding-apps-websites-programming-browser</title><g><polygon points="1.52 9.14 30.48 9.14 30.48 28.95 32 28.95 32 3.05 30.48 3.05 30.48 7.62 1.52 7.62 1.52 3.05 0 3.05 0 28.95 1.52 28.95 1.52 9.14" fill="#ffffff"></polygon><rect x="1.52" y="28.95" width="28.96" height="1.53" fill="#ffffff"></rect><path d="M4.57,12.19V25.91H27.43V12.19Zm9.14,7.62H12.19v1.52H10.67v1.53H9.14V21.33h1.53V19.81h1.52V18.29H10.67V16.76H9.14V15.24h1.53v1.52h1.52v1.53h1.52Zm9.15,0h-6.1V18.29h6.1Z" fill="#ffffff"></path><rect x="9.14" y="4.57" width="1.53" height="1.53" fill="#ffffff"></rect><rect x="6.1" y="4.57" width="1.52" height="1.53" fill="#ffffff"></rect><rect x="3.05" y="4.57" width="1.52" height="1.53" fill="#ffffff"></rect><rect x="1.52" y="1.52" width="28.96" height="1.53" fill="#ffffff"></rect></g></svg>