<svg xmlns="http://www.w3.org/2000/svg" viewBox="0 0 32 32" height="64" width="64"><title>coding-apps-websites-finder</title><g><rect x="29.715" y="3.805" width="1.52" height="24.39" fill="#ffffff"></rect><rect x="28.185" y="28.195" width="1.53" height="1.52" fill="#ffffff"></rect><rect x="28.185" y="2.285" width="1.53" height="1.52" fill="#ffffff"></rect><path d="M2.285,29.715h1.52v1.52h24.38v-1.52h-9.14v-3.05h-1.52v-1.52h3.05v-1.53h-3.05V22.1H16v-4.57h-4.57v-3.05h1.53v-1.52h1.52V9.9H16V6.855h1.53V2.285h10.66V.765H3.805v1.52H2.285v1.52H.765V28.2h1.52Zm4.57-21.33h1.53v3.04H6.855Zm0,12.19h1.53V22.1H9.9v1.52H16v1.53H9.9v-1.53H8.385V22.1H6.855Z" fill="#ffffff"></path><rect x="23.615" y="8.385" width="1.53" height="3.04" fill="#ffffff"></rect><rect x="22.095" y="20.575" width="1.52" height="1.52" fill="#ffffff"></rect><rect x="20.575" y="22.095" width="1.52" height="1.52" fill="#ffffff"></rect></g></svg>