<svg xmlns="http://www.w3.org/2000/svg" viewBox="0 0 32 32" height="64" width="64"><title>coding-apps-websites-programming-browser-bugs-1</title><g><rect x="30.48" y="18.28" width="1.52" height="1.53" fill="#ffffff"></rect><rect x="28.95" y="27.43" width="1.53" height="1.52" fill="#ffffff"></rect><rect x="28.95" y="24.38" width="1.53" height="1.52" fill="#ffffff"></rect><path d="M27.43,16.76V15.24H25.91V12.19H24.38v1.52H21.33v1.53H19.81v1.52H18.29v3.05H16.76v1.52h3.05v1.53h1.52V25.9h1.53V24.38h3.05V22.86h1.52V21.33h1.52V18.28h1.53V16.76Zm-6.1,3.05H19.81V18.28h1.52Zm3.05,3.05H22.86V21.33h1.52Zm0-3.05H22.86V18.28h1.52Zm0-3.05H22.86V15.24h1.52Zm3.05,3.05H25.91V18.28h1.52Z" fill="#ffffff"></path><rect x="27.43" y="13.71" width="1.52" height="1.53" fill="#ffffff"></rect><rect x="25.91" y="28.95" width="3.04" height="1.53" fill="#ffffff"></rect><rect x="22.86" y="25.9" width="1.52" height="1.53" fill="#ffffff"></rect><rect x="22.86" y="10.67" width="1.52" height="1.52" fill="#ffffff"></rect><rect x="19.81" y="28.95" width="3.05" height="1.53" fill="#ffffff"></rect><rect x="18.29" y="12.19" width="3.04" height="1.52" fill="#ffffff"></rect><rect x="18.29" y="22.86" width="1.52" height="1.52" fill="#ffffff"></rect><rect x="16.76" y="13.71" width="1.53" height="3.05" fill="#ffffff"></rect><rect x="15.24" y="18.28" width="1.52" height="1.53" fill="#ffffff"></rect><rect x="13.72" y="28.95" width="3.04" height="1.53" fill="#ffffff"></rect><rect x="1.52" y="24.38" width="15.24" height="1.52" fill="#ffffff"></rect><rect x="3.05" y="15.24" width="10.67" height="1.52" fill="#ffffff"></rect><rect x="3.05" y="19.81" width="10.67" height="1.52" fill="#ffffff"></rect><rect x="9.14" y="3.05" width="1.53" height="1.52" fill="#ffffff"></rect><rect x="7.62" y="28.95" width="3.05" height="1.53" fill="#ffffff"></rect><rect x="6.1" y="30.48" width="1.52" height="1.52" fill="#ffffff"></rect><rect x="6.1" y="3.05" width="1.52" height="1.52" fill="#ffffff"></rect><rect x="3.05" y="10.67" width="9.14" height="1.52" fill="#ffffff"></rect><rect x="3.05" y="3.05" width="1.52" height="1.52" fill="#ffffff"></rect><rect x="1.52" width="25.91" height="1.52" fill="#ffffff"></rect><polygon points="1.52 7.62 27.43 7.62 27.43 12.19 28.95 12.19 28.95 1.52 27.43 1.52 27.43 6.09 1.52 6.09 1.52 1.52 0 1.52 0 24.38 1.52 24.38 1.52 7.62" fill="#ffffff"></polygon></g></svg>