<svg xmlns="http://www.w3.org/2000/svg" viewBox="0 0 32 32" height="64" width="64"><title>coding-app-website-ui</title><g><polygon points="1.52 7.62 30.48 7.62 30.48 30.47 32 30.47 32 1.52 30.48 1.52 30.48 6.09 1.52 6.09 1.52 1.52 0 1.52 0 30.47 1.52 30.47 1.52 7.62" fill="#ffffff"></polygon><rect x="1.52" y="30.47" width="28.96" height="1.53" fill="#ffffff"></rect><rect x="21.33" y="25.9" width="6.1" height="1.53" fill="#ffffff"></rect><rect x="21.33" y="22.85" width="6.1" height="1.53" fill="#ffffff"></rect><path d="M4.57,10.66v9.15H27.43V10.66ZM25.9,18.28H15.24V16.76H13.71v1.52H6.09V12.19H21.33v1.52h1.53V12.19H25.9Z" fill="#ffffff"></path><rect x="18.29" y="13.71" width="3.04" height="1.52" fill="#ffffff"></rect><rect x="15.24" y="15.23" width="3.05" height="1.53" fill="#ffffff"></rect><rect x="4.57" y="25.9" width="12.19" height="1.53" fill="#ffffff"></rect><rect x="4.57" y="22.85" width="12.19" height="1.53" fill="#ffffff"></rect><rect x="9.14" y="3.04" width="1.53" height="1.53" fill="#ffffff"></rect><rect x="7.62" y="13.71" width="3.05" height="3.05" fill="#ffffff"></rect><rect x="6.09" y="3.04" width="1.53" height="1.53" fill="#ffffff"></rect><rect x="3.05" y="3.04" width="1.52" height="1.53" fill="#ffffff"></rect><rect x="1.52" width="28.96" height="1.52" fill="#ffffff"></rect></g></svg>