<svg xmlns="http://www.w3.org/2000/svg" viewBox="0 0 32 32" height="64" width="64"><title>coding-apps-websites</title><g><rect x="30.48" y="1.53" width="1.52" height="28.95" fill="#ffffff"></rect><rect x="1.52" y="30.48" width="28.96" height="1.52" fill="#ffffff"></rect><path d="M28.95,3.05H3.05V28.96h25.9ZM15.24,6.1h1.52v6.09H15.24Zm-6.1,0h4.57v6.09H9.14ZM6.1,6.1H7.62v6.09H6.1Zm0,7.62h4.57v6.09H6.1Zm6.09,12.19H10.67v1.52H9.14V25.91h1.53V22.86H9.14V21.34h1.53v1.52h1.52Zm0-12.19h1.52v6.09H12.19Zm6.1,13.71H13.71V25.91h4.58Zm-3.05-7.62V13.72h4.57v6.09Zm7.62,3.05H21.33v3.05h1.53v1.52H21.33V25.91H19.81V22.86h1.52V21.34h1.53Zm0-3.05H21.33V13.72h1.53Zm0-7.62H18.29V6.1h4.57Zm3.04,7.62H24.38V13.72H25.9Zm0-7.62H24.38V6.1H25.9Z" fill="#ffffff"></path><rect x="19.81" y="7.62" width="1.52" height="3.05" fill="#ffffff"></rect><rect x="16.76" y="15.24" width="1.53" height="3.05" fill="#ffffff"></rect><rect x="10.67" y="7.62" width="1.52" height="3.05" fill="#ffffff"></rect><rect x="7.62" y="15.24" width="1.52" height="3.05" fill="#ffffff"></rect><rect x="1.52" width="28.96" height="1.53" fill="#ffffff"></rect><rect y="1.53" width="1.52" height="28.95" fill="#ffffff"></rect></g></svg>