<svg xmlns="http://www.w3.org/2000/svg" viewBox="0 0 32 32" height="64" width="64"><title>coding-apps-websites-firewall</title><g><rect x="28.95" y="19.81" width="3.05" height="3.05" fill="#ffffff"></rect><rect x="28.95" y="28.96" width="3.05" height="3.04" fill="#ffffff"></rect><rect x="24.38" y="24.39" width="7.62" height="3.04" fill="#ffffff"></rect><rect x="28.95" y="9.15" width="1.53" height="1.52" fill="#ffffff"></rect><polygon points="27.43 15.24 28.95 15.24 28.95 10.67 25.9 10.67 25.9 12.19 27.43 12.19 27.43 15.24" fill="#ffffff"></polygon><rect x="25.9" y="15.24" width="1.53" height="1.53" fill="#ffffff"></rect><rect x="19.81" y="28.96" width="7.62" height="3.04" fill="#ffffff"></rect><rect x="24.38" y="12.19" width="1.52" height="1.53" fill="#ffffff"></rect><polygon points="25.9 4.58 27.43 4.58 27.43 3.05 22.86 3.05 22.86 4.58 24.38 4.58 24.38 9.15 25.9 9.15 25.9 4.58" fill="#ffffff"></polygon><rect x="22.86" y="16.77" width="3.04" height="1.52" fill="#ffffff"></rect><rect x="22.86" y="9.15" width="1.52" height="3.04" fill="#ffffff"></rect><rect x="21.33" y="4.58" width="1.53" height="1.52" fill="#ffffff"></rect><rect x="13.71" y="24.39" width="9.15" height="3.04" fill="#ffffff"></rect><rect x="18.29" y="19.81" width="9.14" height="3.05" fill="#ffffff"></rect><rect x="19.81" y="9.15" width="1.52" height="1.52" fill="#ffffff"></rect><rect x="19.81" y="6.1" width="1.52" height="1.52" fill="#ffffff"></rect><rect x="18.29" y="4.58" width="1.52" height="1.52" fill="#ffffff"></rect><path d="M16.76,7.62V9.15H15.24v1.52H13.71v1.52h1.53v1.53H13.71V12.19H10.67v1.53h1.52v3.05h1.52v1.52h6.1V16.77h1.52V12.19H19.81V10.67H18.29v1.52H16.76V10.67h1.53V7.62Zm1.53,6.1h1.52v1.52H18.29Zm-1.53,3.05H15.24V15.24h1.52Z" fill="#ffffff"></path><polygon points="19.81 1.53 19.81 0 15.24 0 15.24 1.53 16.76 1.53 16.76 4.58 18.29 4.58 18.29 1.53 19.81 1.53" fill="#ffffff"></polygon><rect x="9.14" y="28.96" width="9.15" height="3.04" fill="#ffffff"></rect><rect x="7.62" y="19.81" width="9.14" height="3.05" fill="#ffffff"></rect><rect x="13.71" y="1.53" width="1.53" height="4.57" fill="#ffffff"></rect><rect x="12.19" y="6.1" width="1.52" height="1.52" fill="#ffffff"></rect><rect x="10.67" y="4.58" width="1.52" height="1.52" fill="#ffffff"></rect><rect x="4.57" y="24.39" width="7.62" height="3.04" fill="#ffffff"></rect><rect x="9.14" y="6.1" width="1.53" height="4.57" fill="#ffffff"></rect><rect x="9.14" y="3.05" width="1.53" height="1.53" fill="#ffffff"></rect><rect x="7.62" y="16.77" width="3.05" height="1.52" fill="#ffffff"></rect><rect x="7.62" y="10.67" width="1.52" height="1.52" fill="#ffffff"></rect><rect x="7.62" y="4.58" width="1.52" height="1.52" fill="#ffffff"></rect><rect x="6.1" y="15.24" width="1.52" height="1.53" fill="#ffffff"></rect><rect y="28.96" width="7.62" height="3.04" fill="#ffffff"></rect><polygon points="3.05 9.15 3.05 10.67 4.57 10.67 4.57 15.24 6.1 15.24 6.1 10.67 7.62 10.67 7.62 9.15 3.05 9.15" fill="#ffffff"></polygon><rect y="24.39" width="3.05" height="3.04" fill="#ffffff"></rect><rect y="19.81" width="6.1" height="3.05" fill="#ffffff"></rect><rect x="1.52" y="7.62" width="1.53" height="1.53" fill="#ffffff"></rect></g></svg>