<svg xmlns="http://www.w3.org/2000/svg" viewBox="0 0 32 32" height="64" width="64"><title>coding-apps-websites-search-bug</title><g><path d="M29.715,23.62h-1.53V22.1h-1.52V20.57h-1.52V17.53h-1.53v3.04H22.1V22.1h-1.52v1.52h-3.05v1.52h3.05v1.53H22.1v1.52h1.52v1.53h1.53v1.52h4.57V29.72h1.52V25.14h-1.52Zm0,4.57h-1.53V26.67h-1.52V25.14h-1.52V23.62h1.52v1.52h1.52v1.53h1.53Z" fill="#ffffff"></path><rect x="25.145" y="9.91" width="1.52" height="7.62" fill="#ffffff"></rect><rect x="23.615" y="6.86" width="1.53" height="3.05" fill="#ffffff"></rect><rect x="22.095" y="5.33" width="1.52" height="1.53" fill="#ffffff"></rect><rect x="20.575" y="3.81" width="1.52" height="1.52" fill="#ffffff"></rect><rect x="19.045" y="6.86" width="1.53" height="3.05" fill="#ffffff"></rect><path d="M19.045,20.57h1.53V17.53h-1.53V14.48H22.1V12.95h-3.05V9.91h-1.52V8.38H16V9.91h-4.57V8.38H9.9V9.91H8.375v3.04H5.335v1.53h3.04v3.05H6.855v3.04h1.52V19.05h3.05v1.52H16V19.05h3.05Zm-1.52-6.09h-3.05v4.57h-1.52V14.48H9.9V12.95h7.62Z" fill="#ffffff"></path><rect x="17.525" y="2.29" width="3.05" height="1.52" fill="#ffffff"></rect><rect x="9.905" y="25.14" width="7.62" height="1.53" fill="#ffffff"></rect><polygon points="15.995 8.38 15.995 6.86 17.525 6.86 17.525 5.33 14.475 5.33 14.475 6.86 12.955 6.86 12.955 5.33 9.905 5.33 9.905 6.86 11.425 6.86 11.425 8.38 15.995 8.38" fill="#ffffff"></polygon><rect x="9.905" y="0.76" width="7.62" height="1.53" fill="#ffffff"></rect><rect x="6.855" y="23.62" width="3.05" height="1.52" fill="#ffffff"></rect><rect x="6.855" y="2.29" width="3.05" height="1.52" fill="#ffffff"></rect><rect x="6.855" y="6.86" width="1.52" height="3.05" fill="#ffffff"></rect><rect x="5.335" y="22.1" width="1.52" height="1.52" fill="#ffffff"></rect><rect x="5.335" y="3.81" width="1.52" height="1.52" fill="#ffffff"></rect><rect x="3.805" y="20.57" width="1.53" height="1.53" fill="#ffffff"></rect><rect x="3.805" y="5.33" width="1.53" height="1.53" fill="#ffffff"></rect><rect x="2.285" y="17.53" width="1.52" height="3.04" fill="#ffffff"></rect><rect x="2.285" y="6.86" width="1.52" height="3.05" fill="#ffffff"></rect><rect x="0.765" y="9.91" width="1.52" height="7.62" fill="#ffffff"></rect></g></svg>