<svg xmlns="http://www.w3.org/2000/svg" viewBox="0 0 32 32" height="64" width="64"><title>coding-apps-websites-shield-lock</title><g><polygon points="25.91 4.57 25.91 6.1 27.43 6.1 27.43 21.34 28.95 21.34 28.95 4.57 27.43 4.57 27.43 3.05 24.38 3.05 24.38 4.57 25.91 4.57" fill="#ffffff"></polygon><rect x="25.91" y="21.34" width="1.52" height="3.04" fill="#ffffff"></rect><rect x="24.38" y="24.38" width="1.53" height="1.53" fill="#ffffff"></rect><rect x="24.38" y="6.1" width="1.53" height="15.24" fill="#ffffff"></rect><rect x="22.86" y="25.91" width="1.52" height="1.52" fill="#ffffff"></rect><rect x="22.86" y="21.34" width="1.52" height="3.04" fill="#ffffff"></rect><rect x="21.34" y="27.43" width="1.52" height="1.53" fill="#ffffff"></rect><rect x="21.34" y="24.38" width="1.52" height="1.53" fill="#ffffff"></rect><rect x="21.34" y="4.57" width="3.04" height="1.53" fill="#ffffff"></rect><rect x="21.34" y="1.53" width="3.04" height="1.52" fill="#ffffff"></rect><rect x="18.29" y="28.96" width="3.05" height="1.52" fill="#ffffff"></rect><rect x="18.29" y="25.91" width="3.05" height="1.52" fill="#ffffff"></rect><path d="M13.72,13.72V10.67H12.19v3.05H10.67v7.62h1.52v1.52h7.62V21.34h1.53V13.72H19.81V10.67H18.29v3.05Zm3.04,4.57H15.24V15.24h1.52Z" fill="#ffffff"></path><rect x="13.72" y="30.48" width="4.57" height="1.52" fill="#ffffff"></rect><rect x="13.72" y="27.43" width="4.57" height="1.53" fill="#ffffff"></rect><rect x="13.72" y="9.15" width="4.57" height="1.52" fill="#ffffff"></rect><rect x="10.67" y="28.96" width="3.05" height="1.52" fill="#ffffff"></rect><rect x="10.67" y="25.91" width="3.05" height="1.52" fill="#ffffff"></rect><rect x="10.67" y="3.05" width="10.67" height="1.52" fill="#ffffff"></rect><rect x="10.67" width="10.67" height="1.53" fill="#ffffff"></rect><rect x="9.14" y="27.43" width="1.53" height="1.53" fill="#ffffff"></rect><rect x="9.14" y="24.38" width="1.53" height="1.53" fill="#ffffff"></rect><rect x="7.62" y="4.57" width="3.05" height="1.53" fill="#ffffff"></rect><rect x="7.62" y="1.53" width="3.05" height="1.52" fill="#ffffff"></rect><rect x="7.62" y="25.91" width="1.52" height="1.52" fill="#ffffff"></rect><rect x="7.62" y="21.34" width="1.52" height="3.04" fill="#ffffff"></rect><rect x="6.1" y="24.38" width="1.52" height="1.53" fill="#ffffff"></rect><rect x="6.1" y="6.1" width="1.52" height="15.24" fill="#ffffff"></rect><rect x="4.57" y="3.05" width="3.05" height="1.52" fill="#ffffff"></rect><rect x="4.57" y="21.34" width="1.53" height="3.04" fill="#ffffff"></rect><rect x="3.05" y="4.57" width="1.52" height="16.77" fill="#ffffff"></rect></g></svg>