<svg xmlns="http://www.w3.org/2000/svg" viewBox="0 0 32 32" height="64" width="64"><title>coding-apps-websites-android</title><g><rect x="28.95" y="15.24" width="1.53" height="7.62" fill="#ffffff"></rect><polygon points="27.43 24.39 28.95 24.39 28.95 22.86 27.43 22.86 27.43 15.24 28.95 15.24 28.95 13.72 27.43 13.72 27.43 10.67 25.9 10.67 25.9 13.72 6.1 13.72 6.1 10.67 4.57 10.67 4.57 13.72 3.05 13.72 3.05 15.24 4.57 15.24 4.57 22.86 3.05 22.86 3.05 24.39 4.57 24.39 4.57 25.91 6.1 25.91 6.1 15.24 25.9 15.24 25.9 25.91 27.43 25.91 27.43 24.39" fill="#ffffff"></polygon><rect x="25.9" width="1.53" height="1.53" fill="#ffffff"></rect><rect x="24.38" y="25.91" width="1.52" height="1.52" fill="#ffffff"></rect><rect x="24.38" y="7.62" width="1.52" height="3.05" fill="#ffffff"></rect><rect x="24.38" y="1.53" width="1.52" height="1.52" fill="#ffffff"></rect><rect x="22.86" y="6.1" width="1.52" height="1.52" fill="#ffffff"></rect><rect x="22.86" y="3.05" width="1.52" height="1.53" fill="#ffffff"></rect><polygon points="21.33 30.48 22.86 30.48 22.86 28.96 24.38 28.96 24.38 27.43 21.33 27.43 21.33 30.48" fill="#ffffff"></polygon><rect x="19.81" y="4.58" width="3.05" height="1.52" fill="#ffffff"></rect><rect x="18.29" y="30.48" width="3.04" height="1.52" fill="#ffffff"></rect><polygon points="13.71 27.43 13.71 30.48 15.24 30.48 15.24 28.96 16.76 28.96 16.76 30.48 18.29 30.48 18.29 27.43 13.71 27.43" fill="#ffffff"></polygon><rect x="12.19" y="3.05" width="7.62" height="1.53" fill="#ffffff"></rect><rect x="10.67" y="30.48" width="3.04" height="1.52" fill="#ffffff"></rect><path d="M22.86,12.19V9.15H21.33V7.62H10.67V9.15H9.14v3.04ZM18.29,9.15h1.52v1.52H18.29Zm-6.1,0h1.52v1.52H12.19Z" fill="#ffffff"></path><rect x="9.14" y="4.58" width="3.05" height="1.52" fill="#ffffff"></rect><polygon points="7.62 27.43 7.62 28.96 9.14 28.96 9.14 30.48 10.67 30.48 10.67 27.43 7.62 27.43" fill="#ffffff"></polygon><rect x="7.62" y="6.1" width="1.52" height="1.52" fill="#ffffff"></rect><rect x="7.62" y="3.05" width="1.52" height="1.53" fill="#ffffff"></rect><rect x="6.1" y="25.91" width="1.52" height="1.52" fill="#ffffff"></rect><rect x="6.1" y="7.62" width="1.52" height="3.05" fill="#ffffff"></rect><rect x="6.1" y="1.53" width="1.52" height="1.52" fill="#ffffff"></rect><rect x="4.57" width="1.53" height="1.53" fill="#ffffff"></rect><rect x="1.52" y="15.24" width="1.53" height="7.62" fill="#ffffff"></rect></g></svg>