<svg xmlns="http://www.w3.org/2000/svg" viewBox="0 0 32 32" height="64" width="64"><title>computers-devices-electronics-tape-cassette</title><g><rect x="30.48" y="6.095" width="1.52" height="19.81" fill="#ffffff"></rect><polygon points="25.91 25.905 25.91 24.385 24.38 24.385 24.38 25.905 7.62 25.905 7.62 24.385 6.1 24.385 6.1 25.905 1.53 25.905 1.53 27.425 30.48 27.425 30.48 25.905 25.91 25.905" fill="#ffffff"></polygon><rect x="27.43" y="22.855" width="1.53" height="1.53" fill="#ffffff"></rect><rect x="27.43" y="7.615" width="1.53" height="1.53" fill="#ffffff"></rect><path d="M27.43,13.715H25.91V12.2H6.1v1.52H4.58v3.05H6.1v1.52H25.91v-1.52h1.52Zm-16.76,3.05H7.62v-3.05h3.05Zm7.62-1.53H13.72v-1.52h4.57Zm6.09,1.53H21.34v-3.05h3.04Z" fill="#ffffff"></path><rect x="22.86" y="22.855" width="1.52" height="1.53" fill="#ffffff"></rect><rect x="9.15" y="21.335" width="13.71" height="1.52" fill="#ffffff"></rect><rect x="9.15" y="7.615" width="13.71" height="1.53" fill="#ffffff"></rect><rect x="7.62" y="22.855" width="1.53" height="1.53" fill="#ffffff"></rect><rect x="3.05" y="22.855" width="1.53" height="1.53" fill="#ffffff"></rect><rect x="3.05" y="7.615" width="1.53" height="1.53" fill="#ffffff"></rect><rect x="1.53" y="4.575" width="28.95" height="1.52" fill="#ffffff"></rect><rect y="6.095" width="1.53" height="19.81" fill="#ffffff"></rect></g></svg>