<svg xmlns="http://www.w3.org/2000/svg" viewBox="0 0 32 32" height="64" width="64"><title>computers-devices-electronics-graphic-tablet</title><g><rect x="30.48" y="12.19" width="1.52" height="18.29" fill="#ffffff"></rect><rect x="1.52" y="30.48" width="28.96" height="1.52" fill="#ffffff"></rect><path d="M7.62,13.72V28.96H28.95V13.72ZM27.43,27.43H9.14V15.24H27.43Z" fill="#ffffff"></path><polygon points="25.91 22.86 24.38 22.86 24.38 24.38 22.86 24.38 22.86 25.91 25.91 25.91 25.91 22.86" fill="#ffffff"></polygon><polygon points="24.38 19.81 25.91 19.81 25.91 16.76 22.86 16.76 22.86 18.29 24.38 18.29 24.38 19.81" fill="#ffffff"></polygon><polygon points="13.71 24.38 12.19 24.38 12.19 22.86 10.67 22.86 10.67 25.91 13.71 25.91 13.71 24.38" fill="#ffffff"></polygon><polygon points="12.19 18.29 13.71 18.29 13.71 16.76 10.67 16.76 10.67 19.81 12.19 19.81 12.19 18.29" fill="#ffffff"></polygon><rect x="10.67" y="3.05" width="1.52" height="3.05" fill="#ffffff"></rect><rect x="7.62" y="1.53" width="3.05" height="1.52" fill="#ffffff"></rect><rect x="6.1" y="6.1" width="4.57" height="1.52" fill="#ffffff"></rect><rect x="6.1" width="1.52" height="1.53" fill="#ffffff"></rect><rect x="3.05" y="27.43" width="3.05" height="1.53" fill="#ffffff"></rect><rect x="3.05" y="24.38" width="3.05" height="1.53" fill="#ffffff"></rect><rect x="3.05" y="19.81" width="3.05" height="3.05" fill="#ffffff"></rect><rect x="3.05" y="16.76" width="3.05" height="1.53" fill="#ffffff"></rect><rect x="3.05" y="13.72" width="3.05" height="1.52" fill="#ffffff"></rect><polygon points="30.48 12.19 30.48 10.67 6.1 10.67 6.1 7.62 4.57 7.62 4.57 10.67 1.52 10.67 1.52 12.19 30.48 12.19" fill="#ffffff"></polygon><rect y="12.19" width="1.52" height="18.29" fill="#ffffff"></rect></g></svg>