<svg xmlns="http://www.w3.org/2000/svg" viewBox="0 0 32 32" height="64" width="64"><title>computers-devices-electronics-keyboard-pad</title><g><rect x="28.19" y="6.1" width="1.52" height="24.38" fill="#ffffff"></rect><rect x="3.81" y="30.48" width="24.38" height="1.52" fill="#ffffff"></rect><path d="M12.95,22.86v6.1H26.67v-6.1Zm12.19,3.05H23.62v1.52H20.57V25.91H19.05V24.38h1.52v1.53h3.05V24.38h1.52Z" fill="#ffffff"></path><path d="M20.57,15.24v6.1h6.1v-6.1Zm4.57,4.57H22.09V16.77h3.05Z" fill="#ffffff"></path><path d="M20.57,7.62v6.1h6.1V7.62Zm4.57,4.57H22.09V9.15h3.05Z" fill="#ffffff"></path><rect x="12.95" y="1.53" width="9.14" height="1.52" fill="#ffffff"></rect><path d="M19.05,21.34v-6.1h-6.1v6.1Zm-4.57-4.57h3.04v3.04H14.48Z" fill="#ffffff"></path><path d="M19.05,13.72V7.62h-6.1v6.1ZM14.48,9.15h3.04v3.04H14.48Z" fill="#ffffff"></path><rect x="11.43" width="1.52" height="1.53" fill="#ffffff"></rect><path d="M5.33,22.86v6.1h6.1v-6.1ZM9.9,27.43H6.86V24.38H9.9Z" fill="#ffffff"></path><path d="M5.33,15.24v6.1h6.1v-6.1ZM9.9,19.81H6.86V16.77H9.9Z" fill="#ffffff"></path><path d="M5.33,7.62v6.1h6.1V7.62ZM9.9,12.19H6.86V9.15H9.9Z" fill="#ffffff"></path><polygon points="28.19 6.1 28.19 4.58 23.62 4.58 23.62 3.05 22.09 3.05 22.09 4.58 3.81 4.58 3.81 6.1 28.19 6.1" fill="#ffffff"></polygon><rect x="2.29" y="6.1" width="1.52" height="24.38" fill="#ffffff"></rect></g></svg>