<svg xmlns="http://www.w3.org/2000/svg" viewBox="0 0 32 32" height="64" width="64"><title>computers-devices-electronics-chipset</title><g><polygon points="27.43 6.1 25.91 6.1 25.91 25.91 27.43 25.91 27.43 24.38 32 24.38 32 22.86 27.43 22.86 27.43 19.81 32 19.81 32 18.29 27.43 18.29 27.43 13.72 32 13.72 32 12.19 27.43 12.19 27.43 9.15 32 9.15 32 7.62 27.43 7.62 27.43 6.1" fill="#ffffff"></polygon><polygon points="6.1 25.91 6.1 27.43 7.62 27.43 7.62 32 9.14 32 9.14 27.43 12.19 27.43 12.19 32 13.72 32 13.72 27.43 18.29 27.43 18.29 32 19.81 32 19.81 27.43 22.86 27.43 22.86 32 24.38 32 24.38 27.43 25.91 27.43 25.91 25.91 6.1 25.91" fill="#ffffff"></polygon><path d="M22.86,7.62H9.14V9.15H7.62V22.86H9.14V21.34h3.05V19.81h3.05V18.29h1.52V16.77h1.53V15.24h1.52V13.72h1.52V10.67h1.53V22.86h1.52V9.15H22.86Zm-9.14,7.62H10.67V13.72h3.05Zm4.57-3.05H10.67V10.67h7.62Z" fill="#ffffff"></path><rect x="9.14" y="22.86" width="13.72" height="1.52" fill="#ffffff"></rect><rect x="19.81" y="19.81" width="1.52" height="1.53" fill="#ffffff"></rect><rect x="16.76" y="19.81" width="1.53" height="1.53" fill="#ffffff"></rect><polygon points="25.91 6.1 25.91 4.58 24.38 4.58 24.38 0 22.86 0 22.86 4.58 19.81 4.58 19.81 0 18.29 0 18.29 4.58 13.72 4.58 13.72 0 12.19 0 12.19 4.58 9.14 4.58 9.14 0 7.62 0 7.62 4.58 6.1 4.58 6.1 6.1 25.91 6.1" fill="#ffffff"></polygon><polygon points="6.1 6.1 4.57 6.1 4.57 7.62 0 7.62 0 9.15 4.57 9.15 4.57 12.19 0 12.19 0 13.72 4.57 13.72 4.57 18.29 0 18.29 0 19.81 4.57 19.81 4.57 22.86 0 22.86 0 24.38 4.57 24.38 4.57 25.91 6.1 25.91 6.1 6.1" fill="#ffffff"></polygon></g></svg>