<svg xmlns="http://www.w3.org/2000/svg" viewBox="0 0 32 32" height="64" width="64"><title>computers-devices-electronics-harddisk</title><g><rect x="28.95" y="1.53" width="1.53" height="28.95" fill="#ffffff"></rect><rect x="3.05" y="30.48" width="25.9" height="1.52" fill="#ffffff"></rect><rect x="25.91" y="27.43" width="1.52" height="1.53" fill="#ffffff"></rect><polygon points="25.91 21.34 24.38 21.34 24.38 22.86 22.86 22.86 22.86 24.38 21.33 24.38 21.33 25.91 27.43 25.91 27.43 19.81 25.91 19.81 25.91 21.34" fill="#ffffff"></polygon><rect x="25.91" y="3.05" width="1.52" height="1.52" fill="#ffffff"></rect><rect x="24.38" y="9.15" width="1.53" height="7.61" fill="#ffffff"></rect><rect x="22.86" y="16.76" width="1.52" height="3.05" fill="#ffffff"></rect><rect x="22.86" y="6.1" width="1.52" height="3.05" fill="#ffffff"></rect><rect x="19.81" y="19.81" width="3.05" height="1.53" fill="#ffffff"></rect><rect x="21.33" y="10.67" width="1.53" height="3.05" fill="#ffffff"></rect><rect x="19.81" y="4.57" width="3.05" height="1.53" fill="#ffffff"></rect><rect x="19.81" y="9.15" width="1.52" height="1.52" fill="#ffffff"></rect><rect x="16.76" y="7.62" width="3.05" height="1.53" fill="#ffffff"></rect><rect x="12.19" y="3.05" width="7.62" height="1.52" fill="#ffffff"></rect><rect x="12.19" y="21.34" width="7.62" height="1.52" fill="#ffffff"></rect><rect x="16.76" y="12.19" width="1.53" height="1.53" fill="#ffffff"></rect><rect x="15.24" y="13.72" width="1.52" height="1.52" fill="#ffffff"></rect><rect x="15.24" y="10.67" width="1.52" height="1.52" fill="#ffffff"></rect><rect x="13.71" y="12.19" width="1.53" height="1.53" fill="#ffffff"></rect><rect x="12.19" y="16.76" width="1.52" height="1.53" fill="#ffffff"></rect><rect x="10.67" y="18.29" width="1.52" height="1.52" fill="#ffffff"></rect><rect x="9.14" y="19.81" width="1.53" height="1.53" fill="#ffffff"></rect><rect x="9.14" y="4.57" width="3.05" height="1.53" fill="#ffffff"></rect><polygon points="10.67 22.86 9.14 22.86 9.14 21.34 7.62 21.34 7.62 22.86 4.57 22.86 4.57 25.91 10.67 25.91 10.67 22.86" fill="#ffffff"></polygon><rect x="7.62" y="16.76" width="1.52" height="1.53" fill="#ffffff"></rect><rect x="7.62" y="6.1" width="1.52" height="3.05" fill="#ffffff"></rect><rect x="6.1" y="9.15" width="1.52" height="7.61" fill="#ffffff"></rect><rect x="4.57" y="27.43" width="1.53" height="1.53" fill="#ffffff"></rect><rect x="4.57" y="3.05" width="1.53" height="1.52" fill="#ffffff"></rect><rect x="3.05" width="25.9" height="1.53" fill="#ffffff"></rect><rect x="1.52" y="1.53" width="1.53" height="28.95" fill="#ffffff"></rect></g></svg>