<svg xmlns="http://www.w3.org/2000/svg" viewBox="0 0 32 32" height="64" width="64"><title>computers-devices-electronics-click-select-tablet</title><g><rect x="30.48" y="21.34" width="1.52" height="7.62" fill="#ffffff"></rect><path d="M30.48,0H1.53V1.53H0V19.81H1.53v1.53H9.14V19.81H3.05V1.53h25.9V6.1H27.43v9.14h1.52v1.53h1.53v1.52H32V1.53H30.48Zm0,13.72H28.95V10.67h1.53Zm0-4.57H28.95V7.62h1.53Z" fill="#ffffff"></path><rect x="28.95" y="28.96" width="1.53" height="1.52" fill="#ffffff"></rect><rect x="28.95" y="19.81" width="1.53" height="1.53" fill="#ffffff"></rect><rect x="27.43" y="30.48" width="1.52" height="1.52" fill="#ffffff"></rect><rect x="27.43" y="18.29" width="1.52" height="1.52" fill="#ffffff"></rect><polygon points="21.33 16.77 21.33 10.67 19.81 10.67 19.81 18.29 27.43 18.29 27.43 16.77 21.33 16.77" fill="#ffffff"></polygon><rect x="24.38" y="19.81" width="1.53" height="4.57" fill="#ffffff"></rect><rect x="22.86" y="4.58" width="1.52" height="1.52" fill="#ffffff"></rect><rect x="21.33" y="6.1" width="1.53" height="1.52" fill="#ffffff"></rect><rect x="19.81" y="19.81" width="1.52" height="4.57" fill="#ffffff"></rect><rect x="16.76" y="9.15" width="3.05" height="1.52" fill="#ffffff"></rect><rect x="16.76" y="3.05" width="1.53" height="4.57" fill="#ffffff"></rect><rect x="15.24" y="28.96" width="1.52" height="3.04" fill="#ffffff"></rect><polygon points="15.24 18.29 12.19 18.29 12.19 19.81 15.24 19.81 15.24 22.86 16.76 22.86 16.76 10.67 15.24 10.67 15.24 18.29" fill="#ffffff"></polygon><rect x="13.72" y="27.43" width="1.52" height="1.53" fill="#ffffff"></rect><rect x="12.19" y="25.91" width="1.53" height="1.52" fill="#ffffff"></rect><rect x="12.19" y="6.1" width="1.53" height="1.52" fill="#ffffff"></rect><rect x="10.67" y="19.81" width="1.52" height="6.1" fill="#ffffff"></rect><rect x="10.67" y="4.58" width="1.52" height="1.52" fill="#ffffff"></rect></g></svg>