<svg xmlns="http://www.w3.org/2000/svg" viewBox="0 0 32 32" height="64" width="64"><title>computers-devices-electronics-earpod-sound</title><g><rect x="28.955" y="4.575" width="1.52" height="10.66" fill="#ffffff"></rect><rect x="27.425" y="15.235" width="1.53" height="1.53" fill="#ffffff"></rect><rect x="27.425" y="3.045" width="1.53" height="1.53" fill="#ffffff"></rect><rect x="25.905" y="16.765" width="1.52" height="1.52" fill="#ffffff"></rect><rect x="25.905" y="7.615" width="1.52" height="4.57" fill="#ffffff"></rect><rect x="25.905" y="1.525" width="1.52" height="1.52" fill="#ffffff"></rect><rect x="24.385" y="12.185" width="1.52" height="1.53" fill="#ffffff"></rect><rect x="24.385" y="6.095" width="1.52" height="1.52" fill="#ffffff"></rect><rect x="21.335" y="4.575" width="1.52" height="10.66" fill="#ffffff"></rect><rect x="19.815" y="15.235" width="1.52" height="1.53" fill="#ffffff"></rect><rect x="19.815" y="3.045" width="1.52" height="1.53" fill="#ffffff"></rect><rect x="13.715" y="16.765" width="6.1" height="1.52" fill="#ffffff"></rect><polygon points="18.285 13.715 19.815 13.715 19.815 6.095 18.285 6.095 18.285 4.575 16.765 4.575 16.765 15.235 18.285 15.235 18.285 13.715" fill="#ffffff"></polygon><rect x="13.715" y="1.525" width="6.1" height="1.52" fill="#ffffff"></rect><rect x="12.195" y="15.235" width="1.52" height="1.53" fill="#ffffff"></rect><rect x="10.665" y="3.045" width="3.05" height="1.53" fill="#ffffff"></rect><rect x="10.665" y="13.715" width="1.53" height="1.52" fill="#ffffff"></rect><rect x="9.145" y="12.185" width="1.52" height="1.53" fill="#ffffff"></rect><rect x="9.145" y="4.575" width="1.52" height="1.52" fill="#ffffff"></rect><rect x="7.615" y="13.715" width="1.53" height="1.52" fill="#ffffff"></rect><rect x="7.615" y="6.095" width="1.53" height="1.52" fill="#ffffff"></rect><rect x="6.095" y="15.235" width="1.52" height="13.72" fill="#ffffff"></rect><rect x="6.095" y="7.615" width="1.52" height="1.53" fill="#ffffff"></rect><rect x="4.575" y="9.145" width="1.52" height="1.52" fill="#ffffff"></rect><rect x="3.045" y="28.955" width="3.05" height="1.52" fill="#ffffff"></rect><rect x="3.045" y="10.665" width="1.53" height="1.52" fill="#ffffff"></rect><rect x="1.525" y="12.185" width="1.52" height="16.77" fill="#ffffff"></rect></g></svg>