<svg xmlns="http://www.w3.org/2000/svg" viewBox="0 0 32 32" height="64" width="64"><title>computers-devices-electronics-mouse</title><g><path d="M11.43,16.76v1.53h6.09V16.76h1.53v1.53h6.09V16.76h1.53V27.43h1.52V10.67H26.67V9.15H25.14V7.62H23.62V6.1H19.05V3.05H17.52V6.1H12.95V7.62H11.43V9.15H9.9v1.52H8.38V27.43H9.9V16.76ZM16,9.15h1.52V7.62h1.53V9.15h1.52v3.04H19.05v1.53H17.52V12.19H16Z" fill="#ffffff"></path><rect x="25.14" y="27.43" width="1.53" height="1.53" fill="#ffffff"></rect><rect x="23.62" y="22.86" width="1.52" height="3.05" fill="#ffffff"></rect><rect x="22.09" y="28.96" width="3.05" height="1.52" fill="#ffffff"></rect><rect x="22.09" y="25.91" width="1.53" height="1.52" fill="#ffffff"></rect><rect x="19.05" y="27.43" width="3.04" height="1.53" fill="#ffffff"></rect><rect x="14.47" y="30.48" width="7.62" height="1.52" fill="#ffffff"></rect><rect x="14.47" y="1.53" width="3.05" height="1.52" fill="#ffffff"></rect><rect x="11.43" y="28.96" width="3.04" height="1.52" fill="#ffffff"></rect><rect x="11.43" y="3.05" width="3.04" height="1.52" fill="#ffffff"></rect><rect x="9.9" y="27.43" width="1.53" height="1.53" fill="#ffffff"></rect><rect x="9.9" y="4.57" width="1.53" height="1.53" fill="#ffffff"></rect><rect x="5.33" y="6.1" width="4.57" height="1.52" fill="#ffffff"></rect><rect x="6.86" width="1.52" height="1.53" fill="#ffffff"></rect><rect x="5.33" y="1.53" width="1.53" height="1.52" fill="#ffffff"></rect><rect x="3.81" y="3.05" width="1.52" height="3.05" fill="#ffffff"></rect></g></svg>