<svg xmlns="http://www.w3.org/2000/svg" viewBox="0 0 32 32" height="64" width="64"><title>computers-devices-electronics-board</title><g><rect x="28.95" y="22.86" width="3.05" height="3.05" fill="#ffffff"></rect><rect x="27.43" y="25.91" width="1.52" height="1.52" fill="#ffffff"></rect><polygon points="28.95 16.76 28.95 12.19 30.48 12.19 30.48 7.62 25.91 7.62 25.91 12.19 27.43 12.19 27.43 16.76 28.95 16.76" fill="#ffffff"></polygon><rect x="25.91" y="27.43" width="1.52" height="1.53" fill="#ffffff"></rect><rect x="25.91" y="16.76" width="1.52" height="1.53" fill="#ffffff"></rect><rect x="24.38" y="28.96" width="1.53" height="3.04" fill="#ffffff"></rect><rect x="24.38" y="18.29" width="1.53" height="1.52" fill="#ffffff"></rect><rect x="22.86" y="19.81" width="1.52" height="1.53" fill="#ffffff"></rect><rect x="21.33" y="21.34" width="1.53" height="10.66" fill="#ffffff"></rect><path d="M22.86,16.76V4.57h1.52V0H19.81V4.57h1.52V16.76ZM21.33,1.53h1.53V3.05H21.33Z" fill="#ffffff"></path><rect x="19.81" y="16.76" width="1.52" height="1.53" fill="#ffffff"></rect><rect x="18.29" y="18.29" width="1.52" height="13.71" fill="#ffffff"></rect><polygon points="13.71 15.24 15.24 15.24 15.24 32 16.76 32 16.76 15.24 18.29 15.24 18.29 10.67 13.71 10.67 13.71 15.24" fill="#ffffff"></polygon><rect x="12.19" y="18.29" width="1.52" height="13.71" fill="#ffffff"></rect><rect x="10.67" y="16.76" width="1.52" height="1.53" fill="#ffffff"></rect><rect x="9.14" y="24.38" width="1.53" height="7.62" fill="#ffffff"></rect><polygon points="10.67 9.15 12.19 9.15 12.19 4.57 7.62 4.57 7.62 9.15 9.14 9.15 9.14 16.76 10.67 16.76 10.67 9.15" fill="#ffffff"></polygon><rect x="7.62" y="22.86" width="1.52" height="1.52" fill="#ffffff"></rect><rect x="6.1" y="28.96" width="1.52" height="3.04" fill="#ffffff"></rect><rect x="6.1" y="21.34" width="1.52" height="1.52" fill="#ffffff"></rect><path d="M7.62,19.81V15.24H3.05v4.57H4.57v1.53H6.1V19.81ZM4.57,18.29V16.76H6.1v1.53Z" fill="#ffffff"></path><rect x="4.57" y="27.43" width="1.53" height="1.53" fill="#ffffff"></rect><rect x="3.05" y="25.91" width="1.52" height="1.52" fill="#ffffff"></rect><rect y="22.86" width="3.05" height="3.05" fill="#ffffff"></rect></g></svg>