<svg xmlns="http://www.w3.org/2000/svg" viewBox="0 0 32 32" height="64" width="64"><title>computer-old-electronics-bug</title><g><path d="M30.475,22.86h-4.57V21.33h1.52V19.81H4.575v1.52H6.1v1.53H1.525V32h28.95ZM7.615,21.33h16.76v1.53H7.615Zm21.34,9.15H3.045v-6.1h25.91Z" fill="#ffffff"></path><rect x="27.425" y="1.52" width="1.53" height="18.29" fill="#ffffff"></rect><polygon points="22.855 28.95 24.375 28.95 24.375 27.43 25.905 27.43 25.905 25.9 18.285 25.9 18.285 27.43 22.855 27.43 22.855 28.95" fill="#ffffff"></polygon><rect x="19.805" y="6.1" width="1.53" height="1.52" fill="#ffffff"></rect><rect x="10.665" y="6.1" width="1.52" height="1.52" fill="#ffffff"></rect><path d="M21.335,9.14h-1.53V7.62h-7.62V9.14h-1.52v1.53H9.145v4.57h1.52V12.19h1.52v3.05h1.53V13.71h4.57v1.53h1.52V12.19h1.53v3.05h1.52V10.67h-1.52Zm-6.1,1.53h-1.52V9.14h1.52Zm3.05,0h-1.52V9.14h1.52Z" fill="#ffffff"></path><path d="M6.1,18.29h19.81V3.05H6.1ZM7.615,4.57h16.76V16.76H7.615Z" fill="#ffffff"></path><rect x="6.095" y="25.9" width="1.52" height="1.53" fill="#ffffff"></rect><rect x="4.575" width="22.85" height="1.52" fill="#ffffff"></rect><rect x="3.045" y="1.52" width="1.53" height="18.29" fill="#ffffff"></rect></g></svg>