<svg xmlns="http://www.w3.org/2000/svg" viewBox="0 0 32 32" height="64" width="64"><title>computers-devices-electronics-smart-watch</title><g><polygon points="25.14 22.86 25.14 15.24 26.67 15.24 26.67 12.19 25.14 12.19 25.14 9.14 23.62 9.14 23.62 22.86 25.14 22.86" fill="#ffffff"></polygon><rect x="22.09" y="22.86" width="1.53" height="1.52" fill="#ffffff"></rect><rect x="22.09" y="7.62" width="1.53" height="1.52" fill="#ffffff"></rect><rect x="20.57" y="12.19" width="1.52" height="7.62" fill="#ffffff"></rect><polygon points="19.05 32 19.05 30.48 20.57 30.48 20.57 28.95 22.09 28.95 22.09 27.43 8.38 27.43 8.38 28.95 9.9 28.95 9.9 30.48 11.43 30.48 11.43 32 19.05 32" fill="#ffffff"></polygon><rect x="8.38" y="24.38" width="13.71" height="1.52" fill="#ffffff"></rect><rect x="19.05" y="19.81" width="1.52" height="1.52" fill="#ffffff"></rect><rect x="19.05" y="10.67" width="1.52" height="1.52" fill="#ffffff"></rect><rect x="17.52" y="13.71" width="1.53" height="4.58" fill="#ffffff"></rect><rect x="14.48" y="9.14" width="4.57" height="1.53" fill="#ffffff"></rect><rect x="11.43" y="21.33" width="7.62" height="1.53" fill="#ffffff"></rect><rect x="14.48" y="12.19" width="3.04" height="1.52" fill="#ffffff"></rect><rect x="12.95" y="18.29" width="4.57" height="1.52" fill="#ffffff"></rect><rect x="14.48" y="15.24" width="1.52" height="1.52" fill="#ffffff"></rect><rect x="9.9" y="19.81" width="1.53" height="1.52" fill="#ffffff"></rect><rect x="8.38" y="6.1" width="13.71" height="1.52" fill="#ffffff"></rect><polygon points="11.43 0 11.43 1.52 9.9 1.52 9.9 3.05 8.38 3.05 8.38 4.57 22.09 4.57 22.09 3.05 20.57 3.05 20.57 1.52 19.05 1.52 19.05 0 11.43 0" fill="#ffffff"></polygon><rect x="6.86" y="22.86" width="1.52" height="1.52" fill="#ffffff"></rect><rect x="6.86" y="7.62" width="1.52" height="1.52" fill="#ffffff"></rect><rect x="5.33" y="9.14" width="1.53" height="13.72" fill="#ffffff"></rect></g></svg>