<svg xmlns="http://www.w3.org/2000/svg" viewBox="0 0 32 32" height="64" width="64"><title>computers-devices-electronics-mobile-qr-scan</title><g><path d="M6.86,32H25.14V30.48h1.53V1.52H25.14V0H6.86V1.52H5.33V30.48H6.86ZM16,1.52h3.05V3.05H16Zm-3.05,0h1.53V3.05H12.95ZM6.86,3.05h4.57V4.57h9.14V3.05h4.57v25.9H6.86Z" fill="#ffffff"></path><rect x="20.57" y="15.24" width="1.52" height="1.52" fill="#ffffff"></rect><polygon points="19.05 19.81 19.05 21.33 22.09 21.33 22.09 18.29 20.57 18.29 20.57 19.81 19.05 19.81" fill="#ffffff"></polygon><rect x="19.05" y="16.76" width="1.52" height="1.53" fill="#ffffff"></rect><polygon points="19.05 10.67 20.57 10.67 20.57 13.71 22.09 13.71 22.09 9.14 19.05 9.14 19.05 10.67" fill="#ffffff"></polygon><polygon points="16 12.19 16 15.24 19.05 15.24 19.05 13.71 17.52 13.71 17.52 12.19 16 12.19" fill="#ffffff"></polygon><rect x="16" y="16.76" width="1.52" height="1.53" fill="#ffffff"></rect><rect x="14.48" y="9.14" width="3.04" height="1.53" fill="#ffffff"></rect><rect x="14.48" y="19.81" width="3.04" height="1.52" fill="#ffffff"></rect><rect x="12.95" y="15.24" width="1.53" height="3.05" fill="#ffffff"></rect><rect x="12.95" y="12.19" width="1.53" height="1.52" fill="#ffffff"></rect><polygon points="11.43 18.29 9.9 18.29 9.9 21.33 12.95 21.33 12.95 19.81 11.43 19.81 11.43 18.29" fill="#ffffff"></polygon><rect x="9.9" y="15.24" width="1.53" height="1.52" fill="#ffffff"></rect><polygon points="11.43 10.67 12.95 10.67 12.95 9.14 9.9 9.14 9.9 13.71 11.43 13.71 11.43 10.67" fill="#ffffff"></polygon></g></svg>