<svg xmlns="http://www.w3.org/2000/svg" viewBox="0 0 32 32" height="64" width="64"><title>design-color-bucket</title><g><polygon points="27.425 12.19 25.905 12.19 25.905 6.09 24.385 6.09 24.385 7.62 21.335 7.62 21.335 6.09 10.665 6.09 10.665 7.62 7.615 7.62 7.615 6.09 6.095 6.09 6.095 10.66 7.615 10.66 7.615 12.19 9.145 12.19 9.145 13.71 18.285 13.71 18.285 15.24 7.615 15.24 7.615 16.76 19.805 16.76 19.805 21.33 22.855 21.33 22.855 18.28 24.385 18.28 24.385 16.76 25.905 16.76 25.905 13.71 27.425 13.71 27.425 27.43 28.955 27.43 28.955 4.57 27.425 4.57 27.425 12.19" fill="#ffffff"></polygon><rect x="25.905" y="27.43" width="1.52" height="1.52" fill="#ffffff"></rect><rect x="25.905" y="3.05" width="1.52" height="1.52" fill="#ffffff"></rect><rect x="24.385" y="28.95" width="1.52" height="1.52" fill="#ffffff"></rect><rect x="24.385" y="1.52" width="1.52" height="1.53" fill="#ffffff"></rect><rect x="22.855" y="4.57" width="1.53" height="1.52" fill="#ffffff"></rect><rect x="7.615" y="30.47" width="16.77" height="1.53" fill="#ffffff"></rect><rect x="13.715" y="22.85" width="1.52" height="3.05" fill="#ffffff"></rect><rect x="10.665" y="21.33" width="1.53" height="6.1" fill="#ffffff"></rect><rect x="9.145" y="3.05" width="13.71" height="1.52" fill="#ffffff"></rect><rect x="7.615" width="16.77" height="1.52" fill="#ffffff"></rect><rect x="7.615" y="19.81" width="1.53" height="6.09" fill="#ffffff"></rect><rect x="7.615" y="4.57" width="1.53" height="1.52" fill="#ffffff"></rect><rect x="6.095" y="28.95" width="1.52" height="1.52" fill="#ffffff"></rect><rect x="6.095" y="13.71" width="1.52" height="1.53" fill="#ffffff"></rect><rect x="6.095" y="1.52" width="1.52" height="1.53" fill="#ffffff"></rect><rect x="4.575" y="27.43" width="1.52" height="1.52" fill="#ffffff"></rect><rect x="4.575" y="3.05" width="1.52" height="1.52" fill="#ffffff"></rect><polygon points="4.575 13.71 6.095 13.71 6.095 12.19 4.575 12.19 4.575 4.57 3.045 4.57 3.045 27.43 4.575 27.43 4.575 13.71" fill="#ffffff"></polygon></g></svg>