<svg xmlns="http://www.w3.org/2000/svg" viewBox="0 0 32 32" height="64" width="64"><title>design-drawing-board</title><g><polygon points="30.475 25.9 28.955 25.9 28.955 30.47 27.435 30.47 27.435 27.43 25.905 27.43 25.905 32 30.475 32 30.475 25.9" fill="#ffffff"></polygon><rect x="27.435" y="19.81" width="1.52" height="6.09" fill="#ffffff"></rect><rect x="24.385" y="22.85" width="1.52" height="4.58" fill="#ffffff"></rect><path d="M24.385,16.76h1.52v3.05h1.53V15.24h-1.53V7.62h1.53V1.52H16.765V0h-1.52V1.52H4.575v6.1H6.1V3.05h16.77V7.62h-1.53v7.62h-1.52v6.09H3.055V15.24H1.525v7.61h3.05v4.58H6.1V22.85h1.53v4.58H6.1v3.04H4.575V27.43H3.055V32h4.57V28.95h9.14V32h4.57V27.43h-1.52v3.04h-1.53V27.43H9.145V25.9h9.14v1.53h1.53V22.85h1.52v4.58h1.53V22.85h1.52Zm-6.1,7.62H9.145V22.85h9.14Z" fill="#ffffff"></path><rect x="18.285" y="10.66" width="1.53" height="3.05" fill="#ffffff"></rect><rect x="16.765" y="13.71" width="1.52" height="3.05" fill="#ffffff"></rect><rect x="16.765" y="9.14" width="1.52" height="1.52" fill="#ffffff"></rect><rect x="16.765" y="4.57" width="1.52" height="1.52" fill="#ffffff"></rect><rect x="9.145" y="16.76" width="7.62" height="1.52" fill="#ffffff"></rect><rect x="13.715" y="10.66" width="1.53" height="1.53" fill="#ffffff"></rect><rect x="12.195" y="13.71" width="1.52" height="1.53" fill="#ffffff"></rect><rect x="9.145" y="10.66" width="1.53" height="1.53" fill="#ffffff"></rect><polygon points="16.765 9.14 16.765 6.09 15.245 6.09 15.245 7.62 13.715 7.62 13.715 4.57 12.195 4.57 12.195 7.62 10.675 7.62 10.675 6.09 9.145 6.09 9.145 7.62 7.625 7.62 7.625 9.14 16.765 9.14" fill="#ffffff"></polygon><rect x="7.625" y="13.71" width="1.52" height="3.05" fill="#ffffff"></rect><rect x="7.625" y="4.57" width="1.52" height="1.52" fill="#ffffff"></rect><rect x="6.095" y="9.14" width="1.53" height="4.57" fill="#ffffff"></rect><rect x="3.055" y="7.62" width="1.52" height="7.62" fill="#ffffff"></rect></g></svg>