<svg xmlns="http://www.w3.org/2000/svg" viewBox="0 0 32 32" height="64" width="64"><title>design-dropper-1</title><g><polygon points="21.335 7.62 21.335 9.14 22.865 9.14 22.865 10.66 24.385 10.66 24.385 12.19 27.435 12.19 27.435 10.66 28.955 10.66 28.955 7.62 27.435 7.62 27.435 6.09 28.955 6.09 28.955 4.57 30.475 4.57 30.475 1.52 28.955 1.52 28.955 0 25.905 0 25.905 1.52 24.385 1.52 24.385 3.05 22.865 3.05 22.865 1.52 19.815 1.52 19.815 3.05 18.285 3.05 18.285 6.09 19.815 6.09 19.815 7.62 21.335 7.62" fill="#ffffff"></polygon><rect x="21.335" y="10.66" width="1.53" height="1.53" fill="#ffffff"></rect><rect x="19.815" y="12.19" width="1.52" height="1.52" fill="#ffffff"></rect><rect x="18.285" y="7.62" width="1.53" height="1.52" fill="#ffffff"></rect><polygon points="15.245 13.71 15.245 12.19 13.715 12.19 13.715 13.71 12.195 13.71 12.195 15.24 10.675 15.24 10.675 16.76 9.145 16.76 9.145 21.33 13.715 21.33 13.715 19.81 15.245 19.81 15.245 18.28 16.765 18.28 16.765 16.76 18.285 16.76 18.285 15.24 19.815 15.24 19.815 13.71 15.245 13.71" fill="#ffffff"></polygon><rect x="16.765" y="9.14" width="1.52" height="1.52" fill="#ffffff"></rect><rect x="15.245" y="10.66" width="1.52" height="1.53" fill="#ffffff"></rect><polygon points="7.625 28.95 4.575 28.95 4.575 30.47 1.525 30.47 1.525 32 15.245 32 15.245 30.47 12.195 30.47 12.195 28.95 9.145 28.95 9.145 27.43 7.625 27.43 7.625 28.95" fill="#ffffff"></polygon><rect x="7.625" y="22.85" width="1.52" height="3.05" fill="#ffffff"></rect></g></svg>