<svg xmlns="http://www.w3.org/2000/svg" viewBox="0 0 32 32" height="64" width="64"><title>design-crop-edit-picture</title><g><path d="M28.95,24.38V3.05H7.62V0H3.05V3.05H0V7.62H3.05V28.95H24.38V32h4.57V28.95H32V24.38Zm1.53,3.05H27.43v3.05H25.91V27.43H4.57V6.1H1.53V4.57H4.57V1.52H6.1V4.57H27.43V25.91h3.05Z" fill="#ffffff"></path><path d="M6.1,6.1V25.91H25.91V6.1Zm18.28,9.14H19.81v1.52h4.57v7.62H19.81V22.86H18.29v1.52H7.62V22.86H9.15V21.33H7.62V7.62H24.38Z" fill="#ffffff"></path><rect x="18.29" y="16.76" width="1.52" height="1.53" fill="#ffffff"></rect><rect x="16.76" y="18.29" width="1.53" height="1.52" fill="#ffffff"></rect><rect x="16.76" y="21.33" width="1.53" height="1.53" fill="#ffffff"></rect><rect x="15.24" y="19.81" width="1.52" height="1.52" fill="#ffffff"></rect><polygon points="10.67 15.24 13.72 15.24 13.72 13.71 15.24 13.71 15.24 10.67 13.72 10.67 13.72 9.14 10.67 9.14 10.67 10.67 9.15 10.67 9.15 13.71 10.67 13.71 10.67 15.24" fill="#ffffff"></polygon><rect x="10.67" y="18.29" width="4.57" height="1.52" fill="#ffffff"></rect><rect x="9.15" y="19.81" width="1.52" height="1.52" fill="#ffffff"></rect></g></svg>