<svg xmlns="http://www.w3.org/2000/svg" viewBox="0 0 32 32" height="64" width="64"><title>design-color-spray</title><g><rect x="28.185" y="15.24" width="1.53" height="1.52" fill="#ffffff"></rect><rect x="28.185" y="12.19" width="1.53" height="1.52" fill="#ffffff"></rect><rect x="28.185" y="9.14" width="1.53" height="1.52" fill="#ffffff"></rect><rect x="28.185" y="6.09" width="1.53" height="1.53" fill="#ffffff"></rect><rect x="28.185" y="3.04" width="1.53" height="1.53" fill="#ffffff"></rect><rect x="28.185" width="1.53" height="1.52" fill="#ffffff"></rect><rect x="25.145" y="13.71" width="1.52" height="1.53" fill="#ffffff"></rect><rect x="25.145" y="10.66" width="1.52" height="1.53" fill="#ffffff"></rect><rect x="25.145" y="7.62" width="1.52" height="1.52" fill="#ffffff"></rect><rect x="25.145" y="4.57" width="1.52" height="1.52" fill="#ffffff"></rect><rect x="25.145" y="1.52" width="1.52" height="1.52" fill="#ffffff"></rect><rect x="22.095" y="12.19" width="1.52" height="1.52" fill="#ffffff"></rect><rect x="22.095" y="9.14" width="1.52" height="1.52" fill="#ffffff"></rect><rect x="22.095" y="6.09" width="1.52" height="1.53" fill="#ffffff"></rect><rect x="22.095" y="3.04" width="1.52" height="1.53" fill="#ffffff"></rect><polygon points="3.805 16.76 3.805 15.24 2.285 15.24 2.285 32 3.805 32 3.805 18.28 19.045 18.28 19.045 21.33 11.425 21.33 11.425 22.85 17.525 22.85 17.525 24.38 15.995 24.38 15.995 25.9 14.475 25.9 14.475 27.43 12.945 27.43 12.945 28.95 11.425 28.95 11.425 30.47 19.045 30.47 19.045 32 20.565 32 20.565 15.24 19.045 15.24 19.045 16.76 3.805 16.76" fill="#ffffff"></polygon><rect x="19.045" y="10.66" width="1.52" height="1.53" fill="#ffffff"></rect><rect x="19.045" y="7.62" width="1.52" height="1.52" fill="#ffffff"></rect><rect x="19.045" y="4.57" width="1.52" height="1.52" fill="#ffffff"></rect><rect x="17.525" y="13.71" width="1.52" height="1.53" fill="#ffffff"></rect><rect x="15.995" y="12.19" width="1.53" height="1.52" fill="#ffffff"></rect><rect x="9.905" y="4.57" width="3.04" height="1.52" fill="#ffffff"></rect><rect x="9.905" y="22.85" width="1.52" height="6.1" fill="#ffffff"></rect><polygon points="9.905 10.66 9.905 6.09 8.375 6.09 8.375 10.66 6.855 10.66 6.855 12.19 15.995 12.19 15.995 10.66 14.475 10.66 14.475 9.14 17.525 9.14 17.525 7.62 14.475 7.62 14.475 6.09 12.945 6.09 12.945 10.66 9.905 10.66" fill="#ffffff"></polygon><rect x="5.335" y="12.19" width="1.52" height="1.52" fill="#ffffff"></rect><rect x="3.805" y="13.71" width="1.53" height="1.53" fill="#ffffff"></rect></g></svg>