<svg xmlns="http://www.w3.org/2000/svg" viewBox="0 0 32 32" height="64" width="64"><title>design-color-painting-palette</title><g><rect x="29.72" y="8.38" width="1.52" height="7.62" fill="#ffffff"></rect><rect x="28.19" y="16" width="1.53" height="3.05" fill="#ffffff"></rect><rect x="28.19" y="5.33" width="1.53" height="3.05" fill="#ffffff"></rect><rect x="26.67" y="19.05" width="1.52" height="1.52" fill="#ffffff"></rect><rect x="26.67" y="3.81" width="1.52" height="1.52" fill="#ffffff"></rect><rect x="25.14" y="20.57" width="1.53" height="1.53" fill="#ffffff"></rect><rect x="25.14" y="11.43" width="1.53" height="6.09" fill="#ffffff"></rect><rect x="23.62" y="22.1" width="1.52" height="1.52" fill="#ffffff"></rect><rect x="23.62" y="17.52" width="1.52" height="1.53" fill="#ffffff"></rect><rect x="23.62" y="2.29" width="3.05" height="1.52" fill="#ffffff"></rect><rect x="22.1" y="23.62" width="1.52" height="1.52" fill="#ffffff"></rect><rect x="22.1" y="19.05" width="1.52" height="1.52" fill="#ffffff"></rect><rect x="20.57" y="9.91" width="4.57" height="1.52" fill="#ffffff"></rect><rect x="20.57" y="25.14" width="1.53" height="1.53" fill="#ffffff"></rect><rect x="19.05" y="26.67" width="1.52" height="1.52" fill="#ffffff"></rect><rect x="16" y="20.57" width="6.1" height="1.53" fill="#ffffff"></rect><rect x="19.05" y="11.43" width="1.52" height="1.52" fill="#ffffff"></rect><polygon points="19.05 8.38 22.1 8.38 22.1 6.86 23.62 6.86 23.62 5.33 22.1 5.33 22.1 3.81 19.05 3.81 19.05 5.33 17.53 5.33 17.53 6.86 19.05 6.86 19.05 8.38" fill="#ffffff"></polygon><rect x="17.53" y="28.19" width="1.52" height="1.52" fill="#ffffff"></rect><rect x="17.53" y="12.95" width="1.52" height="1.53" fill="#ffffff"></rect><rect x="16" y="14.48" width="1.53" height="1.52" fill="#ffffff"></rect><rect x="8.38" y="29.71" width="9.15" height="1.53" fill="#ffffff"></rect><rect x="14.48" y="16" width="1.52" height="4.57" fill="#ffffff"></rect><rect x="12.95" y="0.76" width="10.67" height="1.53" fill="#ffffff"></rect><polygon points="14.48 22.1 11.43 22.1 11.43 23.62 9.91 23.62 9.91 26.67 11.43 26.67 11.43 28.19 14.48 28.19 14.48 26.67 16 26.67 16 23.62 14.48 23.62 14.48 22.1" fill="#ffffff"></polygon><rect x="9.91" y="2.29" width="3.04" height="1.52" fill="#ffffff"></rect><polygon points="9.91 12.95 12.95 12.95 12.95 11.43 14.48 11.43 14.48 8.38 12.95 8.38 12.95 6.86 9.91 6.86 9.91 8.38 8.38 8.38 8.38 11.43 9.91 11.43 9.91 12.95" fill="#ffffff"></polygon><polygon points="5.34 20.57 8.38 20.57 8.38 19.05 9.91 19.05 9.91 16 8.38 16 8.38 14.48 5.34 14.48 5.34 16 3.81 16 3.81 19.05 5.34 19.05 5.34 20.57" fill="#ffffff"></polygon><rect x="6.86" y="3.81" width="3.05" height="1.52" fill="#ffffff"></rect><rect x="6.86" y="28.19" width="1.52" height="1.52" fill="#ffffff"></rect><rect x="3.81" y="26.67" width="3.05" height="1.52" fill="#ffffff"></rect><rect x="5.34" y="5.33" width="1.52" height="1.53" fill="#ffffff"></rect><rect x="3.81" y="6.86" width="1.53" height="3.05" fill="#ffffff"></rect><rect x="2.29" y="23.62" width="1.52" height="3.05" fill="#ffffff"></rect><rect x="2.29" y="9.91" width="1.52" height="3.04" fill="#ffffff"></rect><rect x="0.76" y="12.95" width="1.53" height="10.67" fill="#ffffff"></rect></g></svg>