<svg xmlns="http://www.w3.org/2000/svg" viewBox="0 0 32 32" height="64" width="64"><title>entertainment-events-hobbies-bomb</title><g><rect x="28.95" y="6.1" width="3.05" height="1.52" fill="#ffffff"></rect><rect x="28.95" y="10.67" width="1.52" height="1.52" fill="#ffffff"></rect><rect x="28.95" y="1.52" width="1.52" height="1.53" fill="#ffffff"></rect><rect x="27.42" y="9.14" width="1.53" height="1.53" fill="#ffffff"></rect><rect x="27.42" y="3.05" width="1.53" height="1.52" fill="#ffffff"></rect><rect x="24.38" y="6.1" width="1.52" height="3.04" fill="#ffffff"></rect><rect x="24.38" width="1.52" height="3.05" fill="#ffffff"></rect><rect x="19.8" y="9.14" width="4.58" height="1.53" fill="#ffffff"></rect><rect x="21.33" y="3.05" width="1.52" height="1.52" fill="#ffffff"></rect><rect x="19.8" y="1.52" width="1.53" height="1.53" fill="#ffffff"></rect><rect x="18.28" y="7.62" width="1.52" height="1.52" fill="#ffffff"></rect><rect x="16.76" y="6.1" width="1.52" height="1.52" fill="#ffffff"></rect><rect x="12.19" y="4.57" width="4.57" height="1.53" fill="#ffffff"></rect><path d="M10.66,9.14H7.61v3.05H4.57v1.52H3.04v1.53H1.52v3.05H0v6.09H1.52v3.05H3.04v1.52H4.57v1.53H7.61V32h7.62V30.48h3.05V28.95H19.8V27.43h1.53V24.38h1.52V18.29H21.33V15.24H19.8V13.71H18.28V12.19H15.23V9.14H12.19V6.1H10.66Zm4.57,6.1h1.53v1.52h1.52v1.53H19.8v6.09H18.28V18.29H16.76V16.76H15.23Zm0,10.66h1.53v1.53H15.23Z" fill="#ffffff"></path></g></svg>